<svg width="18" height="22" viewBox="0 0 18 22" fill="none" xmlns="http://www.w3.org/2000/svg">
<mask id="mask0_990_1558" style="mask-type:luminance" maskUnits="userSpaceOnUse" x="0" y="0" width="18" height="22">
<path d="M17.5 0.5H0.5V21.5H17.5V0.5Z" fill="white"/>
</mask>
<g mask="url(#mask0_990_1558)">
<path d="M12.5 1.02902C12.5003 2.20938 12.0828 3.34193 11.3386 4.17955C10.5945 5.01717 9.58405 5.49185 8.52788 5.5C8.46156 4.87533 8.51388 4.24204 8.68143 3.6415C8.84897 3.04095 9.12795 2.48666 9.5002 2.0148C9.87245 1.54294 10.3296 1.16414 10.8417 0.903117C11.3539 0.642098 11.9095 0.504736 12.4724 0.5C12.4908 0.67559 12.5 0.852232 12.5 1.02902Z" fill="black"/>
<path d="M12.5 1.02902C12.5003 2.20938 12.0828 3.34193 11.3386 4.17955C10.5945 5.01717 9.58405 5.49185 8.52788 5.5C8.46156 4.87533 8.51388 4.24204 8.68143 3.6415C8.84897 3.04095 9.12795 2.48666 9.5002 2.0148C9.87245 1.54294 10.3296 1.16414 10.8417 0.903117C11.3539 0.642098 11.9095 0.504736 12.4724 0.5C12.4908 0.67559 12.5 0.852232 12.5 1.02902Z" fill="black"/>
<path d="M17.499 15.7739C16.8989 17.6721 15.8331 19.3809 14.4035 20.737L14.3514 20.7862C13.956 21.1517 13.4635 21.3888 12.9363 21.4675C12.4091 21.5462 11.871 21.4629 11.3901 21.2282C11.3313 21.1947 11.2719 21.1626 11.2118 21.1318C10.6219 20.8341 9.97387 20.6768 9.3162 20.6716C8.65854 20.6665 8.00824 20.8136 7.41398 21.1021C7.31447 21.1506 7.21697 21.2032 7.12146 21.26C6.64796 21.4768 6.12334 21.5488 5.61076 21.4675C5.09818 21.3862 4.61948 21.1549 4.2323 20.8016L4.16618 20.7401C3.01413 19.6501 2.09509 18.3276 1.46699 16.8561C0.838879 15.3846 0.51531 13.7958 0.516663 12.19C0.452234 11.2004 0.575029 10.2074 0.878309 9.26542C2.71158 4.70836 6.28797 5.40872 8.08318 6.32034C10.0307 7.31092 9.9996 5.5 12.9449 5.5C13.7116 5.53425 14.4628 5.73337 15.1494 6.08443C15.836 6.43549 16.4427 6.93061 16.93 7.53755C16.1521 7.92806 15.5057 8.54732 15.0736 9.31607C14.6415 10.0848 14.4434 10.9681 14.5047 11.8527C14.5659 12.7374 14.8836 13.5833 15.4173 14.282C15.9509 14.9807 16.6761 15.5005 17.5 15.7749" fill="black"/>
</g>
</svg>
