<svg width="214" height="71" viewBox="0 0 214 71" fill="none" xmlns="http://www.w3.org/2000/svg">
<rect x="1.3875" y="0.8875" width="211.225" height="69.225" rx="9.7625" fill="black"/>
<rect x="1.3875" y="0.8875" width="211.225" height="69.225" rx="9.7625" stroke="#A6A6A6" stroke-width="1.775"/>
<path d="M44.3505 36.8543C44.3721 35.2215 44.8163 33.6205 45.6419 32.2003C46.4675 30.7801 47.6477 29.5869 49.0726 28.7317C48.1674 27.4696 46.9732 26.4309 45.585 25.6982C44.1967 24.9655 42.6525 24.5589 41.0752 24.5107C37.7103 24.1658 34.4483 26.4764 32.7336 26.4764C30.9858 26.4764 28.3458 24.5449 25.503 24.602C23.6642 24.66 21.8721 25.182 20.3014 26.1173C18.7307 27.0525 17.4349 28.369 16.5402 29.9385C12.665 36.4889 15.5556 46.1159 19.2678 51.4108C21.1251 54.0036 23.2957 56.8998 26.136 56.7971C28.9154 56.6845 29.9534 55.0668 33.3083 55.0668C36.6321 55.0668 37.606 56.7971 40.5039 56.7318C43.4863 56.6845 45.3653 54.1275 47.1575 51.5102C48.4919 49.6627 49.5188 47.6209 50.2 45.4604C48.4674 44.7449 46.9887 43.5473 45.9485 42.0169C44.9083 40.4865 44.3525 38.691 44.3505 36.8543Z" fill="white"/>
<path d="M38.877 21.0289C40.5031 19.123 41.3042 16.6734 41.1102 14.2002C38.6259 14.4549 36.3311 15.6142 34.683 17.4469C33.8772 18.3422 33.26 19.3838 32.8668 20.5121C32.4735 21.6404 32.3119 22.8334 32.3912 24.0227C33.6338 24.0352 34.8632 23.7722 35.9866 23.2536C37.11 22.7351 38.0983 21.9744 38.877 21.0289Z" fill="white"/>
<path d="M65.424 28V16.64H69.28C70.4853 16.64 71.488 16.896 72.288 17.408C73.0987 17.9093 73.7067 18.592 74.112 19.456C74.5173 20.3093 74.72 21.2587 74.72 22.304C74.72 23.456 74.496 24.4587 74.048 25.312C73.6107 26.1653 72.9813 26.8267 72.16 27.296C71.3493 27.7653 70.3893 28 69.28 28H65.424ZM73.6 22.304C73.6 21.3973 73.4293 20.592 73.088 19.888C72.7573 19.184 72.272 18.6347 71.632 18.24C70.992 17.8347 70.208 17.632 69.28 17.632H66.544V27.008H69.28C70.2187 27.008 71.008 26.8 71.648 26.384C72.288 25.968 72.7733 25.408 73.104 24.704C73.4347 23.9893 73.6 23.1893 73.6 22.304ZM80.1895 28.16C79.5922 28.16 79.0375 28.048 78.5255 27.824C78.0242 27.5893 77.5868 27.2747 77.2135 26.88C76.8508 26.4747 76.5682 26.016 76.3655 25.504C76.1628 24.9813 76.0615 24.432 76.0615 23.856C76.0615 23.2587 76.1628 22.704 76.3655 22.192C76.5682 21.6693 76.8562 21.2107 77.2295 20.816C77.6028 20.4107 78.0402 20.096 78.5415 19.872C79.0535 19.6373 79.6082 19.52 80.2055 19.52C80.8028 19.52 81.3522 19.6373 81.8535 19.872C82.3548 20.096 82.7922 20.4107 83.1655 20.816C83.5388 21.2107 83.8268 21.6693 84.0295 22.192C84.2322 22.704 84.3335 23.2587 84.3335 23.856C84.3335 24.432 84.2322 24.9813 84.0295 25.504C83.8268 26.016 83.5388 26.4747 83.1655 26.88C82.8028 27.2747 82.3655 27.5893 81.8535 27.824C81.3522 28.048 80.7975 28.16 80.1895 28.16ZM77.1655 23.872C77.1655 24.4907 77.2988 25.056 77.5655 25.568C77.8428 26.0693 78.2108 26.4693 78.6695 26.768C79.1282 27.056 79.6348 27.2 80.1895 27.2C80.7442 27.2 81.2508 27.0507 81.7095 26.752C82.1682 26.4533 82.5362 26.048 82.8135 25.536C83.0908 25.0133 83.2295 24.448 83.2295 23.84C83.2295 23.2213 83.0908 22.656 82.8135 22.144C82.5362 21.632 82.1682 21.2267 81.7095 20.928C81.2508 20.6293 80.7442 20.48 80.1895 20.48C79.6348 20.48 79.1282 20.6347 78.6695 20.944C78.2215 21.2533 77.8588 21.664 77.5815 22.176C77.3042 22.6773 77.1655 23.2427 77.1655 23.872ZM96.3679 19.664H97.4399L93.8559 28H92.9119L91.1679 23.856L89.4399 28H88.4959L84.9119 19.664H85.9679L89.0079 26.88L90.5439 23.12L89.1359 19.68H90.1119L91.1679 22.384L92.2399 19.68H93.1999L91.8079 23.12L93.3439 26.88L96.3679 19.664ZM105.896 28H104.808V23.344C104.808 22.3627 104.664 21.648 104.376 21.2C104.088 20.7413 103.634 20.512 103.016 20.512C102.589 20.512 102.168 20.6187 101.752 20.832C101.336 21.0347 100.968 21.3173 100.648 21.68C100.338 22.032 100.114 22.4373 99.9755 22.896V28H98.8875V19.664H99.8795V21.552C100.104 21.1467 100.397 20.7947 100.76 20.496C101.122 20.1867 101.533 19.9467 101.992 19.776C102.45 19.6053 102.925 19.52 103.416 19.52C103.874 19.52 104.264 19.6053 104.584 19.776C104.904 19.9467 105.16 20.192 105.352 20.512C105.544 20.8213 105.682 21.2 105.767 21.648C105.853 22.0853 105.896 22.576 105.896 23.12V28ZM108.264 16.32H109.352V26.112C109.352 26.528 109.426 26.8 109.576 26.928C109.725 27.056 109.906 27.12 110.12 27.12C110.312 27.12 110.504 27.0987 110.696 27.056C110.888 27.0133 111.053 26.9707 111.192 26.928L111.384 27.808C111.181 27.8933 110.93 27.9627 110.632 28.016C110.344 28.0693 110.093 28.096 109.88 28.096C109.389 28.096 108.994 27.952 108.696 27.664C108.408 27.376 108.264 26.9813 108.264 26.48V16.32ZM116.127 28.16C115.53 28.16 114.975 28.048 114.463 27.824C113.962 27.5893 113.524 27.2747 113.151 26.88C112.788 26.4747 112.506 26.016 112.303 25.504C112.1 24.9813 111.999 24.432 111.999 23.856C111.999 23.2587 112.1 22.704 112.303 22.192C112.506 21.6693 112.794 21.2107 113.167 20.816C113.54 20.4107 113.978 20.096 114.479 19.872C114.991 19.6373 115.546 19.52 116.143 19.52C116.74 19.52 117.29 19.6373 117.791 19.872C118.292 20.096 118.73 20.4107 119.103 20.816C119.476 21.2107 119.764 21.6693 119.967 22.192C120.17 22.704 120.271 23.2587 120.271 23.856C120.271 24.432 120.17 24.9813 119.967 25.504C119.764 26.016 119.476 26.4747 119.103 26.88C118.74 27.2747 118.303 27.5893 117.791 27.824C117.29 28.048 116.735 28.16 116.127 28.16ZM113.103 23.872C113.103 24.4907 113.236 25.056 113.503 25.568C113.78 26.0693 114.148 26.4693 114.607 26.768C115.066 27.056 115.572 27.2 116.127 27.2C116.682 27.2 117.188 27.0507 117.647 26.752C118.106 26.4533 118.474 26.048 118.751 25.536C119.028 25.0133 119.167 24.448 119.167 23.84C119.167 23.2213 119.028 22.656 118.751 22.144C118.474 21.632 118.106 21.2267 117.647 20.928C117.188 20.6293 116.682 20.48 116.127 20.48C115.572 20.48 115.066 20.6347 114.607 20.944C114.159 21.2533 113.796 21.664 113.519 22.176C113.242 22.6773 113.103 23.2427 113.103 23.872ZM121.419 25.6C121.419 25.0773 121.568 24.6293 121.867 24.256C122.165 23.872 122.576 23.5787 123.099 23.376C123.632 23.1627 124.245 23.056 124.939 23.056C125.344 23.056 125.765 23.088 126.203 23.152C126.64 23.216 127.029 23.312 127.371 23.44V22.736C127.371 22.032 127.163 21.472 126.747 21.056C126.331 20.64 125.755 20.432 125.019 20.432C124.571 20.432 124.128 20.5173 123.691 20.688C123.264 20.848 122.816 21.088 122.347 21.408L121.931 20.64C122.475 20.2667 123.008 19.9893 123.531 19.808C124.053 19.616 124.587 19.52 125.131 19.52C126.155 19.52 126.965 19.8133 127.563 20.4C128.16 20.9867 128.459 21.7973 128.459 22.832V26.688C128.459 26.8373 128.491 26.9493 128.555 27.024C128.619 27.088 128.72 27.1253 128.859 27.136V28C128.741 28.0107 128.64 28.0213 128.555 28.032C128.469 28.0427 128.405 28.0427 128.363 28.032C128.096 28.0213 127.893 27.936 127.755 27.776C127.616 27.616 127.541 27.4453 127.531 27.264L127.515 26.656C127.141 27.136 126.656 27.5093 126.059 27.776C125.461 28.032 124.853 28.16 124.235 28.16C123.701 28.16 123.216 28.048 122.779 27.824C122.352 27.5893 122.016 27.28 121.771 26.896C121.536 26.5013 121.419 26.0693 121.419 25.6ZM127.003 26.24C127.12 26.0907 127.211 25.9467 127.275 25.808C127.339 25.6693 127.371 25.5467 127.371 25.44V24.224C127.008 24.0853 126.629 23.9787 126.235 23.904C125.851 23.8293 125.461 23.792 125.067 23.792C124.288 23.792 123.659 23.9467 123.179 24.256C122.699 24.5653 122.459 24.9867 122.459 25.52C122.459 25.8293 122.539 26.1227 122.699 26.4C122.859 26.6667 123.093 26.8907 123.403 27.072C123.712 27.2427 124.075 27.328 124.491 27.328C125.013 27.328 125.499 27.2267 125.947 27.024C126.405 26.8213 126.757 26.56 127.003 26.24ZM130.249 23.856C130.249 23.0667 130.409 22.3467 130.729 21.696C131.06 21.0347 131.513 20.5067 132.089 20.112C132.665 19.7173 133.321 19.52 134.057 19.52C134.751 19.52 135.369 19.7067 135.913 20.08C136.468 20.4427 136.9 20.8853 137.209 21.408V16.32H138.297V26.688C138.297 26.8373 138.329 26.9493 138.393 27.024C138.457 27.088 138.553 27.1253 138.681 27.136V28C138.468 28.032 138.303 28.0427 138.185 28.032C137.961 28.0213 137.764 27.9307 137.593 27.76C137.423 27.5893 137.337 27.4027 137.337 27.2V26.384C137.007 26.928 136.559 27.36 135.993 27.68C135.428 28 134.841 28.16 134.233 28.16C133.657 28.16 133.124 28.0427 132.633 27.808C132.153 27.5733 131.732 27.2533 131.369 26.848C131.017 26.4427 130.74 25.984 130.537 25.472C130.345 24.9493 130.249 24.4107 130.249 23.856ZM137.209 25.136V22.56C137.071 22.176 136.847 21.8293 136.537 21.52C136.228 21.2 135.876 20.9493 135.481 20.768C135.097 20.576 134.713 20.48 134.329 20.48C133.881 20.48 133.476 20.576 133.113 20.768C132.751 20.9493 132.436 21.2 132.169 21.52C131.913 21.84 131.716 22.2027 131.577 22.608C131.439 23.0133 131.369 23.4293 131.369 23.856C131.369 24.304 131.444 24.7307 131.593 25.136C131.753 25.5413 131.977 25.904 132.265 26.224C132.553 26.5333 132.884 26.7733 133.257 26.944C133.631 27.1147 134.036 27.2 134.473 27.2C134.751 27.2 135.039 27.1467 135.337 27.04C135.636 26.9333 135.919 26.7893 136.185 26.608C136.463 26.416 136.692 26.192 136.873 25.936C137.055 25.68 137.167 25.4133 137.209 25.136ZM148.393 28.16C147.795 28.16 147.241 28.048 146.729 27.824C146.227 27.5893 145.79 27.2747 145.417 26.88C145.054 26.4747 144.771 26.016 144.569 25.504C144.366 24.9813 144.265 24.432 144.265 23.856C144.265 23.2587 144.366 22.704 144.569 22.192C144.771 21.6693 145.059 21.2107 145.433 20.816C145.806 20.4107 146.243 20.096 146.745 19.872C147.257 19.6373 147.811 19.52 148.409 19.52C149.006 19.52 149.555 19.6373 150.057 19.872C150.558 20.096 150.995 20.4107 151.369 20.816C151.742 21.2107 152.03 21.6693 152.233 22.192C152.435 22.704 152.537 23.2587 152.537 23.856C152.537 24.432 152.435 24.9813 152.233 25.504C152.03 26.016 151.742 26.4747 151.369 26.88C151.006 27.2747 150.569 27.5893 150.057 27.824C149.555 28.048 149.001 28.16 148.393 28.16ZM145.369 23.872C145.369 24.4907 145.502 25.056 145.769 25.568C146.046 26.0693 146.414 26.4693 146.873 26.768C147.331 27.056 147.838 27.2 148.393 27.2C148.947 27.2 149.454 27.0507 149.913 26.752C150.371 26.4533 150.739 26.048 151.017 25.536C151.294 25.0133 151.433 24.448 151.433 23.84C151.433 23.2213 151.294 22.656 151.017 22.144C150.739 21.632 150.371 21.2267 149.913 20.928C149.454 20.6293 148.947 20.48 148.393 20.48C147.838 20.48 147.331 20.6347 146.873 20.944C146.425 21.2533 146.062 21.664 145.785 22.176C145.507 22.6773 145.369 23.2427 145.369 23.872ZM161.364 28H160.276V23.344C160.276 22.3627 160.132 21.648 159.844 21.2C159.556 20.7413 159.103 20.512 158.484 20.512C158.058 20.512 157.636 20.6187 157.22 20.832C156.804 21.0347 156.436 21.3173 156.116 21.68C155.807 22.032 155.583 22.4373 155.444 22.896V28H154.356V19.664H155.348V21.552C155.572 21.1467 155.866 20.7947 156.228 20.496C156.591 20.1867 157.002 19.9467 157.46 19.776C157.919 19.6053 158.394 19.52 158.884 19.52C159.343 19.52 159.732 19.6053 160.052 19.776C160.372 19.9467 160.628 20.192 160.82 20.512C161.012 20.8213 161.151 21.2 161.236 21.648C161.322 22.0853 161.364 22.576 161.364 23.12V28ZM171.763 27.6C171.677 27.632 171.544 27.6907 171.363 27.776C171.181 27.8613 170.963 27.936 170.707 28C170.451 28.064 170.173 28.096 169.875 28.096C169.565 28.096 169.272 28.0373 168.995 27.92C168.728 27.8027 168.515 27.6267 168.355 27.392C168.195 27.1467 168.115 26.848 168.115 26.496V20.528H166.963V19.664H168.115V16.848H169.203V19.664H171.123V20.528H169.203V26.192C169.224 26.4907 169.331 26.7147 169.523 26.864C169.725 27.0133 169.955 27.088 170.211 27.088C170.509 27.088 170.781 27.04 171.027 26.944C171.272 26.8373 171.421 26.7627 171.475 26.72L171.763 27.6ZM180.13 28H179.042V23.344C179.042 22.4053 178.877 21.7013 178.546 21.232C178.215 20.752 177.741 20.512 177.122 20.512C176.717 20.512 176.311 20.6187 175.906 20.832C175.511 21.0347 175.159 21.3173 174.85 21.68C174.551 22.032 174.338 22.4373 174.21 22.896V28H173.122V16.32H174.21V21.552C174.541 20.9333 174.999 20.4427 175.586 20.08C176.183 19.7067 176.818 19.52 177.49 19.52C177.97 19.52 178.375 19.6053 178.706 19.776C179.047 19.9467 179.319 20.1973 179.522 20.528C179.735 20.848 179.89 21.2267 179.986 21.664C180.082 22.0907 180.13 22.576 180.13 23.12V28ZM186.05 28.16C185.453 28.16 184.898 28.048 184.386 27.824C183.874 27.5893 183.431 27.2747 183.058 26.88C182.685 26.4747 182.391 26.0107 182.178 25.488C181.975 24.9653 181.874 24.4053 181.874 23.808C181.874 23.0293 182.05 22.3147 182.402 21.664C182.765 21.0133 183.261 20.496 183.89 20.112C184.519 19.7173 185.234 19.52 186.034 19.52C186.855 19.52 187.57 19.7173 188.178 20.112C188.797 20.5067 189.282 21.0293 189.634 21.68C189.986 22.32 190.162 23.024 190.162 23.792C190.162 23.8773 190.162 23.9627 190.162 24.048C190.162 24.1227 190.157 24.1813 190.146 24.224H183.01C183.063 24.8213 183.229 25.3547 183.506 25.824C183.794 26.2827 184.162 26.6507 184.61 26.928C185.069 27.1947 185.565 27.328 186.098 27.328C186.642 27.328 187.154 27.1893 187.634 26.912C188.125 26.6347 188.466 26.272 188.658 25.824L189.602 26.08C189.431 26.4747 189.17 26.832 188.818 27.152C188.466 27.472 188.05 27.7227 187.57 27.904C187.101 28.0747 186.594 28.16 186.05 28.16ZM182.978 23.44H189.138C189.095 22.832 188.93 22.2987 188.642 21.84C188.365 21.3813 187.997 21.024 187.538 20.768C187.09 20.5013 186.594 20.368 186.05 20.368C185.506 20.368 185.01 20.5013 184.562 20.768C184.114 21.024 183.746 21.3867 183.458 21.856C183.181 22.3147 183.021 22.8427 182.978 23.44Z" fill="white"/>
<path d="M70.408 36.96H73.768L80.032 54H76.624L75.04 49.752H69.088L67.528 54H64.12L70.408 36.96ZM74.44 47.424L72.088 40.392L69.64 47.424H74.44ZM88.2908 54.24C87.3148 54.24 86.4508 54.024 85.6988 53.592C84.9628 53.144 84.3868 52.544 83.9708 51.792V59.112H80.7548V41.424H83.5628V43.584C84.0428 42.848 84.6508 42.272 85.3868 41.856C86.1228 41.424 86.9628 41.208 87.9068 41.208C88.7548 41.208 89.5308 41.376 90.2348 41.712C90.9548 42.048 91.5788 42.52 92.1068 43.128C92.6348 43.72 93.0428 44.408 93.3308 45.192C93.6348 45.96 93.7868 46.792 93.7868 47.688C93.7868 48.904 93.5468 50.008 93.0668 51C92.6028 51.992 91.9548 52.784 91.1228 53.376C90.3068 53.952 89.3628 54.24 88.2908 54.24ZM87.2108 51.504C87.7068 51.504 88.1548 51.4 88.5548 51.192C88.9548 50.984 89.2988 50.704 89.5868 50.352C89.8908 49.984 90.1148 49.576 90.2588 49.128C90.4188 48.664 90.4988 48.184 90.4988 47.688C90.4988 47.16 90.4108 46.672 90.2348 46.224C90.0748 45.776 89.8348 45.384 89.5148 45.048C89.1948 44.696 88.8188 44.424 88.3868 44.232C87.9708 44.04 87.5148 43.944 87.0188 43.944C86.7148 43.944 86.4028 44 86.0828 44.112C85.7788 44.208 85.4828 44.352 85.1948 44.544C84.9068 44.736 84.6508 44.96 84.4268 45.216C84.2188 45.472 84.0668 45.752 83.9708 46.056V49.008C84.1628 49.472 84.4188 49.896 84.7388 50.28C85.0748 50.664 85.4588 50.968 85.8908 51.192C86.3228 51.4 86.7628 51.504 87.2108 51.504ZM102.667 54.24C101.691 54.24 100.827 54.024 100.075 53.592C99.3394 53.144 98.7634 52.544 98.3474 51.792V59.112H95.1314V41.424H97.9394V43.584C98.4194 42.848 99.0274 42.272 99.7634 41.856C100.499 41.424 101.339 41.208 102.283 41.208C103.131 41.208 103.907 41.376 104.611 41.712C105.331 42.048 105.955 42.52 106.483 43.128C107.011 43.72 107.419 44.408 107.707 45.192C108.011 45.96 108.163 46.792 108.163 47.688C108.163 48.904 107.923 50.008 107.443 51C106.979 51.992 106.331 52.784 105.499 53.376C104.683 53.952 103.739 54.24 102.667 54.24ZM101.587 51.504C102.083 51.504 102.531 51.4 102.931 51.192C103.331 50.984 103.675 50.704 103.963 50.352C104.267 49.984 104.491 49.576 104.635 49.128C104.795 48.664 104.875 48.184 104.875 47.688C104.875 47.16 104.787 46.672 104.611 46.224C104.451 45.776 104.211 45.384 103.891 45.048C103.571 44.696 103.195 44.424 102.763 44.232C102.347 44.04 101.891 43.944 101.395 43.944C101.091 43.944 100.779 44 100.459 44.112C100.155 44.208 99.8594 44.352 99.5714 44.544C99.2834 44.736 99.0274 44.96 98.8034 45.216C98.5954 45.472 98.4434 45.752 98.3474 46.056V49.008C98.5394 49.472 98.7954 49.896 99.1154 50.28C99.4514 50.664 99.8354 50.968 100.267 51.192C100.699 51.4 101.139 51.504 101.587 51.504ZM124.904 41.424C124.792 41.312 124.584 41.16 124.28 40.968C123.992 40.776 123.632 40.592 123.2 40.416C122.784 40.24 122.328 40.088 121.832 39.96C121.336 39.816 120.832 39.744 120.32 39.744C119.424 39.744 118.744 39.912 118.28 40.248C117.832 40.584 117.608 41.056 117.608 41.664C117.608 42.128 117.752 42.496 118.04 42.768C118.328 43.04 118.76 43.272 119.336 43.464C119.912 43.656 120.632 43.864 121.496 44.088C122.616 44.36 123.584 44.696 124.4 45.096C125.232 45.48 125.864 45.992 126.296 46.632C126.744 47.256 126.968 48.088 126.968 49.128C126.968 50.04 126.8 50.824 126.464 51.48C126.128 52.12 125.664 52.64 125.072 53.04C124.48 53.44 123.808 53.736 123.056 53.928C122.304 54.104 121.504 54.192 120.656 54.192C119.808 54.192 118.96 54.104 118.112 53.928C117.264 53.752 116.448 53.504 115.664 53.184C114.88 52.848 114.16 52.448 113.504 51.984L114.968 49.128C115.112 49.272 115.368 49.464 115.736 49.704C116.104 49.928 116.552 50.16 117.08 50.4C117.608 50.624 118.184 50.816 118.808 50.976C119.432 51.136 120.064 51.216 120.704 51.216C121.6 51.216 122.28 51.064 122.744 50.76C123.208 50.456 123.44 50.024 123.44 49.464C123.44 48.952 123.256 48.552 122.888 48.264C122.52 47.976 122.008 47.728 121.352 47.52C120.696 47.296 119.92 47.056 119.024 46.8C117.952 46.496 117.056 46.16 116.336 45.792C115.616 45.408 115.08 44.928 114.728 44.352C114.376 43.776 114.2 43.056 114.2 42.192C114.2 41.024 114.472 40.048 115.016 39.264C115.576 38.464 116.328 37.864 117.272 37.464C118.216 37.048 119.264 36.84 120.416 36.84C121.216 36.84 121.968 36.928 122.672 37.104C123.392 37.28 124.064 37.512 124.688 37.8C125.312 38.088 125.872 38.4 126.368 38.736L124.904 41.424ZM135.579 53.352C135.307 53.464 134.979 53.592 134.595 53.736C134.211 53.88 133.795 53.992 133.347 54.072C132.915 54.168 132.475 54.216 132.027 54.216C131.435 54.216 130.891 54.112 130.395 53.904C129.899 53.696 129.499 53.368 129.195 52.92C128.907 52.456 128.763 51.856 128.763 51.12V43.896H127.107V41.424H128.763V37.344H131.979V41.424H134.619V43.896H131.979V50.04C131.995 50.472 132.115 50.784 132.339 50.976C132.563 51.168 132.843 51.264 133.179 51.264C133.515 51.264 133.843 51.208 134.163 51.096C134.483 50.984 134.739 50.888 134.931 50.808L135.579 53.352ZM142.087 54.24C141.063 54.24 140.143 54.072 139.327 53.736C138.511 53.384 137.815 52.904 137.239 52.296C136.679 51.688 136.247 50.992 135.943 50.208C135.639 49.424 135.487 48.6 135.487 47.736C135.487 46.856 135.639 46.024 135.943 45.24C136.247 44.456 136.679 43.76 137.239 43.152C137.815 42.544 138.511 42.072 139.327 41.736C140.143 41.384 141.063 41.208 142.087 41.208C143.111 41.208 144.023 41.384 144.823 41.736C145.639 42.072 146.335 42.544 146.911 43.152C147.487 43.76 147.919 44.456 148.207 45.24C148.511 46.024 148.663 46.856 148.663 47.736C148.663 48.6 148.511 49.424 148.207 50.208C147.919 50.992 147.487 51.688 146.911 52.296C146.351 52.904 145.663 53.384 144.847 53.736C144.031 54.072 143.111 54.24 142.087 54.24ZM138.799 47.736C138.799 48.472 138.943 49.128 139.231 49.704C139.519 50.264 139.911 50.704 140.407 51.024C140.903 51.344 141.463 51.504 142.087 51.504C142.695 51.504 143.247 51.344 143.743 51.024C144.239 50.688 144.631 50.24 144.919 49.68C145.223 49.104 145.375 48.448 145.375 47.712C145.375 46.992 145.223 46.344 144.919 45.768C144.631 45.192 144.239 44.744 143.743 44.424C143.247 44.104 142.695 43.944 142.087 43.944C141.463 43.944 140.903 44.112 140.407 44.448C139.911 44.768 139.519 45.216 139.231 45.792C138.943 46.352 138.799 47 138.799 47.736ZM157.487 44.208C156.511 44.208 155.639 44.4 154.871 44.784C154.103 45.152 153.551 45.688 153.215 46.392V54H149.999V41.424H152.951V44.112C153.399 43.248 153.967 42.568 154.655 42.072C155.343 41.576 156.071 41.304 156.839 41.256C157.015 41.256 157.151 41.256 157.247 41.256C157.343 41.256 157.423 41.264 157.487 41.28V44.208ZM164.114 54.24C163.106 54.24 162.194 54.072 161.378 53.736C160.562 53.384 159.866 52.912 159.29 52.32C158.714 51.712 158.266 51.024 157.946 50.256C157.642 49.472 157.49 48.648 157.49 47.784C157.49 46.584 157.754 45.488 158.282 44.496C158.826 43.504 159.594 42.712 160.586 42.12C161.594 41.512 162.778 41.208 164.138 41.208C165.514 41.208 166.69 41.512 167.666 42.12C168.642 42.712 169.386 43.504 169.898 44.496C170.426 45.472 170.69 46.528 170.69 47.664C170.69 47.856 170.682 48.056 170.666 48.264C170.65 48.456 170.634 48.616 170.618 48.744H160.898C160.962 49.384 161.146 49.944 161.45 50.424C161.77 50.904 162.17 51.272 162.65 51.528C163.146 51.768 163.674 51.888 164.234 51.888C164.874 51.888 165.474 51.736 166.034 51.432C166.61 51.112 167.002 50.696 167.21 50.184L169.97 50.952C169.666 51.592 169.226 52.16 168.65 52.656C168.09 53.152 167.426 53.544 166.658 53.832C165.89 54.104 165.042 54.24 164.114 54.24ZM160.826 46.704H167.402C167.338 46.064 167.154 45.512 166.85 45.048C166.562 44.568 166.178 44.2 165.698 43.944C165.218 43.672 164.682 43.536 164.09 43.536C163.514 43.536 162.986 43.672 162.506 43.944C162.042 44.2 161.658 44.568 161.354 45.048C161.066 45.512 160.89 46.064 160.826 46.704Z" fill="white"/>
</svg>
