<svg width="37" height="43" viewBox="0 0 37 43" fill="none" xmlns="http://www.w3.org/2000/svg">
<path d="M30.3505 22.8543C30.3721 21.2215 30.8163 19.6205 31.6419 18.2003C32.4675 16.7801 33.6477 15.5869 35.0726 14.7317C34.1674 13.4696 32.9732 12.4309 31.585 11.6982C30.1967 10.9655 28.6525 10.5589 27.0752 10.5107C23.7103 10.1658 20.4483 12.4764 18.7336 12.4764C16.9858 12.4764 14.3458 10.5449 11.503 10.602C9.66416 10.66 7.8721 11.182 6.30138 12.1173C4.73066 13.0525 3.43487 14.369 2.54025 15.9385C-1.33496 22.4889 1.5556 32.1159 5.2678 37.4108C7.1251 40.0036 9.29573 42.8998 12.136 42.7971C14.9154 42.6845 15.9534 41.0668 19.3083 41.0668C22.6321 41.0668 23.606 42.7971 26.5039 42.7318C29.4863 42.6845 31.3653 40.1275 33.1575 37.5102C34.4919 35.6627 35.5188 33.6209 36.2 31.4604C34.4674 30.7449 32.9887 29.5473 31.9485 28.0169C30.9083 26.4865 30.3525 24.691 30.3505 22.8543Z" fill="white"/>
<path d="M24.877 7.02885C26.5031 5.12302 27.3042 2.6734 27.1102 0.200195C24.6259 0.454942 22.3311 1.61415 20.683 3.44686C19.8772 4.34218 19.26 5.38378 18.8668 6.51211C18.4735 7.64043 18.3119 8.83336 18.3912 10.0227C19.6338 10.0352 20.8632 9.77223 21.9866 9.25365C23.11 8.73506 24.0983 7.97437 24.877 7.02885Z" fill="white"/>
</svg>
