<svg width="147" height="48" viewBox="0 0 147 48" fill="none" xmlns="http://www.w3.org/2000/svg">
<rect width="147" height="48" rx="24" fill="white"/>
<rect x="0.5" y="0.5" width="146" height="47" rx="23.5" stroke="#ED1C24" stroke-opacity="0.15"/>
<mask id="mask0_990_1557" style="mask-type:luminance" maskUnits="userSpaceOnUse" x="42" y="13" width="18" height="22">
<path d="M59.5 13.5H42.5V34.5H59.5V13.5Z" fill="white"/>
</mask>
<g mask="url(#mask0_990_1557)">
<path d="M54.5 14.029C54.5003 15.2094 54.0828 16.3419 53.3386 17.1796C52.5945 18.0172 51.5841 18.4918 50.5279 18.5C50.4616 17.8753 50.5139 17.242 50.6814 16.6415C50.849 16.041 51.128 15.4867 51.5002 15.0148C51.8724 14.5429 52.3296 14.1641 52.8417 13.9031C53.3539 13.6421 53.9095 13.5047 54.4724 13.5C54.4908 13.6756 54.5 13.8522 54.5 14.029Z" fill="black"/>
<path d="M54.5 14.029C54.5003 15.2094 54.0828 16.3419 53.3386 17.1796C52.5945 18.0172 51.5841 18.4918 50.5279 18.5C50.4616 17.8753 50.5139 17.242 50.6814 16.6415C50.849 16.041 51.128 15.4867 51.5002 15.0148C51.8724 14.5429 52.3296 14.1641 52.8417 13.9031C53.3539 13.6421 53.9095 13.5047 54.4724 13.5C54.4908 13.6756 54.5 13.8522 54.5 14.029Z" fill="black"/>
<path d="M59.499 28.7739C58.8989 30.6721 57.8331 32.3809 56.4035 33.737L56.3514 33.7862C55.956 34.1517 55.4635 34.3888 54.9363 34.4675C54.4091 34.5462 53.871 34.4629 53.3901 34.2282C53.3313 34.1947 53.2719 34.1626 53.2118 34.1318C52.6219 33.8341 51.9739 33.6768 51.3162 33.6716C50.6585 33.6665 50.0082 33.8136 49.414 34.1021C49.3145 34.1506 49.217 34.2032 49.1215 34.26C48.648 34.4768 48.1233 34.5488 47.6108 34.4675C47.0982 34.3862 46.6195 34.1549 46.2323 33.8016L46.1662 33.7401C45.0141 32.6501 44.0951 31.3276 43.467 29.8561C42.8389 28.3846 42.5153 26.7958 42.5167 25.19C42.4522 24.2004 42.575 23.2074 42.8783 22.2654C44.7116 17.7084 48.288 18.4087 50.0832 19.3203C52.0307 20.3109 51.9996 18.5 54.9449 18.5C55.7116 18.5343 56.4628 18.7334 57.1494 19.0844C57.836 19.4355 58.4427 19.9306 58.93 20.5376C58.1521 20.9281 57.5057 21.5473 57.0736 22.3161C56.6415 23.0848 56.4434 23.9681 56.5047 24.8527C56.5659 25.7374 56.8836 26.5833 57.4173 27.282C57.9509 27.9807 58.6761 28.5005 59.5 28.7749" fill="black"/>
</g>
<path d="M68.5 27.6739L72.5233 17.7826H73.6409L77.6323 27.6739H75.904L72.7748 19.662H73.3615L70.2043 27.6739H68.5ZM70.4837 25.7663V24.3533H75.6666V25.7663H70.4837ZM82.414 27.8152C81.9372 27.8239 81.466 27.7096 81.045 27.4832C80.655 27.2724 80.3291 26.9584 80.102 26.5748C79.8711 26.1774 79.7527 25.7235 79.7597 25.2627V23.3076C79.7528 22.8458 79.8738 22.3913 80.109 21.9955C80.3402 21.6127 80.6681 21.2991 81.0589 21.0871C81.4749 20.86 81.9413 20.744 82.414 20.75C82.995 20.743 83.5655 20.9075 84.0555 21.2234C84.5442 21.5387 84.9438 21.9769 85.215 22.4951C85.5043 23.0499 85.6509 23.6695 85.6411 24.2967C85.6499 24.9193 85.5034 25.5341 85.215 26.0842C84.945 26.6015 84.5451 27.0376 84.0555 27.3489C83.564 27.6606 82.9941 27.8224 82.414 27.8152ZM82.1626 26.3457C82.5085 26.3528 82.8496 26.2623 83.1474 26.0842C83.4328 25.9086 83.6648 25.6568 83.818 25.3565C83.9859 25.0245 84.0699 24.6555 84.0625 24.2826C84.0699 23.9097 83.9859 23.5407 83.818 23.2087C83.6648 22.9084 83.4328 22.6566 83.1474 22.481C82.8496 22.3029 82.5085 22.2124 82.1626 22.2196C81.8145 22.2129 81.4713 22.3034 81.1707 22.481C80.8832 22.654 80.6505 22.9064 80.5001 23.2087C80.3367 23.5421 80.2552 23.9105 80.2627 24.2826C80.2559 24.6533 80.3373 25.0203 80.5001 25.3525C80.6505 25.6547 80.8832 25.9072 81.1707 26.0802C81.4709 26.2592 81.8141 26.3511 82.1626 26.3457ZM78.8238 30.5V20.8913H80.3604V22.7141L80.095 24.3674L80.3604 26.0065V30.5H78.8238ZM90.5166 27.8152C90.0397 27.8239 89.5686 27.7096 89.1475 27.4832C88.7576 27.2724 88.4316 26.9584 88.2045 26.5748C87.9736 26.1774 87.8552 25.7235 87.8623 25.2627V23.3076C87.8553 22.8458 87.9763 22.3913 88.2115 21.9955C88.4427 21.6127 88.7706 21.2991 89.1615 21.0871C89.5775 20.86 90.0439 20.744 90.5166 20.75C91.0976 20.743 91.668 20.9075 92.158 21.2234C92.6468 21.5387 93.0463 21.9769 93.3175 22.4951C93.6069 23.0499 93.7534 23.6695 93.7436 24.2967C93.7524 24.9193 93.6059 25.5341 93.3175 26.0842C93.0475 26.6015 92.6476 27.0376 92.158 27.3489C91.6665 27.6606 91.0966 27.8224 90.5166 27.8152ZM90.2651 26.3457C90.611 26.3528 90.9521 26.2623 91.25 26.0842C91.5354 25.9086 91.7674 25.6568 91.9205 25.3565C92.0885 25.0245 92.1725 24.6555 92.165 24.2826C92.1725 23.9097 92.0885 23.5407 91.9205 23.2087C91.7674 22.9084 91.5354 22.6566 91.25 22.481C90.9521 22.3029 90.611 22.2124 90.2651 22.2196C89.917 22.2129 89.5739 22.3034 89.2732 22.481C88.9857 22.654 88.7531 22.9064 88.6027 23.2087C88.4392 23.5421 88.3578 23.9105 88.3652 24.2826C88.3584 24.6533 88.4399 25.0203 88.6027 25.3525C88.7531 25.6547 88.9857 25.9072 89.2732 26.0802C89.5735 26.2592 89.9166 26.3511 90.2651 26.3457ZM86.9243 30.5V20.8913H88.461V22.7141L88.1956 24.3674L88.461 26.0065V30.5H86.9243ZM95.0288 27.6739V17.5H96.5655V27.6739H95.0288ZM101.385 27.8152C100.753 27.825 100.129 27.6666 99.576 27.356C99.0479 27.0572 98.6089 26.6204 98.3048 26.0913C97.9896 25.5424 97.8279 24.9173 97.8368 24.2826C97.8278 23.6508 97.9878 23.0283 98.2998 22.481C98.5991 21.9555 99.0296 21.5187 99.5481 21.2143C100.08 20.9018 100.686 20.7407 101.301 20.748C101.883 20.7365 102.456 20.8882 102.957 21.186C103.434 21.4764 103.825 21.8922 104.087 22.3891C104.368 22.9237 104.51 23.5218 104.499 24.1272C104.499 24.2429 104.492 24.3585 104.478 24.4734C104.465 24.5911 104.444 24.7207 104.416 24.862H98.9125V23.5902H103.62L103.048 24.0949C103.041 23.7334 102.96 23.3772 102.81 23.0492C102.679 22.7769 102.471 22.5505 102.211 22.3992C101.923 22.2403 101.597 22.1623 101.268 22.1731C100.912 22.1643 100.56 22.2521 100.249 22.4275C99.9618 22.595 99.7289 22.8428 99.578 23.1411C99.4128 23.4834 99.333 23.8615 99.3455 24.2422C99.3381 24.6276 99.4245 25.0088 99.597 25.3525C99.7573 25.6652 100.005 25.9232 100.309 26.0943C100.635 26.2732 101.001 26.3633 101.371 26.3557C101.699 26.359 102.024 26.2966 102.328 26.172C102.615 26.0541 102.871 25.8703 103.076 25.6351L104.053 26.6384C103.732 27.0214 103.325 27.3217 102.866 27.5144C102.397 27.7143 101.894 27.8166 101.385 27.8152Z" fill="black"/>
</svg>
