<svg width="1920" height="1114" viewBox="0 0 1920 1114" fill="none" xmlns="http://www.w3.org/2000/svg">
<mask id="mask0_990_1511" style="mask-type:alpha" maskUnits="userSpaceOnUse" x="0" y="0" width="1920" height="1114">
<rect width="1920" height="1114" fill="#D9D9D9"/>
</mask>
<g mask="url(#mask0_990_1511)">
<g opacity="0.05" clip-path="url(#clip0_990_1511)">
<path d="M1268.27 342.863C1215.53 401.668 1230.89 499.672 1259.8 603.332L1417.42 438.315C1448.56 342.142 1330.11 273.639 1268.27 342.863Z" fill="#ED1C24"/>
<path d="M1417.42 438.315L1259.8 603.332C1364.68 627.464 1463.28 638.329 1519.6 582.939C1585.93 517.977 1512.07 402.803 1417.42 438.315Z" fill="#F05A8E"/>
</g>
<g opacity="0.05" clip-path="url(#clip1_990_1511)">
<path d="M1653.58 1134.39C1665.68 1212.44 1751.25 1262.63 1849.78 1305.92L1821.92 1079.43C1767.23 994.413 1639.19 1042.68 1653.58 1134.39Z" fill="#ED1C24"/>
<path d="M1821.92 1079.43L1849.77 1305.92C1934.88 1240.05 2005.74 1170.63 1998.56 1091.97C1990.3 999.496 1854.39 983.695 1821.92 1079.43Z" fill="#F05A8E"/>
</g>
<g opacity="0.2" clip-path="url(#clip2_990_1511)">
<path d="M1553.37 115.832C1543.34 127.018 1546.26 145.662 1551.76 165.382L1581.74 133.99C1587.67 115.695 1565.13 102.663 1553.37 115.832Z" fill="#ED1C24"/>
<path d="M1581.74 133.99L1551.76 165.382C1571.71 169.972 1590.47 172.039 1601.18 161.502C1613.8 149.144 1599.75 127.234 1581.74 133.99Z" fill="#F05A8E"/>
</g>
<g opacity="0.1" clip-path="url(#clip3_990_1511)">
<path d="M-231.918 558.439C-262.573 696.379 -152.677 835.724 -16.6812 971.997L84.3545 576.469C48.5806 399.194 -196.2 396.264 -231.918 558.439Z" fill="#ED1C24"/>
<path d="M84.3544 576.469L-16.6813 971.997C168.011 917.649 331.287 848.116 370.526 712.356C416.974 552.896 200.801 438.085 84.3544 576.469Z" fill="#F05A8E"/>
</g>
<g opacity="0.2" clip-path="url(#clip4_990_1511)">
<path d="M290.982 317.949C299.509 326.74 314.834 325.422 331.179 322.067L307.355 295.909C292.815 290.054 280.942 307.637 290.982 317.949Z" fill="#ED1C24"/>
<path d="M307.355 295.909L331.179 322.067C336.043 306.106 338.787 290.972 330.827 281.663C321.494 270.703 302.883 280.885 307.355 295.909Z" fill="#F05A8E"/>
</g>
</g>
<defs>
<clipPath id="clip0_990_1511">
<rect width="332.042" height="300.198" fill="white" transform="translate(1460.82 264.898) rotate(71.0115)"/>
</clipPath>
<clipPath id="clip1_990_1511">
<rect width="332.042" height="300.198" fill="white" transform="translate(1715.22 936) rotate(20.3143)"/>
</clipPath>
<clipPath id="clip2_990_1511">
<rect width="63.1658" height="57.1079" fill="white" transform="translate(1590 101) rotate(71.0115)"/>
</clipPath>
<clipPath id="clip3_990_1511">
<rect width="594.013" height="537.044" fill="white" transform="translate(-0.050293 268) rotate(41.656)"/>
</clipPath>
<clipPath id="clip4_990_1511">
<rect width="51.4833" height="46.5459" fill="white" transform="translate(281 287.325) rotate(-15)"/>
</clipPath>
</defs>
</svg>
