<svg width="127" height="127" viewBox="0 0 127 127" fill="none" xmlns="http://www.w3.org/2000/svg">
<rect x="4" y="4" width="119" height="119" rx="20" fill="white"/>
<rect x="4.5" y="4.5" width="118" height="118" rx="19.5" stroke="#ED1C24" stroke-opacity="0.15"/>
<g filter="url(#filter0_d_990_2981)">
<rect x="22" y="22" width="83" height="83" rx="21" fill="url(#paint0_linear_990_2981)"/>
</g>
<g filter="url(#filter1_d_990_2981)">
<path d="M64.5184 41.8715C44.9884 41.8715 40.001 46.4222 40.001 61.0264C40.001 71.1122 42.3736 74.8561 50.2825 77.1637L49.879 86.604C49.879 88.363 52.2516 88.831 53.4137 87.7659L61.0159 80.133C62.1296 80.1653 63.3079 80.1814 64.5346 80.1814C84.0646 80.1814 89.052 75.6307 89.052 61.0426C89.052 46.4545 84.0646 41.9037 64.5346 41.9037L64.5184 41.8715Z" fill="#DDFAD6"/>
<path d="M63.5174 41C43.9874 41 39 45.5507 39 60.155C39 70.2408 41.3727 75.5177 49.2654 77.8253V86.3619C49.2654 87.9918 51.2829 88.605 52.1384 87.7497L59.9988 79.2454C61.1125 79.2777 62.2908 79.2938 63.5174 79.2938C83.0475 79.2938 88.0349 74.7431 88.0349 60.155C88.0349 45.5669 83.0475 41.0161 63.5174 41.0161V41Z" fill="#CAF2C0"/>
<mask id="mask0_990_2981" style="mask-type:luminance" maskUnits="userSpaceOnUse" x="39" y="41" width="50" height="48">
<path d="M64.1469 41.3228C44.6007 41.3228 39.6133 45.8735 39.6133 60.4616C39.6133 70.5474 41.9859 75.8243 49.8787 78.1319V86.5556C49.8787 87.9273 51.5411 88.6212 52.5096 87.6529L60.6121 79.552C61.7258 79.5843 62.904 79.6004 64.1307 79.6004C83.6608 79.6004 88.6482 75.0497 88.6482 60.4616C88.6482 45.8735 83.6608 41.3228 64.1307 41.3228H64.1469Z" fill="white"/>
</mask>
<g mask="url(#mask0_990_2981)">
<path d="M64.1469 41.3228C44.6007 41.3228 39.6133 45.8735 39.6133 60.4616C39.6133 70.5474 41.9859 75.8243 49.8787 78.1319V86.5556C49.8787 87.9273 51.5411 88.6212 52.5096 87.6529L60.6121 79.552C61.7258 79.5843 62.904 79.6004 64.1307 79.6004C83.6608 79.6004 88.6482 75.0497 88.6482 60.4616C88.6482 45.8735 83.6608 41.3228 64.1307 41.3228H64.1469Z" fill="url(#paint1_linear_990_2981)"/>
<g style="mix-blend-mode:multiply">
<path d="M102.32 68.7562C102.32 49.2462 97.1064 43.1625 76.7209 43.1625C56.3355 43.1625 51.1221 49.2301 51.1221 68.7562C51.1221 88.2824 56.3355 94.35 76.7209 94.35C97.1064 94.35 102.32 88.2824 102.32 68.7562Z" fill="white"/>
<path d="M101.722 68.6594C101.722 49.5367 96.6219 43.582 76.64 43.582C56.658 43.582 51.5576 49.5367 51.5576 68.6594C51.5576 87.7821 56.658 93.7367 76.64 93.7367C96.6219 93.7367 101.722 87.7821 101.722 68.6594Z" fill="#FCFEFC"/>
<path d="M101.109 68.5626C101.109 49.8272 96.1058 43.9855 76.5273 43.9855C56.9489 43.9855 51.9453 49.811 51.9453 68.5626C51.9453 87.3141 56.9489 93.1397 76.5273 93.1397C96.1058 93.1397 101.109 87.3141 101.109 68.5626Z" fill="#F9FDF9"/>
<path d="M100.512 68.4818C100.512 50.1337 95.6213 44.4211 76.4464 44.4211C57.2714 44.4211 52.3809 50.1337 52.3809 68.4818C52.3809 86.83 57.2714 92.5426 76.4464 92.5426C95.6213 92.5426 100.512 86.83 100.512 68.4818Z" fill="#F7FCF5"/>
<path d="M99.9144 68.385C99.9144 50.4242 95.1207 44.8407 76.3654 44.8407C57.6101 44.8407 52.8164 50.4242 52.8164 68.385C52.8164 86.3458 57.6101 91.9293 76.3654 91.9293C95.1207 91.9293 99.9144 86.3458 99.9144 68.385Z" fill="#F4FBF2"/>
<path d="M99.3014 68.2882C99.3014 50.7147 94.6207 45.2441 76.2528 45.2441C57.8849 45.2441 53.2041 50.7147 53.2041 68.2882C53.2041 85.8617 57.8849 91.3322 76.2528 91.3322C94.6207 91.3322 99.3014 85.8617 99.3014 68.2882Z" fill="#F1FAEF"/>
<path d="M98.704 68.2076C98.704 51.0214 94.1201 45.6799 76.1718 45.6799C58.2236 45.6799 53.6396 51.0214 53.6396 68.2076C53.6396 85.3938 58.2236 90.7353 76.1718 90.7353C94.1201 90.7353 98.704 85.3938 98.704 68.2076Z" fill="#EEF9EC"/>
<path d="M98.091 68.1108C98.091 51.3119 93.6039 46.0834 76.0592 46.0834C58.5144 46.0834 54.0273 51.3119 54.0273 68.1108C54.0273 84.9097 58.5144 90.1382 76.0592 90.1382C93.6039 90.1382 98.091 84.9097 98.091 68.1108Z" fill="#EBF8E9"/>
<path d="M97.4935 68.0139C97.4935 51.6023 93.1194 46.5029 75.9782 46.5029C58.837 46.5029 54.4629 51.6023 54.4629 68.0139C54.4629 84.4256 58.837 89.525 75.9782 89.525C93.1194 89.525 97.4935 84.4256 97.4935 68.0139Z" fill="#E9F8E6"/>
<path d="M96.8961 67.9171C96.8961 51.8928 92.6189 46.9064 75.8812 46.9064C59.1434 46.9064 54.8662 51.8928 54.8662 67.9171C54.8662 83.9415 59.1434 88.9279 75.8812 88.9279C92.6189 88.9279 96.8961 83.9415 96.8961 67.9171Z" fill="#E6F7E2"/>
<path d="M96.283 67.8364C96.283 52.1994 92.1188 47.342 75.7846 47.342C59.4504 47.342 55.2861 52.1994 55.2861 67.8364C55.2861 83.4734 59.4504 88.3308 75.7846 88.3308C92.1188 88.3308 96.283 83.4734 96.283 67.8364Z" fill="#E3F6DF"/>
<path d="M95.6861 67.7396C95.6861 52.4898 91.6187 47.7455 75.688 47.7455C59.7573 47.7455 55.7061 52.4898 55.7061 67.7396C55.7061 82.9893 59.7735 87.7337 75.688 87.7337C91.6026 87.7337 95.6861 82.9893 95.6861 67.7396Z" fill="#E0F5DC"/>
<path d="M95.0726 67.6428C95.0726 52.7803 91.1182 48.165 75.591 48.165C60.0638 48.165 56.1094 52.7803 56.1094 67.6428C56.1094 82.5052 60.0638 87.1205 75.591 87.1205C91.1182 87.1205 95.0726 82.5052 95.0726 67.6428Z" fill="#DDF4D9"/>
<path d="M94.4751 67.562C94.4751 53.103 90.6176 48.6007 75.51 48.6007C60.4025 48.6007 56.5449 53.103 56.5449 67.562C56.5449 82.021 60.4025 86.5233 75.51 86.5233C90.6176 86.5233 94.4751 82.021 94.4751 67.562Z" fill="#DAF3D6"/>
<path d="M93.8787 67.4652C93.8787 53.3935 90.118 49.0042 75.414 49.0042C60.71 49.0042 56.9492 53.3774 56.9492 67.4652C56.9492 81.5531 60.71 85.9263 75.414 85.9263C90.118 85.9263 93.8787 81.5531 93.8787 67.4652Z" fill="#D8F2D2"/>
<path d="M93.2647 67.3684C93.2647 53.684 89.6169 49.4237 75.3164 49.4237C61.0159 49.4237 57.3682 53.684 57.3682 67.3684C57.3682 81.0528 61.0159 85.3131 75.3164 85.3131C89.6169 85.3131 93.2647 81.0528 93.2647 67.3684Z" fill="#D5F1CF"/>
<path d="M92.6673 67.2877C92.6673 53.9905 89.1164 49.8433 75.2194 49.8433C61.3224 49.8433 57.7715 53.9744 57.7715 67.2877C57.7715 80.6009 61.3224 84.7321 75.2194 84.7321C89.1164 84.7321 92.6673 80.6009 92.6673 67.2877Z" fill="#D2F0CC"/>
<path d="M92.7327 67.5298C92.7327 54.4425 89.2464 50.3759 75.5753 50.3759C61.9043 50.3759 58.418 54.4425 58.418 67.5298C58.418 80.6171 61.9043 84.6837 75.5753 84.6837C89.2464 84.6837 92.7327 80.6171 92.7327 67.5298Z" fill="#CFEFC9"/>
<path d="M92.7972 67.7879C92.7972 54.9104 89.3593 50.9083 75.9142 50.9083C62.4692 50.9083 59.0312 54.9104 59.0312 67.7879C59.0312 80.6655 62.4692 84.6675 75.9142 84.6675C89.3593 84.6675 92.7972 80.6655 92.7972 67.7879Z" fill="#CCEFC5"/>
<path d="M92.8617 68.0462C92.8617 55.3945 89.4883 51.457 76.2692 51.457C63.0501 51.457 59.6768 55.3945 59.6768 68.0462C59.6768 80.6978 63.0501 84.6353 76.2692 84.6353C89.4883 84.6353 92.8617 80.6978 92.8617 68.0462Z" fill="#C9EEC2"/>
<path d="M92.9262 68.2882C92.9262 55.8463 89.6012 51.9734 76.6081 51.9734C63.615 51.9734 60.29 55.8463 60.29 68.2882C60.29 80.73 63.615 84.603 76.6081 84.603C89.6012 84.603 92.9262 80.73 92.9262 68.2882Z" fill="#C6EDBF"/>
<path d="M92.9906 68.5464C92.9906 56.3305 89.7302 52.5221 76.9631 52.5221C64.1959 52.5221 60.9355 56.3305 60.9355 68.5464C60.9355 80.7624 64.1959 84.5708 76.9631 84.5708C89.7302 84.5708 92.9906 80.7624 92.9906 68.5464Z" fill="#C3EDBB"/>
<path d="M93.0717 68.8047C93.0717 56.7985 89.8759 53.0547 77.3186 53.0547C64.7613 53.0547 61.5654 56.7985 61.5654 68.8047C61.5654 80.8108 64.7613 84.5547 77.3186 84.5547C89.8759 84.5547 93.0717 80.8108 93.0717 68.8047Z" fill="#C0ECB8"/>
<path d="M93.1362 69.0467C93.1362 57.2503 89.9888 53.5872 77.6736 53.5872C65.3583 53.5872 62.2109 57.2503 62.2109 69.0467C62.2109 80.8431 65.3583 84.5062 77.6736 84.5062C89.9888 84.5062 93.1362 80.8431 93.1362 69.0467Z" fill="#BDECB4"/>
<path d="M93.2007 69.3049C93.2007 57.7345 90.1178 54.1198 78.0124 54.1198C65.9071 54.1198 62.8242 57.7184 62.8242 69.3049C62.8242 80.8915 65.9071 84.4901 78.0124 84.4901C90.1178 84.4901 93.2007 80.8915 93.2007 69.3049Z" fill="#BBEBB1"/>
<path d="M93.2651 69.5631C93.2651 58.2024 90.2307 54.6683 78.3674 54.6683C66.5041 54.6683 63.4697 58.2024 63.4697 69.5631C63.4697 80.9237 66.5041 84.4578 78.3674 84.4578C90.2307 84.4578 93.2651 80.9237 93.2651 69.5631Z" fill="#B8EAAE"/>
<path d="M93.3296 69.8052C93.3296 58.6543 90.3598 55.1848 78.7063 55.1848C67.0529 55.1848 64.083 58.6543 64.083 69.8052C64.083 80.9561 67.0529 84.4256 78.7063 84.4256C90.3598 84.4256 93.3296 80.9561 93.3296 69.8052Z" fill="#B5EAAA"/>
<path d="M93.3941 70.0633C93.3941 59.1384 90.4726 55.7334 79.0613 55.7334C67.6499 55.7334 64.7285 59.1384 64.7285 70.0633C64.7285 80.9883 67.6499 84.3932 79.0613 84.3932C90.4726 84.3932 93.3941 80.9883 93.3941 70.0633Z" fill="#B2E9A7"/>
<path d="M93.4586 70.3216C93.4586 59.6064 90.6017 56.266 79.4002 56.266C68.1987 56.266 65.3418 59.6064 65.3418 70.3216C65.3418 81.0367 68.1987 84.3772 79.4002 84.3772C90.6017 84.3772 93.4586 81.0367 93.4586 70.3216Z" fill="#AFE9A3"/>
<path d="M93.523 70.5636C93.523 60.0582 90.7307 56.7985 79.7552 56.7985C68.7796 56.7985 65.9873 60.0582 65.9873 70.5636C65.9873 81.069 68.7796 84.3287 79.7552 84.3287C90.7307 84.3287 93.523 81.069 93.523 70.5636Z" fill="#ACE8A0"/>
<path d="M93.6041 70.8218C93.6041 60.5424 90.8602 57.3311 80.1107 57.3311C69.3611 57.3311 66.6172 60.5262 66.6172 70.8218C66.6172 81.1174 69.3611 84.3126 80.1107 84.3126C90.8602 84.3126 93.6041 81.1174 93.6041 70.8218Z" fill="#A9E79D"/>
<path d="M93.6686 71.0799C93.6686 61.0103 90.9893 57.8796 80.4656 57.8796C69.942 57.8796 67.2627 61.0103 67.2627 71.0799C67.2627 81.1496 69.942 84.2803 80.4656 84.2803C90.9893 84.2803 93.6686 81.1496 93.6686 71.0799Z" fill="#A6E799"/>
<path d="M93.7331 71.3382C93.7331 61.4783 91.1022 58.4122 80.8045 58.4122C70.5069 58.4122 67.876 61.4783 67.876 71.3382C67.876 81.1981 70.5069 84.2642 80.8045 84.2642C91.1022 84.2642 93.7331 81.1981 93.7331 71.3382Z" fill="#A3E696"/>
</g>
<g style="mix-blend-mode:screen">
<path d="M64.1469 41.3228C44.6007 41.3228 39.6133 45.8735 39.6133 60.4616C39.6133 70.5474 41.9859 75.8243 49.8787 78.1319V86.5556C49.8787 87.9273 51.5411 88.6212 52.5096 87.6529L60.6121 79.552C61.7258 79.5843 62.904 79.6004 64.1307 79.6004C83.6608 79.6004 88.6482 75.0497 88.6482 60.4616C88.6482 45.8735 83.6608 41.3228 64.1307 41.3228H64.1469Z" fill="#4B734A"/>
<g opacity="0.97">
<path d="M63.8085 41.0323C44.2784 41.0323 39.291 45.5831 39.291 60.1873C39.291 70.2731 41.5345 75.7275 49.4273 78.0352L49.5725 86.2813C49.5725 87.653 51.235 88.3469 52.2034 87.3787L60.306 79.2777C61.4197 79.31 62.5979 79.3261 63.8246 79.3261C83.3546 79.3261 88.342 74.7754 88.342 60.1873C88.342 45.5992 83.3546 41.0485 63.8246 41.0485L63.8085 41.0323Z" fill="#466C45"/>
</g>
<g opacity="0.95">
<path d="M63.4696 40.7418C43.9396 40.7418 38.9521 45.2925 38.9521 59.8968C38.9521 69.9826 41.0504 75.6145 48.9431 77.9221L49.2175 85.9908C49.2175 87.3625 50.88 88.0564 51.8484 87.0881L59.951 78.9872C61.0647 79.0195 62.2429 79.0356 63.4696 79.0356C82.9996 79.0356 87.987 74.4849 87.987 59.8968C87.987 45.3087 82.9996 40.758 63.4696 40.758V40.7418Z" fill="#426541"/>
</g>
<g opacity="0.93">
<path d="M63.1464 40.4514C43.6163 40.4514 38.6289 45.0021 38.6289 59.6064C38.6289 69.6922 40.5819 75.5016 48.4746 77.8093L48.8943 85.7004C48.8943 87.0721 50.5567 87.766 51.5252 86.7977L59.6277 78.6968C60.7414 78.7291 61.9197 78.7452 63.1464 78.7452C82.6764 78.7452 87.6638 74.1945 87.6638 59.6064C87.6638 45.0183 82.6764 40.4676 63.1464 40.4676V40.4514Z" fill="#3D5D3C"/>
</g>
<g opacity="0.9">
<path d="M62.8075 40.177C43.2775 40.177 38.29 44.7116 38.29 59.3158C38.29 69.4016 40.0978 75.3886 48.0066 77.7123L48.5715 85.426C48.5715 86.7976 50.234 87.4916 51.2025 86.5233L59.305 78.4224C60.4187 78.4547 61.5969 78.4708 62.8236 78.4708C82.3536 78.4708 87.3411 73.9201 87.3411 59.332C87.3411 44.7439 82.3536 40.1931 62.8236 40.1931L62.8075 40.177Z" fill="#385638"/>
</g>
<g opacity="0.88">
<path d="M62.4842 39.8866C42.9542 39.8866 37.9668 44.4212 37.9668 59.0254C37.9668 69.1112 39.6454 75.2918 47.5381 77.5995L48.2483 85.1356C48.2483 86.5072 49.9108 87.2011 50.8792 86.2329L58.9817 78.132C60.0954 78.1643 61.2737 78.1804 62.5004 78.1804C82.0304 78.1804 87.0178 73.6297 87.0178 59.0416C87.0178 44.4535 82.0143 39.8866 62.4842 39.8866Z" fill="#344F33"/>
</g>
<g opacity="0.85">
<path d="M62.1454 39.5961C42.6153 39.5961 37.6279 44.1306 37.6279 58.7349C37.6279 68.8207 39.1613 75.1788 47.054 77.4864L47.8933 84.845C47.8933 86.2167 49.5558 86.9106 50.5242 85.9424L58.6267 77.8415C59.7404 77.8737 60.9187 77.8899 62.1454 77.8899C81.6754 77.8899 86.6628 73.3392 86.6628 58.751C86.6628 44.1629 81.6754 39.5961 62.1454 39.5961Z" fill="#2F482E"/>
</g>
<g opacity="0.83">
<path d="M61.8231 39.3057C42.2931 39.3057 37.3057 43.8402 37.3057 58.4445C37.3057 68.5303 38.6937 75.0659 46.5865 77.3735L47.571 84.5546C47.571 85.9263 49.2335 86.6202 50.2019 85.652L58.3045 77.5511C59.4182 77.5833 60.5964 77.5995 61.8231 77.5995C81.3531 77.5995 86.3406 73.0487 86.3406 58.4606C86.3406 43.8725 81.3531 39.3057 61.8231 39.3057Z" fill="#2A412A"/>
</g>
<g opacity="0.8">
<path d="M61.4842 39.0151C41.9542 39.0151 36.9668 43.5659 36.9668 58.154C36.9668 68.2398 38.2096 74.9529 46.1185 77.2605L47.2483 84.2641C47.2483 85.6358 48.9108 86.3297 49.8792 85.3614L57.9817 77.2605C59.0954 77.2928 60.2737 77.3089 61.5004 77.3089C81.0304 77.3089 86.0178 72.7582 86.0178 58.1701C86.0178 43.582 81.0143 39.0151 61.4842 39.0151Z" fill="#263A25"/>
</g>
<g opacity="0.78">
<path d="M61.161 38.7247C41.631 38.7247 36.6436 43.2754 36.6436 57.8797C36.6436 67.9655 37.7573 74.8561 45.65 77.1638L46.9251 83.9737C46.9251 85.3454 48.5875 86.0393 49.556 85.071L57.6585 76.9701C58.7722 77.0024 59.9505 77.0185 61.1771 77.0185C80.7072 77.0185 85.6946 72.4678 85.6946 57.8797C85.6946 43.2916 80.691 38.7247 61.161 38.7247Z" fill="#213220"/>
</g>
<g opacity="0.75">
<path d="M60.8221 38.4342C41.2921 38.4342 36.3047 42.9849 36.3047 57.5892C36.3047 67.675 37.2731 74.7431 45.1658 77.0508L46.5701 83.6832C46.5701 85.0549 48.2325 85.7488 49.201 84.7805L57.3035 76.6796C58.4172 76.7119 59.5955 76.728 60.8221 76.728C80.3522 76.728 85.3396 72.1773 85.3396 57.5892C85.3396 43.0011 80.3522 38.4342 60.8221 38.4342Z" fill="#1C2B1C"/>
</g>
<g opacity="0.72">
<path d="M60.4989 38.1438C40.9689 38.1438 35.9814 42.6945 35.9814 57.2988C35.9814 67.3846 36.8046 74.6302 44.6973 76.9379L46.2468 83.3928C46.2468 84.7644 47.9093 85.4583 48.8777 84.4901L56.9803 76.3892C58.094 76.4215 59.2722 76.4376 60.4989 76.4376C80.0289 76.4376 85.0163 71.8869 85.0163 57.2988C85.0163 42.7107 80.0289 38.1438 60.4989 38.1438Z" fill="#172417"/>
</g>
<g opacity="0.7">
<path d="M60.16 37.8694C40.63 37.8694 35.6426 42.404 35.6426 57.0082C35.6426 67.094 36.3366 74.5172 44.2293 76.8248L45.9241 83.1022C45.9241 84.4739 47.5866 85.1678 48.555 84.1996L56.6575 76.0986C57.7712 76.1309 58.9495 76.147 60.1762 76.147C79.7062 76.147 84.6936 71.5963 84.6936 57.0082C84.6936 42.4201 79.6901 37.8694 60.16 37.8694Z" fill="#131D13"/>
</g>
<g opacity="0.68">
<path d="M59.8378 37.579C40.3077 37.579 35.3203 42.1136 35.3203 56.7178C35.3203 66.8036 35.8691 74.4043 43.7618 76.7119L45.6018 82.8118C45.6018 84.1835 47.2643 84.8774 48.2327 83.9092L56.3353 75.8082C57.449 75.8405 58.6272 75.8566 59.8539 75.8566C79.3839 75.8566 84.3713 71.3059 84.3713 56.7178C84.3713 42.1297 79.3678 37.579 59.8378 37.579Z" fill="#0E160E"/>
</g>
<g opacity="0.65">
<path d="M59.4989 37.2885C39.9689 37.2885 34.9814 41.823 34.9814 56.4273C34.9814 66.5131 35.385 74.2913 43.2777 76.5989L45.2468 82.5213C45.2468 83.893 46.9093 84.5869 47.8777 83.6025L55.9803 75.5016C57.094 75.5338 58.2722 75.55 59.4989 75.55C79.0289 75.55 84.0163 70.9993 84.0163 56.4111C84.0163 41.823 79.0289 37.2885 59.4989 37.2885Z" fill="#090E09"/>
</g>
<g opacity="0.62">
<path d="M59.1756 36.998C39.6295 36.998 34.6582 41.5326 34.6582 56.1369C34.6582 66.2227 34.9165 74.1945 42.8092 76.5021L44.9236 82.247C44.9236 83.6187 46.586 84.3126 47.5545 83.3444L55.657 75.2434C56.7707 75.2757 57.949 75.2918 59.1756 75.2918C78.7057 75.2918 83.6931 70.7411 83.6931 56.153C83.6931 41.5649 78.7057 36.998 59.1756 36.998Z" fill="#050705"/>
</g>
<g opacity="0.6">
<path d="M58.8368 36.7075C39.3068 36.7075 34.3193 41.2582 34.3193 55.8463C34.3193 65.9322 34.4485 74.0815 42.3412 76.3891L44.6008 81.9565C44.6008 83.3282 46.2633 84.0221 47.2317 83.0538L55.3343 74.9529C56.448 74.9852 57.6262 75.0013 58.8529 75.0013C78.3829 75.0013 83.3704 70.4506 83.3704 55.8625C83.3704 41.2744 78.3668 36.7075 58.8368 36.7075Z" fill="black"/>
</g>
</g>
<g style="mix-blend-mode:screen">
<path d="M64.1469 41.3228C44.6007 41.3228 39.6133 45.8735 39.6133 60.4616C39.6133 70.5474 41.9859 75.8243 49.8787 78.1319V86.5556C49.8787 87.9273 51.5411 88.6212 52.5096 87.6529L60.6121 79.552C61.7258 79.5843 62.904 79.6004 64.1307 79.6004C83.6608 79.6004 88.6482 75.0497 88.6482 60.4616C88.6482 45.8735 83.6608 41.3228 64.1307 41.3228H64.1469Z" fill="#4B734A"/>
<g opacity="0.97">
<path d="M64.244 41.4196C44.714 41.4196 39.7266 45.9703 39.7266 60.5745C39.7266 70.6603 41.9701 76.1147 49.8628 78.4224L50.0081 86.6685C50.0081 88.0402 51.6705 88.7341 52.639 87.7659L60.7415 79.6649C61.8552 79.6972 63.0335 79.7134 64.2601 79.7134C83.7902 79.7134 88.7776 75.1626 88.7776 60.5745C88.7776 45.9864 83.7902 41.4357 64.2601 41.4357L64.244 41.4196Z" fill="#466C45"/>
</g>
<g opacity="0.95">
<path d="M64.3563 41.5326C44.8263 41.5326 39.8389 46.0672 39.8389 60.6714C39.8389 70.7572 41.9371 76.3892 49.8298 78.6968L50.1042 86.7654C50.1042 88.1371 51.7667 88.831 52.7351 87.8628L60.8377 79.7618C61.9514 79.7941 63.1296 79.8103 64.3563 79.8103C83.8863 79.8103 88.8738 75.2595 88.8738 60.6714C88.8738 46.0833 83.8863 41.5326 64.3563 41.5326Z" fill="#426541"/>
</g>
<g opacity="0.93">
<path d="M64.454 41.6294C44.9239 41.6294 39.9365 46.1801 39.9365 60.7844C39.9365 70.8702 41.8895 76.6796 49.7822 78.9872L50.2019 86.8784C50.2019 88.25 51.8644 88.9439 52.8328 87.9757L60.9353 79.8748C62.049 79.9071 63.2273 79.9232 64.454 79.9232C83.984 79.9232 88.9714 75.3725 88.9714 60.7844C88.9714 46.1962 83.984 41.6455 64.454 41.6455V41.6294Z" fill="#3D5D3C"/>
</g>
<g opacity="0.9">
<path d="M64.5663 41.7423C45.0362 41.7423 40.0488 46.2769 40.0488 60.8811C40.0488 70.9669 41.8566 76.97 49.7654 79.2777L50.3303 86.9913C50.3303 88.363 51.9928 89.0569 52.9612 88.0725L61.0638 79.9716C62.1775 80.0038 63.3557 80.02 64.5824 80.02C84.1124 80.02 89.0999 75.4693 89.0999 60.8811C89.0999 46.293 84.1124 41.7423 64.5824 41.7423H64.5663Z" fill="#385638"/>
</g>
<g opacity="0.88">
<path d="M64.6796 41.8391C45.1495 41.8391 40.1621 46.3898 40.1621 60.9941C40.1621 71.0799 41.8407 77.2605 49.7334 79.5681L50.4436 87.1042C50.4436 88.4759 52.1061 89.1698 53.0745 88.2016L61.1771 80.1006C62.2908 80.1329 63.469 80.149 64.6957 80.149C84.2257 80.149 89.2131 75.5983 89.2131 61.0102C89.2131 46.4221 84.2257 41.8714 64.6957 41.8714L64.6796 41.8391Z" fill="#344F33"/>
</g>
<g opacity="0.85">
<path d="M64.7762 41.9521C45.2462 41.9521 40.2588 46.4867 40.2588 61.091C40.2588 71.1768 41.7921 77.5349 49.6849 79.8425L50.5242 87.2011C50.5242 88.5728 52.1866 89.2667 53.1551 88.2985L61.2576 80.1975C62.3713 80.2298 63.5496 80.2459 64.7762 80.2459C84.3063 80.2459 89.2937 75.6952 89.2937 61.1071C89.2937 46.519 84.3063 41.9683 64.7762 41.9683V41.9521Z" fill="#2F482E"/>
</g>
<g opacity="0.83">
<path d="M64.8895 42.049C45.3595 42.049 40.3721 46.5997 40.3721 61.2039C40.3721 71.2897 41.7602 77.8253 49.6529 80.133L50.6374 87.3141C50.6374 88.6857 52.2999 89.3796 53.2683 88.4114L61.3709 80.3105C62.4846 80.3428 63.6628 80.3589 64.8895 80.3589C84.4195 80.3589 89.407 75.8082 89.407 61.2201C89.407 46.6319 84.4195 42.0812 64.8895 42.0812V42.049Z" fill="#2A412A"/>
</g>
<g opacity="0.8">
<path d="M65.0028 42.1619C45.4728 42.1619 40.4854 46.6964 40.4854 61.3007C40.4854 71.3865 41.7282 78.0996 49.637 80.4073L50.7669 87.4108C50.7669 88.7825 52.4293 89.4764 53.3978 88.5082L61.5003 80.4073C62.614 80.4395 63.7923 80.4557 65.0189 80.4557C84.549 80.4557 89.5364 75.9049 89.5364 61.3168C89.5364 46.7287 84.549 42.178 65.0189 42.178L65.0028 42.1619Z" fill="#263A25"/>
</g>
<g opacity="0.78">
<path d="M65.0995 42.2587C45.5694 42.2587 40.582 46.7932 40.582 61.3975C40.582 71.4833 41.6957 78.3739 49.5884 80.6816L50.8635 87.5076C50.8635 88.8793 52.526 89.5732 53.4944 88.605L61.597 80.5041C62.7107 80.5363 63.8889 80.5525 65.1156 80.5525C84.6456 80.5525 89.6331 76.0018 89.6331 61.4136C89.6331 46.8255 84.6456 42.2748 65.1156 42.2748L65.0995 42.2587Z" fill="#213220"/>
</g>
<g opacity="0.75">
<path d="M65.2118 42.3556C45.6818 42.3556 40.6943 46.9063 40.6943 61.5106C40.6943 71.5964 41.6628 78.6645 49.5555 80.9721L50.9597 87.6046C50.9597 88.9762 52.6222 89.6701 53.5906 88.7019L61.6931 80.601C62.8068 80.6333 63.9851 80.6494 65.2118 80.6494C84.7418 80.6494 89.7292 76.0987 89.7292 61.5106C89.7292 46.9224 84.7418 42.3717 65.2118 42.3717V42.3556Z" fill="#1C2B1C"/>
</g>
<g opacity="0.72">
<path d="M65.3251 42.4685C45.795 42.4685 40.8076 47.0192 40.8076 61.6073C40.8076 71.6931 41.6308 78.9388 49.5235 81.2464L51.073 87.7013C51.073 89.073 52.7355 89.7669 53.7039 88.7987L61.8064 80.6978C62.9201 80.73 64.0984 80.7462 65.3251 80.7462C84.8551 80.7462 89.8425 76.1955 89.8425 61.6073C89.8425 47.0192 84.8551 42.4685 65.3251 42.4685Z" fill="#172417"/>
</g>
<g opacity="0.7">
<path d="M65.4217 42.5653C45.8917 42.5653 40.9043 47.116 40.9043 61.7041C40.9043 71.7899 41.5983 79.2131 49.4911 81.5207L51.1858 87.7981C51.1858 89.1698 52.8483 89.8637 53.8167 88.8955L61.9193 80.7946C63.0329 80.8268 64.2112 80.843 65.4379 80.843C84.9679 80.843 89.9553 76.2923 89.9553 61.7041C89.9553 47.116 84.9679 42.5653 65.4379 42.5653H65.4217Z" fill="#131D13"/>
</g>
<g opacity="0.68">
<path d="M65.535 42.6783C46.005 42.6783 41.0176 47.2291 41.0176 61.8172C41.0176 71.903 41.5664 79.5037 49.4591 81.8113L51.2991 87.9112C51.2991 89.2828 52.9616 89.9768 53.93 89.0085L62.0325 80.9076C63.1462 80.9399 64.3245 80.956 65.5512 80.956C85.0812 80.956 90.0686 76.4053 90.0686 61.8172C90.0686 47.2291 85.0812 42.6783 65.5512 42.6783H65.535Z" fill="#0E160E"/>
</g>
<g opacity="0.65">
<path d="M65.6483 42.7751C46.1183 42.7751 41.1309 47.3259 41.1309 61.914C41.1309 71.9998 41.5344 79.778 49.4271 82.0856L51.3962 88.008C51.3962 89.3797 53.0587 90.0736 54.0271 89.1053L62.1297 81.0044C63.2434 81.0367 64.4216 81.0528 65.6483 81.0528C85.1783 81.0528 90.1657 76.5021 90.1657 61.914C90.1657 47.3259 85.1783 42.7751 65.6483 42.7751Z" fill="#090E09"/>
</g>
<g opacity="0.62">
<path d="M65.745 42.8881C46.215 42.8881 41.2275 47.4388 41.2275 62.0269C41.2275 72.1127 41.4858 80.0845 49.3785 82.3922L51.4929 88.137C51.4929 89.5087 53.1554 90.2026 54.1238 89.2344L62.2264 81.1334C63.34 81.1657 64.5183 81.1819 65.745 81.1819C85.275 81.1819 90.2624 76.6311 90.2624 62.043C90.2624 47.4549 85.275 42.9042 65.745 42.9042V42.8881Z" fill="#050705"/>
</g>
<g opacity="0.6">
<path d="M65.8573 42.9849C46.3273 42.9849 41.3398 47.5356 41.3398 62.1237C41.3398 72.2095 41.469 80.3588 49.3617 82.6665L51.6214 88.2338C51.6214 89.6055 53.2838 90.2994 54.2523 89.3312L62.3548 81.2303C63.4685 81.2625 64.6467 81.2787 65.8734 81.2787C85.4035 81.2787 90.3909 76.7279 90.3909 62.1398C90.3909 47.5517 85.4035 43.001 65.8734 43.001L65.8573 42.9849Z" fill="black"/>
</g>
</g>
</g>
<g style="mix-blend-mode:multiply">
<path opacity="0.4" d="M62.4363 62.6885C62.4363 65.206 60.4026 67.2393 57.8846 67.2393C55.3667 67.2393 53.333 65.206 53.333 62.6885C53.333 60.1711 55.3667 58.1378 57.8846 58.1378C60.4026 58.1378 62.4363 60.1711 62.4363 62.6885Z" fill="white"/>
<path opacity="0.44" d="M57.8526 67.0617C60.2862 67.0617 62.259 65.0893 62.259 62.6562C62.259 60.2231 60.2862 58.2507 57.8526 58.2507C55.4191 58.2507 53.4463 60.2231 53.4463 62.6562C53.4463 65.0893 55.4191 67.0617 57.8526 67.0617Z" fill="#FAFCFA"/>
<path opacity="0.48" d="M62.1131 62.6402C62.1131 64.9962 60.2085 66.9165 57.8358 66.9165C55.4632 66.9165 53.5586 65.0123 53.5586 62.6402C53.5586 60.268 55.4632 58.3638 57.8358 58.3638C60.2085 58.3638 62.1131 60.268 62.1131 62.6402Z" fill="#F5FAF5"/>
<path opacity="0.51" d="M57.8204 66.739C60.1025 66.739 61.9524 64.8894 61.9524 62.6078C61.9524 60.3263 60.1025 58.4767 57.8204 58.4767C55.5384 58.4767 53.6885 60.3263 53.6885 62.6078C53.6885 64.8894 55.5384 66.739 57.8204 66.739Z" fill="#F0F7F0"/>
<path opacity="0.55" d="M61.7908 62.5756C61.7908 64.7703 60.0153 66.5615 57.8041 66.5615C55.5928 66.5615 53.8174 64.7864 53.8174 62.5756C53.8174 60.3648 55.5928 58.5897 57.8041 58.5897C60.0153 58.5897 61.7908 60.3648 61.7908 62.5756Z" fill="#EBF4EB"/>
<path opacity="0.59" d="M57.7877 66.4001C59.9093 66.4001 61.6292 64.6806 61.6292 62.5594C61.6292 60.4383 59.9093 58.7188 57.7877 58.7188C55.6662 58.7188 53.9463 60.4383 53.9463 62.5594C53.9463 64.6806 55.6662 66.4001 57.7877 66.4001Z" fill="#E6F2E6"/>
<path opacity="0.62" d="M61.4676 62.5271C61.4676 64.5604 59.8051 66.2225 57.7714 66.2225C55.7377 66.2225 54.0752 64.5604 54.0752 62.5271C54.0752 60.4938 55.7377 58.8317 57.7714 58.8317C59.8051 58.8317 61.4676 60.4938 61.4676 62.5271Z" fill="#E1EFE1"/>
<path opacity="0.66" d="M61.3069 62.4949C61.3069 64.4637 59.709 66.0451 57.756 66.0451C55.803 66.0451 54.2051 64.4475 54.2051 62.4949C54.2051 60.5423 55.803 58.9447 57.756 58.9447C59.709 58.9447 61.3069 60.5423 61.3069 62.4949Z" fill="#DCECDC"/>
<path opacity="0.7" d="M61.1609 62.4787C61.1609 64.3668 59.6276 65.8837 57.7553 65.8837C55.883 65.8837 54.3496 64.3506 54.3496 62.4787C54.3496 60.6068 55.883 59.0737 57.7553 59.0737C59.6276 59.0737 61.1609 60.6068 61.1609 62.4787Z" fill="#D8EAD8"/>
<path opacity="0.74" d="M57.7233 65.7062C59.5239 65.7062 60.9837 64.2468 60.9837 62.4465C60.9837 60.6462 59.5239 59.1868 57.7233 59.1868C55.9226 59.1868 54.4629 60.6462 54.4629 62.4465C54.4629 64.2468 55.9226 65.7062 57.7233 65.7062Z" fill="#D3E7D3"/>
<path opacity="0.78" d="M60.8386 62.4142C60.8386 64.1409 59.4344 65.5287 57.7235 65.5287C56.0126 65.5287 54.6084 64.1247 54.6084 62.4142C54.6084 60.7036 56.0126 59.2997 57.7235 59.2997C59.4344 59.2997 60.8386 60.7036 60.8386 62.4142Z" fill="#CEE4CE"/>
<path opacity="0.81" d="M60.677 62.382C60.677 64.028 59.3374 65.3512 57.7072 65.3512C56.077 65.3512 54.7373 64.0118 54.7373 62.382C54.7373 60.7521 56.077 59.4127 57.7072 59.4127C59.3374 59.4127 60.677 60.7521 60.677 62.382Z" fill="#C9E1C9"/>
<path opacity="0.85" d="M60.5154 62.3658C60.5154 63.9311 59.2403 65.206 57.6747 65.206C56.1091 65.206 54.834 63.9311 54.834 62.3658C54.834 60.8005 56.1091 59.5256 57.6747 59.5256C59.2403 59.5256 60.5154 60.8005 60.5154 62.3658Z" fill="#C4DFC4"/>
<path opacity="0.89" d="M60.3538 62.3335C60.3538 63.8181 59.1433 65.0284 57.6584 65.0284C56.1734 65.0284 54.9629 63.8181 54.9629 62.3335C54.9629 60.8488 56.1734 59.6385 57.6584 59.6385C59.1433 59.6385 60.3538 60.8488 60.3538 62.3335Z" fill="#BFDCBF"/>
<path opacity="0.93" d="M60.1932 62.3013C60.1932 63.7052 59.0472 64.851 57.643 64.851C56.2387 64.851 55.0928 63.7052 55.0928 62.3013C55.0928 60.8973 56.2387 59.7516 57.643 59.7516C59.0472 59.7516 60.1932 60.8973 60.1932 62.3013Z" fill="#BAD9BA"/>
<path opacity="0.96" d="M60.0316 62.2851C60.0316 63.6083 58.9501 64.6895 57.6266 64.6895C56.3031 64.6895 55.2217 63.6083 55.2217 62.2851C55.2217 60.9618 56.3031 59.8806 57.6266 59.8806C58.9501 59.8806 60.0316 60.9618 60.0316 62.2851Z" fill="#B5D7B5"/>
<path d="M59.8865 62.2529C59.8865 63.4954 58.8697 64.5121 57.6269 64.5121C56.384 64.5121 55.3672 63.4954 55.3672 62.2529C55.3672 61.0103 56.384 59.9937 57.6269 59.9937C58.8697 59.9937 59.8865 61.0103 59.8865 62.2529Z" fill="#B0D4B0"/>
</g>
<g style="mix-blend-mode:multiply">
<path opacity="0.4" d="M77.9636 62.6885C77.9636 65.206 75.9299 67.2393 73.412 67.2393C70.8941 67.2393 68.8604 65.206 68.8604 62.6885C68.8604 60.1711 70.8941 58.1378 73.412 58.1378C75.9299 58.1378 77.9636 60.1711 77.9636 62.6885Z" fill="white"/>
<path opacity="0.44" d="M77.7864 62.6562C77.7864 65.0929 75.8172 67.0617 73.38 67.0617C70.9428 67.0617 68.9736 65.0929 68.9736 62.6562C68.9736 60.2195 70.9428 58.2507 73.38 58.2507C75.8172 58.2507 77.7864 60.2195 77.7864 62.6562Z" fill="#FAFCFA"/>
<path opacity="0.48" d="M77.6248 62.6402C77.6248 64.9962 75.7202 66.9165 73.3475 66.9165C70.9749 66.9165 69.0703 65.0123 69.0703 62.6402C69.0703 60.268 70.9749 58.3638 73.3475 58.3638C75.7202 58.3638 77.6248 60.268 77.6248 62.6402Z" fill="#F5FAF5"/>
<path opacity="0.51" d="M77.4475 62.6078C77.4475 64.8832 75.6075 66.739 73.3156 66.739C71.0236 66.739 69.1836 64.8993 69.1836 62.6078C69.1836 60.3163 71.0236 58.4767 73.3156 58.4767C75.6075 58.4767 77.4475 60.3163 77.4475 62.6078Z" fill="#F0F7F0"/>
<path opacity="0.55" d="M77.2859 62.5756C77.2859 64.7703 75.5105 66.5615 73.2992 66.5615C71.088 66.5615 69.3125 64.7864 69.3125 62.5756C69.3125 60.3648 71.088 58.5897 73.2992 58.5897C75.5105 58.5897 77.2859 60.3648 77.2859 62.5756Z" fill="#EBF4EB"/>
<path opacity="0.59" d="M77.1077 62.5594C77.1077 64.6734 75.3807 66.4001 73.2662 66.4001C71.1518 66.4001 69.4248 64.6734 69.4248 62.5594C69.4248 60.4454 71.1357 58.7188 73.2662 58.7188C75.3968 58.7188 77.1077 60.4293 77.1077 62.5594Z" fill="#E6F2E6"/>
<path opacity="0.62" d="M76.9304 62.5271C76.9304 64.5604 75.268 66.2225 73.2343 66.2225C71.2006 66.2225 69.5381 64.5604 69.5381 62.5271C69.5381 60.4938 71.2006 58.8317 73.2343 58.8317C75.268 58.8317 76.9304 60.4938 76.9304 62.5271Z" fill="#E1EFE1"/>
<path opacity="0.66" d="M76.7688 62.4949C76.7688 64.4637 75.1709 66.0451 73.2179 66.0451C71.2649 66.0451 69.667 64.4475 69.667 62.4949C69.667 60.5423 71.2649 58.9447 73.2179 58.9447C75.1709 58.9447 76.7688 60.5423 76.7688 62.4949Z" fill="#DCECDC"/>
<path opacity="0.7" d="M76.5916 62.4787C76.5916 64.3668 75.0582 65.8837 73.1859 65.8837C71.3136 65.8837 69.7803 64.3506 69.7803 62.4787C69.7803 60.6068 71.3136 59.0737 73.1859 59.0737C75.0582 59.0737 76.5916 60.6068 76.5916 62.4787Z" fill="#D8EAD8"/>
<path opacity="0.74" d="M76.43 62.4465C76.43 64.2539 74.9612 65.7062 73.1696 65.7062C71.378 65.7062 69.9092 64.2377 69.9092 62.4465C69.9092 60.6553 71.378 59.1868 73.1696 59.1868C74.9612 59.1868 76.43 60.6553 76.43 62.4465Z" fill="#D3E7D3"/>
<path opacity="0.78" d="M76.2527 62.4142C76.2527 64.1409 74.8485 65.5287 73.1376 65.5287C71.4267 65.5287 70.0225 64.1247 70.0225 62.4142C70.0225 60.7036 71.4267 59.2997 73.1376 59.2997C74.8485 59.2997 76.2527 60.7036 76.2527 62.4142Z" fill="#CEE4CE"/>
<path opacity="0.81" d="M76.0755 62.382C76.0755 64.028 74.7358 65.3512 73.1056 65.3512C71.4754 65.3512 70.1357 64.0118 70.1357 62.382C70.1357 60.7521 71.4754 59.4127 73.1056 59.4127C74.7358 59.4127 76.0755 60.7521 76.0755 62.382Z" fill="#C9E1C9"/>
<path opacity="0.85" d="M75.9139 62.3658C75.9139 63.9311 74.6388 65.206 73.0732 65.206C71.5075 65.206 70.2324 63.9311 70.2324 62.3658C70.2324 60.8005 71.5075 59.5256 73.0732 59.5256C74.6388 59.5256 75.9139 60.8005 75.9139 62.3658Z" fill="#C4DFC4"/>
<path opacity="0.89" d="M75.7366 62.3335C75.7366 63.8181 74.5261 65.0284 73.0412 65.0284C71.5562 65.0284 70.3457 63.8181 70.3457 62.3335C70.3457 60.8488 71.5562 59.6385 73.0412 59.6385C74.5261 59.6385 75.7366 60.8488 75.7366 62.3335Z" fill="#BFDCBF"/>
<path opacity="0.93" d="M75.575 62.3013C75.575 63.7052 74.429 64.851 73.0248 64.851C71.6206 64.851 70.4746 63.7052 70.4746 62.3013C70.4746 60.8973 71.6206 59.7516 73.0248 59.7516C74.429 59.7516 75.575 60.8973 75.575 62.3013Z" fill="#BAD9BA"/>
<path opacity="0.96" d="M75.3968 62.2851C75.3968 63.6083 74.3154 64.6895 72.9919 64.6895C71.6683 64.6895 70.5869 63.6083 70.5869 62.2851C70.5869 60.9618 71.6683 59.8806 72.9919 59.8806C74.3154 59.8806 75.3968 60.9618 75.3968 62.2851Z" fill="#B5D7B5"/>
<path d="M75.2195 62.2529C75.2195 63.4954 74.2027 64.5121 72.9599 64.5121C71.717 64.5121 70.7002 63.4954 70.7002 62.2529C70.7002 61.0103 71.717 59.9937 72.9599 59.9937C74.2027 59.9937 75.2195 61.0103 75.2195 62.2529Z" fill="#B0D4B0"/>
</g>
<path d="M56.8673 64.2538C58.659 64.2538 60.1115 62.8016 60.1115 61.0102C60.1115 59.2188 58.659 57.7666 56.8673 57.7666C55.0755 57.7666 53.623 59.2188 53.623 61.0102C53.623 62.8016 55.0755 64.2538 56.8673 64.2538Z" fill="white"/>
<path d="M72.1524 64.2538C73.9442 64.2538 75.3967 62.8016 75.3967 61.0102C75.3967 59.2188 73.9442 57.7666 72.1524 57.7666C70.3607 57.7666 68.9082 59.2188 68.9082 61.0102C68.9082 62.8016 70.3607 64.2538 72.1524 64.2538Z" fill="white"/>
<mask id="mask1_990_2981" style="mask-type:luminance" maskUnits="userSpaceOnUse" x="53" y="57" width="23" height="8">
<path d="M60.1281 61.0102C60.1281 62.8014 58.6755 64.2538 56.8839 64.2538C55.0923 64.2538 53.6396 62.8014 53.6396 61.0102C53.6396 59.219 55.0923 57.7666 56.8839 57.7666C58.6755 57.7666 60.1281 59.219 60.1281 61.0102ZM72.1528 57.7666C70.3612 57.7666 68.9086 59.219 68.9086 61.0102C68.9086 62.8014 70.3612 64.2538 72.1528 64.2538C73.9444 64.2538 75.3971 62.8014 75.3971 61.0102C75.3971 59.219 73.9444 57.7666 72.1528 57.7666Z" fill="white"/>
</mask>
<g mask="url(#mask1_990_2981)">
<g style="mix-blend-mode:multiply">
<path d="M102.32 68.7561C102.32 49.2461 97.1064 43.1624 76.7209 43.1624C56.3355 43.1624 51.1221 49.23 51.1221 68.7561C51.1221 88.2822 56.3355 94.3499 76.7209 94.3499C97.1064 94.3499 102.32 88.2822 102.32 68.7561Z" fill="white"/>
<path d="M101.723 68.8206C101.723 49.8109 96.6547 43.9047 76.8018 43.9047C56.949 43.9047 51.8809 49.8109 51.8809 68.8206C51.8809 87.8304 56.949 93.7366 76.8018 93.7366C96.6547 93.7366 101.723 87.8304 101.723 68.8206Z" fill="#FEFFFE"/>
<path d="M101.109 68.9013C101.109 50.408 96.1702 44.6631 76.8661 44.6631C57.562 44.6631 52.623 50.408 52.623 68.9013C52.623 87.3946 57.562 93.1395 76.8661 93.1395C96.1702 93.1395 101.109 87.3946 101.109 68.9013Z" fill="#FDFEFD"/>
<path d="M100.512 68.9659C100.512 50.9889 95.7185 45.3893 76.9309 45.3893C58.1433 45.3893 53.3496 50.9889 53.3496 68.9659C53.3496 86.9428 58.1433 92.5425 76.9309 92.5425C95.7185 92.5425 100.512 86.9428 100.512 68.9659Z" fill="#FCFEFC"/>
<path d="M99.9152 69.0304C99.9152 51.5699 95.2506 46.1316 77.0118 46.1316C58.773 46.1316 54.1084 51.5699 54.1084 69.0304C54.1084 86.491 58.773 91.9292 77.0118 91.9292C95.2506 91.9292 99.9152 86.491 99.9152 69.0304Z" fill="#FCFEFB"/>
<path d="M99.3016 69.1111C99.3016 52.1508 94.7822 46.89 77.0761 46.89C59.3699 46.89 54.8506 52.1669 54.8506 69.1111C54.8506 86.0552 59.3699 91.3321 77.0761 91.3321C94.7822 91.3321 99.3016 86.0552 99.3016 69.1111Z" fill="#FBFDFA"/>
<path d="M98.7046 69.1756C98.7046 52.7317 94.3144 47.6162 77.1409 47.6162C59.9674 47.6162 55.5771 52.7317 55.5771 69.1756C55.5771 85.6195 59.9674 90.7351 77.1409 90.7351C94.3144 90.7351 98.7046 85.6195 98.7046 69.1756Z" fill="#FAFDF9"/>
<path d="M98.091 69.2564C98.091 53.3289 93.846 48.3748 77.2052 48.3748C60.5643 48.3748 56.3193 53.3289 56.3193 69.2564C56.3193 85.1839 60.5643 90.1381 77.2052 90.1381C93.846 90.1381 98.091 85.1839 98.091 69.2564Z" fill="#F9FDF8"/>
<path d="M97.494 69.321C97.494 53.9098 93.3781 49.1171 77.2861 49.1171C61.194 49.1171 57.0781 53.9098 57.0781 69.321C57.0781 84.7321 61.194 89.5248 77.2861 89.5248C93.3781 89.5248 97.494 84.7321 97.494 69.321Z" fill="#F8FDF7"/>
<path d="M96.897 69.3854C96.897 54.4907 92.9265 49.8431 77.3509 49.8431C61.7753 49.8431 57.8047 54.4745 57.8047 69.3854C57.8047 84.2963 61.7753 88.9277 77.3509 88.9277C92.9265 88.9277 96.897 84.2963 96.897 69.3854Z" fill="#F7FCF6"/>
<path d="M96.2834 69.4662C96.2834 55.0717 92.442 50.6017 77.4151 50.6017C62.3883 50.6017 58.5469 55.0717 58.5469 69.4662C58.5469 83.8606 62.3883 88.3307 77.4151 88.3307C92.442 88.3307 96.2834 83.8606 96.2834 69.4662Z" fill="#F6FCF5"/>
<path d="M95.6864 69.5307C95.6864 55.6527 91.9902 51.344 77.496 51.344C63.0018 51.344 59.3057 55.6688 59.3057 69.5307C59.3057 83.3927 63.0018 87.7175 77.496 87.7175C91.9902 87.7175 95.6864 83.3927 95.6864 69.5307Z" fill="#F5FCF4"/>
<path d="M95.0728 69.6114C95.0728 56.2497 91.5058 52.0863 77.5442 52.0863C63.5827 52.0863 60.0156 56.2497 60.0156 69.6114C60.0156 82.9731 63.5827 87.1365 77.5442 87.1365C91.5058 87.1365 95.0728 82.9731 95.0728 69.6114Z" fill="#F4FBF3"/>
<path d="M94.4758 69.6759C94.4758 56.8307 91.054 52.8286 77.6251 52.8286C64.1962 52.8286 60.7744 56.8307 60.7744 69.6759C60.7744 82.5212 64.1962 86.5233 77.6251 86.5233C91.054 86.5233 94.4758 82.5212 94.4758 69.6759Z" fill="#F4FBF2"/>
<path d="M93.8778 69.7405C93.8778 57.4116 90.5852 53.5709 77.705 53.5709C64.8249 53.5709 61.5322 57.4116 61.5322 69.7405C61.5322 82.0694 64.8249 85.9101 77.705 85.9101C90.5852 85.9101 93.8778 82.0694 93.8778 69.7405Z" fill="#F3FBF1"/>
<path d="M93.2652 69.8212C93.2652 57.9925 90.1178 54.3132 77.7542 54.3132C65.3906 54.3132 62.2432 57.9925 62.2432 69.8212C62.2432 81.6498 65.3906 85.3291 77.7542 85.3291C90.1178 85.3291 93.2652 81.6498 93.2652 69.8212Z" fill="#F2FAF0"/>
<path d="M92.6682 69.8857C92.6682 58.5735 89.6499 55.0555 77.8351 55.0555C66.0202 55.0555 63.002 58.5735 63.002 69.8857C63.002 81.198 66.0202 84.7159 77.8351 84.7159C89.6499 84.7159 92.6682 81.198 92.6682 69.8857Z" fill="#F1FAEF"/>
<path d="M92.732 70.0794C92.732 58.9285 89.7621 55.459 78.1087 55.459C66.4552 55.459 63.4854 58.9285 63.4854 70.0794C63.4854 81.2302 66.4552 84.6998 78.1087 84.6998C89.7621 84.6998 92.732 81.2302 92.732 70.0794Z" fill="#F0FAEE"/>
<path d="M92.7966 70.2569C92.7966 59.2674 89.8752 55.8624 78.3993 55.8624C66.9234 55.8624 64.002 59.2835 64.002 70.2569C64.002 81.2303 66.9234 84.6514 78.3993 84.6514C89.8752 84.6514 92.7966 81.2303 92.7966 70.2569Z" fill="#EFF9ED"/>
<path d="M92.8614 70.4506C92.8614 59.6386 89.9722 56.2659 78.6738 56.2659C67.3755 56.2659 64.4863 59.6386 64.4863 70.4506C64.4863 81.2625 67.3755 84.6352 78.6738 84.6352C89.9722 84.6352 92.8614 81.2625 92.8614 70.4506Z" fill="#EEF9EC"/>
<path d="M92.9261 70.628C92.9261 59.9774 90.0853 56.6531 78.9484 56.6531C67.8114 56.6531 64.9707 59.9612 64.9707 70.628C64.9707 81.2947 67.8114 84.6029 78.9484 84.6029C90.0853 84.6029 92.9261 81.2947 92.9261 70.628Z" fill="#EDF9EB"/>
<path d="M92.9907 70.8217C92.9907 60.3325 90.1984 57.0728 79.239 57.0728C68.2796 57.0728 65.4873 60.3325 65.4873 70.8217C65.4873 81.311 68.2796 84.5707 79.239 84.5707C90.1984 84.5707 92.9907 81.311 92.9907 70.8217Z" fill="#EDF8EA"/>
<path d="M93.0711 70.9992C93.0711 60.6713 90.3111 57.46 79.5292 57.46C68.7473 57.46 65.9873 60.6713 65.9873 70.9992C65.9873 81.327 68.7473 84.5383 79.5292 84.5383C90.3111 84.5383 93.0711 81.327 93.0711 70.9992Z" fill="#ECF8E9"/>
<path d="M93.1358 71.1928C93.1358 61.0263 90.4242 57.8634 79.8037 57.8634C69.1833 57.8634 66.4717 61.0263 66.4717 71.1928C66.4717 81.3593 69.1833 84.5222 79.8037 84.5222C90.4242 84.5222 93.1358 81.3593 93.1358 71.1928Z" fill="#EBF8E8"/>
<path d="M93.2005 71.3703C93.2005 61.3652 90.5373 58.2668 80.0944 58.2668C69.6515 58.2668 66.9883 61.3813 66.9883 71.3703C66.9883 81.3593 69.6515 84.4738 80.0944 84.4738C90.5373 84.4738 93.2005 81.3593 93.2005 71.3703Z" fill="#EAF8E7"/>
<path d="M93.2652 71.564C93.2652 61.7364 90.6504 58.6703 80.3689 58.6703C70.0874 58.6703 67.4727 61.7364 67.4727 71.564C67.4727 81.3916 70.0874 84.4577 80.3689 84.4577C90.6504 84.4577 93.2652 81.3916 93.2652 71.564Z" fill="#E9F7E6"/>
<path d="M93.3299 71.7415C93.3299 62.0753 90.7474 59.0576 80.6435 59.0576C70.5395 59.0576 67.957 62.0592 67.957 71.7415C67.957 81.4239 70.5395 84.4254 80.6435 84.4254C90.7474 84.4254 93.3299 81.4239 93.3299 71.7415Z" fill="#E8F7E5"/>
<path d="M93.3936 71.9352C93.3936 62.4303 90.8596 59.4772 80.9331 59.4772C71.0067 59.4772 68.4727 62.4303 68.4727 71.9352C68.4727 81.44 71.0067 84.3932 80.9331 84.3932C90.8596 84.3932 93.3936 81.44 93.3936 71.9352Z" fill="#E7F7E4"/>
<path d="M93.4583 72.1127C93.4583 62.7692 90.9727 59.8645 81.2077 59.8645C71.4427 59.8645 68.957 62.7692 68.957 72.1127C68.957 81.4562 71.4427 84.3609 81.2077 84.3609C90.9727 84.3609 93.4583 81.4562 93.4583 72.1127Z" fill="#E6F6E3"/>
<path d="M93.5231 72.3064C93.5231 63.1242 91.0697 60.2679 81.4822 60.2679C71.8948 60.2679 69.4414 63.1242 69.4414 72.3064C69.4414 81.4885 71.8948 84.3448 81.4822 84.3448C91.0697 84.3448 93.5231 81.4885 93.5231 72.3064Z" fill="#E6F6E2"/>
<path d="M93.6043 72.4838C93.6043 63.463 91.1994 60.6713 81.7895 60.6713C72.3795 60.6713 69.9746 63.4792 69.9746 72.4838C69.9746 81.4884 72.3795 84.2963 81.7895 84.2963C91.1994 84.2963 93.6043 81.4884 93.6043 72.4838Z" fill="#E5F6E1"/>
<path d="M93.6681 72.6774C93.6681 63.8342 91.3116 61.0747 82.063 61.0747C72.8145 61.0747 70.458 63.8342 70.458 72.6774C70.458 81.5207 72.8145 84.2801 82.063 84.2801C91.3116 84.2801 93.6681 81.5207 93.6681 72.6774Z" fill="#E4F5E0"/>
<path d="M93.7328 72.855C93.7328 64.1731 91.4086 61.462 82.3376 61.462C73.2666 61.462 70.9424 64.157 70.9424 72.855C70.9424 81.553 73.2666 84.2479 82.3376 84.2479C91.4086 84.2479 93.7328 81.553 93.7328 72.855Z" fill="#E3F5DF"/>
</g>
</g>
</g>
<g style="mix-blend-mode:hue" filter="url(#filter2_d_990_2981)">
<rect x="22" y="22" width="83" height="83" rx="21" fill="url(#paint2_linear_990_2981)"/>
</g>
<defs>
<filter id="filter0_d_990_2981" x="0" y="0" width="127" height="127" filterUnits="userSpaceOnUse" color-interpolation-filters="sRGB">
<feFlood flood-opacity="0" result="BackgroundImageFix"/>
<feColorMatrix in="SourceAlpha" type="matrix" values="0 0 0 0 0 0 0 0 0 0 0 0 0 0 0 0 0 0 127 0" result="hardAlpha"/>
<feOffset/>
<feGaussianBlur stdDeviation="11"/>
<feComposite in2="hardAlpha" operator="out"/>
<feColorMatrix type="matrix" values="0 0 0 0 0.520833 0 0 0 0 0.0260417 0 0 0 0 0.0260417 0 0 0 0.36 0"/>
<feBlend mode="normal" in2="BackgroundImageFix" result="effect1_dropShadow_990_2981"/>
<feBlend mode="normal" in="SourceGraphic" in2="effect1_dropShadow_990_2981" result="shape"/>
</filter>
<filter id="filter1_d_990_2981" x="36" y="39" width="62.0518" height="59.3314" filterUnits="userSpaceOnUse" color-interpolation-filters="sRGB">
<feFlood flood-opacity="0" result="BackgroundImageFix"/>
<feColorMatrix in="SourceAlpha" type="matrix" values="0 0 0 0 0 0 0 0 0 0 0 0 0 0 0 0 0 0 127 0" result="hardAlpha"/>
<feOffset dx="3" dy="4"/>
<feGaussianBlur stdDeviation="3"/>
<feComposite in2="hardAlpha" operator="out"/>
<feColorMatrix type="matrix" values="0 0 0 0 0 0 0 0 0 0 0 0 0 0 0 0 0 0 0.25 0"/>
<feBlend mode="normal" in2="BackgroundImageFix" result="effect1_dropShadow_990_2981"/>
<feBlend mode="normal" in="SourceGraphic" in2="effect1_dropShadow_990_2981" result="shape"/>
</filter>
<filter id="filter2_d_990_2981" x="0" y="0" width="127" height="127" filterUnits="userSpaceOnUse" color-interpolation-filters="sRGB">
<feFlood flood-opacity="0" result="BackgroundImageFix"/>
<feColorMatrix in="SourceAlpha" type="matrix" values="0 0 0 0 0 0 0 0 0 0 0 0 0 0 0 0 0 0 127 0" result="hardAlpha"/>
<feOffset/>
<feGaussianBlur stdDeviation="11"/>
<feComposite in2="hardAlpha" operator="out"/>
<feColorMatrix type="matrix" values="0 0 0 0 0.520833 0 0 0 0 0.0260417 0 0 0 0 0.0260417 0 0 0 0.36 0"/>
<feBlend mode="normal" in2="BackgroundImageFix" result="effect1_dropShadow_990_2981"/>
<feBlend mode="normal" in="SourceGraphic" in2="effect1_dropShadow_990_2981" result="shape"/>
</filter>
<linearGradient id="paint0_linear_990_2981" x1="22" y1="63.5" x2="81.5751" y2="72.0926" gradientUnits="userSpaceOnUse">
<stop stop-color="#F05A8E"/>
<stop offset="1" stop-color="#ED1C24"/>
</linearGradient>
<linearGradient id="paint1_linear_990_2981" x1="56.1735" y1="55.6365" x2="80.4439" y2="79.9119" gradientUnits="userSpaceOnUse">
<stop stop-color="#DDFAD6"/>
<stop offset="1" stop-color="#B2ECB2"/>
</linearGradient>
<linearGradient id="paint2_linear_990_2981" x1="22" y1="63.5" x2="81.5751" y2="72.0926" gradientUnits="userSpaceOnUse">
<stop stop-color="#F05A8E"/>
<stop offset="1" stop-color="#ED1C24"/>
</linearGradient>
</defs>
</svg>
