<svg width="64" height="65" viewBox="0 0 64 65" fill="none" xmlns="http://www.w3.org/2000/svg">
<rect x="0.203246" y="0.703246" width="63.5935" height="63.5935" rx="31.7968" stroke="white" stroke-width="0.406493"/>
<rect x="0.203246" y="0.703246" width="63.5935" height="63.5935" rx="31.7968" stroke="url(#paint0_linear_990_1029)" stroke-width="0.406493"/>
<path d="M50 43.5402V48H32V43.5402C32 41.0878 33.8799 39.099 36.2 39.099H38.1772L38.3946 37.7323C34.6681 38.851 32.6706 36.5108 32.6706 36.5108C33.1829 35.333 33.8003 33.2269 33.8003 29.4204V25.613C33.8003 23.5101 34.6056 21.6073 35.9086 20.2294C37.2117 18.852 39.0111 18 40.9997 18C44.9757 18 48.2001 21.4081 48.2001 25.613V29.4204C48.2001 33.2269 48.8171 35.333 49.3293 36.5108C49.3293 36.5108 47.3419 38.8393 43.6331 37.7402L43.8764 39.099H45.8004C48.12 39.099 50 41.0879 50 43.5402Z" fill="#F05A8E"/>
<path d="M35.2727 46.4595V48H14V46.4595C14 42.2006 17.3618 38.7485 21.5084 38.7485L22.1341 36.669C20.4154 35.7902 19.1938 34.0358 19.0244 31.9767C19.0059 31.7006 18.7867 31.4955 18.5305 31.4239C17.7232 31.2118 17.1291 30.4604 17.1291 29.5607C17.1291 28.9482 17.4049 28.4037 17.8368 28.0508C17.4986 26.9311 17.1291 25.2855 17.1291 23.4562C17.1291 22.5699 17.8291 21.8501 18.693 21.8501C18.693 21.8501 19.0453 17.993 24.0109 18.6375C29.1123 19.3001 31.6655 18 31.6655 18C31.6655 18 32.7703 19.0988 32.7703 21.2075C32.7703 22.0557 32.5416 22.8485 32.1455 23.5245C32.1446 23.5231 32.1446 23.5218 32.1446 23.5208L32.1437 23.5278C32.1441 23.5264 32.1446 23.5259 32.1455 23.5245C32.3519 25.4678 31.9929 27.1562 31.6447 28.2484C31.9554 28.5925 32.1446 29.0538 32.1446 29.5606C32.1446 30.4603 31.5502 31.2118 30.7433 31.4238C30.487 31.4954 30.2678 31.7005 30.2488 31.9767C30.079 34.0347 28.8584 35.7896 27.1396 36.668L27.7654 38.7484C31.9118 38.7485 35.2727 42.2006 35.2727 46.4595Z" fill="#ED1F29"/>
<defs>
<linearGradient id="paint0_linear_990_1029" x1="1.74453e-07" y1="32.5" x2="45.9374" y2="39.1256" gradientUnits="userSpaceOnUse">
<stop stop-color="#F05A8E"/>
<stop offset="1" stop-color="#ED1C24"/>
</linearGradient>
</defs>
</svg>
