<svg width="16" height="15" viewBox="0 0 16 15" fill="none" xmlns="http://www.w3.org/2000/svg">
<path d="M7.99993 14.9999C12.142 14.9999 15.4999 11.642 15.4999 7.49993C15.4999 3.35783 12.142 0 7.99993 0C3.85783 0 0.5 3.35783 0.5 7.49993C0.5 11.642 3.85783 14.9999 7.99993 14.9999Z" fill="#ED1C24"/>
<rect x="10.3851" y="4" width="1.39708" height="8.81387" rx="0.69854" transform="rotate(39.3408 10.3851 4)" fill="white"/>
<rect x="10.3851" y="4" width="1.39708" height="8.81387" rx="0.69854" transform="rotate(39.3408 10.3851 4)" fill="white"/>
<rect x="11.7633" y="10.4434" width="1.39708" height="8.81387" rx="0.69854" transform="rotate(134.527 11.7633 10.4434)" fill="white"/>
<rect x="11.7633" y="10.4434" width="1.39708" height="8.81387" rx="0.69854" transform="rotate(134.527 11.7633 10.4434)" fill="white"/>
</svg>
