<svg width="616" height="18" viewBox="0 0 616 18" fill="none" xmlns="http://www.w3.org/2000/svg">
<path d="M1.688 3.032V6.76H5.752V7.96H1.688V11.8H6.232V13H0.232V1.832H6.232V3.032H1.688ZM13.0111 13L10.9311 9.736L8.93113 13H7.41113L10.2431 8.648L7.41113 4.232H9.05913L11.1391 7.48L13.1231 4.232H14.6431L11.8271 8.568L14.6591 13H13.0111ZM17.5474 5.848C17.8354 5.34667 18.262 4.93067 18.8274 4.6C19.4034 4.25867 20.07 4.088 20.8274 4.088C21.606 4.088 22.31 4.27467 22.9394 4.648C23.5794 5.02133 24.0807 5.54933 24.4434 6.232C24.806 6.904 24.9874 7.688 24.9874 8.584C24.9874 9.46933 24.806 10.2587 24.4434 10.952C24.0807 11.6453 23.5794 12.184 22.9394 12.568C22.31 12.952 21.606 13.144 20.8274 13.144C20.0807 13.144 19.4194 12.9787 18.8434 12.648C18.278 12.3067 17.846 11.8853 17.5474 11.384V17.16H16.0914V4.232H17.5474V5.848ZM23.4994 8.584C23.4994 7.92267 23.366 7.34667 23.0994 6.856C22.8327 6.36533 22.47 5.992 22.0114 5.736C21.5634 5.48 21.0674 5.352 20.5234 5.352C19.99 5.352 19.494 5.48533 19.0354 5.752C18.5874 6.008 18.2247 6.38667 17.9474 6.888C17.6807 7.37867 17.5474 7.94933 17.5474 8.6C17.5474 9.26133 17.6807 9.84267 17.9474 10.344C18.2247 10.8347 18.5874 11.2133 19.0354 11.48C19.494 11.736 19.99 11.864 20.5234 11.864C21.0674 11.864 21.5634 11.736 22.0114 11.48C22.47 11.2133 22.8327 10.8347 23.0994 10.344C23.366 9.84267 23.4994 9.256 23.4994 8.584ZM34.9039 8.28C34.9039 8.55733 34.8879 8.85067 34.8559 9.16H27.8479C27.9012 10.024 28.1945 10.7013 28.7279 11.192C29.2719 11.672 29.9279 11.912 30.6959 11.912C31.3252 11.912 31.8479 11.768 32.2639 11.48C32.6905 11.1813 32.9892 10.7867 33.1599 10.296H34.7279C34.4932 11.1387 34.0239 11.8267 33.3199 12.36C32.6159 12.8827 31.7412 13.144 30.6959 13.144C29.8639 13.144 29.1172 12.9573 28.4559 12.584C27.8052 12.2107 27.2932 11.6827 26.9199 11C26.5465 10.3067 26.3599 9.50667 26.3599 8.6C26.3599 7.69333 26.5412 6.89867 26.9039 6.216C27.2665 5.53333 27.7732 5.01067 28.4239 4.648C29.0852 4.27467 29.8425 4.088 30.6959 4.088C31.5279 4.088 32.2639 4.26933 32.9039 4.632C33.5439 4.99467 34.0345 5.496 34.3759 6.136C34.7279 6.76533 34.9039 7.48 34.9039 8.28ZM33.3999 7.976C33.3999 7.42133 33.2772 6.94667 33.0319 6.552C32.7865 6.14667 32.4505 5.84267 32.0239 5.64C31.6079 5.42667 31.1439 5.32 30.6319 5.32C29.8959 5.32 29.2665 5.55467 28.7439 6.024C28.2319 6.49333 27.9385 7.144 27.8639 7.976H33.3999ZM38.2818 5.656C38.5378 5.15467 38.9004 4.76533 39.3698 4.488C39.8498 4.21067 40.4311 4.072 41.1138 4.072V5.576H40.7298C39.0978 5.576 38.2818 6.46133 38.2818 8.232V13H36.8258V4.232H38.2818V5.656ZM43.5465 2.808C43.2692 2.808 43.0345 2.712 42.8425 2.52C42.6505 2.328 42.5545 2.09333 42.5545 1.816C42.5545 1.53867 42.6505 1.304 42.8425 1.112C43.0345 0.919999 43.2692 0.823999 43.5465 0.823999C43.8132 0.823999 44.0372 0.919999 44.2185 1.112C44.4105 1.304 44.5065 1.53867 44.5065 1.816C44.5065 2.09333 44.4105 2.328 44.2185 2.52C44.0372 2.712 43.8132 2.808 43.5465 2.808ZM44.2505 4.232V13H42.7945V4.232H44.2505ZM54.732 8.28C54.732 8.55733 54.716 8.85067 54.684 9.16H47.676C47.7293 10.024 48.0227 10.7013 48.556 11.192C49.1 11.672 49.756 11.912 50.524 11.912C51.1533 11.912 51.676 11.768 52.092 11.48C52.5187 11.1813 52.8173 10.7867 52.988 10.296H54.556C54.3213 11.1387 53.852 11.8267 53.148 12.36C52.444 12.8827 51.5693 13.144 50.524 13.144C49.692 13.144 48.9453 12.9573 48.284 12.584C47.6333 12.2107 47.1213 11.6827 46.748 11C46.3747 10.3067 46.188 9.50667 46.188 8.6C46.188 7.69333 46.3693 6.89867 46.732 6.216C47.0947 5.53333 47.6013 5.01067 48.252 4.648C48.9133 4.27467 49.6707 4.088 50.524 4.088C51.356 4.088 52.092 4.26933 52.732 4.632C53.372 4.99467 53.8627 5.496 54.204 6.136C54.556 6.76533 54.732 7.48 54.732 8.28ZM53.228 7.976C53.228 7.42133 53.1053 6.94667 52.86 6.552C52.6147 6.14667 52.2787 5.84267 51.852 5.64C51.436 5.42667 50.972 5.32 50.46 5.32C49.724 5.32 49.0947 5.55467 48.572 6.024C48.06 6.49333 47.7667 7.144 47.692 7.976H53.228ZM60.9259 4.072C61.9925 4.072 62.8565 4.39733 63.5179 5.048C64.1792 5.688 64.5099 6.616 64.5099 7.832V13H63.0699V8.04C63.0699 7.16533 62.8512 6.49867 62.4139 6.04C61.9765 5.57067 61.3792 5.336 60.6219 5.336C59.8539 5.336 59.2405 5.576 58.7819 6.056C58.3339 6.536 58.1099 7.23467 58.1099 8.152V13H56.6539V4.232H58.1099V5.48C58.3979 5.032 58.7872 4.68533 59.2779 4.44C59.7792 4.19467 60.3285 4.072 60.9259 4.072ZM66.3443 8.6C66.3443 7.69333 66.5256 6.904 66.8883 6.232C67.2509 5.54933 67.7523 5.02133 68.3923 4.648C69.0429 4.27467 69.7843 4.088 70.6163 4.088C71.6936 4.088 72.5789 4.34933 73.2723 4.872C73.9763 5.39467 74.4403 6.12 74.6643 7.048H73.0963C72.9469 6.51467 72.6536 6.09333 72.2163 5.784C71.7896 5.47467 71.2563 5.32 70.6163 5.32C69.7843 5.32 69.1123 5.608 68.6003 6.184C68.0883 6.74933 67.8323 7.55467 67.8323 8.6C67.8323 9.656 68.0883 10.472 68.6003 11.048C69.1123 11.624 69.7843 11.912 70.6163 11.912C71.2563 11.912 71.7896 11.7627 72.2163 11.464C72.6429 11.1653 72.9363 10.7387 73.0963 10.184H74.6643C74.4296 11.08 73.9603 11.8 73.2563 12.344C72.5523 12.8773 71.6723 13.144 70.6163 13.144C69.7843 13.144 69.0429 12.9573 68.3923 12.584C67.7523 12.2107 67.2509 11.6827 66.8883 11C66.5256 10.3173 66.3443 9.51733 66.3443 8.6ZM84.607 8.28C84.607 8.55733 84.591 8.85067 84.559 9.16H77.551C77.6043 10.024 77.8977 10.7013 78.431 11.192C78.975 11.672 79.631 11.912 80.399 11.912C81.0283 11.912 81.551 11.768 81.967 11.48C82.3937 11.1813 82.6923 10.7867 82.863 10.296H84.431C84.1963 11.1387 83.727 11.8267 83.023 12.36C82.319 12.8827 81.4443 13.144 80.399 13.144C79.567 13.144 78.8203 12.9573 78.159 12.584C77.5083 12.2107 76.9963 11.6827 76.623 11C76.2497 10.3067 76.063 9.50667 76.063 8.6C76.063 7.69333 76.2443 6.89867 76.607 6.216C76.9697 5.53333 77.4763 5.01067 78.127 4.648C78.7883 4.27467 79.5457 4.088 80.399 4.088C81.231 4.088 81.967 4.26933 82.607 4.632C83.247 4.99467 83.7377 5.496 84.079 6.136C84.431 6.76533 84.607 7.48 84.607 8.28ZM83.103 7.976C83.103 7.42133 82.9803 6.94667 82.735 6.552C82.4897 6.14667 82.1537 5.84267 81.727 5.64C81.311 5.42667 80.847 5.32 80.335 5.32C79.599 5.32 78.9697 5.55467 78.447 6.024C77.935 6.49333 77.6417 7.144 77.567 7.976H83.103ZM92.5705 5.432V10.6C92.5705 11.0267 92.6612 11.3307 92.8425 11.512C93.0238 11.6827 93.3385 11.768 93.7865 11.768H94.8585V13H93.5465C92.7358 13 92.1278 12.8133 91.7225 12.44C91.3172 12.0667 91.1145 11.4533 91.1145 10.6V5.432H89.9785V4.232H91.1145V2.024H92.5705V4.232H94.8585V5.432H92.5705ZM100.975 4.072C101.636 4.072 102.233 4.216 102.767 4.504C103.3 4.78133 103.716 5.20267 104.015 5.768C104.324 6.33333 104.479 7.02133 104.479 7.832V13H103.039V8.04C103.039 7.16533 102.82 6.49867 102.383 6.04C101.945 5.57067 101.348 5.336 100.591 5.336C99.8226 5.336 99.2093 5.576 98.7506 6.056C98.3026 6.536 98.0786 7.23467 98.0786 8.152V13H96.6226V1.16H98.0786V5.48C98.3666 5.032 98.7613 4.68533 99.2626 4.44C99.7746 4.19467 100.345 4.072 100.975 4.072ZM114.857 8.28C114.857 8.55733 114.841 8.85067 114.809 9.16H107.801C107.854 10.024 108.148 10.7013 108.681 11.192C109.225 11.672 109.881 11.912 110.649 11.912C111.278 11.912 111.801 11.768 112.217 11.48C112.644 11.1813 112.942 10.7867 113.113 10.296H114.681C114.446 11.1387 113.977 11.8267 113.273 12.36C112.569 12.8827 111.694 13.144 110.649 13.144C109.817 13.144 109.07 12.9573 108.409 12.584C107.758 12.2107 107.246 11.6827 106.873 11C106.5 10.3067 106.313 9.50667 106.313 8.6C106.313 7.69333 106.494 6.89867 106.857 6.216C107.22 5.53333 107.726 5.01067 108.377 4.648C109.038 4.27467 109.796 4.088 110.649 4.088C111.481 4.088 112.217 4.26933 112.857 4.632C113.497 4.99467 113.988 5.496 114.329 6.136C114.681 6.76533 114.857 7.48 114.857 8.28ZM113.353 7.976C113.353 7.42133 113.23 6.94667 112.985 6.552C112.74 6.14667 112.404 5.84267 111.977 5.64C111.561 5.42667 111.097 5.32 110.585 5.32C109.849 5.32 109.22 5.55467 108.697 6.024C108.185 6.49333 107.892 7.144 107.817 7.976H113.353ZM121.829 2.808C121.551 2.808 121.317 2.712 121.125 2.52C120.943 2.328 120.853 2.09333 120.853 1.816C120.853 1.53867 120.943 1.304 121.125 1.112C121.317 0.919999 121.551 0.823999 121.829 0.823999C122.106 0.823999 122.335 0.919999 122.517 1.112C122.709 1.304 122.805 1.53867 122.805 1.816C122.805 2.09333 122.709 2.328 122.517 2.52C122.335 2.712 122.106 2.808 121.829 2.808ZM122.549 14.904C122.549 15.6827 122.351 16.2533 121.957 16.616C121.562 16.9787 120.986 17.16 120.229 17.16H119.38V15.928H119.989C120.394 15.928 120.677 15.848 120.837 15.688C121.007 15.528 121.093 15.256 121.093 14.872V4.232H122.549V14.904ZM128.837 13.144C128.016 13.144 127.269 12.9573 126.597 12.584C125.936 12.2107 125.413 11.6827 125.029 11C124.656 10.3067 124.469 9.50667 124.469 8.6C124.469 7.704 124.661 6.91467 125.045 6.232C125.44 5.53867 125.973 5.01067 126.645 4.648C127.317 4.27467 128.069 4.088 128.901 4.088C129.733 4.088 130.485 4.27467 131.157 4.648C131.829 5.01067 132.357 5.53333 132.741 6.216C133.136 6.89867 133.333 7.69333 133.333 8.6C133.333 9.50667 133.131 10.3067 132.725 11C132.331 11.6827 131.792 12.2107 131.109 12.584C130.427 12.9573 129.669 13.144 128.837 13.144ZM128.837 11.864C129.36 11.864 129.851 11.7413 130.309 11.496C130.768 11.2507 131.136 10.8827 131.413 10.392C131.701 9.90133 131.845 9.304 131.845 8.6C131.845 7.896 131.707 7.29867 131.429 6.808C131.152 6.31733 130.789 5.95467 130.341 5.72C129.893 5.47467 129.408 5.352 128.885 5.352C128.352 5.352 127.861 5.47467 127.413 5.72C126.976 5.95467 126.624 6.31733 126.357 6.808C126.091 7.29867 125.957 7.896 125.957 8.6C125.957 9.31467 126.085 9.91733 126.341 10.408C126.608 10.8987 126.96 11.2667 127.397 11.512C127.835 11.7467 128.315 11.864 128.837 11.864ZM142.8 4.232L137.52 17.128H136.016L137.744 12.904L134.208 4.232H135.824L138.576 11.336L141.296 4.232H142.8ZM152.353 13.144C151.532 13.144 150.785 12.9573 150.113 12.584C149.452 12.2107 148.929 11.6827 148.545 11C148.172 10.3067 147.985 9.50667 147.985 8.6C147.985 7.704 148.177 6.91467 148.561 6.232C148.956 5.53867 149.489 5.01067 150.161 4.648C150.833 4.27467 151.585 4.088 152.417 4.088C153.249 4.088 154.001 4.27467 154.673 4.648C155.345 5.01067 155.873 5.53333 156.257 6.216C156.652 6.89867 156.849 7.69333 156.849 8.6C156.849 9.50667 156.646 10.3067 156.241 11C155.846 11.6827 155.308 12.2107 154.625 12.584C153.942 12.9573 153.185 13.144 152.353 13.144ZM152.353 11.864C152.876 11.864 153.366 11.7413 153.825 11.496C154.284 11.2507 154.652 10.8827 154.929 10.392C155.217 9.90133 155.361 9.304 155.361 8.6C155.361 7.896 155.222 7.29867 154.945 6.808C154.668 6.31733 154.305 5.95467 153.857 5.72C153.409 5.47467 152.924 5.352 152.401 5.352C151.868 5.352 151.377 5.47467 150.929 5.72C150.492 5.95467 150.14 6.31733 149.873 6.808C149.606 7.29867 149.473 7.896 149.473 8.6C149.473 9.31467 149.601 9.91733 149.857 10.408C150.124 10.8987 150.476 11.2667 150.913 11.512C151.35 11.7467 151.83 11.864 152.353 11.864ZM162.331 5.432H160.491V13H159.035V5.432H157.899V4.232H159.035V3.608C159.035 2.62667 159.286 1.912 159.787 1.464C160.299 1.00533 161.115 0.775999 162.235 0.775999V1.992C161.595 1.992 161.142 2.12 160.875 2.376C160.619 2.62133 160.491 3.032 160.491 3.608V4.232H162.331V5.432ZM169.751 1.16V13H168.295V1.16H169.751ZM172.984 2.808C172.707 2.808 172.472 2.712 172.28 2.52C172.088 2.328 171.992 2.09333 171.992 1.816C171.992 1.53867 172.088 1.304 172.28 1.112C172.472 0.919999 172.707 0.823999 172.984 0.823999C173.251 0.823999 173.475 0.919999 173.656 1.112C173.848 1.304 173.944 1.53867 173.944 1.816C173.944 2.09333 173.848 2.328 173.656 2.52C173.475 2.712 173.251 2.808 172.984 2.808ZM173.688 4.232V13H172.232V4.232H173.688ZM179.738 5.432H177.898V13H176.442V5.432H175.306V4.232H176.442V3.608C176.442 2.62667 176.692 1.912 177.194 1.464C177.706 1.00533 178.522 0.775999 179.641 0.775999V1.992C179.002 1.992 178.548 2.12 178.282 2.376C178.026 2.62133 177.898 3.032 177.898 3.608V4.232H179.738V5.432ZM189.435 8.28C189.435 8.55733 189.419 8.85067 189.387 9.16H182.379C182.432 10.024 182.726 10.7013 183.259 11.192C183.803 11.672 184.459 11.912 185.227 11.912C185.856 11.912 186.379 11.768 186.795 11.48C187.222 11.1813 187.52 10.7867 187.691 10.296H189.259C189.024 11.1387 188.555 11.8267 187.851 12.36C187.147 12.8827 186.272 13.144 185.227 13.144C184.395 13.144 183.648 12.9573 182.987 12.584C182.336 12.2107 181.824 11.6827 181.451 11C181.078 10.3067 180.891 9.50667 180.891 8.6C180.891 7.69333 181.072 6.89867 181.435 6.216C181.798 5.53333 182.304 5.01067 182.955 4.648C183.616 4.27467 184.374 4.088 185.227 4.088C186.059 4.088 186.795 4.26933 187.435 4.632C188.075 4.99467 188.566 5.496 188.907 6.136C189.259 6.76533 189.435 7.48 189.435 8.28ZM187.931 7.976C187.931 7.42133 187.808 6.94667 187.563 6.552C187.318 6.14667 186.982 5.84267 186.555 5.64C186.139 5.42667 185.675 5.32 185.163 5.32C184.427 5.32 183.798 5.55467 183.275 6.024C182.763 6.49333 182.47 7.144 182.395 7.976H187.931ZM195.079 8.584C195.079 7.688 195.26 6.904 195.623 6.232C195.985 5.54933 196.481 5.02133 197.111 4.648C197.751 4.27467 198.46 4.088 199.239 4.088C200.007 4.088 200.673 4.25333 201.239 4.584C201.804 4.91467 202.225 5.33067 202.503 5.832V4.232H203.975V13H202.503V11.368C202.215 11.88 201.783 12.3067 201.207 12.648C200.641 12.9787 199.98 13.144 199.223 13.144C198.444 13.144 197.74 12.952 197.111 12.568C196.481 12.184 195.985 11.6453 195.623 10.952C195.26 10.2587 195.079 9.46933 195.079 8.584ZM202.503 8.6C202.503 7.93867 202.369 7.36267 202.103 6.872C201.836 6.38133 201.473 6.008 201.015 5.752C200.567 5.48533 200.071 5.352 199.527 5.352C198.983 5.352 198.487 5.48 198.039 5.736C197.591 5.992 197.233 6.36533 196.967 6.856C196.7 7.34667 196.567 7.92267 196.567 8.584C196.567 9.256 196.7 9.84267 196.967 10.344C197.233 10.8347 197.591 11.2133 198.039 11.48C198.487 11.736 198.983 11.864 199.527 11.864C200.071 11.864 200.567 11.736 201.015 11.48C201.473 11.2133 201.836 10.8347 202.103 10.344C202.369 9.84267 202.503 9.26133 202.503 8.6ZM210.707 4.072C211.774 4.072 212.638 4.39733 213.299 5.048C213.96 5.688 214.291 6.616 214.291 7.832V13H212.851V8.04C212.851 7.16533 212.632 6.49867 212.195 6.04C211.758 5.57067 211.16 5.336 210.403 5.336C209.635 5.336 209.022 5.576 208.563 6.056C208.115 6.536 207.891 7.23467 207.891 8.152V13H206.435V4.232H207.891V5.48C208.179 5.032 208.568 4.68533 209.059 4.44C209.56 4.19467 210.11 4.072 210.707 4.072ZM216.126 8.584C216.126 7.688 216.307 6.904 216.67 6.232C217.032 5.54933 217.528 5.02133 218.158 4.648C218.798 4.27467 219.512 4.088 220.302 4.088C220.984 4.088 221.619 4.248 222.206 4.568C222.792 4.87733 223.24 5.288 223.55 5.8V1.16H225.022V13H223.55V11.352C223.262 11.8747 222.835 12.3067 222.27 12.648C221.704 12.9787 221.043 13.144 220.286 13.144C219.507 13.144 218.798 12.952 218.158 12.568C217.528 12.184 217.032 11.6453 216.67 10.952C216.307 10.2587 216.126 9.46933 216.126 8.584ZM223.55 8.6C223.55 7.93867 223.416 7.36267 223.15 6.872C222.883 6.38133 222.52 6.008 222.062 5.752C221.614 5.48533 221.118 5.352 220.574 5.352C220.03 5.352 219.534 5.48 219.086 5.736C218.638 5.992 218.28 6.36533 218.014 6.856C217.747 7.34667 217.614 7.92267 217.614 8.584C217.614 9.256 217.747 9.84267 218.014 10.344C218.28 10.8347 218.638 11.2133 219.086 11.48C219.534 11.736 220.03 11.864 220.574 11.864C221.118 11.864 221.614 11.736 222.062 11.48C222.52 11.2133 222.883 10.8347 223.15 10.344C223.416 9.84267 223.55 9.26133 223.55 8.6ZM231.204 8.6C231.204 7.69333 231.385 6.904 231.748 6.232C232.11 5.54933 232.612 5.02133 233.252 4.648C233.902 4.27467 234.644 4.088 235.476 4.088C236.553 4.088 237.438 4.34933 238.132 4.872C238.836 5.39467 239.3 6.12 239.524 7.048H237.956C237.806 6.51467 237.513 6.09333 237.076 5.784C236.649 5.47467 236.116 5.32 235.476 5.32C234.644 5.32 233.972 5.608 233.46 6.184C232.948 6.74933 232.692 7.55467 232.692 8.6C232.692 9.656 232.948 10.472 233.46 11.048C233.972 11.624 234.644 11.912 235.476 11.912C236.116 11.912 236.649 11.7627 237.076 11.464C237.502 11.1653 237.796 10.7387 237.956 10.184H239.524C239.289 11.08 238.82 11.8 238.116 12.344C237.412 12.8773 236.532 13.144 235.476 13.144C234.644 13.144 233.902 12.9573 233.252 12.584C232.612 12.2107 232.11 11.6827 231.748 11C231.385 10.3173 231.204 9.51733 231.204 8.6ZM242.922 5.656C243.178 5.15467 243.541 4.76533 244.01 4.488C244.49 4.21067 245.072 4.072 245.754 4.072V5.576H245.37C243.738 5.576 242.922 6.46133 242.922 8.232V13H241.466V4.232H242.922V5.656ZM255.435 8.28C255.435 8.55733 255.419 8.85067 255.387 9.16H248.379C248.432 10.024 248.726 10.7013 249.259 11.192C249.803 11.672 250.459 11.912 251.227 11.912C251.856 11.912 252.379 11.768 252.795 11.48C253.222 11.1813 253.52 10.7867 253.691 10.296H255.259C255.024 11.1387 254.555 11.8267 253.851 12.36C253.147 12.8827 252.272 13.144 251.227 13.144C250.395 13.144 249.648 12.9573 248.987 12.584C248.336 12.2107 247.824 11.6827 247.451 11C247.078 10.3067 246.891 9.50667 246.891 8.6C246.891 7.69333 247.072 6.89867 247.435 6.216C247.798 5.53333 248.304 5.01067 248.955 4.648C249.616 4.27467 250.374 4.088 251.227 4.088C252.059 4.088 252.795 4.26933 253.435 4.632C254.075 4.99467 254.566 5.496 254.907 6.136C255.259 6.76533 255.435 7.48 255.435 8.28ZM253.931 7.976C253.931 7.42133 253.808 6.94667 253.563 6.552C253.318 6.14667 252.982 5.84267 252.555 5.64C252.139 5.42667 251.675 5.32 251.163 5.32C250.427 5.32 249.798 5.55467 249.275 6.024C248.763 6.49333 248.47 7.144 248.395 7.976H253.931ZM256.813 8.584C256.813 7.688 256.994 6.904 257.357 6.232C257.72 5.54933 258.216 5.02133 258.845 4.648C259.485 4.27467 260.194 4.088 260.973 4.088C261.741 4.088 262.408 4.25333 262.973 4.584C263.538 4.91467 263.96 5.33067 264.237 5.832V4.232H265.709V13H264.237V11.368C263.949 11.88 263.517 12.3067 262.941 12.648C262.376 12.9787 261.714 13.144 260.957 13.144C260.178 13.144 259.474 12.952 258.845 12.568C258.216 12.184 257.72 11.6453 257.357 10.952C256.994 10.2587 256.813 9.46933 256.813 8.584ZM264.237 8.6C264.237 7.93867 264.104 7.36267 263.837 6.872C263.57 6.38133 263.208 6.008 262.749 5.752C262.301 5.48533 261.805 5.352 261.261 5.352C260.717 5.352 260.221 5.48 259.773 5.736C259.325 5.992 258.968 6.36533 258.701 6.856C258.434 7.34667 258.301 7.92267 258.301 8.584C258.301 9.256 258.434 9.84267 258.701 10.344C258.968 10.8347 259.325 11.2133 259.773 11.48C260.221 11.736 260.717 11.864 261.261 11.864C261.805 11.864 262.301 11.736 262.749 11.48C263.208 11.2133 263.57 10.8347 263.837 10.344C264.104 9.84267 264.237 9.26133 264.237 8.6ZM269.946 5.432V10.6C269.946 11.0267 270.036 11.3307 270.218 11.512C270.399 11.6827 270.714 11.768 271.161 11.768H272.234V13H270.922C270.111 13 269.503 12.8133 269.098 12.44C268.692 12.0667 268.49 11.4533 268.49 10.6V5.432H267.354V4.232H268.49V2.024H269.946V4.232H272.234V5.432H269.946ZM281.998 8.28C281.998 8.55733 281.982 8.85067 281.95 9.16H274.942C274.995 10.024 275.288 10.7013 275.822 11.192C276.366 11.672 277.022 11.912 277.79 11.912C278.419 11.912 278.942 11.768 279.358 11.48C279.784 11.1813 280.083 10.7867 280.254 10.296H281.822C281.587 11.1387 281.118 11.8267 280.414 12.36C279.71 12.8827 278.835 13.144 277.79 13.144C276.958 13.144 276.211 12.9573 275.55 12.584C274.899 12.2107 274.387 11.6827 274.014 11C273.64 10.3067 273.454 9.50667 273.454 8.6C273.454 7.69333 273.635 6.89867 273.998 6.216C274.36 5.53333 274.867 5.01067 275.518 4.648C276.179 4.27467 276.936 4.088 277.79 4.088C278.622 4.088 279.358 4.26933 279.998 4.632C280.638 4.99467 281.128 5.496 281.47 6.136C281.822 6.76533 281.998 7.48 281.998 8.28ZM280.494 7.976C280.494 7.42133 280.371 6.94667 280.126 6.552C279.88 6.14667 279.544 5.84267 279.118 5.64C278.702 5.42667 278.238 5.32 277.726 5.32C276.99 5.32 276.36 5.55467 275.838 6.024C275.326 6.49333 275.032 7.144 274.958 7.976H280.494ZM292.537 4.072C293.198 4.072 293.796 4.216 294.329 4.504C294.862 4.78133 295.278 5.20267 295.577 5.768C295.886 6.33333 296.041 7.02133 296.041 7.832V13H294.601V8.04C294.601 7.16533 294.382 6.49867 293.945 6.04C293.508 5.57067 292.91 5.336 292.153 5.336C291.385 5.336 290.772 5.576 290.313 6.056C289.865 6.536 289.641 7.23467 289.641 8.152V13H288.185V1.16H289.641V5.48C289.929 5.032 290.324 4.68533 290.825 4.44C291.337 4.19467 291.908 4.072 292.537 4.072ZM297.876 8.584C297.876 7.688 298.057 6.904 298.42 6.232C298.782 5.54933 299.278 5.02133 299.908 4.648C300.548 4.27467 301.257 4.088 302.036 4.088C302.804 4.088 303.47 4.25333 304.036 4.584C304.601 4.91467 305.022 5.33067 305.3 5.832V4.232H306.772V13H305.3V11.368C305.012 11.88 304.58 12.3067 304.004 12.648C303.438 12.9787 302.777 13.144 302.02 13.144C301.241 13.144 300.537 12.952 299.908 12.568C299.278 12.184 298.782 11.6453 298.42 10.952C298.057 10.2587 297.876 9.46933 297.876 8.584ZM305.3 8.6C305.3 7.93867 305.166 7.36267 304.9 6.872C304.633 6.38133 304.27 6.008 303.812 5.752C303.364 5.48533 302.868 5.352 302.324 5.352C301.78 5.352 301.284 5.48 300.836 5.736C300.388 5.992 300.03 6.36533 299.764 6.856C299.497 7.34667 299.364 7.92267 299.364 8.584C299.364 9.256 299.497 9.84267 299.764 10.344C300.03 10.8347 300.388 11.2133 300.836 11.48C301.284 11.736 301.78 11.864 302.324 11.864C302.868 11.864 303.364 11.736 303.812 11.48C304.27 11.2133 304.633 10.8347 304.9 10.344C305.166 9.84267 305.3 9.26133 305.3 8.6ZM310.688 5.848C310.976 5.34667 311.403 4.93067 311.968 4.6C312.544 4.25867 313.211 4.088 313.968 4.088C314.747 4.088 315.451 4.27467 316.08 4.648C316.72 5.02133 317.221 5.54933 317.584 6.232C317.947 6.904 318.128 7.688 318.128 8.584C318.128 9.46933 317.947 10.2587 317.584 10.952C317.221 11.6453 316.72 12.184 316.08 12.568C315.451 12.952 314.747 13.144 313.968 13.144C313.221 13.144 312.56 12.9787 311.984 12.648C311.419 12.3067 310.987 11.8853 310.688 11.384V17.16H309.232V4.232H310.688V5.848ZM316.64 8.584C316.64 7.92267 316.507 7.34667 316.24 6.856C315.973 6.36533 315.611 5.992 315.152 5.736C314.704 5.48 314.208 5.352 313.664 5.352C313.131 5.352 312.635 5.48533 312.176 5.752C311.728 6.008 311.365 6.38667 311.088 6.888C310.821 7.37867 310.688 7.94933 310.688 8.6C310.688 9.26133 310.821 9.84267 311.088 10.344C311.365 10.8347 311.728 11.2133 312.176 11.48C312.635 11.736 313.131 11.864 313.664 11.864C314.208 11.864 314.704 11.736 315.152 11.48C315.611 11.2133 315.973 10.8347 316.24 10.344C316.507 9.84267 316.64 9.256 316.64 8.584ZM321.501 5.848C321.789 5.34667 322.215 4.93067 322.781 4.6C323.357 4.25867 324.023 4.088 324.781 4.088C325.559 4.088 326.263 4.27467 326.892 4.648C327.532 5.02133 328.034 5.54933 328.397 6.232C328.759 6.904 328.941 7.688 328.941 8.584C328.941 9.46933 328.759 10.2587 328.397 10.952C328.034 11.6453 327.532 12.184 326.892 12.568C326.263 12.952 325.559 13.144 324.781 13.144C324.034 13.144 323.373 12.9787 322.797 12.648C322.231 12.3067 321.799 11.8853 321.501 11.384V17.16H320.045V4.232H321.501V5.848ZM327.453 8.584C327.453 7.92267 327.319 7.34667 327.053 6.856C326.786 6.36533 326.423 5.992 325.965 5.736C325.517 5.48 325.021 5.352 324.477 5.352C323.943 5.352 323.447 5.48533 322.989 5.752C322.541 6.008 322.178 6.38667 321.901 6.888C321.634 7.37867 321.501 7.94933 321.501 8.6C321.501 9.26133 321.634 9.84267 321.901 10.344C322.178 10.8347 322.541 11.2133 322.989 11.48C323.447 11.736 323.943 11.864 324.477 11.864C325.021 11.864 325.517 11.736 325.965 11.48C326.423 11.2133 326.786 10.8347 327.053 10.344C327.319 9.84267 327.453 9.256 327.453 8.584ZM331.609 2.808C331.332 2.808 331.097 2.712 330.905 2.52C330.713 2.328 330.617 2.09333 330.617 1.816C330.617 1.53867 330.713 1.304 330.905 1.112C331.097 0.919999 331.332 0.823999 331.609 0.823999C331.876 0.823999 332.1 0.919999 332.281 1.112C332.473 1.304 332.569 1.53867 332.569 1.816C332.569 2.09333 332.473 2.328 332.281 2.52C332.1 2.712 331.876 2.808 331.609 2.808ZM332.313 4.232V13H330.857V4.232H332.313ZM339.067 4.072C340.133 4.072 340.997 4.39733 341.659 5.048C342.32 5.688 342.651 6.616 342.651 7.832V13H341.211V8.04C341.211 7.16533 340.992 6.49867 340.555 6.04C340.117 5.57067 339.52 5.336 338.763 5.336C337.995 5.336 337.381 5.576 336.923 6.056C336.475 6.536 336.251 7.23467 336.251 8.152V13H334.795V4.232H336.251V5.48C336.539 5.032 336.928 4.68533 337.419 4.44C337.92 4.19467 338.469 4.072 339.067 4.072ZM353.029 8.28C353.029 8.55733 353.013 8.85067 352.981 9.16H345.973C346.026 10.024 346.32 10.7013 346.853 11.192C347.397 11.672 348.053 11.912 348.821 11.912C349.45 11.912 349.973 11.768 350.389 11.48C350.816 11.1813 351.114 10.7867 351.285 10.296H352.853C352.618 11.1387 352.149 11.8267 351.445 12.36C350.741 12.8827 349.866 13.144 348.821 13.144C347.989 13.144 347.242 12.9573 346.581 12.584C345.93 12.2107 345.418 11.6827 345.045 11C344.672 10.3067 344.485 9.50667 344.485 8.6C344.485 7.69333 344.666 6.89867 345.029 6.216C345.392 5.53333 345.898 5.01067 346.549 4.648C347.21 4.27467 347.968 4.088 348.821 4.088C349.653 4.088 350.389 4.26933 351.029 4.632C351.669 4.99467 352.16 5.496 352.501 6.136C352.853 6.76533 353.029 7.48 353.029 8.28ZM351.525 7.976C351.525 7.42133 351.402 6.94667 351.157 6.552C350.912 6.14667 350.576 5.84267 350.149 5.64C349.733 5.42667 349.269 5.32 348.757 5.32C348.021 5.32 347.392 5.55467 346.869 6.024C346.357 6.49333 346.064 7.144 345.989 7.976H351.525ZM358.055 13.144C357.383 13.144 356.78 13.032 356.247 12.808C355.713 12.5733 355.292 12.2533 354.983 11.848C354.673 11.432 354.503 10.9573 354.471 10.424H355.975C356.017 10.8613 356.22 11.2187 356.583 11.496C356.956 11.7733 357.441 11.912 358.039 11.912C358.593 11.912 359.031 11.7893 359.351 11.544C359.671 11.2987 359.831 10.9893 359.831 10.616C359.831 10.232 359.66 9.94933 359.319 9.768C358.977 9.576 358.449 9.38933 357.735 9.208C357.084 9.03733 356.551 8.86667 356.135 8.696C355.729 8.51467 355.377 8.25333 355.079 7.912C354.791 7.56 354.647 7.10133 354.647 6.536C354.647 6.088 354.78 5.67733 355.047 5.304C355.313 4.93067 355.692 4.63733 356.183 4.424C356.673 4.2 357.233 4.088 357.863 4.088C358.833 4.088 359.617 4.33333 360.215 4.824C360.812 5.31467 361.132 5.98667 361.175 6.84H359.719C359.687 6.38133 359.5 6.01333 359.159 5.736C358.828 5.45867 358.38 5.32 357.815 5.32C357.292 5.32 356.876 5.432 356.567 5.656C356.257 5.88 356.103 6.17333 356.103 6.536C356.103 6.824 356.193 7.064 356.375 7.256C356.567 7.43733 356.801 7.58667 357.079 7.704C357.367 7.81067 357.761 7.93333 358.263 8.072C358.892 8.24267 359.404 8.41333 359.799 8.584C360.193 8.744 360.529 8.98933 360.807 9.32C361.095 9.65067 361.244 10.0827 361.255 10.616C361.255 11.096 361.121 11.528 360.855 11.912C360.588 12.296 360.209 12.6 359.719 12.824C359.239 13.0373 358.684 13.144 358.055 13.144ZM366.414 13.144C365.742 13.144 365.139 13.032 364.606 12.808C364.073 12.5733 363.651 12.2533 363.342 11.848C363.033 11.432 362.862 10.9573 362.83 10.424H364.334C364.377 10.8613 364.579 11.2187 364.942 11.496C365.315 11.7733 365.801 11.912 366.398 11.912C366.953 11.912 367.39 11.7893 367.71 11.544C368.03 11.2987 368.19 10.9893 368.19 10.616C368.19 10.232 368.019 9.94933 367.678 9.768C367.337 9.576 366.809 9.38933 366.094 9.208C365.443 9.03733 364.91 8.86667 364.494 8.696C364.089 8.51467 363.737 8.25333 363.438 7.912C363.15 7.56 363.006 7.10133 363.006 6.536C363.006 6.088 363.139 5.67733 363.406 5.304C363.673 4.93067 364.051 4.63733 364.542 4.424C365.033 4.2 365.593 4.088 366.222 4.088C367.193 4.088 367.977 4.33333 368.574 4.824C369.171 5.31467 369.491 5.98667 369.534 6.84H368.078C368.046 6.38133 367.859 6.01333 367.518 5.736C367.187 5.45867 366.739 5.32 366.174 5.32C365.651 5.32 365.235 5.432 364.926 5.656C364.617 5.88 364.462 6.17333 364.462 6.536C364.462 6.824 364.553 7.064 364.734 7.256C364.926 7.43733 365.161 7.58667 365.438 7.704C365.726 7.81067 366.121 7.93333 366.622 8.072C367.251 8.24267 367.763 8.41333 368.158 8.584C368.553 8.744 368.889 8.98933 369.166 9.32C369.454 9.65067 369.603 10.0827 369.614 10.616C369.614 11.096 369.481 11.528 369.214 11.912C368.947 12.296 368.569 12.6 368.078 12.824C367.598 13.0373 367.043 13.144 366.414 13.144ZM377.711 5.432V10.6C377.711 11.0267 377.802 11.3307 377.983 11.512C378.164 11.6827 378.479 11.768 378.927 11.768H379.999V13H378.687C377.876 13 377.268 12.8133 376.863 12.44C376.458 12.0667 376.255 11.4533 376.255 10.6V5.432H375.119V4.232H376.255V2.024H377.711V4.232H379.999V5.432H377.711ZM385.587 13.144C384.766 13.144 384.019 12.9573 383.347 12.584C382.686 12.2107 382.163 11.6827 381.779 11C381.406 10.3067 381.219 9.50667 381.219 8.6C381.219 7.704 381.411 6.91467 381.795 6.232C382.19 5.53867 382.723 5.01067 383.395 4.648C384.067 4.27467 384.819 4.088 385.651 4.088C386.483 4.088 387.235 4.27467 387.907 4.648C388.579 5.01067 389.107 5.53333 389.491 6.216C389.886 6.89867 390.083 7.69333 390.083 8.6C390.083 9.50667 389.881 10.3067 389.475 11C389.081 11.6827 388.542 12.2107 387.859 12.584C387.177 12.9573 386.419 13.144 385.587 13.144ZM385.587 11.864C386.11 11.864 386.601 11.7413 387.059 11.496C387.518 11.2507 387.886 10.8827 388.163 10.392C388.451 9.90133 388.595 9.304 388.595 8.6C388.595 7.896 388.457 7.29867 388.179 6.808C387.902 6.31733 387.539 5.95467 387.091 5.72C386.643 5.47467 386.158 5.352 385.635 5.352C385.102 5.352 384.611 5.47467 384.163 5.72C383.726 5.95467 383.374 6.31733 383.107 6.808C382.841 7.29867 382.707 7.896 382.707 8.6C382.707 9.31467 382.835 9.91733 383.091 10.408C383.358 10.8987 383.71 11.2667 384.147 11.512C384.585 11.7467 385.065 11.864 385.587 11.864ZM395.614 4.088C396.371 4.088 397.032 4.25333 397.598 4.584C398.174 4.91467 398.6 5.33067 398.878 5.832V4.232H400.35V13.192C400.35 13.992 400.179 14.7013 399.838 15.32C399.496 15.9493 399.006 16.44 398.366 16.792C397.736 17.144 397 17.32 396.158 17.32C395.006 17.32 394.046 17.048 393.278 16.504C392.51 15.96 392.056 15.2187 391.918 14.28H393.358C393.518 14.8133 393.848 15.24 394.35 15.56C394.851 15.8907 395.454 16.056 396.158 16.056C396.958 16.056 397.608 15.8053 398.11 15.304C398.622 14.8027 398.878 14.0987 398.878 13.192V11.352C398.59 11.864 398.163 12.2907 397.598 12.632C397.032 12.9733 396.371 13.144 395.614 13.144C394.835 13.144 394.126 12.952 393.486 12.568C392.856 12.184 392.36 11.6453 391.998 10.952C391.635 10.2587 391.454 9.46933 391.454 8.584C391.454 7.688 391.635 6.904 391.998 6.232C392.36 5.54933 392.856 5.02133 393.486 4.648C394.126 4.27467 394.835 4.088 395.614 4.088ZM398.878 8.6C398.878 7.93867 398.744 7.36267 398.478 6.872C398.211 6.38133 397.848 6.008 397.39 5.752C396.942 5.48533 396.446 5.352 395.902 5.352C395.358 5.352 394.862 5.48 394.414 5.736C393.966 5.992 393.608 6.36533 393.342 6.856C393.075 7.34667 392.942 7.92267 392.942 8.584C392.942 9.256 393.075 9.84267 393.342 10.344C393.608 10.8347 393.966 11.2133 394.414 11.48C394.862 11.736 395.358 11.864 395.902 11.864C396.446 11.864 396.942 11.736 397.39 11.48C397.848 11.2133 398.211 10.8347 398.478 10.344C398.744 9.84267 398.878 9.26133 398.878 8.6ZM410.81 8.28C410.81 8.55733 410.794 8.85067 410.762 9.16H403.754C403.807 10.024 404.101 10.7013 404.634 11.192C405.178 11.672 405.834 11.912 406.602 11.912C407.231 11.912 407.754 11.768 408.17 11.48C408.597 11.1813 408.895 10.7867 409.066 10.296H410.634C410.399 11.1387 409.93 11.8267 409.226 12.36C408.522 12.8827 407.647 13.144 406.602 13.144C405.77 13.144 405.023 12.9573 404.362 12.584C403.711 12.2107 403.199 11.6827 402.826 11C402.453 10.3067 402.266 9.50667 402.266 8.6C402.266 7.69333 402.447 6.89867 402.81 6.216C403.173 5.53333 403.679 5.01067 404.33 4.648C404.991 4.27467 405.749 4.088 406.602 4.088C407.434 4.088 408.17 4.26933 408.81 4.632C409.45 4.99467 409.941 5.496 410.282 6.136C410.634 6.76533 410.81 7.48 410.81 8.28ZM409.306 7.976C409.306 7.42133 409.183 6.94667 408.938 6.552C408.693 6.14667 408.357 5.84267 407.93 5.64C407.514 5.42667 407.05 5.32 406.538 5.32C405.802 5.32 405.173 5.55467 404.65 6.024C404.138 6.49333 403.845 7.144 403.77 7.976H409.306ZM414.508 5.432V10.6C414.508 11.0267 414.599 11.3307 414.78 11.512C414.961 11.6827 415.276 11.768 415.724 11.768H416.796V13H415.484C414.673 13 414.065 12.8133 413.66 12.44C413.255 12.0667 413.052 11.4533 413.052 10.6V5.432H411.916V4.232H413.052V2.024H414.508V4.232H416.796V5.432H414.508ZM422.912 4.072C423.573 4.072 424.171 4.216 424.704 4.504C425.237 4.78133 425.653 5.20267 425.952 5.768C426.261 6.33333 426.416 7.02133 426.416 7.832V13H424.976V8.04C424.976 7.16533 424.757 6.49867 424.32 6.04C423.883 5.57067 423.285 5.336 422.528 5.336C421.76 5.336 421.147 5.576 420.688 6.056C420.24 6.536 420.016 7.23467 420.016 8.152V13H418.56V1.16H420.016V5.48C420.304 5.032 420.699 4.68533 421.2 4.44C421.712 4.19467 422.283 4.072 422.912 4.072ZM436.795 8.28C436.795 8.55733 436.779 8.85067 436.747 9.16H429.739C429.792 10.024 430.085 10.7013 430.619 11.192C431.163 11.672 431.819 11.912 432.587 11.912C433.216 11.912 433.739 11.768 434.155 11.48C434.581 11.1813 434.88 10.7867 435.051 10.296H436.619C436.384 11.1387 435.915 11.8267 435.211 12.36C434.507 12.8827 433.632 13.144 432.587 13.144C431.755 13.144 431.008 12.9573 430.347 12.584C429.696 12.2107 429.184 11.6827 428.811 11C428.437 10.3067 428.251 9.50667 428.251 8.6C428.251 7.69333 428.432 6.89867 428.795 6.216C429.157 5.53333 429.664 5.01067 430.315 4.648C430.976 4.27467 431.733 4.088 432.587 4.088C433.419 4.088 434.155 4.26933 434.795 4.632C435.435 4.99467 435.925 5.496 436.267 6.136C436.619 6.76533 436.795 7.48 436.795 8.28ZM435.291 7.976C435.291 7.42133 435.168 6.94667 434.923 6.552C434.677 6.14667 434.341 5.84267 433.915 5.64C433.499 5.42667 433.035 5.32 432.523 5.32C431.787 5.32 431.157 5.55467 430.635 6.024C430.123 6.49333 429.829 7.144 429.755 7.976H435.291ZM440.172 5.656C440.428 5.15467 440.791 4.76533 441.26 4.488C441.74 4.21067 442.322 4.072 443.004 4.072V5.576H442.62C440.988 5.576 440.172 6.46133 440.172 8.232V13H438.716V4.232H440.172V5.656ZM460.631 4.232L457.895 13H456.391L454.279 6.04L452.167 13H450.663L447.911 4.232H449.399L451.415 11.592L453.591 4.232H455.079L457.207 11.608L459.191 4.232H460.631ZM462.828 2.808C462.55 2.808 462.316 2.712 462.124 2.52C461.932 2.328 461.836 2.09333 461.836 1.816C461.836 1.53867 461.932 1.304 462.124 1.112C462.316 0.919999 462.55 0.823999 462.828 0.823999C463.094 0.823999 463.318 0.919999 463.5 1.112C463.692 1.304 463.788 1.53867 463.788 1.816C463.788 2.09333 463.692 2.328 463.5 2.52C463.318 2.712 463.094 2.808 462.828 2.808ZM463.532 4.232V13H462.076V4.232H463.532ZM467.789 5.432V10.6C467.789 11.0267 467.88 11.3307 468.061 11.512C468.243 11.6827 468.557 11.768 469.005 11.768H470.077V13H468.765C467.955 13 467.347 12.8133 466.941 12.44C466.536 12.0667 466.333 11.4533 466.333 10.6V5.432H465.197V4.232H466.333V2.024H467.789V4.232H470.077V5.432H467.789ZM476.193 4.072C476.855 4.072 477.452 4.216 477.985 4.504C478.519 4.78133 478.935 5.20267 479.233 5.768C479.543 6.33333 479.697 7.02133 479.697 7.832V13H478.257V8.04C478.257 7.16533 478.039 6.49867 477.601 6.04C477.164 5.57067 476.567 5.336 475.809 5.336C475.041 5.336 474.428 5.576 473.969 6.056C473.521 6.536 473.297 7.23467 473.297 8.152V13H471.841V1.16H473.297V5.48C473.585 5.032 473.98 4.68533 474.481 4.44C474.993 4.19467 475.564 4.072 476.193 4.072ZM489.877 13.112C489.141 13.112 488.48 12.984 487.893 12.728C487.317 12.4613 486.864 12.0987 486.533 11.64C486.203 11.1707 486.032 10.632 486.021 10.024H487.573C487.627 10.5467 487.84 10.9893 488.213 11.352C488.597 11.704 489.152 11.88 489.877 11.88C490.571 11.88 491.115 11.7093 491.509 11.368C491.915 11.016 492.117 10.568 492.117 10.024C492.117 9.59733 492 9.25067 491.765 8.984C491.531 8.71733 491.237 8.51467 490.885 8.376C490.533 8.23733 490.059 8.088 489.461 7.928C488.725 7.736 488.133 7.544 487.685 7.352C487.248 7.16 486.869 6.86133 486.549 6.456C486.24 6.04 486.085 5.48533 486.085 4.792C486.085 4.184 486.24 3.64533 486.549 3.176C486.859 2.70667 487.291 2.344 487.845 2.088C488.411 1.832 489.056 1.704 489.781 1.704C490.827 1.704 491.68 1.96533 492.341 2.488C493.013 3.01067 493.392 3.704 493.477 4.568H491.877C491.824 4.14133 491.6 3.768 491.205 3.448C490.811 3.11733 490.288 2.952 489.637 2.952C489.029 2.952 488.533 3.112 488.149 3.432C487.765 3.74133 487.573 4.17867 487.573 4.744C487.573 5.14933 487.685 5.48 487.909 5.736C488.144 5.992 488.427 6.18933 488.757 6.328C489.099 6.456 489.573 6.60533 490.181 6.776C490.917 6.97867 491.509 7.18133 491.957 7.384C492.405 7.576 492.789 7.88 493.109 8.296C493.429 8.70133 493.589 9.256 493.589 9.96C493.589 10.504 493.445 11.016 493.157 11.496C492.869 11.976 492.443 12.3653 491.877 12.664C491.312 12.9627 490.645 13.112 489.877 13.112ZM500.084 4.072C500.745 4.072 501.343 4.216 501.876 4.504C502.409 4.78133 502.825 5.20267 503.124 5.768C503.433 6.33333 503.588 7.02133 503.588 7.832V13H502.148V8.04C502.148 7.16533 501.929 6.49867 501.492 6.04C501.055 5.57067 500.457 5.336 499.7 5.336C498.932 5.336 498.319 5.576 497.86 6.056C497.412 6.536 497.188 7.23467 497.188 8.152V13H495.732V1.16H497.188V5.48C497.476 5.032 497.871 4.68533 498.372 4.44C498.884 4.19467 499.455 4.072 500.084 4.072ZM505.422 8.584C505.422 7.688 505.604 6.904 505.966 6.232C506.329 5.54933 506.825 5.02133 507.454 4.648C508.094 4.27467 508.804 4.088 509.582 4.088C510.35 4.088 511.017 4.25333 511.582 4.584C512.148 4.91467 512.569 5.33067 512.846 5.832V4.232H514.318V13H512.846V11.368C512.558 11.88 512.126 12.3067 511.55 12.648C510.985 12.9787 510.324 13.144 509.566 13.144C508.788 13.144 508.084 12.952 507.454 12.568C506.825 12.184 506.329 11.6453 505.966 10.952C505.604 10.2587 505.422 9.46933 505.422 8.584ZM512.846 8.6C512.846 7.93867 512.713 7.36267 512.446 6.872C512.18 6.38133 511.817 6.008 511.358 5.752C510.91 5.48533 510.414 5.352 509.87 5.352C509.326 5.352 508.83 5.48 508.382 5.736C507.934 5.992 507.577 6.36533 507.31 6.856C507.044 7.34667 506.91 7.92267 506.91 8.584C506.91 9.256 507.044 9.84267 507.31 10.344C507.577 10.8347 507.934 11.2133 508.382 11.48C508.83 11.736 509.326 11.864 509.87 11.864C510.414 11.864 510.91 11.736 511.358 11.48C511.817 11.2133 512.18 10.8347 512.446 10.344C512.713 9.84267 512.846 9.26133 512.846 8.6ZM516.235 8.584C516.235 7.688 516.416 6.904 516.779 6.232C517.142 5.54933 517.638 5.02133 518.267 4.648C518.907 4.27467 519.622 4.088 520.411 4.088C521.094 4.088 521.728 4.248 522.315 4.568C522.902 4.87733 523.35 5.288 523.659 5.8V1.16H525.131V13H523.659V11.352C523.371 11.8747 522.944 12.3067 522.379 12.648C521.814 12.9787 521.152 13.144 520.395 13.144C519.616 13.144 518.907 12.952 518.267 12.568C517.638 12.184 517.142 11.6453 516.779 10.952C516.416 10.2587 516.235 9.46933 516.235 8.584ZM523.659 8.6C523.659 7.93867 523.526 7.36267 523.259 6.872C522.992 6.38133 522.63 6.008 522.171 5.752C521.723 5.48533 521.227 5.352 520.683 5.352C520.139 5.352 519.643 5.48 519.195 5.736C518.747 5.992 518.39 6.36533 518.123 6.856C517.856 7.34667 517.723 7.92267 517.723 8.584C517.723 9.256 517.856 9.84267 518.123 10.344C518.39 10.8347 518.747 11.2133 519.195 11.48C519.643 11.736 520.139 11.864 520.683 11.864C521.227 11.864 521.723 11.736 522.171 11.48C522.63 11.2133 522.992 10.8347 523.259 10.344C523.526 9.84267 523.659 9.26133 523.659 8.6ZM528.343 2.808C528.066 2.808 527.831 2.712 527.639 2.52C527.447 2.328 527.351 2.09333 527.351 1.816C527.351 1.53867 527.447 1.304 527.639 1.112C527.831 0.919999 528.066 0.823999 528.343 0.823999C528.61 0.823999 528.834 0.919999 529.015 1.112C529.207 1.304 529.303 1.53867 529.303 1.816C529.303 2.09333 529.207 2.328 529.015 2.52C528.834 2.712 528.61 2.808 528.343 2.808ZM529.047 4.232V13H527.591V4.232H529.047ZM547.107 1.928V13H545.651V4.744L541.971 13H540.947L537.251 4.728V13H535.795V1.928H537.363L541.459 11.08L545.555 1.928H547.107ZM557.352 4.232V13H555.896V11.704C555.618 12.152 555.229 12.504 554.728 12.76C554.237 13.0053 553.693 13.128 553.096 13.128C552.413 13.128 551.8 12.9893 551.256 12.712C550.712 12.424 550.28 11.9973 549.96 11.432C549.65 10.8667 549.496 10.1787 549.496 9.368V4.232H550.936V9.176C550.936 10.04 551.154 10.7067 551.592 11.176C552.029 11.6347 552.626 11.864 553.384 11.864C554.162 11.864 554.776 11.624 555.224 11.144C555.672 10.664 555.896 9.96533 555.896 9.048V4.232H557.352ZM564.162 4.072C564.823 4.072 565.421 4.216 565.954 4.504C566.487 4.78133 566.903 5.20267 567.202 5.768C567.511 6.33333 567.666 7.02133 567.666 7.832V13H566.226V8.04C566.226 7.16533 566.007 6.49867 565.57 6.04C565.133 5.57067 564.535 5.336 563.778 5.336C563.01 5.336 562.397 5.576 561.938 6.056C561.49 6.536 561.266 7.23467 561.266 8.152V13H559.81V1.16H561.266V5.48C561.554 5.032 561.949 4.68533 562.45 4.44C562.962 4.19467 563.533 4.072 564.162 4.072ZM569.501 8.584C569.501 7.688 569.682 6.904 570.045 6.232C570.407 5.54933 570.903 5.02133 571.533 4.648C572.173 4.27467 572.882 4.088 573.661 4.088C574.429 4.088 575.095 4.25333 575.661 4.584C576.226 4.91467 576.647 5.33067 576.925 5.832V4.232H578.397V13H576.925V11.368C576.637 11.88 576.205 12.3067 575.629 12.648C575.063 12.9787 574.402 13.144 573.645 13.144C572.866 13.144 572.162 12.952 571.533 12.568C570.903 12.184 570.407 11.6453 570.045 10.952C569.682 10.2587 569.501 9.46933 569.501 8.584ZM576.925 8.6C576.925 7.93867 576.791 7.36267 576.525 6.872C576.258 6.38133 575.895 6.008 575.437 5.752C574.989 5.48533 574.493 5.352 573.949 5.352C573.405 5.352 572.909 5.48 572.461 5.736C572.013 5.992 571.655 6.36533 571.389 6.856C571.122 7.34667 570.989 7.92267 570.989 8.584C570.989 9.256 571.122 9.84267 571.389 10.344C571.655 10.8347 572.013 11.2133 572.461 11.48C572.909 11.736 573.405 11.864 573.949 11.864C574.493 11.864 574.989 11.736 575.437 11.48C575.895 11.2133 576.258 10.8347 576.525 10.344C576.791 9.84267 576.925 9.26133 576.925 8.6ZM582.313 5.656C582.569 5.15467 582.932 4.76533 583.401 4.488C583.881 4.21067 584.462 4.072 585.145 4.072V5.576H584.761C583.129 5.576 582.313 6.46133 582.313 8.232V13H580.857V4.232H582.313V5.656ZM586.282 8.584C586.282 7.688 586.463 6.904 586.826 6.232C587.188 5.54933 587.684 5.02133 588.314 4.648C588.954 4.27467 589.663 4.088 590.442 4.088C591.21 4.088 591.876 4.25333 592.442 4.584C593.007 4.91467 593.428 5.33067 593.706 5.832V4.232H595.178V13H593.706V11.368C593.418 11.88 592.986 12.3067 592.41 12.648C591.844 12.9787 591.183 13.144 590.426 13.144C589.647 13.144 588.943 12.952 588.314 12.568C587.684 12.184 587.188 11.6453 586.826 10.952C586.463 10.2587 586.282 9.46933 586.282 8.584ZM593.706 8.6C593.706 7.93867 593.572 7.36267 593.306 6.872C593.039 6.38133 592.676 6.008 592.218 5.752C591.77 5.48533 591.274 5.352 590.73 5.352C590.186 5.352 589.69 5.48 589.242 5.736C588.794 5.992 588.436 6.36533 588.17 6.856C587.903 7.34667 587.77 7.92267 587.77 8.584C587.77 9.256 587.903 9.84267 588.17 10.344C588.436 10.8347 588.794 11.2133 589.242 11.48C589.69 11.736 590.186 11.864 590.73 11.864C591.274 11.864 591.77 11.736 592.218 11.48C592.676 11.2133 593.039 10.8347 593.306 10.344C593.572 9.84267 593.706 9.26133 593.706 8.6ZM599.414 5.432V10.6C599.414 11.0267 599.505 11.3307 599.686 11.512C599.868 11.6827 600.182 11.768 600.63 11.768H601.702V13H600.39C599.58 13 598.972 12.8133 598.566 12.44C598.161 12.0667 597.958 11.4533 597.958 10.6V5.432H596.822V4.232H597.958V2.024H599.414V4.232H601.702V5.432H599.414ZM607.818 4.072C608.48 4.072 609.077 4.216 609.61 4.504C610.144 4.78133 610.56 5.20267 610.858 5.768C611.168 6.33333 611.322 7.02133 611.322 7.832V13H609.882V8.04C609.882 7.16533 609.664 6.49867 609.226 6.04C608.789 5.57067 608.192 5.336 607.434 5.336C606.666 5.336 606.053 5.576 605.594 6.056C605.146 6.536 604.922 7.23467 604.922 8.152V13H603.466V1.16H604.922V5.48C605.21 5.032 605.605 4.68533 606.106 4.44C606.618 4.19467 607.189 4.072 607.818 4.072ZM614.165 13.096C613.887 13.096 613.653 13 613.461 12.808C613.269 12.616 613.173 12.3813 613.173 12.104C613.173 11.8267 613.269 11.592 613.461 11.4C613.653 11.208 613.887 11.112 614.165 11.112C614.431 11.112 614.655 11.208 614.837 11.4C615.029 11.592 615.125 11.8267 615.125 12.104C615.125 12.3813 615.029 12.616 614.837 12.808C614.655 13 614.431 13.096 614.165 13.096Z" fill="white"/>
</svg>
