<svg width="16" height="16" viewBox="0 0 16 16" fill="none" xmlns="http://www.w3.org/2000/svg">
<mask id="mask0_990_1574" style="mask-type:luminance" maskUnits="userSpaceOnUse" x="0" y="0" width="16" height="16">
<path d="M12.4774 0.0459405C12.3209 0.0293687 12.1634 0.0254461 12.0063 0.034211C11.7899 0.0167843 11.5728 0.0102596 11.3558 0.0146618H4.38905C4.13828 0.0146618 3.88751 0.0322561 3.63674 0.0381208C2.86958 0.0446991 2.12086 0.273581 1.48166 0.696926C1.00231 1.03252 0.622326 1.49069 0.381596 2.02333C0.173831 2.49604 0.0559126 3.00315 0.033846 3.51884C0.033846 3.6508 0.0113156 3.78373 0.0211114 3.91569C0.00249944 4.86382 0.015234 5.80902 0.00837691 6.75325C0.00445859 7.48634 0.00249943 8.21943 0.00249943 8.95252V9.1226C0.00249943 9.19363 0.00249943 9.26498 0.00249943 9.33666C0.00249943 10.0033 0.00249943 10.6706 0.00249943 11.3385C-0.00893826 11.8771 0.0188899 12.4158 0.0857636 12.9503C0.139593 13.3972 0.281411 13.829 0.503064 14.221C0.511528 14.2369 0.522435 14.2515 0.53539 14.264C0.762148 14.657 1.06711 14.9995 1.4315 15.2705C1.79589 15.5415 2.212 15.7352 2.65422 15.8397C3.14575 15.9311 3.64421 15.9805 4.14416 15.9873C4.55852 15.9873 4.97386 15.9873 5.39018 15.9873C5.86332 15.9873 6.33646 15.9873 6.80665 15.9873L6.81547 15.9785L6.82331 15.9658L6.82918 15.9306C6.82918 15.8172 6.82918 14.9903 6.82918 13.9942C6.82918 13.4488 6.82918 12.8526 6.82918 12.2954C6.82918 11.4157 6.82918 10.625 6.83506 10.2955C6.73843 10.2757 6.63938 10.2705 6.54119 10.2799C6.28454 10.2799 6.02985 10.2799 5.77614 10.2799C5.43132 10.2799 5.09043 10.2799 4.73778 10.2877C4.74461 10.2061 4.74461 10.124 4.73778 10.0424C4.73778 9.68399 4.73778 9.32559 4.73778 8.96719C4.73778 8.64137 4.73778 8.31881 4.73778 7.9995H5.51557C5.94266 7.9995 6.35507 7.9995 6.78216 7.9995C6.79 7.40717 6.79784 6.81385 6.79882 6.22053C6.79583 5.85767 6.84162 5.49605 6.93498 5.14533C7.02714 4.79196 7.18752 4.45994 7.40714 4.16787C7.53388 4.01056 7.67889 3.86881 7.83913 3.74561C8.03675 3.59391 8.25345 3.46871 8.48369 3.3732C8.98787 3.18907 9.52514 3.11249 10.0608 3.14839C10.5853 3.15407 11.1088 3.19358 11.6281 3.26666C11.6281 3.91471 11.5811 4.60284 11.5762 5.2509C11.1844 5.26263 10.7661 5.2724 10.3753 5.2939C10.2086 5.29101 10.0434 5.32624 9.89245 5.3969C9.7415 5.46755 9.60876 5.57175 9.50441 5.7015C9.34218 5.93897 9.25953 6.22162 9.26833 6.50888C9.26833 7.00934 9.26833 7.5098 9.26833 8.01026C9.75812 8.01026 10.2646 8.01026 10.7651 8.01026H11.5939C11.5811 8.0865 11.5018 8.47064 11.4107 8.91049C11.299 9.45005 11.1707 10.0727 11.1305 10.3102H9.26931V10.318C9.26931 10.7859 9.26931 11.2538 9.26931 11.7217C9.26931 12.3127 9.26931 12.9037 9.26931 13.4948C9.26931 14.3034 9.26931 15.1121 9.26931 15.9208C9.26931 15.9374 9.26931 15.9716 9.26931 15.9883C9.55143 15.9951 9.83453 15.9941 10.1166 15.9931C10.2812 15.9931 10.4458 15.9931 10.6064 15.9931C10.7671 15.9931 10.9385 15.9931 11.105 15.9931C11.7659 16.0156 12.4274 15.9829 13.0828 15.8954C13.6363 15.8123 14.16 15.5918 14.6059 15.2541C15.0517 14.9165 15.4054 14.4725 15.6346 13.963C15.8883 13.341 16.0104 12.6735 15.9931 12.0022C15.998 11.6112 16 11.228 16 10.8419V10.7804C16 10.32 16 9.8596 16 9.4002C16 8.94079 16 8.46966 16 8.00439C16 7.34819 16 6.69167 16 6.03482C16 5.34343 15.9964 4.65204 15.9892 3.96065C15.999 3.83945 15.9824 3.71922 15.9794 3.59802C15.9637 2.96343 15.799 2.34138 15.4985 1.7819C15.1019 1.06719 14.4499 0.527928 13.6725 0.271733C13.2924 0.14471 12.8972 0.0684571 12.497 0.044963H12.4843L12.4676 0L12.4774 0.0459405Z" fill="white"/>
</mask>
<g mask="url(#mask0_990_1574)">
<path d="M16.9974 -0.296691L0 0L0.296881 16.9974L17.2943 16.7007L16.9974 -0.296691Z" fill="url(#paint0_linear_990_1574)"/>
</g>
<defs>
<linearGradient id="paint0_linear_990_1574" x1="0.430486" y1="16.8591" x2="0.46448" y2="16.8585" gradientUnits="userSpaceOnUse">
<stop stop-color="#4FA8F7"/>
<stop offset="0.103" stop-color="#25A7F8"/>
<stop offset="0.206" stop-color="#249EF4"/>
<stop offset="0.315" stop-color="#2095F2"/>
<stop offset="0.43" stop-color="#1E8DEE"/>
<stop offset="0.564" stop-color="#1C86EA"/>
<stop offset="0.673" stop-color="#177BE7"/>
<stop offset="0.897" stop-color="#2A64DA"/>
<stop offset="0.988" stop-color="#185BB0"/>
<stop offset="1" stop-color="#185BB0"/>
</linearGradient>
</defs>
</svg>
