<svg width="147" height="48" viewBox="0 0 147 48" fill="none" xmlns="http://www.w3.org/2000/svg">
<rect width="147" height="48" rx="24" fill="white"/>
<rect x="0.5" y="0.5" width="146" height="47" rx="23.5" stroke="#ED1C24" stroke-opacity="0.15"/>
<mask id="mask0_990_1573" style="mask-type:luminance" maskUnits="userSpaceOnUse" x="31" y="16" width="16" height="16">
<path d="M43.4774 16.0459C43.3209 16.0294 43.1634 16.0254 43.0063 16.0342C42.7899 16.0168 42.5728 16.0103 42.3558 16.0147H35.3891C35.1383 16.0147 34.8875 16.0323 34.6367 16.0381C33.8696 16.0447 33.1209 16.2736 32.4817 16.6969C32.0023 17.0325 31.6223 17.4907 31.3816 18.0233C31.1738 18.496 31.0559 19.0031 31.0338 19.5188C31.0338 19.6508 31.0113 19.7837 31.0211 19.9157C31.0025 20.8638 31.0152 21.809 31.0084 22.7532C31.0045 23.4863 31.0025 24.2194 31.0025 24.9525V25.1226C31.0025 25.1936 31.0025 25.265 31.0025 25.3367C31.0025 26.0033 31.0025 26.6706 31.0025 27.3385C30.9911 27.8771 31.0189 28.4158 31.0858 28.9503C31.1396 29.3972 31.2814 29.829 31.5031 30.221C31.5115 30.2369 31.5224 30.2515 31.5354 30.264C31.7621 30.657 32.0671 30.9995 32.4315 31.2705C32.7959 31.5415 33.212 31.7352 33.6542 31.8397C34.1457 31.9311 34.6442 31.9805 35.1442 31.9873C35.5585 31.9873 35.9739 31.9873 36.3902 31.9873C36.8633 31.9873 37.3365 31.9873 37.8067 31.9873L37.8155 31.9785L37.8233 31.9658L37.8292 31.9306C37.8292 31.8172 37.8292 30.9903 37.8292 29.9942C37.8292 29.4488 37.8292 28.8526 37.8292 28.2954C37.8292 27.4157 37.8292 26.625 37.8351 26.2955C37.7384 26.2757 37.6394 26.2705 37.5412 26.2799C37.2845 26.2799 37.0298 26.2799 36.7761 26.2799C36.4313 26.2799 36.0904 26.2799 35.7378 26.2877C35.7446 26.2061 35.7446 26.124 35.7378 26.0424C35.7378 25.684 35.7378 25.3256 35.7378 24.9672C35.7378 24.6414 35.7378 24.3188 35.7378 23.9995H36.5156C36.9427 23.9995 37.3551 23.9995 37.7822 23.9995C37.79 23.4072 37.7978 22.8138 37.7988 22.2205C37.7958 21.8577 37.8416 21.496 37.935 21.1453C38.0271 20.792 38.1875 20.4599 38.4071 20.1679C38.5339 20.0106 38.6789 19.8688 38.8391 19.7456C39.0368 19.5939 39.2535 19.4687 39.4837 19.3732C39.9879 19.1891 40.5251 19.1125 41.0608 19.1484C41.5853 19.1541 42.1088 19.1936 42.6281 19.2667C42.6281 19.9147 42.5811 20.6028 42.5762 21.2509C42.1844 21.2626 41.7661 21.2724 41.3753 21.2939C41.2086 21.291 41.0434 21.3262 40.8924 21.3969C40.7415 21.4675 40.6088 21.5717 40.5044 21.7015C40.3422 21.939 40.2595 22.2216 40.2683 22.5089C40.2683 23.0093 40.2683 23.5098 40.2683 24.0103C40.7581 24.0103 41.2646 24.0103 41.7651 24.0103H42.5939C42.5811 24.0865 42.5018 24.4706 42.4107 24.9105C42.299 25.45 42.1707 26.0727 42.1305 26.3102H40.2693V26.318C40.2693 26.7859 40.2693 27.2538 40.2693 27.7217C40.2693 28.3127 40.2693 28.9037 40.2693 29.4948C40.2693 30.3034 40.2693 31.1121 40.2693 31.9208C40.2693 31.9374 40.2693 31.9716 40.2693 31.9883C40.5514 31.9951 40.8345 31.9941 41.1166 31.9931C41.2812 31.9931 41.4458 31.9931 41.6064 31.9931C41.7671 31.9931 41.9385 31.9931 42.105 31.9931C42.7659 32.0156 43.4274 31.9829 44.0828 31.8954C44.6363 31.8123 45.16 31.5918 45.6059 31.2541C46.0517 30.9165 46.4054 30.4725 46.6346 29.963C46.8883 29.341 47.0104 28.6735 46.9931 28.0022C46.998 27.6112 47 27.228 47 26.8419V26.7804C47 26.32 47 25.8596 47 25.4002C47 24.9408 47 24.4697 47 24.0044C47 23.3482 47 22.6917 47 22.0348C47 21.3434 46.9964 20.652 46.9892 19.9607C46.999 19.8394 46.9824 19.7192 46.9794 19.598C46.9637 18.9634 46.799 18.3414 46.4985 17.7819C46.1019 17.0672 45.4499 16.5279 44.6725 16.2717C44.2924 16.1447 43.8972 16.0685 43.497 16.045H43.4843L43.4676 16L43.4774 16.0459Z" fill="white"/>
</mask>
<g mask="url(#mask0_990_1573)">
<path d="M47.9974 15.7033L31 16L31.2969 32.9974L48.2943 32.7007L47.9974 15.7033Z" fill="url(#paint0_linear_990_1573)"/>
</g>
<path d="M56 28.8626V19.274H57.614V28.8626H56ZM57.1088 24.7532V23.3149H62.1053V24.7532H57.1088ZM57.1088 20.7123V19.274H62.3439V20.7123H57.1088ZM66.3018 28.9996C65.7207 29.0056 65.15 28.8487 64.6576 28.5475C64.1639 28.2464 63.7604 27.8235 63.4877 27.3215C63.198 26.7883 63.0508 26.1923 63.0596 25.5887C63.0498 24.9807 63.197 24.3801 63.4877 23.8422C63.7616 23.3393 64.1648 22.9144 64.6576 22.6094C65.1485 22.3041 65.7197 22.1447 66.3018 22.1505C66.7786 22.1415 67.2499 22.2524 67.6702 22.4724C68.06 22.6793 68.3869 22.9831 68.6175 23.353C68.8539 23.7367 68.9754 24.1774 68.9684 24.625V26.5153C68.9755 26.9621 68.8566 27.4021 68.6246 27.7873C68.3964 28.1592 68.069 28.4636 67.6772 28.6679C67.2551 28.8908 66.7817 29.005 66.3018 28.9996ZM66.5544 27.575C66.8127 27.5847 67.0702 27.5395 67.3089 27.4425C67.5476 27.3456 67.7619 27.1991 67.9368 27.0133C68.2971 26.6186 68.4871 26.1033 68.4672 25.575C68.4746 25.2143 68.3928 24.8572 68.2286 24.534C68.0787 24.2424 67.8476 23.9979 67.5619 23.8286C67.2583 23.655 66.9112 23.5672 66.5594 23.5751C66.2118 23.5682 65.8692 23.6559 65.5699 23.8286C65.2832 23.9988 65.0501 24.2429 64.8962 24.534C64.7258 24.8555 64.6397 25.2131 64.6456 25.575C64.6388 25.9352 64.7232 26.2915 64.8912 26.6122C65.0451 26.9033 65.2782 27.1474 65.5649 27.3176C65.8638 27.4916 66.2065 27.5807 66.5544 27.575ZM68.3669 28.8626V27.0955L68.6336 25.4929L68.3669 23.9039V22.2875H69.9108V28.8626H68.3669ZM74.7228 28.9996C74.0908 29.008 73.468 28.8519 72.9183 28.5475C72.3894 28.255 71.9507 27.8293 71.6481 27.3147C71.3371 26.7857 71.1771 26.1849 71.185 25.575C71.1753 24.9628 71.3353 24.3594 71.6481 23.8286C71.9523 23.3161 72.3911 22.8922 72.9193 22.6006C73.469 22.2962 74.0918 22.1402 74.7238 22.1486C75.2284 22.1444 75.7283 22.2444 76.1905 22.4421C76.637 22.6334 77.033 22.9215 77.3484 23.2845L76.3368 24.2874C76.1461 24.0633 75.9031 23.8871 75.6281 23.7738C75.3422 23.6579 75.0353 23.5997 74.7258 23.6025C74.3694 23.5957 74.0177 23.6833 73.7083 23.8559C73.4181 24.0203 73.1801 24.2597 73.0206 24.5477C72.8508 24.8643 72.7663 25.2178 72.7749 25.575C72.7679 25.9299 72.8524 26.2808 73.0206 26.5956C73.1784 26.8866 73.4166 27.1286 73.7083 27.2941C74.0177 27.4668 74.3694 27.5544 74.7258 27.5476C75.0353 27.5504 75.3422 27.4922 75.6281 27.3763C75.9031 27.263 76.1461 27.0868 76.3368 26.8627L77.3474 27.8626C77.0312 28.226 76.6341 28.5142 76.1865 28.705C75.7253 28.9027 75.2265 29.003 74.7228 28.9996ZM81.4456 28.9996C80.8103 29.009 80.1835 28.8555 79.6281 28.5544C79.0975 28.2647 78.6564 27.8413 78.3509 27.3284C78.0343 26.7963 77.8717 26.1903 77.8807 25.575C77.871 24.9628 78.0311 24.3594 78.3439 23.8286C78.6438 23.3196 79.0751 22.8962 79.595 22.6006C80.1296 22.2977 80.7382 22.1415 81.3564 22.1486C81.9403 22.1375 82.516 22.2845 83.0196 22.5732C83.4992 22.8541 83.8921 23.2564 84.1564 23.7376C84.4387 24.2558 84.5812 24.8356 84.5704 25.4224C84.5703 25.5346 84.5632 25.6467 84.5494 25.758C84.5353 25.8722 84.5143 25.9977 84.4862 26.1347H78.9614V24.9019H83.6912L83.1158 25.3911C83.1095 25.0407 83.0283 24.6954 82.8772 24.3774C82.7458 24.1134 82.5362 23.8939 82.2757 23.7473C81.9855 23.5933 81.6585 23.5176 81.3283 23.5282C80.9704 23.5196 80.6166 23.6047 80.3038 23.7747C80.0156 23.9372 79.7817 24.1774 79.6301 24.4665C79.4631 24.7988 79.3822 25.166 79.3945 25.5359C79.3877 25.9096 79.4751 26.2792 79.6491 26.6122C79.8102 26.9153 80.0591 27.1654 80.3649 27.3313C80.6919 27.5047 81.0595 27.592 81.4316 27.5847C81.7609 27.5879 82.0877 27.5274 82.393 27.4067C82.6813 27.2924 82.9383 27.1142 83.1439 26.8861L84.1263 27.8587C83.8032 28.23 83.3943 28.5211 82.9333 28.708C82.4625 28.9017 81.9566 29.0009 81.4456 28.9996ZM89.4196 28.9996C88.9405 29.008 88.4671 28.8972 88.0441 28.6776C87.6523 28.4734 87.3249 28.169 87.0967 27.7971C86.8647 27.4119 86.7458 26.9718 86.7529 26.5251V24.6299C86.7459 24.1822 86.8674 23.7416 87.1038 23.3579C87.336 22.9868 87.6655 22.6829 88.0581 22.4773C88.4761 22.2572 88.9447 22.1447 89.4196 22.1505C90.0033 22.1437 90.5764 22.3032 91.0687 22.6094C91.5571 22.916 91.956 23.3407 92.2266 23.8422C92.5173 24.3801 92.6645 24.9807 92.6546 25.5887C92.6635 26.1923 92.5163 26.7883 92.2266 27.3215C91.9567 27.8223 91.5567 28.2451 91.0667 28.5475C90.5734 28.8493 90.0016 29.0062 89.4196 28.9996ZM89.1669 27.575C89.5145 27.5819 89.8571 27.4941 90.1564 27.3215C90.4431 27.1513 90.6762 26.9072 90.8301 26.6161C90.9981 26.294 91.0818 25.9364 91.0737 25.575C91.0812 25.2136 90.9968 24.8559 90.8281 24.534C90.6742 24.2429 90.4411 23.9988 90.1544 23.8286C89.8551 23.6559 89.5125 23.5682 89.1649 23.5751C88.8152 23.5687 88.4704 23.6564 88.1684 23.8286C87.8796 23.9962 87.6458 24.241 87.4947 24.534C87.3305 24.8572 87.2487 25.2143 87.2561 25.575C87.2493 25.9344 87.3312 26.2901 87.4947 26.6122C87.6458 26.9052 87.8796 27.1499 88.1684 27.3176C88.47 27.4912 88.8148 27.5802 89.1649 27.575H89.1669ZM85.8105 28.8626V19H87.3544V23.9039L87.0877 25.4929L87.3544 27.0955V28.8626H85.8105ZM97.0386 28.9996C96.4128 29.0071 95.7967 28.8485 95.2561 28.5407C94.7294 28.2406 94.2917 27.8121 93.986 27.2971C93.6706 26.7695 93.5081 26.1682 93.5158 25.5574C93.5069 24.9509 93.6695 24.3536 93.986 23.8315C94.2955 23.3239 94.7327 22.9019 95.2561 22.6055C95.7971 22.2991 96.4132 22.1418 97.0386 22.1505C97.6681 22.1417 98.2885 22.2978 98.8351 22.6026C99.3606 22.8964 99.7984 23.319 100.105 23.8286C100.421 24.3534 100.584 24.9527 100.575 25.5613C100.582 26.1708 100.42 26.7707 100.105 27.2971C99.7995 27.8121 99.3618 28.2406 98.8351 28.5407C98.2899 28.8497 97.669 29.0083 97.0386 28.9996ZM97.0386 27.5476C97.3947 27.5553 97.7464 27.4687 98.0561 27.2971C98.349 27.13 98.5875 26.8854 98.7439 26.5916C98.9115 26.2743 98.9959 25.9213 98.9895 25.5643C98.9971 25.2107 98.91 24.8613 98.7368 24.5506C98.5746 24.2646 98.3372 24.0258 98.0491 23.8589C97.7427 23.6846 97.3932 23.5959 97.0386 23.6025C96.6871 23.597 96.3406 23.6846 96.0361 23.8559C95.7459 24.0203 95.5079 24.2597 95.3484 24.5477C95.1797 24.8598 95.0952 25.2086 95.1028 25.5613C95.0963 25.9184 95.1807 26.2713 95.3484 26.5887C95.5043 26.8836 95.7428 27.1292 96.0361 27.2971C96.3409 27.4675 96.6874 27.554 97.0386 27.5476ZM104.94 28.9996C104.313 29.0078 103.696 28.8492 103.154 28.5407C102.629 28.2401 102.192 27.8116 101.888 27.2971C101.572 26.7695 101.41 26.1682 101.418 25.5574C101.409 24.9509 101.571 24.3536 101.888 23.8315C102.197 23.3258 102.632 22.9053 103.154 22.6094C103.694 22.3016 104.311 22.143 104.936 22.1505C105.566 22.1417 106.186 22.2978 106.733 22.6026C107.258 22.8964 107.696 23.319 108.003 23.8286C108.319 24.3534 108.481 24.9527 108.473 25.5613C108.481 26.1704 108.32 26.7703 108.007 27.2971C107.701 27.8121 107.264 28.2406 106.737 28.5407C106.192 28.8497 105.571 29.0083 104.94 28.9996ZM104.94 27.5476C105.298 27.5558 105.65 27.4693 105.961 27.2971C106.254 27.13 106.492 26.8854 106.649 26.5916C106.816 26.2743 106.901 25.9213 106.894 25.5643C106.902 25.2107 106.815 24.8613 106.642 24.5506C106.479 24.2646 106.242 24.0258 105.954 23.8589C105.647 23.6856 105.298 23.598 104.943 23.6055C104.592 23.5999 104.245 23.6875 103.941 23.8589C103.651 24.0232 103.413 24.2626 103.253 24.5506C103.084 24.8627 103 25.2115 103.008 25.5643C103.001 25.9213 103.085 26.2743 103.253 26.5916C103.41 26.8854 103.648 27.13 103.941 27.2971C104.245 27.4669 104.59 27.5535 104.94 27.5476ZM114.035 28.8626L111.186 25.5066L114.021 22.2875H115.86L112.604 25.9077L112.674 25.0447L116 28.8626H114.035ZM109.754 28.8626V19H111.298V28.8626H109.754Z" fill="black"/>
<defs>
<linearGradient id="paint0_linear_990_1573" x1="31.4305" y1="32.8591" x2="31.4645" y2="32.8585" gradientUnits="userSpaceOnUse">
<stop stop-color="#4FA8F7"/>
<stop offset="0.103" stop-color="#25A7F8"/>
<stop offset="0.206" stop-color="#249EF4"/>
<stop offset="0.315" stop-color="#2095F2"/>
<stop offset="0.43" stop-color="#1E8DEE"/>
<stop offset="0.564" stop-color="#1C86EA"/>
<stop offset="0.673" stop-color="#177BE7"/>
<stop offset="0.897" stop-color="#2A64DA"/>
<stop offset="0.988" stop-color="#185BB0"/>
<stop offset="1" stop-color="#185BB0"/>
</linearGradient>
</defs>
</svg>
