<svg width="131" height="53" viewBox="0 0 131 53" fill="none" xmlns="http://www.w3.org/2000/svg">
<rect width="131" height="53" rx="26.5" fill="url(#paint0_linear_990_923)"/>
<path d="M27.1412 30.528H30.9012V32H25.3172V20.88H27.1412V30.528ZM36.2506 32.144C35.4186 32.144 34.6666 31.9573 33.9946 31.584C33.3226 31.2 32.7946 30.6667 32.4106 29.984C32.0266 29.2907 31.8346 28.4907 31.8346 27.584C31.8346 26.688 32.0319 25.8933 32.4266 25.2C32.8212 24.5067 33.3599 23.9733 34.0426 23.6C34.7252 23.2267 35.4879 23.04 36.3306 23.04C37.1732 23.04 37.9359 23.2267 38.6186 23.6C39.3012 23.9733 39.8399 24.5067 40.2346 25.2C40.6292 25.8933 40.8266 26.688 40.8266 27.584C40.8266 28.48 40.6239 29.2747 40.2186 29.968C39.8132 30.6613 39.2586 31.2 38.5546 31.584C37.8612 31.9573 37.0932 32.144 36.2506 32.144ZM36.2506 30.56C36.7199 30.56 37.1572 30.448 37.5626 30.224C37.9786 30 38.3146 29.664 38.5706 29.216C38.8266 28.768 38.9546 28.224 38.9546 27.584C38.9546 26.944 38.8319 26.4053 38.5866 25.968C38.3412 25.52 38.0159 25.184 37.6106 24.96C37.2052 24.736 36.7679 24.624 36.2986 24.624C35.8292 24.624 35.3919 24.736 34.9866 24.96C34.5919 25.184 34.2772 25.52 34.0426 25.968C33.8079 26.4053 33.6906 26.944 33.6906 27.584C33.6906 28.5333 33.9306 29.2693 34.4106 29.792C34.9012 30.304 35.5146 30.56 36.2506 30.56ZM46.1817 23.04C46.8644 23.04 47.467 23.1787 47.9897 23.456C48.523 23.7227 48.939 24.0587 49.2377 24.464V23.184H51.0777V32.144C51.0777 32.9547 50.907 33.6747 50.5657 34.304C50.2244 34.944 49.7284 35.4453 49.0777 35.808C48.4377 36.1707 47.6697 36.352 46.7737 36.352C45.579 36.352 44.587 36.0693 43.7977 35.504C43.0084 34.9493 42.5604 34.192 42.4537 33.232H44.2617C44.4004 33.6907 44.6937 34.0587 45.1417 34.336C45.6004 34.624 46.1444 34.768 46.7737 34.768C47.5097 34.768 48.1017 34.544 48.5497 34.096C49.0084 33.648 49.2377 32.9973 49.2377 32.144V30.672C48.9284 31.088 48.507 31.44 47.9737 31.728C47.451 32.0053 46.8537 32.144 46.1817 32.144C45.4137 32.144 44.7097 31.952 44.0697 31.568C43.4404 31.1733 42.939 30.6293 42.5657 29.936C42.203 29.232 42.0217 28.4373 42.0217 27.552C42.0217 26.6667 42.203 25.8827 42.5657 25.2C42.939 24.5173 43.4404 23.9893 44.0697 23.616C44.7097 23.232 45.4137 23.04 46.1817 23.04ZM49.2377 27.584C49.2377 26.976 49.1097 26.448 48.8537 26C48.6084 25.552 48.283 25.2107 47.8777 24.976C47.4724 24.7413 47.035 24.624 46.5657 24.624C46.0964 24.624 45.659 24.7413 45.2537 24.976C44.8484 25.2 44.5177 25.536 44.2617 25.984C44.0164 26.4213 43.8937 26.944 43.8937 27.552C43.8937 28.16 44.0164 28.6933 44.2617 29.152C44.5177 29.6107 44.8484 29.9627 45.2537 30.208C45.6697 30.4427 46.107 30.56 46.5657 30.56C47.035 30.56 47.4724 30.4427 47.8777 30.208C48.283 29.9733 48.6084 29.632 48.8537 29.184C49.1097 28.7253 49.2377 28.192 49.2377 27.584ZM54.4014 22.016C54.0708 22.016 53.7934 21.904 53.5694 21.68C53.3454 21.456 53.2334 21.1787 53.2334 20.848C53.2334 20.5173 53.3454 20.24 53.5694 20.016C53.7934 19.792 54.0708 19.68 54.4014 19.68C54.7214 19.68 54.9934 19.792 55.2174 20.016C55.4414 20.24 55.5534 20.5173 55.5534 20.848C55.5534 21.1787 55.4414 21.456 55.2174 21.68C54.9934 21.904 54.7214 22.016 54.4014 22.016ZM55.2974 23.184V32H53.4734V23.184H55.2974ZM62.1402 23.04C62.8335 23.04 63.4522 23.184 63.9962 23.472C64.5509 23.76 64.9829 24.1867 65.2922 24.752C65.6015 25.3173 65.7562 26 65.7562 26.8V32H63.9482V27.072C63.9482 26.2827 63.7509 25.68 63.3562 25.264C62.9615 24.8373 62.4229 24.624 61.7402 24.624C61.0575 24.624 60.5135 24.8373 60.1082 25.264C59.7135 25.68 59.5162 26.2827 59.5162 27.072V32H57.6922V23.184H59.5162V24.192C59.8149 23.8293 60.1935 23.5467 60.6522 23.344C61.1215 23.1413 61.6175 23.04 62.1402 23.04Z" fill="white"/>
<path d="M102.001 23.5L95.0376 30.4632L88.0744 23.5" stroke="white"/>
<defs>
<linearGradient id="paint0_linear_990_923" x1="3.57083e-07" y1="26.5" x2="85.1612" y2="56.8595" gradientUnits="userSpaceOnUse">
<stop stop-color="#F05A8E"/>
<stop offset="1" stop-color="#ED1C24"/>
</linearGradient>
</defs>
</svg>
