<svg width="377" height="50" viewBox="0 0 377 50" fill="none" xmlns="http://www.w3.org/2000/svg">
<g filter="url(#filter0_d_990_863)">
<rect x="4" y="3" width="369" height="42" rx="21" fill="white" shape-rendering="crispEdges"/>
<path d="M27.5636 29.098C26.9196 29.098 26.3503 28.986 25.8556 28.762C25.3703 28.538 24.9876 28.2253 24.7076 27.824C24.4276 27.4227 24.2783 26.9747 24.2596 26.48H25.2956C25.3423 26.956 25.5523 27.376 25.9256 27.74C26.2989 28.0947 26.8449 28.272 27.5636 28.272C28.2263 28.272 28.7489 28.104 29.1316 27.768C29.5236 27.4227 29.7196 26.9887 29.7196 26.466C29.7196 26.046 29.6123 25.71 29.3976 25.458C29.1829 25.1967 28.9169 25.0053 28.5996 24.884C28.2823 24.7533 27.8436 24.6133 27.2836 24.464C26.6303 24.2867 26.1123 24.114 25.7296 23.946C25.3469 23.778 25.0203 23.5167 24.7496 23.162C24.4789 22.8073 24.3436 22.3267 24.3436 21.72C24.3436 21.216 24.4743 20.768 24.7356 20.376C24.9969 19.9747 25.3656 19.662 25.8416 19.438C26.3176 19.214 26.8636 19.102 27.4796 19.102C28.3849 19.102 29.1129 19.326 29.6636 19.774C30.2236 20.2127 30.5456 20.782 30.6296 21.482H29.5656C29.5003 21.0807 29.2809 20.726 28.9076 20.418C28.5343 20.1007 28.0303 19.942 27.3956 19.942C26.8076 19.942 26.3176 20.1007 25.9256 20.418C25.5336 20.726 25.3376 21.1507 25.3376 21.692C25.3376 22.1027 25.4449 22.434 25.6596 22.686C25.8743 22.938 26.1403 23.1293 26.4576 23.26C26.7843 23.3907 27.2229 23.5307 27.7736 23.68C28.4083 23.8573 28.9216 24.0347 29.3136 24.212C29.7056 24.38 30.0369 24.6413 30.3076 24.996C30.5783 25.3507 30.7136 25.8267 30.7136 26.424C30.7136 26.8813 30.5923 27.3153 30.3496 27.726C30.1069 28.1367 29.7476 28.468 29.2716 28.72C28.7956 28.972 28.2263 29.098 27.5636 29.098ZM39.5233 24.786C39.5233 25.122 39.514 25.3787 39.4953 25.556H33.1533C33.1813 26.1347 33.3213 26.6293 33.5733 27.04C33.8253 27.4507 34.1566 27.7633 34.5673 27.978C34.978 28.1833 35.426 28.286 35.9113 28.286C36.546 28.286 37.078 28.132 37.5073 27.824C37.946 27.516 38.2353 27.1007 38.3753 26.578H39.4113C39.2246 27.3247 38.8233 27.936 38.2073 28.412C37.6006 28.8787 36.8353 29.112 35.9113 29.112C35.1926 29.112 34.5486 28.9533 33.9793 28.636C33.41 28.3093 32.962 27.852 32.6353 27.264C32.318 26.6667 32.1593 25.9713 32.1593 25.178C32.1593 24.3847 32.318 23.6893 32.6353 23.092C32.9526 22.4947 33.396 22.0373 33.9653 21.72C34.5346 21.4027 35.1833 21.244 35.9113 21.244C36.6393 21.244 37.274 21.4027 37.8153 21.72C38.366 22.0373 38.786 22.4667 39.0753 23.008C39.374 23.54 39.5233 24.1327 39.5233 24.786ZM38.5293 24.758C38.5386 24.1887 38.422 23.7033 38.1793 23.302C37.946 22.9007 37.624 22.5973 37.2133 22.392C36.8026 22.1867 36.3546 22.084 35.8693 22.084C35.1413 22.084 34.5206 22.3173 34.0073 22.784C33.494 23.2507 33.2093 23.9087 33.1533 24.758H38.5293ZM40.8683 25.164C40.8683 24.38 41.0223 23.694 41.3303 23.106C41.6476 22.5087 42.0816 22.0513 42.6323 21.734C43.1923 21.4073 43.8223 21.244 44.5223 21.244C45.2503 21.244 45.8756 21.412 46.3983 21.748C46.9303 22.084 47.313 22.5133 47.5463 23.036V21.356H48.5263V29H47.5463V27.306C47.3036 27.8287 46.9163 28.2627 46.3843 28.608C45.8616 28.944 45.2363 29.112 44.5083 29.112C43.8176 29.112 43.1923 28.9487 42.6323 28.622C42.0816 28.2953 41.6476 27.8333 41.3303 27.236C41.0223 26.6387 40.8683 25.948 40.8683 25.164ZM47.5463 25.178C47.5463 24.562 47.4203 24.0207 47.1683 23.554C46.9163 23.0873 46.571 22.728 46.1323 22.476C45.703 22.224 45.227 22.098 44.7043 22.098C44.163 22.098 43.6776 22.2193 43.2483 22.462C42.819 22.7047 42.4783 23.0593 42.2263 23.526C41.9836 23.9833 41.8623 24.5293 41.8623 25.164C41.8623 25.7893 41.9836 26.34 42.2263 26.816C42.4783 27.2827 42.819 27.642 43.2483 27.894C43.6776 28.1367 44.163 28.258 44.7043 28.258C45.227 28.258 45.703 28.132 46.1323 27.88C46.571 27.628 46.9163 27.2687 47.1683 26.802C47.4203 26.3353 47.5463 25.794 47.5463 25.178ZM51.7436 22.714C51.9582 22.238 52.2849 21.8693 52.7236 21.608C53.1716 21.3467 53.7176 21.216 54.3616 21.216V22.238H54.0956C53.3862 22.238 52.8169 22.4293 52.3876 22.812C51.9582 23.1947 51.7436 23.834 51.7436 24.73V29H50.7636V21.356H51.7436V22.714ZM55.3878 25.178C55.3878 24.3847 55.5465 23.694 55.8638 23.106C56.1812 22.5087 56.6198 22.0513 57.1798 21.734C57.7398 21.4073 58.3792 21.244 59.0978 21.244C60.0405 21.244 60.8152 21.4773 61.4218 21.944C62.0378 22.4107 62.4345 23.0453 62.6118 23.848H61.5618C61.4312 23.2973 61.1465 22.868 60.7078 22.56C60.2785 22.2427 59.7418 22.084 59.0978 22.084C58.5845 22.084 58.1225 22.2007 57.7118 22.434C57.3012 22.6673 56.9745 23.0173 56.7318 23.484C56.4985 23.9413 56.3818 24.506 56.3818 25.178C56.3818 25.85 56.4985 26.4193 56.7318 26.886C56.9745 27.3527 57.3012 27.7027 57.7118 27.936C58.1225 28.1693 58.5845 28.286 59.0978 28.286C59.7418 28.286 60.2785 28.132 60.7078 27.824C61.1465 27.5067 61.4312 27.068 61.5618 26.508H62.6118C62.4345 27.292 62.0378 27.922 61.4218 28.398C60.8058 28.874 60.0312 29.112 59.0978 29.112C58.3792 29.112 57.7398 28.9533 57.1798 28.636C56.6198 28.3093 56.1812 27.852 55.8638 27.264C55.5465 26.6667 55.3878 25.9713 55.3878 25.178ZM68.0618 21.216C68.6404 21.216 69.1584 21.3373 69.6158 21.58C70.0824 21.8227 70.4464 22.196 70.7078 22.7C70.9784 23.1947 71.1138 23.8013 71.1138 24.52V29H70.1478V24.632C70.1478 23.8013 69.9378 23.1667 69.5178 22.728C69.1071 22.2893 68.5424 22.07 67.8238 22.07C67.0864 22.07 66.4984 22.3033 66.0598 22.77C65.6211 23.2367 65.4018 23.9227 65.4018 24.828V29H64.4218V18.64H65.4018V22.658C65.6444 22.2007 65.9991 21.846 66.4658 21.594C66.9418 21.342 67.4738 21.216 68.0618 21.216ZM80.7629 21.216C81.3416 21.216 81.8596 21.3373 82.3169 21.58C82.7836 21.8227 83.1476 22.196 83.4089 22.7C83.6796 23.1947 83.8149 23.8013 83.8149 24.52V29H82.8489V24.632C82.8489 23.8013 82.6389 23.1667 82.2189 22.728C81.8083 22.2893 81.2436 22.07 80.5249 22.07C79.7876 22.07 79.1996 22.3033 78.7609 22.77C78.3223 23.2367 78.1029 23.9227 78.1029 24.828V29H77.1229V18.64H78.1029V22.658C78.3456 22.2007 78.7003 21.846 79.1669 21.594C79.6429 21.342 80.1749 21.216 80.7629 21.216ZM92.8983 24.786C92.8983 25.122 92.889 25.3787 92.8703 25.556H86.5283C86.5563 26.1347 86.6963 26.6293 86.9483 27.04C87.2003 27.4507 87.5316 27.7633 87.9423 27.978C88.353 28.1833 88.801 28.286 89.2863 28.286C89.921 28.286 90.453 28.132 90.8823 27.824C91.321 27.516 91.6103 27.1007 91.7503 26.578H92.7863C92.5996 27.3247 92.1983 27.936 91.5823 28.412C90.9756 28.8787 90.2103 29.112 89.2863 29.112C88.5676 29.112 87.9236 28.9533 87.3543 28.636C86.785 28.3093 86.337 27.852 86.0103 27.264C85.693 26.6667 85.5343 25.9713 85.5343 25.178C85.5343 24.3847 85.693 23.6893 86.0103 23.092C86.3276 22.4947 86.771 22.0373 87.3403 21.72C87.9096 21.4027 88.5583 21.244 89.2863 21.244C90.0143 21.244 90.649 21.4027 91.1903 21.72C91.741 22.0373 92.161 22.4667 92.4503 23.008C92.749 23.54 92.8983 24.1327 92.8983 24.786ZM91.9043 24.758C91.9136 24.1887 91.797 23.7033 91.5543 23.302C91.321 22.9007 90.999 22.5973 90.5883 22.392C90.1776 22.1867 89.7296 22.084 89.2443 22.084C88.5163 22.084 87.8956 22.3173 87.3823 22.784C86.869 23.2507 86.5843 23.9087 86.5283 24.758H91.9043ZM95.6713 22.714C95.886 22.238 96.2126 21.8693 96.6513 21.608C97.0993 21.3467 97.6453 21.216 98.2893 21.216V22.238H98.0233C97.314 22.238 96.7446 22.4293 96.3153 22.812C95.886 23.1947 95.6713 23.834 95.6713 24.73V29H94.6913V21.356H95.6713V22.714ZM106.68 24.786C106.68 25.122 106.67 25.3787 106.652 25.556H100.31C100.338 26.1347 100.478 26.6293 100.73 27.04C100.982 27.4507 101.313 27.7633 101.724 27.978C102.134 28.1833 102.582 28.286 103.068 28.286C103.702 28.286 104.234 28.132 104.664 27.824C105.102 27.516 105.392 27.1007 105.532 26.578H106.568C106.381 27.3247 105.98 27.936 105.364 28.412C104.757 28.8787 103.992 29.112 103.068 29.112C102.349 29.112 101.705 28.9533 101.136 28.636C100.566 28.3093 100.118 27.852 99.7916 27.264C99.4742 26.6667 99.3156 25.9713 99.3156 25.178C99.3156 24.3847 99.4742 23.6893 99.7916 23.092C100.109 22.4947 100.552 22.0373 101.122 21.72C101.691 21.4027 102.34 21.244 103.068 21.244C103.796 21.244 104.43 21.4027 104.972 21.72C105.522 22.0373 105.942 22.4667 106.232 23.008C106.53 23.54 106.68 24.1327 106.68 24.786ZM105.686 24.758C105.695 24.1887 105.578 23.7033 105.336 23.302C105.102 22.9007 104.78 22.5973 104.37 22.392C103.959 22.1867 103.511 22.084 103.026 22.084C102.298 22.084 101.677 22.3173 101.164 22.784C100.65 23.2507 100.366 23.9087 100.31 24.758H105.686ZM108.641 29.07C108.435 29.07 108.263 29 108.123 28.86C107.992 28.72 107.927 28.5473 107.927 28.342C107.927 28.1367 107.992 27.9687 108.123 27.838C108.263 27.698 108.435 27.628 108.641 27.628C108.837 27.628 109 27.698 109.131 27.838C109.271 27.9687 109.341 28.1367 109.341 28.342C109.341 28.5473 109.271 28.72 109.131 28.86C109 29 108.837 29.07 108.641 29.07ZM111.184 29.07C110.978 29.07 110.806 29 110.666 28.86C110.535 28.72 110.47 28.5473 110.47 28.342C110.47 28.1367 110.535 27.9687 110.666 27.838C110.806 27.698 110.978 27.628 111.184 27.628C111.38 27.628 111.543 27.698 111.674 27.838C111.814 27.9687 111.884 28.1367 111.884 28.342C111.884 28.5473 111.814 28.72 111.674 28.86C111.543 29 111.38 29.07 111.184 29.07ZM113.726 29.07C113.521 29.07 113.348 29 113.208 28.86C113.078 28.72 113.012 28.5473 113.012 28.342C113.012 28.1367 113.078 27.9687 113.208 27.838C113.348 27.698 113.521 27.628 113.726 27.628C113.922 27.628 114.086 27.698 114.216 27.838C114.356 27.9687 114.426 28.1367 114.426 28.342C114.426 28.5473 114.356 28.72 114.216 28.86C114.086 29 113.922 29.07 113.726 29.07ZM116.269 29.07C116.064 29.07 115.891 29 115.751 28.86C115.621 28.72 115.555 28.5473 115.555 28.342C115.555 28.1367 115.621 27.9687 115.751 27.838C115.891 27.698 116.064 27.628 116.269 27.628C116.465 27.628 116.629 27.698 116.759 27.838C116.899 27.9687 116.969 28.1367 116.969 28.342C116.969 28.5473 116.899 28.72 116.759 28.86C116.629 29 116.465 29.07 116.269 29.07Z" fill="#AAAAAA"/>
</g>
<defs>
<filter id="filter0_d_990_863" x="0" y="0" width="377" height="50" filterUnits="userSpaceOnUse" color-interpolation-filters="sRGB">
<feFlood flood-opacity="0" result="BackgroundImageFix"/>
<feColorMatrix in="SourceAlpha" type="matrix" values="0 0 0 0 0 0 0 0 0 0 0 0 0 0 0 0 0 0 127 0" result="hardAlpha"/>
<feOffset dy="1"/>
<feGaussianBlur stdDeviation="2"/>
<feComposite in2="hardAlpha" operator="out"/>
<feColorMatrix type="matrix" values="0 0 0 0 0.147966 0 0 0 0 0.156883 0 0 0 0 0.179671 0 0 0 0.37 0"/>
<feBlend mode="normal" in2="BackgroundImageFix" result="effect1_dropShadow_990_863"/>
<feBlend mode="normal" in="SourceGraphic" in2="effect1_dropShadow_990_863" result="shape"/>
</filter>
</defs>
</svg>
