<svg width="387" height="387" viewBox="0 0 387 387" fill="none" xmlns="http://www.w3.org/2000/svg">
<rect width="387" height="387" rx="20" fill="white"/>
<rect x="0.5" y="0.5" width="386" height="386" rx="19.5" stroke="#ED1C24" stroke-opacity="0.15"/>
<rect x="138.356" y="62.3557" width="111.289" height="111.289" rx="55.6443" stroke="white" stroke-width="0.711362"/>
<rect x="138.356" y="62.3557" width="111.289" height="111.289" rx="55.6443" stroke="url(#paint0_linear_990_1039)" stroke-width="0.711362"/>
<path d="M225.5 137.32V145.125H194V137.32C194 133.029 197.29 129.548 201.35 129.548H204.81L205.19 127.157C198.669 129.114 195.174 125.019 195.174 125.019C196.07 122.958 197.15 119.272 197.15 112.611V105.948C197.15 102.268 198.56 98.9378 200.84 96.5265C203.12 94.116 206.269 92.625 209.75 92.625C216.708 92.625 222.35 98.5892 222.35 105.948V112.611C222.35 119.272 223.43 122.958 224.326 125.019C224.326 125.019 220.848 129.094 214.358 127.17L214.784 129.548H218.151C222.21 129.548 225.5 133.029 225.5 137.32Z" fill="#F05A8E"/>
<path d="M199.727 142.429V145.125H162.5V142.429C162.5 134.976 168.383 128.935 175.64 128.935L176.735 125.296C173.727 123.758 171.589 120.688 171.293 117.084C171.26 116.601 170.877 116.242 170.428 116.117C169.016 115.746 167.976 114.431 167.976 112.856C167.976 111.784 168.458 110.832 169.214 110.214C168.623 108.254 167.976 105.375 167.976 102.173C167.976 100.622 169.201 99.3627 170.713 99.3627C170.713 99.3627 171.329 92.6128 180.019 93.7406C188.947 94.9001 193.415 92.625 193.415 92.625C193.415 92.625 195.348 94.5478 195.348 98.2381C195.348 99.7224 194.948 101.11 194.255 102.293C194.253 102.291 194.253 102.288 194.253 102.286L194.251 102.299C194.252 102.296 194.253 102.295 194.255 102.293C194.616 105.694 193.988 108.648 193.378 110.56C193.922 111.162 194.253 111.969 194.253 112.856C194.253 114.431 193.213 115.746 191.801 116.117C191.352 116.242 190.969 116.601 190.935 117.084C190.638 120.686 188.502 123.757 185.494 125.294L186.589 128.935C193.846 128.935 199.727 134.976 199.727 142.429Z" fill="#ED1F29"/>
<path d="M113.05 217.739L113.989 222.005C113.989 222.091 113.904 222.19 113.733 222.304C113.591 222.389 113.42 222.432 113.221 222.432C113.05 222.432 112.937 222.389 112.88 222.304C112.567 221.337 112.169 220.597 111.685 220.085C110.633 218.976 109.239 218.421 107.504 218.421C105.541 218.421 104.09 219.232 103.152 220.853C102.355 222.247 101.957 224.039 101.957 226.229C101.957 228.562 102.455 230.567 103.45 232.245C104.56 234.066 106.053 234.976 107.93 234.976C108.755 234.976 109.481 234.834 110.106 234.549C110.163 234.492 110.22 234.45 110.277 234.421C110.334 234.364 110.362 234.265 110.362 234.123V230.155C110.362 229.586 110.234 229.23 109.978 229.088C109.751 228.917 109.538 228.804 109.338 228.747C108.997 228.69 108.67 228.661 108.357 228.661C108.3 228.661 108.258 228.505 108.229 228.192C108.229 227.879 108.272 227.68 108.357 227.595C109.779 227.708 111.145 227.765 112.453 227.765C113.762 227.765 114.985 227.708 116.122 227.595C116.179 227.794 116.194 228.021 116.165 228.277C116.165 228.533 116.137 228.661 116.08 228.661C115.966 228.661 115.724 228.704 115.354 228.789C114.985 228.846 114.743 228.917 114.629 229.003C114.373 229.145 114.245 229.557 114.245 230.24V233.227L114.416 234.037C114.416 234.265 114.089 234.521 113.434 234.805C112.524 235.118 111.571 235.431 110.576 235.744C109.58 236.057 108.414 236.213 107.077 236.213C105.769 236.213 104.517 235.986 103.322 235.531C102.156 235.047 101.132 234.393 100.25 233.568C99.3971 232.743 98.7145 231.762 98.2025 230.624C97.6905 229.486 97.4345 228.263 97.4345 226.955C97.4345 225.618 97.6905 224.366 98.2025 223.2C98.7145 222.005 99.4113 220.967 100.293 220.085C101.175 219.204 102.199 218.507 103.365 217.995C104.56 217.483 105.826 217.227 107.162 217.227C109.438 217.227 111.401 217.397 113.05 217.739ZM120.007 228.064C120.064 228.064 120.249 228.064 120.562 228.064C120.903 228.036 121.273 228.007 121.671 227.979C122.581 227.95 123.235 227.908 123.634 227.851C123.89 227.822 124.018 227.666 124.018 227.381C124.018 227.068 123.989 226.741 123.932 226.4C123.875 226.059 123.776 225.76 123.634 225.504C123.321 224.878 122.908 224.565 122.396 224.565C121.913 224.565 121.529 224.708 121.244 224.992C120.96 225.248 120.718 225.561 120.519 225.931C120.178 226.67 120.007 227.381 120.007 228.064ZM126.748 228.832C125.042 228.974 122.795 229.088 120.007 229.173C120.007 230.908 120.491 232.188 121.458 233.013C122.197 233.611 122.994 233.909 123.847 233.909C124.729 233.909 125.411 233.753 125.895 233.44C126.379 233.127 126.777 232.814 127.09 232.501C127.317 232.558 127.431 232.715 127.431 232.971C127.431 233.227 127.374 233.44 127.26 233.611C127.175 233.753 126.99 233.98 126.706 234.293C126.421 234.578 126.066 234.862 125.639 235.147C124.558 235.886 123.52 236.256 122.524 236.256C121.529 236.256 120.675 236.128 119.964 235.872C119.253 235.588 118.627 235.189 118.087 234.677C116.921 233.568 116.338 232.132 116.338 230.368C116.338 228.548 116.963 226.955 118.215 225.589C119.552 224.139 121.003 223.413 122.567 223.413C124.245 223.413 125.525 223.911 126.407 224.907C127.147 225.703 127.516 226.628 127.516 227.68C127.516 227.993 127.445 228.263 127.303 228.491C127.161 228.718 126.976 228.832 126.748 228.832ZM132.385 235.915C131.219 235.915 129.925 235.986 128.502 236.128C128.445 236.043 128.417 235.872 128.417 235.616C128.417 235.36 128.445 235.175 128.502 235.061C129.1 235.061 129.541 235.004 129.825 234.891C130.109 234.748 130.28 234.635 130.337 234.549C130.479 234.208 130.55 233.326 130.55 231.904V228.235C130.55 228.007 130.522 227.666 130.465 227.211C130.408 226.756 130.351 226.471 130.294 226.357C130.095 225.988 129.498 225.803 128.502 225.803C128.445 225.774 128.417 225.632 128.417 225.376C128.445 225.092 128.488 224.949 128.545 224.949C129.626 224.864 130.678 224.665 131.702 224.352C132.726 224.011 133.509 223.712 134.049 223.456C134.134 223.456 134.234 223.527 134.348 223.669C134.461 223.783 134.504 223.868 134.476 223.925C134.476 223.982 134.461 224.096 134.433 224.267C134.433 224.409 134.405 224.594 134.348 224.821C134.205 225.39 134.177 225.675 134.262 225.675C134.291 225.675 134.319 225.66 134.348 225.632C134.376 225.604 134.419 225.575 134.476 225.547C134.874 225.092 135.357 224.693 135.926 224.352C136.922 223.755 137.775 223.456 138.486 223.456C139.226 223.456 139.837 223.598 140.321 223.883C140.833 224.139 141.231 224.537 141.516 225.077C141.999 226.044 142.241 227.708 142.241 230.069V231.904C142.241 233.326 142.284 234.151 142.369 234.379C142.454 234.578 142.568 234.72 142.71 234.805C142.881 234.862 143.066 234.919 143.265 234.976C143.606 235.033 143.933 235.061 144.246 235.061C144.332 235.175 144.36 235.36 144.332 235.616C144.332 235.872 144.303 236.043 144.246 236.128C142.909 235.986 141.629 235.915 140.406 235.915C139.468 235.915 138.287 235.986 136.865 236.128C136.808 236.043 136.78 235.872 136.78 235.616C136.78 235.36 136.808 235.175 136.865 235.061C137.064 235.061 137.349 235.033 137.718 234.976C138.088 234.891 138.316 234.72 138.401 234.464C138.515 234.151 138.572 233.298 138.572 231.904V229.685C138.572 227.04 137.946 225.717 136.694 225.717C136.154 225.717 135.685 225.845 135.286 226.101C134.575 226.613 134.22 227.012 134.22 227.296V231.904C134.22 233.326 134.262 234.151 134.348 234.379C134.433 234.578 134.547 234.72 134.689 234.805C134.831 234.862 134.988 234.919 135.158 234.976C135.443 235.033 135.741 235.061 136.054 235.061C136.111 235.175 136.14 235.36 136.14 235.616C136.14 235.872 136.111 236.043 136.054 236.128C134.632 235.986 133.409 235.915 132.385 235.915ZM151.619 224.949C153.468 224.807 155.289 224.309 157.081 223.456C157.194 223.484 157.308 223.556 157.422 223.669C157.536 223.783 157.593 223.868 157.593 223.925C157.536 224.068 157.465 224.452 157.379 225.077C157.294 225.675 157.251 226.172 157.251 226.571V232.971C157.251 233.198 157.251 233.397 157.251 233.568C157.28 233.739 157.365 233.895 157.507 234.037C157.678 234.208 158.105 234.293 158.787 234.293C158.844 234.407 158.873 234.564 158.873 234.763C158.873 234.933 158.816 235.09 158.702 235.232C158.133 235.26 157.209 235.431 155.929 235.744C154.649 236.057 153.966 236.213 153.881 236.213C153.71 236.213 153.625 235.986 153.625 235.531V235.061C153.625 234.948 153.596 234.905 153.539 234.933C152.259 235.73 150.937 236.128 149.571 236.128C147.722 236.128 146.57 235.09 146.115 233.013C146.002 232.388 145.945 231.748 145.945 231.093V228.235C145.945 228.007 145.916 227.666 145.859 227.211C145.802 226.756 145.746 226.471 145.689 226.357C145.546 226.073 145.063 225.902 144.238 225.845C144.067 225.817 143.954 225.803 143.897 225.803C143.868 225.774 143.854 225.632 143.854 225.376C143.854 225.092 143.882 224.949 143.939 224.949C145.02 224.864 146.073 224.665 147.097 224.352C148.121 224.011 148.903 223.712 149.443 223.456C149.557 223.484 149.657 223.556 149.742 223.669C149.856 223.783 149.913 223.868 149.913 223.925C149.856 224.039 149.799 224.281 149.742 224.651C149.685 225.02 149.642 225.333 149.614 225.589C149.614 225.845 149.614 226.172 149.614 226.571V229.813C149.614 231.321 149.756 232.473 150.041 233.269C150.325 234.037 150.908 234.421 151.79 234.421C152.188 234.421 152.586 234.308 152.985 234.08C153.411 233.852 153.625 233.625 153.625 233.397V228.235C153.625 228.007 153.596 227.666 153.539 227.211C153.482 226.756 153.426 226.471 153.369 226.357C153.198 225.988 152.601 225.803 151.577 225.803C151.52 225.774 151.491 225.632 151.491 225.376C151.491 225.092 151.534 224.949 151.619 224.949ZM165.05 223.925C164.993 224.068 164.893 224.594 164.751 225.504V231.904C164.751 233.326 164.794 234.151 164.879 234.379C164.964 234.578 165.078 234.72 165.22 234.805C165.363 234.862 165.519 234.919 165.69 234.976C165.974 235.033 166.273 235.061 166.586 235.061C166.643 235.175 166.671 235.36 166.671 235.616C166.671 235.872 166.643 236.043 166.586 236.128C165.163 235.986 163.94 235.915 162.916 235.915C161.75 235.915 160.456 235.986 159.034 236.128C158.977 236.043 158.948 235.872 158.948 235.616C158.948 235.36 158.977 235.175 159.034 235.061C159.631 235.061 160.072 235.004 160.356 234.891C160.641 234.748 160.811 234.635 160.868 234.549C161.011 234.208 161.082 233.326 161.082 231.904V228.235C161.082 228.007 161.053 227.666 160.996 227.211C160.939 226.756 160.883 226.471 160.826 226.357C160.627 225.988 160.029 225.803 159.034 225.803C158.977 225.774 158.948 225.632 158.948 225.376C158.977 225.092 159.019 224.949 159.076 224.949C160.157 224.864 161.21 224.665 162.234 224.352C163.258 224.011 164.04 223.712 164.58 223.456C164.666 223.484 164.765 223.556 164.879 223.669C164.993 223.783 165.05 223.868 165.05 223.925ZM160.612 218.635C160.612 218.066 160.797 217.596 161.167 217.227C161.565 216.828 162.049 216.629 162.618 216.629C163.187 216.629 163.67 216.828 164.068 217.227C164.467 217.596 164.666 218.066 164.666 218.635C164.666 219.204 164.467 219.687 164.068 220.085C163.67 220.484 163.187 220.683 162.618 220.683C162.049 220.683 161.565 220.484 161.167 220.085C160.797 219.687 160.612 219.204 160.612 218.635ZM170.823 235.915C169.656 235.915 168.362 235.986 166.94 236.128C166.883 236.043 166.855 235.872 166.855 235.616C166.855 235.36 166.883 235.175 166.94 235.061C167.537 235.061 167.978 235.004 168.263 234.891C168.547 234.748 168.718 234.635 168.775 234.549C168.917 234.208 168.988 233.326 168.988 231.904V228.235C168.988 228.007 168.959 227.666 168.903 227.211C168.846 226.756 168.789 226.471 168.732 226.357C168.533 225.988 167.935 225.803 166.94 225.803C166.883 225.774 166.855 225.632 166.855 225.376C166.883 225.092 166.926 224.949 166.983 224.949C168.063 224.864 169.116 224.665 170.14 224.352C171.164 224.011 171.946 223.712 172.487 223.456C172.572 223.456 172.671 223.527 172.785 223.669C172.899 223.783 172.942 223.868 172.913 223.925C172.913 223.982 172.899 224.096 172.871 224.267C172.871 224.409 172.842 224.594 172.785 224.821C172.643 225.39 172.615 225.675 172.7 225.675C172.728 225.675 172.757 225.66 172.785 225.632C172.814 225.604 172.856 225.575 172.913 225.547C173.311 225.092 173.795 224.693 174.364 224.352C175.359 223.755 176.213 223.456 176.924 223.456C177.663 223.456 178.275 223.598 178.759 223.883C179.271 224.139 179.669 224.537 179.953 225.077C180.437 226.044 180.679 227.708 180.679 230.069V231.904C180.679 233.326 180.721 234.151 180.807 234.379C180.892 234.578 181.006 234.72 181.148 234.805C181.319 234.862 181.503 234.919 181.703 234.976C182.044 235.033 182.371 235.061 182.684 235.061C182.769 235.175 182.798 235.36 182.769 235.616C182.769 235.872 182.741 236.043 182.684 236.128C181.347 235.986 180.067 235.915 178.844 235.915C177.905 235.915 176.725 235.986 175.303 236.128C175.246 236.043 175.217 235.872 175.217 235.616C175.217 235.36 175.246 235.175 175.303 235.061C175.502 235.061 175.786 235.033 176.156 234.976C176.526 234.891 176.753 234.72 176.839 234.464C176.952 234.151 177.009 233.298 177.009 231.904V229.685C177.009 227.04 176.383 225.717 175.132 225.717C174.591 225.717 174.122 225.845 173.724 226.101C173.013 226.613 172.657 227.012 172.657 227.296V231.904C172.657 233.326 172.7 234.151 172.785 234.379C172.871 234.578 172.984 234.72 173.127 234.805C173.269 234.862 173.425 234.919 173.596 234.976C173.88 235.033 174.179 235.061 174.492 235.061C174.549 235.175 174.577 235.36 174.577 235.616C174.577 235.872 174.549 236.043 174.492 236.128C173.07 235.986 171.847 235.915 170.823 235.915ZM186.601 228.064C186.658 228.064 186.843 228.064 187.155 228.064C187.497 228.036 187.867 228.007 188.265 227.979C189.175 227.95 189.829 227.908 190.227 227.851C190.483 227.822 190.611 227.666 190.611 227.381C190.611 227.068 190.583 226.741 190.526 226.4C190.469 226.059 190.37 225.76 190.227 225.504C189.915 224.878 189.502 224.565 188.99 224.565C188.507 224.565 188.123 224.708 187.838 224.992C187.554 225.248 187.312 225.561 187.113 225.931C186.771 226.67 186.601 227.381 186.601 228.064ZM193.342 228.832C191.635 228.974 189.388 229.088 186.601 229.173C186.601 230.908 187.084 232.188 188.051 233.013C188.791 233.611 189.587 233.909 190.441 233.909C191.323 233.909 192.005 233.753 192.489 233.44C192.972 233.127 193.371 232.814 193.683 232.501C193.911 232.558 194.025 232.715 194.025 232.971C194.025 233.227 193.968 233.44 193.854 233.611C193.769 233.753 193.584 233.98 193.299 234.293C193.015 234.578 192.659 234.862 192.233 235.147C191.152 235.886 190.114 236.256 189.118 236.256C188.123 236.256 187.269 236.128 186.558 235.872C185.847 235.588 185.221 235.189 184.681 234.677C183.515 233.568 182.931 232.132 182.931 230.368C182.931 228.548 183.557 226.955 184.809 225.589C186.146 224.139 187.596 223.413 189.161 223.413C190.839 223.413 192.119 223.911 193.001 224.907C193.74 225.703 194.11 226.628 194.11 227.68C194.11 227.993 194.039 228.263 193.897 228.491C193.755 228.718 193.57 228.832 193.342 228.832ZM209.78 236.128C207.106 235.872 204.432 235.872 201.758 236.128C201.701 236.043 201.673 235.872 201.673 235.616C201.673 235.36 201.701 235.175 201.758 235.061C202.356 235.061 202.797 235.004 203.081 234.891C203.365 234.748 203.536 234.635 203.593 234.549C203.735 234.208 203.806 233.326 203.806 231.904V221.536C203.806 220.171 203.735 219.289 203.593 218.891C203.394 218.606 202.782 218.464 201.758 218.464C201.701 218.35 201.673 218.165 201.673 217.909C201.673 217.653 201.701 217.483 201.758 217.397C202.413 217.454 203.095 217.483 203.806 217.483H205.812L210.121 217.397C211.941 217.397 213.463 217.838 214.686 218.72C215.966 219.63 216.606 220.868 216.606 222.432C216.606 224.025 216.009 225.362 214.814 226.443C213.733 227.438 212.453 227.936 210.974 227.936C210.462 227.936 210.036 227.851 209.694 227.68C209.353 227.509 209.125 227.381 209.012 227.296C208.926 227.182 208.855 226.997 208.798 226.741C208.77 226.485 208.798 226.357 208.884 226.357C209.083 226.443 209.495 226.485 210.121 226.485C210.775 226.485 211.316 226.144 211.742 225.461C212.197 224.779 212.425 224.039 212.425 223.243C212.425 222.418 212.354 221.749 212.212 221.237C212.069 220.697 211.856 220.242 211.572 219.872C210.917 218.99 210.164 218.549 209.31 218.549C208.969 218.549 208.656 218.564 208.372 218.592C208.116 218.62 207.959 218.72 207.902 218.891C207.789 219.118 207.732 219.687 207.732 220.597V231.904C207.732 232.53 207.732 233.056 207.732 233.483C207.76 233.909 207.817 234.222 207.902 234.421C207.988 234.592 208.101 234.72 208.244 234.805C208.414 234.862 208.585 234.919 208.756 234.976C209.069 235.033 209.41 235.061 209.78 235.061C209.837 235.175 209.865 235.36 209.865 235.616C209.865 235.872 209.837 236.043 209.78 236.128ZM221.948 235.915C220.781 235.915 219.487 235.986 218.065 236.128C218.008 236.043 217.98 235.872 217.98 235.616C217.98 235.36 218.008 235.175 218.065 235.061C218.662 235.061 219.103 235.004 219.388 234.891C219.672 234.748 219.843 234.635 219.9 234.549C220.042 234.208 220.113 233.326 220.113 231.904V228.235C220.113 228.007 220.084 227.666 220.028 227.211C219.971 226.756 219.914 226.471 219.857 226.357C219.658 225.988 219.06 225.803 218.065 225.803C218.008 225.774 217.98 225.632 217.98 225.376C218.008 225.092 218.051 224.949 218.108 224.949C219.188 224.864 220.241 224.665 221.265 224.352C222.289 224.011 223.071 223.712 223.612 223.456C223.697 223.484 223.796 223.556 223.91 223.669C224.024 223.783 224.067 223.868 224.038 223.925C224.038 223.982 224.024 224.11 223.996 224.309C223.967 224.508 223.939 224.736 223.91 224.992C223.882 225.22 223.853 225.447 223.825 225.675C223.796 225.902 223.782 226.059 223.782 226.144C223.782 226.201 223.811 226.244 223.868 226.272C223.924 226.272 223.953 226.258 223.953 226.229C224.465 225.376 224.892 224.779 225.233 224.437C225.972 223.755 226.726 223.413 227.494 223.413C228.348 223.413 228.931 223.57 229.244 223.883C229.471 224.224 229.585 224.608 229.585 225.035C229.585 225.433 229.542 225.774 229.457 226.059C229.372 226.315 229.244 226.556 229.073 226.784C228.732 227.268 228.333 227.509 227.878 227.509C227.622 227.509 227.395 227.424 227.196 227.253C227.025 227.083 226.854 226.926 226.684 226.784C226.541 226.642 226.385 226.514 226.214 226.4C226.072 226.258 225.873 226.187 225.617 226.187C225.361 226.187 225.119 226.286 224.892 226.485C224.664 226.656 224.465 226.869 224.294 227.125C223.953 227.637 223.782 228.092 223.782 228.491V231.904C223.782 233.326 223.825 234.151 223.91 234.379C223.996 234.578 224.109 234.72 224.252 234.805C224.394 234.862 224.55 234.919 224.721 234.976C225.005 235.033 225.304 235.061 225.617 235.061C225.674 235.175 225.702 235.36 225.702 235.616C225.702 235.872 225.674 236.043 225.617 236.128C224.195 235.986 222.972 235.915 221.948 235.915ZM236.911 224.565C235.631 224.565 234.92 225.618 234.777 227.723C234.721 228.292 234.692 228.86 234.692 229.429C234.692 229.998 234.735 230.624 234.82 231.307C234.934 231.961 235.119 232.558 235.375 233.099C235.915 234.379 236.641 235.019 237.551 235.019C238.888 235.019 239.641 233.98 239.812 231.904C239.841 231.364 239.855 230.809 239.855 230.24C239.855 229.671 239.798 229.045 239.684 228.363C239.57 227.68 239.385 227.068 239.129 226.528C238.589 225.22 237.849 224.565 236.911 224.565ZM237.252 223.413C238.219 223.413 239.101 223.57 239.897 223.883C240.722 224.196 241.433 224.636 242.031 225.205C243.254 226.4 243.865 227.893 243.865 229.685C243.865 231.449 243.225 232.985 241.945 234.293C240.722 235.573 239.172 236.213 237.295 236.213C235.332 236.213 233.739 235.602 232.516 234.379C231.293 233.156 230.681 231.662 230.681 229.899C230.681 228.164 231.307 226.642 232.559 225.333C233.81 224.053 235.375 223.413 237.252 223.413ZM248.487 235.915C247.321 235.915 246.027 235.986 244.605 236.128C244.548 236.043 244.519 235.872 244.519 235.616C244.519 235.36 244.548 235.175 244.605 235.061C245.202 235.061 245.643 235.004 245.927 234.891C246.212 234.748 246.382 234.635 246.439 234.549C246.581 234.208 246.653 233.326 246.653 231.904V225.291H244.647C244.562 225.234 244.519 225.106 244.519 224.907C244.747 224.565 245.045 224.252 245.415 223.968H246.653V223.541C246.653 221.749 247.364 220.071 248.786 218.507C249.383 217.824 250.009 217.298 250.663 216.928C251.346 216.53 251.943 216.331 252.455 216.331C252.996 216.331 253.607 216.43 254.29 216.629C254.517 216.772 254.759 216.942 255.015 217.141C255.271 217.312 255.399 217.611 255.399 218.037C255.399 218.436 255.271 218.848 255.015 219.275C254.788 219.673 254.446 219.872 253.991 219.872C253.536 219.872 253.166 219.758 252.882 219.531C252.626 219.275 252.341 219.019 252.029 218.763C251.716 218.507 251.36 218.379 250.962 218.379C250.734 218.379 250.535 218.606 250.365 219.061C250.194 219.488 250.109 220.028 250.109 220.683C250.109 221.508 250.151 222.603 250.237 223.968H253.522C253.636 223.968 253.693 224.11 253.693 224.395C253.693 224.651 253.479 224.949 253.053 225.291H250.322V231.904C250.322 233.326 250.365 234.151 250.45 234.379C250.535 234.578 250.649 234.72 250.791 234.805C250.962 234.862 251.147 234.919 251.346 234.976C251.687 235.033 252.014 235.061 252.327 235.061C252.413 235.175 252.441 235.36 252.413 235.616C252.413 235.872 252.384 236.043 252.327 236.128C250.99 235.986 249.71 235.915 248.487 235.915ZM259.487 223.925C259.43 224.068 259.331 224.594 259.188 225.504V231.904C259.188 233.326 259.231 234.151 259.316 234.379C259.402 234.578 259.516 234.72 259.658 234.805C259.8 234.862 259.956 234.919 260.127 234.976C260.412 235.033 260.71 235.061 261.023 235.061C261.08 235.175 261.108 235.36 261.108 235.616C261.108 235.872 261.08 236.043 261.023 236.128C259.601 235.986 258.378 235.915 257.354 235.915C256.188 235.915 254.893 235.986 253.471 236.128C253.414 236.043 253.386 235.872 253.386 235.616C253.386 235.36 253.414 235.175 253.471 235.061C254.068 235.061 254.509 235.004 254.794 234.891C255.078 234.748 255.249 234.635 255.306 234.549C255.448 234.208 255.519 233.326 255.519 231.904V228.235C255.519 228.007 255.491 227.666 255.434 227.211C255.377 226.756 255.32 226.471 255.263 226.357C255.064 225.988 254.467 225.803 253.471 225.803C253.414 225.774 253.386 225.632 253.386 225.376C253.414 225.092 253.457 224.949 253.514 224.949C254.595 224.864 255.647 224.665 256.671 224.352C257.695 224.011 258.477 223.712 259.018 223.456C259.103 223.484 259.203 223.556 259.316 223.669C259.43 223.783 259.487 223.868 259.487 223.925ZM255.05 218.635C255.05 218.066 255.235 217.596 255.604 217.227C256.003 216.828 256.486 216.629 257.055 216.629C257.624 216.629 258.108 216.828 258.506 217.227C258.904 217.596 259.103 218.066 259.103 218.635C259.103 219.204 258.904 219.687 258.506 220.085C258.108 220.484 257.624 220.683 257.055 220.683C256.486 220.683 256.003 220.484 255.604 220.085C255.235 219.687 255.05 219.204 255.05 218.635ZM268.716 236.128C267.294 235.986 266 235.915 264.833 235.915C263.696 235.915 262.416 235.986 260.993 236.128C260.936 236.043 260.908 235.872 260.908 235.616C260.908 235.36 260.936 235.175 260.993 235.061C261.591 235.061 262.032 235.004 262.316 234.891C262.6 234.748 262.757 234.635 262.785 234.549C262.928 234.265 262.999 233.909 262.999 233.483C263.027 233.056 263.041 232.53 263.041 231.904V220.299C263.041 219.673 262.999 219.275 262.913 219.104C262.828 218.905 262.7 218.777 262.529 218.72C262.387 218.663 262.231 218.62 262.06 218.592C261.662 218.478 261.363 218.421 261.164 218.421C261.107 218.421 261.064 218.293 261.036 218.037C261.036 217.753 261.079 217.582 261.164 217.525C263.07 217.326 264.734 216.999 266.156 216.544C266.412 216.459 266.554 216.416 266.583 216.416C266.782 216.473 266.924 216.644 267.009 216.928C266.952 217.269 266.896 217.596 266.839 217.909C266.753 218.336 266.711 218.962 266.711 219.787V231.904C266.711 233.326 266.753 234.151 266.839 234.379C266.924 234.578 267.038 234.72 267.18 234.805C267.351 234.862 267.521 234.919 267.692 234.976C268.005 235.033 268.346 235.061 268.716 235.061C268.773 235.175 268.801 235.36 268.801 235.616C268.801 235.872 268.773 236.043 268.716 236.128ZM272.413 228.064C272.47 228.064 272.655 228.064 272.968 228.064C273.309 228.036 273.679 228.007 274.077 227.979C274.988 227.95 275.642 227.908 276.04 227.851C276.296 227.822 276.424 227.666 276.424 227.381C276.424 227.068 276.396 226.741 276.339 226.4C276.282 226.059 276.182 225.76 276.04 225.504C275.727 224.878 275.315 224.565 274.803 224.565C274.319 224.565 273.935 224.708 273.651 224.992C273.366 225.248 273.124 225.561 272.925 225.931C272.584 226.67 272.413 227.381 272.413 228.064ZM279.155 228.832C277.448 228.974 275.201 229.088 272.413 229.173C272.413 230.908 272.897 232.188 273.864 233.013C274.604 233.611 275.4 233.909 276.253 233.909C277.135 233.909 277.818 233.753 278.301 233.44C278.785 233.127 279.183 232.814 279.496 232.501C279.724 232.558 279.837 232.715 279.837 232.971C279.837 233.227 279.78 233.44 279.667 233.611C279.581 233.753 279.396 233.98 279.112 234.293C278.828 234.578 278.472 234.862 278.045 235.147C276.964 235.886 275.926 236.256 274.931 236.256C273.935 236.256 273.082 236.128 272.371 235.872C271.66 235.588 271.034 235.189 270.493 234.677C269.327 233.568 268.744 232.132 268.744 230.368C268.744 228.548 269.37 226.955 270.621 225.589C271.958 224.139 273.409 223.413 274.973 223.413C276.652 223.413 277.932 223.911 278.813 224.907C279.553 225.703 279.923 226.628 279.923 227.68C279.923 227.993 279.852 228.263 279.709 228.491C279.567 228.718 279.382 228.832 279.155 228.832ZM281.378 231.989C281.378 231.847 281.52 231.776 281.805 231.776C282.089 231.776 282.288 231.876 282.402 232.075C282.601 233.184 283.028 233.995 283.682 234.507C284.166 234.905 284.706 235.104 285.303 235.104C285.901 235.104 286.342 234.948 286.626 234.635C286.91 234.322 287.053 233.98 287.053 233.611C287.053 233.241 286.953 232.942 286.754 232.715C286.583 232.459 286.356 232.245 286.071 232.075C285.815 231.904 285.517 231.733 285.175 231.563C283.924 230.994 282.871 230.311 282.018 229.515C281.449 228.974 281.165 228.292 281.165 227.467C281.165 226.613 281.335 225.945 281.677 225.461C282.018 224.978 282.445 224.58 282.957 224.267C283.924 223.669 285.076 223.371 286.413 223.371C287.067 223.371 287.636 223.442 288.119 223.584C288.603 223.698 289.086 223.812 289.57 223.925C289.741 224.636 289.883 225.362 289.997 226.101C290.11 226.841 290.167 227.282 290.167 227.424C290.167 227.538 290.039 227.595 289.783 227.595C289.527 227.595 289.314 227.509 289.143 227.339C288.916 226.514 288.66 225.916 288.375 225.547C287.778 224.864 287.038 224.523 286.157 224.523C285.673 224.523 285.275 224.651 284.962 224.907C284.678 225.163 284.535 225.504 284.535 225.931C284.535 226.357 284.621 226.699 284.791 226.955C284.99 227.211 285.218 227.438 285.474 227.637C285.758 227.808 286.071 227.964 286.413 228.107C286.754 228.249 287.095 228.405 287.437 228.576C287.778 228.718 288.134 228.889 288.503 229.088C288.873 229.287 289.2 229.529 289.485 229.813C290.139 230.468 290.466 231.236 290.466 232.117C290.466 232.971 290.31 233.639 289.997 234.123C289.684 234.606 289.271 235.004 288.759 235.317C287.792 235.915 286.512 236.213 284.919 236.213C284.265 236.213 283.639 236.142 283.042 236C282.445 235.829 281.961 235.701 281.591 235.616C281.534 235.218 281.492 234.706 281.463 234.08C281.435 233.426 281.406 232.942 281.378 232.629C281.378 232.288 281.378 232.075 281.378 231.989Z" fill="url(#paint1_linear_990_1039)"/>
<path d="M113.05 217.739L113.989 222.005C113.989 222.091 113.904 222.19 113.733 222.304C113.591 222.389 113.42 222.432 113.221 222.432C113.05 222.432 112.937 222.389 112.88 222.304C112.567 221.337 112.169 220.597 111.685 220.085C110.633 218.976 109.239 218.421 107.504 218.421C105.541 218.421 104.09 219.232 103.152 220.853C102.355 222.247 101.957 224.039 101.957 226.229C101.957 228.562 102.455 230.567 103.45 232.245C104.56 234.066 106.053 234.976 107.93 234.976C108.755 234.976 109.481 234.834 110.106 234.549C110.163 234.492 110.22 234.45 110.277 234.421C110.334 234.364 110.362 234.265 110.362 234.123V230.155C110.362 229.586 110.234 229.23 109.978 229.088C109.751 228.917 109.538 228.804 109.338 228.747C108.997 228.69 108.67 228.661 108.357 228.661C108.3 228.661 108.258 228.505 108.229 228.192C108.229 227.879 108.272 227.68 108.357 227.595C109.779 227.708 111.145 227.765 112.453 227.765C113.762 227.765 114.985 227.708 116.122 227.595C116.179 227.794 116.194 228.021 116.165 228.277C116.165 228.533 116.137 228.661 116.08 228.661C115.966 228.661 115.724 228.704 115.354 228.789C114.985 228.846 114.743 228.917 114.629 229.003C114.373 229.145 114.245 229.557 114.245 230.24V233.227L114.416 234.037C114.416 234.265 114.089 234.521 113.434 234.805C112.524 235.118 111.571 235.431 110.576 235.744C109.58 236.057 108.414 236.213 107.077 236.213C105.769 236.213 104.517 235.986 103.322 235.531C102.156 235.047 101.132 234.393 100.25 233.568C99.3971 232.743 98.7145 231.762 98.2025 230.624C97.6905 229.486 97.4345 228.263 97.4345 226.955C97.4345 225.618 97.6905 224.366 98.2025 223.2C98.7145 222.005 99.4113 220.967 100.293 220.085C101.175 219.204 102.199 218.507 103.365 217.995C104.56 217.483 105.826 217.227 107.162 217.227C109.438 217.227 111.401 217.397 113.05 217.739ZM120.007 228.064C120.064 228.064 120.249 228.064 120.562 228.064C120.903 228.036 121.273 228.007 121.671 227.979C122.581 227.95 123.235 227.908 123.634 227.851C123.89 227.822 124.018 227.666 124.018 227.381C124.018 227.068 123.989 226.741 123.932 226.4C123.875 226.059 123.776 225.76 123.634 225.504C123.321 224.878 122.908 224.565 122.396 224.565C121.913 224.565 121.529 224.708 121.244 224.992C120.96 225.248 120.718 225.561 120.519 225.931C120.178 226.67 120.007 227.381 120.007 228.064ZM126.748 228.832C125.042 228.974 122.795 229.088 120.007 229.173C120.007 230.908 120.491 232.188 121.458 233.013C122.197 233.611 122.994 233.909 123.847 233.909C124.729 233.909 125.411 233.753 125.895 233.44C126.379 233.127 126.777 232.814 127.09 232.501C127.317 232.558 127.431 232.715 127.431 232.971C127.431 233.227 127.374 233.44 127.26 233.611C127.175 233.753 126.99 233.98 126.706 234.293C126.421 234.578 126.066 234.862 125.639 235.147C124.558 235.886 123.52 236.256 122.524 236.256C121.529 236.256 120.675 236.128 119.964 235.872C119.253 235.588 118.627 235.189 118.087 234.677C116.921 233.568 116.338 232.132 116.338 230.368C116.338 228.548 116.963 226.955 118.215 225.589C119.552 224.139 121.003 223.413 122.567 223.413C124.245 223.413 125.525 223.911 126.407 224.907C127.147 225.703 127.516 226.628 127.516 227.68C127.516 227.993 127.445 228.263 127.303 228.491C127.161 228.718 126.976 228.832 126.748 228.832ZM132.385 235.915C131.219 235.915 129.925 235.986 128.502 236.128C128.445 236.043 128.417 235.872 128.417 235.616C128.417 235.36 128.445 235.175 128.502 235.061C129.1 235.061 129.541 235.004 129.825 234.891C130.109 234.748 130.28 234.635 130.337 234.549C130.479 234.208 130.55 233.326 130.55 231.904V228.235C130.55 228.007 130.522 227.666 130.465 227.211C130.408 226.756 130.351 226.471 130.294 226.357C130.095 225.988 129.498 225.803 128.502 225.803C128.445 225.774 128.417 225.632 128.417 225.376C128.445 225.092 128.488 224.949 128.545 224.949C129.626 224.864 130.678 224.665 131.702 224.352C132.726 224.011 133.509 223.712 134.049 223.456C134.134 223.456 134.234 223.527 134.348 223.669C134.461 223.783 134.504 223.868 134.476 223.925C134.476 223.982 134.461 224.096 134.433 224.267C134.433 224.409 134.405 224.594 134.348 224.821C134.205 225.39 134.177 225.675 134.262 225.675C134.291 225.675 134.319 225.66 134.348 225.632C134.376 225.604 134.419 225.575 134.476 225.547C134.874 225.092 135.357 224.693 135.926 224.352C136.922 223.755 137.775 223.456 138.486 223.456C139.226 223.456 139.837 223.598 140.321 223.883C140.833 224.139 141.231 224.537 141.516 225.077C141.999 226.044 142.241 227.708 142.241 230.069V231.904C142.241 233.326 142.284 234.151 142.369 234.379C142.454 234.578 142.568 234.72 142.71 234.805C142.881 234.862 143.066 234.919 143.265 234.976C143.606 235.033 143.933 235.061 144.246 235.061C144.332 235.175 144.36 235.36 144.332 235.616C144.332 235.872 144.303 236.043 144.246 236.128C142.909 235.986 141.629 235.915 140.406 235.915C139.468 235.915 138.287 235.986 136.865 236.128C136.808 236.043 136.78 235.872 136.78 235.616C136.78 235.36 136.808 235.175 136.865 235.061C137.064 235.061 137.349 235.033 137.718 234.976C138.088 234.891 138.316 234.72 138.401 234.464C138.515 234.151 138.572 233.298 138.572 231.904V229.685C138.572 227.04 137.946 225.717 136.694 225.717C136.154 225.717 135.685 225.845 135.286 226.101C134.575 226.613 134.22 227.012 134.22 227.296V231.904C134.22 233.326 134.262 234.151 134.348 234.379C134.433 234.578 134.547 234.72 134.689 234.805C134.831 234.862 134.988 234.919 135.158 234.976C135.443 235.033 135.741 235.061 136.054 235.061C136.111 235.175 136.14 235.36 136.14 235.616C136.14 235.872 136.111 236.043 136.054 236.128C134.632 235.986 133.409 235.915 132.385 235.915ZM151.619 224.949C153.468 224.807 155.289 224.309 157.081 223.456C157.194 223.484 157.308 223.556 157.422 223.669C157.536 223.783 157.593 223.868 157.593 223.925C157.536 224.068 157.465 224.452 157.379 225.077C157.294 225.675 157.251 226.172 157.251 226.571V232.971C157.251 233.198 157.251 233.397 157.251 233.568C157.28 233.739 157.365 233.895 157.507 234.037C157.678 234.208 158.105 234.293 158.787 234.293C158.844 234.407 158.873 234.564 158.873 234.763C158.873 234.933 158.816 235.09 158.702 235.232C158.133 235.26 157.209 235.431 155.929 235.744C154.649 236.057 153.966 236.213 153.881 236.213C153.71 236.213 153.625 235.986 153.625 235.531V235.061C153.625 234.948 153.596 234.905 153.539 234.933C152.259 235.73 150.937 236.128 149.571 236.128C147.722 236.128 146.57 235.09 146.115 233.013C146.002 232.388 145.945 231.748 145.945 231.093V228.235C145.945 228.007 145.916 227.666 145.859 227.211C145.802 226.756 145.746 226.471 145.689 226.357C145.546 226.073 145.063 225.902 144.238 225.845C144.067 225.817 143.954 225.803 143.897 225.803C143.868 225.774 143.854 225.632 143.854 225.376C143.854 225.092 143.882 224.949 143.939 224.949C145.02 224.864 146.073 224.665 147.097 224.352C148.121 224.011 148.903 223.712 149.443 223.456C149.557 223.484 149.657 223.556 149.742 223.669C149.856 223.783 149.913 223.868 149.913 223.925C149.856 224.039 149.799 224.281 149.742 224.651C149.685 225.02 149.642 225.333 149.614 225.589C149.614 225.845 149.614 226.172 149.614 226.571V229.813C149.614 231.321 149.756 232.473 150.041 233.269C150.325 234.037 150.908 234.421 151.79 234.421C152.188 234.421 152.586 234.308 152.985 234.08C153.411 233.852 153.625 233.625 153.625 233.397V228.235C153.625 228.007 153.596 227.666 153.539 227.211C153.482 226.756 153.426 226.471 153.369 226.357C153.198 225.988 152.601 225.803 151.577 225.803C151.52 225.774 151.491 225.632 151.491 225.376C151.491 225.092 151.534 224.949 151.619 224.949ZM165.05 223.925C164.993 224.068 164.893 224.594 164.751 225.504V231.904C164.751 233.326 164.794 234.151 164.879 234.379C164.964 234.578 165.078 234.72 165.22 234.805C165.363 234.862 165.519 234.919 165.69 234.976C165.974 235.033 166.273 235.061 166.586 235.061C166.643 235.175 166.671 235.36 166.671 235.616C166.671 235.872 166.643 236.043 166.586 236.128C165.163 235.986 163.94 235.915 162.916 235.915C161.75 235.915 160.456 235.986 159.034 236.128C158.977 236.043 158.948 235.872 158.948 235.616C158.948 235.36 158.977 235.175 159.034 235.061C159.631 235.061 160.072 235.004 160.356 234.891C160.641 234.748 160.811 234.635 160.868 234.549C161.011 234.208 161.082 233.326 161.082 231.904V228.235C161.082 228.007 161.053 227.666 160.996 227.211C160.939 226.756 160.883 226.471 160.826 226.357C160.627 225.988 160.029 225.803 159.034 225.803C158.977 225.774 158.948 225.632 158.948 225.376C158.977 225.092 159.019 224.949 159.076 224.949C160.157 224.864 161.21 224.665 162.234 224.352C163.258 224.011 164.04 223.712 164.58 223.456C164.666 223.484 164.765 223.556 164.879 223.669C164.993 223.783 165.05 223.868 165.05 223.925ZM160.612 218.635C160.612 218.066 160.797 217.596 161.167 217.227C161.565 216.828 162.049 216.629 162.618 216.629C163.187 216.629 163.67 216.828 164.068 217.227C164.467 217.596 164.666 218.066 164.666 218.635C164.666 219.204 164.467 219.687 164.068 220.085C163.67 220.484 163.187 220.683 162.618 220.683C162.049 220.683 161.565 220.484 161.167 220.085C160.797 219.687 160.612 219.204 160.612 218.635ZM170.823 235.915C169.656 235.915 168.362 235.986 166.94 236.128C166.883 236.043 166.855 235.872 166.855 235.616C166.855 235.36 166.883 235.175 166.94 235.061C167.537 235.061 167.978 235.004 168.263 234.891C168.547 234.748 168.718 234.635 168.775 234.549C168.917 234.208 168.988 233.326 168.988 231.904V228.235C168.988 228.007 168.959 227.666 168.903 227.211C168.846 226.756 168.789 226.471 168.732 226.357C168.533 225.988 167.935 225.803 166.94 225.803C166.883 225.774 166.855 225.632 166.855 225.376C166.883 225.092 166.926 224.949 166.983 224.949C168.063 224.864 169.116 224.665 170.14 224.352C171.164 224.011 171.946 223.712 172.487 223.456C172.572 223.456 172.671 223.527 172.785 223.669C172.899 223.783 172.942 223.868 172.913 223.925C172.913 223.982 172.899 224.096 172.871 224.267C172.871 224.409 172.842 224.594 172.785 224.821C172.643 225.39 172.615 225.675 172.7 225.675C172.728 225.675 172.757 225.66 172.785 225.632C172.814 225.604 172.856 225.575 172.913 225.547C173.311 225.092 173.795 224.693 174.364 224.352C175.359 223.755 176.213 223.456 176.924 223.456C177.663 223.456 178.275 223.598 178.759 223.883C179.271 224.139 179.669 224.537 179.953 225.077C180.437 226.044 180.679 227.708 180.679 230.069V231.904C180.679 233.326 180.721 234.151 180.807 234.379C180.892 234.578 181.006 234.72 181.148 234.805C181.319 234.862 181.503 234.919 181.703 234.976C182.044 235.033 182.371 235.061 182.684 235.061C182.769 235.175 182.798 235.36 182.769 235.616C182.769 235.872 182.741 236.043 182.684 236.128C181.347 235.986 180.067 235.915 178.844 235.915C177.905 235.915 176.725 235.986 175.303 236.128C175.246 236.043 175.217 235.872 175.217 235.616C175.217 235.36 175.246 235.175 175.303 235.061C175.502 235.061 175.786 235.033 176.156 234.976C176.526 234.891 176.753 234.72 176.839 234.464C176.952 234.151 177.009 233.298 177.009 231.904V229.685C177.009 227.04 176.383 225.717 175.132 225.717C174.591 225.717 174.122 225.845 173.724 226.101C173.013 226.613 172.657 227.012 172.657 227.296V231.904C172.657 233.326 172.7 234.151 172.785 234.379C172.871 234.578 172.984 234.72 173.127 234.805C173.269 234.862 173.425 234.919 173.596 234.976C173.88 235.033 174.179 235.061 174.492 235.061C174.549 235.175 174.577 235.36 174.577 235.616C174.577 235.872 174.549 236.043 174.492 236.128C173.07 235.986 171.847 235.915 170.823 235.915ZM186.601 228.064C186.658 228.064 186.843 228.064 187.155 228.064C187.497 228.036 187.867 228.007 188.265 227.979C189.175 227.95 189.829 227.908 190.227 227.851C190.483 227.822 190.611 227.666 190.611 227.381C190.611 227.068 190.583 226.741 190.526 226.4C190.469 226.059 190.37 225.76 190.227 225.504C189.915 224.878 189.502 224.565 188.99 224.565C188.507 224.565 188.123 224.708 187.838 224.992C187.554 225.248 187.312 225.561 187.113 225.931C186.771 226.67 186.601 227.381 186.601 228.064ZM193.342 228.832C191.635 228.974 189.388 229.088 186.601 229.173C186.601 230.908 187.084 232.188 188.051 233.013C188.791 233.611 189.587 233.909 190.441 233.909C191.323 233.909 192.005 233.753 192.489 233.44C192.972 233.127 193.371 232.814 193.683 232.501C193.911 232.558 194.025 232.715 194.025 232.971C194.025 233.227 193.968 233.44 193.854 233.611C193.769 233.753 193.584 233.98 193.299 234.293C193.015 234.578 192.659 234.862 192.233 235.147C191.152 235.886 190.114 236.256 189.118 236.256C188.123 236.256 187.269 236.128 186.558 235.872C185.847 235.588 185.221 235.189 184.681 234.677C183.515 233.568 182.931 232.132 182.931 230.368C182.931 228.548 183.557 226.955 184.809 225.589C186.146 224.139 187.596 223.413 189.161 223.413C190.839 223.413 192.119 223.911 193.001 224.907C193.74 225.703 194.11 226.628 194.11 227.68C194.11 227.993 194.039 228.263 193.897 228.491C193.755 228.718 193.57 228.832 193.342 228.832ZM209.78 236.128C207.106 235.872 204.432 235.872 201.758 236.128C201.701 236.043 201.673 235.872 201.673 235.616C201.673 235.36 201.701 235.175 201.758 235.061C202.356 235.061 202.797 235.004 203.081 234.891C203.365 234.748 203.536 234.635 203.593 234.549C203.735 234.208 203.806 233.326 203.806 231.904V221.536C203.806 220.171 203.735 219.289 203.593 218.891C203.394 218.606 202.782 218.464 201.758 218.464C201.701 218.35 201.673 218.165 201.673 217.909C201.673 217.653 201.701 217.483 201.758 217.397C202.413 217.454 203.095 217.483 203.806 217.483H205.812L210.121 217.397C211.941 217.397 213.463 217.838 214.686 218.72C215.966 219.63 216.606 220.868 216.606 222.432C216.606 224.025 216.009 225.362 214.814 226.443C213.733 227.438 212.453 227.936 210.974 227.936C210.462 227.936 210.036 227.851 209.694 227.68C209.353 227.509 209.125 227.381 209.012 227.296C208.926 227.182 208.855 226.997 208.798 226.741C208.77 226.485 208.798 226.357 208.884 226.357C209.083 226.443 209.495 226.485 210.121 226.485C210.775 226.485 211.316 226.144 211.742 225.461C212.197 224.779 212.425 224.039 212.425 223.243C212.425 222.418 212.354 221.749 212.212 221.237C212.069 220.697 211.856 220.242 211.572 219.872C210.917 218.99 210.164 218.549 209.31 218.549C208.969 218.549 208.656 218.564 208.372 218.592C208.116 218.62 207.959 218.72 207.902 218.891C207.789 219.118 207.732 219.687 207.732 220.597V231.904C207.732 232.53 207.732 233.056 207.732 233.483C207.76 233.909 207.817 234.222 207.902 234.421C207.988 234.592 208.101 234.72 208.244 234.805C208.414 234.862 208.585 234.919 208.756 234.976C209.069 235.033 209.41 235.061 209.78 235.061C209.837 235.175 209.865 235.36 209.865 235.616C209.865 235.872 209.837 236.043 209.78 236.128ZM221.948 235.915C220.781 235.915 219.487 235.986 218.065 236.128C218.008 236.043 217.98 235.872 217.98 235.616C217.98 235.36 218.008 235.175 218.065 235.061C218.662 235.061 219.103 235.004 219.388 234.891C219.672 234.748 219.843 234.635 219.9 234.549C220.042 234.208 220.113 233.326 220.113 231.904V228.235C220.113 228.007 220.084 227.666 220.028 227.211C219.971 226.756 219.914 226.471 219.857 226.357C219.658 225.988 219.06 225.803 218.065 225.803C218.008 225.774 217.98 225.632 217.98 225.376C218.008 225.092 218.051 224.949 218.108 224.949C219.188 224.864 220.241 224.665 221.265 224.352C222.289 224.011 223.071 223.712 223.612 223.456C223.697 223.484 223.796 223.556 223.91 223.669C224.024 223.783 224.067 223.868 224.038 223.925C224.038 223.982 224.024 224.11 223.996 224.309C223.967 224.508 223.939 224.736 223.91 224.992C223.882 225.22 223.853 225.447 223.825 225.675C223.796 225.902 223.782 226.059 223.782 226.144C223.782 226.201 223.811 226.244 223.868 226.272C223.924 226.272 223.953 226.258 223.953 226.229C224.465 225.376 224.892 224.779 225.233 224.437C225.972 223.755 226.726 223.413 227.494 223.413C228.348 223.413 228.931 223.57 229.244 223.883C229.471 224.224 229.585 224.608 229.585 225.035C229.585 225.433 229.542 225.774 229.457 226.059C229.372 226.315 229.244 226.556 229.073 226.784C228.732 227.268 228.333 227.509 227.878 227.509C227.622 227.509 227.395 227.424 227.196 227.253C227.025 227.083 226.854 226.926 226.684 226.784C226.541 226.642 226.385 226.514 226.214 226.4C226.072 226.258 225.873 226.187 225.617 226.187C225.361 226.187 225.119 226.286 224.892 226.485C224.664 226.656 224.465 226.869 224.294 227.125C223.953 227.637 223.782 228.092 223.782 228.491V231.904C223.782 233.326 223.825 234.151 223.91 234.379C223.996 234.578 224.109 234.72 224.252 234.805C224.394 234.862 224.55 234.919 224.721 234.976C225.005 235.033 225.304 235.061 225.617 235.061C225.674 235.175 225.702 235.36 225.702 235.616C225.702 235.872 225.674 236.043 225.617 236.128C224.195 235.986 222.972 235.915 221.948 235.915ZM236.911 224.565C235.631 224.565 234.92 225.618 234.777 227.723C234.721 228.292 234.692 228.86 234.692 229.429C234.692 229.998 234.735 230.624 234.82 231.307C234.934 231.961 235.119 232.558 235.375 233.099C235.915 234.379 236.641 235.019 237.551 235.019C238.888 235.019 239.641 233.98 239.812 231.904C239.841 231.364 239.855 230.809 239.855 230.24C239.855 229.671 239.798 229.045 239.684 228.363C239.57 227.68 239.385 227.068 239.129 226.528C238.589 225.22 237.849 224.565 236.911 224.565ZM237.252 223.413C238.219 223.413 239.101 223.57 239.897 223.883C240.722 224.196 241.433 224.636 242.031 225.205C243.254 226.4 243.865 227.893 243.865 229.685C243.865 231.449 243.225 232.985 241.945 234.293C240.722 235.573 239.172 236.213 237.295 236.213C235.332 236.213 233.739 235.602 232.516 234.379C231.293 233.156 230.681 231.662 230.681 229.899C230.681 228.164 231.307 226.642 232.559 225.333C233.81 224.053 235.375 223.413 237.252 223.413ZM248.487 235.915C247.321 235.915 246.027 235.986 244.605 236.128C244.548 236.043 244.519 235.872 244.519 235.616C244.519 235.36 244.548 235.175 244.605 235.061C245.202 235.061 245.643 235.004 245.927 234.891C246.212 234.748 246.382 234.635 246.439 234.549C246.581 234.208 246.653 233.326 246.653 231.904V225.291H244.647C244.562 225.234 244.519 225.106 244.519 224.907C244.747 224.565 245.045 224.252 245.415 223.968H246.653V223.541C246.653 221.749 247.364 220.071 248.786 218.507C249.383 217.824 250.009 217.298 250.663 216.928C251.346 216.53 251.943 216.331 252.455 216.331C252.996 216.331 253.607 216.43 254.29 216.629C254.517 216.772 254.759 216.942 255.015 217.141C255.271 217.312 255.399 217.611 255.399 218.037C255.399 218.436 255.271 218.848 255.015 219.275C254.788 219.673 254.446 219.872 253.991 219.872C253.536 219.872 253.166 219.758 252.882 219.531C252.626 219.275 252.341 219.019 252.029 218.763C251.716 218.507 251.36 218.379 250.962 218.379C250.734 218.379 250.535 218.606 250.365 219.061C250.194 219.488 250.109 220.028 250.109 220.683C250.109 221.508 250.151 222.603 250.237 223.968H253.522C253.636 223.968 253.693 224.11 253.693 224.395C253.693 224.651 253.479 224.949 253.053 225.291H250.322V231.904C250.322 233.326 250.365 234.151 250.45 234.379C250.535 234.578 250.649 234.72 250.791 234.805C250.962 234.862 251.147 234.919 251.346 234.976C251.687 235.033 252.014 235.061 252.327 235.061C252.413 235.175 252.441 235.36 252.413 235.616C252.413 235.872 252.384 236.043 252.327 236.128C250.99 235.986 249.71 235.915 248.487 235.915ZM259.487 223.925C259.43 224.068 259.331 224.594 259.188 225.504V231.904C259.188 233.326 259.231 234.151 259.316 234.379C259.402 234.578 259.516 234.72 259.658 234.805C259.8 234.862 259.956 234.919 260.127 234.976C260.412 235.033 260.71 235.061 261.023 235.061C261.08 235.175 261.108 235.36 261.108 235.616C261.108 235.872 261.08 236.043 261.023 236.128C259.601 235.986 258.378 235.915 257.354 235.915C256.188 235.915 254.893 235.986 253.471 236.128C253.414 236.043 253.386 235.872 253.386 235.616C253.386 235.36 253.414 235.175 253.471 235.061C254.068 235.061 254.509 235.004 254.794 234.891C255.078 234.748 255.249 234.635 255.306 234.549C255.448 234.208 255.519 233.326 255.519 231.904V228.235C255.519 228.007 255.491 227.666 255.434 227.211C255.377 226.756 255.32 226.471 255.263 226.357C255.064 225.988 254.467 225.803 253.471 225.803C253.414 225.774 253.386 225.632 253.386 225.376C253.414 225.092 253.457 224.949 253.514 224.949C254.595 224.864 255.647 224.665 256.671 224.352C257.695 224.011 258.477 223.712 259.018 223.456C259.103 223.484 259.203 223.556 259.316 223.669C259.43 223.783 259.487 223.868 259.487 223.925ZM255.05 218.635C255.05 218.066 255.235 217.596 255.604 217.227C256.003 216.828 256.486 216.629 257.055 216.629C257.624 216.629 258.108 216.828 258.506 217.227C258.904 217.596 259.103 218.066 259.103 218.635C259.103 219.204 258.904 219.687 258.506 220.085C258.108 220.484 257.624 220.683 257.055 220.683C256.486 220.683 256.003 220.484 255.604 220.085C255.235 219.687 255.05 219.204 255.05 218.635ZM268.716 236.128C267.294 235.986 266 235.915 264.833 235.915C263.696 235.915 262.416 235.986 260.993 236.128C260.936 236.043 260.908 235.872 260.908 235.616C260.908 235.36 260.936 235.175 260.993 235.061C261.591 235.061 262.032 235.004 262.316 234.891C262.6 234.748 262.757 234.635 262.785 234.549C262.928 234.265 262.999 233.909 262.999 233.483C263.027 233.056 263.041 232.53 263.041 231.904V220.299C263.041 219.673 262.999 219.275 262.913 219.104C262.828 218.905 262.7 218.777 262.529 218.72C262.387 218.663 262.231 218.62 262.06 218.592C261.662 218.478 261.363 218.421 261.164 218.421C261.107 218.421 261.064 218.293 261.036 218.037C261.036 217.753 261.079 217.582 261.164 217.525C263.07 217.326 264.734 216.999 266.156 216.544C266.412 216.459 266.554 216.416 266.583 216.416C266.782 216.473 266.924 216.644 267.009 216.928C266.952 217.269 266.896 217.596 266.839 217.909C266.753 218.336 266.711 218.962 266.711 219.787V231.904C266.711 233.326 266.753 234.151 266.839 234.379C266.924 234.578 267.038 234.72 267.18 234.805C267.351 234.862 267.521 234.919 267.692 234.976C268.005 235.033 268.346 235.061 268.716 235.061C268.773 235.175 268.801 235.36 268.801 235.616C268.801 235.872 268.773 236.043 268.716 236.128ZM272.413 228.064C272.47 228.064 272.655 228.064 272.968 228.064C273.309 228.036 273.679 228.007 274.077 227.979C274.988 227.95 275.642 227.908 276.04 227.851C276.296 227.822 276.424 227.666 276.424 227.381C276.424 227.068 276.396 226.741 276.339 226.4C276.282 226.059 276.182 225.76 276.04 225.504C275.727 224.878 275.315 224.565 274.803 224.565C274.319 224.565 273.935 224.708 273.651 224.992C273.366 225.248 273.124 225.561 272.925 225.931C272.584 226.67 272.413 227.381 272.413 228.064ZM279.155 228.832C277.448 228.974 275.201 229.088 272.413 229.173C272.413 230.908 272.897 232.188 273.864 233.013C274.604 233.611 275.4 233.909 276.253 233.909C277.135 233.909 277.818 233.753 278.301 233.44C278.785 233.127 279.183 232.814 279.496 232.501C279.724 232.558 279.837 232.715 279.837 232.971C279.837 233.227 279.78 233.44 279.667 233.611C279.581 233.753 279.396 233.98 279.112 234.293C278.828 234.578 278.472 234.862 278.045 235.147C276.964 235.886 275.926 236.256 274.931 236.256C273.935 236.256 273.082 236.128 272.371 235.872C271.66 235.588 271.034 235.189 270.493 234.677C269.327 233.568 268.744 232.132 268.744 230.368C268.744 228.548 269.37 226.955 270.621 225.589C271.958 224.139 273.409 223.413 274.973 223.413C276.652 223.413 277.932 223.911 278.813 224.907C279.553 225.703 279.923 226.628 279.923 227.68C279.923 227.993 279.852 228.263 279.709 228.491C279.567 228.718 279.382 228.832 279.155 228.832ZM281.378 231.989C281.378 231.847 281.52 231.776 281.805 231.776C282.089 231.776 282.288 231.876 282.402 232.075C282.601 233.184 283.028 233.995 283.682 234.507C284.166 234.905 284.706 235.104 285.303 235.104C285.901 235.104 286.342 234.948 286.626 234.635C286.91 234.322 287.053 233.98 287.053 233.611C287.053 233.241 286.953 232.942 286.754 232.715C286.583 232.459 286.356 232.245 286.071 232.075C285.815 231.904 285.517 231.733 285.175 231.563C283.924 230.994 282.871 230.311 282.018 229.515C281.449 228.974 281.165 228.292 281.165 227.467C281.165 226.613 281.335 225.945 281.677 225.461C282.018 224.978 282.445 224.58 282.957 224.267C283.924 223.669 285.076 223.371 286.413 223.371C287.067 223.371 287.636 223.442 288.119 223.584C288.603 223.698 289.086 223.812 289.57 223.925C289.741 224.636 289.883 225.362 289.997 226.101C290.11 226.841 290.167 227.282 290.167 227.424C290.167 227.538 290.039 227.595 289.783 227.595C289.527 227.595 289.314 227.509 289.143 227.339C288.916 226.514 288.66 225.916 288.375 225.547C287.778 224.864 287.038 224.523 286.157 224.523C285.673 224.523 285.275 224.651 284.962 224.907C284.678 225.163 284.535 225.504 284.535 225.931C284.535 226.357 284.621 226.699 284.791 226.955C284.99 227.211 285.218 227.438 285.474 227.637C285.758 227.808 286.071 227.964 286.413 228.107C286.754 228.249 287.095 228.405 287.437 228.576C287.778 228.718 288.134 228.889 288.503 229.088C288.873 229.287 289.2 229.529 289.485 229.813C290.139 230.468 290.466 231.236 290.466 232.117C290.466 232.971 290.31 233.639 289.997 234.123C289.684 234.606 289.271 235.004 288.759 235.317C287.792 235.915 286.512 236.213 284.919 236.213C284.265 236.213 283.639 236.142 283.042 236C282.445 235.829 281.961 235.701 281.591 235.616C281.534 235.218 281.492 234.706 281.463 234.08C281.435 233.426 281.406 232.942 281.378 232.629C281.378 232.288 281.378 232.075 281.378 231.989Z" fill="#C1645C" fill-opacity="0.2"/>
<path d="M54.4753 274.8C54.4753 273.933 54.622 273.087 54.9153 272.26C55.222 271.42 55.662 270.66 56.2353 269.98C56.822 269.287 57.5353 268.74 58.3753 268.34C59.2153 267.927 60.1686 267.72 61.2353 267.72C62.502 267.72 63.5886 268.013 64.4953 268.6C65.402 269.173 66.0753 269.913 66.5153 270.82L65.0953 271.74C64.8153 271.14 64.4553 270.667 64.0153 270.32C63.5886 269.96 63.122 269.707 62.6153 269.56C62.122 269.413 61.6353 269.34 61.1553 269.34C60.3686 269.34 59.6686 269.5 59.0553 269.82C58.4553 270.14 57.9486 270.567 57.5353 271.1C57.122 271.633 56.8086 272.233 56.5953 272.9C56.3953 273.553 56.2953 274.213 56.2953 274.88C56.2953 275.613 56.4153 276.32 56.6553 277C56.9086 277.68 57.2553 278.28 57.6953 278.8C58.1353 279.32 58.6553 279.733 59.2553 280.04C59.8553 280.347 60.5086 280.5 61.2153 280.5C61.7086 280.5 62.2153 280.413 62.7353 280.24C63.2553 280.067 63.742 279.8 64.1953 279.44C64.6486 279.067 65.0086 278.587 65.2753 278L66.7753 278.82C66.482 279.527 66.0286 280.127 65.4153 280.62C64.802 281.113 64.1153 281.487 63.3553 281.74C62.6086 281.993 61.8686 282.12 61.1353 282.12C60.162 282.12 59.2686 281.913 58.4553 281.5C57.642 281.073 56.9353 280.513 56.3353 279.82C55.7486 279.113 55.2886 278.327 54.9553 277.46C54.6353 276.58 54.4753 275.693 54.4753 274.8ZM73.3081 282.2C72.5215 282.2 71.8081 282.06 71.1681 281.78C70.5281 281.487 69.9748 281.093 69.5081 280.6C69.0415 280.093 68.6815 279.513 68.4281 278.86C68.1748 278.207 68.0481 277.52 68.0481 276.8C68.0481 276.067 68.1748 275.373 68.4281 274.72C68.6815 274.067 69.0415 273.493 69.5081 273C69.9748 272.493 70.5281 272.1 71.1681 271.82C71.8215 271.527 72.5348 271.38 73.3081 271.38C74.0948 271.38 74.8081 271.527 75.4481 271.82C76.0881 272.1 76.6415 272.493 77.1081 273C77.5881 273.493 77.9548 274.067 78.2081 274.72C78.4615 275.373 78.5881 276.067 78.5881 276.8C78.5881 277.52 78.4615 278.207 78.2081 278.86C77.9548 279.513 77.5948 280.093 77.1281 280.6C76.6615 281.093 76.1015 281.487 75.4481 281.78C74.8081 282.06 74.0948 282.2 73.3081 282.2ZM69.8481 276.82C69.8481 277.54 70.0015 278.193 70.3081 278.78C70.6281 279.367 71.0481 279.833 71.5681 280.18C72.0881 280.513 72.6681 280.68 73.3081 280.68C73.9481 280.68 74.5281 280.507 75.0481 280.16C75.5815 279.813 76.0015 279.347 76.3081 278.76C76.6281 278.16 76.7881 277.5 76.7881 276.78C76.7881 276.06 76.6281 275.407 76.3081 274.82C76.0015 274.233 75.5815 273.767 75.0481 273.42C74.5281 273.073 73.9481 272.9 73.3081 272.9C72.6681 272.9 72.0881 273.08 71.5681 273.44C71.0481 273.787 70.6281 274.253 70.3081 274.84C70.0015 275.427 69.8481 276.087 69.8481 276.82ZM89.7808 282H88.0208V276.16C88.0208 275.053 87.8474 274.247 87.5008 273.74C87.1674 273.22 86.6541 272.96 85.9608 272.96C85.4808 272.96 85.0008 273.08 84.5208 273.32C84.0541 273.56 83.6341 273.887 83.2608 274.3C82.9008 274.7 82.6408 275.167 82.4808 275.7V282H80.7208V271.56H82.3208V273.8C82.6008 273.307 82.9608 272.88 83.4008 272.52C83.8408 272.16 84.3408 271.88 84.9008 271.68C85.4608 271.48 86.0474 271.38 86.6608 271.38C87.2608 271.38 87.7608 271.493 88.1608 271.72C88.5741 271.933 88.8941 272.24 89.1208 272.64C89.3608 273.027 89.5274 273.487 89.6208 274.02C89.7274 274.553 89.7808 275.133 89.7808 275.76V282ZM97.82 281.48C97.6733 281.547 97.4733 281.633 97.22 281.74C96.9667 281.847 96.6733 281.94 96.34 282.02C96.0067 282.1 95.6533 282.14 95.28 282.14C94.8533 282.14 94.46 282.067 94.1 281.92C93.74 281.76 93.4533 281.52 93.24 281.2C93.0267 280.867 92.92 280.453 92.92 279.96V272.94H91.5V271.56H92.92V268.08H94.68V271.56H97.02V272.94H94.68V279.42C94.7067 279.793 94.8333 280.073 95.06 280.26C95.2867 280.433 95.5533 280.52 95.86 280.52C96.2067 280.52 96.5267 280.46 96.82 280.34C97.1133 280.22 97.3067 280.133 97.4 280.08L97.82 281.48ZM98.6313 278.98C98.6313 278.313 98.8179 277.74 99.1913 277.26C99.5779 276.767 100.105 276.387 100.771 276.12C101.438 275.853 102.211 275.72 103.091 275.72C103.558 275.72 104.051 275.76 104.571 275.84C105.091 275.907 105.551 276.013 105.951 276.16V275.4C105.951 274.6 105.711 273.973 105.231 273.52C104.751 273.053 104.071 272.82 103.191 272.82C102.618 272.82 102.065 272.927 101.531 273.14C101.011 273.34 100.458 273.633 99.8713 274.02L99.2313 272.78C99.9113 272.313 100.591 271.967 101.271 271.74C101.951 271.5 102.658 271.38 103.391 271.38C104.725 271.38 105.778 271.753 106.551 272.5C107.325 273.233 107.711 274.26 107.711 275.58V280C107.711 280.213 107.751 280.373 107.831 280.48C107.925 280.573 108.071 280.627 108.271 280.64V282C108.098 282.027 107.945 282.047 107.811 282.06C107.691 282.073 107.591 282.08 107.511 282.08C107.098 282.08 106.785 281.967 106.571 281.74C106.371 281.513 106.258 281.273 106.231 281.02L106.191 280.36C105.738 280.947 105.145 281.4 104.411 281.72C103.678 282.04 102.951 282.2 102.231 282.2C101.538 282.2 100.918 282.06 100.371 281.78C99.8246 281.487 99.3979 281.1 99.0913 280.62C98.7846 280.127 98.6313 279.58 98.6313 278.98ZM105.431 279.72C105.591 279.533 105.718 279.347 105.811 279.16C105.905 278.96 105.951 278.793 105.951 278.66V277.36C105.538 277.2 105.105 277.08 104.651 277C104.198 276.907 103.751 276.86 103.311 276.86C102.418 276.86 101.691 277.04 101.131 277.4C100.585 277.747 100.311 278.227 100.311 278.84C100.311 279.173 100.398 279.5 100.571 279.82C100.758 280.127 101.025 280.38 101.371 280.58C101.731 280.78 102.171 280.88 102.691 280.88C103.238 280.88 103.758 280.773 104.251 280.56C104.745 280.333 105.138 280.053 105.431 279.72ZM115.145 282.2C114.359 282.2 113.639 282.06 112.985 281.78C112.345 281.487 111.785 281.087 111.305 280.58C110.839 280.073 110.472 279.493 110.205 278.84C109.952 278.187 109.825 277.493 109.825 276.76C109.825 275.773 110.045 274.873 110.485 274.06C110.925 273.247 111.545 272.6 112.345 272.12C113.145 271.627 114.072 271.38 115.125 271.38C116.152 271.38 117.045 271.613 117.805 272.08C118.579 272.533 119.152 273.147 119.525 273.92L117.805 274.46C117.539 273.967 117.165 273.587 116.685 273.32C116.205 273.04 115.672 272.9 115.085 272.9C114.445 272.9 113.859 273.067 113.325 273.4C112.805 273.733 112.392 274.193 112.085 274.78C111.779 275.353 111.625 276.013 111.625 276.76C111.625 277.493 111.779 278.16 112.085 278.76C112.405 279.347 112.825 279.813 113.345 280.16C113.879 280.507 114.465 280.68 115.105 280.68C115.519 280.68 115.912 280.607 116.285 280.46C116.672 280.313 117.005 280.12 117.285 279.88C117.579 279.627 117.779 279.353 117.885 279.06L119.605 279.58C119.392 280.087 119.065 280.54 118.625 280.94C118.199 281.327 117.685 281.633 117.085 281.86C116.499 282.087 115.852 282.2 115.145 282.2ZM127 281.48C126.853 281.547 126.653 281.633 126.4 281.74C126.146 281.847 125.853 281.94 125.52 282.02C125.186 282.1 124.833 282.14 124.46 282.14C124.033 282.14 123.64 282.067 123.28 281.92C122.92 281.76 122.633 281.52 122.42 281.2C122.206 280.867 122.1 280.453 122.1 279.96V272.94H120.68V271.56H122.1V268.08H123.86V271.56H126.2V272.94H123.86V279.42C123.886 279.793 124.013 280.073 124.24 280.26C124.466 280.433 124.733 280.52 125.04 280.52C125.386 280.52 125.706 280.46 126 280.34C126.293 280.22 126.486 280.133 126.58 280.08L127 281.48ZM139.67 282.1C138.736 282.1 137.863 281.9 137.05 281.5C136.25 281.087 135.55 280.54 134.95 279.86C134.35 279.167 133.883 278.393 133.55 277.54C133.216 276.673 133.05 275.78 133.05 274.86C133.05 273.9 133.216 272.993 133.55 272.14C133.883 271.273 134.343 270.507 134.93 269.84C135.53 269.173 136.23 268.653 137.03 268.28C137.843 267.893 138.723 267.7 139.67 267.7C141.043 267.7 142.176 267.987 143.07 268.56C143.963 269.133 144.636 269.88 145.09 270.8L143.71 271.76C143.296 270.933 142.73 270.32 142.01 269.92C141.29 269.52 140.496 269.32 139.63 269.32C138.91 269.32 138.256 269.473 137.67 269.78C137.083 270.087 136.576 270.507 136.15 271.04C135.736 271.56 135.416 272.153 135.19 272.82C134.976 273.487 134.87 274.18 134.87 274.9C134.87 275.66 134.99 276.38 135.23 277.06C135.483 277.727 135.836 278.32 136.29 278.84C136.743 279.347 137.27 279.747 137.87 280.04C138.47 280.333 139.116 280.48 139.81 280.48C140.623 280.48 141.396 280.273 142.13 279.86C142.863 279.447 143.556 278.813 144.21 277.96V279.82C142.93 281.34 141.416 282.1 139.67 282.1ZM143.99 276.28H140.93V274.92H145.51V282H143.99V276.28ZM152.587 282.2C151.8 282.2 151.08 282.06 150.427 281.78C149.787 281.487 149.227 281.093 148.747 280.6C148.28 280.093 147.914 279.513 147.647 278.86C147.394 278.207 147.267 277.513 147.267 276.78C147.267 275.793 147.494 274.893 147.947 274.08C148.4 273.267 149.027 272.613 149.827 272.12C150.64 271.627 151.567 271.38 152.607 271.38C153.66 271.38 154.574 271.633 155.347 272.14C156.134 272.633 156.74 273.287 157.167 274.1C157.607 274.9 157.827 275.767 157.827 276.7C157.827 276.833 157.82 276.967 157.807 277.1C157.807 277.22 157.8 277.313 157.787 277.38H149.127C149.18 278.06 149.367 278.667 149.687 279.2C150.02 279.72 150.447 280.133 150.967 280.44C151.487 280.733 152.047 280.88 152.647 280.88C153.287 280.88 153.887 280.72 154.447 280.4C155.02 280.08 155.414 279.66 155.627 279.14L157.147 279.56C156.92 280.067 156.58 280.52 156.127 280.92C155.687 281.32 155.16 281.633 154.547 281.86C153.947 282.087 153.294 282.2 152.587 282.2ZM149.067 276.16H156.187C156.134 275.48 155.94 274.88 155.607 274.36C155.274 273.84 154.847 273.433 154.327 273.14C153.807 272.847 153.234 272.7 152.607 272.7C151.994 272.7 151.427 272.847 150.907 273.14C150.387 273.433 149.96 273.84 149.627 274.36C149.307 274.88 149.12 275.48 149.067 276.16ZM168.843 282H167.083V276.16C167.083 275.053 166.91 274.247 166.563 273.74C166.23 273.22 165.717 272.96 165.023 272.96C164.543 272.96 164.063 273.08 163.583 273.32C163.117 273.56 162.697 273.887 162.323 274.3C161.963 274.7 161.703 275.167 161.543 275.7V282H159.783V271.56H161.383V273.8C161.663 273.307 162.023 272.88 162.463 272.52C162.903 272.16 163.403 271.88 163.963 271.68C164.523 271.48 165.11 271.38 165.723 271.38C166.323 271.38 166.823 271.493 167.223 271.72C167.637 271.933 167.957 272.24 168.183 272.64C168.423 273.027 168.59 273.487 168.683 274.02C168.79 274.553 168.843 275.133 168.843 275.76V282ZM171.48 277.82V271.56H173.24V277.48C173.24 278.547 173.427 279.347 173.8 279.88C174.173 280.413 174.727 280.68 175.46 280.68C175.94 280.68 176.4 280.58 176.84 280.38C177.293 280.167 177.7 279.867 178.06 279.48C178.42 279.093 178.7 278.633 178.9 278.1V271.56H180.66V280C180.66 280.213 180.7 280.373 180.78 280.48C180.873 280.573 181.02 280.627 181.22 280.64V282C181.02 282.027 180.86 282.04 180.74 282.04C180.633 282.053 180.527 282.06 180.42 282.06C180.087 282.06 179.8 281.96 179.56 281.76C179.32 281.547 179.193 281.287 179.18 280.98L179.14 279.76C178.687 280.533 178.073 281.133 177.3 281.56C176.54 281.987 175.707 282.2 174.8 282.2C173.707 282.2 172.88 281.833 172.32 281.1C171.76 280.353 171.48 279.26 171.48 277.82ZM183.592 282V271.56H185.352V282H183.592ZM183.592 269.6V267.4H185.352V269.6H183.592ZM197.261 282H195.501V276.16C195.501 275.053 195.328 274.247 194.981 273.74C194.648 273.22 194.135 272.96 193.441 272.96C192.961 272.96 192.481 273.08 192.001 273.32C191.535 273.56 191.115 273.887 190.741 274.3C190.381 274.7 190.121 275.167 189.961 275.7V282H188.201V271.56H189.801V273.8C190.081 273.307 190.441 272.88 190.881 272.52C191.321 272.16 191.821 271.88 192.381 271.68C192.941 271.48 193.528 271.38 194.141 271.38C194.741 271.38 195.241 271.493 195.641 271.72C196.055 271.933 196.375 272.24 196.601 272.64C196.841 273.027 197.008 273.487 197.101 274.02C197.208 274.553 197.261 275.133 197.261 275.76V282ZM204.618 282.2C203.831 282.2 203.111 282.06 202.458 281.78C201.818 281.487 201.258 281.093 200.778 280.6C200.311 280.093 199.945 279.513 199.678 278.86C199.425 278.207 199.298 277.513 199.298 276.78C199.298 275.793 199.525 274.893 199.978 274.08C200.431 273.267 201.058 272.613 201.858 272.12C202.671 271.627 203.598 271.38 204.638 271.38C205.691 271.38 206.605 271.633 207.378 272.14C208.165 272.633 208.771 273.287 209.198 274.1C209.638 274.9 209.858 275.767 209.858 276.7C209.858 276.833 209.851 276.967 209.838 277.1C209.838 277.22 209.831 277.313 209.818 277.38H201.158C201.211 278.06 201.398 278.667 201.718 279.2C202.051 279.72 202.478 280.133 202.998 280.44C203.518 280.733 204.078 280.88 204.678 280.88C205.318 280.88 205.918 280.72 206.478 280.4C207.051 280.08 207.445 279.66 207.658 279.14L209.178 279.56C208.951 280.067 208.611 280.52 208.158 280.92C207.718 281.32 207.191 281.633 206.578 281.86C205.978 282.087 205.325 282.2 204.618 282.2ZM201.098 276.16H208.218C208.165 275.48 207.971 274.88 207.638 274.36C207.305 273.84 206.878 273.433 206.358 273.14C205.838 272.847 205.265 272.7 204.638 272.7C204.025 272.7 203.458 272.847 202.938 273.14C202.418 273.433 201.991 273.84 201.658 274.36C201.338 274.88 201.151 275.48 201.098 276.16ZM217.153 282V267.8H223.073C223.7 267.8 224.273 267.933 224.793 268.2C225.313 268.453 225.766 268.8 226.153 269.24C226.54 269.667 226.84 270.153 227.053 270.7C227.266 271.233 227.373 271.78 227.373 272.34C227.373 273.113 227.2 273.853 226.853 274.56C226.506 275.253 226.02 275.82 225.393 276.26C224.766 276.687 224.033 276.9 223.193 276.9H218.953V282H217.153ZM218.953 275.3H223.093C223.586 275.3 224.013 275.167 224.373 274.9C224.746 274.633 225.033 274.273 225.233 273.82C225.446 273.367 225.553 272.873 225.553 272.34C225.553 271.78 225.433 271.28 225.193 270.84C224.953 270.387 224.64 270.033 224.253 269.78C223.866 269.527 223.44 269.4 222.973 269.4H218.953V275.3ZM234.854 273.1C233.974 273.113 233.194 273.34 232.514 273.78C231.847 274.207 231.374 274.8 231.094 275.56V282H229.334V271.56H230.974V273.98C231.334 273.26 231.807 272.68 232.394 272.24C232.994 271.787 233.621 271.533 234.274 271.48C234.407 271.48 234.521 271.48 234.614 271.48C234.707 271.48 234.787 271.487 234.854 271.5V273.1ZM240.906 282.2C240.119 282.2 239.406 282.06 238.766 281.78C238.126 281.487 237.572 281.093 237.106 280.6C236.639 280.093 236.279 279.513 236.026 278.86C235.772 278.207 235.646 277.52 235.646 276.8C235.646 276.067 235.772 275.373 236.026 274.72C236.279 274.067 236.639 273.493 237.106 273C237.572 272.493 238.126 272.1 238.766 271.82C239.419 271.527 240.132 271.38 240.906 271.38C241.692 271.38 242.406 271.527 243.046 271.82C243.686 272.1 244.239 272.493 244.706 273C245.186 273.493 245.552 274.067 245.806 274.72C246.059 275.373 246.186 276.067 246.186 276.8C246.186 277.52 246.059 278.207 245.806 278.86C245.552 279.513 245.192 280.093 244.726 280.6C244.259 281.093 243.699 281.487 243.046 281.78C242.406 282.06 241.692 282.2 240.906 282.2ZM237.446 276.82C237.446 277.54 237.599 278.193 237.906 278.78C238.226 279.367 238.646 279.833 239.166 280.18C239.686 280.513 240.266 280.68 240.906 280.68C241.546 280.68 242.126 280.507 242.646 280.16C243.179 279.813 243.599 279.347 243.906 278.76C244.226 278.16 244.386 277.5 244.386 276.78C244.386 276.06 244.226 275.407 243.906 274.82C243.599 274.233 243.179 273.767 242.646 273.42C242.126 273.073 241.546 272.9 240.906 272.9C240.266 272.9 239.686 273.08 239.166 273.44C238.646 273.787 238.226 274.253 237.906 274.84C237.599 275.427 237.446 276.087 237.446 276.82ZM248.703 272.94H247.283V271.56H248.703V271.34C248.703 270.82 248.783 270.32 248.943 269.84C249.103 269.347 249.343 268.9 249.663 268.5C249.983 268.1 250.383 267.787 250.863 267.56C251.343 267.32 251.909 267.2 252.563 267.2C253.056 267.2 253.509 267.253 253.923 267.36C254.336 267.467 254.703 267.6 255.023 267.76C255.356 267.92 255.629 268.08 255.843 268.24L255.083 269.54C254.829 269.313 254.483 269.12 254.043 268.96C253.616 268.8 253.156 268.72 252.663 268.72C252.156 268.72 251.736 268.847 251.403 269.1C251.083 269.353 250.843 269.68 250.683 270.08C250.536 270.467 250.463 270.867 250.463 271.28V271.56H255.803V282H254.043V272.94H250.463V282H248.703V272.94ZM258.69 267.4H260.45V279.3C260.45 279.873 260.53 280.227 260.69 280.36C260.85 280.493 261.044 280.56 261.27 280.56C261.55 280.56 261.817 280.533 262.07 280.48C262.324 280.413 262.537 280.347 262.71 280.28L262.99 281.72C262.697 281.84 262.35 281.94 261.95 282.02C261.55 282.1 261.197 282.14 260.89 282.14C260.21 282.14 259.67 281.947 259.27 281.56C258.884 281.173 258.69 280.633 258.69 279.94V267.4ZM268.993 282.2C268.206 282.2 267.486 282.06 266.833 281.78C266.193 281.487 265.633 281.093 265.153 280.6C264.686 280.093 264.32 279.513 264.053 278.86C263.8 278.207 263.673 277.513 263.673 276.78C263.673 275.793 263.9 274.893 264.353 274.08C264.806 273.267 265.433 272.613 266.233 272.12C267.046 271.627 267.973 271.38 269.013 271.38C270.066 271.38 270.98 271.633 271.753 272.14C272.54 272.633 273.146 273.287 273.573 274.1C274.013 274.9 274.233 275.767 274.233 276.7C274.233 276.833 274.226 276.967 274.213 277.1C274.213 277.22 274.206 277.313 274.193 277.38H265.533C265.586 278.06 265.773 278.667 266.093 279.2C266.426 279.72 266.853 280.133 267.373 280.44C267.893 280.733 268.453 280.88 269.053 280.88C269.693 280.88 270.293 280.72 270.853 280.4C271.426 280.08 271.82 279.66 272.033 279.14L273.553 279.56C273.326 280.067 272.986 280.52 272.533 280.92C272.093 281.32 271.566 281.633 270.953 281.86C270.353 282.087 269.7 282.2 268.993 282.2ZM265.473 276.16H272.593C272.54 275.48 272.346 274.88 272.013 274.36C271.68 273.84 271.253 273.433 270.733 273.14C270.213 272.847 269.64 272.7 269.013 272.7C268.4 272.7 267.833 272.847 267.313 273.14C266.793 273.433 266.366 273.84 266.033 274.36C265.713 274.88 265.526 275.48 265.473 276.16ZM279.77 282.2C278.903 282.2 278.09 282.06 277.33 281.78C276.57 281.487 275.916 281.053 275.37 280.48L276.05 279.24C276.65 279.8 277.25 280.2 277.85 280.44C278.45 280.68 279.063 280.8 279.69 280.8C280.41 280.8 280.996 280.667 281.45 280.4C281.903 280.12 282.13 279.713 282.13 279.18C282.13 278.793 282.01 278.507 281.77 278.32C281.543 278.133 281.216 277.98 280.79 277.86C280.363 277.727 279.856 277.58 279.27 277.42C278.55 277.207 277.943 276.98 277.45 276.74C276.956 276.5 276.583 276.2 276.33 275.84C276.076 275.48 275.95 275.027 275.95 274.48C275.95 273.813 276.123 273.253 276.47 272.8C276.816 272.333 277.29 271.98 277.89 271.74C278.503 271.5 279.196 271.38 279.97 271.38C280.743 271.38 281.443 271.5 282.07 271.74C282.696 271.98 283.236 272.333 283.69 272.8L282.89 274.02C282.476 273.593 282.023 273.28 281.53 273.08C281.036 272.867 280.483 272.76 279.87 272.76C279.51 272.76 279.156 272.807 278.81 272.9C278.463 272.98 278.176 273.133 277.95 273.36C277.723 273.573 277.61 273.88 277.61 274.28C277.61 274.613 277.696 274.88 277.87 275.08C278.056 275.267 278.323 275.427 278.67 275.56C279.03 275.693 279.463 275.84 279.97 276C280.756 276.227 281.436 276.453 282.01 276.68C282.596 276.907 283.05 277.2 283.37 277.56C283.69 277.92 283.85 278.42 283.85 279.06C283.85 280.047 283.476 280.82 282.73 281.38C281.983 281.927 280.996 282.2 279.77 282.2ZM295.791 267.88H297.491L299.371 272.82L301.271 267.88H302.971L300.511 274.06L302.951 279.92L307.751 267.8H309.711L303.771 282H302.211L299.391 275.3L296.551 282H294.991L289.071 267.8H291.011L295.831 279.92L298.251 274.06L295.791 267.88ZM311.287 282V271.56H313.047V282H311.287ZM311.287 269.6V267.4H313.047V269.6H311.287ZM321.297 281.48C321.15 281.547 320.95 281.633 320.697 281.74C320.443 281.847 320.15 281.94 319.817 282.02C319.483 282.1 319.13 282.14 318.757 282.14C318.33 282.14 317.937 282.067 317.577 281.92C317.217 281.76 316.93 281.52 316.717 281.2C316.503 280.867 316.397 280.453 316.397 279.96V272.94H314.977V271.56H316.397V268.08H318.157V271.56H320.497V272.94H318.157V279.42C318.183 279.793 318.31 280.073 318.537 280.26C318.763 280.433 319.03 280.52 319.337 280.52C319.683 280.52 320.003 280.46 320.297 280.34C320.59 280.22 320.783 280.133 320.877 280.08L321.297 281.48ZM331.988 282H330.228V276.16C330.228 275.093 330.034 274.293 329.648 273.76C329.274 273.227 328.734 272.96 328.028 272.96C327.574 272.96 327.114 273.08 326.648 273.32C326.194 273.56 325.794 273.887 325.448 274.3C325.101 274.7 324.848 275.167 324.688 275.7V282H322.928V267.4H324.688V273.8C325.101 273.053 325.661 272.467 326.368 272.04C327.088 271.6 327.861 271.38 328.688 271.38C329.314 271.38 329.834 271.493 330.248 271.72C330.674 271.933 331.014 272.24 331.268 272.64C331.521 273.04 331.701 273.507 331.808 274.04C331.928 274.56 331.988 275.133 331.988 275.76V282ZM105.829 310.4V312H98.6486V310.4H101.489V302.6C101.369 302.76 101.182 302.933 100.929 303.12C100.675 303.293 100.389 303.46 100.069 303.62C99.7486 303.78 99.4286 303.913 99.1086 304.02C98.7886 304.113 98.4953 304.16 98.2286 304.16V302.48C98.5219 302.48 98.8419 302.4 99.1886 302.24C99.5486 302.067 99.8953 301.867 100.229 301.64C100.562 301.413 100.842 301.2 101.069 301C101.309 300.8 101.449 300.66 101.489 300.58H103.289V310.4H105.829ZM117.513 306.14C117.513 307.313 117.293 308.36 116.853 309.28C116.413 310.187 115.813 310.9 115.053 311.42C114.293 311.94 113.426 312.2 112.453 312.2C111.479 312.2 110.613 311.94 109.853 311.42C109.093 310.9 108.493 310.187 108.053 309.28C107.613 308.36 107.393 307.313 107.393 306.14C107.393 304.967 107.613 303.927 108.053 303.02C108.493 302.1 109.093 301.38 109.853 300.86C110.613 300.327 111.479 300.06 112.453 300.06C113.426 300.06 114.293 300.327 115.053 300.86C115.813 301.38 116.413 302.1 116.853 303.02C117.293 303.927 117.513 304.967 117.513 306.14ZM115.733 306.14C115.733 305.26 115.593 304.487 115.313 303.82C115.033 303.153 114.646 302.633 114.153 302.26C113.659 301.887 113.093 301.7 112.453 301.7C111.799 301.7 111.226 301.887 110.733 302.26C110.239 302.633 109.853 303.153 109.573 303.82C109.293 304.487 109.153 305.26 109.153 306.14C109.153 307.02 109.293 307.793 109.573 308.46C109.853 309.113 110.239 309.627 110.733 310C111.226 310.373 111.799 310.56 112.453 310.56C113.093 310.56 113.659 310.373 114.153 310C114.646 309.627 115.033 309.113 115.313 308.46C115.593 307.793 115.733 307.02 115.733 306.14ZM129.798 306.14C129.798 307.313 129.578 308.36 129.138 309.28C128.698 310.187 128.098 310.9 127.338 311.42C126.578 311.94 125.711 312.2 124.738 312.2C123.764 312.2 122.898 311.94 122.138 311.42C121.378 310.9 120.778 310.187 120.338 309.28C119.898 308.36 119.678 307.313 119.678 306.14C119.678 304.967 119.898 303.927 120.338 303.02C120.778 302.1 121.378 301.38 122.138 300.86C122.898 300.327 123.764 300.06 124.738 300.06C125.711 300.06 126.578 300.327 127.338 300.86C128.098 301.38 128.698 302.1 129.138 303.02C129.578 303.927 129.798 304.967 129.798 306.14ZM128.018 306.14C128.018 305.26 127.878 304.487 127.598 303.82C127.318 303.153 126.931 302.633 126.438 302.26C125.944 301.887 125.378 301.7 124.738 301.7C124.084 301.7 123.511 301.887 123.018 302.26C122.524 302.633 122.138 303.153 121.858 303.82C121.578 304.487 121.438 305.26 121.438 306.14C121.438 307.02 121.578 307.793 121.858 308.46C122.138 309.113 122.524 309.627 123.018 310C123.511 310.373 124.084 310.56 124.738 310.56C125.378 310.56 125.944 310.373 126.438 310C126.931 309.627 127.318 309.113 127.598 308.46C127.878 307.793 128.018 307.02 128.018 306.14ZM134.703 303.44C134.143 303.44 133.629 303.313 133.163 303.06C132.696 302.793 132.323 302.44 132.043 302C131.763 301.547 131.623 301.053 131.623 300.52C131.623 299.973 131.763 299.48 132.043 299.04C132.323 298.6 132.696 298.253 133.163 298C133.629 297.733 134.143 297.6 134.703 297.6C135.276 297.6 135.796 297.733 136.263 298C136.729 298.253 137.096 298.6 137.363 299.04C137.643 299.48 137.783 299.967 137.783 300.5C137.783 301.047 137.643 301.547 137.363 302C137.096 302.44 136.729 302.793 136.263 303.06C135.796 303.313 135.276 303.44 134.703 303.44ZM134.703 302.48C135.036 302.48 135.336 302.393 135.603 302.22C135.883 302.033 136.103 301.793 136.263 301.5C136.423 301.193 136.503 300.867 136.503 300.52C136.503 300.16 136.416 299.833 136.243 299.54C136.083 299.233 135.863 298.993 135.583 298.82C135.316 298.647 135.023 298.56 134.703 298.56C134.369 298.56 134.063 298.653 133.783 298.84C133.516 299.013 133.303 299.253 133.143 299.56C132.983 299.853 132.903 300.173 132.903 300.52C132.903 300.88 132.983 301.207 133.143 301.5C133.316 301.793 133.536 302.033 133.803 302.22C134.083 302.393 134.383 302.48 134.703 302.48ZM141.723 312.2C141.149 312.2 140.629 312.073 140.163 311.82C139.709 311.553 139.343 311.2 139.063 310.76C138.783 310.307 138.643 309.813 138.643 309.28C138.643 308.733 138.783 308.24 139.063 307.8C139.343 307.36 139.709 307.013 140.163 306.76C140.629 306.493 141.149 306.36 141.723 306.36C142.296 306.36 142.816 306.493 143.283 306.76C143.749 307.013 144.116 307.36 144.383 307.8C144.663 308.24 144.803 308.727 144.803 309.26C144.803 309.807 144.663 310.307 144.383 310.76C144.116 311.2 143.749 311.553 143.283 311.82C142.816 312.073 142.296 312.2 141.723 312.2ZM141.723 311.24C142.056 311.24 142.356 311.153 142.623 310.98C142.903 310.793 143.123 310.553 143.283 310.26C143.443 309.953 143.523 309.627 143.523 309.28C143.523 308.92 143.436 308.593 143.263 308.3C143.103 307.993 142.883 307.753 142.603 307.58C142.336 307.407 142.043 307.32 141.723 307.32C141.389 307.32 141.083 307.413 140.803 307.6C140.536 307.773 140.323 308.013 140.163 308.32C140.003 308.613 139.923 308.933 139.923 309.28C139.923 309.64 140.003 309.967 140.163 310.26C140.336 310.553 140.556 310.793 140.823 310.98C141.103 311.153 141.403 311.24 141.723 311.24ZM132.303 311.34L137.903 304.6L143.263 297.7L144.123 298.44L138.583 305.14L133.143 312.1L132.303 311.34ZM152.026 297.8L156.726 309.74L161.406 297.8H163.306L157.546 312H155.906L150.126 297.8H152.026ZM168.192 312.2C167.406 312.2 166.686 312.06 166.032 311.78C165.392 311.487 164.832 311.093 164.352 310.6C163.886 310.093 163.519 309.513 163.252 308.86C162.999 308.207 162.872 307.513 162.872 306.78C162.872 305.793 163.099 304.893 163.552 304.08C164.006 303.267 164.632 302.613 165.432 302.12C166.246 301.627 167.172 301.38 168.212 301.38C169.266 301.38 170.179 301.633 170.952 302.14C171.739 302.633 172.346 303.287 172.772 304.1C173.212 304.9 173.432 305.767 173.432 306.7C173.432 306.833 173.426 306.967 173.412 307.1C173.412 307.22 173.406 307.313 173.392 307.38H164.732C164.786 308.06 164.972 308.667 165.292 309.2C165.626 309.72 166.052 310.133 166.572 310.44C167.092 310.733 167.652 310.88 168.252 310.88C168.892 310.88 169.492 310.72 170.052 310.4C170.626 310.08 171.019 309.66 171.232 309.14L172.752 309.56C172.526 310.067 172.186 310.52 171.732 310.92C171.292 311.32 170.766 311.633 170.152 311.86C169.552 312.087 168.899 312.2 168.192 312.2ZM164.672 306.16H171.792C171.739 305.48 171.546 304.88 171.212 304.36C170.879 303.84 170.452 303.433 169.932 303.14C169.412 302.847 168.839 302.7 168.212 302.7C167.599 302.7 167.032 302.847 166.512 303.14C165.992 303.433 165.566 303.84 165.232 304.36C164.912 304.88 164.726 305.48 164.672 306.16ZM180.909 303.1C180.029 303.113 179.249 303.34 178.569 303.78C177.902 304.207 177.429 304.8 177.149 305.56V312H175.389V301.56H177.029V303.98C177.389 303.26 177.862 302.68 178.449 302.24C179.049 301.787 179.675 301.533 180.329 301.48C180.462 301.48 180.575 301.48 180.669 301.48C180.762 301.48 180.842 301.487 180.909 301.5V303.1ZM182.654 312V301.56H184.414V312H182.654ZM182.654 299.6V297.4H184.414V299.6H182.654ZM187.824 302.94H186.404V301.56H187.824V301.34C187.824 300.82 187.904 300.32 188.064 299.84C188.224 299.347 188.464 298.9 188.784 298.5C189.104 298.1 189.504 297.787 189.984 297.56C190.464 297.32 191.03 297.2 191.684 297.2C192.177 297.2 192.63 297.253 193.044 297.36C193.457 297.467 193.824 297.6 194.144 297.76C194.477 297.92 194.75 298.08 194.964 298.24L194.204 299.54C193.95 299.313 193.604 299.12 193.164 298.96C192.737 298.8 192.277 298.72 191.784 298.72C191.277 298.72 190.857 298.847 190.524 299.1C190.204 299.353 189.964 299.68 189.804 300.08C189.657 300.467 189.584 300.867 189.584 301.28V301.56H194.924V312H193.164V302.94H189.584V312H187.824V302.94ZM202.392 312.2C201.605 312.2 200.885 312.06 200.232 311.78C199.592 311.487 199.032 311.093 198.552 310.6C198.085 310.093 197.718 309.513 197.452 308.86C197.198 308.207 197.072 307.513 197.072 306.78C197.072 305.793 197.298 304.893 197.752 304.08C198.205 303.267 198.832 302.613 199.632 302.12C200.445 301.627 201.372 301.38 202.412 301.38C203.465 301.38 204.378 301.633 205.152 302.14C205.938 302.633 206.545 303.287 206.972 304.1C207.412 304.9 207.632 305.767 207.632 306.7C207.632 306.833 207.625 306.967 207.612 307.1C207.612 307.22 207.605 307.313 207.592 307.38H198.932C198.985 308.06 199.172 308.667 199.492 309.2C199.825 309.72 200.252 310.133 200.772 310.44C201.292 310.733 201.852 310.88 202.452 310.88C203.092 310.88 203.692 310.72 204.252 310.4C204.825 310.08 205.218 309.66 205.432 309.14L206.952 309.56C206.725 310.067 206.385 310.52 205.932 310.92C205.492 311.32 204.965 311.633 204.352 311.86C203.752 312.087 203.098 312.2 202.392 312.2ZM198.872 306.16H205.992C205.938 305.48 205.745 304.88 205.412 304.36C205.078 303.84 204.652 303.433 204.132 303.14C203.612 302.847 203.038 302.7 202.412 302.7C201.798 302.7 201.232 302.847 200.712 303.14C200.192 303.433 199.765 303.84 199.432 304.36C199.112 304.88 198.925 305.48 198.872 306.16ZM208.908 306.8C208.908 305.813 209.108 304.913 209.508 304.1C209.921 303.273 210.481 302.613 211.188 302.12C211.908 301.627 212.728 301.38 213.648 301.38C214.488 301.38 215.241 301.6 215.908 302.04C216.575 302.48 217.095 303.013 217.468 303.64V297.4H219.228V310C219.228 310.213 219.268 310.373 219.348 310.48C219.441 310.573 219.588 310.627 219.788 310.64V312C219.455 312.053 219.195 312.08 219.008 312.08C218.661 312.08 218.355 311.96 218.088 311.72C217.835 311.48 217.708 311.213 217.708 310.92V310.04C217.295 310.707 216.741 311.233 216.048 311.62C215.355 312.007 214.635 312.2 213.888 312.2C213.168 312.2 212.501 312.06 211.888 311.78C211.288 311.487 210.761 311.087 210.308 310.58C209.868 310.073 209.521 309.5 209.268 308.86C209.028 308.207 208.908 307.52 208.908 306.8ZM217.468 308.34V305.34C217.308 304.887 217.048 304.48 216.688 304.12C216.328 303.747 215.921 303.453 215.468 303.24C215.028 303.013 214.588 302.9 214.148 302.9C213.628 302.9 213.155 303.013 212.728 303.24C212.315 303.453 211.955 303.747 211.648 304.12C211.355 304.48 211.128 304.893 210.968 305.36C210.808 305.827 210.728 306.313 210.728 306.82C210.728 307.34 210.815 307.833 210.988 308.3C211.175 308.767 211.428 309.18 211.748 309.54C212.081 309.9 212.461 310.18 212.888 310.38C213.328 310.58 213.801 310.68 214.308 310.68C214.628 310.68 214.955 310.62 215.288 310.5C215.635 310.38 215.961 310.213 216.268 310C216.575 309.787 216.835 309.54 217.048 309.26C217.261 308.967 217.401 308.66 217.468 308.34ZM239.785 312V301.16L235.105 309.5H234.005L229.305 301.16V312H227.505V297.8H229.405L234.545 307.02L239.705 297.8H241.585V312H239.785ZM249.089 312.2C248.303 312.2 247.589 312.06 246.949 311.78C246.309 311.487 245.756 311.093 245.289 310.6C244.823 310.093 244.463 309.513 244.209 308.86C243.956 308.207 243.829 307.52 243.829 306.8C243.829 306.067 243.956 305.373 244.209 304.72C244.463 304.067 244.823 303.493 245.289 303C245.756 302.493 246.309 302.1 246.949 301.82C247.603 301.527 248.316 301.38 249.089 301.38C249.876 301.38 250.589 301.527 251.229 301.82C251.869 302.1 252.423 302.493 252.889 303C253.369 303.493 253.736 304.067 253.989 304.72C254.243 305.373 254.369 306.067 254.369 306.8C254.369 307.52 254.243 308.207 253.989 308.86C253.736 309.513 253.376 310.093 252.909 310.6C252.443 311.093 251.883 311.487 251.229 311.78C250.589 312.06 249.876 312.2 249.089 312.2ZM245.629 306.82C245.629 307.54 245.783 308.193 246.089 308.78C246.409 309.367 246.829 309.833 247.349 310.18C247.869 310.513 248.449 310.68 249.089 310.68C249.729 310.68 250.309 310.507 250.829 310.16C251.363 309.813 251.783 309.347 252.089 308.76C252.409 308.16 252.569 307.5 252.569 306.78C252.569 306.06 252.409 305.407 252.089 304.82C251.783 304.233 251.363 303.767 250.829 303.42C250.309 303.073 249.729 302.9 249.089 302.9C248.449 302.9 247.869 303.08 247.349 303.44C246.829 303.787 246.409 304.253 246.089 304.84C245.783 305.427 245.629 306.087 245.629 306.82ZM261.862 312.2C261.049 312.2 260.309 312 259.642 311.6C258.975 311.2 258.449 310.68 258.062 310.04V312H256.502V297.4H258.262V303.64C258.702 302.96 259.242 302.413 259.882 302C260.522 301.587 261.269 301.38 262.122 301.38C262.842 301.38 263.489 301.533 264.062 301.84C264.635 302.133 265.122 302.54 265.522 303.06C265.935 303.567 266.249 304.147 266.462 304.8C266.689 305.44 266.802 306.113 266.802 306.82C266.802 307.553 266.675 308.247 266.422 308.9C266.182 309.54 265.835 310.113 265.382 310.62C264.929 311.113 264.402 311.5 263.802 311.78C263.215 312.06 262.569 312.2 261.862 312.2ZM261.422 310.68C261.942 310.68 262.422 310.573 262.862 310.36C263.302 310.147 263.682 309.86 264.002 309.5C264.322 309.14 264.569 308.727 264.742 308.26C264.915 307.793 265.002 307.313 265.002 306.82C265.002 306.14 264.855 305.5 264.562 304.9C264.282 304.3 263.882 303.82 263.362 303.46C262.855 303.087 262.262 302.9 261.582 302.9C261.089 302.9 260.629 303.013 260.202 303.24C259.775 303.467 259.395 303.767 259.062 304.14C258.742 304.5 258.475 304.9 258.262 305.34V308.36C258.329 308.693 258.469 309 258.682 309.28C258.895 309.56 259.155 309.807 259.462 310.02C259.769 310.22 260.089 310.38 260.422 310.5C260.769 310.62 261.102 310.68 261.422 310.68ZM268.963 312V301.56H270.723V312H268.963ZM268.963 299.6V297.4H270.723V299.6H268.963ZM273.612 297.4H275.372V309.3C275.372 309.873 275.452 310.227 275.612 310.36C275.772 310.493 275.966 310.56 276.192 310.56C276.472 310.56 276.739 310.533 276.992 310.48C277.246 310.413 277.459 310.347 277.632 310.28L277.912 311.72C277.619 311.84 277.272 311.94 276.872 312.02C276.472 312.1 276.119 312.14 275.812 312.14C275.132 312.14 274.592 311.947 274.192 311.56C273.806 311.173 273.612 310.633 273.612 309.94V297.4ZM283.915 312.2C283.128 312.2 282.408 312.06 281.755 311.78C281.115 311.487 280.555 311.093 280.075 310.6C279.608 310.093 279.242 309.513 278.975 308.86C278.722 308.207 278.595 307.513 278.595 306.78C278.595 305.793 278.822 304.893 279.275 304.08C279.728 303.267 280.355 302.613 281.155 302.12C281.968 301.627 282.895 301.38 283.935 301.38C284.988 301.38 285.902 301.633 286.675 302.14C287.462 302.633 288.068 303.287 288.495 304.1C288.935 304.9 289.155 305.767 289.155 306.7C289.155 306.833 289.148 306.967 289.135 307.1C289.135 307.22 289.128 307.313 289.115 307.38H280.455C280.508 308.06 280.695 308.667 281.015 309.2C281.348 309.72 281.775 310.133 282.295 310.44C282.815 310.733 283.375 310.88 283.975 310.88C284.615 310.88 285.215 310.72 285.775 310.4C286.348 310.08 286.742 309.66 286.955 309.14L288.475 309.56C288.248 310.067 287.908 310.52 287.455 310.92C287.015 311.32 286.488 311.633 285.875 311.86C285.275 312.087 284.622 312.2 283.915 312.2ZM280.395 306.16H287.515C287.462 305.48 287.268 304.88 286.935 304.36C286.602 303.84 286.175 303.433 285.655 303.14C285.135 302.847 284.562 302.7 283.935 302.7C283.322 302.7 282.755 302.847 282.235 303.14C281.715 303.433 281.288 303.84 280.955 304.36C280.635 304.88 280.448 305.48 280.395 306.16Z" fill="black"/>
<defs>
<linearGradient id="paint0_linear_990_1039" x1="138" y1="118" x2="218.391" y2="129.595" gradientUnits="userSpaceOnUse">
<stop stop-color="#F05A8E"/>
<stop offset="1" stop-color="#ED1C24"/>
</linearGradient>
<linearGradient id="paint1_linear_990_1039" x1="46" y1="226.5" x2="81.936" y2="306.974" gradientUnits="userSpaceOnUse">
<stop stop-color="#F05A8E"/>
<stop offset="1" stop-color="#ED1C24"/>
</linearGradient>
</defs>
</svg>
