<svg width="147" height="48" viewBox="0 0 147 48" fill="none" xmlns="http://www.w3.org/2000/svg">
<rect width="147" height="48" rx="24" fill="white"/>
<rect x="0.5" y="0.5" width="146" height="47" rx="23.5" stroke="#ED1C24" stroke-opacity="0.15"/>
<g clip-path="url(#clip0_990_1566)">
<path fill-rule="evenodd" clip-rule="evenodd" d="M37.5781 19.5358C37.6698 19.555 38.6708 20.3406 38.8296 20.4648L40.0887 21.4244C40.2108 21.5145 40.8802 21.9908 40.9142 22.0815C40.9777 21.9835 41.1233 21.5649 41.189 21.4226C41.5008 20.7465 41.8867 20.2579 42.3804 19.7311C42.9744 19.0971 43.9179 18.5249 44.7358 18.2425C45.7842 17.8805 46.996 17.8135 48.1267 18.0778C48.9033 18.2594 49.7892 18.6865 50.3835 19.1953C50.4848 19.2819 50.5546 19.3506 50.6473 19.419L53.5044 16.6184C53.315 16.333 52.1767 15.5673 51.7935 15.3475C49.56 14.0656 46.9346 13.6769 44.3554 14.2737C41.149 15.0158 38.7667 17.1687 37.5781 19.5358Z" fill="#EA4233"/>
<path fill-rule="evenodd" clip-rule="evenodd" d="M37.5723 28.4797C37.7962 28.8911 37.9987 29.231 38.2412 29.5962C38.3604 29.7758 38.4881 29.9498 38.6204 30.1116L39.2273 30.8242C39.7216 31.3114 40.3106 31.8625 40.9062 32.235C40.9996 32.2935 41.0804 32.36 41.1725 32.4166L42.0158 32.8968C42.4064 33.0988 42.8371 33.2682 43.2629 33.4242C44.3948 33.8391 45.0889 33.8803 46.2418 33.9998L47.2056 33.999C48.1056 33.9081 48.4043 33.9326 49.3437 33.71C50.2683 33.4908 51.171 33.1383 51.9662 32.6797C52.2371 32.5235 52.8014 32.1523 53.0331 31.9505C53.1168 31.8776 53.1275 31.8753 53.2035 31.8206C53.3468 31.7172 53.8106 31.2397 53.9637 31.0906C53.8183 31.1796 53.6371 31.4693 53.4339 31.5798C53.3723 31.5373 53.291 31.4625 53.2308 31.4176C52.8502 31.1351 50.3333 29.2034 50.23 29.1567C50.2679 29.0637 50.2046 29.1387 50.2839 29.0641C49.6475 29.575 48.4743 29.9353 47.6137 30.038C46.441 30.1779 45.4623 30.0493 44.4614 29.6608C43.9187 29.45 43.1614 29.0086 42.7575 28.6199C42.6733 28.5388 42.5987 28.4942 42.5137 28.415C41.9543 27.8937 41.5379 27.2628 41.1893 26.5824C41.1079 26.4235 40.9939 26.0689 40.925 25.9596L40.0793 26.5965C40.0039 26.652 39.9435 26.709 39.8698 26.7605C39.4877 27.0279 38.9477 27.4815 38.6066 27.7168C38.4046 27.8563 37.7102 28.4501 37.5723 28.4793V28.4797Z" fill="#33A852"/>
<path fill-rule="evenodd" clip-rule="evenodd" d="M50.2836 29.0643C50.2043 29.1389 50.2676 29.0637 50.2297 29.1569C50.333 29.2036 52.8499 31.1353 53.2305 31.4178C53.2909 31.4625 53.372 31.5375 53.4336 31.58C53.6368 31.4697 53.8182 31.1801 53.9634 31.0908C55.6266 29.2772 56.2643 27.3702 56.4774 24.8258C56.5574 23.87 56.4064 23.0359 56.2945 22.1304L46.6953 22.1328L46.7024 26.0346L52.2489 26.0419C52.1497 26.9153 51.5755 27.8884 50.977 28.5051C50.8239 28.6628 50.5016 28.9467 50.2836 29.0643Z" fill="#4285F3"/>
<path fill-rule="evenodd" clip-rule="evenodd" d="M37.5724 28.4797C37.7101 28.4505 38.4045 27.8567 38.6068 27.7172C38.9478 27.4817 39.4878 27.028 39.8699 26.7608C39.9436 26.7094 40.004 26.6524 40.0795 26.5968L40.9251 25.9599C40.9001 25.8241 40.8405 25.6791 40.7997 25.5304C40.533 24.5565 40.5434 23.5115 40.7872 22.5327C40.8234 22.3871 40.8907 22.2151 40.914 22.0817C40.8801 21.9908 40.2105 21.5147 40.0886 21.4246L38.8295 20.465C38.6705 20.3408 37.6695 19.5552 37.578 19.536C36.3032 21.9126 36.1618 24.9327 37.1393 27.4974C37.2734 27.8493 37.4359 28.1523 37.5724 28.4799V28.4797Z" fill="#FBBC04"/>
</g>
<path d="M71.3705 27.7035C70.7226 27.7064 70.0812 27.5731 69.4874 27.3121C68.9024 27.0576 68.373 26.6895 67.9293 26.2289C67.483 25.7641 67.1276 25.2188 66.8817 24.6215C66.625 23.9993 66.4953 23.3314 66.5002 22.6576C66.4948 21.9861 66.6246 21.3204 66.8817 20.7008C67.13 20.106 67.4878 19.564 67.9363 19.1034C68.3875 18.6407 68.9269 18.2747 69.522 18.0271C70.1428 17.7672 70.8092 17.6354 71.4815 17.6398C72.2173 17.6331 72.946 17.7856 73.6183 18.087C74.2605 18.3741 74.8262 18.8099 75.2695 19.359L74.1872 20.4492C73.8955 20.0352 73.4973 19.7091 73.0355 19.5058C72.5469 19.2852 72.0169 19.1731 71.4815 19.1773C70.8679 19.1639 70.2619 19.3159 69.7262 19.6176C69.228 19.9048 68.8214 20.329 68.5537 20.8406C68.2671 21.402 68.124 22.0265 68.1375 22.6576C68.1244 23.2918 68.2699 23.9191 68.5607 24.4817C68.8257 24.9897 69.221 25.4168 69.7054 25.7187C70.1984 26.0202 70.766 26.1753 71.3427 26.166C71.9201 26.1815 72.493 26.0593 73.0147 25.8095C73.4753 25.5784 73.8517 25.2066 74.0901 24.7473C74.3554 24.2072 74.4841 23.6094 74.4647 23.0071L75.4637 23.7339H71.315V22.2663H76.1159V22.4899C76.1511 23.4955 75.939 24.4942 75.4984 25.3972C75.1236 26.1332 74.5361 26.7374 73.8136 27.1304C73.059 27.5227 72.2194 27.7196 71.3705 27.7035ZM80.5422 27.7035C79.9235 27.7112 79.3144 27.5493 78.78 27.2352C78.2604 26.9287 77.8287 26.4914 77.5272 25.9663C77.2154 25.428 77.0548 24.8144 77.0624 24.1912C77.0543 23.5736 77.2151 22.9656 77.5272 22.434C77.8332 21.9161 78.2655 21.4855 78.783 21.183C79.3174 20.869 79.9265 20.7071 80.5452 20.7148C81.1675 20.7058 81.7808 20.8651 82.3212 21.176C82.8393 21.4764 83.2708 21.9075 83.573 22.427C83.8853 22.9626 84.0461 23.5741 84.0378 24.1952C84.0447 24.817 83.8841 25.4291 83.573 25.9663C83.271 26.4917 82.8386 26.929 82.3183 27.2352C81.7793 27.5506 81.1654 27.7124 80.5422 27.7035ZM80.5422 26.2219C80.8943 26.2298 81.2419 26.1415 81.5482 25.9663C81.8377 25.7958 82.0734 25.5463 82.2281 25.2465C82.3938 24.9226 82.4772 24.5624 82.4709 24.1982C82.4784 23.8374 82.3923 23.4808 82.2211 23.1638C82.0607 22.8719 81.826 22.6283 81.5412 22.458C81.238 22.2812 80.8924 22.1918 80.5422 22.1994C80.1947 22.1937 79.8522 22.2831 79.5511 22.458C79.2642 22.6257 79.0289 22.8699 78.8712 23.1638C78.7044 23.4823 78.6209 23.8382 78.6284 24.1982C78.622 24.5624 78.7054 24.9226 78.8712 25.2465C79.0258 25.5463 79.2615 25.7958 79.5511 25.9663C79.8525 26.1401 80.195 26.2285 80.5422 26.2219ZM88.3541 27.7035C87.7354 27.7112 87.1263 27.5493 86.5919 27.2352C86.0712 26.9291 85.6385 26.4918 85.3362 25.9663C85.0244 25.428 84.8637 24.8144 84.8714 24.1912C84.8625 23.5722 85.0234 22.9628 85.3362 22.43C85.6422 21.9121 86.0744 21.4815 86.5919 21.179C87.1263 20.865 87.7354 20.7031 88.3541 20.7108C88.9764 20.7018 89.5898 20.8611 90.1302 21.1721C90.6497 21.4718 91.0826 21.903 91.3859 22.423C91.6983 22.9586 91.859 23.5701 91.8507 24.1912C91.8584 24.8144 91.6977 25.428 91.3859 25.9663C91.0836 26.4918 90.6509 26.9291 90.1302 27.2352C89.5912 27.5506 88.9773 27.7124 88.3541 27.7035ZM88.3541 26.2219C88.7062 26.2298 89.0538 26.1415 89.3601 25.9663C89.6496 25.7958 89.8854 25.5463 90.04 25.2465C90.2057 24.9226 90.2891 24.5624 90.2828 24.1982C90.2903 23.8374 90.2042 23.4808 90.033 23.1638C89.8726 22.8719 89.6379 22.6283 89.3531 22.458C89.0499 22.2812 88.7043 22.1918 88.3541 22.1994C88.0066 22.1937 87.6641 22.2831 87.363 22.458C87.0761 22.6257 86.8408 22.8699 86.6831 23.1638C86.5163 23.4823 86.4328 23.8382 86.4403 24.1982C86.4339 24.5624 86.5174 24.9226 86.6831 25.2465C86.8377 25.5463 87.0734 25.7958 87.363 25.9663C87.6644 26.1401 88.0069 26.2285 88.3541 26.2219ZM95.8865 30.499C95.2504 30.5132 94.6194 30.3818 94.0411 30.1146C93.53 29.8712 93.0907 29.4978 92.7665 29.0313L93.7656 28.025C94.0113 28.342 94.3242 28.5998 94.6813 28.7797C95.0687 28.957 95.491 29.0431 95.9163 29.0313C96.4354 29.0607 96.9466 28.8933 97.3494 28.5621C97.525 28.4013 97.6629 28.2032 97.7534 27.9823C97.8439 27.7613 97.8847 27.5229 97.8727 27.2842V25.6348L98.1363 24.1532L97.8727 22.6557V20.8546H99.399V27.2842C99.4126 27.8766 99.2586 28.4608 98.955 28.9684C98.6552 29.4518 98.2275 29.8415 97.7201 30.0936C97.1502 30.3735 96.5224 30.5125 95.8885 30.499H95.8865ZM95.8172 27.4239C95.2525 27.4315 94.6972 27.2789 94.2145 26.9836C93.7383 26.6903 93.3499 26.2725 93.0906 25.7746C92.8136 25.245 92.6729 24.6539 92.6813 24.0554C92.6716 23.4612 92.8124 22.8742 93.0906 22.3501C93.3526 21.857 93.7406 21.4434 94.2145 21.1521C94.6972 20.8568 95.2525 20.7042 95.8172 20.7118C96.299 20.7011 96.7759 20.8116 97.2047 21.0333C97.5906 21.2362 97.9125 21.5436 98.1344 21.9208C98.3627 22.3224 98.4778 22.7791 98.4674 23.2417V24.891C98.4759 25.3521 98.3583 25.8067 98.1274 26.2049C97.9039 26.586 97.5796 26.8971 97.1908 27.1034C96.7671 27.3234 96.2957 27.4336 95.8191 27.4239H95.8172ZM96.1244 25.9663C96.4632 25.9741 96.7981 25.8921 97.0957 25.7287C97.3708 25.5757 97.5965 25.3463 97.7459 25.0677C97.904 24.7595 97.9828 24.4162 97.9748 24.0694C97.9828 23.7225 97.904 23.3792 97.7459 23.071C97.5983 22.792 97.3744 22.5616 97.1006 22.4071C96.8031 22.2436 96.4682 22.1617 96.1294 22.1694C95.7884 22.1622 95.4514 22.2441 95.1511 22.4071C94.8734 22.561 94.6449 22.7912 94.492 23.071C94.3294 23.3778 94.2481 23.7217 94.2562 24.0694C94.2496 24.415 94.3308 24.7566 94.492 25.0618C94.6433 25.3445 94.8721 25.5774 95.1511 25.7327C95.4503 25.8934 95.7854 25.9738 96.1244 25.9663ZM101.092 27.5637V17.5H102.618V27.5637H101.092ZM107.405 27.7035C106.777 27.7131 106.157 27.5565 105.608 27.2492C105.084 26.9537 104.648 26.5216 104.346 25.9982C104.033 25.4553 103.872 24.8369 103.881 24.2091C103.871 23.5844 104.029 22.9687 104.339 22.427C104.637 21.907 105.065 21.4749 105.581 21.1741C106.109 20.865 106.711 20.7056 107.322 20.7128C107.899 20.7015 108.468 20.8515 108.966 21.1461C109.44 21.4327 109.829 21.8432 110.09 22.3342C110.369 22.8629 110.51 23.4546 110.499 24.0534C110.499 24.1679 110.492 24.2822 110.479 24.3958C110.465 24.5123 110.444 24.6404 110.416 24.7802H104.949V23.5222H109.625L109.056 24.0214C109.05 23.6639 108.97 23.3116 108.821 22.9871C108.691 22.7177 108.483 22.4938 108.226 22.3442C107.939 22.187 107.616 22.1098 107.289 22.1205C106.935 22.1118 106.586 22.1986 106.276 22.3721C105.991 22.5379 105.76 22.783 105.61 23.078C105.445 23.4171 105.365 23.7917 105.377 24.1692C105.371 24.5505 105.457 24.9277 105.629 25.2674C105.788 25.5767 106.034 25.8319 106.337 26.0012C106.66 26.1781 107.023 26.2673 107.391 26.2598C107.717 26.263 108.04 26.2013 108.342 26.0781C108.627 25.9615 108.881 25.7796 109.084 25.547L110.055 26.5394C109.736 26.9183 109.332 27.2153 108.876 27.406C108.411 27.6037 107.91 27.7049 107.405 27.7035Z" fill="black"/>
<defs>
<clipPath id="clip0_990_1566">
<rect width="20" height="20" fill="white" transform="translate(36.5 14)"/>
</clipPath>
</defs>
</svg>
