<svg width="21" height="20" viewBox="0 0 21 20" fill="none" xmlns="http://www.w3.org/2000/svg">
<g clip-path="url(#clip0_990_1567)">
<path fill-rule="evenodd" clip-rule="evenodd" d="M1.57812 5.53582C1.66979 5.55502 2.67083 6.3406 2.82958 6.46479L4.08875 7.4244C4.21083 7.51447 4.88021 7.99081 4.91417 8.0815C4.97771 7.98345 5.12333 7.56493 5.18896 7.42256C5.50083 6.74646 5.88667 6.25787 6.38042 5.73109C6.97438 5.09707 7.91792 4.52494 8.73583 4.24245C9.78417 3.88051 10.996 3.81351 12.1267 4.07782C12.9033 4.25941 13.7892 4.68651 14.3835 5.19532C14.4848 5.28193 14.5546 5.35056 14.6473 5.41898L17.5044 2.61839C17.315 2.33304 16.1767 1.56728 15.7935 1.34749C13.56 0.0655645 10.9346 -0.32314 8.35542 0.273704C5.14896 1.01578 2.76667 3.16866 1.57812 5.53582Z" fill="#EA4233"/>
<path fill-rule="evenodd" clip-rule="evenodd" d="M1.57227 14.4797C1.79622 14.8911 1.99872 15.231 2.24122 15.5962C2.36039 15.7758 2.4881 15.9498 2.62039 16.1116L3.22727 16.8242C3.72164 17.3114 4.3106 17.8625 4.90622 18.235C4.99956 18.2935 5.08039 18.36 5.17247 18.4166L6.01581 18.8968C6.40643 19.0988 6.83706 19.2682 7.26289 19.4242C8.39476 19.8391 9.08893 19.8803 10.2418 19.9998L11.2056 19.999C12.1056 19.9081 12.4043 19.9326 13.3437 19.71C14.2683 19.4908 15.171 19.1383 15.9662 18.6797C16.2371 18.5235 16.8014 18.1523 17.0331 17.9505C17.1168 17.8776 17.1275 17.8753 17.2035 17.8206C17.3468 17.7172 17.8106 17.2397 17.9637 17.0906C17.8183 17.1796 17.6371 17.4693 17.4339 17.5798C17.3723 17.5373 17.291 17.4625 17.2308 17.4176C16.8502 17.1351 14.3333 15.2034 14.23 15.1567C14.2679 15.0637 14.2046 15.1387 14.2839 15.0641C13.6475 15.575 12.4743 15.9353 11.6137 16.038C10.441 16.1779 9.46227 16.0493 8.46143 15.6608C7.91872 15.45 7.16143 15.0086 6.75747 14.6199C6.67331 14.5388 6.59872 14.4942 6.51372 14.415C5.95435 13.8937 5.53789 13.2628 5.18935 12.5824C5.10789 12.4235 4.99393 12.0689 4.92497 11.9596L4.07935 12.5965C4.00393 12.652 3.94352 12.709 3.86977 12.7605C3.48768 13.0279 2.94768 13.4815 2.60664 13.7168C2.40456 13.8563 1.71018 14.4501 1.57227 14.4793V14.4797Z" fill="#33A852"/>
<path fill-rule="evenodd" clip-rule="evenodd" d="M14.2836 15.0643C14.2043 15.1389 14.2676 15.0637 14.2297 15.1569C14.333 15.2036 16.8499 17.1353 17.2305 17.4178C17.2909 17.4625 17.372 17.5375 17.4336 17.58C17.6368 17.4697 17.8182 17.1801 17.9634 17.0908C19.6266 15.2772 20.2643 13.3702 20.4774 10.8258C20.5574 9.87004 20.4064 9.03585 20.2945 8.13037L10.6953 8.13282L10.7024 12.0346L16.2489 12.0419C16.1497 12.9153 15.5755 13.8884 14.977 14.5051C14.8239 14.6628 14.5016 14.9467 14.2836 15.0643Z" fill="#4285F3"/>
<path fill-rule="evenodd" clip-rule="evenodd" d="M1.57238 14.4797C1.71008 14.4505 2.40446 13.8567 2.60675 13.7172C2.94779 13.4817 3.48779 13.028 3.86988 12.7608C3.94363 12.7094 4.00404 12.6524 4.07946 12.5968L4.92508 11.9599C4.90008 11.8241 4.8405 11.6791 4.79967 11.5304C4.533 10.5565 4.54342 9.5115 4.78717 8.53269C4.82342 8.38705 4.89071 8.21507 4.91404 8.08169C4.88008 7.99079 4.2105 7.51467 4.08863 7.42459L2.82946 6.46498C2.6705 6.34079 1.66946 5.55521 1.578 5.53601C0.303209 7.91256 0.161751 10.9327 1.13925 13.4974C1.27342 13.8493 1.43592 14.1523 1.57238 14.4799V14.4797Z" fill="#FBBC04"/>
</g>
<defs>
<clipPath id="clip0_990_1567">
<rect width="20" height="20" fill="white" transform="translate(0.5)"/>
</clipPath>
</defs>
</svg>
