<svg width="579" height="97" viewBox="0 0 579 97" fill="none" xmlns="http://www.w3.org/2000/svg">
<path d="M18.078 84.781C14.582 84.781 11.431 83.953 8.625 82.297C5.819 80.641 3.703 78.433 2.277 75.673L6.072 72.361C7.36 74.477 9.062 76.179 11.178 77.467C13.34 78.755 15.663 79.399 18.147 79.399C20.263 79.399 22.149 78.939 23.805 78.019C25.461 77.099 26.772 75.834 27.738 74.224C28.704 72.568 29.187 70.682 29.187 68.566C29.187 66.496 28.704 64.679 27.738 63.115C26.818 61.551 25.553 60.332 23.943 59.458C22.379 58.584 20.608 58.147 18.63 58.147C16.652 58.147 14.789 58.584 13.041 59.458C11.339 60.332 9.936 61.574 8.832 63.184H3.381L8.901 35.101H32.706V40.69H13.386L10.419 56.284C11.431 55.226 12.696 54.398 14.214 53.8C15.778 53.156 17.503 52.834 19.389 52.834C22.425 52.834 25.139 53.501 27.531 54.835C29.969 56.169 31.878 58.009 33.258 60.355C34.684 62.701 35.397 65.415 35.397 68.497C35.397 71.717 34.615 74.546 33.051 76.984C31.533 79.468 29.463 81.377 26.841 82.711C24.219 84.091 21.298 84.781 18.078 84.781ZM61.6068 83.263V71.602H39.4578V66.22L63.5388 35.101H67.6788V66.082H73.7508V71.602H67.6788V83.263H61.6068ZM45.7368 66.082H62.2278V44.485L45.7368 66.082ZM103.325 39.862H78.1403V34.273H112.916L88.2833 83.263H81.3833L103.325 39.862ZM137.716 47.521V52.489H129.574V61.321H124.054V52.489H115.912V47.521H124.054V38.689H129.574V47.521H137.716ZM151.676 61.54C151.676 59.98 151.94 58.456 152.468 56.968C153.02 55.456 153.812 54.088 154.844 52.864C155.9 51.616 157.184 50.632 158.696 49.912C160.208 49.168 161.924 48.796 163.844 48.796C166.124 48.796 168.08 49.324 169.712 50.38C171.344 51.412 172.556 52.744 173.348 54.376L170.792 56.032C170.288 54.952 169.64 54.1 168.848 53.476C168.08 52.828 167.24 52.372 166.328 52.108C165.44 51.844 164.564 51.712 163.7 51.712C162.284 51.712 161.024 52 159.92 52.576C158.84 53.152 157.928 53.92 157.184 54.88C156.44 55.84 155.876 56.92 155.492 58.12C155.132 59.296 154.952 60.484 154.952 61.684C154.952 63.004 155.168 64.276 155.6 65.5C156.056 66.724 156.68 67.804 157.472 68.74C158.264 69.676 159.2 70.42 160.28 70.972C161.36 71.524 162.536 71.8 163.808 71.8C164.696 71.8 165.608 71.644 166.544 71.332C167.48 71.02 168.356 70.54 169.172 69.892C169.988 69.22 170.636 68.356 171.116 67.3L173.816 68.776C173.288 70.048 172.472 71.128 171.368 72.016C170.264 72.904 169.028 73.576 167.66 74.032C166.316 74.488 164.984 74.716 163.664 74.716C161.912 74.716 160.304 74.344 158.84 73.6C157.376 72.832 156.104 71.824 155.024 70.576C153.968 69.304 153.14 67.888 152.54 66.328C151.964 64.744 151.676 63.148 151.676 61.54ZM185.576 74.86C184.16 74.86 182.876 74.608 181.724 74.104C180.572 73.576 179.576 72.868 178.736 71.98C177.896 71.068 177.248 70.024 176.792 68.848C176.336 67.672 176.108 66.436 176.108 65.14C176.108 63.82 176.336 62.572 176.792 61.396C177.248 60.22 177.896 59.188 178.736 58.3C179.576 57.388 180.572 56.68 181.724 56.176C182.9 55.648 184.184 55.384 185.576 55.384C186.992 55.384 188.276 55.648 189.428 56.176C190.58 56.68 191.576 57.388 192.416 58.3C193.28 59.188 193.94 60.22 194.396 61.396C194.852 62.572 195.08 63.82 195.08 65.14C195.08 66.436 194.852 67.672 194.396 68.848C193.94 70.024 193.292 71.068 192.452 71.98C191.612 72.868 190.604 73.576 189.428 74.104C188.276 74.608 186.992 74.86 185.576 74.86ZM179.348 65.176C179.348 66.472 179.624 67.648 180.176 68.704C180.752 69.76 181.508 70.6 182.444 71.224C183.38 71.824 184.424 72.124 185.576 72.124C186.728 72.124 187.772 71.812 188.708 71.188C189.668 70.564 190.424 69.724 190.976 68.668C191.552 67.588 191.84 66.4 191.84 65.104C191.84 63.808 191.552 62.632 190.976 61.576C190.424 60.52 189.668 59.68 188.708 59.056C187.772 58.432 186.728 58.12 185.576 58.12C184.424 58.12 183.38 58.444 182.444 59.092C181.508 59.716 180.752 60.556 180.176 61.612C179.624 62.668 179.348 63.856 179.348 65.176ZM198.738 66.976V55.708H201.906V66.364C201.906 68.284 202.242 69.724 202.914 70.684C203.586 71.644 204.582 72.124 205.902 72.124C206.766 72.124 207.594 71.944 208.386 71.584C209.202 71.2 209.934 70.66 210.582 69.964C211.23 69.268 211.734 68.44 212.094 67.48V55.708H215.262V70.9C215.262 71.284 215.334 71.572 215.478 71.764C215.646 71.932 215.91 72.028 216.27 72.052V74.5C215.91 74.548 215.622 74.572 215.406 74.572C215.214 74.596 215.022 74.608 214.83 74.608C214.23 74.608 213.714 74.428 213.282 74.068C212.85 73.684 212.622 73.216 212.598 72.664L212.526 70.468C211.71 71.86 210.606 72.94 209.214 73.708C207.846 74.476 206.346 74.86 204.714 74.86C202.746 74.86 201.258 74.2 200.25 72.88C199.242 71.536 198.738 69.568 198.738 66.976ZM230.655 74.86C229.119 74.86 227.751 74.476 226.551 73.708C225.351 72.94 224.403 71.968 223.707 70.792V82.168H220.539V55.708H223.347V59.236C224.091 58.084 225.063 57.16 226.263 56.464C227.463 55.744 228.771 55.384 230.187 55.384C231.483 55.384 232.671 55.648 233.751 56.176C234.831 56.704 235.767 57.424 236.559 58.336C237.351 59.248 237.963 60.292 238.395 61.468C238.851 62.62 239.079 63.832 239.079 65.104C239.079 66.88 238.719 68.512 237.999 70C237.303 71.488 236.319 72.676 235.047 73.564C233.775 74.428 232.311 74.86 230.655 74.86ZM229.683 72.124C230.619 72.124 231.459 71.932 232.203 71.548C232.971 71.14 233.619 70.612 234.147 69.964C234.699 69.292 235.119 68.536 235.407 67.696C235.695 66.856 235.839 65.992 235.839 65.104C235.839 64.168 235.671 63.28 235.335 62.44C235.023 61.6 234.567 60.856 233.967 60.208C233.391 59.56 232.707 59.056 231.915 58.696C231.147 58.312 230.307 58.12 229.395 58.12C228.819 58.12 228.219 58.228 227.595 58.444C226.995 58.66 226.419 58.972 225.867 59.38C225.315 59.764 224.847 60.208 224.463 60.712C224.079 61.216 223.827 61.756 223.707 62.332V67.696C224.067 68.512 224.547 69.256 225.147 69.928C225.747 70.6 226.443 71.14 227.235 71.548C228.027 71.932 228.843 72.124 229.683 72.124ZM243.041 48.22H246.209V69.64C246.209 70.672 246.353 71.308 246.641 71.548C246.929 71.788 247.277 71.908 247.685 71.908C248.189 71.908 248.669 71.86 249.125 71.764C249.581 71.644 249.965 71.524 250.277 71.404L250.781 73.996C250.253 74.212 249.629 74.392 248.909 74.536C248.189 74.68 247.553 74.752 247.001 74.752C245.777 74.752 244.805 74.404 244.085 73.708C243.389 73.012 243.041 72.04 243.041 70.792V48.22ZM261.586 74.86C260.17 74.86 258.874 74.608 257.698 74.104C256.546 73.576 255.538 72.868 254.674 71.98C253.834 71.068 253.174 70.024 252.694 68.848C252.238 67.672 252.01 66.424 252.01 65.104C252.01 63.328 252.418 61.708 253.234 60.244C254.05 58.78 255.178 57.604 256.618 56.716C258.082 55.828 259.75 55.384 261.622 55.384C263.518 55.384 265.162 55.84 266.554 56.752C267.97 57.64 269.062 58.816 269.83 60.28C270.622 61.72 271.018 63.28 271.018 64.96C271.018 65.2 271.006 65.44 270.982 65.68C270.982 65.896 270.97 66.064 270.946 66.184H255.358C255.454 67.408 255.79 68.5 256.366 69.46C256.966 70.396 257.734 71.14 258.67 71.692C259.606 72.22 260.614 72.484 261.694 72.484C262.846 72.484 263.926 72.196 264.934 71.62C265.966 71.044 266.674 70.288 267.058 69.352L269.794 70.108C269.386 71.02 268.774 71.836 267.958 72.556C267.166 73.276 266.218 73.84 265.114 74.248C264.034 74.656 262.858 74.86 261.586 74.86ZM255.25 63.988H268.066C267.97 62.764 267.622 61.684 267.022 60.748C266.422 59.812 265.654 59.08 264.718 58.552C263.782 58.024 262.75 57.76 261.622 57.76C260.518 57.76 259.498 58.024 258.562 58.552C257.626 59.08 256.858 59.812 256.258 60.748C255.682 61.684 255.346 62.764 255.25 63.988ZM280.983 74.86C279.423 74.86 277.959 74.608 276.591 74.104C275.223 73.576 274.047 72.796 273.063 71.764L274.287 69.532C275.367 70.54 276.447 71.26 277.527 71.692C278.607 72.124 279.711 72.34 280.839 72.34C282.135 72.34 283.191 72.1 284.007 71.62C284.823 71.116 285.231 70.384 285.231 69.424C285.231 68.728 285.015 68.212 284.583 67.876C284.175 67.54 283.587 67.264 282.819 67.048C282.051 66.808 281.139 66.544 280.083 66.256C278.787 65.872 277.695 65.464 276.807 65.032C275.919 64.6 275.247 64.06 274.791 63.412C274.335 62.764 274.107 61.948 274.107 60.964C274.107 59.764 274.419 58.756 275.043 57.94C275.667 57.1 276.519 56.464 277.599 56.032C278.703 55.6 279.951 55.384 281.343 55.384C282.735 55.384 283.995 55.6 285.123 56.032C286.251 56.464 287.223 57.1 288.039 57.94L286.599 60.136C285.855 59.368 285.039 58.804 284.151 58.444C283.263 58.06 282.267 57.868 281.163 57.868C280.515 57.868 279.879 57.952 279.255 58.12C278.631 58.264 278.115 58.54 277.707 58.948C277.299 59.332 277.095 59.884 277.095 60.604C277.095 61.204 277.251 61.684 277.563 62.044C277.899 62.38 278.379 62.668 279.003 62.908C279.651 63.148 280.431 63.412 281.343 63.7C282.759 64.108 283.983 64.516 285.015 64.924C286.071 65.332 286.887 65.86 287.463 66.508C288.039 67.156 288.327 68.056 288.327 69.208C288.327 70.984 287.655 72.376 286.311 73.384C284.967 74.368 283.191 74.86 280.983 74.86ZM301.727 74.5V48.94H312.383C313.511 48.94 314.543 49.18 315.479 49.66C316.415 50.116 317.231 50.74 317.927 51.532C318.623 52.3 319.163 53.176 319.547 54.16C319.931 55.12 320.123 56.104 320.123 57.112C320.123 58.504 319.811 59.836 319.187 61.108C318.563 62.356 317.687 63.376 316.559 64.168C315.431 64.936 314.111 65.32 312.599 65.32H304.967V74.5H301.727ZM304.967 62.44H312.419C313.307 62.44 314.075 62.2 314.723 61.72C315.395 61.24 315.911 60.592 316.271 59.776C316.655 58.96 316.847 58.072 316.847 57.112C316.847 56.104 316.631 55.204 316.199 54.412C315.767 53.596 315.203 52.96 314.507 52.504C313.811 52.048 313.043 51.82 312.203 51.82H304.967V62.44ZM321.966 69.064C321.966 67.864 322.302 66.832 322.974 65.968C323.67 65.08 324.618 64.396 325.818 63.916C327.018 63.436 328.41 63.196 329.994 63.196C330.834 63.196 331.722 63.268 332.658 63.412C333.594 63.532 334.422 63.724 335.142 63.988V62.62C335.142 61.18 334.71 60.052 333.846 59.236C332.982 58.396 331.758 57.976 330.174 57.976C329.142 57.976 328.146 58.168 327.186 58.552C326.25 58.912 325.254 59.44 324.198 60.136L323.046 57.904C324.27 57.064 325.494 56.44 326.718 56.032C327.942 55.6 329.214 55.384 330.534 55.384C332.934 55.384 334.83 56.056 336.222 57.4C337.614 58.72 338.31 60.568 338.31 62.944V70.9C338.31 71.284 338.382 71.572 338.526 71.764C338.694 71.932 338.958 72.028 339.318 72.052V74.5C339.006 74.548 338.73 74.584 338.49 74.608C338.274 74.632 338.094 74.644 337.95 74.644C337.206 74.644 336.642 74.44 336.258 74.032C335.898 73.624 335.694 73.192 335.646 72.736L335.574 71.548C334.758 72.604 333.69 73.42 332.37 73.996C331.05 74.572 329.742 74.86 328.446 74.86C327.198 74.86 326.082 74.608 325.098 74.104C324.114 73.576 323.346 72.88 322.794 72.016C322.242 71.128 321.966 70.144 321.966 69.064ZM334.206 70.396C334.494 70.06 334.722 69.724 334.89 69.388C335.058 69.028 335.142 68.728 335.142 68.488V66.148C334.398 65.86 333.618 65.644 332.802 65.5C331.986 65.332 331.182 65.248 330.39 65.248C328.782 65.248 327.474 65.572 326.466 66.22C325.482 66.844 324.99 67.708 324.99 68.812C324.99 69.412 325.146 70 325.458 70.576C325.794 71.128 326.274 71.584 326.898 71.944C327.546 72.304 328.338 72.484 329.274 72.484C330.258 72.484 331.194 72.292 332.082 71.908C332.97 71.5 333.678 70.996 334.206 70.396ZM353.311 58.48C351.727 58.504 350.323 58.912 349.099 59.704C347.899 60.472 347.047 61.54 346.543 62.908V74.5H343.375V55.708H346.327V60.064C346.975 58.768 347.827 57.724 348.883 56.932C349.963 56.116 351.091 55.66 352.267 55.564C352.507 55.564 352.711 55.564 352.879 55.564C353.047 55.564 353.191 55.576 353.311 55.6V58.48ZM364.312 74.86C362.896 74.86 361.6 74.608 360.424 74.104C359.272 73.576 358.264 72.868 357.4 71.98C356.56 71.068 355.9 70.024 355.42 68.848C354.964 67.672 354.736 66.424 354.736 65.104C354.736 63.328 355.144 61.708 355.96 60.244C356.776 58.78 357.904 57.604 359.344 56.716C360.808 55.828 362.476 55.384 364.348 55.384C366.244 55.384 367.888 55.84 369.28 56.752C370.696 57.64 371.788 58.816 372.556 60.28C373.348 61.72 373.744 63.28 373.744 64.96C373.744 65.2 373.732 65.44 373.708 65.68C373.708 65.896 373.696 66.064 373.672 66.184H358.084C358.18 67.408 358.516 68.5 359.092 69.46C359.692 70.396 360.46 71.14 361.396 71.692C362.332 72.22 363.34 72.484 364.42 72.484C365.572 72.484 366.652 72.196 367.66 71.62C368.692 71.044 369.4 70.288 369.784 69.352L372.52 70.108C372.112 71.02 371.5 71.836 370.684 72.556C369.892 73.276 368.944 73.84 367.84 74.248C366.76 74.656 365.584 74.86 364.312 74.86ZM357.976 63.988H370.792C370.696 62.764 370.348 61.684 369.748 60.748C369.148 59.812 368.38 59.08 367.444 58.552C366.508 58.024 365.476 57.76 364.348 57.76C363.244 57.76 362.224 58.024 361.288 58.552C360.352 59.08 359.584 59.812 358.984 60.748C358.408 61.684 358.072 62.764 357.976 63.988ZM376.042 65.14C376.042 63.364 376.402 61.744 377.122 60.28C377.866 58.792 378.874 57.604 380.146 56.716C381.442 55.828 382.918 55.384 384.574 55.384C386.086 55.384 387.442 55.78 388.642 56.572C389.842 57.364 390.778 58.324 391.45 59.452V48.22H394.618V70.9C394.618 71.284 394.69 71.572 394.834 71.764C395.002 71.932 395.266 72.028 395.626 72.052V74.5C395.026 74.596 394.558 74.644 394.222 74.644C393.598 74.644 393.046 74.428 392.566 73.996C392.11 73.564 391.882 73.084 391.882 72.556V70.972C391.138 72.172 390.142 73.12 388.894 73.816C387.646 74.512 386.35 74.86 385.006 74.86C383.71 74.86 382.51 74.608 381.406 74.104C380.326 73.576 379.378 72.856 378.562 71.944C377.77 71.032 377.146 70 376.69 68.848C376.258 67.672 376.042 66.436 376.042 65.14ZM391.45 67.912V62.512C391.162 61.696 390.694 60.964 390.046 60.316C389.398 59.644 388.666 59.116 387.85 58.732C387.058 58.324 386.266 58.12 385.474 58.12C384.538 58.12 383.686 58.324 382.918 58.732C382.174 59.116 381.526 59.644 380.974 60.316C380.446 60.964 380.038 61.708 379.75 62.548C379.462 63.388 379.318 64.264 379.318 65.176C379.318 66.112 379.474 67 379.786 67.84C380.122 68.68 380.578 69.424 381.154 70.072C381.754 70.72 382.438 71.224 383.206 71.584C383.998 71.944 384.85 72.124 385.762 72.124C386.338 72.124 386.926 72.016 387.526 71.8C388.15 71.584 388.738 71.284 389.29 70.9C389.842 70.516 390.31 70.072 390.694 69.568C391.078 69.04 391.33 68.488 391.45 67.912Z" fill="white"/>
<rect x="482.203" y="0.203246" width="96.5935" height="96.5935" rx="48.2968" stroke="white" stroke-width="0.406493"/>
<rect x="482.203" y="0.203246" width="96.5935" height="96.5935" rx="48.2968" stroke="white" stroke-width="0.406493"/>
<mask id="path-3-inside-1_1737_1016" fill="white">
<path d="M543.13 67.445C543.13 63.1573 541.427 59.0453 538.395 56.0134C535.364 52.9816 531.251 51.2783 526.964 51.2783C522.676 51.2783 518.564 52.9816 515.532 56.0134C512.5 59.0453 510.797 63.1573 510.797 67.445"/>
</mask>
<path d="M543.13 67.445C543.13 63.1573 541.427 59.0453 538.395 56.0134C535.364 52.9816 531.251 51.2783 526.964 51.2783C522.676 51.2783 518.564 52.9816 515.532 56.0134C512.5 59.0453 510.797 63.1573 510.797 67.445" fill="white"/>
<path d="M541.13 67.445C541.13 68.5496 542.026 69.445 543.13 69.445C544.235 69.445 545.13 68.5496 545.13 67.445H541.13ZM526.964 51.2783V49.2783V51.2783ZM508.797 67.445C508.797 68.5496 509.693 69.445 510.797 69.445C511.902 69.445 512.797 68.5496 512.797 67.445H508.797ZM545.13 67.445C545.13 62.6269 543.216 58.0061 539.81 54.5992L536.981 57.4276C539.638 60.0844 541.13 63.6878 541.13 67.445H545.13ZM539.81 54.5992C536.403 51.1923 531.782 49.2783 526.964 49.2783V53.2783C530.721 53.2783 534.324 54.7709 536.981 57.4276L539.81 54.5992ZM526.964 49.2783C522.146 49.2783 517.525 51.1923 514.118 54.5992L516.946 57.4276C519.603 54.7709 523.207 53.2783 526.964 53.2783V49.2783ZM514.118 54.5992C510.711 58.0061 508.797 62.6269 508.797 67.445H512.797C512.797 63.6878 514.29 60.0844 516.946 57.4276L514.118 54.5992Z" fill="white" mask="url(#path-3-inside-1_1737_1016)"/>
<path d="M526.964 51.2787C532.544 51.2787 537.068 46.7549 537.068 41.1745C537.068 35.5941 532.544 31.0703 526.964 31.0703C521.383 31.0703 516.86 35.5941 516.86 41.1745C516.86 46.7549 521.383 51.2787 526.964 51.2787Z" fill="white" stroke="white" stroke-width="2" stroke-linecap="round" stroke-linejoin="round"/>
<path d="M551.214 65.4245C551.214 58.6143 547.172 52.2891 543.131 49.2578C544.459 48.2611 545.521 46.9522 546.224 45.4471C546.926 43.9419 547.246 42.2869 547.156 40.6284C547.066 38.97 546.569 37.3593 545.708 35.9389C544.847 34.5185 543.65 33.3321 542.221 32.4849" stroke="white" stroke-width="2" stroke-linecap="round" stroke-linejoin="round"/>
</svg>
