<svg width="112" height="112" viewBox="0 0 112 112" fill="none" xmlns="http://www.w3.org/2000/svg">
<rect x="0.355681" y="0.355681" width="111.289" height="111.289" rx="55.6443" stroke="white" stroke-width="0.711362"/>
<rect x="0.355681" y="0.355681" width="111.289" height="111.289" rx="55.6443" stroke="url(#paint0_linear_990_1040)" stroke-width="0.711362"/>
<path d="M87.5 75.3203V83.125H56V75.3203C56 71.0287 59.2899 67.5483 63.35 67.5483H66.8101L67.1905 65.1565C60.6692 67.1142 57.1736 63.0189 57.1736 63.0189C58.07 60.9578 59.1505 57.2721 59.1505 50.6107V43.9477C59.1505 40.2677 60.5598 36.9378 62.8401 34.5265C65.1204 32.116 68.2693 30.625 71.7495 30.625C78.7075 30.625 84.3501 36.5892 84.3501 43.9477V50.6107C84.3501 57.2721 85.4298 60.9578 86.3262 63.0189C86.3262 63.0189 82.8483 67.0939 76.3579 65.1704L76.7837 67.5483H80.1506C84.21 67.5483 87.5 71.0288 87.5 75.3203Z" fill="#F05A8E"/>
<path d="M61.7273 80.4291V83.125H24.5V80.4291C24.5 72.976 30.3832 66.9348 37.6397 66.9348L38.7347 63.2958C35.7269 61.7579 33.5891 58.6876 33.2928 55.0843C33.2603 54.601 32.8768 54.2421 32.4283 54.1168C31.0156 53.7457 29.976 52.4307 29.976 50.8561C29.976 49.7844 30.4585 48.8315 31.2144 48.2139C30.6226 46.2545 29.976 43.3746 29.976 40.1734C29.976 38.6224 31.2009 37.3627 32.7128 37.3627C32.7128 37.3627 33.3292 30.6128 42.019 31.7406C50.9465 32.9001 55.4146 30.625 55.4146 30.625C55.4146 30.625 57.348 32.5478 57.348 36.2381C57.348 37.7224 56.9479 39.1099 56.2546 40.293C56.253 40.2905 56.253 40.2881 56.253 40.2864L56.2514 40.2987C56.2522 40.2962 56.253 40.2954 56.2546 40.293C56.6159 43.6936 55.9876 46.6483 55.3783 48.5597C55.9219 49.1619 56.2531 49.9691 56.2531 50.8561C56.2531 52.4306 55.2128 53.7456 53.8007 54.1167C53.3523 54.242 52.9687 54.6009 52.9355 55.0842C52.6383 58.6858 50.5022 61.7569 47.4944 63.2941L48.5894 66.9347C55.8456 66.9348 61.7273 72.976 61.7273 80.4291Z" fill="#ED1F29"/>
<defs>
<linearGradient id="paint0_linear_990_1040" x1="3.05292e-07" y1="56" x2="80.3905" y2="67.5948" gradientUnits="userSpaceOnUse">
<stop stop-color="#F05A8E"/>
<stop offset="1" stop-color="#ED1C24"/>
</linearGradient>
</defs>
</svg>
