<svg width="3777" height="159" viewBox="0 0 3777 159" fill="none" xmlns="http://www.w3.org/2000/svg">
<path d="M0 20C0 8.95431 8.9543 0 20 0H3757C3768.05 0 3777 8.95431 3777 20V159H0V20Z" fill="url(#paint0_linear_1714_1817)"/>
<path d="M23.805 112.263V100.602H1.656V95.22L25.737 64.101H29.877V95.082H35.949V100.602H29.877V112.263H23.805ZM7.935 95.082H24.426V73.485L7.935 95.082ZM77.2536 87.285C77.2536 90.413 76.4716 93.265 74.9076 95.841C73.3896 98.371 71.2966 100.395 68.6286 101.913C66.0066 103.431 63.0396 104.19 59.7276 104.19C56.2316 104.19 53.1496 103.362 50.4816 101.706C47.8136 100.004 45.7206 97.566 44.2026 94.392C42.7306 91.218 41.9946 87.446 41.9946 83.076C41.9946 76.636 42.7536 71.277 44.2716 66.999C45.7896 62.721 47.9286 59.524 50.6886 57.408C53.4486 55.246 56.6686 54.165 60.3486 54.165C63.5226 54.165 66.3976 54.947 68.9736 56.511C71.5956 58.029 73.6426 60.145 75.1146 62.859L71.3886 66.516C70.3766 64.354 68.8816 62.652 66.9036 61.41C64.9256 60.122 62.7176 59.478 60.2796 59.478C57.7956 59.478 55.6106 60.237 53.7246 61.755C51.8386 63.273 50.3666 65.458 49.3086 68.31C48.2966 71.162 47.7676 74.612 47.7216 78.66C48.4116 77.05 49.3776 75.67 50.6196 74.52C51.8616 73.324 53.3106 72.404 54.9666 71.76C56.6686 71.116 58.4626 70.794 60.3486 70.794C63.5226 70.794 66.3746 71.53 68.9046 73.002C71.4806 74.474 73.5046 76.452 74.9766 78.936C76.4946 81.42 77.2536 84.203 77.2536 87.285ZM59.7966 98.946C61.9126 98.946 63.8446 98.417 65.5926 97.359C67.3866 96.301 68.8126 94.898 69.8706 93.15C70.9286 91.356 71.4576 89.401 71.4576 87.285C71.4576 85.169 70.9286 83.237 69.8706 81.489C68.8126 79.741 67.3866 78.338 65.5926 77.28C63.8446 76.222 61.9126 75.693 59.7966 75.693C57.6806 75.693 55.7256 76.222 53.9316 77.28C52.1836 78.338 50.7806 79.741 49.7226 81.489C48.6646 83.237 48.1356 85.169 48.1356 87.285C48.1356 89.401 48.6646 91.356 49.7226 93.15C50.7806 94.898 52.1836 96.301 53.9316 97.359C55.7256 98.417 57.6806 98.946 59.7966 98.946ZM107.368 68.862H82.1833V63.273H116.959L92.3263 112.263H85.4263L107.368 68.862ZM144.294 68.862H119.109V63.273H153.885L129.252 112.263H122.352L144.294 68.862ZM178.685 76.521V81.489H170.543V90.321H165.023V81.489H156.881V76.521H165.023V67.689H170.543V76.521H178.685ZM202.648 103.5V77.94H213.592C214.72 77.94 215.752 78.18 216.688 78.66C217.624 79.116 218.44 79.74 219.136 80.532C219.832 81.3 220.372 82.176 220.756 83.16C221.14 84.12 221.332 85.104 221.332 86.112C221.332 87.288 221.104 88.404 220.648 89.46C220.216 90.516 219.592 91.416 218.776 92.16C217.984 92.904 217.048 93.42 215.968 93.708L222.16 103.5H218.488L212.656 94.32H205.888V103.5H202.648ZM205.888 91.44H213.628C214.516 91.44 215.284 91.2 215.932 90.72C216.604 90.216 217.12 89.556 217.48 88.74C217.864 87.924 218.056 87.048 218.056 86.112C218.056 85.152 217.84 84.276 217.408 83.484C216.976 82.668 216.412 82.02 215.716 81.54C215.02 81.06 214.252 80.82 213.412 80.82H205.888V91.44ZM233.522 103.86C232.106 103.86 230.81 103.608 229.634 103.104C228.482 102.576 227.474 101.868 226.61 100.98C225.77 100.068 225.11 99.024 224.63 97.848C224.174 96.672 223.946 95.424 223.946 94.104C223.946 92.328 224.354 90.708 225.17 89.244C225.986 87.78 227.114 86.604 228.554 85.716C230.018 84.828 231.686 84.384 233.558 84.384C235.454 84.384 237.098 84.84 238.49 85.752C239.906 86.64 240.998 87.816 241.766 89.28C242.558 90.72 242.954 92.28 242.954 93.96C242.954 94.2 242.942 94.44 242.918 94.68C242.918 94.896 242.906 95.064 242.882 95.184H227.294C227.39 96.408 227.726 97.5 228.302 98.46C228.902 99.396 229.67 100.14 230.606 100.692C231.542 101.22 232.55 101.484 233.63 101.484C234.782 101.484 235.862 101.196 236.87 100.62C237.902 100.044 238.61 99.288 238.994 98.352L241.73 99.108C241.322 100.02 240.71 100.836 239.894 101.556C239.102 102.276 238.154 102.84 237.05 103.248C235.97 103.656 234.794 103.86 233.522 103.86ZM227.186 92.988H240.002C239.906 91.764 239.558 90.684 238.958 89.748C238.358 88.812 237.59 88.08 236.654 87.552C235.718 87.024 234.686 86.76 233.558 86.76C232.454 86.76 231.434 87.024 230.498 87.552C229.562 88.08 228.794 88.812 228.194 89.748C227.618 90.684 227.282 91.764 227.186 92.988ZM253.964 103.716C252.692 103.716 251.516 103.464 250.436 102.96C249.38 102.432 248.468 101.724 247.7 100.836C246.932 99.924 246.332 98.892 245.9 97.74C245.492 96.588 245.288 95.388 245.288 94.14C245.288 92.82 245.492 91.572 245.9 90.396C246.332 89.22 246.932 88.188 247.7 87.3C248.492 86.388 249.416 85.68 250.472 85.176C251.528 84.648 252.704 84.384 254 84.384C255.56 84.384 256.916 84.768 258.068 85.536C259.244 86.304 260.228 87.276 261.02 88.452V84.708H263.828V103.284C263.828 105.06 263.396 106.56 262.532 107.784C261.692 109.008 260.54 109.932 259.076 110.556C257.636 111.204 256.028 111.528 254.252 111.528C252.14 111.528 250.412 111.156 249.068 110.412C247.724 109.668 246.608 108.66 245.72 107.388L247.556 105.768C248.3 106.872 249.26 107.7 250.436 108.252C251.636 108.804 252.908 109.08 254.252 109.08C255.404 109.08 256.46 108.864 257.42 108.432C258.404 108.024 259.184 107.388 259.76 106.524C260.36 105.66 260.66 104.58 260.66 103.284V99.972C259.964 101.124 259.004 102.036 257.78 102.708C256.58 103.38 255.308 103.716 253.964 103.716ZM254.936 101.124C255.608 101.124 256.256 101.004 256.88 100.764C257.504 100.524 258.08 100.212 258.608 99.828C259.136 99.42 259.58 98.964 259.94 98.46C260.3 97.956 260.54 97.44 260.66 96.912V91.512C260.324 90.648 259.844 89.892 259.22 89.244C258.596 88.572 257.888 88.056 257.096 87.696C256.304 87.312 255.488 87.12 254.648 87.12C253.688 87.12 252.824 87.324 252.056 87.732C251.312 88.14 250.676 88.692 250.148 89.388C249.62 90.06 249.212 90.816 248.924 91.656C248.636 92.496 248.492 93.348 248.492 94.212C248.492 95.148 248.66 96.036 248.996 96.876C249.332 97.692 249.788 98.424 250.364 99.072C250.94 99.72 251.624 100.224 252.416 100.584C253.208 100.944 254.048 101.124 254.936 101.124ZM268.941 103.5V84.708H272.109V103.5H268.941ZM268.941 81.18V77.22H272.109V81.18H268.941ZM283.682 103.86C282.122 103.86 280.658 103.608 279.29 103.104C277.922 102.576 276.746 101.796 275.762 100.764L276.986 98.532C278.066 99.54 279.146 100.26 280.226 100.692C281.306 101.124 282.41 101.34 283.538 101.34C284.834 101.34 285.89 101.1 286.706 100.62C287.522 100.116 287.93 99.384 287.93 98.424C287.93 97.728 287.714 97.212 287.282 96.876C286.874 96.54 286.286 96.264 285.518 96.048C284.75 95.808 283.838 95.544 282.782 95.256C281.486 94.872 280.394 94.464 279.506 94.032C278.618 93.6 277.946 93.06 277.49 92.412C277.034 91.764 276.806 90.948 276.806 89.964C276.806 88.764 277.118 87.756 277.742 86.94C278.366 86.1 279.218 85.464 280.298 85.032C281.402 84.6 282.65 84.384 284.042 84.384C285.434 84.384 286.694 84.6 287.822 85.032C288.95 85.464 289.922 86.1 290.738 86.94L289.298 89.136C288.554 88.368 287.738 87.804 286.85 87.444C285.962 87.06 284.966 86.868 283.862 86.868C283.214 86.868 282.578 86.952 281.954 87.12C281.33 87.264 280.814 87.54 280.406 87.948C279.998 88.332 279.794 88.884 279.794 89.604C279.794 90.204 279.95 90.684 280.262 91.044C280.598 91.38 281.078 91.668 281.702 91.908C282.35 92.148 283.13 92.412 284.042 92.7C285.458 93.108 286.682 93.516 287.714 93.924C288.77 94.332 289.586 94.86 290.162 95.508C290.738 96.156 291.026 97.056 291.026 98.208C291.026 99.984 290.354 101.376 289.01 102.384C287.666 103.368 285.89 103.86 283.682 103.86ZM304.536 102.564C304.272 102.684 303.912 102.84 303.456 103.032C303 103.224 302.472 103.392 301.872 103.536C301.272 103.68 300.636 103.752 299.964 103.752C299.196 103.752 298.488 103.62 297.84 103.356C297.192 103.068 296.676 102.636 296.292 102.06C295.908 101.46 295.716 100.716 295.716 99.828V87.192H293.16V84.708H295.716V78.444H298.884V84.708H303.096V87.192H298.884V98.856C298.932 99.528 299.16 100.032 299.568 100.368C299.976 100.68 300.456 100.836 301.008 100.836C301.632 100.836 302.208 100.728 302.736 100.512C303.264 100.296 303.612 100.14 303.78 100.044L304.536 102.564ZM315.542 103.86C314.126 103.86 312.83 103.608 311.654 103.104C310.502 102.576 309.494 101.868 308.63 100.98C307.79 100.068 307.13 99.024 306.65 97.848C306.194 96.672 305.966 95.424 305.966 94.104C305.966 92.328 306.374 90.708 307.19 89.244C308.006 87.78 309.134 86.604 310.574 85.716C312.038 84.828 313.706 84.384 315.578 84.384C317.474 84.384 319.118 84.84 320.51 85.752C321.926 86.64 323.018 87.816 323.786 89.28C324.578 90.72 324.974 92.28 324.974 93.96C324.974 94.2 324.962 94.44 324.938 94.68C324.938 94.896 324.926 95.064 324.902 95.184H309.314C309.41 96.408 309.746 97.5 310.322 98.46C310.922 99.396 311.69 100.14 312.626 100.692C313.562 101.22 314.57 101.484 315.65 101.484C316.802 101.484 317.882 101.196 318.89 100.62C319.922 100.044 320.63 99.288 321.014 98.352L323.75 99.108C323.342 100.02 322.73 100.836 321.914 101.556C321.122 102.276 320.174 102.84 319.07 103.248C317.99 103.656 316.814 103.86 315.542 103.86ZM309.206 92.988H322.022C321.926 91.764 321.578 90.684 320.978 89.748C320.378 88.812 319.61 88.08 318.674 87.552C317.738 87.024 316.706 86.76 315.578 86.76C314.474 86.76 313.454 87.024 312.518 87.552C311.582 88.08 310.814 88.812 310.214 89.748C309.638 90.684 309.302 91.764 309.206 92.988ZM338.431 87.48C336.847 87.504 335.443 87.912 334.219 88.704C333.019 89.472 332.167 90.54 331.663 91.908V103.5H328.495V84.708H331.447V89.064C332.095 87.768 332.947 86.724 334.003 85.932C335.083 85.116 336.211 84.66 337.387 84.564C337.627 84.564 337.831 84.564 337.999 84.564C338.167 84.564 338.311 84.576 338.431 84.6V87.48ZM349.433 103.86C348.017 103.86 346.721 103.608 345.545 103.104C344.393 102.576 343.385 101.868 342.521 100.98C341.681 100.068 341.021 99.024 340.541 97.848C340.085 96.672 339.857 95.424 339.857 94.104C339.857 92.328 340.265 90.708 341.081 89.244C341.897 87.78 343.025 86.604 344.465 85.716C345.929 84.828 347.597 84.384 349.469 84.384C351.365 84.384 353.009 84.84 354.401 85.752C355.817 86.64 356.909 87.816 357.677 89.28C358.469 90.72 358.865 92.28 358.865 93.96C358.865 94.2 358.853 94.44 358.829 94.68C358.829 94.896 358.817 95.064 358.793 95.184H343.205C343.301 96.408 343.637 97.5 344.213 98.46C344.813 99.396 345.581 100.14 346.517 100.692C347.453 101.22 348.461 101.484 349.541 101.484C350.693 101.484 351.773 101.196 352.781 100.62C353.813 100.044 354.521 99.288 354.905 98.352L357.641 99.108C357.233 100.02 356.621 100.836 355.805 101.556C355.013 102.276 354.065 102.84 352.961 103.248C351.881 103.656 350.705 103.86 349.433 103.86ZM343.097 92.988H355.913C355.817 91.764 355.469 90.684 354.869 89.748C354.269 88.812 353.501 88.08 352.565 87.552C351.629 87.024 350.597 86.76 349.469 86.76C348.365 86.76 347.345 87.024 346.409 87.552C345.473 88.08 344.705 88.812 344.105 89.748C343.529 90.684 343.193 91.764 343.097 92.988ZM361.162 94.14C361.162 92.364 361.522 90.744 362.242 89.28C362.986 87.792 363.994 86.604 365.266 85.716C366.562 84.828 368.038 84.384 369.694 84.384C371.206 84.384 372.562 84.78 373.762 85.572C374.962 86.364 375.898 87.324 376.57 88.452V77.22H379.738V99.9C379.738 100.284 379.81 100.572 379.954 100.764C380.122 100.932 380.386 101.028 380.746 101.052V103.5C380.146 103.596 379.678 103.644 379.342 103.644C378.718 103.644 378.166 103.428 377.686 102.996C377.23 102.564 377.002 102.084 377.002 101.556V99.972C376.258 101.172 375.262 102.12 374.014 102.816C372.766 103.512 371.47 103.86 370.126 103.86C368.83 103.86 367.63 103.608 366.526 103.104C365.446 102.576 364.498 101.856 363.682 100.944C362.89 100.032 362.266 99 361.81 97.848C361.378 96.672 361.162 95.436 361.162 94.14ZM376.57 96.912V91.512C376.282 90.696 375.814 89.964 375.166 89.316C374.518 88.644 373.786 88.116 372.97 87.732C372.178 87.324 371.386 87.12 370.594 87.12C369.658 87.12 368.806 87.324 368.038 87.732C367.294 88.116 366.646 88.644 366.094 89.316C365.566 89.964 365.158 90.708 364.87 91.548C364.582 92.388 364.438 93.264 364.438 94.176C364.438 95.112 364.594 96 364.906 96.84C365.242 97.68 365.698 98.424 366.274 99.072C366.874 99.72 367.558 100.224 368.326 100.584C369.118 100.944 369.97 101.124 370.882 101.124C371.458 101.124 372.046 101.016 372.646 100.8C373.27 100.584 373.858 100.284 374.41 99.9C374.962 99.516 375.43 99.072 375.814 98.568C376.198 98.04 376.45 97.488 376.57 96.912ZM405.184 103.68C403.144 103.68 401.428 103.332 400.036 102.636C398.644 101.916 397.528 100.956 396.688 99.756C395.848 98.532 395.236 97.152 394.852 95.616C394.468 94.08 394.276 92.496 394.276 90.864V77.94H397.516V90.864C397.516 92.112 397.636 93.336 397.876 94.536C398.14 95.712 398.56 96.768 399.136 97.704C399.712 98.64 400.492 99.384 401.476 99.936C402.46 100.488 403.684 100.764 405.148 100.764C406.636 100.764 407.872 100.488 408.856 99.936C409.84 99.36 410.62 98.604 411.196 97.668C411.772 96.708 412.18 95.64 412.42 94.464C412.684 93.288 412.816 92.088 412.816 90.864V77.94H416.056V90.864C416.056 92.592 415.852 94.236 415.444 95.796C415.06 97.332 414.436 98.688 413.572 99.864C412.708 101.04 411.58 101.976 410.188 102.672C408.82 103.344 407.152 103.68 405.184 103.68ZM427.295 103.86C425.735 103.86 424.271 103.608 422.903 103.104C421.535 102.576 420.359 101.796 419.375 100.764L420.599 98.532C421.679 99.54 422.759 100.26 423.839 100.692C424.919 101.124 426.023 101.34 427.151 101.34C428.447 101.34 429.503 101.1 430.319 100.62C431.135 100.116 431.543 99.384 431.543 98.424C431.543 97.728 431.327 97.212 430.895 96.876C430.487 96.54 429.899 96.264 429.131 96.048C428.363 95.808 427.451 95.544 426.395 95.256C425.099 94.872 424.007 94.464 423.119 94.032C422.231 93.6 421.559 93.06 421.103 92.412C420.647 91.764 420.419 90.948 420.419 89.964C420.419 88.764 420.731 87.756 421.355 86.94C421.979 86.1 422.831 85.464 423.911 85.032C425.015 84.6 426.263 84.384 427.655 84.384C429.047 84.384 430.307 84.6 431.435 85.032C432.563 85.464 433.535 86.1 434.351 86.94L432.911 89.136C432.167 88.368 431.351 87.804 430.463 87.444C429.575 87.06 428.579 86.868 427.475 86.868C426.827 86.868 426.191 86.952 425.567 87.12C424.943 87.264 424.427 87.54 424.019 87.948C423.611 88.332 423.407 88.884 423.407 89.604C423.407 90.204 423.563 90.684 423.875 91.044C424.211 91.38 424.691 91.668 425.315 91.908C425.963 92.148 426.743 92.412 427.655 92.7C429.071 93.108 430.295 93.516 431.327 93.924C432.383 94.332 433.199 94.86 433.775 95.508C434.351 96.156 434.639 97.056 434.639 98.208C434.639 99.984 433.967 101.376 432.623 102.384C431.279 103.368 429.503 103.86 427.295 103.86ZM446.745 103.86C445.329 103.86 444.033 103.608 442.857 103.104C441.705 102.576 440.697 101.868 439.833 100.98C438.993 100.068 438.333 99.024 437.853 97.848C437.397 96.672 437.169 95.424 437.169 94.104C437.169 92.328 437.577 90.708 438.393 89.244C439.209 87.78 440.337 86.604 441.777 85.716C443.241 84.828 444.909 84.384 446.781 84.384C448.677 84.384 450.321 84.84 451.713 85.752C453.129 86.64 454.221 87.816 454.989 89.28C455.781 90.72 456.177 92.28 456.177 93.96C456.177 94.2 456.165 94.44 456.141 94.68C456.141 94.896 456.129 95.064 456.105 95.184H440.517C440.613 96.408 440.949 97.5 441.525 98.46C442.125 99.396 442.893 100.14 443.829 100.692C444.765 101.22 445.773 101.484 446.853 101.484C448.005 101.484 449.085 101.196 450.093 100.62C451.125 100.044 451.833 99.288 452.217 98.352L454.953 99.108C454.545 100.02 453.933 100.836 453.117 101.556C452.325 102.276 451.377 102.84 450.273 103.248C449.193 103.656 448.017 103.86 446.745 103.86ZM440.409 92.988H453.225C453.129 91.764 452.781 90.684 452.181 89.748C451.581 88.812 450.813 88.08 449.877 87.552C448.941 87.024 447.909 86.76 446.781 86.76C445.677 86.76 444.657 87.024 443.721 87.552C442.785 88.08 442.017 88.812 441.417 89.748C440.841 90.684 440.505 91.764 440.409 92.988ZM469.635 87.48C468.051 87.504 466.647 87.912 465.423 88.704C464.223 89.472 463.371 90.54 462.867 91.908V103.5H459.699V84.708H462.651V89.064C463.299 87.768 464.151 86.724 465.207 85.932C466.287 85.116 467.415 84.66 468.591 84.564C468.831 84.564 469.035 84.564 469.203 84.564C469.371 84.564 469.515 84.576 469.635 84.6V87.48ZM479.221 103.86C477.661 103.86 476.197 103.608 474.829 103.104C473.461 102.576 472.285 101.796 471.301 100.764L472.525 98.532C473.605 99.54 474.685 100.26 475.765 100.692C476.845 101.124 477.949 101.34 479.077 101.34C480.373 101.34 481.429 101.1 482.245 100.62C483.061 100.116 483.469 99.384 483.469 98.424C483.469 97.728 483.253 97.212 482.821 96.876C482.413 96.54 481.825 96.264 481.057 96.048C480.289 95.808 479.377 95.544 478.321 95.256C477.025 94.872 475.933 94.464 475.045 94.032C474.157 93.6 473.485 93.06 473.029 92.412C472.573 91.764 472.345 90.948 472.345 89.964C472.345 88.764 472.657 87.756 473.281 86.94C473.905 86.1 474.757 85.464 475.837 85.032C476.941 84.6 478.189 84.384 479.581 84.384C480.973 84.384 482.233 84.6 483.361 85.032C484.489 85.464 485.461 86.1 486.277 86.94L484.837 89.136C484.093 88.368 483.277 87.804 482.389 87.444C481.501 87.06 480.505 86.868 479.401 86.868C478.753 86.868 478.117 86.952 477.493 87.12C476.869 87.264 476.353 87.54 475.945 87.948C475.537 88.332 475.333 88.884 475.333 89.604C475.333 90.204 475.489 90.684 475.801 91.044C476.137 91.38 476.617 91.668 477.241 91.908C477.889 92.148 478.669 92.412 479.581 92.7C480.997 93.108 482.221 93.516 483.253 93.924C484.309 94.332 485.125 94.86 485.701 95.508C486.277 96.156 486.565 97.056 486.565 98.208C486.565 99.984 485.893 101.376 484.549 102.384C483.205 103.368 481.429 103.86 479.221 103.86Z" fill="white"/>
<rect x="502.203" y="30.2032" width="96.5935" height="96.5935" rx="48.2968" stroke="white" stroke-width="0.406493"/>
<rect x="502.203" y="30.2032" width="96.5935" height="96.5935" rx="48.2968" stroke="white" stroke-width="0.406493"/>
<mask id="path-4-inside-1_1714_1817" fill="white">
<path d="M563.13 97.445C563.13 93.1573 561.427 89.0453 558.395 86.0134C555.363 82.9816 551.251 81.2783 546.964 81.2783C542.676 81.2783 538.564 82.9816 535.532 86.0134C532.5 89.0453 530.797 93.1573 530.797 97.445"/>
</mask>
<path d="M563.13 97.445C563.13 93.1573 561.427 89.0453 558.395 86.0134C555.363 82.9816 551.251 81.2783 546.964 81.2783C542.676 81.2783 538.564 82.9816 535.532 86.0134C532.5 89.0453 530.797 93.1573 530.797 97.445" fill="white"/>
<path d="M561.13 97.445C561.13 98.5496 562.026 99.445 563.13 99.445C564.235 99.445 565.13 98.5496 565.13 97.445H561.13ZM546.964 81.2783V79.2783V81.2783ZM528.797 97.445C528.797 98.5496 529.692 99.445 530.797 99.445C531.902 99.445 532.797 98.5496 532.797 97.445H528.797ZM565.13 97.445C565.13 92.6269 563.216 88.0061 559.809 84.5992L556.981 87.4276C559.638 90.0844 561.13 93.6878 561.13 97.445H565.13ZM559.809 84.5992C556.403 81.1923 551.782 79.2783 546.964 79.2783V83.2783C550.721 83.2783 554.324 84.7709 556.981 87.4276L559.809 84.5992ZM546.964 79.2783C542.146 79.2783 537.525 81.1923 534.118 84.5992L536.946 87.4276C539.603 84.7709 543.206 83.2783 546.964 83.2783V79.2783ZM534.118 84.5992C530.711 88.0061 528.797 92.6269 528.797 97.445H532.797C532.797 93.6878 534.29 90.0844 536.946 87.4276L534.118 84.5992Z" fill="white" mask="url(#path-4-inside-1_1714_1817)"/>
<path d="M546.964 81.2787C552.544 81.2787 557.068 76.7549 557.068 71.1745C557.068 65.5941 552.544 61.0703 546.964 61.0703C541.383 61.0703 536.859 65.5941 536.859 71.1745C536.859 76.7549 541.383 81.2787 546.964 81.2787Z" fill="white" stroke="white" stroke-width="2" stroke-linecap="round" stroke-linejoin="round"/>
<path d="M571.214 95.4245C571.214 88.6143 567.172 82.2891 563.13 79.2578C564.459 78.2611 565.521 76.9522 566.223 75.4471C566.926 73.9419 567.246 72.2869 567.156 70.6284C567.066 68.97 566.569 67.3593 565.708 65.9389C564.847 64.5185 563.65 63.3321 562.221 62.4849" stroke="white" stroke-width="2" stroke-linecap="round" stroke-linejoin="round"/>
<path d="M653.967 103.5C653.967 101.66 654.105 99.935 654.381 98.325C654.703 96.715 655.255 95.174 656.037 93.702C656.865 92.23 658.015 90.827 659.487 89.493C660.959 88.113 662.868 86.779 665.214 85.491C666.594 84.709 667.974 83.973 669.354 83.283C670.78 82.593 672.091 81.857 673.287 81.075C674.529 80.293 675.518 79.442 676.254 78.522C676.99 77.556 677.358 76.452 677.358 75.21C677.358 74.152 677.036 73.14 676.392 72.174C675.794 71.162 674.874 70.357 673.632 69.759C672.436 69.115 670.941 68.793 669.147 68.793C667.767 68.793 666.502 68.977 665.352 69.345C664.248 69.713 663.236 70.196 662.316 70.794C661.442 71.346 660.66 71.944 659.97 72.588C659.326 73.186 658.774 73.738 658.314 74.244L654.519 69.966C654.887 69.552 655.508 69 656.382 68.31C657.256 67.574 658.36 66.838 659.694 66.102C661.028 65.366 662.569 64.745 664.317 64.239C666.111 63.687 668.066 63.411 670.182 63.411C673.034 63.411 675.472 63.917 677.496 64.929C679.566 65.895 681.153 67.229 682.257 68.931C683.361 70.587 683.913 72.45 683.913 74.52C683.913 76.314 683.522 77.878 682.74 79.212C682.004 80.546 681.038 81.719 679.842 82.731C678.692 83.743 677.473 84.617 676.185 85.353C674.943 86.043 673.816 86.641 672.804 87.147C670.734 88.159 668.963 89.079 667.491 89.907C666.019 90.735 664.8 91.563 663.834 92.391C662.914 93.173 662.155 94.001 661.557 94.875C661.005 95.749 660.591 96.784 660.315 97.98H684.672V103.5H653.967ZM690.41 81.006C690.41 77.878 691.169 75.049 692.687 72.519C694.251 69.943 696.367 67.896 699.035 66.378C701.703 64.86 704.67 64.101 707.936 64.101C711.478 64.101 714.56 64.952 717.182 66.654C719.85 68.31 721.92 70.725 723.392 73.899C724.91 77.027 725.669 80.799 725.669 85.215C725.669 91.655 724.91 97.014 723.392 101.292C721.874 105.57 719.735 108.767 716.975 110.883C714.215 113.045 710.995 114.126 707.315 114.126C704.141 114.126 701.243 113.344 698.621 111.78C696.045 110.262 694.021 108.146 692.549 105.432L696.275 101.775C697.287 103.891 698.782 105.593 700.76 106.881C702.784 108.169 704.992 108.813 707.384 108.813C709.914 108.813 712.099 108.054 713.939 106.536C715.825 105.018 717.274 102.833 718.286 99.981C719.344 97.129 719.896 93.679 719.942 89.631C719.298 91.195 718.332 92.575 717.044 93.771C715.802 94.967 714.353 95.887 712.697 96.531C711.041 97.175 709.247 97.497 707.315 97.497C704.187 97.497 701.335 96.761 698.759 95.289C696.183 93.817 694.136 91.839 692.618 89.355C691.146 86.871 690.41 84.088 690.41 81.006ZM707.867 69.345C705.751 69.345 703.796 69.874 702.002 70.932C700.254 71.99 698.851 73.393 697.793 75.141C696.735 76.889 696.206 78.844 696.206 81.006C696.206 83.122 696.735 85.054 697.793 86.802C698.851 88.55 700.254 89.953 702.002 91.011C703.796 92.069 705.751 92.598 707.867 92.598C710.029 92.598 711.984 92.069 713.732 91.011C715.48 89.953 716.883 88.55 717.941 86.802C718.999 85.054 719.528 83.122 719.528 81.006C719.528 78.89 718.999 76.958 717.941 75.21C716.883 73.416 715.457 71.99 713.663 70.932C711.915 69.874 709.983 69.345 707.867 69.345ZM753.26 87.216C755.238 87.538 756.94 88.274 758.366 89.424C759.792 90.528 760.896 91.954 761.678 93.702C762.46 95.404 762.851 97.336 762.851 99.498C762.851 102.304 762.161 104.765 760.781 106.881C759.447 109.043 757.538 110.699 755.054 111.849C752.57 113.045 749.672 113.643 746.36 113.643C742.864 113.643 739.782 112.976 737.114 111.642C734.492 110.354 732.445 108.514 730.973 106.122L735.044 102.051C736.102 103.891 737.528 105.363 739.322 106.467C741.162 107.571 743.508 108.123 746.36 108.123C749.534 108.123 752.018 107.387 753.812 105.915C755.652 104.489 756.572 102.35 756.572 99.498C756.572 96.6 755.583 94.3 753.605 92.598C751.673 90.85 748.844 89.976 745.118 89.976H743.324V84.87H745.256C748.568 84.87 751.098 84.065 752.846 82.455C754.64 80.845 755.537 78.844 755.537 76.452C755.537 74.796 755.146 73.439 754.364 72.381C753.582 71.323 752.524 70.541 751.19 70.035C749.856 69.483 748.315 69.207 746.567 69.207C744.037 69.207 741.806 69.759 739.874 70.863C737.988 71.921 736.516 73.416 735.458 75.348L731.732 71.484C732.56 69.92 733.733 68.563 735.251 67.413C736.815 66.263 738.609 65.366 740.633 64.722C742.703 64.078 744.888 63.756 747.188 63.756C750.086 63.756 752.639 64.262 754.847 65.274C757.101 66.286 758.849 67.712 760.091 69.552C761.333 71.392 761.954 73.554 761.954 76.038C761.954 77.832 761.609 79.534 760.919 81.144C760.229 82.708 759.217 84.042 757.883 85.146C756.595 86.204 755.054 86.894 753.26 87.216ZM783.898 113.781C780.402 113.781 777.251 112.953 774.445 111.297C771.639 109.641 769.523 107.433 768.097 104.673L771.892 101.361C773.18 103.477 774.882 105.179 776.998 106.467C779.16 107.755 781.483 108.399 783.967 108.399C786.083 108.399 787.969 107.939 789.625 107.019C791.281 106.099 792.592 104.834 793.558 103.224C794.524 101.568 795.007 99.682 795.007 97.566C795.007 95.496 794.524 93.679 793.558 92.115C792.638 90.551 791.373 89.332 789.763 88.458C788.199 87.584 786.428 87.147 784.45 87.147C782.472 87.147 780.609 87.584 778.861 88.458C777.159 89.332 775.756 90.574 774.652 92.184H769.201L774.721 64.101H798.526V69.69H779.206L776.239 85.284C777.251 84.226 778.516 83.398 780.034 82.8C781.598 82.156 783.323 81.834 785.209 81.834C788.245 81.834 790.959 82.501 793.351 83.835C795.789 85.169 797.698 87.009 799.078 89.355C800.504 91.701 801.217 94.415 801.217 97.497C801.217 100.717 800.435 103.546 798.871 105.984C797.353 108.468 795.283 110.377 792.661 111.711C790.039 113.091 787.118 113.781 783.898 113.781ZM827.394 76.521V81.489H819.252V90.321H813.732V81.489H805.59V76.521H813.732V67.689H819.252V76.521H827.394ZM873.461 103.5V83.988L865.037 99H863.057L854.597 83.988V103.5H851.357V77.94H854.777L864.029 94.536L873.317 77.94H876.701V103.5H873.461ZM890.317 103.86C888.901 103.86 887.605 103.608 886.429 103.104C885.277 102.576 884.269 101.868 883.405 100.98C882.565 100.068 881.905 99.024 881.425 97.848C880.969 96.672 880.741 95.424 880.741 94.104C880.741 92.328 881.149 90.708 881.965 89.244C882.781 87.78 883.909 86.604 885.349 85.716C886.813 84.828 888.481 84.384 890.353 84.384C892.249 84.384 893.893 84.84 895.285 85.752C896.701 86.64 897.793 87.816 898.561 89.28C899.353 90.72 899.749 92.28 899.749 93.96C899.749 94.2 899.737 94.44 899.713 94.68C899.713 94.896 899.701 95.064 899.677 95.184H884.089C884.185 96.408 884.521 97.5 885.097 98.46C885.697 99.396 886.465 100.14 887.401 100.692C888.337 101.22 889.345 101.484 890.425 101.484C891.577 101.484 892.657 101.196 893.665 100.62C894.697 100.044 895.405 99.288 895.789 98.352L898.525 99.108C898.117 100.02 897.505 100.836 896.689 101.556C895.897 102.276 894.949 102.84 893.845 103.248C892.765 103.656 891.589 103.86 890.317 103.86ZM883.981 92.988H896.797C896.701 91.764 896.353 90.684 895.753 89.748C895.153 88.812 894.385 88.08 893.449 87.552C892.513 87.024 891.481 86.76 890.353 86.76C889.249 86.76 888.229 87.024 887.293 87.552C886.357 88.08 885.589 88.812 884.989 89.748C884.413 90.684 884.077 91.764 883.981 92.988ZM919.579 103.5H916.411V92.988C916.411 90.996 916.099 89.544 915.475 88.632C914.875 87.696 913.951 87.228 912.703 87.228C911.839 87.228 910.975 87.444 910.111 87.876C909.271 88.308 908.515 88.896 907.843 89.64C907.195 90.36 906.727 91.2 906.439 92.16V103.5H903.271V84.708H906.151V88.74C906.655 87.852 907.303 87.084 908.095 86.436C908.887 85.788 909.787 85.284 910.795 84.924C911.803 84.564 912.859 84.384 913.963 84.384C915.043 84.384 915.943 84.588 916.663 84.996C917.407 85.38 917.983 85.932 918.391 86.652C918.823 87.348 919.123 88.176 919.291 89.136C919.483 90.096 919.579 91.14 919.579 92.268V103.5ZM930.949 103.86C929.389 103.86 927.925 103.608 926.557 103.104C925.189 102.576 924.013 101.796 923.029 100.764L924.253 98.532C925.333 99.54 926.413 100.26 927.493 100.692C928.573 101.124 929.677 101.34 930.805 101.34C932.101 101.34 933.157 101.1 933.973 100.62C934.789 100.116 935.197 99.384 935.197 98.424C935.197 97.728 934.981 97.212 934.549 96.876C934.141 96.54 933.553 96.264 932.785 96.048C932.017 95.808 931.105 95.544 930.049 95.256C928.753 94.872 927.661 94.464 926.773 94.032C925.885 93.6 925.213 93.06 924.757 92.412C924.301 91.764 924.073 90.948 924.073 89.964C924.073 88.764 924.385 87.756 925.009 86.94C925.633 86.1 926.485 85.464 927.565 85.032C928.669 84.6 929.917 84.384 931.309 84.384C932.701 84.384 933.961 84.6 935.089 85.032C936.217 85.464 937.189 86.1 938.005 86.94L936.565 89.136C935.821 88.368 935.005 87.804 934.117 87.444C933.229 87.06 932.233 86.868 931.129 86.868C930.481 86.868 929.845 86.952 929.221 87.12C928.597 87.264 928.081 87.54 927.673 87.948C927.265 88.332 927.061 88.884 927.061 89.604C927.061 90.204 927.217 90.684 927.529 91.044C927.865 91.38 928.345 91.668 928.969 91.908C929.617 92.148 930.397 92.412 931.309 92.7C932.725 93.108 933.949 93.516 934.981 93.924C936.037 94.332 936.853 94.86 937.429 95.508C938.005 96.156 938.293 97.056 938.293 98.208C938.293 99.984 937.621 101.376 936.277 102.384C934.933 103.368 933.157 103.86 930.949 103.86Z" fill="white"/>
<rect x="1131.2" y="29.2032" width="96.5935" height="96.5935" rx="48.2968" stroke="white" stroke-width="0.406493"/>
<rect x="1131.2" y="29.2032" width="96.5935" height="96.5935" rx="48.2968" stroke="white" stroke-width="0.406493"/>
<mask id="path-10-inside-2_1714_1817" fill="white">
<path d="M1192.13 96.445C1192.13 92.1573 1190.43 88.0453 1187.4 85.0134C1184.36 81.9816 1180.25 80.2783 1175.96 80.2783C1171.68 80.2783 1167.56 81.9816 1164.53 85.0134C1161.5 88.0453 1159.8 92.1573 1159.8 96.445"/>
</mask>
<path d="M1192.13 96.445C1192.13 92.1573 1190.43 88.0453 1187.4 85.0134C1184.36 81.9816 1180.25 80.2783 1175.96 80.2783C1171.68 80.2783 1167.56 81.9816 1164.53 85.0134C1161.5 88.0453 1159.8 92.1573 1159.8 96.445" fill="white"/>
<path d="M1190.13 96.445C1190.13 97.5496 1191.03 98.445 1192.13 98.445C1193.23 98.445 1194.13 97.5496 1194.13 96.445H1190.13ZM1175.96 80.2783V78.2783V80.2783ZM1157.8 96.445C1157.8 97.5496 1158.69 98.445 1159.8 98.445C1160.9 98.445 1161.8 97.5496 1161.8 96.445H1157.8ZM1194.13 96.445C1194.13 91.6269 1192.22 87.0061 1188.81 83.5992L1185.98 86.4276C1188.64 89.0844 1190.13 92.6878 1190.13 96.445H1194.13ZM1188.81 83.5992C1185.4 80.1923 1180.78 78.2783 1175.96 78.2783V82.2783C1179.72 82.2783 1183.32 83.7709 1185.98 86.4276L1188.81 83.5992ZM1175.96 78.2783C1171.15 78.2783 1166.52 80.1923 1163.12 83.5992L1165.95 86.4276C1168.6 83.7709 1172.21 82.2783 1175.96 82.2783V78.2783ZM1163.12 83.5992C1159.71 87.0061 1157.8 91.6269 1157.8 96.445H1161.8C1161.8 92.6878 1163.29 89.0844 1165.95 86.4276L1163.12 83.5992Z" fill="white" mask="url(#path-10-inside-2_1714_1817)"/>
<path d="M1175.96 80.2787C1181.54 80.2787 1186.07 75.7549 1186.07 70.1745C1186.07 64.5941 1181.54 60.0703 1175.96 60.0703C1170.38 60.0703 1165.86 64.5941 1165.86 70.1745C1165.86 75.7549 1170.38 80.2787 1175.96 80.2787Z" fill="white" stroke="white" stroke-width="2" stroke-linecap="round" stroke-linejoin="round"/>
<path d="M1200.21 94.4245C1200.21 87.6143 1196.17 81.2891 1192.13 78.2578C1193.46 77.2611 1194.52 75.9522 1195.22 74.4471C1195.93 72.9419 1196.25 71.2869 1196.16 69.6284C1196.07 67.97 1195.57 66.3593 1194.71 64.9389C1193.85 63.5185 1192.65 62.3321 1191.22 61.4849" stroke="white" stroke-width="2" stroke-linecap="round" stroke-linejoin="round"/>
<path d="M1309.39 97.98V103.5H1284.62V97.98H1294.42V71.07C1294.01 71.622 1293.36 72.22 1292.49 72.864C1291.62 73.462 1290.63 74.037 1289.52 74.589C1288.42 75.141 1287.31 75.601 1286.21 75.969C1285.11 76.291 1284.09 76.452 1283.17 76.452V70.656C1284.19 70.656 1285.29 70.38 1286.49 69.828C1287.73 69.23 1288.92 68.54 1290.07 67.758C1291.22 66.976 1292.19 66.24 1292.97 65.55C1293.8 64.86 1294.28 64.377 1294.42 64.101H1300.63V97.98H1309.39ZM1338.11 68.862H1312.93V63.273H1347.7L1323.07 112.263H1316.17L1338.11 68.862ZM1368.56 112.263V100.602H1346.41V95.22L1370.49 64.101H1374.63V95.082H1380.7V100.602H1374.63V112.263H1368.56ZM1352.69 95.082H1369.18V73.485L1352.69 95.082ZM1386.2 103.5C1386.2 101.66 1386.34 99.935 1386.61 98.325C1386.93 96.715 1387.49 95.174 1388.27 93.702C1389.1 92.23 1390.25 90.827 1391.72 89.493C1393.19 88.113 1395.1 86.779 1397.44 85.491C1398.82 84.709 1400.2 83.973 1401.58 83.283C1403.01 82.593 1404.32 81.857 1405.52 81.075C1406.76 80.293 1407.75 79.442 1408.48 78.522C1409.22 77.556 1409.59 76.452 1409.59 75.21C1409.59 74.152 1409.27 73.14 1408.62 72.174C1408.02 71.162 1407.1 70.357 1405.86 69.759C1404.67 69.115 1403.17 68.793 1401.38 68.793C1400 68.793 1398.73 68.977 1397.58 69.345C1396.48 69.713 1395.47 70.196 1394.55 70.794C1393.67 71.346 1392.89 71.944 1392.2 72.588C1391.56 73.186 1391 73.738 1390.54 74.244L1386.75 69.966C1387.12 69.552 1387.74 69 1388.61 68.31C1389.49 67.574 1390.59 66.838 1391.92 66.102C1393.26 65.366 1394.8 64.745 1396.55 64.239C1398.34 63.687 1400.3 63.411 1402.41 63.411C1405.26 63.411 1407.7 63.917 1409.73 64.929C1411.8 65.895 1413.38 67.229 1414.49 68.931C1415.59 70.587 1416.14 72.45 1416.14 74.52C1416.14 76.314 1415.75 77.878 1414.97 79.212C1414.23 80.546 1413.27 81.719 1412.07 82.731C1410.92 83.743 1409.7 84.617 1408.42 85.353C1407.17 86.043 1406.05 86.641 1405.03 87.147C1402.96 88.159 1401.19 89.079 1399.72 89.907C1398.25 90.735 1397.03 91.563 1396.06 92.391C1395.14 93.173 1394.39 94.001 1393.79 94.875C1393.24 95.749 1392.82 96.784 1392.55 97.98H1416.9V103.5H1386.2ZM1445.41 76.521V81.489H1437.27V90.321H1431.75V81.489H1423.61V76.521H1431.75V67.689H1437.27V76.521H1445.41ZM1478.73 78.084H1481.79L1485.18 86.976L1488.6 78.084H1491.66L1487.23 89.208L1491.62 99.756L1500.26 77.94H1503.79L1493.1 103.5H1490.29L1485.21 91.44L1480.1 103.5H1477.29L1466.64 77.94H1470.13L1478.81 99.756L1483.16 89.208L1478.73 78.084ZM1512.37 103.86C1510.96 103.86 1509.67 103.608 1508.52 103.104C1507.37 102.576 1506.37 101.868 1505.53 100.98C1504.69 100.068 1504.05 99.024 1503.59 97.848C1503.13 96.672 1502.91 95.436 1502.91 94.14C1502.91 92.82 1503.13 91.572 1503.59 90.396C1504.05 89.22 1504.69 88.188 1505.53 87.3C1506.37 86.388 1507.37 85.68 1508.52 85.176C1509.7 84.648 1510.98 84.384 1512.37 84.384C1513.79 84.384 1515.07 84.648 1516.23 85.176C1517.38 85.68 1518.37 86.388 1519.21 87.3C1520.08 88.188 1520.74 89.22 1521.19 90.396C1521.65 91.572 1521.88 92.82 1521.88 94.14C1521.88 95.436 1521.65 96.672 1521.19 97.848C1520.74 99.024 1520.09 100.068 1519.25 100.98C1518.41 101.868 1517.4 102.576 1516.23 103.104C1515.07 103.608 1513.79 103.86 1512.37 103.86ZM1506.15 94.176C1506.15 95.472 1506.42 96.648 1506.97 97.704C1507.55 98.76 1508.31 99.6 1509.24 100.224C1510.18 100.824 1511.22 101.124 1512.37 101.124C1513.53 101.124 1514.57 100.812 1515.51 100.188C1516.47 99.564 1517.22 98.724 1517.77 97.668C1518.35 96.588 1518.64 95.4 1518.64 94.104C1518.64 92.808 1518.35 91.632 1517.77 90.576C1517.22 89.52 1516.47 88.68 1515.51 88.056C1514.57 87.432 1513.53 87.12 1512.37 87.12C1511.22 87.12 1510.18 87.444 1509.24 88.092C1508.31 88.716 1507.55 89.556 1506.97 90.612C1506.42 91.668 1506.15 92.856 1506.15 94.176ZM1554.05 103.5H1550.88V92.988C1550.88 91.02 1550.56 89.568 1549.91 88.632C1549.29 87.696 1548.35 87.228 1547.1 87.228C1545.83 87.228 1544.68 87.696 1543.65 88.632C1542.61 89.544 1541.88 90.732 1541.45 92.196V103.5H1538.28V92.988C1538.28 90.996 1537.97 89.544 1537.35 88.632C1536.72 87.696 1535.79 87.228 1534.54 87.228C1533.29 87.228 1532.14 87.684 1531.08 88.596C1530.05 89.484 1529.32 90.672 1528.89 92.16V103.5H1525.72V84.708H1528.6V88.74C1529.37 87.348 1530.36 86.28 1531.59 85.536C1532.81 84.768 1534.19 84.384 1535.73 84.384C1537.29 84.384 1538.53 84.816 1539.47 85.68C1540.41 86.52 1540.98 87.612 1541.2 88.956C1542.04 87.468 1543.06 86.34 1544.26 85.572C1545.46 84.78 1546.83 84.384 1548.36 84.384C1549.44 84.384 1550.34 84.588 1551.06 84.996C1551.81 85.38 1552.39 85.932 1552.83 86.652C1553.26 87.348 1553.57 88.176 1553.76 89.136C1553.95 90.096 1554.05 91.14 1554.05 92.268V103.5ZM1567.29 103.86C1565.87 103.86 1564.58 103.608 1563.4 103.104C1562.25 102.576 1561.24 101.868 1560.38 100.98C1559.54 100.068 1558.88 99.024 1558.4 97.848C1557.94 96.672 1557.71 95.424 1557.71 94.104C1557.71 92.328 1558.12 90.708 1558.94 89.244C1559.75 87.78 1560.88 86.604 1562.32 85.716C1563.79 84.828 1565.45 84.384 1567.33 84.384C1569.22 84.384 1570.87 84.84 1572.26 85.752C1573.67 86.64 1574.77 87.816 1575.53 89.28C1576.33 90.72 1576.72 92.28 1576.72 93.96C1576.72 94.2 1576.71 94.44 1576.69 94.68C1576.69 94.896 1576.67 95.064 1576.65 95.184H1561.06C1561.16 96.408 1561.49 97.5 1562.07 98.46C1562.67 99.396 1563.44 100.14 1564.37 100.692C1565.31 101.22 1566.32 101.484 1567.4 101.484C1568.55 101.484 1569.63 101.196 1570.64 100.62C1571.67 100.044 1572.38 99.288 1572.76 98.352L1575.5 99.108C1575.09 100.02 1574.48 100.836 1573.66 101.556C1572.87 102.276 1571.92 102.84 1570.82 103.248C1569.74 103.656 1568.56 103.86 1567.29 103.86ZM1560.95 92.988H1573.77C1573.67 91.764 1573.33 90.684 1572.73 89.748C1572.13 88.812 1571.36 88.08 1570.42 87.552C1569.49 87.024 1568.45 86.76 1567.33 86.76C1566.22 86.76 1565.2 87.024 1564.27 87.552C1563.33 88.08 1562.56 88.812 1561.96 89.748C1561.39 90.684 1561.05 91.764 1560.95 92.988ZM1596.55 103.5H1593.38V92.988C1593.38 90.996 1593.07 89.544 1592.45 88.632C1591.85 87.696 1590.92 87.228 1589.68 87.228C1588.81 87.228 1587.95 87.444 1587.08 87.876C1586.24 88.308 1585.49 88.896 1584.82 89.64C1584.17 90.36 1583.7 91.2 1583.41 92.16V103.5H1580.24V84.708H1583.12V88.74C1583.63 87.852 1584.28 87.084 1585.07 86.436C1585.86 85.788 1586.76 85.284 1587.77 84.924C1588.78 84.564 1589.83 84.384 1590.94 84.384C1592.02 84.384 1592.92 84.588 1593.64 84.996C1594.38 85.38 1594.96 85.932 1595.36 86.652C1595.8 87.348 1596.1 88.176 1596.26 89.136C1596.46 90.096 1596.55 91.14 1596.55 92.268V103.5ZM1607.92 103.86C1606.36 103.86 1604.9 103.608 1603.53 103.104C1602.16 102.576 1600.99 101.796 1600 100.764L1601.23 98.532C1602.31 99.54 1603.39 100.26 1604.47 100.692C1605.55 101.124 1606.65 101.34 1607.78 101.34C1609.07 101.34 1610.13 101.1 1610.95 100.62C1611.76 100.116 1612.17 99.384 1612.17 98.424C1612.17 97.728 1611.95 97.212 1611.52 96.876C1611.11 96.54 1610.53 96.264 1609.76 96.048C1608.99 95.808 1608.08 95.544 1607.02 95.256C1605.73 94.872 1604.63 94.464 1603.75 94.032C1602.86 93.6 1602.19 93.06 1601.73 92.412C1601.27 91.764 1601.05 90.948 1601.05 89.964C1601.05 88.764 1601.36 87.756 1601.98 86.94C1602.61 86.1 1603.46 85.464 1604.54 85.032C1605.64 84.6 1606.89 84.384 1608.28 84.384C1609.67 84.384 1610.93 84.6 1612.06 85.032C1613.19 85.464 1614.16 86.1 1614.98 86.94L1613.54 89.136C1612.79 88.368 1611.98 87.804 1611.09 87.444C1610.2 87.06 1609.21 86.868 1608.1 86.868C1607.45 86.868 1606.82 86.952 1606.19 87.12C1605.57 87.264 1605.05 87.54 1604.65 87.948C1604.24 88.332 1604.03 88.884 1604.03 89.604C1604.03 90.204 1604.19 90.684 1604.5 91.044C1604.84 91.38 1605.32 91.668 1605.94 91.908C1606.59 92.148 1607.37 92.412 1608.28 92.7C1609.7 93.108 1610.92 93.516 1611.95 93.924C1613.01 94.332 1613.83 94.86 1614.4 95.508C1614.98 96.156 1615.27 97.056 1615.27 98.208C1615.27 99.984 1614.59 101.376 1613.25 102.384C1611.91 103.368 1610.13 103.86 1607.92 103.86Z" fill="white"/>
<rect x="1762.2" y="29.2032" width="96.5935" height="96.5935" rx="48.2968" stroke="white" stroke-width="0.406493"/>
<rect x="1762.2" y="29.2032" width="96.5935" height="96.5935" rx="48.2968" stroke="white" stroke-width="0.406493"/>
<mask id="path-16-inside-3_1714_1817" fill="white">
<path d="M1823.13 96.445C1823.13 92.1573 1821.43 88.0453 1818.4 85.0134C1815.36 81.9816 1811.25 80.2783 1806.96 80.2783C1802.68 80.2783 1798.56 81.9816 1795.53 85.0134C1792.5 88.0453 1790.8 92.1573 1790.8 96.445"/>
</mask>
<path d="M1823.13 96.445C1823.13 92.1573 1821.43 88.0453 1818.4 85.0134C1815.36 81.9816 1811.25 80.2783 1806.96 80.2783C1802.68 80.2783 1798.56 81.9816 1795.53 85.0134C1792.5 88.0453 1790.8 92.1573 1790.8 96.445" fill="white"/>
<path d="M1821.13 96.445C1821.13 97.5496 1822.03 98.445 1823.13 98.445C1824.23 98.445 1825.13 97.5496 1825.13 96.445H1821.13ZM1806.96 80.2783V78.2783V80.2783ZM1788.8 96.445C1788.8 97.5496 1789.69 98.445 1790.8 98.445C1791.9 98.445 1792.8 97.5496 1792.8 96.445H1788.8ZM1825.13 96.445C1825.13 91.6269 1823.22 87.0061 1819.81 83.5992L1816.98 86.4276C1819.64 89.0844 1821.13 92.6878 1821.13 96.445H1825.13ZM1819.81 83.5992C1816.4 80.1923 1811.78 78.2783 1806.96 78.2783V82.2783C1810.72 82.2783 1814.32 83.7709 1816.98 86.4276L1819.81 83.5992ZM1806.96 78.2783C1802.15 78.2783 1797.52 80.1923 1794.12 83.5992L1796.95 86.4276C1799.6 83.7709 1803.21 82.2783 1806.96 82.2783V78.2783ZM1794.12 83.5992C1790.71 87.0061 1788.8 91.6269 1788.8 96.445H1792.8C1792.8 92.6878 1794.29 89.0844 1796.95 86.4276L1794.12 83.5992Z" fill="white" mask="url(#path-16-inside-3_1714_1817)"/>
<path d="M1806.96 80.2787C1812.54 80.2787 1817.07 75.7549 1817.07 70.1745C1817.07 64.5941 1812.54 60.0703 1806.96 60.0703C1801.38 60.0703 1796.86 64.5941 1796.86 70.1745C1796.86 75.7549 1801.38 80.2787 1806.96 80.2787Z" fill="white" stroke="white" stroke-width="2" stroke-linecap="round" stroke-linejoin="round"/>
<path d="M1831.21 94.4245C1831.21 87.6143 1827.17 81.2891 1823.13 78.2578C1824.46 77.2611 1825.52 75.9522 1826.22 74.4471C1826.93 72.9419 1827.25 71.2869 1827.16 69.6284C1827.07 67.97 1826.57 66.3593 1825.71 64.9389C1824.85 63.5185 1823.65 62.3321 1822.22 61.4849" stroke="white" stroke-width="2" stroke-linecap="round" stroke-linejoin="round"/>
<path d="M1929.08 113.781C1925.58 113.781 1922.43 112.953 1919.62 111.297C1916.82 109.641 1914.7 107.433 1913.28 104.673L1917.07 101.361C1918.36 103.477 1920.06 105.179 1922.18 106.467C1924.34 107.755 1926.66 108.399 1929.15 108.399C1931.26 108.399 1933.15 107.939 1934.81 107.019C1936.46 106.099 1937.77 104.834 1938.74 103.224C1939.7 101.568 1940.19 99.682 1940.19 97.566C1940.19 95.496 1939.7 93.679 1938.74 92.115C1937.82 90.551 1936.55 89.332 1934.94 88.458C1933.38 87.584 1931.61 87.147 1929.63 87.147C1927.65 87.147 1925.79 87.584 1924.04 88.458C1922.34 89.332 1920.94 90.574 1919.83 92.184H1914.38L1919.9 64.101H1943.71V69.69H1924.39L1921.42 85.284C1922.43 84.226 1923.7 83.398 1925.21 82.8C1926.78 82.156 1928.5 81.834 1930.39 81.834C1933.43 81.834 1936.14 82.501 1938.53 83.835C1940.97 85.169 1942.88 87.009 1944.26 89.355C1945.68 91.701 1946.4 94.415 1946.4 97.497C1946.4 100.717 1945.62 103.546 1944.05 105.984C1942.53 108.468 1940.46 110.377 1937.84 111.711C1935.22 113.091 1932.3 113.781 1929.08 113.781ZM1972.61 112.263V100.602H1950.46V95.22L1974.54 64.101H1978.68V95.082H1984.75V100.602H1978.68V112.263H1972.61ZM1956.74 95.082H1973.23V73.485L1956.74 95.082ZM2014.33 68.862H1989.14V63.273H2023.92L1999.28 112.263H1992.38L2014.33 68.862ZM2048.72 76.521V81.489H2040.57V90.321H2035.05V81.489H2026.91V76.521H2035.05V67.689H2040.57V76.521H2048.72ZM2062.68 90.54C2062.68 88.98 2062.94 87.456 2063.47 85.968C2064.02 84.456 2064.81 83.088 2065.84 81.864C2066.9 80.616 2068.18 79.632 2069.7 78.912C2071.21 78.168 2072.92 77.796 2074.84 77.796C2077.12 77.796 2079.08 78.324 2080.71 79.38C2082.34 80.412 2083.56 81.744 2084.35 83.376L2081.79 85.032C2081.29 83.952 2080.64 83.1 2079.85 82.476C2079.08 81.828 2078.24 81.372 2077.33 81.108C2076.44 80.844 2075.56 80.712 2074.7 80.712C2073.28 80.712 2072.02 81 2070.92 81.576C2069.84 82.152 2068.93 82.92 2068.18 83.88C2067.44 84.84 2066.88 85.92 2066.49 87.12C2066.13 88.296 2065.95 89.484 2065.95 90.684C2065.95 92.004 2066.17 93.276 2066.6 94.5C2067.06 95.724 2067.68 96.804 2068.47 97.74C2069.26 98.676 2070.2 99.42 2071.28 99.972C2072.36 100.524 2073.54 100.8 2074.81 100.8C2075.7 100.8 2076.61 100.644 2077.54 100.332C2078.48 100.02 2079.36 99.54 2080.17 98.892C2080.99 98.22 2081.64 97.356 2082.12 96.3L2084.82 97.776C2084.29 99.048 2083.47 100.128 2082.37 101.016C2081.26 101.904 2080.03 102.576 2078.66 103.032C2077.32 103.488 2075.98 103.716 2074.66 103.716C2072.91 103.716 2071.3 103.344 2069.84 102.6C2068.38 101.832 2067.1 100.824 2066.02 99.576C2064.97 98.304 2064.14 96.888 2063.54 95.328C2062.96 93.744 2062.68 92.148 2062.68 90.54ZM2096.58 103.86C2095.16 103.86 2093.88 103.608 2092.72 103.104C2091.57 102.576 2090.58 101.868 2089.74 100.98C2088.9 100.068 2088.25 99.024 2087.79 97.848C2087.34 96.672 2087.11 95.436 2087.11 94.14C2087.11 92.82 2087.34 91.572 2087.79 90.396C2088.25 89.22 2088.9 88.188 2089.74 87.3C2090.58 86.388 2091.57 85.68 2092.72 85.176C2093.9 84.648 2095.18 84.384 2096.58 84.384C2097.99 84.384 2099.28 84.648 2100.43 85.176C2101.58 85.68 2102.58 86.388 2103.42 87.3C2104.28 88.188 2104.94 89.22 2105.4 90.396C2105.85 91.572 2106.08 92.82 2106.08 94.14C2106.08 95.436 2105.85 96.672 2105.4 97.848C2104.94 99.024 2104.29 100.068 2103.45 100.98C2102.61 101.868 2101.6 102.576 2100.43 103.104C2099.28 103.608 2097.99 103.86 2096.58 103.86ZM2090.35 94.176C2090.35 95.472 2090.62 96.648 2091.18 97.704C2091.75 98.76 2092.51 99.6 2093.44 100.224C2094.38 100.824 2095.42 101.124 2096.58 101.124C2097.73 101.124 2098.77 100.812 2099.71 100.188C2100.67 99.564 2101.42 98.724 2101.98 97.668C2102.55 96.588 2102.84 95.4 2102.84 94.104C2102.84 92.808 2102.55 91.632 2101.98 90.576C2101.42 89.52 2100.67 88.68 2099.71 88.056C2098.77 87.432 2097.73 87.12 2096.58 87.12C2095.42 87.12 2094.38 87.444 2093.44 88.092C2092.51 88.716 2091.75 89.556 2091.18 90.612C2090.62 91.668 2090.35 92.856 2090.35 94.176ZM2109.74 95.976V84.708H2112.91V95.364C2112.91 97.284 2113.24 98.724 2113.91 99.684C2114.59 100.644 2115.58 101.124 2116.9 101.124C2117.77 101.124 2118.59 100.944 2119.39 100.584C2120.2 100.2 2120.93 99.66 2121.58 98.964C2122.23 98.268 2122.73 97.44 2123.09 96.48V84.708H2126.26V99.9C2126.26 100.284 2126.33 100.572 2126.48 100.764C2126.65 100.932 2126.91 101.028 2127.27 101.052V103.5C2126.91 103.548 2126.62 103.572 2126.41 103.572C2126.21 103.596 2126.02 103.608 2125.83 103.608C2125.23 103.608 2124.71 103.428 2124.28 103.068C2123.85 102.684 2123.62 102.216 2123.6 101.664L2123.53 99.468C2122.71 100.86 2121.61 101.94 2120.21 102.708C2118.85 103.476 2117.35 103.86 2115.71 103.86C2113.75 103.86 2112.26 103.2 2111.25 101.88C2110.24 100.536 2109.74 98.568 2109.74 95.976ZM2141.66 103.86C2140.12 103.86 2138.75 103.476 2137.55 102.708C2136.35 101.94 2135.4 100.968 2134.71 99.792V111.168H2131.54V84.708H2134.35V88.236C2135.09 87.084 2136.06 86.16 2137.26 85.464C2138.46 84.744 2139.77 84.384 2141.19 84.384C2142.48 84.384 2143.67 84.648 2144.75 85.176C2145.83 85.704 2146.77 86.424 2147.56 87.336C2148.35 88.248 2148.96 89.292 2149.4 90.468C2149.85 91.62 2150.08 92.832 2150.08 94.104C2150.08 95.88 2149.72 97.512 2149 99C2148.3 100.488 2147.32 101.676 2146.05 102.564C2144.78 103.428 2143.31 103.86 2141.66 103.86ZM2140.68 101.124C2141.62 101.124 2142.46 100.932 2143.2 100.548C2143.97 100.14 2144.62 99.612 2145.15 98.964C2145.7 98.292 2146.12 97.536 2146.41 96.696C2146.7 95.856 2146.84 94.992 2146.84 94.104C2146.84 93.168 2146.67 92.28 2146.34 91.44C2146.02 90.6 2145.57 89.856 2144.97 89.208C2144.39 88.56 2143.71 88.056 2142.92 87.696C2142.15 87.312 2141.31 87.12 2140.4 87.12C2139.82 87.12 2139.22 87.228 2138.6 87.444C2138 87.66 2137.42 87.972 2136.87 88.38C2136.32 88.764 2135.85 89.208 2135.46 89.712C2135.08 90.216 2134.83 90.756 2134.71 91.332V96.696C2135.07 97.512 2135.55 98.256 2136.15 98.928C2136.75 99.6 2137.44 100.14 2138.24 100.548C2139.03 100.932 2139.84 101.124 2140.68 101.124ZM2154.04 77.22H2157.21V98.64C2157.21 99.672 2157.35 100.308 2157.64 100.548C2157.93 100.788 2158.28 100.908 2158.69 100.908C2159.19 100.908 2159.67 100.86 2160.13 100.764C2160.58 100.644 2160.97 100.524 2161.28 100.404L2161.78 102.996C2161.25 103.212 2160.63 103.392 2159.91 103.536C2159.19 103.68 2158.55 103.752 2158 103.752C2156.78 103.752 2155.81 103.404 2155.09 102.708C2154.39 102.012 2154.04 101.04 2154.04 99.792V77.22ZM2172.59 103.86C2171.17 103.86 2169.87 103.608 2168.7 103.104C2167.55 102.576 2166.54 101.868 2165.67 100.98C2164.83 100.068 2164.17 99.024 2163.69 97.848C2163.24 96.672 2163.01 95.424 2163.01 94.104C2163.01 92.328 2163.42 90.708 2164.23 89.244C2165.05 87.78 2166.18 86.604 2167.62 85.716C2169.08 84.828 2170.75 84.384 2172.62 84.384C2174.52 84.384 2176.16 84.84 2177.55 85.752C2178.97 86.64 2180.06 87.816 2180.83 89.28C2181.62 90.72 2182.02 92.28 2182.02 93.96C2182.02 94.2 2182.01 94.44 2181.98 94.68C2181.98 94.896 2181.97 95.064 2181.95 95.184H2166.36C2166.45 96.408 2166.79 97.5 2167.37 98.46C2167.97 99.396 2168.73 100.14 2169.67 100.692C2170.61 101.22 2171.61 101.484 2172.69 101.484C2173.85 101.484 2174.93 101.196 2175.93 100.62C2176.97 100.044 2177.67 99.288 2178.06 98.352L2180.79 99.108C2180.39 100.02 2179.77 100.836 2178.96 101.556C2178.17 102.276 2177.22 102.84 2176.11 103.248C2175.03 103.656 2173.86 103.86 2172.59 103.86ZM2166.25 92.988H2179.07C2178.97 91.764 2178.62 90.684 2178.02 89.748C2177.42 88.812 2176.65 88.08 2175.72 87.552C2174.78 87.024 2173.75 86.76 2172.62 86.76C2171.52 86.76 2170.5 87.024 2169.56 87.552C2168.63 88.08 2167.86 88.812 2167.26 89.748C2166.68 90.684 2166.35 91.764 2166.25 92.988ZM2191.98 103.86C2190.42 103.86 2188.96 103.608 2187.59 103.104C2186.22 102.576 2185.05 101.796 2184.06 100.764L2185.29 98.532C2186.37 99.54 2187.45 100.26 2188.53 100.692C2189.61 101.124 2190.71 101.34 2191.84 101.34C2193.14 101.34 2194.19 101.1 2195.01 100.62C2195.82 100.116 2196.23 99.384 2196.23 98.424C2196.23 97.728 2196.02 97.212 2195.58 96.876C2195.18 96.54 2194.59 96.264 2193.82 96.048C2193.05 95.808 2192.14 95.544 2191.08 95.256C2189.79 94.872 2188.7 94.464 2187.81 94.032C2186.92 93.6 2186.25 93.06 2185.79 92.412C2185.34 91.764 2185.11 90.948 2185.11 89.964C2185.11 88.764 2185.42 87.756 2186.04 86.94C2186.67 86.1 2187.52 85.464 2188.6 85.032C2189.7 84.6 2190.95 84.384 2192.34 84.384C2193.74 84.384 2195 84.6 2196.12 85.032C2197.25 85.464 2198.22 86.1 2199.04 86.94L2197.6 89.136C2196.86 88.368 2196.04 87.804 2195.15 87.444C2194.26 87.06 2193.27 86.868 2192.16 86.868C2191.52 86.868 2190.88 86.952 2190.26 87.12C2189.63 87.264 2189.12 87.54 2188.71 87.948C2188.3 88.332 2188.1 88.884 2188.1 89.604C2188.1 90.204 2188.25 90.684 2188.56 91.044C2188.9 91.38 2189.38 91.668 2190 91.908C2190.65 92.148 2191.43 92.412 2192.34 92.7C2193.76 93.108 2194.98 93.516 2196.02 93.924C2197.07 94.332 2197.89 94.86 2198.46 95.508C2199.04 96.156 2199.33 97.056 2199.33 98.208C2199.33 99.984 2198.66 101.376 2197.31 102.384C2195.97 103.368 2194.19 103.86 2191.98 103.86ZM2212.73 103.5V77.94H2223.38C2224.51 77.94 2225.54 78.18 2226.48 78.66C2227.41 79.116 2228.23 79.74 2228.93 80.532C2229.62 81.3 2230.16 82.176 2230.55 83.16C2230.93 84.12 2231.12 85.104 2231.12 86.112C2231.12 87.504 2230.81 88.836 2230.19 90.108C2229.56 91.356 2228.69 92.376 2227.56 93.168C2226.43 93.936 2225.11 94.32 2223.6 94.32H2215.97V103.5H2212.73ZM2215.97 91.44H2223.42C2224.31 91.44 2225.07 91.2 2225.72 90.72C2226.39 90.24 2226.91 89.592 2227.27 88.776C2227.65 87.96 2227.85 87.072 2227.85 86.112C2227.85 85.104 2227.63 84.204 2227.2 83.412C2226.77 82.596 2226.2 81.96 2225.51 81.504C2224.81 81.048 2224.04 80.82 2223.2 80.82H2215.97V91.44ZM2232.97 98.064C2232.97 96.864 2233.3 95.832 2233.97 94.968C2234.67 94.08 2235.62 93.396 2236.82 92.916C2238.02 92.436 2239.41 92.196 2240.99 92.196C2241.83 92.196 2242.72 92.268 2243.66 92.412C2244.59 92.532 2245.42 92.724 2246.14 92.988V91.62C2246.14 90.18 2245.71 89.052 2244.85 88.236C2243.98 87.396 2242.76 86.976 2241.17 86.976C2240.14 86.976 2239.15 87.168 2238.19 87.552C2237.25 87.912 2236.25 88.44 2235.2 89.136L2234.05 86.904C2235.27 86.064 2236.49 85.44 2237.72 85.032C2238.94 84.6 2240.21 84.384 2241.53 84.384C2243.93 84.384 2245.83 85.056 2247.22 86.4C2248.61 87.72 2249.31 89.568 2249.31 91.944V99.9C2249.31 100.284 2249.38 100.572 2249.53 100.764C2249.69 100.932 2249.96 101.028 2250.32 101.052V103.5C2250.01 103.548 2249.73 103.584 2249.49 103.608C2249.27 103.632 2249.09 103.644 2248.95 103.644C2248.21 103.644 2247.64 103.44 2247.26 103.032C2246.9 102.624 2246.69 102.192 2246.65 101.736L2246.57 100.548C2245.76 101.604 2244.69 102.42 2243.37 102.996C2242.05 103.572 2240.74 103.86 2239.45 103.86C2238.2 103.86 2237.08 103.608 2236.1 103.104C2235.11 102.576 2234.35 101.88 2233.79 101.016C2233.24 100.128 2232.97 99.144 2232.97 98.064ZM2245.21 99.396C2245.49 99.06 2245.72 98.724 2245.89 98.388C2246.06 98.028 2246.14 97.728 2246.14 97.488V95.148C2245.4 94.86 2244.62 94.644 2243.8 94.5C2242.99 94.332 2242.18 94.248 2241.39 94.248C2239.78 94.248 2238.47 94.572 2237.47 95.22C2236.48 95.844 2235.99 96.708 2235.99 97.812C2235.99 98.412 2236.15 99 2236.46 99.576C2236.79 100.128 2237.27 100.584 2237.9 100.944C2238.55 101.304 2239.34 101.484 2240.27 101.484C2241.26 101.484 2242.19 101.292 2243.08 100.908C2243.97 100.5 2244.68 99.996 2245.21 99.396ZM2264.31 87.48C2262.73 87.504 2261.32 87.912 2260.1 88.704C2258.9 89.472 2258.05 90.54 2257.54 91.908V103.5H2254.38V84.708H2257.33V89.064C2257.98 87.768 2258.83 86.724 2259.88 85.932C2260.96 85.116 2262.09 84.66 2263.27 84.564C2263.51 84.564 2263.71 84.564 2263.88 84.564C2264.05 84.564 2264.19 84.576 2264.31 84.6V87.48ZM2275.31 103.86C2273.9 103.86 2272.6 103.608 2271.42 103.104C2270.27 102.576 2269.26 101.868 2268.4 100.98C2267.56 100.068 2266.9 99.024 2266.42 97.848C2265.96 96.672 2265.74 95.424 2265.74 94.104C2265.74 92.328 2266.14 90.708 2266.96 89.244C2267.78 87.78 2268.9 86.604 2270.34 85.716C2271.81 84.828 2273.48 84.384 2275.35 84.384C2277.24 84.384 2278.89 84.84 2280.28 85.752C2281.7 86.64 2282.79 87.816 2283.56 89.28C2284.35 90.72 2284.74 92.28 2284.74 93.96C2284.74 94.2 2284.73 94.44 2284.71 94.68C2284.71 94.896 2284.7 95.064 2284.67 95.184H2269.08C2269.18 96.408 2269.52 97.5 2270.09 98.46C2270.69 99.396 2271.46 100.14 2272.4 100.692C2273.33 101.22 2274.34 101.484 2275.42 101.484C2276.57 101.484 2277.65 101.196 2278.66 100.62C2279.69 100.044 2280.4 99.288 2280.78 98.352L2283.52 99.108C2283.11 100.02 2282.5 100.836 2281.68 101.556C2280.89 102.276 2279.94 102.84 2278.84 103.248C2277.76 103.656 2276.58 103.86 2275.31 103.86ZM2268.98 92.988H2281.79C2281.7 91.764 2281.35 90.684 2280.75 89.748C2280.15 88.812 2279.38 88.08 2278.44 87.552C2277.51 87.024 2276.48 86.76 2275.35 86.76C2274.24 86.76 2273.22 87.024 2272.29 87.552C2271.35 88.08 2270.58 88.812 2269.98 89.748C2269.41 90.684 2269.07 91.764 2268.98 92.988ZM2287.04 94.14C2287.04 92.364 2287.4 90.744 2288.12 89.28C2288.87 87.792 2289.87 86.604 2291.15 85.716C2292.44 84.828 2293.92 84.384 2295.57 84.384C2297.09 84.384 2298.44 84.78 2299.64 85.572C2300.84 86.364 2301.78 87.324 2302.45 88.452V77.22H2305.62V99.9C2305.62 100.284 2305.69 100.572 2305.83 100.764C2306 100.932 2306.27 101.028 2306.63 101.052V103.5C2306.03 103.596 2305.56 103.644 2305.22 103.644C2304.6 103.644 2304.05 103.428 2303.57 102.996C2303.11 102.564 2302.88 102.084 2302.88 101.556V99.972C2302.14 101.172 2301.14 102.12 2299.89 102.816C2298.65 103.512 2297.35 103.86 2296.01 103.86C2294.71 103.86 2293.51 103.608 2292.41 103.104C2291.33 102.576 2290.38 101.856 2289.56 100.944C2288.77 100.032 2288.15 99 2287.69 97.848C2287.26 96.672 2287.04 95.436 2287.04 94.14ZM2302.45 96.912V91.512C2302.16 90.696 2301.69 89.964 2301.05 89.316C2300.4 88.644 2299.67 88.116 2298.85 87.732C2298.06 87.324 2297.27 87.12 2296.47 87.12C2295.54 87.12 2294.69 87.324 2293.92 87.732C2293.17 88.116 2292.53 88.644 2291.97 89.316C2291.45 89.964 2291.04 90.708 2290.75 91.548C2290.46 92.388 2290.32 93.264 2290.32 94.176C2290.32 95.112 2290.47 96 2290.79 96.84C2291.12 97.68 2291.58 98.424 2292.15 99.072C2292.75 99.72 2293.44 100.224 2294.21 100.584C2295 100.944 2295.85 101.124 2296.76 101.124C2297.34 101.124 2297.93 101.016 2298.53 100.8C2299.15 100.584 2299.74 100.284 2300.29 99.9C2300.84 99.516 2301.31 99.072 2301.69 98.568C2302.08 98.04 2302.33 97.488 2302.45 96.912Z" fill="white"/>
<rect x="2393.2" y="29.2032" width="96.5935" height="96.5935" rx="48.2968" stroke="white" stroke-width="0.406493"/>
<rect x="2393.2" y="29.2032" width="96.5935" height="96.5935" rx="48.2968" stroke="white" stroke-width="0.406493"/>
<mask id="path-22-inside-4_1714_1817" fill="white">
<path d="M2454.13 96.445C2454.13 92.1573 2452.43 88.0453 2449.4 85.0134C2446.36 81.9816 2442.25 80.2783 2437.96 80.2783C2433.68 80.2783 2429.56 81.9816 2426.53 85.0134C2423.5 88.0453 2421.8 92.1573 2421.8 96.445"/>
</mask>
<path d="M2454.13 96.445C2454.13 92.1573 2452.43 88.0453 2449.4 85.0134C2446.36 81.9816 2442.25 80.2783 2437.96 80.2783C2433.68 80.2783 2429.56 81.9816 2426.53 85.0134C2423.5 88.0453 2421.8 92.1573 2421.8 96.445" fill="white"/>
<path d="M2452.13 96.445C2452.13 97.5496 2453.03 98.445 2454.13 98.445C2455.24 98.445 2456.13 97.5496 2456.13 96.445H2452.13ZM2437.96 80.2783V78.2783V80.2783ZM2419.8 96.445C2419.8 97.5496 2420.69 98.445 2421.8 98.445C2422.9 98.445 2423.8 97.5496 2423.8 96.445H2419.8ZM2456.13 96.445C2456.13 91.6269 2454.22 87.0061 2450.81 83.5992L2447.98 86.4276C2450.64 89.0844 2452.13 92.6878 2452.13 96.445H2456.13ZM2450.81 83.5992C2447.4 80.1923 2442.78 78.2783 2437.96 78.2783V82.2783C2441.72 82.2783 2445.32 83.7709 2447.98 86.4276L2450.81 83.5992ZM2437.96 78.2783C2433.15 78.2783 2428.52 80.1923 2425.12 83.5992L2427.95 86.4276C2430.6 83.7709 2434.21 82.2783 2437.96 82.2783V78.2783ZM2425.12 83.5992C2421.71 87.0061 2419.8 91.6269 2419.8 96.445H2423.8C2423.8 92.6878 2425.29 89.0844 2427.95 86.4276L2425.12 83.5992Z" fill="white" mask="url(#path-22-inside-4_1714_1817)"/>
<path d="M2437.96 80.2787C2443.54 80.2787 2448.07 75.7549 2448.07 70.1745C2448.07 64.5941 2443.54 60.0703 2437.96 60.0703C2432.38 60.0703 2427.86 64.5941 2427.86 70.1745C2427.86 75.7549 2432.38 80.2787 2437.96 80.2787Z" fill="white" stroke="white" stroke-width="2" stroke-linecap="round" stroke-linejoin="round"/>
<path d="M2462.21 94.4245C2462.21 87.6143 2458.17 81.2891 2454.13 78.2578C2455.46 77.2611 2456.52 75.9522 2457.22 74.4471C2457.93 72.9419 2458.25 71.2869 2458.16 69.6284C2458.07 67.97 2457.57 66.3593 2456.71 64.9389C2455.85 63.5185 2454.65 62.3321 2453.22 61.4849" stroke="white" stroke-width="2" stroke-linecap="round" stroke-linejoin="round"/>
<path d="M2544.97 103.5C2544.97 101.66 2545.11 99.935 2545.38 98.325C2545.7 96.715 2546.26 95.174 2547.04 93.702C2547.87 92.23 2549.02 90.827 2550.49 89.493C2551.96 88.113 2553.87 86.779 2556.21 85.491C2557.59 84.709 2558.97 83.973 2560.35 83.283C2561.78 82.593 2563.09 81.857 2564.29 81.075C2565.53 80.293 2566.52 79.442 2567.25 78.522C2567.99 77.556 2568.36 76.452 2568.36 75.21C2568.36 74.152 2568.04 73.14 2567.39 72.174C2566.79 71.162 2565.87 70.357 2564.63 69.759C2563.44 69.115 2561.94 68.793 2560.15 68.793C2558.77 68.793 2557.5 68.977 2556.35 69.345C2555.25 69.713 2554.24 70.196 2553.32 70.794C2552.44 71.346 2551.66 71.944 2550.97 72.588C2550.33 73.186 2549.77 73.738 2549.31 74.244L2545.52 69.966C2545.89 69.552 2546.51 69 2547.38 68.31C2548.26 67.574 2549.36 66.838 2550.69 66.102C2552.03 65.366 2553.57 64.745 2555.32 64.239C2557.11 63.687 2559.07 63.411 2561.18 63.411C2564.03 63.411 2566.47 63.917 2568.5 64.929C2570.57 65.895 2572.15 67.229 2573.26 68.931C2574.36 70.587 2574.91 72.45 2574.91 74.52C2574.91 76.314 2574.52 77.878 2573.74 79.212C2573 80.546 2572.04 81.719 2570.84 82.731C2569.69 83.743 2568.47 84.617 2567.19 85.353C2565.94 86.043 2564.82 86.641 2563.8 87.147C2561.73 88.159 2559.96 89.079 2558.49 89.907C2557.02 90.735 2555.8 91.563 2554.83 92.391C2553.91 93.173 2553.16 94.001 2552.56 94.875C2552.01 95.749 2551.59 96.784 2551.32 97.98H2575.67V103.5H2544.97ZM2617.57 83.283C2617.57 87.331 2616.81 90.942 2615.29 94.116C2613.77 97.244 2611.7 99.705 2609.08 101.499C2606.46 103.293 2603.47 104.19 2600.11 104.19C2596.75 104.19 2593.76 103.293 2591.14 101.499C2588.52 99.705 2586.45 97.244 2584.93 94.116C2583.41 90.942 2582.65 87.331 2582.65 83.283C2582.65 79.235 2583.41 75.647 2584.93 72.519C2586.45 69.345 2588.52 66.861 2591.14 65.067C2593.76 63.227 2596.75 62.307 2600.11 62.307C2603.47 62.307 2606.46 63.227 2609.08 65.067C2611.7 66.861 2613.77 69.345 2615.29 72.519C2616.81 75.647 2617.57 79.235 2617.57 83.283ZM2611.42 83.283C2611.42 80.247 2610.94 77.579 2609.98 75.279C2609.01 72.979 2607.68 71.185 2605.97 69.897C2604.27 68.609 2602.32 67.965 2600.11 67.965C2597.85 67.965 2595.88 68.609 2594.17 69.897C2592.47 71.185 2591.14 72.979 2590.17 75.279C2589.21 77.579 2588.72 80.247 2588.72 83.283C2588.72 86.319 2589.21 88.987 2590.17 91.287C2591.14 93.541 2592.47 95.312 2594.17 96.6C2595.88 97.888 2597.85 98.532 2600.11 98.532C2602.32 98.532 2604.27 97.888 2605.97 96.6C2607.68 95.312 2609.01 93.541 2609.98 91.287C2610.94 88.987 2611.42 86.319 2611.42 83.283ZM2659.95 83.283C2659.95 87.331 2659.19 90.942 2657.67 94.116C2656.15 97.244 2654.08 99.705 2651.46 101.499C2648.84 103.293 2645.85 104.19 2642.49 104.19C2639.13 104.19 2636.14 103.293 2633.52 101.499C2630.9 99.705 2628.83 97.244 2627.31 94.116C2625.79 90.942 2625.04 87.331 2625.04 83.283C2625.04 79.235 2625.79 75.647 2627.31 72.519C2628.83 69.345 2630.9 66.861 2633.52 65.067C2636.14 63.227 2639.13 62.307 2642.49 62.307C2645.85 62.307 2648.84 63.227 2651.46 65.067C2654.08 66.861 2656.15 69.345 2657.67 72.519C2659.19 75.647 2659.95 79.235 2659.95 83.283ZM2653.81 83.283C2653.81 80.247 2653.33 77.579 2652.36 75.279C2651.39 72.979 2650.06 71.185 2648.36 69.897C2646.66 68.609 2644.7 67.965 2642.49 67.965C2640.24 67.965 2638.26 68.609 2636.56 69.897C2634.86 71.185 2633.52 72.979 2632.56 75.279C2631.59 77.579 2631.11 80.247 2631.11 83.283C2631.11 86.319 2631.59 88.987 2632.56 91.287C2633.52 93.541 2634.86 95.312 2636.56 96.6C2638.26 97.888 2640.24 98.532 2642.49 98.532C2644.7 98.532 2646.66 97.888 2648.36 96.6C2650.06 95.312 2651.39 93.541 2652.36 91.287C2653.33 88.987 2653.81 86.319 2653.81 83.283ZM2702.33 83.283C2702.33 87.331 2701.57 90.942 2700.06 94.116C2698.54 97.244 2696.47 99.705 2693.85 101.499C2691.22 103.293 2688.23 104.19 2684.88 104.19C2681.52 104.19 2678.53 103.293 2675.91 101.499C2673.28 99.705 2671.21 97.244 2669.7 94.116C2668.18 90.942 2667.42 87.331 2667.42 83.283C2667.42 79.235 2668.18 75.647 2669.7 72.519C2671.21 69.345 2673.28 66.861 2675.91 65.067C2678.53 63.227 2681.52 62.307 2684.88 62.307C2688.23 62.307 2691.22 63.227 2693.85 65.067C2696.47 66.861 2698.54 69.345 2700.06 72.519C2701.57 75.647 2702.33 79.235 2702.33 83.283ZM2696.19 83.283C2696.19 80.247 2695.71 77.579 2694.74 75.279C2693.78 72.979 2692.44 71.185 2690.74 69.897C2689.04 68.609 2687.08 67.965 2684.88 67.965C2682.62 67.965 2680.64 68.609 2678.94 69.897C2677.24 71.185 2675.91 72.979 2674.94 75.279C2673.97 77.579 2673.49 80.247 2673.49 83.283C2673.49 86.319 2673.97 88.987 2674.94 91.287C2675.91 93.541 2677.24 95.312 2678.94 96.6C2680.64 97.888 2682.62 98.532 2684.88 98.532C2687.08 98.532 2689.04 97.888 2690.74 96.6C2692.44 95.312 2693.78 93.541 2694.74 91.287C2695.71 88.987 2696.19 86.319 2696.19 83.283ZM2731.33 76.521V81.489H2723.19V90.321H2717.67V81.489H2709.53V76.521H2717.67V67.689H2723.19V76.521H2731.33ZM2764.65 78.084H2767.71L2771.1 86.976L2774.52 78.084H2777.58L2773.15 89.208L2777.54 99.756L2786.18 77.94H2789.71L2779.02 103.5H2776.21L2771.13 91.44L2766.02 103.5H2763.21L2752.56 77.94H2756.05L2764.73 99.756L2769.08 89.208L2764.65 78.084ZM2798.4 103.86C2796.99 103.86 2795.69 103.608 2794.52 103.104C2793.36 102.576 2792.36 101.868 2791.49 100.98C2790.65 100.068 2789.99 99.024 2789.51 97.848C2789.06 96.672 2788.83 95.424 2788.83 94.104C2788.83 92.328 2789.24 90.708 2790.05 89.244C2790.87 87.78 2792 86.604 2793.44 85.716C2794.9 84.828 2796.57 84.384 2798.44 84.384C2800.34 84.384 2801.98 84.84 2803.37 85.752C2804.79 86.64 2805.88 87.816 2806.65 89.28C2807.44 90.72 2807.84 92.28 2807.84 93.96C2807.84 94.2 2807.82 94.44 2807.8 94.68C2807.8 94.896 2807.79 95.064 2807.76 95.184H2792.18C2792.27 96.408 2792.61 97.5 2793.18 98.46C2793.78 99.396 2794.55 100.14 2795.49 100.692C2796.42 101.22 2797.43 101.484 2798.51 101.484C2799.66 101.484 2800.74 101.196 2801.75 100.62C2802.78 100.044 2803.49 99.288 2803.88 98.352L2806.61 99.108C2806.2 100.02 2805.59 100.836 2804.78 101.556C2803.98 102.276 2803.04 102.84 2801.93 103.248C2800.85 103.656 2799.68 103.86 2798.4 103.86ZM2792.07 92.988H2804.88C2804.79 91.764 2804.44 90.684 2803.84 89.748C2803.24 88.812 2802.47 88.08 2801.54 87.552C2800.6 87.024 2799.57 86.76 2798.44 86.76C2797.34 86.76 2796.32 87.024 2795.38 87.552C2794.44 88.08 2793.68 88.812 2793.08 89.748C2792.5 90.684 2792.16 91.764 2792.07 92.988ZM2810.13 94.14C2810.13 92.364 2810.49 90.744 2811.21 89.28C2811.96 87.792 2812.96 86.604 2814.24 85.716C2815.53 84.828 2817.01 84.384 2818.66 84.384C2820.18 84.384 2821.53 84.78 2822.73 85.572C2823.93 86.364 2824.87 87.324 2825.54 88.452V77.22H2828.71V99.9C2828.71 100.284 2828.78 100.572 2828.92 100.764C2829.09 100.932 2829.36 101.028 2829.72 101.052V103.5C2829.12 103.596 2828.65 103.644 2828.31 103.644C2827.69 103.644 2827.14 103.428 2826.66 102.996C2826.2 102.564 2825.97 102.084 2825.97 101.556V99.972C2825.23 101.172 2824.23 102.12 2822.98 102.816C2821.74 103.512 2820.44 103.86 2819.1 103.86C2817.8 103.86 2816.6 103.608 2815.5 103.104C2814.42 102.576 2813.47 101.856 2812.65 100.944C2811.86 100.032 2811.24 99 2810.78 97.848C2810.35 96.672 2810.13 95.436 2810.13 94.14ZM2825.54 96.912V91.512C2825.25 90.696 2824.78 89.964 2824.14 89.316C2823.49 88.644 2822.76 88.116 2821.94 87.732C2821.15 87.324 2820.36 87.12 2819.56 87.12C2818.63 87.12 2817.78 87.324 2817.01 87.732C2816.26 88.116 2815.62 88.644 2815.06 89.316C2814.54 89.964 2814.13 90.708 2813.84 91.548C2813.55 92.388 2813.41 93.264 2813.41 94.176C2813.41 95.112 2813.56 96 2813.88 96.84C2814.21 97.68 2814.67 98.424 2815.24 99.072C2815.84 99.72 2816.53 100.224 2817.3 100.584C2818.09 100.944 2818.94 101.124 2819.85 101.124C2820.43 101.124 2821.02 101.016 2821.62 100.8C2822.24 100.584 2822.83 100.284 2823.38 99.9C2823.93 99.516 2824.4 99.072 2824.78 98.568C2825.17 98.04 2825.42 97.488 2825.54 96.912ZM2832.77 94.14C2832.77 92.364 2833.13 90.744 2833.85 89.28C2834.6 87.792 2835.61 86.604 2836.88 85.716C2838.17 84.828 2839.65 84.384 2841.31 84.384C2842.82 84.384 2844.17 84.78 2845.37 85.572C2846.57 86.364 2847.51 87.324 2848.18 88.452V77.22H2851.35V99.9C2851.35 100.284 2851.42 100.572 2851.57 100.764C2851.73 100.932 2852 101.028 2852.36 101.052V103.5C2851.76 103.596 2851.29 103.644 2850.95 103.644C2850.33 103.644 2849.78 103.428 2849.3 102.996C2848.84 102.564 2848.61 102.084 2848.61 101.556V99.972C2847.87 101.172 2846.87 102.12 2845.63 102.816C2844.38 103.512 2843.08 103.86 2841.74 103.86C2840.44 103.86 2839.24 103.608 2838.14 103.104C2837.06 102.576 2836.11 101.856 2835.29 100.944C2834.5 100.032 2833.88 99 2833.42 97.848C2832.99 96.672 2832.77 95.436 2832.77 94.14ZM2848.18 96.912V91.512C2847.89 90.696 2847.43 89.964 2846.78 89.316C2846.13 88.644 2845.4 88.116 2844.58 87.732C2843.79 87.324 2843 87.12 2842.21 87.12C2841.27 87.12 2840.42 87.324 2839.65 87.732C2838.91 88.116 2838.26 88.644 2837.71 89.316C2837.18 89.964 2836.77 90.708 2836.48 91.548C2836.19 92.388 2836.05 93.264 2836.05 94.176C2836.05 95.112 2836.21 96 2836.52 96.84C2836.85 97.68 2837.31 98.424 2837.89 99.072C2838.49 99.72 2839.17 100.224 2839.94 100.584C2840.73 100.944 2841.58 101.124 2842.49 101.124C2843.07 101.124 2843.66 101.016 2844.26 100.8C2844.88 100.584 2845.47 100.284 2846.02 99.9C2846.57 99.516 2847.04 99.072 2847.43 98.568C2847.81 98.04 2848.06 97.488 2848.18 96.912ZM2856.64 103.5V84.708H2859.81V103.5H2856.64ZM2856.64 81.18V77.22H2859.81V81.18H2856.64ZM2881.24 103.5H2878.07V92.988C2878.07 90.996 2877.76 89.544 2877.14 88.632C2876.54 87.696 2875.61 87.228 2874.37 87.228C2873.5 87.228 2872.64 87.444 2871.77 87.876C2870.93 88.308 2870.18 88.896 2869.51 89.64C2868.86 90.36 2868.39 91.2 2868.1 92.16V103.5H2864.93V84.708H2867.81V88.74C2868.32 87.852 2868.97 87.084 2869.76 86.436C2870.55 85.788 2871.45 85.284 2872.46 84.924C2873.47 84.564 2874.52 84.384 2875.63 84.384C2876.71 84.384 2877.61 84.588 2878.33 84.996C2879.07 85.38 2879.65 85.932 2880.05 86.652C2880.49 87.348 2880.79 88.176 2880.95 89.136C2881.15 90.096 2881.24 91.14 2881.24 92.268V103.5ZM2893.66 103.716C2892.39 103.716 2891.21 103.464 2890.13 102.96C2889.07 102.432 2888.16 101.724 2887.39 100.836C2886.63 99.924 2886.03 98.892 2885.59 97.74C2885.19 96.588 2884.98 95.388 2884.98 94.14C2884.98 92.82 2885.19 91.572 2885.59 90.396C2886.03 89.22 2886.63 88.188 2887.39 87.3C2888.19 86.388 2889.11 85.68 2890.17 85.176C2891.22 84.648 2892.4 84.384 2893.69 84.384C2895.25 84.384 2896.61 84.768 2897.76 85.536C2898.94 86.304 2899.92 87.276 2900.71 88.452V84.708H2903.52V103.284C2903.52 105.06 2903.09 106.56 2902.23 107.784C2901.39 109.008 2900.23 109.932 2898.77 110.556C2897.33 111.204 2895.72 111.528 2893.95 111.528C2891.83 111.528 2890.11 111.156 2888.76 110.412C2887.42 109.668 2886.3 108.66 2885.41 107.388L2887.25 105.768C2887.99 106.872 2888.95 107.7 2890.13 108.252C2891.33 108.804 2892.6 109.08 2893.95 109.08C2895.1 109.08 2896.15 108.864 2897.11 108.432C2898.1 108.024 2898.88 107.388 2899.45 106.524C2900.05 105.66 2900.35 104.58 2900.35 103.284V99.972C2899.66 101.124 2898.7 102.036 2897.47 102.708C2896.27 103.38 2895 103.716 2893.66 103.716ZM2894.63 101.124C2895.3 101.124 2895.95 101.004 2896.57 100.764C2897.2 100.524 2897.77 100.212 2898.3 99.828C2898.83 99.42 2899.27 98.964 2899.63 98.46C2899.99 97.956 2900.23 97.44 2900.35 96.912V91.512C2900.02 90.648 2899.54 89.892 2898.91 89.244C2898.29 88.572 2897.58 88.056 2896.79 87.696C2896 87.312 2895.18 87.12 2894.34 87.12C2893.38 87.12 2892.52 87.324 2891.75 87.732C2891.01 88.14 2890.37 88.692 2889.84 89.388C2889.31 90.06 2888.91 90.816 2888.62 91.656C2888.33 92.496 2888.19 93.348 2888.19 94.212C2888.19 95.148 2888.35 96.036 2888.69 96.876C2889.03 97.692 2889.48 98.424 2890.06 99.072C2890.63 99.72 2891.32 100.224 2892.11 100.584C2892.9 100.944 2893.74 101.124 2894.63 101.124ZM2915.08 103.86C2913.52 103.86 2912.05 103.608 2910.69 103.104C2909.32 102.576 2908.14 101.796 2907.16 100.764L2908.38 98.532C2909.46 99.54 2910.54 100.26 2911.62 100.692C2912.7 101.124 2913.81 101.34 2914.93 101.34C2916.23 101.34 2917.29 101.1 2918.1 100.62C2918.92 100.116 2919.33 99.384 2919.33 98.424C2919.33 97.728 2919.11 97.212 2918.68 96.876C2918.27 96.54 2917.68 96.264 2916.91 96.048C2916.15 95.808 2915.23 95.544 2914.18 95.256C2912.88 94.872 2911.79 94.464 2910.9 94.032C2910.01 93.6 2909.34 93.06 2908.89 92.412C2908.43 91.764 2908.2 90.948 2908.2 89.964C2908.2 88.764 2908.51 87.756 2909.14 86.94C2909.76 86.1 2910.61 85.464 2911.69 85.032C2912.8 84.6 2914.05 84.384 2915.44 84.384C2916.83 84.384 2918.09 84.6 2919.22 85.032C2920.35 85.464 2921.32 86.1 2922.13 86.94L2920.69 89.136C2919.95 88.368 2919.13 87.804 2918.25 87.444C2917.36 87.06 2916.36 86.868 2915.26 86.868C2914.61 86.868 2913.97 86.952 2913.35 87.12C2912.73 87.264 2912.21 87.54 2911.8 87.948C2911.39 88.332 2911.19 88.884 2911.19 89.604C2911.19 90.204 2911.35 90.684 2911.66 91.044C2911.99 91.38 2912.47 91.668 2913.1 91.908C2913.75 92.148 2914.53 92.412 2915.44 92.7C2916.85 93.108 2918.08 93.516 2919.11 93.924C2920.17 94.332 2920.98 94.86 2921.56 95.508C2922.13 96.156 2922.42 97.056 2922.42 98.208C2922.42 99.984 2921.75 101.376 2920.41 102.384C2919.06 103.368 2917.29 103.86 2915.08 103.86Z" fill="white"/>
<rect x="3024.2" y="29.2032" width="96.5935" height="96.5935" rx="48.2968" stroke="white" stroke-width="0.406493"/>
<rect x="3024.2" y="29.2032" width="96.5935" height="96.5935" rx="48.2968" stroke="white" stroke-width="0.406493"/>
<mask id="path-28-inside-5_1714_1817" fill="white">
<path d="M3085.13 96.445C3085.13 92.1573 3083.43 88.0453 3080.4 85.0134C3077.36 81.9816 3073.25 80.2783 3068.96 80.2783C3064.68 80.2783 3060.56 81.9816 3057.53 85.0134C3054.5 88.0453 3052.8 92.1573 3052.8 96.445"/>
</mask>
<path d="M3085.13 96.445C3085.13 92.1573 3083.43 88.0453 3080.4 85.0134C3077.36 81.9816 3073.25 80.2783 3068.96 80.2783C3064.68 80.2783 3060.56 81.9816 3057.53 85.0134C3054.5 88.0453 3052.8 92.1573 3052.8 96.445" fill="white"/>
<path d="M3083.13 96.445C3083.13 97.5496 3084.03 98.445 3085.13 98.445C3086.24 98.445 3087.13 97.5496 3087.13 96.445H3083.13ZM3068.96 80.2783V78.2783V80.2783ZM3050.8 96.445C3050.8 97.5496 3051.69 98.445 3052.8 98.445C3053.9 98.445 3054.8 97.5496 3054.8 96.445H3050.8ZM3087.13 96.445C3087.13 91.6269 3085.22 87.0061 3081.81 83.5992L3078.98 86.4276C3081.64 89.0844 3083.13 92.6878 3083.13 96.445H3087.13ZM3081.81 83.5992C3078.4 80.1923 3073.78 78.2783 3068.96 78.2783V82.2783C3072.72 82.2783 3076.32 83.7709 3078.98 86.4276L3081.81 83.5992ZM3068.96 78.2783C3064.15 78.2783 3059.52 80.1923 3056.12 83.5992L3058.95 86.4276C3061.6 83.7709 3065.21 82.2783 3068.96 82.2783V78.2783ZM3056.12 83.5992C3052.71 87.0061 3050.8 91.6269 3050.8 96.445H3054.8C3054.8 92.6878 3056.29 89.0844 3058.95 86.4276L3056.12 83.5992Z" fill="white" mask="url(#path-28-inside-5_1714_1817)"/>
<path d="M3068.96 80.2787C3074.54 80.2787 3079.07 75.7549 3079.07 70.1745C3079.07 64.5941 3074.54 60.0703 3068.96 60.0703C3063.38 60.0703 3058.86 64.5941 3058.86 70.1745C3058.86 75.7549 3063.38 80.2787 3068.96 80.2787Z" fill="white" stroke="white" stroke-width="2" stroke-linecap="round" stroke-linejoin="round"/>
<path d="M3093.21 94.4245C3093.21 87.6143 3089.17 81.2891 3085.13 78.2578C3086.46 77.2611 3087.52 75.9522 3088.22 74.4471C3088.93 72.9419 3089.25 71.2869 3089.16 69.6284C3089.07 67.97 3088.57 66.3593 3087.71 64.9389C3086.85 63.5185 3085.65 62.3321 3084.22 61.4849" stroke="white" stroke-width="2" stroke-linecap="round" stroke-linejoin="round"/>
<path d="M3187.8 93.2C3185.93 93.2 3184.19 92.8 3182.56 92C3180.96 91.1733 3179.56 90.08 3178.36 88.72C3177.16 87.3333 3176.23 85.7867 3175.56 84.08C3174.89 82.3467 3174.56 80.56 3174.56 78.72C3174.56 76.8 3174.89 74.9867 3175.56 73.28C3176.23 71.5467 3177.15 70.0133 3178.32 68.68C3179.52 67.3467 3180.92 66.3067 3182.52 65.56C3184.15 64.7867 3185.91 64.4 3187.8 64.4C3190.55 64.4 3192.81 64.9733 3194.6 66.12C3196.39 67.2667 3197.73 68.76 3198.64 70.6L3195.88 72.52C3195.05 70.8667 3193.92 69.64 3192.48 68.84C3191.04 68.04 3189.45 67.64 3187.72 67.64C3186.28 67.64 3184.97 67.9467 3183.8 68.56C3182.63 69.1733 3181.61 70.0133 3180.76 71.08C3179.93 72.12 3179.29 73.3067 3178.84 74.64C3178.41 75.9733 3178.2 77.36 3178.2 78.8C3178.2 80.32 3178.44 81.76 3178.92 83.12C3179.43 84.4533 3180.13 85.64 3181.04 86.68C3181.95 87.6933 3183 88.4933 3184.2 89.08C3185.4 89.6667 3186.69 89.96 3188.08 89.96C3189.71 89.96 3191.25 89.5467 3192.72 88.72C3194.19 87.8933 3195.57 86.6267 3196.88 84.92V88.64C3194.32 91.68 3191.29 93.2 3187.8 93.2ZM3196.44 81.56H3190.32V78.84H3199.48V93H3196.44V81.56ZM3213.63 93.4C3212.06 93.4 3210.62 93.12 3209.31 92.56C3208.03 91.9733 3206.91 91.1867 3205.95 90.2C3205.02 89.1867 3204.29 88.0267 3203.75 86.72C3203.25 85.4133 3202.99 84.0267 3202.99 82.56C3202.99 80.5867 3203.45 78.7867 3204.35 77.16C3205.26 75.5333 3206.51 74.2267 3208.11 73.24C3209.74 72.2533 3211.59 71.76 3213.67 71.76C3215.78 71.76 3217.61 72.2667 3219.15 73.28C3220.73 74.2667 3221.94 75.5733 3222.79 77.2C3223.67 78.8 3224.11 80.5333 3224.11 82.4C3224.11 82.6667 3224.1 82.9333 3224.07 83.2C3224.07 83.44 3224.06 83.6267 3224.03 83.76H3206.71C3206.82 85.12 3207.19 86.3333 3207.83 87.4C3208.5 88.44 3209.35 89.2667 3210.39 89.88C3211.43 90.4667 3212.55 90.76 3213.75 90.76C3215.03 90.76 3216.23 90.44 3217.35 89.8C3218.5 89.16 3219.29 88.32 3219.71 87.28L3222.75 88.12C3222.3 89.1333 3221.62 90.04 3220.71 90.84C3219.83 91.64 3218.78 92.2667 3217.55 92.72C3216.35 93.1733 3215.05 93.4 3213.63 93.4ZM3206.59 81.32H3220.83C3220.73 79.96 3220.34 78.76 3219.67 77.72C3219.01 76.68 3218.15 75.8667 3217.11 75.28C3216.07 74.6933 3214.93 74.4 3213.67 74.4C3212.45 74.4 3211.31 74.6933 3210.27 75.28C3209.23 75.8667 3208.38 76.68 3207.71 77.72C3207.07 78.76 3206.7 79.96 3206.59 81.32ZM3246.15 93H3242.63V81.32C3242.63 79.1067 3242.28 77.4933 3241.59 76.48C3240.92 75.44 3239.89 74.92 3238.51 74.92C3237.55 74.92 3236.59 75.16 3235.63 75.64C3234.69 76.12 3233.85 76.7733 3233.11 77.6C3232.39 78.4 3231.87 79.3333 3231.55 80.4V93H3228.03V72.12H3231.23V76.6C3231.79 75.6133 3232.51 74.76 3233.39 74.04C3234.27 73.32 3235.27 72.76 3236.39 72.36C3237.51 71.96 3238.68 71.76 3239.91 71.76C3241.11 71.76 3242.11 71.9867 3242.91 72.44C3243.73 72.8667 3244.37 73.48 3244.83 74.28C3245.31 75.0533 3245.64 75.9733 3245.83 77.04C3246.04 78.1067 3246.15 79.2667 3246.15 80.52V93ZM3251.42 84.64V72.12H3254.94V83.96C3254.94 86.0933 3255.31 87.6933 3256.06 88.76C3256.81 89.8267 3257.91 90.36 3259.38 90.36C3260.34 90.36 3261.26 90.16 3262.14 89.76C3263.05 89.3333 3263.86 88.7333 3264.58 87.96C3265.3 87.1867 3265.86 86.2667 3266.26 85.2V72.12H3269.78V89C3269.78 89.4267 3269.86 89.7467 3270.02 89.96C3270.21 90.1467 3270.5 90.2533 3270.9 90.28V93C3270.5 93.0533 3270.18 93.08 3269.94 93.08C3269.73 93.1067 3269.51 93.12 3269.3 93.12C3268.63 93.12 3268.06 92.92 3267.58 92.52C3267.1 92.0933 3266.85 91.5733 3266.82 90.96L3266.74 88.52C3265.83 90.0667 3264.61 91.2667 3263.06 92.12C3261.54 92.9733 3259.87 93.4 3258.06 93.4C3255.87 93.4 3254.22 92.6667 3253.1 91.2C3251.98 89.7067 3251.42 87.52 3251.42 84.64ZM3275.64 93V72.12H3279.16V93H3275.64ZM3275.64 68.2V63.8H3279.16V68.2H3275.64ZM3302.98 93H3299.46V81.32C3299.46 79.1067 3299.12 77.4933 3298.42 76.48C3297.76 75.44 3296.73 74.92 3295.34 74.92C3294.38 74.92 3293.42 75.16 3292.46 75.64C3291.53 76.12 3290.69 76.7733 3289.94 77.6C3289.22 78.4 3288.7 79.3333 3288.38 80.4V93H3284.86V72.12H3288.06V76.6C3288.62 75.6133 3289.34 74.76 3290.22 74.04C3291.1 73.32 3292.1 72.76 3293.22 72.36C3294.34 71.96 3295.52 71.76 3296.74 71.76C3297.94 71.76 3298.94 71.9867 3299.74 72.44C3300.57 72.8667 3301.21 73.48 3301.66 74.28C3302.14 75.0533 3302.48 75.9733 3302.66 77.04C3302.88 78.1067 3302.98 79.2667 3302.98 80.52V93ZM3317.7 93.4C3316.12 93.4 3314.68 93.12 3313.38 92.56C3312.1 91.9733 3310.98 91.1867 3310.02 90.2C3309.08 89.1867 3308.35 88.0267 3307.82 86.72C3307.31 85.4133 3307.06 84.0267 3307.06 82.56C3307.06 80.5867 3307.51 78.7867 3308.42 77.16C3309.32 75.5333 3310.58 74.2267 3312.18 73.24C3313.8 72.2533 3315.66 71.76 3317.74 71.76C3319.84 71.76 3321.67 72.2667 3323.22 73.28C3324.79 74.2667 3326 75.5733 3326.86 77.2C3327.74 78.8 3328.18 80.5333 3328.18 82.4C3328.18 82.6667 3328.16 82.9333 3328.14 83.2C3328.14 83.44 3328.12 83.6267 3328.1 83.76H3310.78C3310.88 85.12 3311.26 86.3333 3311.9 87.4C3312.56 88.44 3313.42 89.2667 3314.46 89.88C3315.5 90.4667 3316.62 90.76 3317.82 90.76C3319.1 90.76 3320.3 90.44 3321.42 89.8C3322.56 89.16 3323.35 88.32 3323.78 87.28L3326.82 88.12C3326.36 89.1333 3325.68 90.04 3324.78 90.84C3323.9 91.64 3322.84 92.2667 3321.62 92.72C3320.42 93.1733 3319.11 93.4 3317.7 93.4ZM3310.66 81.32H3324.9C3324.79 79.96 3324.4 78.76 3323.74 77.72C3323.07 76.68 3322.22 75.8667 3321.18 75.28C3320.14 74.6933 3318.99 74.4 3317.74 74.4C3316.51 74.4 3315.38 74.6933 3314.34 75.28C3313.3 75.8667 3312.44 76.68 3311.78 77.72C3311.14 78.76 3310.76 79.96 3310.66 81.32ZM3342.77 93V64.6H3354.61C3355.86 64.6 3357.01 64.8667 3358.05 65.4C3359.09 65.9067 3359.99 66.6 3360.77 67.48C3361.54 68.3333 3362.14 69.3067 3362.57 70.4C3362.99 71.4667 3363.21 72.56 3363.21 73.68C3363.21 75.2267 3362.86 76.7067 3362.17 78.12C3361.47 79.5067 3360.5 80.64 3359.25 81.52C3357.99 82.3733 3356.53 82.8 3354.85 82.8H3346.37V93H3342.77ZM3346.37 79.6H3354.65C3355.63 79.6 3356.49 79.3333 3357.21 78.8C3357.95 78.2667 3358.53 77.5467 3358.93 76.64C3359.35 75.7333 3359.57 74.7467 3359.57 73.68C3359.57 72.56 3359.33 71.56 3358.85 70.68C3358.37 69.7733 3357.74 69.0667 3356.97 68.56C3356.19 68.0533 3355.34 67.8 3354.41 67.8H3346.37V79.6ZM3378.17 75.2C3376.41 75.2267 3374.85 75.68 3373.49 76.56C3372.16 77.4133 3371.21 78.6 3370.65 80.12V93H3367.13V72.12H3370.41V76.96C3371.13 75.52 3372.08 74.36 3373.25 73.48C3374.45 72.5733 3375.7 72.0667 3377.01 71.96C3377.28 71.96 3377.5 71.96 3377.69 71.96C3377.88 71.96 3378.04 71.9733 3378.17 72V75.2ZM3390.27 93.4C3388.7 93.4 3387.27 93.12 3385.99 92.56C3384.71 91.9733 3383.61 91.1867 3382.67 90.2C3381.74 89.1867 3381.02 88.0267 3380.51 86.72C3380.01 85.4133 3379.75 84.04 3379.75 82.6C3379.75 81.1333 3380.01 79.7467 3380.51 78.44C3381.02 77.1333 3381.74 75.9867 3382.67 75C3383.61 73.9867 3384.71 73.2 3385.99 72.64C3387.3 72.0533 3388.73 71.76 3390.27 71.76C3391.85 71.76 3393.27 72.0533 3394.55 72.64C3395.83 73.2 3396.94 73.9867 3397.87 75C3398.83 75.9867 3399.57 77.1333 3400.07 78.44C3400.58 79.7467 3400.83 81.1333 3400.83 82.6C3400.83 84.04 3400.58 85.4133 3400.07 86.72C3399.57 88.0267 3398.85 89.1867 3397.91 90.2C3396.98 91.1867 3395.86 91.9733 3394.55 92.56C3393.27 93.12 3391.85 93.4 3390.27 93.4ZM3383.35 82.64C3383.35 84.08 3383.66 85.3867 3384.27 86.56C3384.91 87.7333 3385.75 88.6667 3386.79 89.36C3387.83 90.0267 3388.99 90.36 3390.27 90.36C3391.55 90.36 3392.71 90.0133 3393.75 89.32C3394.82 88.6267 3395.66 87.6933 3396.27 86.52C3396.91 85.32 3397.23 84 3397.23 82.56C3397.23 81.12 3396.91 79.8133 3396.27 78.64C3395.66 77.4667 3394.82 76.5333 3393.75 75.84C3392.71 75.1467 3391.55 74.8 3390.27 74.8C3388.99 74.8 3387.83 75.16 3386.79 75.88C3385.75 76.5733 3384.91 77.5067 3384.27 78.68C3383.66 79.8533 3383.35 81.1733 3383.35 82.64ZM3405.87 74.88H3403.03V72.12H3405.87V71.68C3405.87 70.64 3406.03 69.64 3406.35 68.68C3406.67 67.6933 3407.15 66.8 3407.79 66C3408.43 65.2 3409.23 64.5733 3410.19 64.12C3411.15 63.64 3412.28 63.4 3413.59 63.4C3414.57 63.4 3415.48 63.5067 3416.31 63.72C3417.13 63.9333 3417.87 64.2 3418.51 64.52C3419.17 64.84 3419.72 65.16 3420.15 65.48L3418.63 68.08C3418.12 67.6267 3417.43 67.24 3416.55 66.92C3415.69 66.6 3414.77 66.44 3413.79 66.44C3412.77 66.44 3411.93 66.6933 3411.27 67.2C3410.63 67.7067 3410.15 68.36 3409.83 69.16C3409.53 69.9333 3409.39 70.7333 3409.39 71.56V72.12H3420.07V93H3416.55V74.88H3409.39V93H3405.87V74.88ZM3425.84 63.8H3429.36V87.6C3429.36 88.7467 3429.52 89.4533 3429.84 89.72C3430.16 89.9867 3430.55 90.12 3431 90.12C3431.56 90.12 3432.1 90.0667 3432.6 89.96C3433.11 89.8267 3433.54 89.6933 3433.88 89.56L3434.44 92.44C3433.86 92.68 3433.16 92.88 3432.36 93.04C3431.56 93.2 3430.86 93.28 3430.24 93.28C3428.88 93.28 3427.8 92.8933 3427 92.12C3426.23 91.3467 3425.84 90.2667 3425.84 88.88V63.8ZM3446.45 93.4C3444.87 93.4 3443.43 93.12 3442.13 92.56C3440.85 91.9733 3439.73 91.1867 3438.77 90.2C3437.83 89.1867 3437.1 88.0267 3436.57 86.72C3436.06 85.4133 3435.81 84.0267 3435.81 82.56C3435.81 80.5867 3436.26 78.7867 3437.17 77.16C3438.07 75.5333 3439.33 74.2267 3440.93 73.24C3442.55 72.2533 3444.41 71.76 3446.49 71.76C3448.59 71.76 3450.42 72.2667 3451.97 73.28C3453.54 74.2667 3454.75 75.5733 3455.61 77.2C3456.49 78.8 3456.93 80.5333 3456.93 82.4C3456.93 82.6667 3456.91 82.9333 3456.89 83.2C3456.89 83.44 3456.87 83.6267 3456.85 83.76H3439.53C3439.63 85.12 3440.01 86.3333 3440.65 87.4C3441.31 88.44 3442.17 89.2667 3443.21 89.88C3444.25 90.4667 3445.37 90.76 3446.57 90.76C3447.85 90.76 3449.05 90.44 3450.17 89.8C3451.31 89.16 3452.1 88.32 3452.53 87.28L3455.57 88.12C3455.11 89.1333 3454.43 90.04 3453.53 90.84C3452.65 91.64 3451.59 92.2667 3450.37 92.72C3449.17 93.1733 3447.86 93.4 3446.45 93.4ZM3439.41 81.32H3453.65C3453.54 79.96 3453.15 78.76 3452.49 77.72C3451.82 76.68 3450.97 75.8667 3449.93 75.28C3448.89 74.6933 3447.74 74.4 3446.49 74.4C3445.26 74.4 3444.13 74.6933 3443.09 75.28C3442.05 75.8667 3441.19 76.68 3440.53 77.72C3439.89 78.76 3439.51 79.96 3439.41 81.32ZM3468 93.4C3466.27 93.4 3464.64 93.12 3463.12 92.56C3461.6 91.9733 3460.29 91.1067 3459.2 89.96L3460.56 87.48C3461.76 88.6 3462.96 89.4 3464.16 89.88C3465.36 90.36 3466.59 90.6 3467.84 90.6C3469.28 90.6 3470.45 90.3333 3471.36 89.8C3472.27 89.24 3472.72 88.4267 3472.72 87.36C3472.72 86.5867 3472.48 86.0133 3472 85.64C3471.55 85.2667 3470.89 84.96 3470.04 84.72C3469.19 84.4533 3468.17 84.16 3467 83.84C3465.56 83.4133 3464.35 82.96 3463.36 82.48C3462.37 82 3461.63 81.4 3461.12 80.68C3460.61 79.96 3460.36 79.0533 3460.36 77.96C3460.36 76.6267 3460.71 75.5067 3461.4 74.6C3462.09 73.6667 3463.04 72.96 3464.24 72.48C3465.47 72 3466.85 71.76 3468.4 71.76C3469.95 71.76 3471.35 72 3472.6 72.48C3473.85 72.96 3474.93 73.6667 3475.84 74.6L3474.24 77.04C3473.41 76.1867 3472.51 75.56 3471.52 75.16C3470.53 74.7333 3469.43 74.52 3468.2 74.52C3467.48 74.52 3466.77 74.6133 3466.08 74.8C3465.39 74.96 3464.81 75.2667 3464.36 75.72C3463.91 76.1467 3463.68 76.76 3463.68 77.56C3463.68 78.2267 3463.85 78.76 3464.2 79.16C3464.57 79.5333 3465.11 79.8533 3465.8 80.12C3466.52 80.3867 3467.39 80.68 3468.4 81C3469.97 81.4533 3471.33 81.9067 3472.48 82.36C3473.65 82.8133 3474.56 83.4 3475.2 84.12C3475.84 84.84 3476.16 85.84 3476.16 87.12C3476.16 89.0933 3475.41 90.64 3473.92 91.76C3472.43 92.8533 3470.45 93.4 3468 93.4Z" fill="white"/>
<rect x="3655.2" y="29.2032" width="96.5935" height="96.5935" rx="48.2968" stroke="white" stroke-width="0.406493"/>
<rect x="3655.2" y="29.2032" width="96.5935" height="96.5935" rx="48.2968" stroke="white" stroke-width="0.406493"/>
<mask id="path-34-inside-6_1714_1817" fill="white">
<path d="M3716.13 96.445C3716.13 92.1573 3714.43 88.0453 3711.4 85.0134C3708.36 81.9816 3704.25 80.2783 3699.96 80.2783C3695.68 80.2783 3691.56 81.9816 3688.53 85.0134C3685.5 88.0453 3683.8 92.1573 3683.8 96.445"/>
</mask>
<path d="M3716.13 96.445C3716.13 92.1573 3714.43 88.0453 3711.4 85.0134C3708.36 81.9816 3704.25 80.2783 3699.96 80.2783C3695.68 80.2783 3691.56 81.9816 3688.53 85.0134C3685.5 88.0453 3683.8 92.1573 3683.8 96.445" fill="white"/>
<path d="M3714.13 96.445C3714.13 97.5496 3715.03 98.445 3716.13 98.445C3717.24 98.445 3718.13 97.5496 3718.13 96.445H3714.13ZM3699.96 80.2783V78.2783V80.2783ZM3681.8 96.445C3681.8 97.5496 3682.69 98.445 3683.8 98.445C3684.9 98.445 3685.8 97.5496 3685.8 96.445H3681.8ZM3718.13 96.445C3718.13 91.6269 3716.22 87.0061 3712.81 83.5992L3709.98 86.4276C3712.64 89.0844 3714.13 92.6878 3714.13 96.445H3718.13ZM3712.81 83.5992C3709.4 80.1923 3704.78 78.2783 3699.96 78.2783V82.2783C3703.72 82.2783 3707.32 83.7709 3709.98 86.4276L3712.81 83.5992ZM3699.96 78.2783C3695.15 78.2783 3690.52 80.1923 3687.12 83.5992L3689.95 86.4276C3692.6 83.7709 3696.21 82.2783 3699.96 82.2783V78.2783ZM3687.12 83.5992C3683.71 87.0061 3681.8 91.6269 3681.8 96.445H3685.8C3685.8 92.6878 3687.29 89.0844 3689.95 86.4276L3687.12 83.5992Z" fill="white" mask="url(#path-34-inside-6_1714_1817)"/>
<path d="M3699.96 80.2787C3705.54 80.2787 3710.07 75.7549 3710.07 70.1745C3710.07 64.5941 3705.54 60.0703 3699.96 60.0703C3694.38 60.0703 3689.86 64.5941 3689.86 70.1745C3689.86 75.7549 3694.38 80.2787 3699.96 80.2787Z" fill="white" stroke="white" stroke-width="2" stroke-linecap="round" stroke-linejoin="round"/>
<path d="M3724.21 94.4245C3724.21 87.6143 3720.17 81.2891 3716.13 78.2578C3717.46 77.2611 3718.52 75.9522 3719.22 74.4471C3719.93 72.9419 3720.25 71.2869 3720.16 69.6284C3720.07 67.97 3719.57 66.3593 3718.71 64.9389C3717.85 63.5185 3716.65 62.3321 3715.22 61.4849" stroke="white" stroke-width="2" stroke-linecap="round" stroke-linejoin="round"/>
<defs>
<linearGradient id="paint0_linear_1714_1817" x1="1.02954e-05" y1="79.5" x2="217.247" y2="823.825" gradientUnits="userSpaceOnUse">
<stop stop-color="#F05A8E"/>
<stop offset="1" stop-color="#ED1C24"/>
</linearGradient>
</defs>
</svg>
