<svg width="387" height="387" viewBox="0 0 387 387" fill="none" xmlns="http://www.w3.org/2000/svg">
<rect width="387" height="387" rx="20" fill="white"/>
<rect x="0.5" y="0.5" width="386" height="386" rx="19.5" stroke="#ED1C24" stroke-opacity="0.15"/>
<rect x="138.356" y="62.3557" width="111.289" height="111.289" rx="55.6443" stroke="white" stroke-width="0.711362"/>
<rect x="138.356" y="62.3557" width="111.289" height="111.289" rx="55.6443" stroke="url(#paint0_linear_990_1051)" stroke-width="0.711362"/>
<path d="M225.5 137.32V145.125H194V137.32C194 133.029 197.29 129.548 201.35 129.548H204.81L205.19 127.157C198.669 129.114 195.174 125.019 195.174 125.019C196.07 122.958 197.15 119.272 197.15 112.611V105.948C197.15 102.268 198.56 98.9378 200.84 96.5265C203.12 94.116 206.269 92.625 209.75 92.625C216.708 92.625 222.35 98.5892 222.35 105.948V112.611C222.35 119.272 223.43 122.958 224.326 125.019C224.326 125.019 220.848 129.094 214.358 127.17L214.784 129.548H218.151C222.21 129.548 225.5 133.029 225.5 137.32Z" fill="#F05A8E"/>
<path d="M199.727 142.429V145.125H162.5V142.429C162.5 134.976 168.383 128.935 175.64 128.935L176.735 125.296C173.727 123.758 171.589 120.688 171.293 117.084C171.26 116.601 170.877 116.242 170.428 116.117C169.016 115.746 167.976 114.431 167.976 112.856C167.976 111.784 168.458 110.832 169.214 110.214C168.623 108.254 167.976 105.375 167.976 102.173C167.976 100.622 169.201 99.3627 170.713 99.3627C170.713 99.3627 171.329 92.6128 180.019 93.7406C188.947 94.9001 193.415 92.625 193.415 92.625C193.415 92.625 195.348 94.5478 195.348 98.2381C195.348 99.7224 194.948 101.11 194.255 102.293C194.253 102.291 194.253 102.288 194.253 102.286L194.251 102.299C194.252 102.296 194.253 102.295 194.255 102.293C194.616 105.694 193.988 108.648 193.378 110.56C193.922 111.162 194.253 111.969 194.253 112.856C194.253 114.431 193.213 115.746 191.801 116.117C191.352 116.242 190.969 116.601 190.935 117.084C190.638 120.686 188.502 123.757 185.494 125.294L186.589 128.935C193.846 128.935 199.727 134.976 199.727 142.429Z" fill="#ED1F29"/>
<path d="M110.292 230.581C110.064 231.463 109.723 232.558 109.268 233.867C108.841 235.147 108.613 235.858 108.585 236H98.3449C98.1742 235.886 98.0889 235.716 98.0889 235.488C98.6294 234.891 99.1414 234.336 99.6249 233.824C100.137 233.284 100.62 232.743 101.076 232.203C102.1 231.036 102.996 229.842 103.764 228.619C104.958 226.741 105.556 224.992 105.556 223.371C105.556 222.489 105.243 221.721 104.617 221.067C104.048 220.441 103.436 220.128 102.782 220.128C102.156 220.128 101.644 220.228 101.246 220.427C100.876 220.597 100.549 220.811 100.265 221.067C100.009 221.294 99.7956 221.522 99.6249 221.749C99.4827 221.948 99.3831 222.076 99.3262 222.133C99.2694 222.133 99.1556 222.076 98.9849 221.963C98.8142 221.849 98.7289 221.678 98.7289 221.451C99.0702 220.683 99.6818 219.957 100.564 219.275C101.701 218.364 102.967 217.909 104.361 217.909C105.726 217.909 106.878 218.322 107.817 219.147C108.784 220 109.268 221.166 109.268 222.645C109.268 224.238 108.556 225.874 107.134 227.552C105.115 229.856 103.351 231.719 101.844 233.141H106.665C107.717 233.141 108.471 232.587 108.926 231.477C109.068 231.164 109.182 230.908 109.268 230.709C109.353 230.51 109.481 230.411 109.652 230.411C109.851 230.411 110.064 230.468 110.292 230.581ZM116.421 227.509C116.421 229.643 116.691 231.42 117.232 232.843C117.459 233.497 117.73 234.009 118.042 234.379C118.384 234.72 118.754 234.891 119.152 234.891C119.55 234.891 119.906 234.677 120.218 234.251C120.531 233.824 120.787 233.241 120.986 232.501C121.356 231.136 121.541 229.287 121.541 226.955C121.541 224.622 121.328 222.816 120.901 221.536C120.474 220.228 119.863 219.573 119.066 219.573C117.786 219.573 116.962 221.18 116.592 224.395C116.478 225.362 116.421 226.4 116.421 227.509ZM112.794 227.381C112.794 226.073 112.965 224.878 113.306 223.797C113.648 222.716 114.103 221.778 114.672 220.981C115.895 219.275 117.36 218.421 119.066 218.421C120.802 218.421 122.238 219.189 123.376 220.725C124.599 222.347 125.21 224.523 125.21 227.253C125.21 229.7 124.599 231.79 123.376 233.525C122.21 235.232 120.773 236.085 119.066 236.085C117.331 236.085 115.866 235.317 114.672 233.781C113.42 232.16 112.794 230.027 112.794 227.381ZM131.265 227.509C131.265 229.643 131.535 231.42 132.076 232.843C132.303 233.497 132.573 234.009 132.886 234.379C133.227 234.72 133.597 234.891 133.996 234.891C134.394 234.891 134.749 234.677 135.062 234.251C135.375 233.824 135.631 233.241 135.83 232.501C136.2 231.136 136.385 229.287 136.385 226.955C136.385 224.622 136.171 222.816 135.745 221.536C135.318 220.228 134.707 219.573 133.91 219.573C132.63 219.573 131.805 221.18 131.436 224.395C131.322 225.362 131.265 226.4 131.265 227.509ZM127.638 227.381C127.638 226.073 127.809 224.878 128.15 223.797C128.491 222.716 128.947 221.778 129.516 220.981C130.739 219.275 132.204 218.421 133.91 218.421C135.645 218.421 137.082 219.189 138.219 220.725C139.443 222.347 140.054 224.523 140.054 227.253C140.054 229.7 139.443 231.79 138.219 233.525C137.053 235.232 135.617 236.085 133.91 236.085C132.175 236.085 130.71 235.317 129.516 233.781C128.264 232.16 127.638 230.027 127.638 227.381ZM146.109 227.509C146.109 229.643 146.379 231.42 146.919 232.843C147.147 233.497 147.417 234.009 147.73 234.379C148.071 234.72 148.441 234.891 148.839 234.891C149.237 234.891 149.593 234.677 149.906 234.251C150.219 233.824 150.475 233.241 150.674 232.501C151.044 231.136 151.229 229.287 151.229 226.955C151.229 224.622 151.015 222.816 150.589 221.536C150.162 220.228 149.55 219.573 148.754 219.573C147.474 219.573 146.649 221.18 146.279 224.395C146.165 225.362 146.109 226.4 146.109 227.509ZM142.482 227.381C142.482 226.073 142.653 224.878 142.994 223.797C143.335 222.716 143.79 221.778 144.359 220.981C145.582 219.275 147.047 218.421 148.754 218.421C150.489 218.421 151.925 219.189 153.063 220.725C154.286 222.347 154.898 224.523 154.898 227.253C154.898 229.7 154.286 231.79 153.063 233.525C151.897 235.232 150.461 236.085 148.754 236.085C147.019 236.085 145.554 235.317 144.359 233.781C143.108 232.16 142.482 230.027 142.482 227.381ZM164.408 235.445C164.124 235.673 163.626 235.787 162.915 235.787C162.716 235.787 162.616 235.701 162.616 235.531V229.984H156.942C156.828 229.984 156.771 229.756 156.771 229.301C156.771 228.818 156.871 228.448 157.07 228.192H162.616V222.645C162.901 222.446 163.271 222.347 163.726 222.347C164.181 222.347 164.408 222.432 164.408 222.603V228.192H170.083C170.254 228.192 170.339 228.405 170.339 228.832C170.339 229.23 170.197 229.614 169.912 229.984H164.408V235.445ZM195.531 217.355C197.181 217.497 198.304 217.568 198.902 217.568C199.528 217.568 200.068 217.54 200.523 217.483C200.978 217.426 201.49 217.383 202.059 217.355C202.116 217.44 202.144 217.611 202.144 217.867C202.144 218.123 202.116 218.308 202.059 218.421C200.978 218.421 200.31 218.578 200.054 218.891C199.57 219.659 199.186 220.441 198.902 221.237L194.294 234.891C194.152 235.232 193.967 235.559 193.739 235.872C193.54 236.156 193.341 236.299 193.142 236.299C192.943 236.299 192.772 236.171 192.63 235.915L187.979 224.224L184.395 234.763C184.224 235.275 184.04 235.659 183.84 235.915C183.641 236.171 183.471 236.299 183.328 236.299C183.186 236.299 183.044 236.171 182.902 235.915L177.824 221.621C177.54 220.825 177.213 220.057 176.843 219.317C176.672 218.948 176.36 218.706 175.904 218.592C175.449 218.478 175.122 218.421 174.923 218.421C174.838 218.308 174.809 218.123 174.838 217.867C174.838 217.611 174.866 217.44 174.923 217.355C176.345 217.497 177.682 217.568 178.934 217.568C180.214 217.568 181.536 217.497 182.902 217.355C182.959 217.44 182.987 217.611 182.987 217.867C183.016 218.123 182.987 218.308 182.902 218.421C181.764 218.421 181.195 218.663 181.195 219.147C181.195 219.374 181.266 219.687 181.408 220.085C181.579 220.484 181.736 220.882 181.878 221.28L184.651 228.917L188.406 218.421C188.491 218.137 188.619 217.895 188.79 217.696C188.96 217.468 189.103 217.355 189.216 217.355C189.359 217.355 189.487 217.511 189.6 217.824L194.422 229.984L197.152 221.323C197.551 220.299 197.75 219.545 197.75 219.061C197.75 218.862 197.522 218.72 197.067 218.635C196.47 218.492 195.958 218.421 195.531 218.421C195.474 218.308 195.446 218.123 195.446 217.867C195.446 217.611 195.474 217.44 195.531 217.355ZM206.023 228.064C206.08 228.064 206.264 228.064 206.577 228.064C206.919 228.036 207.288 228.007 207.687 227.979C208.597 227.95 209.251 227.908 209.649 227.851C209.905 227.822 210.033 227.666 210.033 227.381C210.033 227.068 210.005 226.741 209.948 226.4C209.891 226.059 209.792 225.76 209.649 225.504C209.336 224.878 208.924 224.565 208.412 224.565C207.928 224.565 207.544 224.708 207.26 224.992C206.976 225.248 206.734 225.561 206.535 225.931C206.193 226.67 206.023 227.381 206.023 228.064ZM212.764 228.832C211.057 228.974 208.81 229.088 206.023 229.173C206.023 230.908 206.506 232.188 207.473 233.013C208.213 233.611 209.009 233.909 209.863 233.909C210.744 233.909 211.427 233.753 211.911 233.44C212.394 233.127 212.792 232.814 213.105 232.501C213.333 232.558 213.447 232.715 213.447 232.971C213.447 233.227 213.39 233.44 213.276 233.611C213.191 233.753 213.006 233.98 212.721 234.293C212.437 234.578 212.081 234.862 211.655 235.147C210.574 235.886 209.536 236.256 208.54 236.256C207.544 236.256 206.691 236.128 205.98 235.872C205.269 235.588 204.643 235.189 204.103 234.677C202.936 233.568 202.353 232.132 202.353 230.368C202.353 228.548 202.979 226.955 204.231 225.589C205.568 224.139 207.018 223.413 208.583 223.413C210.261 223.413 211.541 223.911 212.423 224.907C213.162 225.703 213.532 226.628 213.532 227.68C213.532 227.993 213.461 228.263 213.319 228.491C213.176 228.718 212.992 228.832 212.764 228.832ZM223.222 235.531V235.061C223.222 234.948 223.179 234.919 223.094 234.976C223.009 235.033 222.852 235.132 222.625 235.275C222.397 235.417 222.127 235.559 221.814 235.701C220.363 236.356 219.012 236.37 217.761 235.744C216.481 235.147 215.57 234.123 215.03 232.672C214.746 231.961 214.603 231.108 214.603 230.112C214.603 229.088 214.859 228.149 215.371 227.296C215.912 226.414 216.566 225.689 217.334 225.12C218.102 224.551 218.898 224.139 219.723 223.883C220.577 223.598 221.316 223.456 221.942 223.456C222.568 223.456 222.952 223.47 223.094 223.499C223.179 223.499 223.222 223.285 223.222 222.859V220.299C223.222 219.701 223.165 219.246 223.051 218.933C222.966 218.763 222.696 218.635 222.241 218.549C221.814 218.464 221.515 218.421 221.345 218.421C221.288 218.421 221.259 218.293 221.259 218.037C221.259 217.753 221.288 217.582 221.345 217.525C222.938 217.383 224.232 217.17 225.227 216.885C226.223 216.572 226.749 216.43 226.806 216.459C226.891 216.459 226.977 216.516 227.062 216.629C227.147 216.743 227.19 216.843 227.19 216.928C226.991 217.724 226.891 218.663 226.891 219.744V232.971C226.891 233.198 226.891 233.397 226.891 233.568C226.92 233.739 227.005 233.895 227.147 234.037C227.318 234.208 227.745 234.293 228.427 234.293C228.484 234.407 228.513 234.564 228.513 234.763C228.513 234.933 228.456 235.09 228.342 235.232C227.83 235.26 227.105 235.388 226.166 235.616C224.488 236.014 223.578 236.213 223.435 236.213C223.293 236.213 223.222 235.986 223.222 235.531ZM221.43 234.421C221.828 234.421 222.226 234.293 222.625 234.037C223.023 233.781 223.222 233.568 223.222 233.397V226.144C223.222 225.888 223.009 225.618 222.582 225.333C222.155 225.02 221.672 224.864 221.131 224.864C220.619 224.864 220.207 224.992 219.894 225.248C219.581 225.476 219.325 225.788 219.126 226.187C218.785 226.955 218.614 228.036 218.614 229.429C218.614 230.795 218.856 231.975 219.339 232.971C219.851 233.938 220.548 234.421 221.43 234.421ZM237.316 235.531V235.061C237.316 234.948 237.273 234.919 237.188 234.976C237.102 235.033 236.946 235.132 236.718 235.275C236.491 235.417 236.221 235.559 235.908 235.701C234.457 236.356 233.106 236.37 231.854 235.744C230.574 235.147 229.664 234.123 229.124 232.672C228.839 231.961 228.697 231.108 228.697 230.112C228.697 229.088 228.953 228.149 229.465 227.296C230.006 226.414 230.66 225.689 231.428 225.12C232.196 224.551 232.992 224.139 233.817 223.883C234.67 223.598 235.41 223.456 236.036 223.456C236.662 223.456 237.046 223.47 237.188 223.499C237.273 223.499 237.316 223.285 237.316 222.859V220.299C237.316 219.701 237.259 219.246 237.145 218.933C237.06 218.763 236.79 218.635 236.334 218.549C235.908 218.464 235.609 218.421 235.438 218.421C235.382 218.421 235.353 218.293 235.353 218.037C235.353 217.753 235.382 217.582 235.438 217.525C237.031 217.383 238.326 217.17 239.321 216.885C240.317 216.572 240.843 216.43 240.9 216.459C240.985 216.459 241.07 216.516 241.156 216.629C241.241 216.743 241.284 216.843 241.284 216.928C241.085 217.724 240.985 218.663 240.985 219.744V232.971C240.985 233.198 240.985 233.397 240.985 233.568C241.014 233.739 241.099 233.895 241.241 234.037C241.412 234.208 241.838 234.293 242.521 234.293C242.578 234.407 242.606 234.564 242.606 234.763C242.606 234.933 242.55 235.09 242.436 235.232C241.924 235.26 241.198 235.388 240.26 235.616C238.582 236.014 237.671 236.213 237.529 236.213C237.387 236.213 237.316 235.986 237.316 235.531ZM235.524 234.421C235.922 234.421 236.32 234.293 236.718 234.037C237.117 233.781 237.316 233.568 237.316 233.397V226.144C237.316 225.888 237.102 225.618 236.676 225.333C236.249 225.02 235.766 224.864 235.225 224.864C234.713 224.864 234.301 224.992 233.988 225.248C233.675 225.476 233.419 225.788 233.22 226.187C232.878 226.955 232.708 228.036 232.708 229.429C232.708 230.795 232.95 231.975 233.433 232.971C233.945 233.938 234.642 234.421 235.524 234.421ZM248.721 223.925C248.665 224.068 248.565 224.594 248.423 225.504V231.904C248.423 233.326 248.466 234.151 248.551 234.379C248.636 234.578 248.75 234.72 248.892 234.805C249.034 234.862 249.191 234.919 249.361 234.976C249.646 235.033 249.945 235.061 250.257 235.061C250.314 235.175 250.343 235.36 250.343 235.616C250.343 235.872 250.314 236.043 250.257 236.128C248.835 235.986 247.612 235.915 246.588 235.915C245.422 235.915 244.128 235.986 242.706 236.128C242.649 236.043 242.62 235.872 242.62 235.616C242.62 235.36 242.649 235.175 242.706 235.061C243.303 235.061 243.744 235.004 244.028 234.891C244.313 234.748 244.483 234.635 244.54 234.549C244.682 234.208 244.753 233.326 244.753 231.904V228.235C244.753 228.007 244.725 227.666 244.668 227.211C244.611 226.756 244.554 226.471 244.497 226.357C244.298 225.988 243.701 225.803 242.706 225.803C242.649 225.774 242.62 225.632 242.62 225.376C242.649 225.092 242.691 224.949 242.748 224.949C243.829 224.864 244.881 224.665 245.905 224.352C246.929 224.011 247.712 223.712 248.252 223.456C248.337 223.484 248.437 223.556 248.551 223.669C248.665 223.783 248.721 223.868 248.721 223.925ZM244.284 218.635C244.284 218.066 244.469 217.596 244.839 217.227C245.237 216.828 245.721 216.629 246.289 216.629C246.858 216.629 247.342 216.828 247.74 217.227C248.138 217.596 248.338 218.066 248.338 218.635C248.338 219.204 248.138 219.687 247.74 220.085C247.342 220.484 246.858 220.683 246.289 220.683C245.721 220.683 245.237 220.484 244.839 220.085C244.469 219.687 244.284 219.204 244.284 218.635ZM254.494 235.915C253.328 235.915 252.034 235.986 250.612 236.128C250.555 236.043 250.526 235.872 250.526 235.616C250.526 235.36 250.555 235.175 250.612 235.061C251.209 235.061 251.65 235.004 251.934 234.891C252.219 234.748 252.39 234.635 252.446 234.549C252.589 234.208 252.66 233.326 252.66 231.904V228.235C252.66 228.007 252.631 227.666 252.574 227.211C252.518 226.756 252.461 226.471 252.404 226.357C252.205 225.988 251.607 225.803 250.612 225.803C250.555 225.774 250.526 225.632 250.526 225.376C250.555 225.092 250.598 224.949 250.654 224.949C251.735 224.864 252.788 224.665 253.812 224.352C254.836 224.011 255.618 223.712 256.158 223.456C256.244 223.456 256.343 223.527 256.457 223.669C256.571 223.783 256.614 223.868 256.585 223.925C256.585 223.982 256.571 224.096 256.542 224.267C256.542 224.409 256.514 224.594 256.457 224.821C256.315 225.39 256.286 225.675 256.372 225.675C256.4 225.675 256.429 225.66 256.457 225.632C256.486 225.604 256.528 225.575 256.585 225.547C256.983 225.092 257.467 224.693 258.036 224.352C259.031 223.755 259.885 223.456 260.596 223.456C261.335 223.456 261.947 223.598 262.43 223.883C262.942 224.139 263.341 224.537 263.625 225.077C264.109 226.044 264.35 227.708 264.35 230.069V231.904C264.35 233.326 264.393 234.151 264.478 234.379C264.564 234.578 264.678 234.72 264.82 234.805C264.99 234.862 265.175 234.919 265.374 234.976C265.716 235.033 266.043 235.061 266.356 235.061C266.441 235.175 266.47 235.36 266.441 235.616C266.441 235.872 266.413 236.043 266.356 236.128C265.019 235.986 263.739 235.915 262.516 235.915C261.577 235.915 260.397 235.986 258.974 236.128C258.918 236.043 258.889 235.872 258.889 235.616C258.889 235.36 258.918 235.175 258.974 235.061C259.174 235.061 259.458 235.033 259.828 234.976C260.198 234.891 260.425 234.72 260.51 234.464C260.624 234.151 260.681 233.298 260.681 231.904V229.685C260.681 227.04 260.055 225.717 258.804 225.717C258.263 225.717 257.794 225.845 257.396 226.101C256.685 226.613 256.329 227.012 256.329 227.296V231.904C256.329 233.326 256.372 234.151 256.457 234.379C256.542 234.578 256.656 234.72 256.798 234.805C256.941 234.862 257.097 234.919 257.268 234.976C257.552 235.033 257.851 235.061 258.164 235.061C258.221 235.175 258.249 235.36 258.249 235.616C258.249 235.872 258.221 236.043 258.164 236.128C256.742 235.986 255.518 235.915 254.494 235.915ZM278.209 225.675C277.441 225.618 276.957 225.575 276.758 225.547C276.559 225.518 276.459 225.532 276.459 225.589C276.858 226.187 277.057 226.812 277.057 227.467C277.057 228.121 276.929 228.704 276.673 229.216C276.417 229.728 276.047 230.169 275.563 230.539C274.539 231.392 273.33 231.819 271.937 231.819C271.396 231.819 270.913 231.776 270.486 231.691C270.344 231.833 270.187 231.975 270.017 232.117C269.874 232.26 269.803 232.43 269.803 232.629C269.803 232.8 269.946 232.956 270.23 233.099C270.514 233.212 270.87 233.269 271.297 233.269C271.752 233.269 272.335 233.269 273.046 233.269C273.786 233.241 274.44 233.255 275.009 233.312C275.578 233.34 276.09 233.483 276.545 233.739C277.028 233.966 277.426 234.236 277.739 234.549C278.337 235.147 278.635 235.815 278.635 236.555C278.635 237.294 278.422 238.02 277.995 238.731C277.569 239.442 277 240.039 276.289 240.523C274.753 241.604 273.018 242.144 271.083 242.144C269.69 242.144 268.552 241.845 267.67 241.248C266.817 240.651 266.39 239.868 266.39 238.901C266.39 238.332 266.646 237.792 267.158 237.28C267.698 236.796 268.239 236.427 268.779 236.171C268.296 236.028 267.883 235.687 267.542 235.147C267.229 234.578 267.073 233.995 267.073 233.397C267.073 232.942 267.855 232.26 269.419 231.349C268.594 231.036 267.94 230.567 267.457 229.941C267.002 229.287 266.774 228.604 266.774 227.893C266.774 227.182 266.902 226.585 267.158 226.101C267.442 225.589 267.812 225.134 268.267 224.736C269.234 223.94 270.443 223.541 271.894 223.541C273.174 223.541 274.17 223.769 274.881 224.224C274.938 224.281 274.994 224.309 275.051 224.309L278.593 223.968C278.792 224.082 278.891 224.196 278.891 224.309C278.891 224.395 278.806 224.622 278.635 224.992C278.493 225.362 278.351 225.589 278.209 225.675ZM269.931 236.384C269.618 236.782 269.462 237.195 269.462 237.621C269.462 238.56 269.775 239.285 270.401 239.797C271.026 240.309 271.752 240.565 272.577 240.565C273.43 240.565 274.07 240.48 274.497 240.309C274.923 240.167 275.265 239.982 275.521 239.755C275.947 239.385 276.161 238.887 276.161 238.261C276.161 237.636 275.862 237.166 275.265 236.853C274.667 236.54 273.914 236.384 273.003 236.384H269.931ZM271.766 224.565C270.856 224.565 270.344 225.163 270.23 226.357C270.202 226.699 270.187 227.054 270.187 227.424C270.187 227.765 270.216 228.149 270.273 228.576C270.358 228.974 270.472 229.344 270.614 229.685C270.984 230.425 271.51 230.795 272.193 230.795C273.103 230.795 273.572 230.169 273.601 228.917C273.629 228.604 273.643 228.277 273.643 227.936C273.643 227.595 273.615 227.225 273.558 226.827C273.501 226.4 273.402 226.016 273.259 225.675C272.918 224.935 272.42 224.565 271.766 224.565ZM280.425 231.989C280.425 231.847 280.567 231.776 280.852 231.776C281.136 231.776 281.335 231.876 281.449 232.075C281.648 233.184 282.075 233.995 282.729 234.507C283.212 234.905 283.753 235.104 284.35 235.104C284.948 235.104 285.388 234.948 285.673 234.635C285.957 234.322 286.099 233.98 286.099 233.611C286.099 233.241 286 232.942 285.801 232.715C285.63 232.459 285.403 232.245 285.118 232.075C284.862 231.904 284.563 231.733 284.222 231.563C282.971 230.994 281.918 230.311 281.065 229.515C280.496 228.974 280.211 228.292 280.211 227.467C280.211 226.613 280.382 225.945 280.724 225.461C281.065 224.978 281.491 224.58 282.003 224.267C282.971 223.669 284.123 223.371 285.459 223.371C286.114 223.371 286.683 223.442 287.166 223.584C287.65 223.698 288.133 223.812 288.617 223.925C288.788 224.636 288.93 225.362 289.043 226.101C289.157 226.841 289.214 227.282 289.214 227.424C289.214 227.538 289.086 227.595 288.83 227.595C288.574 227.595 288.361 227.509 288.19 227.339C287.963 226.514 287.707 225.916 287.422 225.547C286.825 224.864 286.085 224.523 285.203 224.523C284.72 224.523 284.322 224.651 284.009 224.907C283.724 225.163 283.582 225.504 283.582 225.931C283.582 226.357 283.668 226.699 283.838 226.955C284.037 227.211 284.265 227.438 284.521 227.637C284.805 227.808 285.118 227.964 285.459 228.107C285.801 228.249 286.142 228.405 286.484 228.576C286.825 228.718 287.18 228.889 287.55 229.088C287.92 229.287 288.247 229.529 288.531 229.813C289.186 230.468 289.513 231.236 289.513 232.117C289.513 232.971 289.356 233.639 289.043 234.123C288.731 234.606 288.318 235.004 287.806 235.317C286.839 235.915 285.559 236.213 283.966 236.213C283.312 236.213 282.686 236.142 282.089 236C281.492 235.829 281.008 235.701 280.638 235.616C280.581 235.218 280.539 234.706 280.51 234.08C280.482 233.426 280.453 232.942 280.425 232.629C280.425 232.288 280.425 232.075 280.425 231.989Z" fill="url(#paint1_linear_990_1051)"/>
<path d="M110.292 230.581C110.064 231.463 109.723 232.558 109.268 233.867C108.841 235.147 108.613 235.858 108.585 236H98.3449C98.1742 235.886 98.0889 235.716 98.0889 235.488C98.6294 234.891 99.1414 234.336 99.6249 233.824C100.137 233.284 100.62 232.743 101.076 232.203C102.1 231.036 102.996 229.842 103.764 228.619C104.958 226.741 105.556 224.992 105.556 223.371C105.556 222.489 105.243 221.721 104.617 221.067C104.048 220.441 103.436 220.128 102.782 220.128C102.156 220.128 101.644 220.228 101.246 220.427C100.876 220.597 100.549 220.811 100.265 221.067C100.009 221.294 99.7956 221.522 99.6249 221.749C99.4827 221.948 99.3831 222.076 99.3262 222.133C99.2694 222.133 99.1556 222.076 98.9849 221.963C98.8142 221.849 98.7289 221.678 98.7289 221.451C99.0702 220.683 99.6818 219.957 100.564 219.275C101.701 218.364 102.967 217.909 104.361 217.909C105.726 217.909 106.878 218.322 107.817 219.147C108.784 220 109.268 221.166 109.268 222.645C109.268 224.238 108.556 225.874 107.134 227.552C105.115 229.856 103.351 231.719 101.844 233.141H106.665C107.717 233.141 108.471 232.587 108.926 231.477C109.068 231.164 109.182 230.908 109.268 230.709C109.353 230.51 109.481 230.411 109.652 230.411C109.851 230.411 110.064 230.468 110.292 230.581ZM116.421 227.509C116.421 229.643 116.691 231.42 117.232 232.843C117.459 233.497 117.73 234.009 118.042 234.379C118.384 234.72 118.754 234.891 119.152 234.891C119.55 234.891 119.906 234.677 120.218 234.251C120.531 233.824 120.787 233.241 120.986 232.501C121.356 231.136 121.541 229.287 121.541 226.955C121.541 224.622 121.328 222.816 120.901 221.536C120.474 220.228 119.863 219.573 119.066 219.573C117.786 219.573 116.962 221.18 116.592 224.395C116.478 225.362 116.421 226.4 116.421 227.509ZM112.794 227.381C112.794 226.073 112.965 224.878 113.306 223.797C113.648 222.716 114.103 221.778 114.672 220.981C115.895 219.275 117.36 218.421 119.066 218.421C120.802 218.421 122.238 219.189 123.376 220.725C124.599 222.347 125.21 224.523 125.21 227.253C125.21 229.7 124.599 231.79 123.376 233.525C122.21 235.232 120.773 236.085 119.066 236.085C117.331 236.085 115.866 235.317 114.672 233.781C113.42 232.16 112.794 230.027 112.794 227.381ZM131.265 227.509C131.265 229.643 131.535 231.42 132.076 232.843C132.303 233.497 132.573 234.009 132.886 234.379C133.227 234.72 133.597 234.891 133.996 234.891C134.394 234.891 134.749 234.677 135.062 234.251C135.375 233.824 135.631 233.241 135.83 232.501C136.2 231.136 136.385 229.287 136.385 226.955C136.385 224.622 136.171 222.816 135.745 221.536C135.318 220.228 134.707 219.573 133.91 219.573C132.63 219.573 131.805 221.18 131.436 224.395C131.322 225.362 131.265 226.4 131.265 227.509ZM127.638 227.381C127.638 226.073 127.809 224.878 128.15 223.797C128.491 222.716 128.947 221.778 129.516 220.981C130.739 219.275 132.204 218.421 133.91 218.421C135.645 218.421 137.082 219.189 138.219 220.725C139.443 222.347 140.054 224.523 140.054 227.253C140.054 229.7 139.443 231.79 138.219 233.525C137.053 235.232 135.617 236.085 133.91 236.085C132.175 236.085 130.71 235.317 129.516 233.781C128.264 232.16 127.638 230.027 127.638 227.381ZM146.109 227.509C146.109 229.643 146.379 231.42 146.919 232.843C147.147 233.497 147.417 234.009 147.73 234.379C148.071 234.72 148.441 234.891 148.839 234.891C149.237 234.891 149.593 234.677 149.906 234.251C150.219 233.824 150.475 233.241 150.674 232.501C151.044 231.136 151.229 229.287 151.229 226.955C151.229 224.622 151.015 222.816 150.589 221.536C150.162 220.228 149.55 219.573 148.754 219.573C147.474 219.573 146.649 221.18 146.279 224.395C146.165 225.362 146.109 226.4 146.109 227.509ZM142.482 227.381C142.482 226.073 142.653 224.878 142.994 223.797C143.335 222.716 143.79 221.778 144.359 220.981C145.582 219.275 147.047 218.421 148.754 218.421C150.489 218.421 151.925 219.189 153.063 220.725C154.286 222.347 154.898 224.523 154.898 227.253C154.898 229.7 154.286 231.79 153.063 233.525C151.897 235.232 150.461 236.085 148.754 236.085C147.019 236.085 145.554 235.317 144.359 233.781C143.108 232.16 142.482 230.027 142.482 227.381ZM164.408 235.445C164.124 235.673 163.626 235.787 162.915 235.787C162.716 235.787 162.616 235.701 162.616 235.531V229.984H156.942C156.828 229.984 156.771 229.756 156.771 229.301C156.771 228.818 156.871 228.448 157.07 228.192H162.616V222.645C162.901 222.446 163.271 222.347 163.726 222.347C164.181 222.347 164.408 222.432 164.408 222.603V228.192H170.083C170.254 228.192 170.339 228.405 170.339 228.832C170.339 229.23 170.197 229.614 169.912 229.984H164.408V235.445ZM195.531 217.355C197.181 217.497 198.304 217.568 198.902 217.568C199.528 217.568 200.068 217.54 200.523 217.483C200.978 217.426 201.49 217.383 202.059 217.355C202.116 217.44 202.144 217.611 202.144 217.867C202.144 218.123 202.116 218.308 202.059 218.421C200.978 218.421 200.31 218.578 200.054 218.891C199.57 219.659 199.186 220.441 198.902 221.237L194.294 234.891C194.152 235.232 193.967 235.559 193.739 235.872C193.54 236.156 193.341 236.299 193.142 236.299C192.943 236.299 192.772 236.171 192.63 235.915L187.979 224.224L184.395 234.763C184.224 235.275 184.04 235.659 183.84 235.915C183.641 236.171 183.471 236.299 183.328 236.299C183.186 236.299 183.044 236.171 182.902 235.915L177.824 221.621C177.54 220.825 177.213 220.057 176.843 219.317C176.672 218.948 176.36 218.706 175.904 218.592C175.449 218.478 175.122 218.421 174.923 218.421C174.838 218.308 174.809 218.123 174.838 217.867C174.838 217.611 174.866 217.44 174.923 217.355C176.345 217.497 177.682 217.568 178.934 217.568C180.214 217.568 181.536 217.497 182.902 217.355C182.959 217.44 182.987 217.611 182.987 217.867C183.016 218.123 182.987 218.308 182.902 218.421C181.764 218.421 181.195 218.663 181.195 219.147C181.195 219.374 181.266 219.687 181.408 220.085C181.579 220.484 181.736 220.882 181.878 221.28L184.651 228.917L188.406 218.421C188.491 218.137 188.619 217.895 188.79 217.696C188.96 217.468 189.103 217.355 189.216 217.355C189.359 217.355 189.487 217.511 189.6 217.824L194.422 229.984L197.152 221.323C197.551 220.299 197.75 219.545 197.75 219.061C197.75 218.862 197.522 218.72 197.067 218.635C196.47 218.492 195.958 218.421 195.531 218.421C195.474 218.308 195.446 218.123 195.446 217.867C195.446 217.611 195.474 217.44 195.531 217.355ZM206.023 228.064C206.08 228.064 206.264 228.064 206.577 228.064C206.919 228.036 207.288 228.007 207.687 227.979C208.597 227.95 209.251 227.908 209.649 227.851C209.905 227.822 210.033 227.666 210.033 227.381C210.033 227.068 210.005 226.741 209.948 226.4C209.891 226.059 209.792 225.76 209.649 225.504C209.336 224.878 208.924 224.565 208.412 224.565C207.928 224.565 207.544 224.708 207.26 224.992C206.976 225.248 206.734 225.561 206.535 225.931C206.193 226.67 206.023 227.381 206.023 228.064ZM212.764 228.832C211.057 228.974 208.81 229.088 206.023 229.173C206.023 230.908 206.506 232.188 207.473 233.013C208.213 233.611 209.009 233.909 209.863 233.909C210.744 233.909 211.427 233.753 211.911 233.44C212.394 233.127 212.792 232.814 213.105 232.501C213.333 232.558 213.447 232.715 213.447 232.971C213.447 233.227 213.39 233.44 213.276 233.611C213.191 233.753 213.006 233.98 212.721 234.293C212.437 234.578 212.081 234.862 211.655 235.147C210.574 235.886 209.536 236.256 208.54 236.256C207.544 236.256 206.691 236.128 205.98 235.872C205.269 235.588 204.643 235.189 204.103 234.677C202.936 233.568 202.353 232.132 202.353 230.368C202.353 228.548 202.979 226.955 204.231 225.589C205.568 224.139 207.018 223.413 208.583 223.413C210.261 223.413 211.541 223.911 212.423 224.907C213.162 225.703 213.532 226.628 213.532 227.68C213.532 227.993 213.461 228.263 213.319 228.491C213.176 228.718 212.992 228.832 212.764 228.832ZM223.222 235.531V235.061C223.222 234.948 223.179 234.919 223.094 234.976C223.009 235.033 222.852 235.132 222.625 235.275C222.397 235.417 222.127 235.559 221.814 235.701C220.363 236.356 219.012 236.37 217.761 235.744C216.481 235.147 215.57 234.123 215.03 232.672C214.746 231.961 214.603 231.108 214.603 230.112C214.603 229.088 214.859 228.149 215.371 227.296C215.912 226.414 216.566 225.689 217.334 225.12C218.102 224.551 218.898 224.139 219.723 223.883C220.577 223.598 221.316 223.456 221.942 223.456C222.568 223.456 222.952 223.47 223.094 223.499C223.179 223.499 223.222 223.285 223.222 222.859V220.299C223.222 219.701 223.165 219.246 223.051 218.933C222.966 218.763 222.696 218.635 222.241 218.549C221.814 218.464 221.515 218.421 221.345 218.421C221.288 218.421 221.259 218.293 221.259 218.037C221.259 217.753 221.288 217.582 221.345 217.525C222.938 217.383 224.232 217.17 225.227 216.885C226.223 216.572 226.749 216.43 226.806 216.459C226.891 216.459 226.977 216.516 227.062 216.629C227.147 216.743 227.19 216.843 227.19 216.928C226.991 217.724 226.891 218.663 226.891 219.744V232.971C226.891 233.198 226.891 233.397 226.891 233.568C226.92 233.739 227.005 233.895 227.147 234.037C227.318 234.208 227.745 234.293 228.427 234.293C228.484 234.407 228.513 234.564 228.513 234.763C228.513 234.933 228.456 235.09 228.342 235.232C227.83 235.26 227.105 235.388 226.166 235.616C224.488 236.014 223.578 236.213 223.435 236.213C223.293 236.213 223.222 235.986 223.222 235.531ZM221.43 234.421C221.828 234.421 222.226 234.293 222.625 234.037C223.023 233.781 223.222 233.568 223.222 233.397V226.144C223.222 225.888 223.009 225.618 222.582 225.333C222.155 225.02 221.672 224.864 221.131 224.864C220.619 224.864 220.207 224.992 219.894 225.248C219.581 225.476 219.325 225.788 219.126 226.187C218.785 226.955 218.614 228.036 218.614 229.429C218.614 230.795 218.856 231.975 219.339 232.971C219.851 233.938 220.548 234.421 221.43 234.421ZM237.316 235.531V235.061C237.316 234.948 237.273 234.919 237.188 234.976C237.102 235.033 236.946 235.132 236.718 235.275C236.491 235.417 236.221 235.559 235.908 235.701C234.457 236.356 233.106 236.37 231.854 235.744C230.574 235.147 229.664 234.123 229.124 232.672C228.839 231.961 228.697 231.108 228.697 230.112C228.697 229.088 228.953 228.149 229.465 227.296C230.006 226.414 230.66 225.689 231.428 225.12C232.196 224.551 232.992 224.139 233.817 223.883C234.67 223.598 235.41 223.456 236.036 223.456C236.662 223.456 237.046 223.47 237.188 223.499C237.273 223.499 237.316 223.285 237.316 222.859V220.299C237.316 219.701 237.259 219.246 237.145 218.933C237.06 218.763 236.79 218.635 236.334 218.549C235.908 218.464 235.609 218.421 235.438 218.421C235.382 218.421 235.353 218.293 235.353 218.037C235.353 217.753 235.382 217.582 235.438 217.525C237.031 217.383 238.326 217.17 239.321 216.885C240.317 216.572 240.843 216.43 240.9 216.459C240.985 216.459 241.07 216.516 241.156 216.629C241.241 216.743 241.284 216.843 241.284 216.928C241.085 217.724 240.985 218.663 240.985 219.744V232.971C240.985 233.198 240.985 233.397 240.985 233.568C241.014 233.739 241.099 233.895 241.241 234.037C241.412 234.208 241.838 234.293 242.521 234.293C242.578 234.407 242.606 234.564 242.606 234.763C242.606 234.933 242.55 235.09 242.436 235.232C241.924 235.26 241.198 235.388 240.26 235.616C238.582 236.014 237.671 236.213 237.529 236.213C237.387 236.213 237.316 235.986 237.316 235.531ZM235.524 234.421C235.922 234.421 236.32 234.293 236.718 234.037C237.117 233.781 237.316 233.568 237.316 233.397V226.144C237.316 225.888 237.102 225.618 236.676 225.333C236.249 225.02 235.766 224.864 235.225 224.864C234.713 224.864 234.301 224.992 233.988 225.248C233.675 225.476 233.419 225.788 233.22 226.187C232.878 226.955 232.708 228.036 232.708 229.429C232.708 230.795 232.95 231.975 233.433 232.971C233.945 233.938 234.642 234.421 235.524 234.421ZM248.721 223.925C248.665 224.068 248.565 224.594 248.423 225.504V231.904C248.423 233.326 248.466 234.151 248.551 234.379C248.636 234.578 248.75 234.72 248.892 234.805C249.034 234.862 249.191 234.919 249.361 234.976C249.646 235.033 249.945 235.061 250.257 235.061C250.314 235.175 250.343 235.36 250.343 235.616C250.343 235.872 250.314 236.043 250.257 236.128C248.835 235.986 247.612 235.915 246.588 235.915C245.422 235.915 244.128 235.986 242.706 236.128C242.649 236.043 242.62 235.872 242.62 235.616C242.62 235.36 242.649 235.175 242.706 235.061C243.303 235.061 243.744 235.004 244.028 234.891C244.313 234.748 244.483 234.635 244.54 234.549C244.682 234.208 244.753 233.326 244.753 231.904V228.235C244.753 228.007 244.725 227.666 244.668 227.211C244.611 226.756 244.554 226.471 244.497 226.357C244.298 225.988 243.701 225.803 242.706 225.803C242.649 225.774 242.62 225.632 242.62 225.376C242.649 225.092 242.691 224.949 242.748 224.949C243.829 224.864 244.881 224.665 245.905 224.352C246.929 224.011 247.712 223.712 248.252 223.456C248.337 223.484 248.437 223.556 248.551 223.669C248.665 223.783 248.721 223.868 248.721 223.925ZM244.284 218.635C244.284 218.066 244.469 217.596 244.839 217.227C245.237 216.828 245.721 216.629 246.289 216.629C246.858 216.629 247.342 216.828 247.74 217.227C248.138 217.596 248.338 218.066 248.338 218.635C248.338 219.204 248.138 219.687 247.74 220.085C247.342 220.484 246.858 220.683 246.289 220.683C245.721 220.683 245.237 220.484 244.839 220.085C244.469 219.687 244.284 219.204 244.284 218.635ZM254.494 235.915C253.328 235.915 252.034 235.986 250.612 236.128C250.555 236.043 250.526 235.872 250.526 235.616C250.526 235.36 250.555 235.175 250.612 235.061C251.209 235.061 251.65 235.004 251.934 234.891C252.219 234.748 252.39 234.635 252.446 234.549C252.589 234.208 252.66 233.326 252.66 231.904V228.235C252.66 228.007 252.631 227.666 252.574 227.211C252.518 226.756 252.461 226.471 252.404 226.357C252.205 225.988 251.607 225.803 250.612 225.803C250.555 225.774 250.526 225.632 250.526 225.376C250.555 225.092 250.598 224.949 250.654 224.949C251.735 224.864 252.788 224.665 253.812 224.352C254.836 224.011 255.618 223.712 256.158 223.456C256.244 223.456 256.343 223.527 256.457 223.669C256.571 223.783 256.614 223.868 256.585 223.925C256.585 223.982 256.571 224.096 256.542 224.267C256.542 224.409 256.514 224.594 256.457 224.821C256.315 225.39 256.286 225.675 256.372 225.675C256.4 225.675 256.429 225.66 256.457 225.632C256.486 225.604 256.528 225.575 256.585 225.547C256.983 225.092 257.467 224.693 258.036 224.352C259.031 223.755 259.885 223.456 260.596 223.456C261.335 223.456 261.947 223.598 262.43 223.883C262.942 224.139 263.341 224.537 263.625 225.077C264.109 226.044 264.35 227.708 264.35 230.069V231.904C264.35 233.326 264.393 234.151 264.478 234.379C264.564 234.578 264.678 234.72 264.82 234.805C264.99 234.862 265.175 234.919 265.374 234.976C265.716 235.033 266.043 235.061 266.356 235.061C266.441 235.175 266.47 235.36 266.441 235.616C266.441 235.872 266.413 236.043 266.356 236.128C265.019 235.986 263.739 235.915 262.516 235.915C261.577 235.915 260.397 235.986 258.974 236.128C258.918 236.043 258.889 235.872 258.889 235.616C258.889 235.36 258.918 235.175 258.974 235.061C259.174 235.061 259.458 235.033 259.828 234.976C260.198 234.891 260.425 234.72 260.51 234.464C260.624 234.151 260.681 233.298 260.681 231.904V229.685C260.681 227.04 260.055 225.717 258.804 225.717C258.263 225.717 257.794 225.845 257.396 226.101C256.685 226.613 256.329 227.012 256.329 227.296V231.904C256.329 233.326 256.372 234.151 256.457 234.379C256.542 234.578 256.656 234.72 256.798 234.805C256.941 234.862 257.097 234.919 257.268 234.976C257.552 235.033 257.851 235.061 258.164 235.061C258.221 235.175 258.249 235.36 258.249 235.616C258.249 235.872 258.221 236.043 258.164 236.128C256.742 235.986 255.518 235.915 254.494 235.915ZM278.209 225.675C277.441 225.618 276.957 225.575 276.758 225.547C276.559 225.518 276.459 225.532 276.459 225.589C276.858 226.187 277.057 226.812 277.057 227.467C277.057 228.121 276.929 228.704 276.673 229.216C276.417 229.728 276.047 230.169 275.563 230.539C274.539 231.392 273.33 231.819 271.937 231.819C271.396 231.819 270.913 231.776 270.486 231.691C270.344 231.833 270.187 231.975 270.017 232.117C269.874 232.26 269.803 232.43 269.803 232.629C269.803 232.8 269.946 232.956 270.23 233.099C270.514 233.212 270.87 233.269 271.297 233.269C271.752 233.269 272.335 233.269 273.046 233.269C273.786 233.241 274.44 233.255 275.009 233.312C275.578 233.34 276.09 233.483 276.545 233.739C277.028 233.966 277.426 234.236 277.739 234.549C278.337 235.147 278.635 235.815 278.635 236.555C278.635 237.294 278.422 238.02 277.995 238.731C277.569 239.442 277 240.039 276.289 240.523C274.753 241.604 273.018 242.144 271.083 242.144C269.69 242.144 268.552 241.845 267.67 241.248C266.817 240.651 266.39 239.868 266.39 238.901C266.39 238.332 266.646 237.792 267.158 237.28C267.698 236.796 268.239 236.427 268.779 236.171C268.296 236.028 267.883 235.687 267.542 235.147C267.229 234.578 267.073 233.995 267.073 233.397C267.073 232.942 267.855 232.26 269.419 231.349C268.594 231.036 267.94 230.567 267.457 229.941C267.002 229.287 266.774 228.604 266.774 227.893C266.774 227.182 266.902 226.585 267.158 226.101C267.442 225.589 267.812 225.134 268.267 224.736C269.234 223.94 270.443 223.541 271.894 223.541C273.174 223.541 274.17 223.769 274.881 224.224C274.938 224.281 274.994 224.309 275.051 224.309L278.593 223.968C278.792 224.082 278.891 224.196 278.891 224.309C278.891 224.395 278.806 224.622 278.635 224.992C278.493 225.362 278.351 225.589 278.209 225.675ZM269.931 236.384C269.618 236.782 269.462 237.195 269.462 237.621C269.462 238.56 269.775 239.285 270.401 239.797C271.026 240.309 271.752 240.565 272.577 240.565C273.43 240.565 274.07 240.48 274.497 240.309C274.923 240.167 275.265 239.982 275.521 239.755C275.947 239.385 276.161 238.887 276.161 238.261C276.161 237.636 275.862 237.166 275.265 236.853C274.667 236.54 273.914 236.384 273.003 236.384H269.931ZM271.766 224.565C270.856 224.565 270.344 225.163 270.23 226.357C270.202 226.699 270.187 227.054 270.187 227.424C270.187 227.765 270.216 228.149 270.273 228.576C270.358 228.974 270.472 229.344 270.614 229.685C270.984 230.425 271.51 230.795 272.193 230.795C273.103 230.795 273.572 230.169 273.601 228.917C273.629 228.604 273.643 228.277 273.643 227.936C273.643 227.595 273.615 227.225 273.558 226.827C273.501 226.4 273.402 226.016 273.259 225.675C272.918 224.935 272.42 224.565 271.766 224.565ZM280.425 231.989C280.425 231.847 280.567 231.776 280.852 231.776C281.136 231.776 281.335 231.876 281.449 232.075C281.648 233.184 282.075 233.995 282.729 234.507C283.212 234.905 283.753 235.104 284.35 235.104C284.948 235.104 285.388 234.948 285.673 234.635C285.957 234.322 286.099 233.98 286.099 233.611C286.099 233.241 286 232.942 285.801 232.715C285.63 232.459 285.403 232.245 285.118 232.075C284.862 231.904 284.563 231.733 284.222 231.563C282.971 230.994 281.918 230.311 281.065 229.515C280.496 228.974 280.211 228.292 280.211 227.467C280.211 226.613 280.382 225.945 280.724 225.461C281.065 224.978 281.491 224.58 282.003 224.267C282.971 223.669 284.123 223.371 285.459 223.371C286.114 223.371 286.683 223.442 287.166 223.584C287.65 223.698 288.133 223.812 288.617 223.925C288.788 224.636 288.93 225.362 289.043 226.101C289.157 226.841 289.214 227.282 289.214 227.424C289.214 227.538 289.086 227.595 288.83 227.595C288.574 227.595 288.361 227.509 288.19 227.339C287.963 226.514 287.707 225.916 287.422 225.547C286.825 224.864 286.085 224.523 285.203 224.523C284.72 224.523 284.322 224.651 284.009 224.907C283.724 225.163 283.582 225.504 283.582 225.931C283.582 226.357 283.668 226.699 283.838 226.955C284.037 227.211 284.265 227.438 284.521 227.637C284.805 227.808 285.118 227.964 285.459 228.107C285.801 228.249 286.142 228.405 286.484 228.576C286.825 228.718 287.18 228.889 287.55 229.088C287.92 229.287 288.247 229.529 288.531 229.813C289.186 230.468 289.513 231.236 289.513 232.117C289.513 232.971 289.356 233.639 289.043 234.123C288.731 234.606 288.318 235.004 287.806 235.317C286.839 235.915 285.559 236.213 283.966 236.213C283.312 236.213 282.686 236.142 282.089 236C281.492 235.829 281.008 235.701 280.638 235.616C280.581 235.218 280.539 234.706 280.51 234.08C280.482 233.426 280.453 232.942 280.425 232.629C280.425 232.288 280.425 232.075 280.425 231.989Z" fill="#C1645C" fill-opacity="0.2"/>
<path d="M55.3953 282V267.8H57.1953V280.4H65.1153V282H55.3953ZM65.975 278.98C65.975 278.313 66.1617 277.74 66.535 277.26C66.9217 276.767 67.4483 276.387 68.115 276.12C68.7817 275.853 69.555 275.72 70.435 275.72C70.9017 275.72 71.395 275.76 71.915 275.84C72.435 275.907 72.895 276.013 73.295 276.16V275.4C73.295 274.6 73.055 273.973 72.575 273.52C72.095 273.053 71.415 272.82 70.535 272.82C69.9617 272.82 69.4083 272.927 68.875 273.14C68.355 273.34 67.8017 273.633 67.215 274.02L66.575 272.78C67.255 272.313 67.935 271.967 68.615 271.74C69.295 271.5 70.0017 271.38 70.735 271.38C72.0683 271.38 73.1217 271.753 73.895 272.5C74.6683 273.233 75.055 274.26 75.055 275.58V280C75.055 280.213 75.095 280.373 75.175 280.48C75.2683 280.573 75.415 280.627 75.615 280.64V282C75.4417 282.027 75.2883 282.047 75.155 282.06C75.035 282.073 74.935 282.08 74.855 282.08C74.4417 282.08 74.1283 281.967 73.915 281.74C73.715 281.513 73.6017 281.273 73.575 281.02L73.535 280.36C73.0817 280.947 72.4883 281.4 71.755 281.72C71.0217 282.04 70.295 282.2 69.575 282.2C68.8817 282.2 68.2617 282.06 67.715 281.78C67.1683 281.487 66.7417 281.1 66.435 280.62C66.1283 280.127 65.975 279.58 65.975 278.98ZM72.775 279.72C72.935 279.533 73.0617 279.347 73.155 279.16C73.2483 278.96 73.295 278.793 73.295 278.66V277.36C72.8817 277.2 72.4483 277.08 71.995 277C71.5417 276.907 71.095 276.86 70.655 276.86C69.7617 276.86 69.035 277.04 68.475 277.4C67.9283 277.747 67.655 278.227 67.655 278.84C67.655 279.173 67.7417 279.5 67.915 279.82C68.1017 280.127 68.3683 280.38 68.715 280.58C69.075 280.78 69.515 280.88 70.035 280.88C70.5817 280.88 71.1017 280.773 71.595 280.56C72.0883 280.333 72.4817 280.053 72.775 279.72ZM85.2292 282L81.6092 276.92L79.6292 278.78V282H77.8692V267.4H79.6292V276.94L85.0292 271.58H86.9292L82.7692 275.9L87.1292 282H85.2292ZM97.7105 282H95.9505V276.16C95.9505 275.093 95.7571 274.293 95.3705 273.76C94.9971 273.227 94.4571 272.96 93.7505 272.96C93.2971 272.96 92.8371 273.08 92.3705 273.32C91.9171 273.56 91.5171 273.887 91.1705 274.3C90.8238 274.7 90.5705 275.167 90.4105 275.7V282H88.6505V267.4H90.4105V273.8C90.8238 273.053 91.3838 272.467 92.0905 272.04C92.8105 271.6 93.5838 271.38 94.4105 271.38C95.0371 271.38 95.5571 271.493 95.9705 271.72C96.3971 271.933 96.7371 272.24 96.9905 272.64C97.2438 273.04 97.4238 273.507 97.5305 274.04C97.6505 274.56 97.7105 275.133 97.7105 275.76V282ZM104.027 282.2C103.161 282.2 102.347 282.06 101.587 281.78C100.827 281.487 100.174 281.053 99.6273 280.48L100.307 279.24C100.907 279.8 101.507 280.2 102.107 280.44C102.707 280.68 103.321 280.8 103.947 280.8C104.667 280.8 105.254 280.667 105.707 280.4C106.161 280.12 106.387 279.713 106.387 279.18C106.387 278.793 106.267 278.507 106.027 278.32C105.801 278.133 105.474 277.98 105.047 277.86C104.621 277.727 104.114 277.58 103.527 277.42C102.807 277.207 102.201 276.98 101.707 276.74C101.214 276.5 100.841 276.2 100.587 275.84C100.334 275.48 100.207 275.027 100.207 274.48C100.207 273.813 100.381 273.253 100.727 272.8C101.074 272.333 101.547 271.98 102.147 271.74C102.761 271.5 103.454 271.38 104.227 271.38C105.001 271.38 105.701 271.5 106.327 271.74C106.954 271.98 107.494 272.333 107.947 272.8L107.147 274.02C106.734 273.593 106.281 273.28 105.787 273.08C105.294 272.867 104.741 272.76 104.127 272.76C103.767 272.76 103.414 272.807 103.067 272.9C102.721 272.98 102.434 273.133 102.207 273.36C101.981 273.573 101.867 273.88 101.867 274.28C101.867 274.613 101.954 274.88 102.127 275.08C102.314 275.267 102.581 275.427 102.927 275.56C103.287 275.693 103.721 275.84 104.227 276C105.014 276.227 105.694 276.453 106.267 276.68C106.854 276.907 107.307 277.2 107.627 277.56C107.947 277.92 108.107 278.42 108.107 279.06C108.107 280.047 107.734 280.82 106.987 281.38C106.241 281.927 105.254 282.2 104.027 282.2ZM121.312 282.1C120.312 282.1 119.405 281.9 118.592 281.5C117.778 281.1 117.072 280.56 116.472 279.88C115.885 279.187 115.432 278.413 115.112 277.56C114.792 276.693 114.632 275.807 114.632 274.9C114.632 273.953 114.798 273.053 115.132 272.2C115.478 271.333 115.952 270.567 116.552 269.9C117.165 269.22 117.878 268.687 118.692 268.3C119.505 267.9 120.392 267.7 121.352 267.7C122.352 267.7 123.258 267.907 124.072 268.32C124.885 268.733 125.585 269.287 126.172 269.98C126.758 270.673 127.212 271.447 127.532 272.3C127.852 273.153 128.012 274.027 128.012 274.92C128.012 275.867 127.845 276.773 127.512 277.64C127.178 278.493 126.705 279.26 126.092 279.94C125.492 280.607 124.785 281.133 123.972 281.52C123.158 281.907 122.272 282.1 121.312 282.1ZM116.452 274.9C116.452 275.62 116.565 276.32 116.792 277C117.032 277.667 117.365 278.26 117.792 278.78C118.218 279.3 118.732 279.713 119.332 280.02C119.932 280.327 120.598 280.48 121.332 280.48C122.092 280.48 122.772 280.32 123.372 280C123.972 279.68 124.478 279.253 124.892 278.72C125.318 278.187 125.638 277.587 125.852 276.92C126.078 276.253 126.192 275.58 126.192 274.9C126.192 274.18 126.072 273.487 125.832 272.82C125.605 272.153 125.272 271.56 124.832 271.04C124.405 270.507 123.892 270.093 123.292 269.8C122.705 269.493 122.052 269.34 121.332 269.34C120.572 269.34 119.892 269.5 119.292 269.82C118.692 270.127 118.178 270.547 117.752 271.08C117.338 271.613 117.018 272.213 116.792 272.88C116.565 273.533 116.452 274.207 116.452 274.9ZM130.793 282V272.94H129.373V271.56H130.793V271.34C130.793 270.487 130.919 269.753 131.173 269.14C131.439 268.513 131.813 268.033 132.293 267.7C132.773 267.367 133.339 267.2 133.993 267.2C134.406 267.2 134.813 267.26 135.213 267.38C135.613 267.487 135.973 267.64 136.293 267.84L135.853 269.14C135.666 269.007 135.433 268.9 135.153 268.82C134.886 268.74 134.619 268.7 134.353 268.7C133.779 268.7 133.333 268.927 133.013 269.38C132.706 269.82 132.553 270.453 132.553 271.28V271.56H135.333V272.94H132.553V282H130.793ZM141.977 282V267.8H147.897C148.524 267.8 149.097 267.933 149.617 268.2C150.137 268.453 150.591 268.8 150.977 269.24C151.364 269.667 151.664 270.153 151.877 270.7C152.091 271.233 152.197 271.78 152.197 272.34C152.197 273.113 152.024 273.853 151.677 274.56C151.331 275.253 150.844 275.82 150.217 276.26C149.591 276.687 148.857 276.9 148.017 276.9H143.777V282H141.977ZM143.777 275.3H147.917C148.411 275.3 148.837 275.167 149.197 274.9C149.571 274.633 149.857 274.273 150.057 273.82C150.271 273.367 150.377 272.873 150.377 272.34C150.377 271.78 150.257 271.28 150.017 270.84C149.777 270.387 149.464 270.033 149.077 269.78C148.691 269.527 148.264 269.4 147.797 269.4H143.777V275.3ZM158.583 282.2C157.796 282.2 157.076 282.06 156.423 281.78C155.783 281.487 155.223 281.093 154.743 280.6C154.276 280.093 153.91 279.513 153.643 278.86C153.39 278.207 153.263 277.513 153.263 276.78C153.263 275.793 153.49 274.893 153.943 274.08C154.396 273.267 155.023 272.613 155.823 272.12C156.636 271.627 157.563 271.38 158.603 271.38C159.656 271.38 160.57 271.633 161.343 272.14C162.13 272.633 162.736 273.287 163.163 274.1C163.603 274.9 163.823 275.767 163.823 276.7C163.823 276.833 163.816 276.967 163.803 277.1C163.803 277.22 163.796 277.313 163.783 277.38H155.123C155.176 278.06 155.363 278.667 155.683 279.2C156.016 279.72 156.443 280.133 156.963 280.44C157.483 280.733 158.043 280.88 158.643 280.88C159.283 280.88 159.883 280.72 160.443 280.4C161.016 280.08 161.41 279.66 161.623 279.14L163.143 279.56C162.916 280.067 162.576 280.52 162.123 280.92C161.683 281.32 161.156 281.633 160.543 281.86C159.943 282.087 159.29 282.2 158.583 282.2ZM155.063 276.16H162.183C162.13 275.48 161.936 274.88 161.603 274.36C161.27 273.84 160.843 273.433 160.323 273.14C159.803 272.847 159.23 272.7 158.603 272.7C157.99 272.7 157.423 272.847 156.903 273.14C156.383 273.433 155.956 273.84 155.623 274.36C155.303 274.88 155.116 275.48 155.063 276.16ZM170.339 282.2C169.553 282.2 168.839 282.06 168.199 281.78C167.559 281.487 167.006 281.093 166.539 280.6C166.073 280.093 165.713 279.513 165.459 278.86C165.206 278.207 165.079 277.52 165.079 276.8C165.079 276.067 165.206 275.373 165.459 274.72C165.713 274.067 166.073 273.493 166.539 273C167.006 272.493 167.559 272.1 168.199 271.82C168.853 271.527 169.566 271.38 170.339 271.38C171.126 271.38 171.839 271.527 172.479 271.82C173.119 272.1 173.673 272.493 174.139 273C174.619 273.493 174.986 274.067 175.239 274.72C175.493 275.373 175.619 276.067 175.619 276.8C175.619 277.52 175.493 278.207 175.239 278.86C174.986 279.513 174.626 280.093 174.159 280.6C173.693 281.093 173.133 281.487 172.479 281.78C171.839 282.06 171.126 282.2 170.339 282.2ZM166.879 276.82C166.879 277.54 167.033 278.193 167.339 278.78C167.659 279.367 168.079 279.833 168.599 280.18C169.119 280.513 169.699 280.68 170.339 280.68C170.979 280.68 171.559 280.507 172.079 280.16C172.613 279.813 173.033 279.347 173.339 278.76C173.659 278.16 173.819 277.5 173.819 276.78C173.819 276.06 173.659 275.407 173.339 274.82C173.033 274.233 172.613 273.767 172.079 273.42C171.559 273.073 170.979 272.9 170.339 272.9C169.699 272.9 169.119 273.08 168.599 273.44C168.079 273.787 167.659 274.253 167.339 274.84C167.033 275.427 166.879 276.087 166.879 276.82ZM183.372 282.2C182.519 282.2 181.759 281.987 181.092 281.56C180.425 281.133 179.899 280.593 179.512 279.94V286.26H177.752V271.56H179.312V273.52C179.725 272.88 180.265 272.367 180.932 271.98C181.599 271.58 182.325 271.38 183.112 271.38C183.832 271.38 184.492 271.527 185.092 271.82C185.692 272.113 186.212 272.513 186.652 273.02C187.092 273.527 187.432 274.107 187.672 274.76C187.925 275.4 188.052 276.073 188.052 276.78C188.052 277.767 187.852 278.673 187.452 279.5C187.065 280.327 186.519 280.987 185.812 281.48C185.105 281.96 184.292 282.2 183.372 282.2ZM182.832 280.68C183.352 280.68 183.819 280.573 184.232 280.36C184.659 280.133 185.019 279.84 185.312 279.48C185.619 279.107 185.852 278.687 186.012 278.22C186.172 277.753 186.252 277.273 186.252 276.78C186.252 276.26 186.159 275.767 185.972 275.3C185.799 274.833 185.545 274.42 185.212 274.06C184.892 273.7 184.512 273.42 184.072 273.22C183.645 273.007 183.179 272.9 182.672 272.9C182.352 272.9 182.019 272.96 181.672 273.08C181.339 273.2 181.019 273.373 180.712 273.6C180.405 273.813 180.145 274.06 179.932 274.34C179.719 274.62 179.579 274.92 179.512 275.24V278.22C179.712 278.673 179.979 279.087 180.312 279.46C180.645 279.833 181.032 280.133 181.472 280.36C181.912 280.573 182.365 280.68 182.832 280.68ZM190.253 267.4H192.013V279.3C192.013 279.873 192.093 280.227 192.253 280.36C192.413 280.493 192.606 280.56 192.833 280.56C193.113 280.56 193.38 280.533 193.633 280.48C193.886 280.413 194.1 280.347 194.273 280.28L194.553 281.72C194.26 281.84 193.913 281.94 193.513 282.02C193.113 282.1 192.76 282.14 192.453 282.14C191.773 282.14 191.233 281.947 190.833 281.56C190.446 281.173 190.253 280.633 190.253 279.94V267.4ZM200.556 282.2C199.769 282.2 199.049 282.06 198.396 281.78C197.756 281.487 197.196 281.093 196.716 280.6C196.249 280.093 195.882 279.513 195.616 278.86C195.362 278.207 195.236 277.513 195.236 276.78C195.236 275.793 195.462 274.893 195.916 274.08C196.369 273.267 196.996 272.613 197.796 272.12C198.609 271.627 199.536 271.38 200.576 271.38C201.629 271.38 202.542 271.633 203.316 272.14C204.102 272.633 204.709 273.287 205.136 274.1C205.576 274.9 205.796 275.767 205.796 276.7C205.796 276.833 205.789 276.967 205.776 277.1C205.776 277.22 205.769 277.313 205.756 277.38H197.096C197.149 278.06 197.336 278.667 197.656 279.2C197.989 279.72 198.416 280.133 198.936 280.44C199.456 280.733 200.016 280.88 200.616 280.88C201.256 280.88 201.856 280.72 202.416 280.4C202.989 280.08 203.382 279.66 203.596 279.14L205.116 279.56C204.889 280.067 204.549 280.52 204.096 280.92C203.656 281.32 203.129 281.633 202.516 281.86C201.916 282.087 201.262 282.2 200.556 282.2ZM197.036 276.16H204.156C204.102 275.48 203.909 274.88 203.576 274.36C203.242 273.84 202.816 273.433 202.296 273.14C201.776 272.847 201.202 272.7 200.576 272.7C199.962 272.7 199.396 272.847 198.876 273.14C198.356 273.433 197.929 273.84 197.596 274.36C197.276 274.88 197.089 275.48 197.036 276.16ZM211.332 282.2C210.465 282.2 209.652 282.06 208.892 281.78C208.132 281.487 207.479 281.053 206.932 280.48L207.612 279.24C208.212 279.8 208.812 280.2 209.412 280.44C210.012 280.68 210.625 280.8 211.252 280.8C211.972 280.8 212.559 280.667 213.012 280.4C213.465 280.12 213.692 279.713 213.692 279.18C213.692 278.793 213.572 278.507 213.332 278.32C213.105 278.133 212.779 277.98 212.352 277.86C211.925 277.727 211.419 277.58 210.832 277.42C210.112 277.207 209.505 276.98 209.012 276.74C208.519 276.5 208.145 276.2 207.892 275.84C207.639 275.48 207.512 275.027 207.512 274.48C207.512 273.813 207.685 273.253 208.032 272.8C208.379 272.333 208.852 271.98 209.452 271.74C210.065 271.5 210.759 271.38 211.532 271.38C212.305 271.38 213.005 271.5 213.632 271.74C214.259 271.98 214.799 272.333 215.252 272.8L214.452 274.02C214.039 273.593 213.585 273.28 213.092 273.08C212.599 272.867 212.045 272.76 211.432 272.76C211.072 272.76 210.719 272.807 210.372 272.9C210.025 272.98 209.739 273.133 209.512 273.36C209.285 273.573 209.172 273.88 209.172 274.28C209.172 274.613 209.259 274.88 209.432 275.08C209.619 275.267 209.885 275.427 210.232 275.56C210.592 275.693 211.025 275.84 211.532 276C212.319 276.227 212.999 276.453 213.572 276.68C214.159 276.907 214.612 277.2 214.932 277.56C215.252 277.92 215.412 278.42 215.412 279.06C215.412 280.047 215.039 280.82 214.292 281.38C213.545 281.927 212.559 282.2 211.332 282.2ZM234.276 267.8V282H232.476V275.54H224.656V282H222.856V267.8H224.656V273.94H232.476V267.8H234.276ZM236.483 278.98C236.483 278.313 236.669 277.74 237.043 277.26C237.429 276.767 237.956 276.387 238.623 276.12C239.289 275.853 240.063 275.72 240.943 275.72C241.409 275.72 241.903 275.76 242.423 275.84C242.943 275.907 243.403 276.013 243.803 276.16V275.4C243.803 274.6 243.563 273.973 243.083 273.52C242.603 273.053 241.923 272.82 241.043 272.82C240.469 272.82 239.916 272.927 239.383 273.14C238.863 273.34 238.309 273.633 237.723 274.02L237.083 272.78C237.763 272.313 238.443 271.967 239.123 271.74C239.803 271.5 240.509 271.38 241.243 271.38C242.576 271.38 243.629 271.753 244.403 272.5C245.176 273.233 245.563 274.26 245.563 275.58V280C245.563 280.213 245.603 280.373 245.683 280.48C245.776 280.573 245.923 280.627 246.123 280.64V282C245.949 282.027 245.796 282.047 245.663 282.06C245.543 282.073 245.443 282.08 245.363 282.08C244.949 282.08 244.636 281.967 244.423 281.74C244.223 281.513 244.109 281.273 244.083 281.02L244.043 280.36C243.589 280.947 242.996 281.4 242.263 281.72C241.529 282.04 240.803 282.2 240.083 282.2C239.389 282.2 238.769 282.06 238.223 281.78C237.676 281.487 237.249 281.1 236.943 280.62C236.636 280.127 236.483 279.58 236.483 278.98ZM243.283 279.72C243.443 279.533 243.569 279.347 243.663 279.16C243.756 278.96 243.803 278.793 243.803 278.66V277.36C243.389 277.2 242.956 277.08 242.503 277C242.049 276.907 241.603 276.86 241.163 276.86C240.269 276.86 239.543 277.04 238.983 277.4C238.436 277.747 238.163 278.227 238.163 278.84C238.163 279.173 238.249 279.5 238.423 279.82C238.609 280.127 238.876 280.38 239.223 280.58C239.583 280.78 240.023 280.88 240.543 280.88C241.089 280.88 241.609 280.773 242.103 280.56C242.596 280.333 242.989 280.053 243.283 279.72ZM251.045 282L246.945 271.56H248.785L252.065 280.32L255.345 271.56H257.065L252.965 282H251.045ZM263.095 282.2C262.308 282.2 261.588 282.06 260.935 281.78C260.295 281.487 259.735 281.093 259.255 280.6C258.788 280.093 258.421 279.513 258.155 278.86C257.901 278.207 257.775 277.513 257.775 276.78C257.775 275.793 258.001 274.893 258.455 274.08C258.908 273.267 259.535 272.613 260.335 272.12C261.148 271.627 262.075 271.38 263.115 271.38C264.168 271.38 265.081 271.633 265.855 272.14C266.641 272.633 267.248 273.287 267.675 274.1C268.115 274.9 268.335 275.767 268.335 276.7C268.335 276.833 268.328 276.967 268.315 277.1C268.315 277.22 268.308 277.313 268.295 277.38H259.635C259.688 278.06 259.875 278.667 260.195 279.2C260.528 279.72 260.955 280.133 261.475 280.44C261.995 280.733 262.555 280.88 263.155 280.88C263.795 280.88 264.395 280.72 264.955 280.4C265.528 280.08 265.921 279.66 266.135 279.14L267.655 279.56C267.428 280.067 267.088 280.52 266.635 280.92C266.195 281.32 265.668 281.633 265.055 281.86C264.455 282.087 263.801 282.2 263.095 282.2ZM259.575 276.16H266.695C266.641 275.48 266.448 274.88 266.115 274.36C265.781 273.84 265.355 273.433 264.835 273.14C264.315 272.847 263.741 272.7 263.115 272.7C262.501 272.7 261.935 272.847 261.415 273.14C260.895 273.433 260.468 273.84 260.135 274.36C259.815 274.88 259.628 275.48 259.575 276.16ZM275.63 282V267.8H285.01V269.4H277.43V274.14H283.81V275.64H277.43V282H275.63ZM290.925 282.2C290.139 282.2 289.425 282.06 288.785 281.78C288.145 281.487 287.592 281.093 287.125 280.6C286.659 280.093 286.299 279.513 286.045 278.86C285.792 278.207 285.665 277.52 285.665 276.8C285.665 276.067 285.792 275.373 286.045 274.72C286.299 274.067 286.659 273.493 287.125 273C287.592 272.493 288.145 272.1 288.785 271.82C289.439 271.527 290.152 271.38 290.925 271.38C291.712 271.38 292.425 271.527 293.065 271.82C293.705 272.1 294.259 272.493 294.725 273C295.205 273.493 295.572 274.067 295.825 274.72C296.079 275.373 296.205 276.067 296.205 276.8C296.205 277.52 296.079 278.207 295.825 278.86C295.572 279.513 295.212 280.093 294.745 280.6C294.279 281.093 293.719 281.487 293.065 281.78C292.425 282.06 291.712 282.2 290.925 282.2ZM287.465 276.82C287.465 277.54 287.619 278.193 287.925 278.78C288.245 279.367 288.665 279.833 289.185 280.18C289.705 280.513 290.285 280.68 290.925 280.68C291.565 280.68 292.145 280.507 292.665 280.16C293.199 279.813 293.619 279.347 293.925 278.76C294.245 278.16 294.405 277.5 294.405 276.78C294.405 276.06 294.245 275.407 293.925 274.82C293.619 274.233 293.199 273.767 292.665 273.42C292.145 273.073 291.565 272.9 290.925 272.9C290.285 272.9 289.705 273.08 289.185 273.44C288.665 273.787 288.245 274.253 287.925 274.84C287.619 275.427 287.465 276.087 287.465 276.82ZM298.238 277.82V271.56H299.998V277.48C299.998 278.547 300.185 279.347 300.558 279.88C300.931 280.413 301.485 280.68 302.218 280.68C302.698 280.68 303.158 280.58 303.598 280.38C304.051 280.167 304.458 279.867 304.818 279.48C305.178 279.093 305.458 278.633 305.658 278.1V271.56H307.418V280C307.418 280.213 307.458 280.373 307.538 280.48C307.631 280.573 307.778 280.627 307.978 280.64V282C307.778 282.027 307.618 282.04 307.498 282.04C307.391 282.053 307.285 282.06 307.178 282.06C306.845 282.06 306.558 281.96 306.318 281.76C306.078 281.547 305.951 281.287 305.938 280.98L305.898 279.76C305.445 280.533 304.831 281.133 304.058 281.56C303.298 281.987 302.465 282.2 301.558 282.2C300.465 282.2 299.638 281.833 299.078 281.1C298.518 280.353 298.238 279.26 298.238 277.82ZM319.41 282H317.65V276.16C317.65 275.053 317.476 274.247 317.13 273.74C316.796 273.22 316.283 272.96 315.59 272.96C315.11 272.96 314.63 273.08 314.15 273.32C313.683 273.56 313.263 273.887 312.89 274.3C312.53 274.7 312.27 275.167 312.11 275.7V282H310.35V271.56H311.95V273.8C312.23 273.307 312.59 272.88 313.03 272.52C313.47 272.16 313.97 271.88 314.53 271.68C315.09 271.48 315.676 271.38 316.29 271.38C316.89 271.38 317.39 271.493 317.79 271.72C318.203 271.933 318.523 272.24 318.75 272.64C318.99 273.027 319.156 273.487 319.25 274.02C319.356 274.553 319.41 275.133 319.41 275.76V282ZM321.467 276.8C321.467 275.813 321.667 274.913 322.067 274.1C322.48 273.273 323.04 272.613 323.747 272.12C324.467 271.627 325.287 271.38 326.207 271.38C327.047 271.38 327.8 271.6 328.467 272.04C329.133 272.48 329.653 273.013 330.027 273.64V267.4H331.787V280C331.787 280.213 331.827 280.373 331.907 280.48C332 280.573 332.147 280.627 332.347 280.64V282C332.013 282.053 331.753 282.08 331.567 282.08C331.22 282.08 330.913 281.96 330.647 281.72C330.393 281.48 330.267 281.213 330.267 280.92V280.04C329.853 280.707 329.3 281.233 328.607 281.62C327.913 282.007 327.193 282.2 326.447 282.2C325.727 282.2 325.06 282.06 324.447 281.78C323.847 281.487 323.32 281.087 322.867 280.58C322.427 280.073 322.08 279.5 321.827 278.86C321.587 278.207 321.467 277.52 321.467 276.8ZM330.027 278.34V275.34C329.867 274.887 329.607 274.48 329.247 274.12C328.887 273.747 328.48 273.453 328.027 273.24C327.587 273.013 327.147 272.9 326.707 272.9C326.187 272.9 325.713 273.013 325.287 273.24C324.873 273.453 324.513 273.747 324.207 274.12C323.913 274.48 323.687 274.893 323.527 275.36C323.367 275.827 323.287 276.313 323.287 276.82C323.287 277.34 323.373 277.833 323.547 278.3C323.733 278.767 323.987 279.18 324.307 279.54C324.64 279.9 325.02 280.18 325.447 280.38C325.887 280.58 326.36 280.68 326.867 280.68C327.187 280.68 327.513 280.62 327.847 280.5C328.193 280.38 328.52 280.213 328.827 280C329.133 279.787 329.393 279.54 329.607 279.26C329.82 278.967 329.96 278.66 330.027 278.34ZM125.079 299.4H120.179V312H118.379V299.4H113.479V297.8H125.079V299.4ZM135.904 312H134.144V306.16C134.144 305.093 133.95 304.293 133.564 303.76C133.19 303.227 132.65 302.96 131.944 302.96C131.49 302.96 131.03 303.08 130.564 303.32C130.11 303.56 129.71 303.887 129.364 304.3C129.017 304.7 128.764 305.167 128.604 305.7V312H126.844V297.4H128.604V303.8C129.017 303.053 129.577 302.467 130.284 302.04C131.004 301.6 131.777 301.38 132.604 301.38C133.23 301.38 133.75 301.493 134.164 301.72C134.59 301.933 134.93 302.24 135.184 302.64C135.437 303.04 135.617 303.507 135.724 304.04C135.844 304.56 135.904 305.133 135.904 305.76V312ZM143.261 312.2C142.474 312.2 141.754 312.06 141.101 311.78C140.461 311.487 139.901 311.093 139.421 310.6C138.954 310.093 138.587 309.513 138.321 308.86C138.067 308.207 137.941 307.513 137.941 306.78C137.941 305.793 138.167 304.893 138.621 304.08C139.074 303.267 139.701 302.613 140.501 302.12C141.314 301.627 142.241 301.38 143.281 301.38C144.334 301.38 145.247 301.633 146.021 302.14C146.807 302.633 147.414 303.287 147.841 304.1C148.281 304.9 148.501 305.767 148.501 306.7C148.501 306.833 148.494 306.967 148.481 307.1C148.481 307.22 148.474 307.313 148.461 307.38H139.801C139.854 308.06 140.041 308.667 140.361 309.2C140.694 309.72 141.121 310.133 141.641 310.44C142.161 310.733 142.721 310.88 143.321 310.88C143.961 310.88 144.561 310.72 145.121 310.4C145.694 310.08 146.087 309.66 146.301 309.14L147.821 309.56C147.594 310.067 147.254 310.52 146.801 310.92C146.361 311.32 145.834 311.633 145.221 311.86C144.621 312.087 143.967 312.2 143.261 312.2ZM139.741 306.16H146.861C146.807 305.48 146.614 304.88 146.281 304.36C145.947 303.84 145.521 303.433 145.001 303.14C144.481 302.847 143.907 302.7 143.281 302.7C142.667 302.7 142.101 302.847 141.581 303.14C141.061 303.433 140.634 303.84 140.301 304.36C139.981 304.88 139.794 305.48 139.741 306.16ZM150.457 312V301.56H152.217V312H150.457ZM150.457 299.6V297.4H152.217V299.6H150.457ZM160.586 303.1C159.706 303.113 158.926 303.34 158.246 303.78C157.58 304.207 157.106 304.8 156.826 305.56V312H155.066V301.56H156.706V303.98C157.066 303.26 157.54 302.68 158.126 302.24C158.726 301.787 159.353 301.533 160.006 301.48C160.14 301.48 160.253 301.48 160.346 301.48C160.44 301.48 160.52 301.487 160.586 301.5V303.1ZM167.202 312V297.8H169.002V310.4H176.922V312H167.202ZM178.602 312V301.56H180.362V312H178.602ZM178.602 299.6V297.4H180.362V299.6H178.602ZM183.771 312V302.94H182.351V301.56H183.771V301.34C183.771 300.487 183.898 299.753 184.151 299.14C184.418 298.513 184.791 298.033 185.271 297.7C185.751 297.367 186.318 297.2 186.971 297.2C187.384 297.2 187.791 297.26 188.191 297.38C188.591 297.487 188.951 297.64 189.271 297.84L188.831 299.14C188.644 299.007 188.411 298.9 188.131 298.82C187.864 298.74 187.598 298.7 187.331 298.7C186.758 298.7 186.311 298.927 185.991 299.38C185.684 299.82 185.531 300.453 185.531 301.28V301.56H188.311V302.94H185.531V312H183.771ZM194.433 312.2C193.646 312.2 192.926 312.06 192.273 311.78C191.633 311.487 191.073 311.093 190.593 310.6C190.126 310.093 189.759 309.513 189.493 308.86C189.239 308.207 189.113 307.513 189.113 306.78C189.113 305.793 189.339 304.893 189.793 304.08C190.246 303.267 190.873 302.613 191.673 302.12C192.486 301.627 193.413 301.38 194.453 301.38C195.506 301.38 196.419 301.633 197.193 302.14C197.979 302.633 198.586 303.287 199.013 304.1C199.453 304.9 199.673 305.767 199.673 306.7C199.673 306.833 199.666 306.967 199.653 307.1C199.653 307.22 199.646 307.313 199.633 307.38H190.973C191.026 308.06 191.213 308.667 191.533 309.2C191.866 309.72 192.293 310.133 192.813 310.44C193.333 310.733 193.893 310.88 194.493 310.88C195.133 310.88 195.733 310.72 196.293 310.4C196.866 310.08 197.259 309.66 197.473 309.14L198.993 309.56C198.766 310.067 198.426 310.52 197.973 310.92C197.533 311.32 197.006 311.633 196.393 311.86C195.793 312.087 195.139 312.2 194.433 312.2ZM190.913 306.16H198.033C197.979 305.48 197.786 304.88 197.453 304.36C197.119 303.84 196.693 303.433 196.173 303.14C195.653 302.847 195.079 302.7 194.453 302.7C193.839 302.7 193.273 302.847 192.753 303.14C192.233 303.433 191.806 303.84 191.473 304.36C191.153 304.88 190.966 305.48 190.913 306.16ZM206.968 312V297.8H212.888C213.514 297.8 214.088 297.933 214.608 298.2C215.128 298.453 215.581 298.8 215.968 299.24C216.354 299.667 216.654 300.153 216.868 300.7C217.081 301.233 217.188 301.78 217.188 302.34C217.188 303.113 217.014 303.853 216.668 304.56C216.321 305.253 215.834 305.82 215.208 306.26C214.581 306.687 213.848 306.9 213.008 306.9H208.768V312H206.968ZM208.768 305.3H212.908C213.401 305.3 213.828 305.167 214.188 304.9C214.561 304.633 214.848 304.273 215.048 303.82C215.261 303.367 215.368 302.873 215.368 302.34C215.368 301.78 215.248 301.28 215.008 300.84C214.768 300.387 214.454 300.033 214.068 299.78C213.681 299.527 213.254 299.4 212.788 299.4H208.768V305.3ZM218.211 308.98C218.211 308.313 218.398 307.74 218.771 307.26C219.158 306.767 219.685 306.387 220.351 306.12C221.018 305.853 221.791 305.72 222.671 305.72C223.138 305.72 223.631 305.76 224.151 305.84C224.671 305.907 225.131 306.013 225.531 306.16V305.4C225.531 304.6 225.291 303.973 224.811 303.52C224.331 303.053 223.651 302.82 222.771 302.82C222.198 302.82 221.645 302.927 221.111 303.14C220.591 303.34 220.038 303.633 219.451 304.02L218.811 302.78C219.491 302.313 220.171 301.967 220.851 301.74C221.531 301.5 222.238 301.38 222.971 301.38C224.305 301.38 225.358 301.753 226.131 302.5C226.905 303.233 227.291 304.26 227.291 305.58V310C227.291 310.213 227.331 310.373 227.411 310.48C227.505 310.573 227.651 310.627 227.851 310.64V312C227.678 312.027 227.525 312.047 227.391 312.06C227.271 312.073 227.171 312.08 227.091 312.08C226.678 312.08 226.365 311.967 226.151 311.74C225.951 311.513 225.838 311.273 225.811 311.02L225.771 310.36C225.318 310.947 224.725 311.4 223.991 311.72C223.258 312.04 222.531 312.2 221.811 312.2C221.118 312.2 220.498 312.06 219.951 311.78C219.405 311.487 218.978 311.1 218.671 310.62C218.365 310.127 218.211 309.58 218.211 308.98ZM225.011 309.72C225.171 309.533 225.298 309.347 225.391 309.16C225.485 308.96 225.531 308.793 225.531 308.66V307.36C225.118 307.2 224.685 307.08 224.231 307C223.778 306.907 223.331 306.86 222.891 306.86C221.998 306.86 221.271 307.04 220.711 307.4C220.165 307.747 219.891 308.227 219.891 308.84C219.891 309.173 219.978 309.5 220.151 309.82C220.338 310.127 220.605 310.38 220.951 310.58C221.311 310.78 221.751 310.88 222.271 310.88C222.818 310.88 223.338 310.773 223.831 310.56C224.325 310.333 224.718 310.053 225.011 309.72ZM235.626 303.1C234.746 303.113 233.966 303.34 233.286 303.78C232.619 304.207 232.146 304.8 231.866 305.56V312H230.106V301.56H231.746V303.98C232.106 303.26 232.579 302.68 233.166 302.24C233.766 301.787 234.392 301.533 235.046 301.48C235.179 301.48 235.292 301.48 235.386 301.48C235.479 301.48 235.559 301.487 235.626 301.5V303.1ZM242.771 311.48C242.625 311.547 242.425 311.633 242.171 311.74C241.918 311.847 241.625 311.94 241.291 312.02C240.958 312.1 240.605 312.14 240.231 312.14C239.805 312.14 239.411 312.067 239.051 311.92C238.691 311.76 238.405 311.52 238.191 311.2C237.978 310.867 237.871 310.453 237.871 309.96V302.94H236.451V301.56H237.871V298.08H239.631V301.56H241.971V302.94H239.631V309.42C239.658 309.793 239.785 310.073 240.011 310.26C240.238 310.433 240.505 310.52 240.811 310.52C241.158 310.52 241.478 310.46 241.771 310.34C242.065 310.22 242.258 310.133 242.351 310.08L242.771 311.48ZM253.462 312H251.702V306.16C251.702 305.053 251.529 304.247 251.182 303.74C250.849 303.22 250.336 302.96 249.642 302.96C249.162 302.96 248.682 303.08 248.202 303.32C247.736 303.56 247.316 303.887 246.942 304.3C246.582 304.7 246.322 305.167 246.162 305.7V312H244.402V301.56H246.002V303.8C246.282 303.307 246.642 302.88 247.082 302.52C247.522 302.16 248.022 301.88 248.582 301.68C249.142 301.48 249.729 301.38 250.342 301.38C250.942 301.38 251.442 301.493 251.842 301.72C252.256 301.933 252.576 302.24 252.802 302.64C253.042 303.027 253.209 303.487 253.302 304.02C253.409 304.553 253.462 305.133 253.462 305.76V312ZM260.819 312.2C260.033 312.2 259.313 312.06 258.659 311.78C258.019 311.487 257.459 311.093 256.979 310.6C256.513 310.093 256.146 309.513 255.879 308.86C255.626 308.207 255.499 307.513 255.499 306.78C255.499 305.793 255.726 304.893 256.179 304.08C256.633 303.267 257.259 302.613 258.059 302.12C258.873 301.627 259.799 301.38 260.839 301.38C261.893 301.38 262.806 301.633 263.579 302.14C264.366 302.633 264.973 303.287 265.399 304.1C265.839 304.9 266.059 305.767 266.059 306.7C266.059 306.833 266.053 306.967 266.039 307.1C266.039 307.22 266.033 307.313 266.019 307.38H257.359C257.413 308.06 257.599 308.667 257.919 309.2C258.253 309.72 258.679 310.133 259.199 310.44C259.719 310.733 260.279 310.88 260.879 310.88C261.519 310.88 262.119 310.72 262.679 310.4C263.253 310.08 263.646 309.66 263.859 309.14L265.379 309.56C265.153 310.067 264.813 310.52 264.359 310.92C263.919 311.32 263.393 311.633 262.779 311.86C262.179 312.087 261.526 312.2 260.819 312.2ZM257.299 306.16H264.419C264.366 305.48 264.173 304.88 263.839 304.36C263.506 303.84 263.079 303.433 262.559 303.14C262.039 302.847 261.466 302.7 260.839 302.7C260.226 302.7 259.659 302.847 259.139 303.14C258.619 303.433 258.193 303.84 257.859 304.36C257.539 304.88 257.353 305.48 257.299 306.16ZM273.536 303.1C272.656 303.113 271.876 303.34 271.196 303.78C270.529 304.207 270.056 304.8 269.776 305.56V312H268.016V301.56H269.656V303.98C270.016 303.26 270.489 302.68 271.076 302.24C271.676 301.787 272.302 301.533 272.956 301.48C273.089 301.48 273.202 301.48 273.296 301.48C273.389 301.48 273.469 301.487 273.536 301.5V303.1Z" fill="black"/>
<defs>
<linearGradient id="paint0_linear_990_1051" x1="138" y1="118" x2="218.391" y2="129.595" gradientUnits="userSpaceOnUse">
<stop stop-color="#F05A8E"/>
<stop offset="1" stop-color="#ED1C24"/>
</linearGradient>
<linearGradient id="paint1_linear_990_1051" x1="46" y1="226.5" x2="81.936" y2="306.974" gradientUnits="userSpaceOnUse">
<stop stop-color="#F05A8E"/>
<stop offset="1" stop-color="#ED1C24"/>
</linearGradient>
</defs>
</svg>
