<svg width="102" height="59" viewBox="0 0 102 59" fill="none" xmlns="http://www.w3.org/2000/svg">
<path d="M23.4357 53.0418V48.6461H24.4038L25.6762 52.1894L26.9608 48.6461H27.9288V53.0418H27.3139V49.2245L25.9197 53.0418H25.4326L24.0506 49.255V53.0418H23.4357ZM36.8288 53.127C36.4189 53.127 36.084 53.058 35.8243 52.92C35.5645 52.782 35.3738 52.5628 35.252 52.2625C35.1343 51.9621 35.0754 51.5684 35.0754 51.0814V48.6461H35.6903V51.0814C35.6903 51.678 35.804 52.094 36.0313 52.3295C36.2017 52.504 36.4676 52.5912 36.8288 52.5912C37.19 52.5912 37.4559 52.506 37.6264 52.3355C37.8577 52.1042 37.9734 51.6861 37.9734 51.0814V48.6461H38.5883V51.0814C38.5883 51.5684 38.5274 51.9621 38.4056 52.2625C38.2839 52.5628 38.0931 52.782 37.8334 52.92C37.5777 53.058 37.2428 53.127 36.8288 53.127ZM45.7342 53.0418V48.6461H46.3491V50.5274H48.4616V48.6461H49.0765V53.0418H48.4616V51.057H46.3491V53.0418H45.7342ZM55.7698 53.0418L57.6145 48.6461H58.2842L60.1532 53.0418H59.5079L59.033 51.8668H56.8778L56.3969 53.0418H55.7698ZM57.1153 51.3493H58.7773L57.9371 49.3219L57.1153 51.3493ZM66.8435 53.0418V48.6461H68.2376C68.7734 48.6461 69.1651 48.7334 69.4127 48.9079C69.6846 49.0946 69.8206 49.4072 69.8206 49.8455C69.8206 50.2149 69.5466 50.5314 68.9987 50.7953C69.0433 50.8115 69.0839 50.8277 69.1204 50.844C69.161 50.8602 69.1975 50.8785 69.23 50.8987C69.4005 51.0043 69.5121 51.126 69.5649 51.264C69.5852 51.3087 69.6054 51.3939 69.6257 51.5197C69.646 51.6415 69.6704 51.8018 69.6988 52.0007C69.7272 52.2118 69.7597 52.4045 69.7962 52.5791C69.8368 52.7495 69.8814 52.9038 69.9301 53.0418H69.3092C69.2726 52.8226 69.2057 52.4695 69.1082 51.9824C69.019 51.5441 68.9114 51.2742 68.7856 51.1727C68.676 51.0875 68.4122 51.0449 67.9941 51.0449H67.4584V53.0418H66.8435ZM67.4584 50.5152H68.2194C68.8769 50.5152 69.2057 50.292 69.2057 49.8455C69.2057 49.399 68.8769 49.1758 68.2194 49.1758H67.4584V50.5152ZM76.3559 53.0418L78.2006 48.6461H78.8703L80.7393 53.0418H80.094L79.6191 51.8668H77.4639L76.983 53.0418H76.3559ZM77.7014 51.3493H79.3634L78.5233 49.3219L77.7014 51.3493ZM88.4463 53.0418V49.1758H87.0095V48.6461H90.498V49.1758H89.0612V53.0418H88.4463ZM97.2262 53.0418V48.6461H97.8411V50.5274H99.9537V48.6461H100.569V53.0418H99.9537V51.057H97.8411V53.0418H97.2262Z" fill="#830000"/>
<path d="M0.638072 27.4702C0.638072 21.6597 24.0776 2.37049 32.2597 2.37049C32.3388 2.37049 32.4573 2.37049 32.5364 2.37049C33.2083 2.41002 33.8013 2.68671 34.0779 3.20056C35.9357 7.03468 28.7418 22.055 22.0617 27.7864C21.706 28.1026 21.2317 28.2607 20.8364 28.2607C20.0458 28.2607 19.3344 27.7073 19.3344 26.6006C19.3344 26.2448 19.4134 25.9286 19.532 25.6124C21.1131 21.8573 22.8127 20.1972 25.7377 16.0468C25.8168 15.9283 25.9749 15.8097 26.3702 15.8097C27.556 15.8097 28.3465 17.1536 27.5165 17.8651C24.9867 20.1577 23.4056 22.806 21.7455 25.81C21.6665 25.9286 21.5479 26.0867 21.5479 26.2448L21.5874 26.5215C27.2002 21.1063 34.0384 7.3509 33.1293 3.71441C33.0502 3.43772 32.8921 3.31914 32.6154 3.31914C24.9472 3.31914 3.1678 22.4502 3.95834 27.0354C4.78841 31.7786 21.0735 35.8894 24.1567 38.1029C24.2357 38.1425 24.3543 38.2215 24.4333 38.261C28.1094 36.9962 31.3506 36.0475 32.9317 35.6918C32.9712 35.6918 33.0502 35.6918 33.0898 35.6918C33.7617 35.6918 33.8803 36.5614 33.2083 36.7985C29.809 37.8658 27.5165 38.3006 25.0263 38.933C25.2239 39.2492 25.3029 39.6445 25.3029 40.1979C25.3029 41.1465 24.8286 41.8975 24.3148 42.609C21.4293 46.4036 15.3817 52.5303 10.2827 52.5303C7.00192 52.5303 5.53942 50.0006 6.17186 47.8266C6.92287 45.2178 15.4212 41.5023 22.8523 38.8144C17.9114 35.4151 0.638072 32.6877 0.638072 27.4702ZM23.5242 39.3678C20.0063 40.356 10.006 44.783 8.66206 47.3523C8.10868 48.4195 8.97828 49.8425 10.6384 49.8425C15.1445 49.8425 21.6269 45.4945 23.7614 41.6999C23.959 41.3837 24.1567 41.0279 24.1567 40.5931C24.1567 40.1583 23.9195 39.7631 23.5242 39.3678ZM46.9347 36.9171C45.1165 37.7472 40.5709 40.356 39.5432 40.356C38.3178 40.356 37.5668 39.4469 37.5668 38.3006C37.5668 37.51 38.1202 36.1266 37.804 35.9289C37.7645 35.8894 37.7249 35.8894 37.6459 35.8894C36.6972 35.8894 33.5746 39.3283 32.9817 41.6604C32.7445 42.53 32.1516 45.6921 32.033 46.2455C31.8749 47.036 31.5982 47.1941 31.3611 47.3127C31.3215 47.3127 31.282 47.3523 31.282 47.3523C30.9658 47.3523 30.9263 46.6012 30.9263 46.3641C30.9263 43.2414 32.7445 35.8104 33.5746 32.0553C33.4165 31.8972 33.2584 31.66 33.2584 31.3833C33.2584 31.1066 33.4165 30.9881 33.5746 30.7509C34.3256 29.7232 35.1161 26.7982 35.3138 25.5333C35.9067 21.8178 36.5786 18.1418 37.9226 14.6239C39.1874 11.2245 41.1638 5.4536 42.6658 5.4536C42.7053 5.4536 42.7053 5.4536 42.7449 5.4536C44.1678 5.65124 44.1678 8.2205 42.7449 13.7543C41.2824 19.4857 38.3574 25.2566 35.3138 30.3161C34.207 34.585 33.8908 35.336 33.4165 38.6168C34.5232 37.4705 37.0925 33.5178 38.6736 33.5178C39.4246 33.5178 40.2547 34.2293 40.2547 35.4546C40.2547 36.5218 38.6736 39.2097 39.2665 39.5259C40.729 39.5259 45.2746 36.759 46.658 35.9289C46.7766 35.8499 46.8557 35.8499 46.9347 35.8499C47.4091 35.8499 47.6462 36.6009 46.9347 36.9171ZM36.6577 23.7941C37.8435 22.3712 43.2192 9.88063 42.3101 7.19279C41.48 8.3786 41.0847 9.80157 40.5313 11.1455C40.1361 12.1732 37.2901 21.1854 36.6577 23.7941ZM54.7438 38.7749C55.6924 38.7749 57.7478 37.7472 59.408 36.2452C59.6451 36.0475 59.8823 35.9289 60.0799 35.9289C60.3962 35.9289 60.5147 36.2847 60.159 36.6404C58.7755 37.9844 56.1668 40.0002 54.5461 40.0002C52.4512 40.0002 52.6093 38.1425 52.886 36.8381C52.4512 36.8381 48.6171 39.0911 46.8384 39.0911C46.0083 39.0911 45.7316 38.6563 45.7316 38.1425C45.7316 35.8499 49.5657 33.1621 51.8188 33.1621C52.8465 33.1621 53.7556 33.755 54.388 34.5455C54.5857 34.8222 54.7438 35.1384 54.7438 35.4941C54.7438 36.3242 54.1114 37.3914 54.1114 38.2215C54.1114 38.6563 54.3485 38.7749 54.7438 38.7749ZM49.8029 36.7195C49.9215 36.9171 52.4907 35.4941 52.2141 35.0198C52.1745 34.9803 52.135 34.9408 52.0559 34.9408C51.4235 34.9408 49.6053 36.3242 49.8029 36.7195ZM67.6778 35.1384C67.243 36.2056 67.1639 37.3914 66.8872 38.5377C65.1085 46.285 63.5274 50.7911 62.9345 57.6293C62.895 57.8664 62.5788 58.3803 62.2626 58.3803C61.7487 58.3803 61.2349 57.906 61.3139 57.3921C62.0649 52.7279 64.3575 41.6208 66.0967 34.8617C64.9899 35.2175 61.5116 40.5536 59.4561 40.5536C58.6656 40.5536 58.1518 39.3283 58.1518 38.6168C58.1518 36.8381 61.8278 34.1107 63.3693 33.4783C65.8595 32.4901 67.2034 29.486 67.9149 26.9958C68.6659 24.2685 74.3183 6.00698 77.1247 6.00698C78.1129 6.00698 78.3105 6.95563 78.3105 7.74617C78.3105 12.1732 71.9467 25.2171 69.2984 29.4465C68.8241 30.1975 68.1521 32.1739 68.1521 33.0435C68.1521 33.9131 69.0217 33.9921 69.0217 34.9803C69.0217 35.4151 69.0217 35.9289 68.5474 35.9289C68.2707 35.9289 67.994 35.336 67.6778 35.1384ZM70.6818 23.3593C71.0376 23.2803 71.1166 23.1617 71.2747 22.8455C72.6977 19.881 77.4014 10.1178 77.4014 7.42995C77.4014 7.23232 77.3619 7.11374 77.2433 7.03468C77.2038 7.03468 77.1643 6.99516 77.1247 6.99516C76.9271 6.99516 76.8085 7.15326 76.6899 7.3509C74.1997 11.2641 71.8281 18.7347 70.6818 23.3593ZM81.406 36.2056C81.5641 36.0871 81.8013 36.0475 81.9594 36.0475C82.6313 36.0475 83.1452 36.6009 82.2361 37.0752C79.8249 38.3796 74.0935 41.0675 72.9867 41.0675C71.5638 41.0675 71.4452 39.5654 71.4847 38.6168C71.5638 37.2729 73.5006 31.8181 75.3584 31.8181C75.9908 31.8181 76.2675 32.7273 76.2675 33.2016C76.2675 33.5968 76.1489 33.9921 75.9908 34.3479C75.2398 35.8894 73.0658 38.261 72.552 39.8816C72.631 39.9212 72.7891 39.9212 72.8682 39.9212C73.6982 39.9212 79.1925 37.7472 81.406 36.2056ZM72.9472 28.9722C72.9472 28.7746 73.0658 28.4979 73.2239 28.3398C74.6469 27.1539 76.7418 25.81 78.5996 25.81C79.0344 25.81 79.5878 26.1658 79.5878 26.9168C79.5878 27.5097 79.1925 28.0235 78.8367 28.0235C78.5996 28.0235 78.2834 27.984 78.0462 27.984C75.7141 27.984 73.5006 29.5256 73.303 29.5256C72.9867 29.5256 72.9472 29.1698 72.9472 28.9722Z" fill="white"/>
<path d="M0.638072 27.4702C0.638072 21.6597 24.0776 2.37049 32.2597 2.37049C32.3388 2.37049 32.4573 2.37049 32.5364 2.37049C33.2083 2.41002 33.8013 2.68671 34.0779 3.20056C35.9357 7.03468 28.7418 22.055 22.0617 27.7864C21.706 28.1026 21.2317 28.2607 20.8364 28.2607C20.0458 28.2607 19.3344 27.7073 19.3344 26.6006C19.3344 26.2448 19.4134 25.9286 19.532 25.6124C21.1131 21.8573 22.8127 20.1972 25.7377 16.0468C25.8168 15.9283 25.9749 15.8097 26.3702 15.8097C27.556 15.8097 28.3465 17.1536 27.5165 17.8651C24.9867 20.1577 23.4056 22.806 21.7455 25.81C21.6665 25.9286 21.5479 26.0867 21.5479 26.2448L21.5874 26.5215C27.2002 21.1063 34.0384 7.3509 33.1293 3.71441C33.0502 3.43772 32.8921 3.31914 32.6154 3.31914C24.9472 3.31914 3.1678 22.4502 3.95834 27.0354C4.78841 31.7786 21.0735 35.8894 24.1567 38.1029C24.2357 38.1425 24.3543 38.2215 24.4333 38.261C28.1094 36.9962 31.3506 36.0475 32.9317 35.6918C32.9712 35.6918 33.0502 35.6918 33.0898 35.6918C33.7617 35.6918 33.8803 36.5614 33.2083 36.7985C29.809 37.8658 27.5165 38.3006 25.0263 38.933C25.2239 39.2492 25.3029 39.6445 25.3029 40.1979C25.3029 41.1465 24.8286 41.8975 24.3148 42.609C21.4293 46.4036 15.3817 52.5303 10.2827 52.5303C7.00192 52.5303 5.53942 50.0006 6.17186 47.8266C6.92287 45.2178 15.4212 41.5023 22.8523 38.8144C17.9114 35.4151 0.638072 32.6877 0.638072 27.4702ZM23.5242 39.3678C20.0063 40.356 10.006 44.783 8.66206 47.3523C8.10868 48.4195 8.97828 49.8425 10.6384 49.8425C15.1445 49.8425 21.6269 45.4945 23.7614 41.6999C23.959 41.3837 24.1567 41.0279 24.1567 40.5931C24.1567 40.1583 23.9195 39.7631 23.5242 39.3678ZM46.9347 36.9171C45.1165 37.7472 40.5709 40.356 39.5432 40.356C38.3178 40.356 37.5668 39.4469 37.5668 38.3006C37.5668 37.51 38.1202 36.1266 37.804 35.9289C37.7645 35.8894 37.7249 35.8894 37.6459 35.8894C36.6972 35.8894 33.5746 39.3283 32.9817 41.6604C32.7445 42.53 32.1516 45.6921 32.033 46.2455C31.8749 47.036 31.5982 47.1941 31.3611 47.3127C31.3215 47.3127 31.282 47.3523 31.282 47.3523C30.9658 47.3523 30.9263 46.6012 30.9263 46.3641C30.9263 43.2414 32.7445 35.8104 33.5746 32.0553C33.4165 31.8972 33.2584 31.66 33.2584 31.3833C33.2584 31.1066 33.4165 30.9881 33.5746 30.7509C34.3256 29.7232 35.1161 26.7982 35.3138 25.5333C35.9067 21.8178 36.5786 18.1418 37.9226 14.6239C39.1874 11.2245 41.1638 5.4536 42.6658 5.4536C42.7053 5.4536 42.7053 5.4536 42.7449 5.4536C44.1678 5.65124 44.1678 8.2205 42.7449 13.7543C41.2824 19.4857 38.3574 25.2566 35.3138 30.3161C34.207 34.585 33.8908 35.336 33.4165 38.6168C34.5232 37.4705 37.0925 33.5178 38.6736 33.5178C39.4246 33.5178 40.2547 34.2293 40.2547 35.4546C40.2547 36.5218 38.6736 39.2097 39.2665 39.5259C40.729 39.5259 45.2746 36.759 46.658 35.9289C46.7766 35.8499 46.8557 35.8499 46.9347 35.8499C47.4091 35.8499 47.6462 36.6009 46.9347 36.9171ZM36.6577 23.7941C37.8435 22.3712 43.2192 9.88063 42.3101 7.19279C41.48 8.3786 41.0847 9.80157 40.5313 11.1455C40.1361 12.1732 37.2901 21.1854 36.6577 23.7941ZM54.7438 38.7749C55.6924 38.7749 57.7478 37.7472 59.408 36.2452C59.6451 36.0475 59.8823 35.9289 60.0799 35.9289C60.3962 35.9289 60.5147 36.2847 60.159 36.6404C58.7755 37.9844 56.1668 40.0002 54.5461 40.0002C52.4512 40.0002 52.6093 38.1425 52.886 36.8381C52.4512 36.8381 48.6171 39.0911 46.8384 39.0911C46.0083 39.0911 45.7316 38.6563 45.7316 38.1425C45.7316 35.8499 49.5657 33.1621 51.8188 33.1621C52.8465 33.1621 53.7556 33.755 54.388 34.5455C54.5857 34.8222 54.7438 35.1384 54.7438 35.4941C54.7438 36.3242 54.1114 37.3914 54.1114 38.2215C54.1114 38.6563 54.3485 38.7749 54.7438 38.7749ZM49.8029 36.7195C49.9215 36.9171 52.4907 35.4941 52.2141 35.0198C52.1745 34.9803 52.135 34.9408 52.0559 34.9408C51.4235 34.9408 49.6053 36.3242 49.8029 36.7195ZM67.6778 35.1384C67.243 36.2056 67.1639 37.3914 66.8872 38.5377C65.1085 46.285 63.5274 50.7911 62.9345 57.6293C62.895 57.8664 62.5788 58.3803 62.2626 58.3803C61.7487 58.3803 61.2349 57.906 61.3139 57.3921C62.0649 52.7279 64.3575 41.6208 66.0967 34.8617C64.9899 35.2175 61.5116 40.5536 59.4561 40.5536C58.6656 40.5536 58.1518 39.3283 58.1518 38.6168C58.1518 36.8381 61.8278 34.1107 63.3693 33.4783C65.8595 32.4901 67.2034 29.486 67.9149 26.9958C68.6659 24.2685 74.3183 6.00698 77.1247 6.00698C78.1129 6.00698 78.3105 6.95563 78.3105 7.74617C78.3105 12.1732 71.9467 25.2171 69.2984 29.4465C68.8241 30.1975 68.1521 32.1739 68.1521 33.0435C68.1521 33.9131 69.0217 33.9921 69.0217 34.9803C69.0217 35.4151 69.0217 35.9289 68.5474 35.9289C68.2707 35.9289 67.994 35.336 67.6778 35.1384ZM70.6818 23.3593C71.0376 23.2803 71.1166 23.1617 71.2747 22.8455C72.6977 19.881 77.4014 10.1178 77.4014 7.42995C77.4014 7.23232 77.3619 7.11374 77.2433 7.03468C77.2038 7.03468 77.1643 6.99516 77.1247 6.99516C76.9271 6.99516 76.8085 7.15326 76.6899 7.3509C74.1997 11.2641 71.8281 18.7347 70.6818 23.3593ZM81.406 36.2056C81.5641 36.0871 81.8013 36.0475 81.9594 36.0475C82.6313 36.0475 83.1452 36.6009 82.2361 37.0752C79.8249 38.3796 74.0935 41.0675 72.9867 41.0675C71.5638 41.0675 71.4452 39.5654 71.4847 38.6168C71.5638 37.2729 73.5006 31.8181 75.3584 31.8181C75.9908 31.8181 76.2675 32.7273 76.2675 33.2016C76.2675 33.5968 76.1489 33.9921 75.9908 34.3479C75.2398 35.8894 73.0658 38.261 72.552 39.8816C72.631 39.9212 72.7891 39.9212 72.8682 39.9212C73.6982 39.9212 79.1925 37.7472 81.406 36.2056ZM72.9472 28.9722C72.9472 28.7746 73.0658 28.4979 73.2239 28.3398C74.6469 27.1539 76.7418 25.81 78.5996 25.81C79.0344 25.81 79.5878 26.1658 79.5878 26.9168C79.5878 27.5097 79.1925 28.0235 78.8367 28.0235C78.5996 28.0235 78.2834 27.984 78.0462 27.984C75.7141 27.984 73.5006 29.5256 73.303 29.5256C72.9867 29.5256 72.9472 29.1698 72.9472 28.9722Z" fill="url(#paint0_linear_990_912)"/>
<defs>
<linearGradient id="paint0_linear_990_912" x1="0.0451662" y1="20.0002" x2="55.2967" y2="36.3366" gradientUnits="userSpaceOnUse">
<stop stop-color="#F05A8E"/>
<stop offset="1" stop-color="#ED1C24"/>
</linearGradient>
</defs>
</svg>
