<svg width="127" height="127" viewBox="0 0 127 127" fill="none" xmlns="http://www.w3.org/2000/svg">
<rect x="4" y="4" width="119" height="119" rx="20" fill="white"/>
<rect x="4.5" y="4.5" width="118" height="118" rx="19.5" stroke="#ED1C24" stroke-opacity="0.15"/>
<g filter="url(#filter0_d_1776_4182)">
<rect x="22" y="22" width="83" height="83" rx="21" fill="url(#paint0_linear_1776_4182)"/>
</g>
<g filter="url(#filter1_d_1776_4182)">
<path d="M87.1475 63.9344C87.1475 47.8341 84.8548 44.9885 63.5865 44.9885C42.3181 44.9885 40.0254 47.8341 40.0254 63.9344C40.0254 80.0346 42.3181 82.8802 63.5865 82.8802C84.8548 82.8802 87.1475 80.0346 87.1475 63.9344Z" fill="#FFF9EB"/>
<path d="M86.1372 62.9459C86.1372 46.8456 83.8445 44 62.5762 44C41.3078 44 39 46.8456 39 62.9459C39 79.0461 41.2928 81.8917 62.5611 81.8917C83.8294 81.8917 86.1222 79.0461 86.1222 62.9459H86.1372Z" fill="#FFE5C9"/>
<mask id="mask0_1776_4182" style="mask-type:luminance" maskUnits="userSpaceOnUse" x="39" y="44" width="48" height="39">
<path d="M86.6046 63.4101C86.6046 47.3099 84.3118 44.4642 63.0435 44.4642C41.7752 44.4642 39.4824 47.3099 39.4824 63.4101C39.4824 79.5103 41.7752 82.3559 63.0435 82.3559C84.3118 82.3559 86.6046 79.5103 86.6046 63.4101Z" fill="white"/>
</mask>
<g mask="url(#mask0_1776_4182)">
<path d="M86.6046 63.4101C86.6046 47.3099 84.3118 44.4642 63.0435 44.4642C41.7752 44.4642 39.4824 47.3099 39.4824 63.4101C39.4824 79.5103 41.7752 82.3559 63.0435 82.3559C84.3118 82.3559 86.6046 79.5103 86.6046 63.4101Z" fill="url(#paint1_linear_1776_4182)"/>
<g style="mix-blend-mode:multiply">
<path d="M104.343 72.546C104.343 52.3421 98.9132 46.0518 77.66 46.0518C56.4068 46.0518 50.9766 52.3421 50.9766 72.546C50.9766 92.7499 56.4068 99.0402 77.66 99.0402C98.9132 99.0402 104.343 92.7499 104.343 72.546Z" fill="white"/>
<path d="M103.997 72.6059C103.997 52.7015 98.657 46.516 77.7205 46.516C56.784 46.516 51.4443 52.7015 51.4443 72.6059C51.4443 92.5102 56.784 98.6957 77.7205 98.6957C98.657 98.6957 103.997 92.5102 103.997 72.6059Z" fill="#FFFEFC"/>
<path d="M103.649 72.6508C103.649 53.061 98.3851 46.9653 77.7805 46.9653C57.1759 46.9653 51.8965 53.061 51.8965 72.6508C51.8965 92.2407 57.1608 98.3363 77.7654 98.3363C98.37 98.3363 103.634 92.2407 103.634 72.6508H103.649Z" fill="#FFFDF9"/>
<path d="M103.288 72.7108C103.288 53.4204 98.1142 47.4147 77.8113 47.4147C57.5083 47.4147 52.3496 53.4204 52.3496 72.7108C52.3496 92.0011 57.5234 98.0068 77.8263 98.0068C98.1293 98.0068 103.303 92.0011 103.303 72.7108H103.288Z" fill="#FFFCF6"/>
<path d="M102.941 72.7557C102.941 53.7649 97.8423 47.864 77.8712 47.864C57.9001 47.864 52.8018 53.7649 52.8018 72.7557C52.8018 91.7465 57.9001 97.6474 77.8712 97.6474C97.8423 97.6474 102.941 91.7465 102.941 72.7557Z" fill="#FFFBF3"/>
<path d="M102.594 72.8156C102.594 54.1393 97.571 48.3282 77.9317 48.3282C58.2925 48.3282 53.2695 54.1393 53.2695 72.8156C53.2695 91.4918 58.2925 97.3029 77.9317 97.3029C97.571 97.3029 102.594 91.4918 102.594 72.8156Z" fill="#FFF9EF"/>
<path d="M102.247 72.8605C102.247 54.4838 97.3147 48.7776 77.9922 48.7776C58.6697 48.7776 53.7373 54.4988 53.7373 72.8605C53.7373 91.2223 58.6697 96.9435 77.9922 96.9435C97.3147 96.9435 102.247 91.2223 102.247 72.8605Z" fill="#FFF8EC"/>
<path d="M101.885 72.9205C101.885 54.8583 97.0277 49.2269 78.0219 49.2269C59.0162 49.2269 54.1592 54.8433 54.1592 72.9205C54.1592 90.9977 59.0162 96.614 78.0219 96.614C97.0277 96.614 101.885 90.9977 101.885 72.9205Z" fill="#FFF7E9"/>
<path d="M101.538 72.9653C101.538 55.2026 96.7714 49.6761 78.0824 49.6761C59.3935 49.6761 54.627 55.2026 54.627 72.9653C54.627 90.728 59.3935 96.2545 78.0824 96.2545C96.7714 96.2545 101.538 90.728 101.538 72.9653Z" fill="#FFF6E6"/>
<path d="M101.191 73.0253C101.191 55.5771 96.5001 50.1405 78.143 50.1405C59.7858 50.1405 55.0947 55.5771 55.0947 73.0253C55.0947 90.4734 59.7858 95.9101 78.143 95.9101C96.5001 95.9101 101.191 90.4734 101.191 73.0253Z" fill="#FFF5E3"/>
<path d="M100.844 73.0701C100.844 55.9215 96.2438 50.5897 78.2035 50.5897C60.1631 50.5897 55.5625 55.9215 55.5625 73.0701C55.5625 90.2188 60.1631 95.5505 78.2035 95.5505C96.2438 95.5505 100.844 90.2188 100.844 73.0701Z" fill="#FFF4E0"/>
<path d="M100.482 73.1301C100.482 56.281 95.9569 51.0541 78.2483 51.0541C60.5398 51.0541 56.0146 56.296 56.0146 73.1301C56.0146 89.9642 60.5398 95.2062 78.2483 95.2062C95.9569 95.2062 100.482 89.9642 100.482 73.1301Z" fill="#FFF3DD"/>
<path d="M100.135 73.175C100.135 56.6405 95.7005 51.4884 78.2937 51.4884C60.8868 51.4884 56.4521 56.6405 56.4521 73.175C56.4521 89.7096 60.8868 94.8617 78.2937 94.8617C95.7005 94.8617 100.135 89.7096 100.135 73.175Z" fill="#FFF2DA"/>
<path d="M99.7884 73.2349C99.7884 56.9999 95.4292 51.9526 78.3542 51.9526C61.2792 51.9526 56.9199 56.9999 56.9199 73.2349C56.9199 89.4699 61.2792 94.5171 78.3542 94.5171C95.4292 94.5171 99.7884 89.4699 99.7884 73.2349Z" fill="#FFF0D6"/>
<path d="M99.426 73.2799C99.426 57.3593 95.1422 52.402 78.3991 52.402C61.6559 52.402 57.3721 57.3593 57.3721 73.2799C57.3721 89.2004 61.6559 94.1577 78.3991 94.1577C95.1422 94.1577 99.426 89.2004 99.426 73.2799Z" fill="#FFEFD3"/>
<path d="M99.0793 73.3398C99.0793 57.7189 94.8859 52.8663 78.4596 52.8663C62.0332 52.8663 57.8398 57.7189 57.8398 73.3398C57.8398 88.9608 62.0332 93.8133 78.4596 93.8133C94.8859 93.8133 99.0793 88.9608 99.0793 73.3398Z" fill="#FFEED0"/>
<path d="M98.7324 73.3848C98.7324 58.0633 94.6145 53.3007 78.5049 53.3007C62.3953 53.3007 58.2773 58.0633 58.2773 73.3848C58.2773 88.7062 62.3953 93.4689 78.5049 93.4689C94.6145 93.4689 98.7324 88.7062 98.7324 73.3848Z" fill="#FFEDCD"/>
<path d="M98.7621 73.6094C98.7621 58.4377 94.6894 53.72 78.7307 53.72C62.7719 53.72 58.6992 58.4377 58.6992 73.6094C58.6992 88.781 62.7719 93.4988 78.7307 93.4988C94.6894 93.4988 98.7621 88.781 98.7621 73.6094Z" fill="#FFECCA"/>
<path d="M98.7928 73.834C98.7928 58.8121 94.7654 54.1393 78.9574 54.1393C63.1495 54.1393 59.1221 58.8121 59.1221 73.834C59.1221 88.8559 63.1495 93.5287 78.9574 93.5287C94.7654 93.5287 98.7928 88.8559 98.7928 73.834Z" fill="#FFEBC8"/>
<path d="M98.8078 74.0437C98.8078 59.1716 94.8106 54.5437 79.1686 54.5437C63.5265 54.5437 59.5293 59.1716 59.5293 74.0437C59.5293 88.9158 63.5265 93.5437 79.1686 93.5437C94.8106 93.5437 98.8078 88.9158 98.8078 74.0437Z" fill="#FFE9C5"/>
<path d="M98.8375 74.2683C98.8375 59.546 94.8855 54.963 79.3943 54.963C63.9032 54.963 59.9512 59.546 59.9512 74.2683C59.9512 88.9907 63.9032 93.5736 79.3943 93.5736C94.8855 93.5736 98.8375 88.9907 98.8375 74.2683Z" fill="#FFE8C2"/>
<path d="M98.8682 74.493C98.8682 59.9205 94.9464 55.3824 79.6211 55.3824C64.2958 55.3824 60.374 59.9205 60.374 74.493C60.374 89.0656 64.2958 93.6036 79.6211 93.6036C94.9464 93.6036 98.8682 89.0656 98.8682 74.493Z" fill="#FFE7C0"/>
<path d="M98.8979 74.7026C98.8979 60.2649 95.0213 55.7867 79.8469 55.7867C64.6725 55.7867 60.7959 60.2798 60.7959 74.7026C60.7959 89.1255 64.6725 93.6185 79.8469 93.6185C95.0213 93.6185 98.8979 89.1255 98.8979 74.7026Z" fill="#FFE6BD"/>
<path d="M98.9284 74.9273C98.9284 60.6393 95.0971 56.1912 80.0585 56.1912C65.0198 56.1912 61.1885 60.6393 61.1885 74.9273C61.1885 89.2154 65.0198 93.6635 80.0585 93.6635C95.0971 93.6635 98.9284 89.2154 98.9284 74.9273Z" fill="#FFE4BA"/>
<path d="M98.9581 75.1519C98.9581 61.0137 95.157 56.6105 80.2842 56.6105C65.4115 56.6105 61.6104 61.0137 61.6104 75.1519C61.6104 89.2902 65.4115 93.6934 80.2842 93.6934C95.157 93.6934 98.9581 89.2902 98.9581 75.1519Z" fill="#FFE3B8"/>
<path d="M98.9732 75.3767C98.9732 61.3882 95.2173 57.0299 80.4954 57.0299C65.7735 57.0299 62.0176 61.3882 62.0176 75.3767C62.0176 89.3652 65.7735 93.7235 80.4954 93.7235C95.2173 93.7235 98.9732 89.3652 98.9732 75.3767Z" fill="#FFE2B5"/>
<path d="M99.0038 75.5863C99.0038 61.7476 95.2781 57.4342 80.7221 57.4342C66.1662 57.4342 62.4404 61.7476 62.4404 75.5863C62.4404 89.425 66.1662 93.7383 80.7221 93.7383C95.2781 93.7383 99.0038 89.425 99.0038 75.5863Z" fill="#FFE1B2"/>
<path d="M99.0335 75.811C99.0335 62.1071 95.3531 57.8536 80.9479 57.8536C66.5428 57.8536 62.8623 62.1221 62.8623 75.811C62.8623 89.5 66.5428 93.7684 80.9479 93.7684C95.3531 93.7684 99.0335 89.5 99.0335 75.811Z" fill="#FFDFAF"/>
<path d="M99.0642 76.0356C99.0642 62.4815 95.429 58.2729 81.1747 58.2729C66.9204 58.2729 63.2852 62.4815 63.2852 76.0356C63.2852 89.5898 66.9204 93.7983 81.1747 93.7983C95.429 93.7983 99.0642 89.5748 99.0642 76.0356Z" fill="#FFDEAD"/>
<path d="M99.0939 76.2453C99.0939 62.841 95.4888 58.6774 81.4005 58.6774C67.3121 58.6774 63.707 62.841 63.707 76.2453C63.707 89.6497 67.3121 93.8133 81.4005 93.8133C95.4888 93.8133 99.0939 89.6497 99.0939 76.2453Z" fill="#FFDDAA"/>
<path d="M99.1245 76.4699C99.1245 63.2153 95.5647 59.0817 81.612 59.0817C67.6594 59.0817 64.0996 63.2003 64.0996 76.4699C64.0996 89.7395 67.6594 93.8582 81.612 93.8582C95.5647 93.8582 99.1245 89.7395 99.1245 76.4699Z" fill="#FFDCA7"/>
<path d="M99.1395 76.6946C99.1395 63.5898 95.625 59.5011 81.8232 59.5011C68.0214 59.5011 64.5068 63.5748 64.5068 76.6946C64.5068 89.8145 68.0214 93.8882 81.8232 93.8882C95.625 93.8882 99.1395 89.8145 99.1395 76.6946Z" fill="#FFDAA5"/>
<path d="M99.1692 76.9042C99.1692 63.9342 95.6848 59.9054 82.049 59.9054C68.4131 59.9054 64.9287 63.9342 64.9287 76.9042C64.9287 89.8743 68.4131 93.9031 82.049 93.9031C95.6848 93.9031 99.1692 89.8743 99.1692 76.9042Z" fill="#FFD9A2"/>
</g>
<g style="mix-blend-mode:screen">
<path d="M86.6046 63.4101C86.6046 47.3099 84.3118 44.4642 63.0435 44.4642C41.7752 44.4642 39.4824 47.3099 39.4824 63.4101C39.4824 79.5103 41.7752 82.3559 63.0435 82.3559C84.3118 82.3559 86.6046 79.5103 86.6046 63.4101Z" fill="#C49A6E"/>
<path opacity="0.96" d="M86.2281 63.0207C86.2281 46.9205 83.9353 44.0748 62.667 44.0748C41.3987 44.0748 39.0908 46.9354 39.0908 63.0207C39.0908 79.1059 41.3836 81.9665 62.6519 81.9665C83.9202 81.9665 86.213 79.1209 86.213 63.0207H86.2281Z" fill="#B89067"/>
<path opacity="0.93" d="M85.8355 62.6462C85.8355 46.5459 83.5427 43.7003 62.2744 43.7003C41.0061 43.7003 38.6982 46.5459 38.6982 62.6462C38.6982 78.7464 40.991 81.592 62.2593 81.592C83.5276 81.592 85.8204 78.7464 85.8204 62.6462H85.8355Z" fill="#AC8760"/>
<path opacity="0.89" d="M85.4585 62.2718C85.4585 46.1715 83.1658 43.3259 61.8975 43.3259C40.6291 43.3259 38.3213 46.1715 38.3213 62.2718C38.3213 78.372 40.614 81.2176 61.8824 81.2176C83.1507 81.2176 85.4435 78.372 85.4435 62.2718H85.4585Z" fill="#9F7D59"/>
<path opacity="0.85" d="M85.0816 61.8824C85.0816 45.7821 82.7888 42.9365 61.5205 42.9365C40.2522 42.9365 37.9443 45.7971 37.9443 61.8824C37.9443 77.9676 40.2371 80.8282 61.5054 80.8282C82.7737 80.8282 85.0665 77.9826 85.0665 61.8824H85.0816Z" fill="#937353"/>
<path opacity="0.81" d="M84.689 61.508C84.689 45.4078 82.3962 42.5621 61.1279 42.5621C39.8596 42.5621 37.5518 45.4078 37.5518 61.508C37.5518 77.6082 39.8445 80.4538 61.1128 80.4538C82.3812 80.4538 84.6739 77.6082 84.6739 61.508H84.689Z" fill="#876A4C"/>
<path opacity="0.78" d="M84.312 61.1186C84.312 45.0184 82.0193 42.1727 60.7359 42.1727C39.4525 42.1727 37.1748 45.0333 37.1748 61.1186C37.1748 77.2038 39.4676 80.0644 60.7359 80.0644C82.0042 80.0644 84.312 77.2188 84.312 61.1186Z" fill="#7B6045"/>
<path opacity="0.74" d="M83.9351 60.7442C83.9351 44.644 81.6423 41.7983 60.374 41.7983C39.1057 41.7983 36.7979 44.644 36.7979 60.7442C36.7979 76.8444 39.0906 79.69 60.3589 79.69C81.6273 79.69 83.92 76.8444 83.92 60.7442H83.9351Z" fill="#6E573E"/>
<path opacity="0.7" d="M83.5435 60.3697C83.5435 44.2695 81.2507 41.4238 59.9824 41.4238C38.7141 41.4238 36.4062 44.2695 36.4062 60.3697C36.4062 76.4699 38.699 79.3155 59.9673 79.3155C81.2357 79.3155 83.5284 76.4699 83.5284 60.3697H83.5435Z" fill="#624D37"/>
<path opacity="0.66" d="M83.1656 59.9803C83.1656 43.88 80.8728 41.0344 59.6045 41.0344C38.3362 41.0344 36.0283 43.895 36.0283 59.9803C36.0283 76.0655 38.3211 78.9261 59.5894 78.9261C80.8577 78.9261 83.1505 76.0805 83.1505 59.9803H83.1656Z" fill="#564330"/>
<path opacity="0.62" d="M82.774 59.6059C82.774 43.5057 80.4812 40.66 59.2129 40.66C37.9446 40.66 35.6367 43.5057 35.6367 59.6059C35.6367 75.7061 37.9295 78.5517 59.1978 78.5517C80.4661 78.5517 82.7589 75.7061 82.7589 59.6059H82.774Z" fill="#4A3A29"/>
<path opacity="0.59" d="M82.397 59.2315C82.397 43.1313 80.1043 40.2856 58.8359 40.2856C37.5676 40.2856 35.2598 43.1313 35.2598 59.2315C35.2598 75.3317 37.5525 78.1773 58.8208 78.1773C80.0892 78.1773 82.3819 75.3317 82.3819 59.2315H82.397Z" fill="#3D3022"/>
<path opacity="0.55" d="M82.0191 58.8421C82.0191 42.7419 79.7263 39.8962 58.458 39.8962C37.1897 39.8962 34.8818 42.7419 34.8818 58.8421C34.8818 74.9423 37.1746 77.7879 58.4429 77.7879C79.7112 77.7879 82.004 74.9423 82.004 58.8421H82.0191Z" fill="#31271C"/>
<path opacity="0.51" d="M81.6275 58.4677C81.6275 42.3675 79.3347 39.5219 58.0664 39.5219C36.7981 39.5219 34.4902 42.3675 34.4902 58.4677C34.4902 74.5679 36.783 77.4136 58.0513 77.4136C79.3196 77.4136 81.6124 74.5679 81.6124 58.4677H81.6275Z" fill="#251D15"/>
<path opacity="0.48" d="M81.2505 58.0783C81.2505 41.9781 78.9578 39.1324 57.6894 39.1324C36.4211 39.1324 34.1133 41.993 34.1133 58.0783C34.1133 74.1636 36.406 77.0242 57.6744 77.0242C78.9427 77.0242 81.2354 74.1785 81.2354 58.0783H81.2505Z" fill="#19130E"/>
<path opacity="0.44" d="M80.8579 57.7038C80.8579 41.6036 78.5652 38.7579 57.2969 38.7579C36.0285 38.7579 33.7207 41.6036 33.7207 57.7038C33.7207 73.804 36.0135 76.6496 57.2818 76.6496C78.5501 76.6496 80.8429 73.804 80.8429 57.7038H80.8579Z" fill="#0C0A07"/>
<path opacity="0.4" d="M80.481 57.3294C80.481 41.2292 78.1882 38.3835 56.9048 38.3835C35.6214 38.3835 33.3438 41.2292 33.3438 57.3294C33.3438 73.4296 35.6365 76.2752 56.9048 76.2752C78.1732 76.2752 80.4659 73.4296 80.4659 57.3294H80.481Z" fill="black"/>
</g>
<g style="mix-blend-mode:screen">
<path d="M86.6046 63.4101C86.6046 47.3099 84.3118 44.4642 63.0435 44.4642C41.7752 44.4642 39.4824 47.3099 39.4824 63.4101C39.4824 79.5103 41.7752 82.3559 63.0435 82.3559C84.3118 82.3559 86.6046 79.5103 86.6046 63.4101Z" fill="#C49A6E"/>
<path opacity="0.96" d="M86.6954 63.5C86.6954 47.4297 84.4026 44.5841 63.1343 44.5841C41.866 44.5841 39.5732 47.4297 39.5732 63.5C39.5732 79.5703 41.866 82.4159 63.1343 82.4159C84.4026 82.4159 86.6954 79.5703 86.6954 63.5Z" fill="#B89067"/>
<path opacity="0.93" d="M86.7854 63.6048C86.7854 47.5495 84.4926 44.7189 63.2394 44.7189C41.9861 44.7189 39.6934 47.5495 39.6934 63.6048C39.6934 79.6601 41.9861 82.4908 63.2394 82.4908C84.4926 82.4908 86.7854 79.6601 86.7854 63.6048Z" fill="#AC8760"/>
<path opacity="0.89" d="M86.8762 63.6946C86.8762 47.6693 84.5834 44.8386 63.3302 44.8386C42.0769 44.8386 39.7842 47.6693 39.7842 63.6946C39.7842 79.72 42.0769 82.5506 63.3302 82.5506C84.5834 82.5506 86.8762 79.72 86.8762 63.6946Z" fill="#9F7D59"/>
<path opacity="0.85" d="M86.9817 63.7845C86.9817 47.7741 84.689 44.9435 63.4508 44.9435C42.2127 44.9435 39.9199 47.7741 39.9199 63.7845C39.9199 79.7949 42.2127 82.6255 63.4508 82.6255C84.689 82.6255 86.9817 79.7949 86.9817 63.7845Z" fill="#937353"/>
<path opacity="0.81" d="M87.0726 63.8893C87.0726 47.9089 84.7798 45.0782 63.5417 45.0782C42.3035 45.0782 40.0107 47.9089 40.0107 63.8893C40.0107 79.8697 42.3035 82.7004 63.5417 82.7004C84.7798 82.7004 87.0726 79.8697 87.0726 63.8893Z" fill="#876A4C"/>
<path opacity="0.78" d="M87.1625 63.9792C87.1625 48.0138 84.8698 45.1981 63.6467 45.1981C42.4236 45.1981 40.1309 48.0138 40.1309 63.9792C40.1309 79.9447 42.4236 82.7603 63.6467 82.7603C84.8698 82.7603 87.1625 79.9447 87.1625 63.9792Z" fill="#7B6045"/>
<path opacity="0.74" d="M87.2533 64.084C87.2533 48.1486 84.9606 45.3329 63.7375 45.3329C42.5144 45.3329 40.2217 48.1486 40.2217 64.084C40.2217 80.0195 42.5144 82.8352 63.7375 82.8352C84.9606 82.8352 87.2533 80.0195 87.2533 64.084Z" fill="#6E573E"/>
<path opacity="0.7" d="M87.3433 64.1739C87.3433 48.2534 85.0505 45.4377 63.8425 45.4377C42.6346 45.4377 40.3418 48.2534 40.3418 64.1739C40.3418 80.0944 42.6346 82.9101 63.8425 82.9101C85.0505 82.9101 87.3433 80.0944 87.3433 64.1739Z" fill="#624D37"/>
<path opacity="0.66" d="M87.4342 64.2637C87.4342 48.3732 85.1415 45.5575 63.9486 45.5575C42.7556 45.5575 40.4629 48.3732 40.4629 64.2637C40.4629 80.1543 42.7556 82.9699 63.9486 82.9699C85.1415 82.9699 87.4342 80.1543 87.4342 64.2637Z" fill="#564330"/>
<path opacity="0.62" d="M87.525 64.3687C87.525 48.4931 85.2323 45.6924 64.0394 45.6924C42.8465 45.6924 40.5537 48.4931 40.5537 64.3687C40.5537 80.2442 42.8465 83.0449 64.0394 83.0449C85.2323 83.0449 87.525 80.2442 87.525 64.3687Z" fill="#4A3A29"/>
<path opacity="0.59" d="M87.615 64.4584C87.615 48.6128 85.3222 45.8121 64.1444 45.8121C42.9666 45.8121 40.6738 48.6128 40.6738 64.4584C40.6738 80.3041 42.9666 83.1048 64.1444 83.1048C85.3222 83.1048 87.615 80.3041 87.615 64.4584Z" fill="#3D3022"/>
<path opacity="0.55" d="M87.7058 64.5633C87.7058 48.7327 85.413 45.932 64.2352 45.932C43.0574 45.932 40.7646 48.7327 40.7646 64.5633C40.7646 80.394 43.0574 83.1947 64.2352 83.1947C85.413 83.1947 87.7058 80.394 87.7058 64.5633Z" fill="#31271C"/>
<path opacity="0.51" d="M87.7957 64.6531C87.7957 48.8525 85.503 46.0518 64.3403 46.0518C43.1775 46.0518 40.8848 48.8375 40.8848 64.6531C40.8848 80.4688 43.1775 83.2545 64.3403 83.2545C85.503 83.2545 87.7957 80.4688 87.7957 64.6531Z" fill="#251D15"/>
<path opacity="0.48" d="M87.8866 64.7431C87.8866 48.9573 85.6089 46.1716 64.4311 46.1716C43.2533 46.1716 40.9756 48.9573 40.9756 64.7431C40.9756 80.5288 43.2533 83.3145 64.4311 83.3145C85.6089 83.3145 87.8866 80.5288 87.8866 64.7431Z" fill="#19130E"/>
<path opacity="0.44" d="M87.9775 64.8479C87.9775 49.0921 85.6998 46.3064 64.5371 46.3064C43.3744 46.3064 41.0967 49.0921 41.0967 64.8479C41.0967 80.6036 43.3744 83.3893 64.5371 83.3893C85.6998 83.3893 87.9775 80.6036 87.9775 64.8479Z" fill="#0C0A07"/>
<path opacity="0.4" d="M88.0674 64.9377C88.0674 49.197 85.7898 46.4113 64.6421 46.4113C43.4945 46.4113 41.2168 49.197 41.2168 64.9377C41.2168 80.6785 43.4945 83.4642 64.6421 83.4642C85.7898 83.4642 88.0674 80.6785 88.0674 64.9377Z" fill="black"/>
</g>
</g>
<g style="mix-blend-mode:multiply">
<path opacity="0.4" d="M63.4814 75.7661C63.059 75.7661 62.335 75.5564 61.973 75.3018L43.993 61.2534C43.103 60.5944 43.0427 58.3928 43.7064 57.5092C44.3701 56.6255 46.3159 56.8502 47.2058 57.5092L62.7875 68.7718L80.7676 55.7868C82.3664 54.8582 84.4782 55.3375 85.2324 56.1612C86.3637 57.4043 86.0469 59.2765 84.9156 60.2799L65.563 75.3767C65.2009 75.6463 63.9188 75.7511 63.4965 75.7511L63.4814 75.7661Z" fill="white"/>
<path opacity="0.44" d="M63.4811 75.4965C63.0588 75.4965 62.3649 75.3018 62.0029 75.0322L44.2039 61.1785C43.3139 60.5195 43.2536 58.3928 43.9173 57.5241C44.581 56.6405 46.4514 56.8501 47.3414 57.5091L62.8175 68.7119L80.5411 55.8916C82.0947 54.978 84.131 55.4423 84.8701 56.266C85.9713 57.4792 85.6545 59.3064 84.5534 60.2799L65.4722 75.137C65.1253 75.3916 63.8884 75.5114 63.4661 75.5114L63.4811 75.4965Z" fill="#FEFDFB"/>
<path opacity="0.48" d="M63.4667 75.227C63.0444 75.227 62.3656 75.0323 62.0187 74.7777L44.4158 61.1037C43.5409 60.4597 43.4655 58.4078 44.1292 57.5392C44.7778 56.6705 46.6029 56.8502 47.4929 57.4942L62.8634 68.6371L80.3456 55.9816C81.839 55.0979 83.8149 55.5323 84.539 56.356C85.5948 57.5392 85.3083 59.3065 84.2222 60.25L65.4126 74.8525C65.0656 75.1072 63.8891 75.227 63.4667 75.227Z" fill="#FEFBF8"/>
<path opacity="0.51" d="M63.4658 74.9723C63.0586 74.9723 62.3949 74.7926 62.048 74.523L44.626 61.0438C43.7662 60.3998 43.6908 58.4228 44.3243 57.5541C44.973 56.7004 46.7378 56.8502 47.6126 57.4942L62.8927 68.5772L80.1185 56.0864C81.5665 55.2177 83.4671 55.6521 84.1911 56.4608C85.2168 57.614 84.9303 59.3364 83.8744 60.25L65.3362 74.5979C64.9893 74.8525 63.8731 74.9574 63.4658 74.9574V74.9723Z" fill="#FDF9F4"/>
<path opacity="0.55" d="M63.4515 74.7027C63.0442 74.7027 62.4107 74.523 62.0638 74.2684L44.8379 60.9688C43.9782 60.3398 43.9027 58.4228 44.5363 57.5691C45.1698 56.7154 46.8894 56.8502 47.7491 57.4942L62.9236 68.5322L79.893 56.2062C81.2807 55.3675 83.136 55.7718 83.8299 56.5656C84.8103 57.6889 84.5388 59.3513 83.5131 60.2499L65.2465 74.3433C64.8995 74.5979 63.8437 74.7027 63.4364 74.7027H63.4515Z" fill="#FDF7F0"/>
<path opacity="0.59" d="M63.4513 74.4332C63.044 74.4332 62.4407 74.2535 62.0937 74.0138L45.0489 60.894C44.2042 60.265 44.1137 58.4228 44.7472 57.5841C45.3808 56.7454 47.04 56.8502 47.8998 57.4793L62.9837 68.4574L79.7118 56.2961C81.0542 55.4723 82.8341 55.8617 83.5129 56.6555C84.4632 57.7488 84.2068 59.3664 83.1961 60.22L65.201 74.0737C64.8541 74.3283 63.8586 74.4332 63.4664 74.4332H63.4513Z" fill="#FCF4ED"/>
<path opacity="0.62" d="M63.4511 74.1785C63.0589 74.1785 62.4706 74.0138 62.1237 73.7591L45.2599 60.819C44.4152 60.19 44.3247 58.4377 44.9582 57.599C45.5917 56.7603 47.1906 56.8502 48.0353 57.4792L63.0136 68.3974L79.4853 56.4008C80.7674 55.6071 82.487 55.9665 83.1657 56.7603C84.0859 57.8237 83.8294 59.3813 82.8339 60.22L65.1103 73.819C64.7784 74.0737 63.8282 74.1785 63.436 74.1785H63.4511Z" fill="#FBF2E9"/>
<path opacity="0.66" d="M63.4357 73.9089C63.0435 73.9089 62.4703 73.7442 62.1385 73.5045L45.4708 60.7592C44.6411 60.1451 44.5356 58.4527 45.154 57.629C45.7724 56.8052 47.3261 56.8651 48.1557 57.4792L63.0284 68.3375L79.2587 56.5057C80.4956 55.7419 82.1398 56.0863 82.8035 56.8651C83.6783 57.8986 83.437 59.4112 82.4716 60.205L65.0195 73.5495C64.6877 73.7891 63.7977 73.9089 63.4055 73.9089H63.4357Z" fill="#FBF0E5"/>
<path opacity="0.7" d="M63.4361 73.6394C63.0439 73.6394 62.5009 73.4746 62.1691 73.235L45.6824 60.6693C44.8678 60.0553 44.7622 58.4378 45.3656 57.614C45.984 56.7903 47.4773 56.8352 48.307 57.4493L63.0892 68.2477L79.0631 56.5806C80.2396 55.8318 81.8234 56.1613 82.472 56.9401C83.3167 57.9435 83.0754 59.3963 82.1402 60.1751L64.9596 73.2799C64.6278 73.5195 63.8132 73.6394 63.421 73.6394H63.4361Z" fill="#FAEEE2"/>
<path opacity="0.74" d="M63.4213 73.3847C63.0292 73.3847 62.5163 73.2349 62.1995 72.9953L45.9089 60.6094C45.0944 60.0103 44.9888 58.4527 45.5922 57.6439C46.1955 56.8352 47.6436 56.8501 48.4581 57.4492L63.1347 68.1877L78.8673 56.6854C79.9835 55.9665 81.507 56.266 82.1556 57.0448C82.955 58.0183 82.7438 59.4262 81.8237 60.175L64.9147 73.0253C64.5828 73.2649 63.8286 73.3697 63.4364 73.3697L63.4213 73.3847Z" fill="#F9ECDE"/>
<path opacity="0.78" d="M63.4213 73.1151C63.0442 73.1151 62.5464 72.9653 62.2297 72.7257L46.1201 60.5195C45.3206 59.9204 45.1999 58.4377 45.8033 57.6439C46.4066 56.8501 47.7944 56.8352 48.5938 57.4342L63.18 68.1278L78.6561 56.7902C79.727 56.0863 81.1751 56.3709 81.8086 57.1497C82.5779 58.0932 82.3667 59.4411 81.4768 60.16L64.8543 72.7557C64.5375 72.9953 63.8286 73.1001 63.4515 73.1001L63.4213 73.1151Z" fill="#F9EADA"/>
<path opacity="0.81" d="M63.4211 72.8456C63.044 72.8456 62.5764 72.7108 62.2596 72.4712L46.331 60.4597C45.5315 59.8756 45.4109 58.4677 45.9991 57.674C46.5874 56.8802 47.9299 56.8502 48.7293 57.4343L63.2099 68.068L78.4447 56.8952C79.4553 56.2212 80.843 56.4758 81.4614 57.2546C82.2006 58.1532 81.9894 59.4712 81.1296 60.1601L64.7786 72.5012C64.4619 72.7408 63.8133 72.8456 63.4362 72.8456H63.4211Z" fill="#F8E8D6"/>
<path opacity="0.85" d="M63.406 72.576C63.029 72.576 62.5915 72.4412 62.2748 72.2015L46.5422 60.3697C45.7579 59.7856 45.6221 58.4527 46.2104 57.6739C46.7987 56.8951 48.0808 56.8352 48.8652 57.4193L63.2401 67.993L78.2185 56.9849C79.1838 56.3409 80.4961 56.5806 81.1146 57.3294C81.8084 58.1981 81.6274 59.4561 80.7827 60.1301L64.7033 72.2315C64.3865 72.4711 63.7982 72.576 63.4211 72.576H63.406Z" fill="#F8E6D3"/>
<path opacity="0.89" d="M63.4062 72.3214C63.0441 72.3214 62.6067 72.1867 62.305 71.962L46.7535 60.3099C45.9842 59.7408 45.8334 58.4678 46.4217 57.689C46.9949 56.9102 48.2167 56.8353 49.001 57.4044L63.2855 67.9182L78.0225 57.0749C78.9275 56.4459 80.1795 56.6705 80.7828 57.4194C81.4465 58.2581 81.2655 59.4712 80.4359 60.1002L64.628 71.947C64.3112 72.1717 63.7833 72.2915 63.4212 72.2915L63.4062 72.3214Z" fill="#F7E3CF"/>
<path opacity="0.93" d="M63.3907 72.0518C63.0287 72.0518 62.6214 71.932 62.3197 71.7073L46.9492 60.25C46.1799 59.6808 46.0442 58.4827 46.6174 57.7188C47.1906 56.955 48.352 56.8502 49.1213 57.4193L63.3002 67.8732L77.7807 57.1947C78.6405 56.5956 79.8322 56.7903 80.4053 57.5391C81.0389 58.3479 80.8579 59.5011 80.0584 60.1152L64.522 71.7073C64.2203 71.932 63.7376 72.0518 63.3756 72.0518H63.3907Z" fill="#F6E1CB"/>
<path opacity="0.96" d="M63.3906 71.7822C63.0286 71.7822 62.6515 71.6624 62.3498 71.4378L47.1754 60.1601C46.4212 59.606 46.2703 58.4677 46.8284 57.7189C47.3866 56.97 48.5028 56.8352 49.272 57.4044L63.3604 67.8133L77.5846 57.2995C78.384 56.7154 79.5153 56.8951 80.0885 57.644C80.6768 58.4228 80.5108 59.5311 79.7416 60.1002L64.4766 71.4378C64.175 71.6624 63.7526 71.7673 63.4057 71.7673L63.3906 71.7822Z" fill="#F6DFC8"/>
<path d="M63.3913 71.5276C63.0293 71.5276 62.6824 71.4227 62.3807 71.1981L47.3873 60.1002C46.6331 59.546 46.4823 58.4976 47.0404 57.7488C47.5985 56.9999 48.6543 56.8502 49.4085 57.4043L63.3913 67.7534L77.3741 57.4043C78.1283 56.8502 79.1842 56.9999 79.7423 57.7488C80.3004 58.4976 80.1496 59.546 79.3954 60.1002L64.402 71.1981C64.1003 71.4227 63.7533 71.5276 63.3913 71.5276Z" fill="#F5DDC4"/>
</g>
<path d="M46.3457 57.0449L63.0436 69.4009L79.7415 57.0449" stroke="white" stroke-width="2.5" stroke-linecap="round" stroke-linejoin="round"/>
<mask id="mask1_1776_4182" style="mask-type:luminance" maskUnits="userSpaceOnUse" x="44" y="55" width="38" height="17">
<path d="M63.0435 71.2731C62.6514 71.2731 62.2441 71.1533 61.9122 70.8986L45.2143 58.5427C44.3847 57.9286 44.2037 56.7454 44.8222 55.9217C45.4406 55.098 46.6322 54.9182 47.4618 55.5323L63.0285 67.0496L78.5951 55.5323C79.4247 54.9182 80.6163 55.083 81.2347 55.9217C81.8532 56.7454 81.6873 57.9286 80.8576 58.5427L64.1597 70.8986C63.8279 71.1533 63.4357 71.2731 63.0285 71.2731H63.0435Z" fill="white"/>
</mask>
<g mask="url(#mask1_1776_4182)">
<g style="mix-blend-mode:multiply">
<path d="M104.343 76.8894C104.343 56.6855 98.9132 50.3951 77.66 50.3951C56.4068 50.3951 50.9766 56.6855 50.9766 76.8894C50.9766 97.0933 56.4068 103.384 77.66 103.384C98.9132 103.384 104.343 97.0933 104.343 76.8894Z" fill="white"/>
<path d="M103.996 77.0392C103.996 57.2097 98.6717 51.0392 77.8107 51.0392C56.9496 51.0392 51.625 57.2097 51.625 77.0392C51.625 96.8687 56.9496 103.039 77.8107 103.039C98.6717 103.039 103.996 96.8687 103.996 77.0392Z" fill="#FFFFFE"/>
<path d="M103.649 77.1889C103.649 57.7338 98.4302 51.6831 77.9613 51.6831C57.4925 51.6831 52.2734 57.7338 52.2734 77.1889C52.2734 96.6439 57.4925 102.695 77.9613 102.695C98.4302 102.695 103.649 96.6439 103.649 77.1889Z" fill="#FFFEFD"/>
<path d="M103.288 77.3237C103.288 58.258 98.1595 52.3121 78.0979 52.3121C58.0363 52.3121 52.9229 58.243 52.9229 77.3237C52.9229 96.4043 58.0514 102.335 78.0979 102.335C98.1444 102.335 103.288 96.4043 103.288 77.3237Z" fill="#FFFEFC"/>
<path d="M102.941 77.4735C102.941 58.7823 97.9176 52.9712 78.2632 52.9712C58.6089 52.9712 53.5859 58.7823 53.5859 77.4735C53.5859 96.1647 58.6089 101.976 78.2632 101.976C97.9176 101.976 102.941 96.1647 102.941 77.4735Z" fill="#FFFDFB"/>
<path d="M102.593 77.6233C102.593 59.3065 97.6761 53.6152 78.4139 53.6152C59.1517 53.6152 54.2344 59.3065 54.2344 77.6233C54.2344 95.9401 59.1517 101.631 78.4139 101.631C97.6761 101.631 102.593 95.9401 102.593 77.6233Z" fill="#FFFDFA"/>
<path d="M102.246 77.773C102.246 59.8306 97.4345 54.2592 78.5646 54.2592C59.6946 54.2592 54.8828 59.8456 54.8828 77.773C54.8828 95.7004 59.6946 101.287 78.5646 101.287C97.4345 101.287 102.246 95.7004 102.246 77.773Z" fill="#FFFCF9"/>
<path d="M101.885 77.9228C101.885 60.3698 97.1633 54.9032 78.7006 54.9032C60.2379 54.9032 55.5166 60.3698 55.5166 77.9228C55.5166 95.4758 60.2379 100.942 78.7006 100.942C97.1633 100.942 101.885 95.4758 101.885 77.9228Z" fill="#FFFCF8"/>
<path d="M101.537 78.0726C101.537 60.894 96.9218 55.5472 78.8513 55.5472C60.7807 55.5472 56.165 60.894 56.165 78.0726C56.165 95.2512 60.7807 100.598 78.8513 100.598C96.9218 100.598 101.537 95.2512 101.537 78.0726Z" fill="#FFFCF7"/>
<path d="M101.191 78.2224C101.191 61.4182 96.6813 56.1913 79.0029 56.1913C61.3245 56.1913 56.8145 61.4182 56.8145 78.2224C56.8145 95.0265 61.3245 100.253 79.0029 100.253C96.6813 100.253 101.191 95.0265 101.191 78.2224Z" fill="#FEFBF5"/>
<path d="M100.844 78.3572C100.844 61.9424 96.4397 56.8203 79.1536 56.8203C61.8674 56.8203 57.4629 61.9275 57.4629 78.3572C57.4629 94.7869 61.8674 99.894 79.1536 99.894C96.4397 99.894 100.844 94.7869 100.844 78.3572Z" fill="#FEFBF4"/>
<path d="M100.482 78.5069C100.482 62.4666 96.1676 57.4792 79.3038 57.4792C62.44 57.4792 58.126 62.4666 58.126 78.5069C58.126 94.5472 62.44 99.5345 79.3038 99.5345C96.1676 99.5345 100.482 94.5472 100.482 78.5069Z" fill="#FEFAF3"/>
<path d="M100.135 78.6567C100.135 62.9908 95.9271 58.1233 79.4554 58.1233C62.9838 58.1233 58.7754 62.9908 58.7754 78.6567C58.7754 94.3226 62.9838 99.1901 79.4554 99.1901C95.9271 99.1901 100.135 94.3226 100.135 78.6567Z" fill="#FEFAF2"/>
<path d="M99.7884 78.8064C99.7884 63.5149 95.6856 58.7672 79.6061 58.7672C63.5267 58.7672 59.4238 63.5299 59.4238 78.8064C59.4238 94.0829 63.5267 98.8455 79.6061 98.8455C95.6856 98.8455 99.7884 94.0829 99.7884 78.8064Z" fill="#FEF9F1"/>
<path d="M99.4257 78.9562C99.4257 64.0541 95.4284 59.4113 79.7412 59.4113C64.0539 59.4113 60.0566 64.0541 60.0566 78.9562C60.0566 93.8583 64.0539 98.5011 79.7412 98.5011C95.4284 98.5011 99.4257 93.8583 99.4257 78.9562Z" fill="#FEF9F0"/>
<path d="M99.0795 79.106C99.0795 64.5783 95.1728 60.0553 79.8928 60.0553C64.6128 60.0553 60.7061 64.5783 60.7061 79.106C60.7061 93.6336 64.6128 98.1567 79.8928 98.1567C95.1728 98.1567 99.0795 93.6336 99.0795 79.106Z" fill="#FEF8EF"/>
<path d="M98.7324 79.2558C98.7324 65.1026 94.9313 60.6993 80.0435 60.6993C65.1556 60.6993 61.3545 65.1026 61.3545 79.2558C61.3545 93.409 65.1556 97.8122 80.0435 97.8122C94.9313 97.8122 98.7324 93.409 98.7324 79.2558Z" fill="#FEF8EE"/>
<path d="M98.6719 79.5553C98.6719 65.6268 94.9311 61.2834 80.2696 61.2834C65.608 61.2834 61.8672 65.6118 61.8672 79.5553C61.8672 93.4989 65.608 97.8272 80.2696 97.8272C94.9311 97.8272 98.6719 93.4989 98.6719 79.5553Z" fill="#FEF8ED"/>
<path d="M98.6115 79.8698C98.6115 66.1509 94.931 61.8824 80.4957 61.8824C66.0604 61.8824 62.3799 66.1509 62.3799 79.8698C62.3799 93.5887 66.0604 97.8571 80.4957 97.8571C94.931 97.8571 98.6115 93.5887 98.6115 79.8698Z" fill="#FEF7EC"/>
<path d="M98.5363 80.1843C98.5363 66.6751 94.9162 62.4816 80.7071 62.4816C66.4981 62.4816 62.8779 66.6901 62.8779 80.1843C62.8779 93.6786 66.4981 97.8871 80.7071 97.8871C94.9162 97.8871 98.5363 93.6786 98.5363 80.1843Z" fill="#FEF7EB"/>
<path d="M98.4758 80.4839C98.4758 67.1993 94.9009 63.0657 80.9332 63.0657C66.9655 63.0657 63.3906 67.1993 63.3906 80.4839C63.3906 93.7684 66.9655 97.9021 80.9332 97.9021C94.9009 97.9021 98.4758 93.7684 98.4758 80.4839Z" fill="#FEF6EA"/>
<path d="M98.4153 80.7983C98.4153 67.7234 94.9008 63.6647 81.1593 63.6647C67.4179 63.6647 63.9033 67.7384 63.9033 80.7983C63.9033 93.8582 67.4179 97.9319 81.1593 97.9319C94.9008 97.9319 98.4153 93.8582 98.4153 80.7983Z" fill="#FEF6E9"/>
<path d="M98.3553 81.1128C98.3553 68.2626 94.901 64.2488 81.3708 64.2488C67.8405 64.2488 64.4014 68.2476 64.4014 81.1128C64.4014 93.978 67.8556 97.9619 81.3708 97.9619C94.886 97.9619 98.3553 93.9631 98.3553 81.1128Z" fill="#FEF5E8"/>
<path d="M98.2952 81.4124C98.2952 68.7718 94.9013 64.8329 81.5973 64.8329C68.2933 64.8329 64.8994 68.7718 64.8994 81.4124C64.8994 94.0529 68.2933 97.9919 81.5973 97.9919C94.9013 97.9919 98.2952 94.0529 98.2952 81.4124Z" fill="#FEF5E7"/>
<path d="M98.2191 81.7269C98.2191 69.2961 94.8855 65.432 81.8078 65.432C68.73 65.432 65.3965 69.2961 65.3965 81.7269C65.3965 94.1578 68.73 98.0219 81.8078 98.0219C94.8855 98.0219 98.2191 94.1578 98.2191 81.7269Z" fill="#FEF4E7"/>
<path d="M98.1586 82.0415C98.1586 69.8353 94.8854 66.0311 82.0339 66.0311C69.1824 66.0311 65.9092 69.8353 65.9092 82.0415C65.9092 94.2477 69.1824 98.0519 82.0339 98.0519C94.8854 98.0519 98.1586 94.2477 98.1586 82.0415Z" fill="#FDF4E6"/>
<path d="M98.0991 82.3559C98.0991 70.3594 94.8711 66.6301 82.261 66.6301C69.6508 66.6301 66.4229 70.3594 66.4229 82.3559C66.4229 94.3525 69.6508 98.0817 82.261 98.0817C94.8711 98.0817 98.0991 94.3525 98.0991 82.3559Z" fill="#FDF4E5"/>
<path d="M98.0386 82.6555C98.0386 70.8836 94.871 67.2142 82.4871 67.2142C70.1032 67.2142 66.9355 70.8836 66.9355 82.6555C66.9355 94.4274 70.1032 98.0967 82.4871 98.0967C94.871 98.0967 98.0386 94.4274 98.0386 82.6555Z" fill="#FDF3E4"/>
<path d="M97.9781 82.97C97.9781 71.4078 94.8708 67.8134 82.7132 67.8134C70.5555 67.8134 67.4482 71.4078 67.4482 82.97C67.4482 94.5323 70.5555 98.1267 82.7132 98.1267C94.8708 98.1267 97.9781 94.5323 97.9781 82.97Z" fill="#FDF3E3"/>
<path d="M97.903 83.2846C97.903 71.9321 94.856 68.4125 82.9246 68.4125C70.9932 68.4125 67.9463 71.947 67.9463 83.2846C67.9463 94.6222 70.9932 98.1567 82.9246 98.1567C94.856 98.1567 97.903 94.6222 97.903 83.2846Z" fill="#FDF2E2"/>
<path d="M97.8425 83.5841C97.8425 72.4563 94.8558 68.9966 83.1507 68.9966C71.4456 68.9966 68.459 72.4563 68.459 83.5841C68.459 94.712 71.4456 98.1867 83.1507 98.1867C94.8558 98.1867 97.8425 94.727 97.8425 83.5841Z" fill="#FDF2E1"/>
<path d="M97.7819 83.8985C97.7819 72.9803 94.8556 69.5806 83.3616 69.5806C71.8677 69.5806 68.9414 72.9803 68.9414 83.8985C68.9414 94.8167 71.8677 98.2165 83.3616 98.2165C94.8556 98.2165 97.7819 94.8167 97.7819 83.8985Z" fill="#FDF1E0"/>
<path d="M97.7214 84.2131C97.7214 73.5196 94.8403 70.1797 83.5877 70.1797C72.3351 70.1797 69.4541 73.5046 69.4541 84.2131C69.4541 94.9216 72.3351 98.2465 83.5877 98.2465C94.8403 98.2465 97.7214 94.9216 97.7214 84.2131Z" fill="#FDF1DF"/>
</g>
</g>
</g>
<g style="mix-blend-mode:hue" filter="url(#filter2_d_1776_4182)">
<rect x="22" y="22" width="83" height="83" rx="21" fill="url(#paint2_linear_1776_4182)"/>
</g>
<defs>
<filter id="filter0_d_1776_4182" x="0" y="0" width="127" height="127" filterUnits="userSpaceOnUse" color-interpolation-filters="sRGB">
<feFlood flood-opacity="0" result="BackgroundImageFix"/>
<feColorMatrix in="SourceAlpha" type="matrix" values="0 0 0 0 0 0 0 0 0 0 0 0 0 0 0 0 0 0 127 0" result="hardAlpha"/>
<feOffset/>
<feGaussianBlur stdDeviation="11"/>
<feComposite in2="hardAlpha" operator="out"/>
<feColorMatrix type="matrix" values="0 0 0 0 0.520833 0 0 0 0 0.0260417 0 0 0 0 0.0260417 0 0 0 0.36 0"/>
<feBlend mode="normal" in2="BackgroundImageFix" result="effect1_dropShadow_1776_4182"/>
<feBlend mode="normal" in="SourceGraphic" in2="effect1_dropShadow_1776_4182" result="shape"/>
</filter>
<filter id="filter1_d_1776_4182" x="36" y="42" width="60.1475" height="50.8802" filterUnits="userSpaceOnUse" color-interpolation-filters="sRGB">
<feFlood flood-opacity="0" result="BackgroundImageFix"/>
<feColorMatrix in="SourceAlpha" type="matrix" values="0 0 0 0 0 0 0 0 0 0 0 0 0 0 0 0 0 0 127 0" result="hardAlpha"/>
<feOffset dx="3" dy="4"/>
<feGaussianBlur stdDeviation="3"/>
<feComposite in2="hardAlpha" operator="out"/>
<feColorMatrix type="matrix" values="0 0 0 0 0 0 0 0 0 0 0 0 0 0 0 0 0 0 0.25 0"/>
<feBlend mode="normal" in2="BackgroundImageFix" result="effect1_dropShadow_1776_4182"/>
<feBlend mode="normal" in="SourceGraphic" in2="effect1_dropShadow_1776_4182" result="shape"/>
</filter>
<filter id="filter2_d_1776_4182" x="0" y="0" width="127" height="127" filterUnits="userSpaceOnUse" color-interpolation-filters="sRGB">
<feFlood flood-opacity="0" result="BackgroundImageFix"/>
<feColorMatrix in="SourceAlpha" type="matrix" values="0 0 0 0 0 0 0 0 0 0 0 0 0 0 0 0 0 0 127 0" result="hardAlpha"/>
<feOffset/>
<feGaussianBlur stdDeviation="11"/>
<feComposite in2="hardAlpha" operator="out"/>
<feColorMatrix type="matrix" values="0 0 0 0 0.520833 0 0 0 0 0.0260417 0 0 0 0 0.0260417 0 0 0 0.36 0"/>
<feBlend mode="normal" in2="BackgroundImageFix" result="effect1_dropShadow_1776_4182"/>
<feBlend mode="normal" in="SourceGraphic" in2="effect1_dropShadow_1776_4182" result="shape"/>
</filter>
<linearGradient id="paint0_linear_1776_4182" x1="22" y1="63.5" x2="81.5751" y2="72.0926" gradientUnits="userSpaceOnUse">
<stop stop-color="#F05A8E"/>
<stop offset="1" stop-color="#ED1C24"/>
</linearGradient>
<linearGradient id="paint1_linear_1776_4182" x1="85.4733" y1="63.4101" x2="39.8444" y2="63.4101" gradientUnits="userSpaceOnUse">
<stop stop-color="#FEE7C8"/>
<stop offset="1" stop-color="#FFF1E6"/>
</linearGradient>
<linearGradient id="paint2_linear_1776_4182" x1="22" y1="63.5" x2="81.5751" y2="72.0926" gradientUnits="userSpaceOnUse">
<stop stop-color="#F05A8E"/>
<stop offset="1" stop-color="#ED1C24"/>
</linearGradient>
</defs>
</svg>
