<svg width="64" height="65" viewBox="0 0 64 65" fill="none" xmlns="http://www.w3.org/2000/svg">
<rect x="0.203246" y="0.703246" width="63.5935" height="63.5935" rx="31.7968" stroke="white" stroke-width="0.406493"/>
<rect x="0.203246" y="0.703246" width="63.5935" height="63.5935" rx="31.7968" stroke="url(#paint0_linear_990_1015)" stroke-width="0.406493"/>
<path d="M42.9234 46.4595V48H21.0766V46.4595C21.0766 42.2006 24.5292 38.7485 28.7876 38.7485L29.4302 36.669C27.6651 35.7902 26.4106 34.0358 26.2366 31.9767C26.2176 31.7006 25.9925 31.4955 25.7293 31.4239C24.9003 31.2118 24.2902 30.4604 24.2902 29.5607C24.2902 28.9482 24.5733 28.4037 25.017 28.0508C24.6696 26.9311 24.2902 25.2855 24.2902 23.4562C24.2902 22.5699 25.009 21.8501 25.8962 21.8501C25.8962 21.8501 26.258 17.993 31.3576 18.6375C36.5967 19.3001 39.2188 18 39.2188 18C39.2188 18 40.3534 19.0988 40.3534 21.2075C40.3534 22.0557 40.1186 22.8485 39.7118 23.5245C39.7108 23.5231 39.7108 23.5218 39.7108 23.5208L39.7099 23.5278C39.7104 23.5264 39.7108 23.5259 39.7118 23.5245C39.9238 25.4678 39.5551 27.1562 39.1975 28.2484C39.5165 28.5925 39.7109 29.0538 39.7109 29.5606C39.7109 30.4603 39.1004 31.2118 38.2717 31.4238C38.0085 31.4954 37.7835 31.7005 37.7639 31.9767C37.5896 34.0347 36.336 35.7896 34.5708 36.668L35.2134 38.7484C39.4718 38.7485 42.9234 42.2006 42.9234 46.4595Z" fill="#ED1F29"/>
<defs>
<linearGradient id="paint0_linear_990_1015" x1="1.74453e-07" y1="32.5" x2="45.9374" y2="39.1256" gradientUnits="userSpaceOnUse">
<stop stop-color="#F05A8E"/>
<stop offset="1" stop-color="#ED1C24"/>
</linearGradient>
</defs>
</svg>
