<svg width="127" height="127" viewBox="0 0 127 127" fill="none" xmlns="http://www.w3.org/2000/svg">
<rect x="4" y="4" width="119" height="119" rx="20" fill="white"/>
<rect x="4.5" y="4.5" width="118" height="118" rx="19.5" stroke="#ED1C24" stroke-opacity="0.15"/>
<g filter="url(#filter0_d_990_2690)">
<rect x="22" y="22" width="83" height="83" rx="21" fill="url(#paint0_linear_990_2690)"/>
</g>
<g filter="url(#filter1_d_990_2690)">
<path d="M84.3223 60.8993C84.3223 72.7209 70.86 83.4144 66.0081 87.3858C65.0069 88.2048 63.5898 88.2048 62.5886 87.3858C57.7367 83.4144 44.2744 72.3346 44.2744 60.8993C44.2744 49.4641 53.239 40.8104 64.2983 40.8104C75.3577 40.8104 84.3223 49.8041 84.3223 60.8993Z" fill="url(#paint1_linear_990_2690)"/>
<path d="M83.5371 59.8485C83.5371 71.6701 70.0749 82.3636 65.2229 86.335C64.2217 87.154 62.8047 87.154 61.8035 86.335C56.9515 82.3636 43.4893 71.2838 43.4893 59.8485C43.4893 48.4133 52.4538 39.7596 63.5132 39.7596C74.5726 39.7596 83.5371 48.7533 83.5371 59.8485Z" fill="#FFE5D1"/>
<mask id="mask0_990_2690" style="mask-type:luminance" maskUnits="userSpaceOnUse" x="43" y="40" width="41" height="48">
<path d="M83.8906 60.4048C83.8906 72.2264 70.4284 82.9198 65.5764 86.8913C64.5752 87.7103 63.1582 87.7103 62.157 86.8913C57.305 82.9198 43.8428 71.84 43.8428 60.4048C43.8428 48.9696 52.8073 40.3159 63.8667 40.3159C74.9261 40.3159 83.8906 49.3096 83.8906 60.4048Z" fill="white"/>
</mask>
<g mask="url(#mask0_990_2690)">
<path d="M83.8916 60.4048C83.8916 72.2264 70.4294 82.9198 65.5774 86.8913C64.5762 87.7103 63.1591 87.7103 62.1579 86.8913C57.306 82.9198 43.8438 71.84 43.8438 60.4048C43.8438 48.9696 52.8083 40.3159 63.8677 40.3159C74.9271 40.3159 83.8916 49.3096 83.8916 60.4048Z" fill="url(#paint2_linear_990_2690)"/>
<g style="mix-blend-mode:multiply">
<path d="M96.5835 72.3501C96.5835 52.6939 91.3619 46.5745 70.8912 46.5745C50.4206 46.5745 45.1836 52.6939 45.1836 72.3501C45.1836 92.0063 50.4052 98.1257 70.8758 98.1257C91.3465 98.1257 96.5681 92.0063 96.5681 72.3501H96.5835Z" fill="white"/>
<path d="M96.0444 72.3193C96.0444 53.0494 90.9152 47.0536 70.8605 47.0536C50.8057 47.0536 45.6611 53.0494 45.6611 72.3193C45.6611 91.5891 50.7903 97.5849 70.8451 97.5849C90.8998 97.5849 96.029 91.5891 96.029 72.3193H96.0444Z" fill="#FFFDFC"/>
<path d="M95.5054 72.2882C95.5054 53.4046 90.484 47.5325 70.8297 47.5325C51.1755 47.5325 46.1387 53.4046 46.1387 72.2882C46.1387 91.1718 51.1601 97.0439 70.8143 97.0439C90.4686 97.0439 95.49 91.1718 95.49 72.2882H95.5054Z" fill="#FFFBF9"/>
<path d="M94.9665 72.2574C94.9665 53.7601 90.053 48.0116 70.7992 48.0116C51.5454 48.0116 46.6318 53.7601 46.6318 72.2574C46.6318 90.7546 51.5454 96.5031 70.7992 96.5031C90.053 96.5031 94.9665 90.7546 94.9665 72.2574Z" fill="#FFF8F6"/>
<path d="M94.4265 72.2264C94.4265 54.1155 89.6207 48.4906 70.7674 48.4906C51.9141 48.4906 47.1084 54.1309 47.1084 72.2264C47.1084 90.3219 51.9141 95.9622 70.7674 95.9622C89.6207 95.9622 94.4265 90.3219 94.4265 72.2264Z" fill="#FFF6F3"/>
<path d="M93.8884 72.1956C93.8884 54.471 89.1751 48.9697 70.7377 48.9697C52.3002 48.9697 47.5869 54.4864 47.5869 72.1956C47.5869 89.9047 52.3002 95.4215 70.7377 95.4215C89.1751 95.4215 93.8884 89.9047 93.8884 72.1956Z" fill="#FFF4F0"/>
<path d="M93.3493 72.1646C93.3493 54.8418 88.7438 49.4487 70.7069 49.4487C52.67 49.4487 48.0645 54.8418 48.0645 72.1646C48.0645 89.4875 52.67 94.8806 70.7069 94.8806C88.7438 94.8806 93.3493 89.4875 93.3493 72.1646Z" fill="#FFF2ED"/>
<path d="M92.8093 72.1337C92.8093 55.1972 88.3116 49.9277 70.6752 49.9277C53.0387 49.9277 48.541 55.1972 48.541 72.1337C48.541 89.0702 53.0387 94.3397 70.6752 94.3397C88.3116 94.3397 92.8093 89.0702 92.8093 72.1337Z" fill="#FFF0EA"/>
<path d="M92.2702 72.1029C92.2702 55.5527 87.865 50.4069 70.6444 50.4069C53.4238 50.4069 49.0186 55.5527 49.0186 72.1029C49.0186 88.653 53.4238 93.7989 70.6444 93.7989C87.865 93.7989 92.2702 88.653 92.2702 72.1029Z" fill="#FFEEE7"/>
<path d="M91.7322 72.0718C91.7322 55.908 87.4347 50.8857 70.6146 50.8857C53.7945 50.8857 49.4971 55.908 49.4971 72.0718C49.4971 88.2357 53.7945 93.2579 70.6146 93.2579C87.4347 93.2579 91.7322 88.2357 91.7322 72.0718Z" fill="#FFEBE4"/>
<path d="M91.1921 72.041C91.1921 56.2635 87.0025 51.3649 70.5829 51.3649C54.1633 51.3649 49.9736 56.2789 49.9736 72.041C49.9736 87.8031 54.1633 92.7171 70.5829 92.7171C87.0025 92.7171 91.1921 87.8031 91.1921 72.041Z" fill="#FFE9E1"/>
<path d="M90.6531 72.0102C90.6531 56.619 86.5713 51.844 70.5521 51.844C54.533 51.844 50.4512 56.6344 50.4512 72.0102C50.4512 87.3859 54.533 92.1763 70.5521 92.1763C86.5713 92.1763 90.6531 87.3859 90.6531 72.0102Z" fill="#FFE7DE"/>
<path d="M90.114 71.9792C90.114 56.9898 86.1246 52.323 70.5214 52.323C54.9181 52.323 50.9287 56.9898 50.9287 71.9792C50.9287 86.9686 54.9181 91.6354 70.5214 91.6354C86.1246 91.6354 90.114 86.9686 90.114 71.9792Z" fill="#FFE5DB"/>
<path d="M89.5749 71.9483C89.5749 57.3452 85.6934 52.802 70.4906 52.802C55.2878 52.802 51.4062 57.3452 51.4062 71.9483C51.4062 86.5514 55.2878 91.0945 70.4906 91.0945C85.6934 91.0945 89.5749 86.5514 89.5749 71.9483Z" fill="#FFE3D8"/>
<path d="M89.0359 71.9173C89.0359 57.7006 85.2621 53.281 70.4598 53.281C55.6575 53.281 51.8838 57.7006 51.8838 71.9173C51.8838 86.1341 55.6575 90.5537 70.4598 90.5537C85.2621 90.5537 89.0359 86.1341 89.0359 71.9173Z" fill="#FFE0D5"/>
<path d="M88.4968 71.8865C88.4968 58.0561 84.8155 53.7601 70.4291 53.7601C56.0427 53.7601 52.3613 58.0561 52.3613 71.8865C52.3613 85.7169 56.0427 90.0129 70.4291 90.0129C84.8155 90.0129 88.4968 85.7169 88.4968 71.8865Z" fill="#FFDED2"/>
<path d="M87.9575 71.8556C87.9575 58.4115 84.384 54.2238 70.3827 54.2238C56.3813 54.2238 52.8232 58.4115 52.8232 71.8556C52.8232 85.2997 56.3967 89.4875 70.3827 89.4875C84.3686 89.4875 87.9575 85.2997 87.9575 71.8556Z" fill="#FFDCCF"/>
<path d="M87.9581 72.1182C87.9581 58.8286 84.4308 54.7026 70.6143 54.7026C56.7978 54.7026 53.2705 58.844 53.2705 72.1182C53.2705 85.3923 56.7978 89.5337 70.6143 89.5337C84.4308 89.5337 87.9581 85.3923 87.9581 72.1182Z" fill="#FFD9CC"/>
<path d="M87.9433 72.3655C87.9433 59.2305 84.4622 55.1509 70.8305 55.1509C57.1989 55.1509 53.7178 59.2305 53.7178 72.3655C53.7178 85.5006 57.1989 89.5802 70.8305 89.5802C84.4622 89.5802 87.9433 85.5006 87.9433 72.3655Z" fill="#FFD7C8"/>
<path d="M87.9417 72.6283C87.9417 59.6477 84.5068 55.6145 71.0446 55.6145C57.5823 55.6145 54.1475 59.6477 54.1475 72.6283C54.1475 85.6088 57.5823 89.642 71.0446 89.642C84.5068 89.642 87.9417 85.6088 87.9417 72.6283Z" fill="#FFD4C5"/>
<path d="M87.9425 72.891C87.9425 60.065 84.5538 56.0781 71.2764 56.0781C57.999 56.0781 54.6104 60.065 54.6104 72.891C54.6104 85.717 57.999 89.7039 71.2764 89.7039C84.5538 89.7039 87.9425 85.717 87.9425 72.891Z" fill="#FFD2C2"/>
<path d="M87.9272 73.1382C87.9272 60.4668 84.5848 56.5262 71.4768 56.5262C58.3688 56.5262 55.0264 60.4668 55.0264 73.1382C55.0264 85.8097 58.3688 89.7502 71.4768 89.7502C84.5848 89.7502 87.9272 85.8097 87.9272 73.1382Z" fill="#FFCFBE"/>
<path d="M87.9271 73.401C87.9271 60.884 84.6308 56.9899 71.7077 56.9899C58.7845 56.9899 55.4883 60.884 55.4883 73.401C55.4883 85.9179 58.7845 89.812 71.7077 89.812C84.6308 89.812 87.9271 85.9179 87.9271 73.401Z" fill="#FFCDBB"/>
<path d="M87.9113 73.6636C87.9113 61.3012 84.6612 57.4534 71.9229 57.4534C59.1846 57.4534 55.9346 61.3012 55.9346 73.6636C55.9346 86.026 59.1846 89.8738 71.9229 89.8738C84.6612 89.8738 87.9113 86.026 87.9113 73.6636Z" fill="#FFCAB7"/>
<path d="M87.9116 73.9263C87.9116 61.7184 84.7078 57.917 72.1389 57.917C59.57 57.917 56.3662 61.7184 56.3662 73.9263C56.3662 86.1342 59.57 89.9356 72.1389 89.9356C84.7078 89.9356 87.9116 86.1342 87.9116 73.9263Z" fill="#FFC8B4"/>
<path d="M87.9114 74.1735C87.9114 62.1202 84.7538 58.3651 72.3698 58.3651C59.9857 58.3651 56.8281 62.1202 56.8281 74.1735C56.8281 86.2269 59.9857 89.982 72.3698 89.982C84.7538 89.982 87.9114 86.2269 87.9114 74.1735Z" fill="#FFC5B1"/>
<path d="M87.8962 74.4363C87.8962 62.5375 84.7847 58.8287 72.5702 58.8287C60.3556 58.8287 57.2441 62.5375 57.2441 74.4363C57.2441 86.3351 60.3556 90.0438 72.5702 90.0438C84.7847 90.0438 87.8962 86.3351 87.8962 74.4363Z" fill="#FFC2AD"/>
<path d="M87.897 74.699C87.897 62.9547 84.8318 59.2924 72.802 59.2924C60.7722 59.2924 57.707 62.9393 57.707 74.699C57.707 86.4587 60.7722 90.1056 72.802 90.1056C84.8318 90.1056 87.897 86.4587 87.897 74.699Z" fill="#FFC0AA"/>
<path d="M87.8802 74.9462C87.8802 63.3565 84.8612 59.7405 73.0163 59.7405C61.1713 59.7405 58.1523 63.341 58.1523 74.9462C58.1523 86.5514 61.1713 90.152 73.0163 90.152C84.8612 90.152 87.8802 86.5514 87.8802 74.9462Z" fill="#FFBDA6"/>
<path d="M87.8805 75.2089C87.8805 63.7737 84.9078 60.2195 73.2323 60.2195C61.5568 60.2195 58.584 63.7737 58.584 75.2089C58.584 86.6441 61.5568 90.1983 73.2323 90.1983C84.9078 90.1983 87.8805 86.6441 87.8805 75.2089Z" fill="#FFBBA3"/>
<path d="M87.8804 75.4716C87.8804 64.1909 84.9538 60.6831 73.4631 60.6831C61.9725 60.6831 59.0459 64.1909 59.0459 75.4716C59.0459 86.7523 61.9725 90.2602 73.4631 90.2602C84.9538 90.2602 87.8804 86.7523 87.8804 75.4716Z" fill="#FFB8A0"/>
<path d="M87.8651 75.7342C87.8651 64.6081 84.9847 61.1466 73.6635 61.1466C62.3423 61.1466 59.4619 64.6081 59.4619 75.7342C59.4619 86.8604 62.3423 90.3219 73.6635 90.3219C84.9847 90.3219 87.8651 86.8604 87.8651 75.7342Z" fill="#FFB69C"/>
<path d="M87.8659 75.9816C87.8659 65.01 85.0317 61.5948 73.8953 61.5948C62.759 61.5948 59.9248 65.01 59.9248 75.9816C59.9248 86.9532 62.759 90.3683 73.8953 90.3683C85.0317 90.3683 87.8659 86.9532 87.8659 75.9816Z" fill="#FFB399"/>
</g>
<g style="mix-blend-mode:screen">
<path d="M83.8916 60.4048C83.8916 72.2264 70.4294 82.9198 65.5774 86.8913C64.5762 87.7103 63.1591 87.7103 62.1579 86.8913C57.306 82.9198 43.8438 71.84 43.8438 60.4048C43.8438 48.9696 52.8083 40.3159 63.8677 40.3159C74.9271 40.3159 83.8916 49.3096 83.8916 60.4048Z" fill="#70573B"/>
<path opacity="0.97" d="M83.6138 60.204C83.6138 71.9638 70.4134 82.58 65.469 86.5823C64.4062 87.4322 62.8967 87.4631 61.8185 86.5823C56.7355 82.4873 43.7354 71.5774 43.7354 60.1886C43.7354 48.7997 52.6691 40.1924 63.6823 40.1924C74.6954 40.1924 83.6138 49.1397 83.6138 60.1886V60.204Z" fill="#695237"/>
<path opacity="0.95" d="M83.3372 60.0032C83.3372 71.7165 70.3986 82.24 65.3618 86.2733C64.2528 87.1541 62.6355 87.2159 61.4803 86.3042C56.1508 82.1164 43.6436 71.3457 43.6436 60.0186C43.6436 48.6916 52.5311 40.0842 63.4827 40.0842C74.4342 40.0842 83.3372 49.0006 83.3372 60.0032Z" fill="#624C34"/>
<path opacity="0.93" d="M83.0593 59.7867C83.0593 71.4537 70.398 81.8999 65.2534 85.9486C64.0828 86.8758 62.3885 86.9376 61.1408 85.9795C55.5649 81.6836 43.5352 71.0673 43.5352 59.7867C43.5352 48.506 52.3765 39.9604 63.2972 39.9604C74.218 39.9604 83.0593 48.8305 83.0593 59.7867Z" fill="#5B4730"/>
<path opacity="0.9" d="M82.7671 59.5859C82.7671 71.1911 70.3676 81.5601 65.1306 85.6242C63.8984 86.5823 62.1116 86.675 60.7869 85.6706C54.98 81.2665 43.4277 70.8048 43.4277 59.5704C43.4277 48.3361 52.2383 39.8524 63.0974 39.8524C73.9565 39.8524 82.7671 48.6915 82.7671 59.5859Z" fill="#54412C"/>
<path opacity="0.88" d="M82.4902 59.385C82.4902 70.9439 70.3526 81.2201 65.0232 85.3152C63.7293 86.3042 61.8502 86.4278 60.4485 85.377C54.3951 80.8493 43.3203 70.5576 43.3203 59.385C43.3203 48.2125 52.0846 39.7443 62.913 39.7443C73.7413 39.7443 82.5056 48.537 82.5056 59.4005L82.4902 59.385Z" fill="#4D3C29"/>
<path opacity="0.85" d="M82.2133 59.1841C82.2133 70.6966 70.3376 80.8801 64.9158 85.0061C63.5757 86.026 61.5887 86.1805 60.11 85.0833C53.8256 80.4474 43.2129 70.3257 43.2129 59.1841C43.2129 48.0425 51.9464 39.6206 62.7131 39.6206C73.4798 39.6206 82.2133 48.3825 82.2133 59.1841Z" fill="#463625"/>
<path opacity="0.83" d="M81.9357 58.9831C81.9357 70.4338 70.3373 80.5401 64.8076 84.6969C63.4059 85.7477 61.3419 85.9177 59.7708 84.7742C53.2399 80.0301 43.1201 70.0629 43.1201 58.9831C43.1201 47.9033 51.792 39.5123 62.5125 39.5123C73.233 39.5123 81.9203 48.2278 81.9203 58.9831H81.9357Z" fill="#3F3121"/>
<path opacity="0.8" d="M81.6433 58.7823C81.6433 70.1866 70.3066 80.2002 64.6845 84.3879C63.2212 85.4697 61.0648 85.6705 59.4167 84.4807C52.6548 79.613 42.9971 69.8158 42.9971 58.7823C42.9971 47.7489 51.6536 39.3888 62.3279 39.3888C73.0022 39.3888 81.6433 48.0734 81.6433 58.7669V58.7823Z" fill="#382C1E"/>
<path opacity="0.78" d="M81.3654 58.5814C81.3654 69.9394 70.2906 79.8602 64.5761 84.0789C63.0512 85.207 60.8024 85.4233 59.0772 84.1871C52.0689 79.2112 42.8887 69.5685 42.8887 58.5814C42.8887 47.5944 51.499 39.2806 62.127 39.2806C72.7551 39.2806 81.3654 47.9189 81.3654 58.5814Z" fill="#31261A"/>
<path opacity="0.75" d="M81.0886 58.3804C81.0886 69.6766 70.2757 79.5047 64.4687 83.7543C62.8976 84.9132 60.5563 85.145 58.7388 83.8779C51.4994 78.7784 42.7812 69.3057 42.7812 58.3804C42.7812 47.4552 51.3607 39.1724 61.9426 39.1724C72.5245 39.1724 81.0886 47.7797 81.0886 58.3804Z" fill="#2A2116"/>
<path opacity="0.72" d="M80.7956 58.1796C80.7956 69.4294 70.2445 79.1648 64.3451 83.4453C62.7124 84.6352 60.2787 84.8979 58.3842 83.5844C50.9291 78.3458 42.6885 69.0586 42.6885 58.1796C42.6885 47.3007 51.2218 39.0488 61.742 39.0488C72.2623 39.0488 80.7956 47.6098 80.7956 58.1642V58.1796Z" fill="#231B12"/>
<path opacity="0.7" d="M80.5187 57.9633C80.5187 69.1667 70.2295 78.8094 64.2377 83.1208C62.5434 84.3416 60.0173 84.6352 58.0457 83.2599C50.3442 77.9441 42.5811 68.7959 42.5811 57.9633C42.5811 47.1308 51.0681 38.9407 61.5422 38.9407C72.0162 38.9407 80.5187 47.4553 80.5187 57.9788V57.9633Z" fill="#1C160F"/>
<path opacity="0.68" d="M80.2409 57.7624C80.2409 68.904 70.2135 78.454 64.1293 82.8117C62.3734 84.0634 59.7703 84.3725 57.7062 82.9663C49.7583 77.5268 42.4727 68.5486 42.4727 57.7624C42.4727 46.9762 50.9289 38.817 61.3568 38.817C71.7846 38.817 80.2409 47.3007 80.2409 57.7624Z" fill="#15100B"/>
<path opacity="0.65" d="M79.964 57.5615C79.964 68.6568 70.1985 78.114 64.0219 82.5027C62.2043 83.7853 59.5088 84.1252 57.3678 82.6727C49.1734 77.1096 42.3652 68.3014 42.3652 57.5615C42.3652 46.8217 50.7753 38.7089 61.1569 38.7089C71.5386 38.7089 79.9486 47.1462 79.9486 57.5615H79.964Z" fill="#0E0B07"/>
<path opacity="0.62" d="M79.6708 57.3606C79.6708 68.4095 70.1671 77.774 63.8981 82.1936C62.0343 83.5071 59.231 83.878 57.0129 82.379C48.6029 76.6923 42.2568 68.0386 42.2568 57.3606C42.2568 46.6826 50.6361 38.5852 60.9715 38.5852C71.3069 38.5852 79.6862 46.9916 79.6862 57.3606H79.6708Z" fill="#070504"/>
<path opacity="0.6" d="M79.3939 57.1597C79.3939 68.1468 70.1521 77.4341 63.8061 81.8845C61.8807 83.229 59.0003 83.6153 56.6899 82.07C48.018 76.2751 42.1494 67.7914 42.1494 57.1597C42.1494 46.5281 50.4825 38.4771 60.7717 38.4771C71.0609 38.4771 79.3939 46.8371 79.3939 57.1597Z" fill="black"/>
</g>
<g style="mix-blend-mode:screen">
<path d="M83.8916 60.4048C83.8916 72.2264 70.4294 82.9198 65.5774 86.8913C64.5762 87.7103 63.1591 87.7103 62.1579 86.8913C57.306 82.9198 43.8438 71.84 43.8438 60.4048C43.8438 48.9696 52.8083 40.3159 63.8677 40.3159C74.9271 40.3159 83.8916 49.3096 83.8916 60.4048Z" fill="#70573B"/>
<path opacity="0.97" d="M83.9992 60.5903C83.9992 72.3964 70.768 82.9508 65.8236 86.9686C64.7608 87.8185 63.5285 87.8648 62.4349 86.984C57.3365 82.8735 44.0283 71.6701 44.0283 60.4358C44.0283 49.2014 52.9467 40.4396 63.9598 40.4396C74.973 40.4396 83.9838 49.5105 83.9838 60.5903H83.9992Z" fill="#695237"/>
<path opacity="0.95" d="M84.0921 60.7756C84.0921 72.5508 71.0919 82.9816 66.0397 87.0457C64.9153 87.942 63.8679 88.0038 62.6973 87.0921C57.3524 82.858 44.1982 71.5309 44.1982 60.4666C44.1982 49.4022 53.0704 40.5631 64.0527 40.5631C75.0351 40.5631 84.0921 49.6958 84.0921 60.7602V60.7756Z" fill="#624C34"/>
<path opacity="0.93" d="M84.1842 60.9612C84.1842 72.7209 71.4305 83.028 66.2705 87.1231C65.0845 88.0503 64.2219 88.1584 62.9589 87.1849C57.3522 82.8272 44.3828 71.361 44.3828 60.4976C44.3828 49.6341 53.1933 40.7023 64.1449 40.7023C75.0964 40.7023 84.1842 49.9123 84.1842 60.9612Z" fill="#5B4730"/>
<path opacity="0.9" d="M84.2762 61.1465C84.2762 72.8908 71.7535 83.0743 66.4857 87.2003C65.2534 88.1738 64.5449 88.3129 63.2202 87.293C57.3671 82.8116 44.5518 71.2219 44.5518 60.5284C44.5518 49.8349 53.3161 40.8258 64.2368 40.8258C75.1576 40.8258 84.2762 50.1131 84.2762 61.1465Z" fill="#54412C"/>
<path opacity="0.88" d="M84.3847 61.3165C84.3847 73.0453 72.0931 83.0898 66.7328 87.2621C65.439 88.2666 64.9153 88.452 63.4982 87.3703C57.3986 82.7498 44.7373 71.0365 44.7373 60.5439C44.7373 50.0513 53.44 40.9495 64.33 40.9495C75.2199 40.9495 84.3847 50.314 84.3847 61.3165Z" fill="#4D3C29"/>
<path opacity="0.85" d="M84.4776 61.5019C84.4776 73.2153 72.4324 83.1207 66.949 87.3393C65.5935 88.3901 65.2546 88.591 63.7605 87.4784C57.3991 82.7343 44.9072 70.8973 44.9072 60.5747C44.9072 49.5877 53.5637 41.0885 64.4229 41.0885C75.282 41.0885 84.4776 50.5148 84.4776 61.5174V61.5019Z" fill="#463625"/>
<path opacity="0.83" d="M84.5698 61.6874C84.5698 73.3853 72.7556 83.1516 67.1798 87.4166C65.7627 88.4983 65.6086 88.7456 64.0221 87.5712C57.4142 82.688 45.0918 70.7274 45.0918 60.6057C45.0764 49.634 53.6867 41.2122 64.4996 41.2122C75.3126 41.2122 84.5698 50.7158 84.5698 61.6874Z" fill="#3F3121"/>
<path opacity="0.8" d="M84.6615 61.8729C84.6615 73.5553 73.0784 83.198 67.3947 87.4939C65.916 88.622 65.9468 88.9002 64.2679 87.6639C57.4135 82.6571 45.2451 70.5729 45.2451 60.6366C45.2605 49.6804 53.8246 41.3358 64.5913 41.3358C75.358 41.3358 84.6615 50.9167 84.6615 61.8729Z" fill="#382C1E"/>
<path opacity="0.78" d="M84.7536 62.0583C84.7536 73.7098 73.4016 83.2289 67.6254 87.5712C66.0851 88.7301 66.3008 89.0392 64.5448 87.7721C57.444 82.6262 45.4297 70.4183 45.4297 60.6675C45.4297 49.7268 53.9476 41.4749 64.6835 41.4749C75.4194 41.4749 84.7536 51.1175 84.7536 62.0737V62.0583Z" fill="#31261A"/>
<path opacity="0.75" d="M84.8619 62.2437C84.8619 73.8798 73.7409 83.2598 67.857 87.6485C66.2551 88.8383 66.6555 89.1938 64.8072 87.8648C57.4599 82.5799 45.5996 70.2638 45.5996 60.6984C45.5996 49.7732 54.0559 41.5985 64.7764 41.5985C75.4969 41.5985 84.8619 51.3185 84.8619 62.2437Z" fill="#2A2116"/>
<path opacity="0.72" d="M84.9541 62.4292C84.9541 74.0499 74.0641 83.2907 68.0878 87.7258C66.4242 88.962 67.0095 89.3329 65.0842 87.973C57.4905 82.549 45.7842 70.1248 45.7842 60.7294C45.7842 49.8195 54.1942 41.7222 64.8685 41.7222C75.5428 41.7222 84.9541 51.5194 84.9541 62.4292Z" fill="#231B12"/>
<path opacity="0.7" d="M85.046 62.6147C85.046 74.2199 74.3871 83.3062 68.3029 87.8031C66.5778 89.0702 67.3479 89.4874 65.3301 88.0658C57.49 82.5181 45.9531 69.9548 45.9531 60.7603C45.9531 49.8659 54.317 41.8458 64.9451 41.8458C75.5731 41.8458 85.0306 51.7203 85.0306 62.6147H85.046Z" fill="#1C160F"/>
<path opacity="0.68" d="M85.1401 62.8001C85.1401 74.3898 74.7123 83.3371 68.5357 87.8803C66.7489 89.1783 67.7039 89.6419 65.6091 88.1739C57.5225 82.4872 46.1396 69.8157 46.1396 60.7912C46.1396 49.9123 54.4419 41.9849 65.0546 41.9849C75.6673 41.9849 85.1555 51.9211 85.1555 62.8001H85.1401Z" fill="#15100B"/>
<path opacity="0.65" d="M85.2474 62.9855C85.2474 74.5598 75.0506 83.3835 68.7662 87.9576C66.9178 89.302 68.0577 89.781 65.8704 88.2666C57.5374 82.4563 46.3086 69.6458 46.3086 60.8221C46.3086 49.9586 54.5646 42.1085 65.1311 42.1085C75.6976 42.1085 85.232 52.1221 85.232 62.9855H85.2474Z" fill="#0E0B07"/>
<path opacity="0.62" d="M85.3394 63.1709C85.3394 74.7298 75.3736 83.4144 68.9968 88.0348C67.0868 89.4101 68.4114 89.9355 66.1318 88.3593C57.5369 82.4099 46.4775 69.4912 46.4775 60.853C46.4775 50.005 54.6874 42.2476 65.223 42.2476C75.7587 42.2476 85.3394 52.3384 85.3394 63.1864V63.1709Z" fill="#070504"/>
<path opacity="0.6" d="M85.4315 63.3564C85.4315 74.8843 75.6968 83.4453 69.2121 88.1121C67.2406 89.5338 68.75 90.0901 66.3934 88.4675C57.552 82.3945 46.6621 69.3367 46.6621 60.8839C46.6621 50.0514 54.8257 42.3712 65.3152 42.3712C75.8046 42.3712 85.4315 52.5238 85.4315 63.3564Z" fill="black"/>
</g>
</g>
<g style="mix-blend-mode:multiply">
<g opacity="0.4">
<path d="M65.7307 73.5707C71.2602 73.5707 75.7427 69.0737 75.7427 63.5263C75.7427 57.9789 71.2602 53.4818 65.7307 53.4818C60.2013 53.4818 55.7188 57.9789 55.7188 63.5263C55.7188 69.0737 60.2013 73.5707 65.7307 73.5707Z" fill="white"/>
</g>
<g opacity="0.44">
<path d="M75.4965 63.4181C75.4965 68.8576 71.1066 73.2617 65.6848 73.2617C60.2629 73.2617 55.873 68.8576 55.873 63.4181C55.873 57.9787 60.2629 53.5746 65.6848 53.5746C71.1066 53.5746 75.4965 57.9787 75.4965 63.4181Z" fill="#FEFDFD"/>
</g>
<g opacity="0.48">
<path d="M65.624 72.968C70.9407 72.968 75.2509 68.6439 75.2509 63.3099C75.2509 57.9758 70.9407 53.6517 65.624 53.6517C60.3072 53.6517 55.9971 57.9758 55.9971 63.3099C55.9971 68.6439 60.3072 72.968 65.624 72.968Z" fill="#FDFBFA"/>
</g>
<g opacity="0.51">
<path d="M75.0047 63.2017C75.0047 68.4249 70.7842 72.659 65.578 72.659C60.3718 72.659 56.1514 68.4249 56.1514 63.2017C56.1514 57.9786 60.3718 53.7445 65.578 53.7445C70.7842 53.7445 75.0047 57.9786 75.0047 63.2017Z" fill="#FDF9F8"/>
</g>
<g opacity="0.55">
<path d="M74.7575 63.0936C74.7575 68.2086 70.6295 72.35 65.5311 72.35C60.4327 72.35 56.3047 68.2086 56.3047 63.0936C56.3047 57.9787 60.4327 53.8373 65.5311 53.8373C70.6295 53.8373 74.7575 57.9787 74.7575 63.0936Z" fill="#FCF7F5"/>
</g>
<g opacity="0.59">
<path d="M74.5255 62.9855C74.5255 67.9922 70.4745 72.0564 65.484 72.0564C60.4934 72.0564 56.4424 67.9922 56.4424 62.9855C56.4424 57.9787 60.4934 53.9146 65.484 53.9146C70.4745 53.9146 74.5255 57.9787 74.5255 62.9855Z" fill="#FBF5F3"/>
</g>
<g opacity="0.62">
<path d="M74.2803 62.8772C74.2803 67.7758 70.3218 71.7473 65.439 71.7473C60.5562 71.7473 56.5977 67.7758 56.5977 62.8772C56.5977 57.9786 60.5562 54.0072 65.439 54.0072C70.3218 54.0072 74.2803 57.9786 74.2803 62.8772Z" fill="#FAF3F0"/>
</g>
<g opacity="0.66">
<path d="M74.0341 62.769C74.0341 67.5594 70.168 71.4381 65.393 71.4381C60.6181 71.4381 56.752 67.5594 56.752 62.769C56.752 57.9786 60.6181 54.0999 65.393 54.0999C70.168 54.0999 74.0341 57.9786 74.0341 62.769Z" fill="#F9F1EE"/>
</g>
<g opacity="0.7">
<path d="M73.7865 62.6609C73.7865 67.3432 69.9974 71.1446 65.3303 71.1446C60.6632 71.1446 56.874 67.3432 56.874 62.6609C56.874 57.9787 60.6632 54.1772 65.3303 54.1772C69.9974 54.1772 73.7865 57.9787 73.7865 62.6609Z" fill="#F9F0EB"/>
</g>
<g opacity="0.74">
<path d="M65.2843 70.8355C69.844 70.8355 73.5404 67.1272 73.5404 62.5527C73.5404 57.9782 69.844 54.2699 65.2843 54.2699C60.7247 54.2699 57.0283 57.9782 57.0283 62.5527C57.0283 67.1272 60.7247 70.8355 65.2843 70.8355Z" fill="#F8EEE9"/>
</g>
<g opacity="0.78">
<path d="M73.3098 62.4446C73.3098 66.9105 69.7055 70.5265 65.254 70.5265C60.8025 70.5265 57.1982 66.9105 57.1982 62.4446C57.1982 57.9787 60.8025 54.3627 65.254 54.3627C69.7055 54.3627 73.3098 57.9787 73.3098 62.4446Z" fill="#F7ECE6"/>
</g>
<g opacity="0.81">
<path d="M65.1922 70.2328C69.5392 70.2328 73.0632 66.6974 73.0632 62.3363C73.0632 57.9752 69.5392 54.4398 65.1922 54.4398C60.8452 54.4398 57.3213 57.9752 57.3213 62.3363C57.3213 66.6974 60.8452 70.2328 65.1922 70.2328Z" fill="#F6EAE4"/>
</g>
<g opacity="0.85">
<path d="M72.817 62.2282C72.817 66.4778 69.3821 69.9238 65.1463 69.9238C60.9105 69.9238 57.4756 66.4778 57.4756 62.2282C57.4756 57.9786 60.9105 54.5326 65.1463 54.5326C69.3821 54.5326 72.817 57.9786 72.817 62.2282Z" fill="#F5E8E1"/>
</g>
<g opacity="0.89">
<path d="M72.5698 62.1201C72.5698 66.2615 69.2274 69.6148 65.0994 69.6148C60.9714 69.6148 57.6289 66.2615 57.6289 62.1201C57.6289 57.9787 60.9714 54.6254 65.0994 54.6254C69.2274 54.6254 72.5698 57.9787 72.5698 62.1201Z" fill="#F4E6DF"/>
</g>
<g opacity="0.93">
<path d="M72.3232 62.0119C72.3232 66.0451 69.0578 69.3212 65.0376 69.3212C61.0174 69.3212 57.752 66.0451 57.752 62.0119C57.752 57.9787 61.0174 54.7026 65.0376 54.7026C69.0578 54.7026 72.3232 57.9787 72.3232 62.0119Z" fill="#F4E4DC"/>
</g>
<g opacity="0.96">
<path d="M72.0927 61.9037C72.0927 65.8287 68.9196 69.0121 65.0073 69.0121C61.0949 69.0121 57.9219 65.8287 57.9219 61.9037C57.9219 57.9786 61.0949 54.7953 65.0073 54.7953C68.9196 54.7953 72.0927 57.9786 72.0927 61.9037Z" fill="#F3E2DA"/>
</g>
<path d="M71.8455 61.7801C71.8455 65.5969 68.7649 68.6875 64.9603 68.6875C61.1558 68.6875 58.0752 65.5969 58.0752 61.7801C58.0752 57.9632 61.1558 54.8726 64.9603 54.8726C68.7649 54.8726 71.8455 57.9632 71.8455 61.7801Z" fill="#FCFCFC"/>
</g>
<path d="M71.4153 60.4047C71.4153 64.577 68.042 67.9767 63.8678 67.9767C59.6936 67.9767 56.3203 64.5925 56.3203 60.4047C56.3203 56.217 59.6936 52.8328 63.8678 52.8328C68.042 52.8328 71.4153 56.217 71.4153 60.4047Z" fill="white"/>
<mask id="mask1_990_2690" style="mask-type:luminance" maskUnits="userSpaceOnUse" x="56" y="52" width="16" height="16">
<path d="M71.4143 60.4047C71.4143 64.577 68.041 67.9767 63.8668 67.9767C59.6926 67.9767 56.3193 64.5925 56.3193 60.4047C56.3193 56.217 59.6926 52.8328 63.8668 52.8328C68.041 52.8328 71.4143 56.217 71.4143 60.4047Z" fill="white"/>
</mask>
<g mask="url(#mask1_990_2690)">
<g style="mix-blend-mode:multiply">
<path d="M92.5311 74.1578C92.5311 60.3119 88.8498 56.0005 74.4325 56.0005C60.0153 56.0005 56.334 60.3119 56.334 74.1578C56.334 88.0037 60.0153 92.315 74.4325 92.315C88.8498 92.315 92.5311 88.0037 92.5311 74.1578Z" fill="white"/>
<path d="M92.2379 74.2814C92.2379 60.7291 88.6336 56.5259 74.5399 56.5259C60.4461 56.5259 56.8418 60.7445 56.8418 74.2814C56.8418 87.8182 60.4461 92.0369 74.5399 92.0369C88.6336 92.0369 92.2379 87.8182 92.2379 74.2814Z" fill="#FFFDFC"/>
<path d="M91.9453 74.3896C91.9453 61.1463 88.418 57.0204 74.6323 57.0204C60.8466 57.0204 57.3193 61.1463 57.3193 74.3896C57.3193 87.6328 60.8466 91.7587 74.6323 91.7587C88.418 91.7587 91.9453 87.6328 91.9453 74.3896Z" fill="#FFFBF9"/>
<path d="M91.6537 74.5132C91.6537 61.5636 88.2188 57.5304 74.7258 57.5304C61.2327 57.5304 57.7979 61.5636 57.7979 74.5132C57.7979 87.4629 61.2327 91.4961 74.7258 91.4961C88.2188 91.4961 91.6537 87.4629 91.6537 74.5132Z" fill="#FFF9F7"/>
<path d="M91.3606 74.6369C91.3606 61.9963 88.0027 58.0558 74.8331 58.0558C61.6635 58.0558 58.3057 61.9963 58.3057 74.6369C58.3057 87.2774 61.6635 91.2179 74.8331 91.2179C88.0027 91.2179 91.3606 87.2774 91.3606 74.6369Z" fill="#FFF7F4"/>
<path d="M91.0679 74.7604C91.0679 62.4135 87.7871 58.5657 74.9256 58.5657C62.064 58.5657 58.7832 62.4135 58.7832 74.7604C58.7832 87.1074 62.064 90.9552 74.9256 90.9552C87.7871 90.9552 91.0679 87.1074 91.0679 74.7604Z" fill="#FFF5F1"/>
<path d="M90.7904 74.884C90.7904 62.8307 87.5866 59.0911 75.0485 59.0911C62.5105 59.0911 59.3066 62.8461 59.3066 74.884C59.3066 86.9219 62.5105 90.677 75.0485 90.677C87.5866 90.677 90.7904 86.9219 90.7904 74.884Z" fill="#FFF3EE"/>
<path d="M90.4978 75.0076C90.4978 63.2633 87.371 59.601 75.141 59.601C62.911 59.601 59.7842 63.2633 59.7842 75.0076C59.7842 86.7519 62.911 90.4142 75.141 90.4142C87.371 90.4142 90.4978 86.7519 90.4978 75.0076Z" fill="#FFF1EB"/>
<path d="M90.2044 75.1313C90.2044 63.6806 87.1546 60.111 75.2481 60.111C63.3416 60.111 60.2764 63.6806 60.2764 75.1313C60.2764 86.582 63.3262 90.1516 75.2481 90.1516C87.17 90.1516 90.2044 86.582 90.2044 75.1313Z" fill="#FFEFE9"/>
<path d="M89.913 75.2395C89.913 64.0824 86.9557 60.621 75.3418 60.621C63.7279 60.621 60.7705 64.0979 60.7705 75.2395C60.7705 86.3811 63.7279 89.8581 75.3418 89.8581C86.9557 89.8581 89.913 86.3811 89.913 75.2395Z" fill="#FFEDE6"/>
<path d="M89.6204 75.3631C89.6204 64.5151 86.7401 61.1309 75.4342 61.1309C64.1284 61.1309 61.248 64.4996 61.248 75.3631C61.248 86.2265 64.1284 89.5953 75.4342 89.5953C86.7401 89.5953 89.6204 86.2265 89.6204 75.3631Z" fill="#FFEBE3"/>
<path d="M89.3273 75.4867C89.3273 64.9323 86.5239 61.6562 75.5416 61.6562C64.5592 61.6562 61.7559 64.9323 61.7559 75.4867C61.7559 86.0411 64.5592 89.3171 75.5416 89.3171C86.5239 89.3171 89.3273 86.0411 89.3273 75.4867Z" fill="#FFE9E0"/>
<path d="M89.0347 75.6104C89.0347 65.365 86.3083 62.1663 75.634 62.1663C64.9597 62.1663 62.2334 65.3496 62.2334 75.6104C62.2334 85.8712 64.9597 89.0545 75.634 89.0545C86.3083 89.0545 89.0347 85.8712 89.0347 75.6104Z" fill="#FFE7DD"/>
<path d="M88.7415 75.734C88.7415 65.7823 86.0922 62.6917 75.7414 62.6917C65.3905 62.6917 62.7412 65.7823 62.7412 75.734C62.7412 85.6857 65.3905 88.7763 75.7414 88.7763C86.0922 88.7763 88.7415 85.6857 88.7415 75.734Z" fill="#FFE5DA"/>
<path d="M88.4499 75.8577C88.4499 66.1995 85.8776 63.2017 75.8348 63.2017C65.792 63.2017 63.2197 66.1995 63.2197 75.8577C63.2197 85.5158 65.792 88.5137 75.8348 88.5137C85.8776 88.5137 88.4499 85.5158 88.4499 75.8577Z" fill="#FFE3D8"/>
<path d="M88.1563 75.9812C88.1563 66.6322 85.6764 63.7115 75.9263 63.7115C66.1762 63.7115 63.6963 66.6167 63.6963 75.9812C63.6963 85.3458 66.1762 88.2509 75.9263 88.2509C85.6764 88.2509 88.1563 85.3458 88.1563 75.9812Z" fill="#FFE1D5"/>
<path d="M87.8641 76.1048C87.8641 67.0494 85.4613 64.2369 76.0346 64.2369C66.6079 64.2369 64.2051 67.0494 64.2051 76.1048C64.2051 85.1603 66.6079 87.9727 76.0346 87.9727C85.4613 87.9727 87.8641 85.1603 87.8641 76.1048Z" fill="#FFDFD2"/>
</g>
</g>
</g>
<g style="mix-blend-mode:hue" filter="url(#filter2_d_990_2690)">
<rect x="22" y="22" width="83" height="83" rx="21" fill="url(#paint3_linear_990_2690)"/>
</g>
<defs>
<filter id="filter0_d_990_2690" x="0" y="0" width="127" height="127" filterUnits="userSpaceOnUse" color-interpolation-filters="sRGB">
<feFlood flood-opacity="0" result="BackgroundImageFix"/>
<feColorMatrix in="SourceAlpha" type="matrix" values="0 0 0 0 0 0 0 0 0 0 0 0 0 0 0 0 0 0 127 0" result="hardAlpha"/>
<feOffset/>
<feGaussianBlur stdDeviation="11"/>
<feComposite in2="hardAlpha" operator="out"/>
<feColorMatrix type="matrix" values="0 0 0 0 0.520833 0 0 0 0 0.0260417 0 0 0 0 0.0260417 0 0 0 0.36 0"/>
<feBlend mode="normal" in2="BackgroundImageFix" result="effect1_dropShadow_990_2690"/>
<feBlend mode="normal" in="SourceGraphic" in2="effect1_dropShadow_990_2690" result="shape"/>
</filter>
<filter id="filter1_d_990_2690" x="40.4893" y="37.7596" width="52.833" height="60.2404" filterUnits="userSpaceOnUse" color-interpolation-filters="sRGB">
<feFlood flood-opacity="0" result="BackgroundImageFix"/>
<feColorMatrix in="SourceAlpha" type="matrix" values="0 0 0 0 0 0 0 0 0 0 0 0 0 0 0 0 0 0 127 0" result="hardAlpha"/>
<feOffset dx="3" dy="4"/>
<feGaussianBlur stdDeviation="3"/>
<feComposite in2="hardAlpha" operator="out"/>
<feColorMatrix type="matrix" values="0 0 0 0 0 0 0 0 0 0 0 0 0 0 0 0 0 0 0.25 0"/>
<feBlend mode="normal" in2="BackgroundImageFix" result="effect1_dropShadow_990_2690"/>
<feBlend mode="normal" in="SourceGraphic" in2="effect1_dropShadow_990_2690" result="shape"/>
</filter>
<filter id="filter2_d_990_2690" x="0" y="0" width="127" height="127" filterUnits="userSpaceOnUse" color-interpolation-filters="sRGB">
<feFlood flood-opacity="0" result="BackgroundImageFix"/>
<feColorMatrix in="SourceAlpha" type="matrix" values="0 0 0 0 0 0 0 0 0 0 0 0 0 0 0 0 0 0 127 0" result="hardAlpha"/>
<feOffset/>
<feGaussianBlur stdDeviation="11"/>
<feComposite in2="hardAlpha" operator="out"/>
<feColorMatrix type="matrix" values="0 0 0 0 0.520833 0 0 0 0 0.0260417 0 0 0 0 0.0260417 0 0 0 0.36 0"/>
<feBlend mode="normal" in2="BackgroundImageFix" result="effect1_dropShadow_990_2690"/>
<feBlend mode="normal" in="SourceGraphic" in2="effect1_dropShadow_990_2690" result="shape"/>
</filter>
<linearGradient id="paint0_linear_990_2690" x1="22" y1="63.5" x2="81.5751" y2="72.0926" gradientUnits="userSpaceOnUse">
<stop stop-color="#F05A8E"/>
<stop offset="1" stop-color="#ED1C24"/>
</linearGradient>
<linearGradient id="paint1_linear_990_2690" x1="44.2744" y1="64.4072" x2="84.3223" y2="64.4072" gradientUnits="userSpaceOnUse">
<stop stop-color="#FFF5DD"/>
<stop offset="1" stop-color="#FFD8BB"/>
</linearGradient>
<linearGradient id="paint2_linear_990_2690" x1="43.8438" y1="63.9127" x2="83.8916" y2="63.9127" gradientUnits="userSpaceOnUse">
<stop stop-color="#FFF5DD"/>
<stop offset="1" stop-color="#FFD8BB"/>
</linearGradient>
<linearGradient id="paint3_linear_990_2690" x1="22" y1="63.5" x2="81.5751" y2="72.0926" gradientUnits="userSpaceOnUse">
<stop stop-color="#F05A8E"/>
<stop offset="1" stop-color="#ED1C24"/>
</linearGradient>
</defs>
</svg>
