<svg width="28" height="17" viewBox="0 0 28 17" fill="none" xmlns="http://www.w3.org/2000/svg">
<path d="M11.1218 1L20 1.7832V16L9 13.8072L11.1218 1Z" fill="#FF5F00"/>
<mask id="mask0_990_3244" style="mask-type:luminance" maskUnits="userSpaceOnUse" x="0" y="-1" width="28" height="18">
<path d="M28 -0.00390625H0V16.9961H28V-0.00390625Z" fill="white"/>
</mask>
<g mask="url(#mask0_990_3244)">
<path d="M10.7041 8.49234C10.7045 7.20628 11.0012 5.93697 11.5719 4.77945C12.1427 3.62193 12.9728 2.60619 14 1.8083C12.9144 0.972136 11.641 0.402868 10.2859 0.14794C8.93079 -0.106987 7.53326 -0.0401887 6.20978 0.342768C4.8863 0.725724 3.67522 1.41374 2.67748 2.34948C1.67974 3.28522 0.924247 4.44157 0.473969 5.72214C0.0236899 7.00271 -0.108328 8.37041 0.0889188 9.71124C0.286166 11.0521 0.806963 12.3272 1.6079 13.4303C2.40884 14.5334 3.46672 15.4326 4.69336 16.0529C5.92 16.6731 7.27987 16.9965 8.65962 16.9961C10.5952 16.9958 12.4742 16.355 13.9931 15.1771C12.9651 14.3802 12.1348 13.3644 11.5651 12.2064C10.9953 11.0484 10.7009 9.77841 10.7041 8.49234Z" fill="#EB001B"/>
<path d="M28 8.49609C28.0012 10.0904 27.5453 11.6529 26.6844 13.0048C25.8235 14.3567 24.5923 15.4434 23.1318 16.1407C21.6712 16.838 20.0402 17.1176 18.4253 16.9477C16.8104 16.7778 15.2768 16.1651 14 15.1797C15.0275 14.382 15.8578 13.3664 16.4286 12.2089C16.9994 11.0514 17.2959 9.78207 17.2959 8.49609C17.2959 7.21012 16.9994 5.94082 16.4286 4.78332C15.8578 3.62583 15.0275 2.61016 14 1.81244C15.2768 0.827101 16.8104 0.214421 18.4253 0.0444849C20.0402 -0.125452 21.6712 0.154217 23.1318 0.851501C24.5923 1.54878 25.8235 2.63553 26.6844 3.98743C27.5453 5.33932 28.0012 6.90179 28 8.49609Z" fill="#F79E1B"/>
<path d="M4.64539 9.94752V8.62338C4.65615 8.51029 4.64005 8.39639 4.5982 8.28969C4.55636 8.183 4.4898 8.08611 4.40321 8.00583C4.31662 7.92556 4.2121 7.86385 4.09701 7.82506C3.98192 7.78627 3.85906 7.77134 3.73707 7.78132C3.57901 7.77568 3.42197 7.80713 3.28052 7.87275C3.13907 7.93838 3.01778 8.03606 2.92791 8.15674C2.85005 8.03567 2.73793 7.93668 2.60369 7.8705C2.46946 7.80432 2.31824 7.77348 2.16643 7.78132C2.03616 7.77615 1.90661 7.80178 1.78996 7.85579C1.6733 7.9098 1.57338 7.99042 1.49958 8.09007V7.82552H1V9.94402H1.49958V8.77425C1.49958 8.39883 1.71379 8.2227 2.04684 8.2227C2.37989 8.2227 2.54642 8.42128 2.54642 8.77425V9.94402H3.04599V8.77425C3.03648 8.70348 3.0437 8.63165 3.06715 8.56373C3.09061 8.49581 3.12973 8.43344 3.18181 8.38095C3.23389 8.32847 3.29767 8.28713 3.36872 8.2598C3.43977 8.23247 3.51639 8.21981 3.59325 8.2227C3.92631 8.2227 4.09283 8.42128 4.09283 8.77425V9.94402L4.64539 9.94752ZM12.049 7.82904H11.2398V7.18907H10.7402V7.82904H10.2861V8.25007H10.7402V9.22125C10.7402 9.70684 10.9544 9.99313 11.5259 9.99313C11.7428 9.98923 11.9554 9.93623 12.1451 9.83875L12.002 9.44158C11.8737 9.51585 11.7249 9.55411 11.5736 9.55175C11.3359 9.55175 11.2406 9.41913 11.2406 9.20089V8.25217H12.0497L12.049 7.82904ZM16.2878 7.78483C16.1679 7.78228 16.0495 7.80958 15.9448 7.86388C15.8402 7.91819 15.7532 7.99751 15.6928 8.09358V7.82904H15.194V9.94752H15.6936V8.7546C15.6936 8.40374 15.8601 8.20305 16.1697 8.20305C16.2744 8.20694 16.3782 8.22177 16.4793 8.24726L16.6224 7.80588C16.5125 7.78769 16.4008 7.7804 16.2893 7.78412M9.88564 8.00447C9.60678 7.8466 9.28327 7.76984 8.95688 7.78412C8.3854 7.78412 8.00466 8.04868 8.00466 8.4683C8.00466 8.81916 8.29003 9.01985 8.79036 9.08652L9.02804 9.10826C9.28994 9.15247 9.433 9.21843 9.433 9.32931C9.433 9.48368 9.24225 9.59385 8.9092 9.59385C8.63679 9.59513 8.3707 9.51788 8.14773 9.37281L7.91005 9.72367C8.1981 9.90296 8.53887 9.99536 8.88573 9.98823C9.55259 9.98823 9.93333 9.70122 9.93333 9.30405C9.93333 8.92863 9.62374 8.73004 9.14763 8.66408L8.90996 8.64232C8.69574 8.62057 8.53149 8.57637 8.53149 8.44374C8.53149 8.28936 8.69801 8.20095 8.95991 8.20095C9.20887 8.21114 9.45245 8.27148 9.6737 8.37777L9.88564 8.00447ZM23.1698 7.78412C23.0499 7.78158 22.9315 7.80887 22.8269 7.86318C22.7222 7.91748 22.6352 7.99681 22.5749 8.09288V7.82833H22.0753V9.94682H22.5749V8.7539C22.5749 8.40304 22.7414 8.20235 23.051 8.20235C23.1556 8.20624 23.2595 8.22107 23.3606 8.24655L23.5036 7.80518C23.3938 7.78699 23.2821 7.77969 23.1706 7.78342M16.7836 8.88863C16.7767 9.03691 16.8035 9.18486 16.8622 9.32292C16.9209 9.46099 17.0103 9.58609 17.1244 9.69013C17.2386 9.79418 17.375 9.87484 17.5249 9.92692C17.6748 9.97899 17.8349 10.0013 17.9947 9.99244C18.2875 10.0071 18.5758 9.92063 18.8038 9.74964L18.5662 9.37422C18.3976 9.50067 18.188 9.57064 17.9712 9.5728C17.8758 9.57506 17.7809 9.55855 17.6928 9.52436C17.6048 9.49017 17.5255 9.43908 17.4603 9.37444C17.3951 9.3098 17.3454 9.23309 17.3145 9.14936C17.2835 9.06562 17.2721 8.97676 17.2809 8.88863C17.2761 8.80132 17.2903 8.714 17.3227 8.63189C17.3551 8.54979 17.405 8.47457 17.4694 8.41072C17.5338 8.34687 17.6115 8.29571 17.6977 8.26027C17.7839 8.22483 17.8769 8.20585 17.9712 8.20445C18.188 8.20661 18.3976 8.27659 18.5662 8.40304L18.8038 8.02762C18.5758 7.85662 18.2875 7.77011 17.9947 7.78483C17.8349 7.77595 17.6748 7.79827 17.5249 7.85034C17.375 7.90242 17.2386 7.98308 17.1244 8.08713C17.0103 8.19117 16.9209 8.31628 16.8622 8.45434C16.8035 8.59241 16.7767 8.74036 16.7836 8.88863ZM21.4009 8.88863V7.82904H20.9013V8.09358C20.8175 7.99312 20.7089 7.91269 20.5848 7.85898C20.4606 7.80527 20.3244 7.77985 20.1875 7.78483C19.8808 7.79725 19.5911 7.91893 19.3789 8.12451C19.1666 8.33009 19.0481 8.60369 19.0481 8.88828C19.0481 9.17287 19.1666 9.44647 19.3789 9.65205C19.5911 9.85763 19.8808 9.97931 20.1875 9.99173C20.3251 10.0016 20.4631 9.97842 20.5882 9.92433C20.7132 9.87023 20.8211 9.78709 20.9013 9.68297V9.94752H21.4009V8.88863ZM19.5676 8.88863C19.5613 8.80103 19.5745 8.71316 19.6064 8.63048C19.6382 8.5478 19.6881 8.47206 19.7528 8.40796C19.8175 8.34386 19.8957 8.29276 19.9826 8.25782C20.0695 8.22288 20.1632 8.20486 20.2579 8.20486C20.3526 8.20486 20.4463 8.22288 20.5332 8.25782C20.6201 8.29276 20.6983 8.34386 20.763 8.40796C20.8277 8.47206 20.8776 8.5478 20.9094 8.63048C20.9413 8.71316 20.9545 8.80103 20.9482 8.88863C20.9545 8.97624 20.9413 9.0641 20.9094 9.14678C20.8776 9.22946 20.8277 9.30521 20.763 9.36931C20.6983 9.43341 20.6201 9.48451 20.5332 9.51945C20.4463 9.55438 20.3526 9.57241 20.2579 9.57241C20.1632 9.57241 20.0695 9.55438 19.9826 9.51945C19.8957 9.48451 19.8175 9.43341 19.7528 9.36931C19.6881 9.30521 19.6382 9.22946 19.6064 9.14678C19.5745 9.0641 19.5613 8.97624 19.5676 8.88863ZM13.5923 7.78483C13.2815 7.79436 12.9871 7.91625 12.7719 8.12445C12.5568 8.33264 12.438 8.61061 12.4411 8.8989C12.4442 9.1872 12.5688 9.46294 12.7883 9.66717C13.0078 9.87139 13.3048 9.98788 13.6158 9.99173C13.9518 9.99828 14.28 9.89689 14.5446 9.70473L14.3069 9.37352C14.1157 9.51123 13.8821 9.58868 13.64 9.59456C13.4769 9.60742 13.3146 9.56208 13.1863 9.4678C13.0581 9.37351 12.9734 9.23738 12.9497 9.08721H14.6399V8.91038C14.6631 8.77084 14.6532 8.62831 14.6111 8.49264C14.569 8.35698 14.4956 8.23142 14.3959 8.12464C14.2963 8.01787 14.1729 7.93243 14.0341 7.87424C13.8954 7.81605 13.7446 7.7865 13.5923 7.78763M13.5923 8.18481C13.6659 8.18303 13.7391 8.19478 13.8077 8.21937C13.8763 8.24397 13.939 8.28091 13.9921 8.32808C14.0453 8.37525 14.0878 8.43171 14.1173 8.4942C14.1467 8.55668 14.1626 8.62396 14.1638 8.69215H12.9777C12.9924 8.55061 13.0645 8.41952 13.1794 8.32535C13.2944 8.23118 13.4436 8.18095 13.5969 8.18481M26 8.89073V6.99609H25.5004V8.09288C25.4165 7.99232 25.3079 7.91182 25.1836 7.85811C25.0593 7.8044 24.9229 7.77904 24.7859 7.78412C24.4792 7.79655 24.1895 7.91823 23.9772 8.12381C23.765 8.32938 23.6465 8.60299 23.6465 8.88757C23.6465 9.17216 23.765 9.44576 23.9772 9.65134C24.1895 9.85692 24.4792 9.97861 24.7859 9.99103C24.9236 10.001 25.0617 9.97781 25.1869 9.92372C25.3121 9.86962 25.4201 9.78645 25.5004 9.68228V9.94682H26V8.89073ZM24.1667 8.89073C24.1604 8.80313 24.1737 8.71526 24.2055 8.63258C24.2374 8.5499 24.2872 8.47416 24.3519 8.41006C24.4166 8.34595 24.4949 8.29485 24.5817 8.25992C24.6686 8.22498 24.7623 8.20696 24.857 8.20696C24.9517 8.20696 25.0454 8.22498 25.1323 8.25992C25.2192 8.29485 25.2974 8.34595 25.3621 8.41006C25.4269 8.47416 25.4767 8.5499 25.5086 8.63258C25.5404 8.71526 25.5536 8.80313 25.5474 8.89073C25.5536 8.97834 25.5404 9.06621 25.5086 9.14889C25.4767 9.23157 25.4269 9.30731 25.3621 9.37141C25.2974 9.43551 25.2192 9.48661 25.1323 9.52155C25.0454 9.55648 24.9517 9.57452 24.857 9.57452C24.7623 9.57452 24.6686 9.55648 24.5817 9.52155C24.4949 9.48661 24.4166 9.43551 24.3519 9.37141C24.2872 9.30731 24.2374 9.23157 24.2055 9.14889C24.1737 9.06621 24.1604 8.97834 24.1667 8.89073ZM7.45437 8.89073V7.83114H6.9548V8.09569C6.87088 7.99513 6.76224 7.91463 6.63794 7.86092C6.51364 7.80721 6.37728 7.78184 6.24025 7.78693C5.93357 7.79935 5.64388 7.92104 5.43161 8.12662C5.21933 8.33219 5.10084 8.60579 5.10084 8.89038C5.10084 9.17497 5.21933 9.44858 5.43161 9.65416C5.64388 9.85974 5.93357 9.98142 6.24025 9.99384C6.37796 10.0038 6.5161 9.98062 6.6413 9.92652C6.76649 9.87243 6.87448 9.78926 6.9548 9.68508V9.94963H7.45437V8.89073ZM5.59761 8.89073C5.59135 8.80313 5.60456 8.71526 5.63642 8.63258C5.66828 8.5499 5.71811 8.47416 5.78282 8.41006C5.84754 8.34595 5.92576 8.29485 6.01265 8.25992C6.09953 8.22498 6.19323 8.20696 6.28794 8.20696C6.38265 8.20696 6.47634 8.22498 6.56323 8.25992C6.65011 8.29485 6.72834 8.34595 6.79306 8.41006C6.85777 8.47416 6.9076 8.5499 6.93946 8.63258C6.97132 8.71526 6.98452 8.80313 6.97826 8.89073C6.98452 8.97834 6.97132 9.06621 6.93946 9.14889C6.9076 9.23157 6.85777 9.30731 6.79306 9.37141C6.72834 9.43551 6.65011 9.48661 6.56323 9.52155C6.47634 9.55648 6.38265 9.57452 6.28794 9.57452C6.19323 9.57452 6.09953 9.55648 6.01265 9.52155C5.92576 9.48661 5.84754 9.43551 5.78282 9.37141C5.71811 9.30731 5.66828 9.23157 5.63642 9.14889C5.60456 9.06621 5.59135 8.97834 5.59761 8.89073Z" fill="#1A1A1A"/>
</g>
</svg>
