<svg width="248" height="248" viewBox="0 0 248 248" fill="none" xmlns="http://www.w3.org/2000/svg">
<rect x="0.5" y="0.5" width="247" height="247" rx="19.5" stroke="#ED1C24" stroke-opacity="0.15"/>
<rect x="26.2032" y="38.7032" width="63.5935" height="63.5935" rx="31.7968" stroke="white" stroke-width="0.406493"/>
<rect x="26.2032" y="38.7032" width="63.5935" height="63.5935" rx="31.7968" stroke="url(#paint0_linear_990_1013)" stroke-width="0.406493"/>
<path d="M68.9234 84.4595V86H47.0766V84.4595C47.0766 80.2006 50.5292 76.7485 54.7876 76.7485L55.4302 74.669C53.6651 73.7902 52.4106 72.0358 52.2366 69.9767C52.2176 69.7006 51.9925 69.4955 51.7293 69.4239C50.9003 69.2118 50.2902 68.4604 50.2902 67.5607C50.2902 66.9482 50.5733 66.4037 51.017 66.0508C50.6696 64.9311 50.2902 63.2855 50.2902 61.4562C50.2902 60.5699 51.009 59.8501 51.8962 59.8501C51.8962 59.8501 52.258 55.993 57.3576 56.6375C62.5967 57.3001 65.2188 56 65.2188 56C65.2188 56 66.3534 57.0988 66.3534 59.2075C66.3534 60.0557 66.1186 60.8485 65.7118 61.5245C65.7108 61.5231 65.7108 61.5218 65.7108 61.5208L65.7099 61.5278C65.7104 61.5264 65.7108 61.5259 65.7118 61.5245C65.9238 63.4678 65.5551 65.1562 65.1975 66.2484C65.5165 66.5925 65.7109 67.0538 65.7109 67.5606C65.7109 68.4603 65.1004 69.2118 64.2717 69.4238C64.0085 69.4954 63.7835 69.7005 63.7639 69.9767C63.5896 72.0347 62.336 73.7896 60.5708 74.668L61.2134 76.7484C65.4718 76.7485 68.9234 80.2006 68.9234 84.4595Z" fill="#ED1F29"/>
<path d="M28.752 171.5C28.752 169.793 28.88 168.193 29.136 166.7C29.4347 165.207 29.9467 163.777 30.672 162.412C31.44 161.047 32.5067 159.745 33.872 158.508C35.2373 157.228 37.008 155.991 39.184 154.796C40.464 154.071 41.744 153.388 43.024 152.748C44.3467 152.108 45.5627 151.425 46.672 150.7C47.824 149.975 48.7413 149.185 49.424 148.332C50.1067 147.436 50.448 146.412 50.448 145.26C50.448 144.279 50.1493 143.34 49.552 142.444C48.9973 141.505 48.144 140.759 46.992 140.204C45.8827 139.607 44.496 139.308 42.832 139.308C41.552 139.308 40.3787 139.479 39.312 139.82C38.288 140.161 37.3493 140.609 36.496 141.164C35.6853 141.676 34.96 142.231 34.32 142.828C33.7227 143.383 33.2107 143.895 32.784 144.364L29.264 140.396C29.6053 140.012 30.1813 139.5 30.992 138.86C31.8027 138.177 32.8267 137.495 34.064 136.812C35.3013 136.129 36.7307 135.553 38.352 135.084C40.016 134.572 41.8293 134.316 43.792 134.316C46.4373 134.316 48.6987 134.785 50.576 135.724C52.496 136.62 53.968 137.857 54.992 139.436C56.016 140.972 56.528 142.7 56.528 144.62C56.528 146.284 56.1653 147.735 55.44 148.972C54.7573 150.209 53.8613 151.297 52.752 152.236C51.6853 153.175 50.5547 153.985 49.36 154.668C48.208 155.308 47.1627 155.863 46.224 156.332C44.304 157.271 42.6613 158.124 41.296 158.892C39.9307 159.66 38.8 160.428 37.904 161.196C37.0507 161.921 36.3467 162.689 35.792 163.5C35.28 164.311 34.896 165.271 34.64 166.38H57.232V171.5H28.752ZM62.554 150.636C62.554 147.735 63.258 145.111 64.666 142.764C66.1167 140.375 68.0793 138.476 70.554 137.068C73.0287 135.66 75.7807 134.956 78.81 134.956C82.0953 134.956 84.954 135.745 87.386 137.324C89.8607 138.86 91.7807 141.1 93.146 144.044C94.554 146.945 95.258 150.444 95.258 154.54C95.258 160.513 94.554 165.484 93.146 169.452C91.738 173.42 89.754 176.385 87.194 178.348C84.634 180.353 81.6473 181.356 78.234 181.356C75.29 181.356 72.602 180.631 70.17 179.18C67.7807 177.772 65.9033 175.809 64.538 173.292L67.994 169.9C68.9327 171.863 70.3193 173.441 72.154 174.636C74.0313 175.831 76.0793 176.428 78.298 176.428C80.6447 176.428 82.6713 175.724 84.378 174.316C86.1273 172.908 87.4713 170.881 88.41 168.236C89.3913 165.591 89.9033 162.391 89.946 158.636C89.3487 160.087 88.4527 161.367 87.258 162.476C86.106 163.585 84.762 164.439 83.226 165.036C81.69 165.633 80.026 165.932 78.234 165.932C75.3327 165.932 72.6873 165.249 70.298 163.884C67.9087 162.519 66.01 160.684 64.602 158.38C63.2367 156.076 62.554 153.495 62.554 150.636ZM78.746 139.82C76.7833 139.82 74.97 140.311 73.306 141.292C71.6847 142.273 70.3833 143.575 69.402 145.196C68.4207 146.817 67.93 148.631 67.93 150.636C67.93 152.599 68.4207 154.391 69.402 156.012C70.3833 157.633 71.6847 158.935 73.306 159.916C74.97 160.897 76.7833 161.388 78.746 161.388C80.7513 161.388 82.5647 160.897 84.186 159.916C85.8073 158.935 87.1087 157.633 88.09 156.012C89.0713 154.391 89.562 152.599 89.562 150.636C89.562 148.673 89.0713 146.881 88.09 145.26C87.1087 143.596 85.786 142.273 84.122 141.292C82.5007 140.311 80.7087 139.82 78.746 139.82ZM120.85 156.396C122.684 156.695 124.263 157.377 125.586 158.444C126.908 159.468 127.932 160.791 128.658 162.412C129.383 163.991 129.746 165.783 129.746 167.788C129.746 170.391 129.106 172.673 127.826 174.636C126.588 176.641 124.818 178.177 122.514 179.244C120.21 180.353 117.522 180.908 114.45 180.908C111.207 180.908 108.348 180.289 105.874 179.052C103.442 177.857 101.543 176.151 100.178 173.932L103.954 170.156C104.935 171.863 106.258 173.228 107.922 174.252C109.628 175.276 111.804 175.788 114.45 175.788C117.394 175.788 119.698 175.105 121.362 173.74C123.068 172.417 123.922 170.433 123.922 167.788C123.922 165.1 123.004 162.967 121.17 161.388C119.378 159.767 116.754 158.956 113.298 158.956H111.634V154.22H113.426C116.498 154.22 118.844 153.473 120.466 151.98C122.13 150.487 122.962 148.631 122.962 146.412C122.962 144.876 122.599 143.617 121.874 142.636C121.148 141.655 120.167 140.929 118.93 140.46C117.692 139.948 116.263 139.692 114.642 139.692C112.295 139.692 110.226 140.204 108.434 141.228C106.684 142.209 105.319 143.596 104.338 145.388L100.882 141.804C101.65 140.353 102.738 139.095 104.146 138.028C105.596 136.961 107.26 136.129 109.138 135.532C111.058 134.935 113.084 134.636 115.218 134.636C117.906 134.636 120.274 135.105 122.322 136.044C124.412 136.983 126.034 138.305 127.186 140.012C128.338 141.719 128.914 143.724 128.914 146.028C128.914 147.692 128.594 149.271 127.954 150.764C127.314 152.215 126.375 153.452 125.138 154.476C123.943 155.457 122.514 156.097 120.85 156.396ZM149.268 181.036C146.025 181.036 143.103 180.268 140.5 178.732C137.897 177.196 135.935 175.148 134.612 172.588L138.132 169.516C139.327 171.479 140.905 173.057 142.868 174.252C144.873 175.447 147.028 176.044 149.332 176.044C151.295 176.044 153.044 175.617 154.58 174.764C156.116 173.911 157.332 172.737 158.228 171.244C159.124 169.708 159.572 167.959 159.572 165.996C159.572 164.076 159.124 162.391 158.228 160.94C157.375 159.489 156.201 158.359 154.708 157.548C153.257 156.737 151.615 156.332 149.78 156.332C147.945 156.332 146.217 156.737 144.596 157.548C143.017 158.359 141.716 159.511 140.692 161.004H135.636L140.756 134.956H162.836V140.14H144.916L142.164 154.604C143.103 153.623 144.276 152.855 145.684 152.3C147.135 151.703 148.735 151.404 150.484 151.404C153.3 151.404 155.817 152.023 158.036 153.26C160.297 154.497 162.068 156.204 163.348 158.38C164.671 160.556 165.332 163.073 165.332 165.932C165.332 168.919 164.607 171.543 163.156 173.804C161.748 176.108 159.828 177.879 157.396 179.116C154.964 180.396 152.255 181.036 149.268 181.036ZM190.475 147.82V149.74H181.835V159.084H179.723V149.74H171.083V147.82H179.723V138.476H181.835V147.82H190.475Z" fill="url(#paint1_linear_990_1013)"/>
<path d="M40.1382 209.5V198.66L35.4582 207H34.3582L29.6582 198.66V209.5H27.8582V195.3H29.7582L34.8982 204.52L40.0582 195.3H41.9382V209.5H40.1382ZM49.5029 209.7C48.7162 209.7 47.9962 209.56 47.3429 209.28C46.7029 208.987 46.1429 208.593 45.6629 208.1C45.1962 207.593 44.8296 207.013 44.5629 206.36C44.3096 205.707 44.1829 205.013 44.1829 204.28C44.1829 203.293 44.4096 202.393 44.8629 201.58C45.3162 200.767 45.9429 200.113 46.7429 199.62C47.5562 199.127 48.4829 198.88 49.5229 198.88C50.5762 198.88 51.4896 199.133 52.2629 199.64C53.0496 200.133 53.6562 200.787 54.0829 201.6C54.5229 202.4 54.7429 203.267 54.7429 204.2C54.7429 204.333 54.7362 204.467 54.7229 204.6C54.7229 204.72 54.7162 204.813 54.7029 204.88H46.0429C46.0962 205.56 46.2829 206.167 46.6029 206.7C46.9362 207.22 47.3629 207.633 47.8829 207.94C48.4029 208.233 48.9629 208.38 49.5629 208.38C50.2029 208.38 50.8029 208.22 51.3629 207.9C51.9362 207.58 52.3296 207.16 52.5429 206.64L54.0629 207.06C53.8362 207.567 53.4962 208.02 53.0429 208.42C52.6029 208.82 52.0762 209.133 51.4629 209.36C50.8629 209.587 50.2096 209.7 49.5029 209.7ZM45.9829 203.66H53.1029C53.0496 202.98 52.8562 202.38 52.5229 201.86C52.1896 201.34 51.7629 200.933 51.2429 200.64C50.7229 200.347 50.1496 200.2 49.5229 200.2C48.9096 200.2 48.3429 200.347 47.8229 200.64C47.3029 200.933 46.8762 201.34 46.5429 201.86C46.2229 202.38 46.0362 202.98 45.9829 203.66ZM65.7593 209.5H63.9993V203.66C63.9993 202.553 63.826 201.747 63.4793 201.24C63.146 200.72 62.6326 200.46 61.9393 200.46C61.4593 200.46 60.9793 200.58 60.4993 200.82C60.0326 201.06 59.6126 201.387 59.2393 201.8C58.8793 202.2 58.6193 202.667 58.4593 203.2V209.5H56.6993V199.06H58.2993V201.3C58.5793 200.807 58.9393 200.38 59.3793 200.02C59.8193 199.66 60.3193 199.38 60.8793 199.18C61.4393 198.98 62.026 198.88 62.6393 198.88C63.2393 198.88 63.7393 198.993 64.1393 199.22C64.5526 199.433 64.8726 199.74 65.0993 200.14C65.3393 200.527 65.506 200.987 65.5993 201.52C65.706 202.053 65.7593 202.633 65.7593 203.26V209.5ZM72.0762 209.7C71.2095 209.7 70.3962 209.56 69.6362 209.28C68.8762 208.987 68.2228 208.553 67.6762 207.98L68.3562 206.74C68.9562 207.3 69.5562 207.7 70.1562 207.94C70.7562 208.18 71.3695 208.3 71.9962 208.3C72.7162 208.3 73.3028 208.167 73.7562 207.9C74.2095 207.62 74.4362 207.213 74.4362 206.68C74.4362 206.293 74.3162 206.007 74.0762 205.82C73.8495 205.633 73.5228 205.48 73.0962 205.36C72.6695 205.227 72.1628 205.08 71.5762 204.92C70.8562 204.707 70.2495 204.48 69.7562 204.24C69.2628 204 68.8895 203.7 68.6362 203.34C68.3828 202.98 68.2562 202.527 68.2562 201.98C68.2562 201.313 68.4295 200.753 68.7762 200.3C69.1228 199.833 69.5962 199.48 70.1962 199.24C70.8095 199 71.5028 198.88 72.2762 198.88C73.0495 198.88 73.7495 199 74.3762 199.24C75.0028 199.48 75.5428 199.833 75.9962 200.3L75.1962 201.52C74.7828 201.093 74.3295 200.78 73.8362 200.58C73.3428 200.367 72.7895 200.26 72.1762 200.26C71.8162 200.26 71.4628 200.307 71.1162 200.4C70.7695 200.48 70.4828 200.633 70.2562 200.86C70.0295 201.073 69.9162 201.38 69.9162 201.78C69.9162 202.113 70.0028 202.38 70.1762 202.58C70.3628 202.767 70.6295 202.927 70.9762 203.06C71.3362 203.193 71.7695 203.34 72.2762 203.5C73.0628 203.727 73.7428 203.953 74.3162 204.18C74.9028 204.407 75.3562 204.7 75.6762 205.06C75.9962 205.42 76.1562 205.92 76.1562 206.56C76.1562 207.547 75.7828 208.32 75.0362 208.88C74.2895 209.427 73.3028 209.7 72.0762 209.7Z" fill="black"/>
<defs>
<linearGradient id="paint0_linear_990_1013" x1="26" y1="70.5" x2="71.9374" y2="77.1256" gradientUnits="userSpaceOnUse">
<stop stop-color="#F05A8E"/>
<stop offset="1" stop-color="#ED1C24"/>
</linearGradient>
<linearGradient id="paint1_linear_990_1013" x1="26" y1="149" x2="121.426" y2="200.383" gradientUnits="userSpaceOnUse">
<stop stop-color="#F05A8E"/>
<stop offset="1" stop-color="#ED1C24"/>
</linearGradient>
</defs>
</svg>
