<svg width="318" height="70" viewBox="0 0 318 70" fill="none" xmlns="http://www.w3.org/2000/svg">
<rect x="0.5" width="317" height="70" rx="35" fill="#F9C58B" fill-opacity="0.25"/>
<rect x="12.5" y="12" width="140.5" height="46" rx="23" fill="url(#paint0_linear_990_1060)"/>
<path d="M64.355 29.575V40H62.645V32.86L59.465 40H58.28L55.085 32.86V40H53.375V29.575H55.22L58.88 37.75L62.525 29.575H64.355ZM70.1875 40.135C69.4075 40.135 68.7025 39.96 68.0725 39.61C67.4425 39.25 66.9475 38.75 66.5875 38.11C66.2275 37.46 66.0475 36.71 66.0475 35.86C66.0475 35.02 66.2325 34.275 66.6025 33.625C66.9725 32.975 67.4775 32.475 68.1175 32.125C68.7575 31.775 69.4725 31.6 70.2625 31.6C71.0525 31.6 71.7675 31.775 72.4075 32.125C73.0475 32.475 73.5525 32.975 73.9225 33.625C74.2925 34.275 74.4775 35.02 74.4775 35.86C74.4775 36.7 74.2875 37.445 73.9075 38.095C73.5275 38.745 73.0075 39.25 72.3475 39.61C71.6975 39.96 70.9775 40.135 70.1875 40.135ZM70.1875 38.65C70.6275 38.65 71.0375 38.545 71.4175 38.335C71.8075 38.125 72.1225 37.81 72.3625 37.39C72.6025 36.97 72.7225 36.46 72.7225 35.86C72.7225 35.26 72.6075 34.755 72.3775 34.345C72.1475 33.925 71.8425 33.61 71.4625 33.4C71.0825 33.19 70.6725 33.085 70.2325 33.085C69.7925 33.085 69.3825 33.19 69.0025 33.4C68.6325 33.61 68.3375 33.925 68.1175 34.345C67.8975 34.755 67.7875 35.26 67.7875 35.86C67.7875 36.75 68.0125 37.44 68.4625 37.93C68.9225 38.41 69.4975 38.65 70.1875 38.65ZM80.338 31.6C80.988 31.6 81.568 31.735 82.078 32.005C82.598 32.275 83.003 32.675 83.293 33.205C83.583 33.735 83.728 34.375 83.728 35.125V40H82.033V35.38C82.033 34.64 81.848 34.075 81.478 33.685C81.108 33.285 80.603 33.085 79.963 33.085C79.323 33.085 78.813 33.285 78.433 33.685C78.063 34.075 77.878 34.64 77.878 35.38V40H76.168V31.735H77.878V32.68C78.158 32.34 78.513 32.075 78.943 31.885C79.383 31.695 79.848 31.6 80.338 31.6ZM87.9042 33.13V37.705C87.9042 38.015 87.9742 38.24 88.1142 38.38C88.2642 38.51 88.5142 38.575 88.8642 38.575H89.9142V40H88.5642C87.7942 40 87.2042 39.82 86.7942 39.46C86.3842 39.1 86.1792 38.515 86.1792 37.705V33.13H85.2042V31.735H86.1792V29.68H87.9042V31.735H89.9142V33.13H87.9042ZM95.7652 31.6C96.3952 31.6 96.9552 31.735 97.4452 32.005C97.9452 32.275 98.3352 32.675 98.6152 33.205C98.9052 33.735 99.0502 34.375 99.0502 35.125V40H97.3552V35.38C97.3552 34.64 97.1702 34.075 96.8002 33.685C96.4302 33.285 95.9252 33.085 95.2852 33.085C94.6452 33.085 94.1352 33.285 93.7552 33.685C93.3852 34.075 93.2002 34.64 93.2002 35.38V40H91.4902V28.9H93.2002V32.695C93.4902 32.345 93.8552 32.075 94.2952 31.885C94.7452 31.695 95.2352 31.6 95.7652 31.6ZM102.941 28.9V40H101.231V28.9H102.941ZM112.627 31.735L107.557 43.885H105.787L107.467 39.865L104.212 31.735H106.117L108.442 38.035L110.857 31.735H112.627Z" fill="white"/>
<path d="M189.31 40.105C188.61 40.105 187.98 39.985 187.42 39.745C186.86 39.495 186.42 39.145 186.1 38.695C185.78 38.245 185.62 37.72 185.62 37.12H187.45C187.49 37.57 187.665 37.94 187.975 38.23C188.295 38.52 188.74 38.665 189.31 38.665C189.9 38.665 190.36 38.525 190.69 38.245C191.02 37.955 191.185 37.585 191.185 37.135C191.185 36.785 191.08 36.5 190.87 36.28C190.67 36.06 190.415 35.89 190.105 35.77C189.805 35.65 189.385 35.52 188.845 35.38C188.165 35.2 187.61 35.02 187.18 34.84C186.76 34.65 186.4 34.36 186.1 33.97C185.8 33.58 185.65 33.06 185.65 32.41C185.65 31.81 185.8 31.285 186.1 30.835C186.4 30.385 186.82 30.04 187.36 29.8C187.9 29.56 188.525 29.44 189.235 29.44C190.245 29.44 191.07 29.695 191.71 30.205C192.36 30.705 192.72 31.395 192.79 32.275H190.9C190.87 31.895 190.69 31.57 190.36 31.3C190.03 31.03 189.595 30.895 189.055 30.895C188.565 30.895 188.165 31.02 187.855 31.27C187.545 31.52 187.39 31.88 187.39 32.35C187.39 32.67 187.485 32.935 187.675 33.145C187.875 33.345 188.125 33.505 188.425 33.625C188.725 33.745 189.135 33.875 189.655 34.015C190.345 34.205 190.905 34.395 191.335 34.585C191.775 34.775 192.145 35.07 192.445 35.47C192.755 35.86 192.91 36.385 192.91 37.045C192.91 37.575 192.765 38.075 192.475 38.545C192.195 39.015 191.78 39.395 191.23 39.685C190.69 39.965 190.05 40.105 189.31 40.105ZM196.638 32.95C196.928 32.57 197.323 32.25 197.823 31.99C198.323 31.73 198.888 31.6 199.518 31.6C200.238 31.6 200.893 31.78 201.483 32.14C202.083 32.49 202.553 32.985 202.893 33.625C203.233 34.265 203.403 35 203.403 35.83C203.403 36.66 203.233 37.405 202.893 38.065C202.553 38.715 202.083 39.225 201.483 39.595C200.893 39.955 200.238 40.135 199.518 40.135C198.888 40.135 198.328 40.01 197.838 39.76C197.348 39.5 196.948 39.18 196.638 38.8V43.93H194.928V31.735H196.638V32.95ZM201.663 35.83C201.663 35.26 201.543 34.77 201.303 34.36C201.073 33.94 200.763 33.625 200.373 33.415C199.993 33.195 199.583 33.085 199.143 33.085C198.713 33.085 198.303 33.195 197.913 33.415C197.533 33.635 197.223 33.955 196.983 34.375C196.753 34.795 196.638 35.29 196.638 35.86C196.638 36.43 196.753 36.93 196.983 37.36C197.223 37.78 197.533 38.1 197.913 38.32C198.303 38.54 198.713 38.65 199.143 38.65C199.583 38.65 199.993 38.54 200.373 38.32C200.763 38.09 201.073 37.76 201.303 37.33C201.543 36.9 201.663 36.4 201.663 35.83ZM212.669 35.665C212.669 35.975 212.649 36.255 212.609 36.505H206.294C206.344 37.165 206.589 37.695 207.029 38.095C207.469 38.495 208.009 38.695 208.649 38.695C209.569 38.695 210.219 38.31 210.599 37.54H212.444C212.194 38.3 211.739 38.925 211.079 39.415C210.429 39.895 209.619 40.135 208.649 40.135C207.859 40.135 207.149 39.96 206.519 39.61C205.899 39.25 205.409 38.75 205.049 38.11C204.699 37.46 204.524 36.71 204.524 35.86C204.524 35.01 204.694 34.265 205.034 33.625C205.384 32.975 205.869 32.475 206.489 32.125C207.119 31.775 207.839 31.6 208.649 31.6C209.429 31.6 210.124 31.77 210.734 32.11C211.344 32.45 211.819 32.93 212.159 33.55C212.499 34.16 212.669 34.865 212.669 35.665ZM210.884 35.125C210.874 34.495 210.649 33.99 210.209 33.61C209.769 33.23 209.224 33.04 208.574 33.04C207.984 33.04 207.479 33.23 207.059 33.61C206.639 33.98 206.389 34.485 206.309 35.125H210.884ZM213.782 35.86C213.782 35.01 213.952 34.265 214.292 33.625C214.642 32.975 215.122 32.475 215.732 32.125C216.342 31.775 217.042 31.6 217.832 31.6C218.832 31.6 219.657 31.84 220.307 32.32C220.967 32.79 221.412 33.465 221.642 34.345H219.797C219.647 33.935 219.407 33.615 219.077 33.385C218.747 33.155 218.332 33.04 217.832 33.04C217.132 33.04 216.572 33.29 216.152 33.79C215.742 34.28 215.537 34.97 215.537 35.86C215.537 36.75 215.742 37.445 216.152 37.945C216.572 38.445 217.132 38.695 217.832 38.695C218.822 38.695 219.477 38.26 219.797 37.39H221.642C221.402 38.23 220.952 38.9 220.292 39.4C219.632 39.89 218.812 40.135 217.832 40.135C217.042 40.135 216.342 39.96 215.732 39.61C215.122 39.25 214.642 38.75 214.292 38.11C213.952 37.46 213.782 36.71 213.782 35.86ZM224.216 30.64C223.906 30.64 223.646 30.535 223.436 30.325C223.226 30.115 223.121 29.855 223.121 29.545C223.121 29.235 223.226 28.975 223.436 28.765C223.646 28.555 223.906 28.45 224.216 28.45C224.516 28.45 224.771 28.555 224.981 28.765C225.191 28.975 225.296 29.235 225.296 29.545C225.296 29.855 225.191 30.115 224.981 30.325C224.771 30.535 224.516 30.64 224.216 30.64ZM225.056 31.735V40H223.346V31.735H225.056ZM226.731 35.83C226.731 35 226.901 34.265 227.241 33.625C227.591 32.985 228.061 32.49 228.651 32.14C229.251 31.78 229.911 31.6 230.631 31.6C231.281 31.6 231.846 31.73 232.326 31.99C232.816 32.24 233.206 32.555 233.496 32.935V31.735H235.221V40H233.496V38.77C233.206 39.16 232.811 39.485 232.311 39.745C231.811 40.005 231.241 40.135 230.601 40.135C229.891 40.135 229.241 39.955 228.651 39.595C228.061 39.225 227.591 38.715 227.241 38.065C226.901 37.405 226.731 36.66 226.731 35.83ZM233.496 35.86C233.496 35.29 233.376 34.795 233.136 34.375C232.906 33.955 232.601 33.635 232.221 33.415C231.841 33.195 231.431 33.085 230.991 33.085C230.551 33.085 230.141 33.195 229.761 33.415C229.381 33.625 229.071 33.94 228.831 34.36C228.601 34.77 228.486 35.26 228.486 35.83C228.486 36.4 228.601 36.9 228.831 37.33C229.071 37.76 229.381 38.09 229.761 38.32C230.151 38.54 230.561 38.65 230.991 38.65C231.431 38.65 231.841 38.54 232.221 38.32C232.601 38.1 232.906 37.78 233.136 37.36C233.376 36.93 233.496 36.43 233.496 35.86ZM239.177 28.9V40H237.467V28.9H239.177ZM252.608 32.68C252.608 33.21 252.483 33.71 252.233 34.18C251.983 34.65 251.583 35.035 251.033 35.335C250.483 35.625 249.778 35.77 248.918 35.77H247.028V40H245.318V29.575H248.918C249.718 29.575 250.393 29.715 250.943 29.995C251.503 30.265 251.918 30.635 252.188 31.105C252.468 31.575 252.608 32.1 252.608 32.68ZM248.918 34.375C249.568 34.375 250.053 34.23 250.373 33.94C250.693 33.64 250.853 33.22 250.853 32.68C250.853 31.54 250.208 30.97 248.918 30.97H247.028V34.375H248.918ZM255.949 28.9V40H254.239V28.9H255.949ZM257.624 35.83C257.624 35 257.794 34.265 258.134 33.625C258.484 32.985 258.954 32.49 259.544 32.14C260.144 31.78 260.804 31.6 261.524 31.6C262.174 31.6 262.739 31.73 263.219 31.99C263.709 32.24 264.099 32.555 264.389 32.935V31.735H266.114V40H264.389V38.77C264.099 39.16 263.704 39.485 263.204 39.745C262.704 40.005 262.134 40.135 261.494 40.135C260.784 40.135 260.134 39.955 259.544 39.595C258.954 39.225 258.484 38.715 258.134 38.065C257.794 37.405 257.624 36.66 257.624 35.83ZM264.389 35.86C264.389 35.29 264.269 34.795 264.029 34.375C263.799 33.955 263.494 33.635 263.114 33.415C262.734 33.195 262.324 33.085 261.884 33.085C261.444 33.085 261.034 33.195 260.654 33.415C260.274 33.625 259.964 33.94 259.724 34.36C259.494 34.77 259.379 35.26 259.379 35.83C259.379 36.4 259.494 36.9 259.724 37.33C259.964 37.76 260.274 38.09 260.654 38.32C261.044 38.54 261.454 38.65 261.884 38.65C262.324 38.65 262.734 38.54 263.114 38.32C263.494 38.1 263.799 37.78 264.029 37.36C264.269 36.93 264.389 36.43 264.389 35.86ZM272.53 31.6C273.18 31.6 273.76 31.735 274.27 32.005C274.79 32.275 275.195 32.675 275.485 33.205C275.775 33.735 275.92 34.375 275.92 35.125V40H274.225V35.38C274.225 34.64 274.04 34.075 273.67 33.685C273.3 33.285 272.795 33.085 272.155 33.085C271.515 33.085 271.005 33.285 270.625 33.685C270.255 34.075 270.07 34.64 270.07 35.38V40H268.36V31.735H270.07V32.68C270.35 32.34 270.705 32.075 271.135 31.885C271.575 31.695 272.04 31.6 272.53 31.6ZM281.102 40.135C280.452 40.135 279.867 40.02 279.347 39.79C278.837 39.55 278.432 39.23 278.132 38.83C277.832 38.42 277.672 37.965 277.652 37.465H279.422C279.452 37.815 279.617 38.11 279.917 38.35C280.227 38.58 280.612 38.695 281.072 38.695C281.552 38.695 281.922 38.605 282.182 38.425C282.452 38.235 282.587 37.995 282.587 37.705C282.587 37.395 282.437 37.165 282.137 37.015C281.847 36.865 281.382 36.7 280.742 36.52C280.122 36.35 279.617 36.185 279.227 36.025C278.837 35.865 278.497 35.62 278.207 35.29C277.927 34.96 277.787 34.525 277.787 33.985C277.787 33.545 277.917 33.145 278.177 32.785C278.437 32.415 278.807 32.125 279.287 31.915C279.777 31.705 280.337 31.6 280.967 31.6C281.907 31.6 282.662 31.84 283.232 32.32C283.812 32.79 284.122 33.435 284.162 34.255H282.452C282.422 33.885 282.272 33.59 282.002 33.37C281.732 33.15 281.367 33.04 280.907 33.04C280.457 33.04 280.112 33.125 279.872 33.295C279.632 33.465 279.512 33.69 279.512 33.97C279.512 34.19 279.592 34.375 279.752 34.525C279.912 34.675 280.107 34.795 280.337 34.885C280.567 34.965 280.907 35.07 281.357 35.2C281.957 35.36 282.447 35.525 282.827 35.695C283.217 35.855 283.552 36.095 283.832 36.415C284.112 36.735 284.257 37.16 284.267 37.69C284.267 38.16 284.137 38.58 283.877 38.95C283.617 39.32 283.247 39.61 282.767 39.82C282.297 40.03 281.742 40.135 281.102 40.135Z" fill="#C1645C"/>
<defs>
<linearGradient id="paint0_linear_990_1060" x1="12.5" y1="35" x2="153" y2="35" gradientUnits="userSpaceOnUse">
<stop stop-color="#F05A8E"/>
<stop offset="1" stop-color="#ED1C24"/>
</linearGradient>
</defs>
</svg>
