<svg width="387" height="387" viewBox="0 0 387 387" fill="none" xmlns="http://www.w3.org/2000/svg">
<rect width="387" height="387" rx="20" fill="white"/>
<rect x="0.5" y="0.5" width="386" height="386" rx="19.5" stroke="#ED1C24" stroke-opacity="0.15"/>
<rect x="138.356" y="62.3557" width="111.289" height="111.289" rx="55.6443" stroke="white" stroke-width="0.711362"/>
<rect x="138.356" y="62.3557" width="111.289" height="111.289" rx="55.6443" stroke="url(#paint0_linear_990_1045)" stroke-width="0.711362"/>
<path d="M225.5 137.32V145.125H194V137.32C194 133.029 197.29 129.548 201.35 129.548H204.81L205.19 127.157C198.669 129.114 195.174 125.019 195.174 125.019C196.07 122.958 197.15 119.272 197.15 112.611V105.948C197.15 102.268 198.56 98.9378 200.84 96.5265C203.12 94.116 206.269 92.625 209.75 92.625C216.708 92.625 222.35 98.5892 222.35 105.948V112.611C222.35 119.272 223.43 122.958 224.326 125.019C224.326 125.019 220.848 129.094 214.358 127.17L214.784 129.548H218.151C222.21 129.548 225.5 133.029 225.5 137.32Z" fill="#F05A8E"/>
<path d="M199.727 142.429V145.125H162.5V142.429C162.5 134.976 168.383 128.935 175.64 128.935L176.735 125.296C173.727 123.758 171.589 120.688 171.293 117.084C171.26 116.601 170.877 116.242 170.428 116.117C169.016 115.746 167.976 114.431 167.976 112.856C167.976 111.784 168.458 110.832 169.214 110.214C168.623 108.254 167.976 105.375 167.976 102.173C167.976 100.622 169.201 99.3627 170.713 99.3627C170.713 99.3627 171.329 92.6128 180.019 93.7406C188.947 94.9001 193.415 92.625 193.415 92.625C193.415 92.625 195.348 94.5478 195.348 98.2381C195.348 99.7224 194.948 101.11 194.255 102.293C194.253 102.291 194.253 102.288 194.253 102.286L194.251 102.299C194.252 102.296 194.253 102.295 194.255 102.293C194.616 105.694 193.988 108.648 193.378 110.56C193.922 111.162 194.253 111.969 194.253 112.856C194.253 114.431 193.213 115.746 191.801 116.117C191.352 116.242 190.969 116.601 190.935 117.084C190.638 120.686 188.502 123.757 185.494 125.294L186.589 128.935C193.846 128.935 199.727 134.976 199.727 142.429Z" fill="#ED1F29"/>
<path d="M118.825 231.605L119.294 219.659C119.294 219.204 119.152 218.905 118.868 218.763C118.327 218.535 117.815 218.421 117.332 218.421C117.246 218.279 117.218 218.08 117.246 217.824C117.275 217.54 117.303 217.383 117.332 217.355C117.986 217.383 118.498 217.426 118.868 217.483C119.237 217.511 119.749 217.525 120.404 217.525L123.348 217.355L128.681 229.301L128.766 229.344C128.852 229.344 128.894 229.287 128.894 229.173L130.089 226.187C131.767 222.005 132.791 219.104 133.161 217.483C133.161 217.483 133.289 217.483 133.545 217.483L134.868 217.525C134.868 217.525 135.053 217.525 135.422 217.525C135.849 217.525 137.2 217.468 139.476 217.355C139.533 217.412 139.575 217.582 139.604 217.867C139.661 218.123 139.661 218.308 139.604 218.421C139.461 218.421 139.205 218.45 138.836 218.507C138.494 218.564 138.253 218.649 138.11 218.763C137.826 218.962 137.698 219.332 137.726 219.872C137.755 220.384 137.783 221.124 137.812 222.091C137.84 223.029 137.869 224.068 137.897 225.205C137.954 226.343 137.997 227.495 138.025 228.661C138.053 229.799 138.096 230.738 138.153 231.477C138.238 233.07 138.366 234.094 138.537 234.549C138.594 234.805 139.063 234.976 139.945 235.061C140.116 235.061 140.229 235.061 140.286 235.061C140.457 235.46 140.471 235.815 140.329 236.128C138.622 235.957 137.314 235.872 136.404 235.872C135.493 235.872 134.057 235.957 132.094 236.128C132.037 236.071 131.995 235.915 131.966 235.659C131.966 235.403 131.995 235.204 132.052 235.061C132.649 235.061 133.104 235.004 133.417 234.891C133.758 234.748 133.957 234.635 134.014 234.549C134.157 234.208 134.228 233.881 134.228 233.568V231.819L133.972 223.157C133.972 221.906 133.886 221.28 133.716 221.28C133.659 221.28 133.616 221.337 133.588 221.451L128.638 234.891C128.439 235.289 128.212 235.588 127.956 235.787C127.728 235.957 127.557 236.043 127.444 236.043C127.33 236.043 127.245 236.028 127.188 236L120.873 221.28C120.816 222.731 120.773 223.911 120.745 224.821C120.745 225.732 120.731 226.556 120.702 227.296C120.617 229.401 120.56 230.837 120.532 231.605C120.475 232.885 120.503 233.739 120.617 234.165C120.674 234.507 121.342 234.777 122.622 234.976C122.878 235.033 123.035 235.061 123.092 235.061C123.149 235.175 123.177 235.346 123.177 235.573C123.205 235.801 123.191 235.986 123.134 236.128C122.565 236.071 121.997 236.014 121.428 235.957C120.859 235.9 120.318 235.872 119.806 235.872C119.323 235.872 118.1 235.957 116.137 236.128C115.966 235.787 115.952 235.445 116.094 235.104C116.692 235.104 117.218 234.976 117.673 234.72C118.128 234.464 118.384 234.279 118.441 234.165C118.498 234.052 118.541 233.881 118.569 233.653C118.626 233.426 118.669 233.184 118.697 232.928C118.725 232.672 118.754 232.416 118.782 232.16C118.811 231.904 118.825 231.719 118.825 231.605ZM147.583 224.565C146.303 224.565 145.592 225.618 145.449 227.723C145.392 228.292 145.364 228.86 145.364 229.429C145.364 229.998 145.407 230.624 145.492 231.307C145.606 231.961 145.791 232.558 146.047 233.099C146.587 234.379 147.312 235.019 148.223 235.019C149.56 235.019 150.313 233.98 150.484 231.904C150.512 231.364 150.527 230.809 150.527 230.24C150.527 229.671 150.47 229.045 150.356 228.363C150.242 227.68 150.057 227.068 149.801 226.528C149.261 225.22 148.521 224.565 147.583 224.565ZM147.924 223.413C148.891 223.413 149.773 223.57 150.569 223.883C151.394 224.196 152.105 224.636 152.703 225.205C153.926 226.4 154.537 227.893 154.537 229.685C154.537 231.449 153.897 232.985 152.617 234.293C151.394 235.573 149.844 236.213 147.967 236.213C146.004 236.213 144.411 235.602 143.188 234.379C141.965 233.156 141.353 231.662 141.353 229.899C141.353 228.164 141.979 226.642 143.231 225.333C144.482 224.053 146.047 223.413 147.924 223.413ZM155.831 231.989C155.831 231.847 155.973 231.776 156.258 231.776C156.542 231.776 156.741 231.876 156.855 232.075C157.054 233.184 157.481 233.995 158.135 234.507C158.619 234.905 159.159 235.104 159.756 235.104C160.354 235.104 160.795 234.948 161.079 234.635C161.364 234.322 161.506 233.98 161.506 233.611C161.506 233.241 161.406 232.942 161.207 232.715C161.036 232.459 160.809 232.245 160.524 232.075C160.268 231.904 159.97 231.733 159.628 231.563C158.377 230.994 157.324 230.311 156.471 229.515C155.902 228.974 155.618 228.292 155.618 227.467C155.618 226.613 155.788 225.945 156.13 225.461C156.471 224.978 156.898 224.58 157.41 224.267C158.377 223.669 159.529 223.371 160.866 223.371C161.52 223.371 162.089 223.442 162.572 223.584C163.056 223.698 163.54 223.812 164.023 223.925C164.194 224.636 164.336 225.362 164.45 226.101C164.564 226.841 164.62 227.282 164.62 227.424C164.62 227.538 164.492 227.595 164.236 227.595C163.98 227.595 163.767 227.509 163.596 227.339C163.369 226.514 163.113 225.916 162.828 225.547C162.231 224.864 161.492 224.523 160.61 224.523C160.126 224.523 159.728 224.651 159.415 224.907C159.131 225.163 158.988 225.504 158.988 225.931C158.988 226.357 159.074 226.699 159.244 226.955C159.444 227.211 159.671 227.438 159.927 227.637C160.212 227.808 160.524 227.964 160.866 228.107C161.207 228.249 161.548 228.405 161.89 228.576C162.231 228.718 162.587 228.889 162.956 229.088C163.326 229.287 163.653 229.529 163.938 229.813C164.592 230.468 164.919 231.236 164.919 232.117C164.919 232.971 164.763 233.639 164.45 234.123C164.137 234.606 163.724 235.004 163.212 235.317C162.245 235.915 160.965 236.213 159.372 236.213C158.718 236.213 158.092 236.142 157.495 236C156.898 235.829 156.414 235.701 156.044 235.616C155.988 235.218 155.945 234.706 155.916 234.08C155.888 233.426 155.86 232.942 155.831 232.629C155.831 232.288 155.831 232.075 155.831 231.989ZM165.085 224.907C165.313 224.594 165.612 224.281 165.981 223.968H167.219V222.475C167.759 221.991 168.271 221.479 168.755 220.939C169.267 220.398 169.736 219.915 170.163 219.488C170.333 219.374 170.49 219.332 170.632 219.36C170.774 219.36 170.86 219.403 170.888 219.488V223.968H174.088C174.202 223.968 174.259 224.11 174.259 224.395C174.259 224.651 174.045 224.949 173.619 225.291H170.888V232.245C170.888 233.668 171.4 234.379 172.424 234.379C172.737 234.379 173.05 234.293 173.363 234.123C173.676 233.924 173.86 233.796 173.917 233.739C174.031 233.852 174.088 233.952 174.088 234.037C174.088 234.293 174.031 234.478 173.917 234.592C173.832 234.706 173.69 234.848 173.491 235.019C173.32 235.189 173.107 235.36 172.851 235.531C172.111 235.986 171.485 236.213 170.973 236.213C170.49 236.213 170.02 236.142 169.565 236C169.139 235.886 168.755 235.659 168.413 235.317C167.617 234.606 167.219 233.525 167.219 232.075V225.291H165.213C165.128 225.234 165.085 225.106 165.085 224.907ZM193.385 236.128C190.712 235.872 188.038 235.872 185.364 236.128C185.307 236.043 185.279 235.872 185.279 235.616C185.279 235.36 185.307 235.175 185.364 235.061C185.961 235.061 186.402 235.004 186.687 234.891C186.971 234.748 187.128 234.635 187.156 234.549C187.298 234.265 187.369 233.909 187.369 233.483C187.398 233.056 187.412 232.53 187.412 231.904V218.72H184.767C184.056 218.72 183.401 219.09 182.804 219.829C182.235 220.569 181.894 221.394 181.78 222.304C181.723 222.389 181.624 222.432 181.481 222.432C181.083 222.432 180.813 222.361 180.671 222.219L181.439 217.056C181.496 217.028 181.524 217.013 181.524 217.013C181.552 216.985 181.624 216.971 181.737 216.971C181.88 216.971 182.022 216.999 182.164 217.056C182.306 217.113 182.477 217.17 182.676 217.227C183.273 217.397 183.942 217.483 184.681 217.483H194.025C195.078 217.483 195.917 217.34 196.543 217.056C196.685 216.999 196.813 216.971 196.927 216.971C197.069 216.971 197.197 216.999 197.311 217.056L198.079 222.219C197.936 222.361 197.723 222.432 197.439 222.432C197.154 222.432 196.998 222.389 196.969 222.304C196.799 221.337 196.5 220.597 196.073 220.085C195.362 219.175 194.651 218.72 193.94 218.72H191.337V231.904C191.337 233.326 191.408 234.208 191.551 234.549C191.664 234.891 192.276 235.061 193.385 235.061C193.442 235.175 193.471 235.36 193.471 235.616C193.471 235.872 193.442 236.043 193.385 236.128ZM203.026 235.915C201.859 235.915 200.565 235.986 199.143 236.128C199.086 236.043 199.058 235.872 199.058 235.616C199.058 235.36 199.086 235.175 199.143 235.061C199.74 235.061 200.181 235.004 200.466 234.891C200.75 234.748 200.921 234.635 200.978 234.549C201.12 234.208 201.191 233.326 201.191 231.904V228.235C201.191 228.007 201.163 227.666 201.106 227.211C201.049 226.756 200.992 226.471 200.935 226.357C200.736 225.988 200.139 225.803 199.143 225.803C199.086 225.774 199.058 225.632 199.058 225.376C199.086 225.092 199.129 224.949 199.186 224.949C200.267 224.864 201.319 224.665 202.343 224.352C203.367 224.011 204.149 223.712 204.69 223.456C204.775 223.484 204.875 223.556 204.988 223.669C205.102 223.783 205.145 223.868 205.116 223.925C205.116 223.982 205.102 224.11 205.074 224.309C205.045 224.508 205.017 224.736 204.988 224.992C204.96 225.22 204.931 225.447 204.903 225.675C204.875 225.902 204.86 226.059 204.86 226.144C204.86 226.201 204.889 226.244 204.946 226.272C205.003 226.272 205.031 226.258 205.031 226.229C205.543 225.376 205.97 224.779 206.311 224.437C207.051 223.755 207.804 223.413 208.572 223.413C209.426 223.413 210.009 223.57 210.322 223.883C210.549 224.224 210.663 224.608 210.663 225.035C210.663 225.433 210.62 225.774 210.535 226.059C210.45 226.315 210.322 226.556 210.151 226.784C209.81 227.268 209.411 227.509 208.956 227.509C208.7 227.509 208.473 227.424 208.274 227.253C208.103 227.083 207.932 226.926 207.762 226.784C207.619 226.642 207.463 226.514 207.292 226.4C207.15 226.258 206.951 226.187 206.695 226.187C206.439 226.187 206.197 226.286 205.97 226.485C205.742 226.656 205.543 226.869 205.372 227.125C205.031 227.637 204.86 228.092 204.86 228.491V231.904C204.86 233.326 204.903 234.151 204.988 234.379C205.074 234.578 205.187 234.72 205.33 234.805C205.472 234.862 205.628 234.919 205.799 234.976C206.083 235.033 206.382 235.061 206.695 235.061C206.752 235.175 206.78 235.36 206.78 235.616C206.78 235.872 206.752 236.043 206.695 236.128C205.273 235.986 204.05 235.915 203.026 235.915ZM218.885 224.949C220.734 224.807 222.554 224.309 224.346 223.456C224.46 223.484 224.574 223.556 224.688 223.669C224.801 223.783 224.858 223.868 224.858 223.925C224.801 224.068 224.73 224.452 224.645 225.077C224.56 225.675 224.517 226.172 224.517 226.571V232.971C224.517 233.198 224.517 233.397 224.517 233.568C224.545 233.739 224.631 233.895 224.773 234.037C224.944 234.208 225.37 234.293 226.053 234.293C226.11 234.407 226.138 234.564 226.138 234.763C226.138 234.933 226.081 235.09 225.968 235.232C225.399 235.26 224.474 235.431 223.194 235.744C221.914 236.057 221.232 236.213 221.146 236.213C220.976 236.213 220.89 235.986 220.89 235.531V235.061C220.89 234.948 220.862 234.905 220.805 234.933C219.525 235.73 218.202 236.128 216.837 236.128C214.988 236.128 213.836 235.09 213.381 233.013C213.267 232.388 213.21 231.748 213.21 231.093V228.235C213.21 228.007 213.182 227.666 213.125 227.211C213.068 226.756 213.011 226.471 212.954 226.357C212.812 226.073 212.328 225.902 211.504 225.845C211.333 225.817 211.219 225.803 211.162 225.803C211.134 225.774 211.12 225.632 211.12 225.376C211.12 225.092 211.148 224.949 211.205 224.949C212.286 224.864 213.338 224.665 214.362 224.352C215.386 224.011 216.168 223.712 216.709 223.456C216.823 223.484 216.922 223.556 217.008 223.669C217.121 223.783 217.178 223.868 217.178 223.925C217.121 224.039 217.064 224.281 217.008 224.651C216.951 225.02 216.908 225.333 216.88 225.589C216.88 225.845 216.88 226.172 216.88 226.571V229.813C216.88 231.321 217.022 232.473 217.306 233.269C217.591 234.037 218.174 234.421 219.056 234.421C219.454 234.421 219.852 234.308 220.25 234.08C220.677 233.852 220.89 233.625 220.89 233.397V228.235C220.89 228.007 220.862 227.666 220.805 227.211C220.748 226.756 220.691 226.471 220.634 226.357C220.464 225.988 219.866 225.803 218.842 225.803C218.785 225.774 218.757 225.632 218.757 225.376C218.757 225.092 218.8 224.949 218.885 224.949ZM226.769 231.989C226.769 231.847 226.911 231.776 227.195 231.776C227.48 231.776 227.679 231.876 227.793 232.075C227.992 233.184 228.418 233.995 229.073 234.507C229.556 234.905 230.097 235.104 230.694 235.104C231.291 235.104 231.732 234.948 232.017 234.635C232.301 234.322 232.443 233.98 232.443 233.611C232.443 233.241 232.344 232.942 232.145 232.715C231.974 232.459 231.746 232.245 231.462 232.075C231.206 231.904 230.907 231.733 230.566 231.563C229.314 230.994 228.262 230.311 227.409 229.515C226.84 228.974 226.555 228.292 226.555 227.467C226.555 226.613 226.726 225.945 227.067 225.461C227.409 224.978 227.835 224.58 228.347 224.267C229.314 223.669 230.466 223.371 231.803 223.371C232.457 223.371 233.026 223.442 233.51 223.584C233.993 223.698 234.477 223.812 234.961 223.925C235.131 224.636 235.273 225.362 235.387 226.101C235.501 226.841 235.558 227.282 235.558 227.424C235.558 227.538 235.43 227.595 235.174 227.595C234.918 227.595 234.705 227.509 234.534 227.339C234.306 226.514 234.05 225.916 233.766 225.547C233.169 224.864 232.429 224.523 231.547 224.523C231.064 224.523 230.665 224.651 230.353 224.907C230.068 225.163 229.926 225.504 229.926 225.931C229.926 226.357 230.011 226.699 230.182 226.955C230.381 227.211 230.609 227.438 230.865 227.637C231.149 227.808 231.462 227.964 231.803 228.107C232.145 228.249 232.486 228.405 232.827 228.576C233.169 228.718 233.524 228.889 233.894 229.088C234.264 229.287 234.591 229.529 234.875 229.813C235.529 230.468 235.857 231.236 235.857 232.117C235.857 232.971 235.7 233.639 235.387 234.123C235.074 234.606 234.662 235.004 234.15 235.317C233.183 235.915 231.903 236.213 230.31 236.213C229.656 236.213 229.03 236.142 228.433 236C227.835 235.829 227.352 235.701 226.982 235.616C226.925 235.218 226.882 234.706 226.854 234.08C226.825 233.426 226.797 232.942 226.769 232.629C226.769 232.288 226.769 232.075 226.769 231.989ZM236.023 224.907C236.25 224.594 236.549 224.281 236.919 223.968H238.156V222.475C238.697 221.991 239.209 221.479 239.692 220.939C240.204 220.398 240.673 219.915 241.1 219.488C241.271 219.374 241.427 219.332 241.569 219.36C241.712 219.36 241.797 219.403 241.826 219.488V223.968H245.026C245.139 223.968 245.196 224.11 245.196 224.395C245.196 224.651 244.983 224.949 244.556 225.291H241.826V232.245C241.826 233.668 242.337 234.379 243.361 234.379C243.674 234.379 243.987 234.293 244.3 234.123C244.613 233.924 244.798 233.796 244.855 233.739C244.969 233.852 245.026 233.952 245.026 234.037C245.026 234.293 244.969 234.478 244.855 234.592C244.77 234.706 244.627 234.848 244.428 235.019C244.258 235.189 244.044 235.36 243.788 235.531C243.049 235.986 242.423 236.213 241.911 236.213C241.427 236.213 240.958 236.142 240.503 236C240.076 235.886 239.692 235.659 239.351 235.317C238.554 234.606 238.156 233.525 238.156 232.075V225.291H236.151C236.066 225.234 236.023 225.106 236.023 224.907ZM249.554 228.064C249.611 228.064 249.796 228.064 250.109 228.064C250.45 228.036 250.82 228.007 251.218 227.979C252.128 227.95 252.782 227.908 253.181 227.851C253.437 227.822 253.565 227.666 253.565 227.381C253.565 227.068 253.536 226.741 253.479 226.4C253.422 226.059 253.323 225.76 253.181 225.504C252.868 224.878 252.455 224.565 251.943 224.565C251.46 224.565 251.076 224.708 250.791 224.992C250.507 225.248 250.265 225.561 250.066 225.931C249.725 226.67 249.554 227.381 249.554 228.064ZM256.295 228.832C254.589 228.974 252.341 229.088 249.554 229.173C249.554 230.908 250.037 232.188 251.005 233.013C251.744 233.611 252.541 233.909 253.394 233.909C254.276 233.909 254.958 233.753 255.442 233.44C255.925 233.127 256.324 232.814 256.637 232.501C256.864 232.558 256.978 232.715 256.978 232.971C256.978 233.227 256.921 233.44 256.807 233.611C256.722 233.753 256.537 233.98 256.253 234.293C255.968 234.578 255.613 234.862 255.186 235.147C254.105 235.886 253.067 236.256 252.071 236.256C251.076 236.256 250.222 236.128 249.511 235.872C248.8 235.588 248.174 235.189 247.634 234.677C246.468 233.568 245.885 232.132 245.885 230.368C245.885 228.548 246.51 226.955 247.762 225.589C249.099 224.139 250.549 223.413 252.114 223.413C253.792 223.413 255.072 223.911 255.954 224.907C256.693 225.703 257.063 226.628 257.063 227.68C257.063 227.993 256.992 228.263 256.85 228.491C256.708 228.718 256.523 228.832 256.295 228.832ZM266.753 235.531V235.061C266.753 234.948 266.711 234.919 266.625 234.976C266.54 235.033 266.383 235.132 266.156 235.275C265.928 235.417 265.658 235.559 265.345 235.701C263.895 236.356 262.543 236.37 261.292 235.744C260.012 235.147 259.102 234.123 258.561 232.672C258.277 231.961 258.135 231.108 258.135 230.112C258.135 229.088 258.391 228.149 258.903 227.296C259.443 226.414 260.097 225.689 260.865 225.12C261.633 224.551 262.43 224.139 263.255 223.883C264.108 223.598 264.847 223.456 265.473 223.456C266.099 223.456 266.483 223.47 266.625 223.499C266.711 223.499 266.753 223.285 266.753 222.859V220.299C266.753 219.701 266.696 219.246 266.583 218.933C266.497 218.763 266.227 218.635 265.772 218.549C265.345 218.464 265.047 218.421 264.876 218.421C264.819 218.421 264.791 218.293 264.791 218.037C264.791 217.753 264.819 217.582 264.876 217.525C266.469 217.383 267.763 217.17 268.759 216.885C269.754 216.572 270.28 216.43 270.337 216.459C270.423 216.459 270.508 216.516 270.593 216.629C270.679 216.743 270.721 216.843 270.721 216.928C270.522 217.724 270.423 218.663 270.423 219.744V232.971C270.423 233.198 270.423 233.397 270.423 233.568C270.451 233.739 270.536 233.895 270.679 234.037C270.849 234.208 271.276 234.293 271.959 234.293C272.015 234.407 272.044 234.564 272.044 234.763C272.044 234.933 271.987 235.09 271.873 235.232C271.361 235.26 270.636 235.388 269.697 235.616C268.019 236.014 267.109 236.213 266.967 236.213C266.824 236.213 266.753 235.986 266.753 235.531ZM264.961 234.421C265.359 234.421 265.758 234.293 266.156 234.037C266.554 233.781 266.753 233.568 266.753 233.397V226.144C266.753 225.888 266.54 225.618 266.113 225.333C265.687 225.02 265.203 224.864 264.663 224.864C264.151 224.864 263.738 224.992 263.425 225.248C263.112 225.476 262.856 225.788 262.657 226.187C262.316 226.955 262.145 228.036 262.145 229.429C262.145 230.795 262.387 231.975 262.871 232.971C263.383 233.938 264.079 234.421 264.961 234.421Z" fill="url(#paint1_linear_990_1045)"/>
<path d="M118.825 231.605L119.294 219.659C119.294 219.204 119.152 218.905 118.868 218.763C118.327 218.535 117.815 218.421 117.332 218.421C117.246 218.279 117.218 218.08 117.246 217.824C117.275 217.54 117.303 217.383 117.332 217.355C117.986 217.383 118.498 217.426 118.868 217.483C119.237 217.511 119.749 217.525 120.404 217.525L123.348 217.355L128.681 229.301L128.766 229.344C128.852 229.344 128.894 229.287 128.894 229.173L130.089 226.187C131.767 222.005 132.791 219.104 133.161 217.483C133.161 217.483 133.289 217.483 133.545 217.483L134.868 217.525C134.868 217.525 135.053 217.525 135.422 217.525C135.849 217.525 137.2 217.468 139.476 217.355C139.533 217.412 139.575 217.582 139.604 217.867C139.661 218.123 139.661 218.308 139.604 218.421C139.461 218.421 139.205 218.45 138.836 218.507C138.494 218.564 138.253 218.649 138.11 218.763C137.826 218.962 137.698 219.332 137.726 219.872C137.755 220.384 137.783 221.124 137.812 222.091C137.84 223.029 137.869 224.068 137.897 225.205C137.954 226.343 137.997 227.495 138.025 228.661C138.053 229.799 138.096 230.738 138.153 231.477C138.238 233.07 138.366 234.094 138.537 234.549C138.594 234.805 139.063 234.976 139.945 235.061C140.116 235.061 140.229 235.061 140.286 235.061C140.457 235.46 140.471 235.815 140.329 236.128C138.622 235.957 137.314 235.872 136.404 235.872C135.493 235.872 134.057 235.957 132.094 236.128C132.037 236.071 131.995 235.915 131.966 235.659C131.966 235.403 131.995 235.204 132.052 235.061C132.649 235.061 133.104 235.004 133.417 234.891C133.758 234.748 133.957 234.635 134.014 234.549C134.157 234.208 134.228 233.881 134.228 233.568V231.819L133.972 223.157C133.972 221.906 133.886 221.28 133.716 221.28C133.659 221.28 133.616 221.337 133.588 221.451L128.638 234.891C128.439 235.289 128.212 235.588 127.956 235.787C127.728 235.957 127.557 236.043 127.444 236.043C127.33 236.043 127.245 236.028 127.188 236L120.873 221.28C120.816 222.731 120.773 223.911 120.745 224.821C120.745 225.732 120.731 226.556 120.702 227.296C120.617 229.401 120.56 230.837 120.532 231.605C120.475 232.885 120.503 233.739 120.617 234.165C120.674 234.507 121.342 234.777 122.622 234.976C122.878 235.033 123.035 235.061 123.092 235.061C123.149 235.175 123.177 235.346 123.177 235.573C123.205 235.801 123.191 235.986 123.134 236.128C122.565 236.071 121.997 236.014 121.428 235.957C120.859 235.9 120.318 235.872 119.806 235.872C119.323 235.872 118.1 235.957 116.137 236.128C115.966 235.787 115.952 235.445 116.094 235.104C116.692 235.104 117.218 234.976 117.673 234.72C118.128 234.464 118.384 234.279 118.441 234.165C118.498 234.052 118.541 233.881 118.569 233.653C118.626 233.426 118.669 233.184 118.697 232.928C118.725 232.672 118.754 232.416 118.782 232.16C118.811 231.904 118.825 231.719 118.825 231.605ZM147.583 224.565C146.303 224.565 145.592 225.618 145.449 227.723C145.392 228.292 145.364 228.86 145.364 229.429C145.364 229.998 145.407 230.624 145.492 231.307C145.606 231.961 145.791 232.558 146.047 233.099C146.587 234.379 147.312 235.019 148.223 235.019C149.56 235.019 150.313 233.98 150.484 231.904C150.512 231.364 150.527 230.809 150.527 230.24C150.527 229.671 150.47 229.045 150.356 228.363C150.242 227.68 150.057 227.068 149.801 226.528C149.261 225.22 148.521 224.565 147.583 224.565ZM147.924 223.413C148.891 223.413 149.773 223.57 150.569 223.883C151.394 224.196 152.105 224.636 152.703 225.205C153.926 226.4 154.537 227.893 154.537 229.685C154.537 231.449 153.897 232.985 152.617 234.293C151.394 235.573 149.844 236.213 147.967 236.213C146.004 236.213 144.411 235.602 143.188 234.379C141.965 233.156 141.353 231.662 141.353 229.899C141.353 228.164 141.979 226.642 143.231 225.333C144.482 224.053 146.047 223.413 147.924 223.413ZM155.831 231.989C155.831 231.847 155.973 231.776 156.258 231.776C156.542 231.776 156.741 231.876 156.855 232.075C157.054 233.184 157.481 233.995 158.135 234.507C158.619 234.905 159.159 235.104 159.756 235.104C160.354 235.104 160.795 234.948 161.079 234.635C161.364 234.322 161.506 233.98 161.506 233.611C161.506 233.241 161.406 232.942 161.207 232.715C161.036 232.459 160.809 232.245 160.524 232.075C160.268 231.904 159.97 231.733 159.628 231.563C158.377 230.994 157.324 230.311 156.471 229.515C155.902 228.974 155.618 228.292 155.618 227.467C155.618 226.613 155.788 225.945 156.13 225.461C156.471 224.978 156.898 224.58 157.41 224.267C158.377 223.669 159.529 223.371 160.866 223.371C161.52 223.371 162.089 223.442 162.572 223.584C163.056 223.698 163.54 223.812 164.023 223.925C164.194 224.636 164.336 225.362 164.45 226.101C164.564 226.841 164.62 227.282 164.62 227.424C164.62 227.538 164.492 227.595 164.236 227.595C163.98 227.595 163.767 227.509 163.596 227.339C163.369 226.514 163.113 225.916 162.828 225.547C162.231 224.864 161.492 224.523 160.61 224.523C160.126 224.523 159.728 224.651 159.415 224.907C159.131 225.163 158.988 225.504 158.988 225.931C158.988 226.357 159.074 226.699 159.244 226.955C159.444 227.211 159.671 227.438 159.927 227.637C160.212 227.808 160.524 227.964 160.866 228.107C161.207 228.249 161.548 228.405 161.89 228.576C162.231 228.718 162.587 228.889 162.956 229.088C163.326 229.287 163.653 229.529 163.938 229.813C164.592 230.468 164.919 231.236 164.919 232.117C164.919 232.971 164.763 233.639 164.45 234.123C164.137 234.606 163.724 235.004 163.212 235.317C162.245 235.915 160.965 236.213 159.372 236.213C158.718 236.213 158.092 236.142 157.495 236C156.898 235.829 156.414 235.701 156.044 235.616C155.988 235.218 155.945 234.706 155.916 234.08C155.888 233.426 155.86 232.942 155.831 232.629C155.831 232.288 155.831 232.075 155.831 231.989ZM165.085 224.907C165.313 224.594 165.612 224.281 165.981 223.968H167.219V222.475C167.759 221.991 168.271 221.479 168.755 220.939C169.267 220.398 169.736 219.915 170.163 219.488C170.333 219.374 170.49 219.332 170.632 219.36C170.774 219.36 170.86 219.403 170.888 219.488V223.968H174.088C174.202 223.968 174.259 224.11 174.259 224.395C174.259 224.651 174.045 224.949 173.619 225.291H170.888V232.245C170.888 233.668 171.4 234.379 172.424 234.379C172.737 234.379 173.05 234.293 173.363 234.123C173.676 233.924 173.86 233.796 173.917 233.739C174.031 233.852 174.088 233.952 174.088 234.037C174.088 234.293 174.031 234.478 173.917 234.592C173.832 234.706 173.69 234.848 173.491 235.019C173.32 235.189 173.107 235.36 172.851 235.531C172.111 235.986 171.485 236.213 170.973 236.213C170.49 236.213 170.02 236.142 169.565 236C169.139 235.886 168.755 235.659 168.413 235.317C167.617 234.606 167.219 233.525 167.219 232.075V225.291H165.213C165.128 225.234 165.085 225.106 165.085 224.907ZM193.385 236.128C190.712 235.872 188.038 235.872 185.364 236.128C185.307 236.043 185.279 235.872 185.279 235.616C185.279 235.36 185.307 235.175 185.364 235.061C185.961 235.061 186.402 235.004 186.687 234.891C186.971 234.748 187.128 234.635 187.156 234.549C187.298 234.265 187.369 233.909 187.369 233.483C187.398 233.056 187.412 232.53 187.412 231.904V218.72H184.767C184.056 218.72 183.401 219.09 182.804 219.829C182.235 220.569 181.894 221.394 181.78 222.304C181.723 222.389 181.624 222.432 181.481 222.432C181.083 222.432 180.813 222.361 180.671 222.219L181.439 217.056C181.496 217.028 181.524 217.013 181.524 217.013C181.552 216.985 181.624 216.971 181.737 216.971C181.88 216.971 182.022 216.999 182.164 217.056C182.306 217.113 182.477 217.17 182.676 217.227C183.273 217.397 183.942 217.483 184.681 217.483H194.025C195.078 217.483 195.917 217.34 196.543 217.056C196.685 216.999 196.813 216.971 196.927 216.971C197.069 216.971 197.197 216.999 197.311 217.056L198.079 222.219C197.936 222.361 197.723 222.432 197.439 222.432C197.154 222.432 196.998 222.389 196.969 222.304C196.799 221.337 196.5 220.597 196.073 220.085C195.362 219.175 194.651 218.72 193.94 218.72H191.337V231.904C191.337 233.326 191.408 234.208 191.551 234.549C191.664 234.891 192.276 235.061 193.385 235.061C193.442 235.175 193.471 235.36 193.471 235.616C193.471 235.872 193.442 236.043 193.385 236.128ZM203.026 235.915C201.859 235.915 200.565 235.986 199.143 236.128C199.086 236.043 199.058 235.872 199.058 235.616C199.058 235.36 199.086 235.175 199.143 235.061C199.74 235.061 200.181 235.004 200.466 234.891C200.75 234.748 200.921 234.635 200.978 234.549C201.12 234.208 201.191 233.326 201.191 231.904V228.235C201.191 228.007 201.163 227.666 201.106 227.211C201.049 226.756 200.992 226.471 200.935 226.357C200.736 225.988 200.139 225.803 199.143 225.803C199.086 225.774 199.058 225.632 199.058 225.376C199.086 225.092 199.129 224.949 199.186 224.949C200.267 224.864 201.319 224.665 202.343 224.352C203.367 224.011 204.149 223.712 204.69 223.456C204.775 223.484 204.875 223.556 204.988 223.669C205.102 223.783 205.145 223.868 205.116 223.925C205.116 223.982 205.102 224.11 205.074 224.309C205.045 224.508 205.017 224.736 204.988 224.992C204.96 225.22 204.931 225.447 204.903 225.675C204.875 225.902 204.86 226.059 204.86 226.144C204.86 226.201 204.889 226.244 204.946 226.272C205.003 226.272 205.031 226.258 205.031 226.229C205.543 225.376 205.97 224.779 206.311 224.437C207.051 223.755 207.804 223.413 208.572 223.413C209.426 223.413 210.009 223.57 210.322 223.883C210.549 224.224 210.663 224.608 210.663 225.035C210.663 225.433 210.62 225.774 210.535 226.059C210.45 226.315 210.322 226.556 210.151 226.784C209.81 227.268 209.411 227.509 208.956 227.509C208.7 227.509 208.473 227.424 208.274 227.253C208.103 227.083 207.932 226.926 207.762 226.784C207.619 226.642 207.463 226.514 207.292 226.4C207.15 226.258 206.951 226.187 206.695 226.187C206.439 226.187 206.197 226.286 205.97 226.485C205.742 226.656 205.543 226.869 205.372 227.125C205.031 227.637 204.86 228.092 204.86 228.491V231.904C204.86 233.326 204.903 234.151 204.988 234.379C205.074 234.578 205.187 234.72 205.33 234.805C205.472 234.862 205.628 234.919 205.799 234.976C206.083 235.033 206.382 235.061 206.695 235.061C206.752 235.175 206.78 235.36 206.78 235.616C206.78 235.872 206.752 236.043 206.695 236.128C205.273 235.986 204.05 235.915 203.026 235.915ZM218.885 224.949C220.734 224.807 222.554 224.309 224.346 223.456C224.46 223.484 224.574 223.556 224.688 223.669C224.801 223.783 224.858 223.868 224.858 223.925C224.801 224.068 224.73 224.452 224.645 225.077C224.56 225.675 224.517 226.172 224.517 226.571V232.971C224.517 233.198 224.517 233.397 224.517 233.568C224.545 233.739 224.631 233.895 224.773 234.037C224.944 234.208 225.37 234.293 226.053 234.293C226.11 234.407 226.138 234.564 226.138 234.763C226.138 234.933 226.081 235.09 225.968 235.232C225.399 235.26 224.474 235.431 223.194 235.744C221.914 236.057 221.232 236.213 221.146 236.213C220.976 236.213 220.89 235.986 220.89 235.531V235.061C220.89 234.948 220.862 234.905 220.805 234.933C219.525 235.73 218.202 236.128 216.837 236.128C214.988 236.128 213.836 235.09 213.381 233.013C213.267 232.388 213.21 231.748 213.21 231.093V228.235C213.21 228.007 213.182 227.666 213.125 227.211C213.068 226.756 213.011 226.471 212.954 226.357C212.812 226.073 212.328 225.902 211.504 225.845C211.333 225.817 211.219 225.803 211.162 225.803C211.134 225.774 211.12 225.632 211.12 225.376C211.12 225.092 211.148 224.949 211.205 224.949C212.286 224.864 213.338 224.665 214.362 224.352C215.386 224.011 216.168 223.712 216.709 223.456C216.823 223.484 216.922 223.556 217.008 223.669C217.121 223.783 217.178 223.868 217.178 223.925C217.121 224.039 217.064 224.281 217.008 224.651C216.951 225.02 216.908 225.333 216.88 225.589C216.88 225.845 216.88 226.172 216.88 226.571V229.813C216.88 231.321 217.022 232.473 217.306 233.269C217.591 234.037 218.174 234.421 219.056 234.421C219.454 234.421 219.852 234.308 220.25 234.08C220.677 233.852 220.89 233.625 220.89 233.397V228.235C220.89 228.007 220.862 227.666 220.805 227.211C220.748 226.756 220.691 226.471 220.634 226.357C220.464 225.988 219.866 225.803 218.842 225.803C218.785 225.774 218.757 225.632 218.757 225.376C218.757 225.092 218.8 224.949 218.885 224.949ZM226.769 231.989C226.769 231.847 226.911 231.776 227.195 231.776C227.48 231.776 227.679 231.876 227.793 232.075C227.992 233.184 228.418 233.995 229.073 234.507C229.556 234.905 230.097 235.104 230.694 235.104C231.291 235.104 231.732 234.948 232.017 234.635C232.301 234.322 232.443 233.98 232.443 233.611C232.443 233.241 232.344 232.942 232.145 232.715C231.974 232.459 231.746 232.245 231.462 232.075C231.206 231.904 230.907 231.733 230.566 231.563C229.314 230.994 228.262 230.311 227.409 229.515C226.84 228.974 226.555 228.292 226.555 227.467C226.555 226.613 226.726 225.945 227.067 225.461C227.409 224.978 227.835 224.58 228.347 224.267C229.314 223.669 230.466 223.371 231.803 223.371C232.457 223.371 233.026 223.442 233.51 223.584C233.993 223.698 234.477 223.812 234.961 223.925C235.131 224.636 235.273 225.362 235.387 226.101C235.501 226.841 235.558 227.282 235.558 227.424C235.558 227.538 235.43 227.595 235.174 227.595C234.918 227.595 234.705 227.509 234.534 227.339C234.306 226.514 234.05 225.916 233.766 225.547C233.169 224.864 232.429 224.523 231.547 224.523C231.064 224.523 230.665 224.651 230.353 224.907C230.068 225.163 229.926 225.504 229.926 225.931C229.926 226.357 230.011 226.699 230.182 226.955C230.381 227.211 230.609 227.438 230.865 227.637C231.149 227.808 231.462 227.964 231.803 228.107C232.145 228.249 232.486 228.405 232.827 228.576C233.169 228.718 233.524 228.889 233.894 229.088C234.264 229.287 234.591 229.529 234.875 229.813C235.529 230.468 235.857 231.236 235.857 232.117C235.857 232.971 235.7 233.639 235.387 234.123C235.074 234.606 234.662 235.004 234.15 235.317C233.183 235.915 231.903 236.213 230.31 236.213C229.656 236.213 229.03 236.142 228.433 236C227.835 235.829 227.352 235.701 226.982 235.616C226.925 235.218 226.882 234.706 226.854 234.08C226.825 233.426 226.797 232.942 226.769 232.629C226.769 232.288 226.769 232.075 226.769 231.989ZM236.023 224.907C236.25 224.594 236.549 224.281 236.919 223.968H238.156V222.475C238.697 221.991 239.209 221.479 239.692 220.939C240.204 220.398 240.673 219.915 241.1 219.488C241.271 219.374 241.427 219.332 241.569 219.36C241.712 219.36 241.797 219.403 241.826 219.488V223.968H245.026C245.139 223.968 245.196 224.11 245.196 224.395C245.196 224.651 244.983 224.949 244.556 225.291H241.826V232.245C241.826 233.668 242.337 234.379 243.361 234.379C243.674 234.379 243.987 234.293 244.3 234.123C244.613 233.924 244.798 233.796 244.855 233.739C244.969 233.852 245.026 233.952 245.026 234.037C245.026 234.293 244.969 234.478 244.855 234.592C244.77 234.706 244.627 234.848 244.428 235.019C244.258 235.189 244.044 235.36 243.788 235.531C243.049 235.986 242.423 236.213 241.911 236.213C241.427 236.213 240.958 236.142 240.503 236C240.076 235.886 239.692 235.659 239.351 235.317C238.554 234.606 238.156 233.525 238.156 232.075V225.291H236.151C236.066 225.234 236.023 225.106 236.023 224.907ZM249.554 228.064C249.611 228.064 249.796 228.064 250.109 228.064C250.45 228.036 250.82 228.007 251.218 227.979C252.128 227.95 252.782 227.908 253.181 227.851C253.437 227.822 253.565 227.666 253.565 227.381C253.565 227.068 253.536 226.741 253.479 226.4C253.422 226.059 253.323 225.76 253.181 225.504C252.868 224.878 252.455 224.565 251.943 224.565C251.46 224.565 251.076 224.708 250.791 224.992C250.507 225.248 250.265 225.561 250.066 225.931C249.725 226.67 249.554 227.381 249.554 228.064ZM256.295 228.832C254.589 228.974 252.341 229.088 249.554 229.173C249.554 230.908 250.037 232.188 251.005 233.013C251.744 233.611 252.541 233.909 253.394 233.909C254.276 233.909 254.958 233.753 255.442 233.44C255.925 233.127 256.324 232.814 256.637 232.501C256.864 232.558 256.978 232.715 256.978 232.971C256.978 233.227 256.921 233.44 256.807 233.611C256.722 233.753 256.537 233.98 256.253 234.293C255.968 234.578 255.613 234.862 255.186 235.147C254.105 235.886 253.067 236.256 252.071 236.256C251.076 236.256 250.222 236.128 249.511 235.872C248.8 235.588 248.174 235.189 247.634 234.677C246.468 233.568 245.885 232.132 245.885 230.368C245.885 228.548 246.51 226.955 247.762 225.589C249.099 224.139 250.549 223.413 252.114 223.413C253.792 223.413 255.072 223.911 255.954 224.907C256.693 225.703 257.063 226.628 257.063 227.68C257.063 227.993 256.992 228.263 256.85 228.491C256.708 228.718 256.523 228.832 256.295 228.832ZM266.753 235.531V235.061C266.753 234.948 266.711 234.919 266.625 234.976C266.54 235.033 266.383 235.132 266.156 235.275C265.928 235.417 265.658 235.559 265.345 235.701C263.895 236.356 262.543 236.37 261.292 235.744C260.012 235.147 259.102 234.123 258.561 232.672C258.277 231.961 258.135 231.108 258.135 230.112C258.135 229.088 258.391 228.149 258.903 227.296C259.443 226.414 260.097 225.689 260.865 225.12C261.633 224.551 262.43 224.139 263.255 223.883C264.108 223.598 264.847 223.456 265.473 223.456C266.099 223.456 266.483 223.47 266.625 223.499C266.711 223.499 266.753 223.285 266.753 222.859V220.299C266.753 219.701 266.696 219.246 266.583 218.933C266.497 218.763 266.227 218.635 265.772 218.549C265.345 218.464 265.047 218.421 264.876 218.421C264.819 218.421 264.791 218.293 264.791 218.037C264.791 217.753 264.819 217.582 264.876 217.525C266.469 217.383 267.763 217.17 268.759 216.885C269.754 216.572 270.28 216.43 270.337 216.459C270.423 216.459 270.508 216.516 270.593 216.629C270.679 216.743 270.721 216.843 270.721 216.928C270.522 217.724 270.423 218.663 270.423 219.744V232.971C270.423 233.198 270.423 233.397 270.423 233.568C270.451 233.739 270.536 233.895 270.679 234.037C270.849 234.208 271.276 234.293 271.959 234.293C272.015 234.407 272.044 234.564 272.044 234.763C272.044 234.933 271.987 235.09 271.873 235.232C271.361 235.26 270.636 235.388 269.697 235.616C268.019 236.014 267.109 236.213 266.967 236.213C266.824 236.213 266.753 235.986 266.753 235.531ZM264.961 234.421C265.359 234.421 265.758 234.293 266.156 234.037C266.554 233.781 266.753 233.568 266.753 233.397V226.144C266.753 225.888 266.54 225.618 266.113 225.333C265.687 225.02 265.203 224.864 264.663 224.864C264.151 224.864 263.738 224.992 263.425 225.248C263.112 225.476 262.856 225.788 262.657 226.187C262.316 226.955 262.145 228.036 262.145 229.429C262.145 230.795 262.387 231.975 262.871 232.971C263.383 233.938 264.079 234.421 264.961 234.421Z" fill="#C1645C" fill-opacity="0.2"/>
<path d="M79.2877 269.4H74.3877V282H72.5877V269.4H67.6877V267.8H79.2877V269.4ZM90.1128 282H88.3528V276.16C88.3528 275.093 88.1595 274.293 87.7728 273.76C87.3995 273.227 86.8595 272.96 86.1528 272.96C85.6995 272.96 85.2395 273.08 84.7728 273.32C84.3195 273.56 83.9195 273.887 83.5728 274.3C83.2261 274.7 82.9728 275.167 82.8128 275.7V282H81.0528V267.4H82.8128V273.8C83.2261 273.053 83.7861 272.467 84.4928 272.04C85.2128 271.6 85.9861 271.38 86.8128 271.38C87.4395 271.38 87.9595 271.493 88.3728 271.72C88.7995 271.933 89.1395 272.24 89.3928 272.64C89.6461 273.04 89.8261 273.507 89.9328 274.04C90.0528 274.56 90.1128 275.133 90.1128 275.76V282ZM97.4697 282.2C96.683 282.2 95.963 282.06 95.3097 281.78C94.6697 281.487 94.1097 281.093 93.6297 280.6C93.163 280.093 92.7964 279.513 92.5297 278.86C92.2764 278.207 92.1497 277.513 92.1497 276.78C92.1497 275.793 92.3764 274.893 92.8297 274.08C93.283 273.267 93.9097 272.613 94.7097 272.12C95.523 271.627 96.4497 271.38 97.4897 271.38C98.543 271.38 99.4564 271.633 100.23 272.14C101.016 272.633 101.623 273.287 102.05 274.1C102.49 274.9 102.71 275.767 102.71 276.7C102.71 276.833 102.703 276.967 102.69 277.1C102.69 277.22 102.683 277.313 102.67 277.38H94.0097C94.063 278.06 94.2497 278.667 94.5697 279.2C94.903 279.72 95.3297 280.133 95.8497 280.44C96.3697 280.733 96.9297 280.88 97.5297 280.88C98.1697 280.88 98.7697 280.72 99.3297 280.4C99.903 280.08 100.296 279.66 100.51 279.14L102.03 279.56C101.803 280.067 101.463 280.52 101.01 280.92C100.57 281.32 100.043 281.633 99.4297 281.86C98.8297 282.087 98.1764 282.2 97.4697 282.2ZM93.9497 276.16H101.07C101.016 275.48 100.823 274.88 100.49 274.36C100.156 273.84 99.7297 273.433 99.2097 273.14C98.6897 272.847 98.1164 272.7 97.4897 272.7C96.8764 272.7 96.3097 272.847 95.7897 273.14C95.2697 273.433 94.843 273.84 94.5097 274.36C94.1897 274.88 94.003 275.48 93.9497 276.16ZM122.285 282V271.16L117.605 279.5H116.505L111.805 271.16V282H110.005V267.8H111.905L117.045 277.02L122.205 267.8H124.085V282H122.285ZM131.589 282.2C130.803 282.2 130.089 282.06 129.449 281.78C128.809 281.487 128.256 281.093 127.789 280.6C127.323 280.093 126.963 279.513 126.709 278.86C126.456 278.207 126.329 277.52 126.329 276.8C126.329 276.067 126.456 275.373 126.709 274.72C126.963 274.067 127.323 273.493 127.789 273C128.256 272.493 128.809 272.1 129.449 271.82C130.103 271.527 130.816 271.38 131.589 271.38C132.376 271.38 133.089 271.527 133.729 271.82C134.369 272.1 134.923 272.493 135.389 273C135.869 273.493 136.236 274.067 136.489 274.72C136.743 275.373 136.869 276.067 136.869 276.8C136.869 277.52 136.743 278.207 136.489 278.86C136.236 279.513 135.876 280.093 135.409 280.6C134.943 281.093 134.383 281.487 133.729 281.78C133.089 282.06 132.376 282.2 131.589 282.2ZM128.129 276.82C128.129 277.54 128.283 278.193 128.589 278.78C128.909 279.367 129.329 279.833 129.849 280.18C130.369 280.513 130.949 280.68 131.589 280.68C132.229 280.68 132.809 280.507 133.329 280.16C133.863 279.813 134.283 279.347 134.589 278.76C134.909 278.16 135.069 277.5 135.069 276.78C135.069 276.06 134.909 275.407 134.589 274.82C134.283 274.233 133.863 273.767 133.329 273.42C132.809 273.073 132.229 272.9 131.589 272.9C130.949 272.9 130.369 273.08 129.849 273.44C129.329 273.787 128.909 274.253 128.589 274.84C128.283 275.427 128.129 276.087 128.129 276.82ZM142.582 282.2C141.715 282.2 140.902 282.06 140.142 281.78C139.382 281.487 138.729 281.053 138.182 280.48L138.862 279.24C139.462 279.8 140.062 280.2 140.662 280.44C141.262 280.68 141.875 280.8 142.502 280.8C143.222 280.8 143.809 280.667 144.262 280.4C144.715 280.12 144.942 279.713 144.942 279.18C144.942 278.793 144.822 278.507 144.582 278.32C144.355 278.133 144.029 277.98 143.602 277.86C143.175 277.727 142.669 277.58 142.082 277.42C141.362 277.207 140.755 276.98 140.262 276.74C139.769 276.5 139.395 276.2 139.142 275.84C138.889 275.48 138.762 275.027 138.762 274.48C138.762 273.813 138.935 273.253 139.282 272.8C139.629 272.333 140.102 271.98 140.702 271.74C141.315 271.5 142.009 271.38 142.782 271.38C143.555 271.38 144.255 271.5 144.882 271.74C145.509 271.98 146.049 272.333 146.502 272.8L145.702 274.02C145.289 273.593 144.835 273.28 144.342 273.08C143.849 272.867 143.295 272.76 142.682 272.76C142.322 272.76 141.969 272.807 141.622 272.9C141.275 272.98 140.989 273.133 140.762 273.36C140.535 273.573 140.422 273.88 140.422 274.28C140.422 274.613 140.509 274.88 140.682 275.08C140.869 275.267 141.135 275.427 141.482 275.56C141.842 275.693 142.275 275.84 142.782 276C143.569 276.227 144.249 276.453 144.822 276.68C145.409 276.907 145.862 277.2 146.182 277.56C146.502 277.92 146.662 278.42 146.662 279.06C146.662 280.047 146.289 280.82 145.542 281.38C144.795 281.927 143.809 282.2 142.582 282.2ZM154.168 281.48C154.021 281.547 153.821 281.633 153.568 281.74C153.314 281.847 153.021 281.94 152.688 282.02C152.354 282.1 152.001 282.14 151.628 282.14C151.201 282.14 150.808 282.067 150.448 281.92C150.088 281.76 149.801 281.52 149.588 281.2C149.374 280.867 149.268 280.453 149.268 279.96V272.94H147.848V271.56H149.268V268.08H151.028V271.56H153.368V272.94H151.028V279.42C151.054 279.793 151.181 280.073 151.408 280.26C151.634 280.433 151.901 280.52 152.208 280.52C152.554 280.52 152.874 280.46 153.168 280.34C153.461 280.22 153.654 280.133 153.748 280.08L154.168 281.48ZM170.772 269.4H165.872V282H164.072V269.4H159.172V267.8H170.772V269.4ZM176.436 273.1C175.556 273.113 174.776 273.34 174.096 273.78C173.429 274.207 172.956 274.8 172.676 275.56V282H170.916V271.56H172.556V273.98C172.916 273.26 173.389 272.68 173.976 272.24C174.576 271.787 175.203 271.533 175.856 271.48C175.989 271.48 176.103 271.48 176.196 271.48C176.289 271.48 176.369 271.487 176.436 271.5V273.1ZM178.082 277.82V271.56H179.842V277.48C179.842 278.547 180.028 279.347 180.402 279.88C180.775 280.413 181.328 280.68 182.062 280.68C182.542 280.68 183.002 280.58 183.442 280.38C183.895 280.167 184.302 279.867 184.662 279.48C185.022 279.093 185.302 278.633 185.502 278.1V271.56H187.262V280C187.262 280.213 187.302 280.373 187.382 280.48C187.475 280.573 187.622 280.627 187.822 280.64V282C187.622 282.027 187.462 282.04 187.342 282.04C187.235 282.053 187.128 282.06 187.022 282.06C186.688 282.06 186.402 281.96 186.162 281.76C185.922 281.547 185.795 281.287 185.782 280.98L185.742 279.76C185.288 280.533 184.675 281.133 183.902 281.56C183.142 281.987 182.308 282.2 181.402 282.2C180.308 282.2 179.482 281.833 178.922 281.1C178.362 280.353 178.082 279.26 178.082 277.82ZM193.773 282.2C192.907 282.2 192.093 282.06 191.333 281.78C190.573 281.487 189.92 281.053 189.373 280.48L190.053 279.24C190.653 279.8 191.253 280.2 191.853 280.44C192.453 280.68 193.067 280.8 193.693 280.8C194.413 280.8 195 280.667 195.453 280.4C195.907 280.12 196.133 279.713 196.133 279.18C196.133 278.793 196.013 278.507 195.773 278.32C195.547 278.133 195.22 277.98 194.793 277.86C194.367 277.727 193.86 277.58 193.273 277.42C192.553 277.207 191.947 276.98 191.453 276.74C190.96 276.5 190.587 276.2 190.333 275.84C190.08 275.48 189.953 275.027 189.953 274.48C189.953 273.813 190.127 273.253 190.473 272.8C190.82 272.333 191.293 271.98 191.893 271.74C192.507 271.5 193.2 271.38 193.973 271.38C194.747 271.38 195.447 271.5 196.073 271.74C196.7 271.98 197.24 272.333 197.693 272.8L196.893 274.02C196.48 273.593 196.027 273.28 195.533 273.08C195.04 272.867 194.487 272.76 193.873 272.76C193.513 272.76 193.16 272.807 192.813 272.9C192.467 272.98 192.18 273.133 191.953 273.36C191.727 273.573 191.613 273.88 191.613 274.28C191.613 274.613 191.7 274.88 191.873 275.08C192.06 275.267 192.327 275.427 192.673 275.56C193.033 275.693 193.467 275.84 193.973 276C194.76 276.227 195.44 276.453 196.013 276.68C196.6 276.907 197.053 277.2 197.373 277.56C197.693 277.92 197.853 278.42 197.853 279.06C197.853 280.047 197.48 280.82 196.733 281.38C195.987 281.927 195 282.2 193.773 282.2ZM205.359 281.48C205.212 281.547 205.012 281.633 204.759 281.74C204.506 281.847 204.212 281.94 203.879 282.02C203.546 282.1 203.192 282.14 202.819 282.14C202.392 282.14 201.999 282.067 201.639 281.92C201.279 281.76 200.992 281.52 200.779 281.2C200.566 280.867 200.459 280.453 200.459 279.96V272.94H199.039V271.56H200.459V268.08H202.219V271.56H204.559V272.94H202.219V279.42C202.246 279.793 202.372 280.073 202.599 280.26C202.826 280.433 203.092 280.52 203.399 280.52C203.746 280.52 204.066 280.46 204.359 280.34C204.652 280.22 204.846 280.133 204.939 280.08L205.359 281.48ZM211.474 282.2C210.687 282.2 209.967 282.06 209.314 281.78C208.674 281.487 208.114 281.093 207.634 280.6C207.167 280.093 206.8 279.513 206.534 278.86C206.28 278.207 206.154 277.513 206.154 276.78C206.154 275.793 206.38 274.893 206.834 274.08C207.287 273.267 207.914 272.613 208.714 272.12C209.527 271.627 210.454 271.38 211.494 271.38C212.547 271.38 213.46 271.633 214.234 272.14C215.02 272.633 215.627 273.287 216.054 274.1C216.494 274.9 216.714 275.767 216.714 276.7C216.714 276.833 216.707 276.967 216.694 277.1C216.694 277.22 216.687 277.313 216.674 277.38H208.014C208.067 278.06 208.254 278.667 208.574 279.2C208.907 279.72 209.334 280.133 209.854 280.44C210.374 280.733 210.934 280.88 211.534 280.88C212.174 280.88 212.774 280.72 213.334 280.4C213.907 280.08 214.3 279.66 214.514 279.14L216.034 279.56C215.807 280.067 215.467 280.52 215.014 280.92C214.574 281.32 214.047 281.633 213.434 281.86C212.834 282.087 212.18 282.2 211.474 282.2ZM207.954 276.16H215.074C215.02 275.48 214.827 274.88 214.494 274.36C214.16 273.84 213.734 273.433 213.214 273.14C212.694 272.847 212.12 272.7 211.494 272.7C210.88 272.7 210.314 272.847 209.794 273.14C209.274 273.433 208.847 273.84 208.514 274.36C208.194 274.88 208.007 275.48 207.954 276.16ZM217.99 276.8C217.99 275.813 218.19 274.913 218.59 274.1C219.003 273.273 219.563 272.613 220.27 272.12C220.99 271.627 221.81 271.38 222.73 271.38C223.57 271.38 224.323 271.6 224.99 272.04C225.657 272.48 226.177 273.013 226.55 273.64V267.4H228.31V280C228.31 280.213 228.35 280.373 228.43 280.48C228.523 280.573 228.67 280.627 228.87 280.64V282C228.537 282.053 228.277 282.08 228.09 282.08C227.743 282.08 227.437 281.96 227.17 281.72C226.917 281.48 226.79 281.213 226.79 280.92V280.04C226.377 280.707 225.823 281.233 225.13 281.62C224.437 282.007 223.717 282.2 222.97 282.2C222.25 282.2 221.583 282.06 220.97 281.78C220.37 281.487 219.843 281.087 219.39 280.58C218.95 280.073 218.603 279.5 218.35 278.86C218.11 278.207 217.99 277.52 217.99 276.8ZM226.55 278.34V275.34C226.39 274.887 226.13 274.48 225.77 274.12C225.41 273.747 225.003 273.453 224.55 273.24C224.11 273.013 223.67 272.9 223.23 272.9C222.71 272.9 222.237 273.013 221.81 273.24C221.397 273.453 221.037 273.747 220.73 274.12C220.437 274.48 220.21 274.893 220.05 275.36C219.89 275.827 219.81 276.313 219.81 276.82C219.81 277.34 219.897 277.833 220.07 278.3C220.257 278.767 220.51 279.18 220.83 279.54C221.163 279.9 221.543 280.18 221.97 280.38C222.41 280.58 222.883 280.68 223.39 280.68C223.71 280.68 224.037 280.62 224.37 280.5C224.717 280.38 225.043 280.213 225.35 280C225.657 279.787 225.917 279.54 226.13 279.26C226.343 278.967 226.483 278.66 226.55 278.34ZM241.084 267.88H242.784L244.664 272.82L246.564 267.88H248.264L245.804 274.06L248.244 279.92L253.044 267.8H255.004L249.064 282H247.504L244.684 275.3L241.844 282H240.284L234.364 267.8H236.304L241.124 279.92L243.544 274.06L241.084 267.88ZM259.833 282.2C259.046 282.2 258.326 282.06 257.673 281.78C257.033 281.487 256.473 281.093 255.993 280.6C255.526 280.093 255.16 279.513 254.893 278.86C254.64 278.207 254.513 277.513 254.513 276.78C254.513 275.793 254.74 274.893 255.193 274.08C255.646 273.267 256.273 272.613 257.073 272.12C257.886 271.627 258.813 271.38 259.853 271.38C260.906 271.38 261.82 271.633 262.593 272.14C263.38 272.633 263.986 273.287 264.413 274.1C264.853 274.9 265.073 275.767 265.073 276.7C265.073 276.833 265.066 276.967 265.053 277.1C265.053 277.22 265.046 277.313 265.033 277.38H256.373C256.426 278.06 256.613 278.667 256.933 279.2C257.266 279.72 257.693 280.133 258.213 280.44C258.733 280.733 259.293 280.88 259.893 280.88C260.533 280.88 261.133 280.72 261.693 280.4C262.266 280.08 262.66 279.66 262.873 279.14L264.393 279.56C264.166 280.067 263.826 280.52 263.373 280.92C262.933 281.32 262.406 281.633 261.793 281.86C261.193 282.087 260.54 282.2 259.833 282.2ZM256.313 276.16H263.433C263.38 275.48 263.186 274.88 262.853 274.36C262.52 273.84 262.093 273.433 261.573 273.14C261.053 272.847 260.48 272.7 259.853 272.7C259.24 272.7 258.673 272.847 258.153 273.14C257.633 273.433 257.206 273.84 256.873 274.36C256.553 274.88 256.366 275.48 256.313 276.16ZM266.349 276.8C266.349 275.813 266.549 274.913 266.949 274.1C267.363 273.273 267.923 272.613 268.629 272.12C269.349 271.627 270.169 271.38 271.089 271.38C271.929 271.38 272.683 271.6 273.349 272.04C274.016 272.48 274.536 273.013 274.909 273.64V267.4H276.669V280C276.669 280.213 276.709 280.373 276.789 280.48C276.883 280.573 277.029 280.627 277.229 280.64V282C276.896 282.053 276.636 282.08 276.449 282.08C276.103 282.08 275.796 281.96 275.529 281.72C275.276 281.48 275.149 281.213 275.149 280.92V280.04C274.736 280.707 274.183 281.233 273.489 281.62C272.796 282.007 272.076 282.2 271.329 282.2C270.609 282.2 269.943 282.06 269.329 281.78C268.729 281.487 268.203 281.087 267.749 280.58C267.309 280.073 266.963 279.5 266.709 278.86C266.469 278.207 266.349 277.52 266.349 276.8ZM274.909 278.34V275.34C274.749 274.887 274.489 274.48 274.129 274.12C273.769 273.747 273.363 273.453 272.909 273.24C272.469 273.013 272.029 272.9 271.589 272.9C271.069 272.9 270.596 273.013 270.169 273.24C269.756 273.453 269.396 273.747 269.089 274.12C268.796 274.48 268.569 274.893 268.409 275.36C268.249 275.827 268.169 276.313 268.169 276.82C268.169 277.34 268.256 277.833 268.429 278.3C268.616 278.767 268.869 279.18 269.189 279.54C269.523 279.9 269.903 280.18 270.329 280.38C270.769 280.58 271.243 280.68 271.749 280.68C272.069 280.68 272.396 280.62 272.729 280.5C273.076 280.38 273.403 280.213 273.709 280C274.016 279.787 274.276 279.54 274.489 279.26C274.703 278.967 274.843 278.66 274.909 278.34ZM278.928 276.8C278.928 275.813 279.128 274.913 279.528 274.1C279.941 273.273 280.501 272.613 281.208 272.12C281.928 271.627 282.748 271.38 283.668 271.38C284.508 271.38 285.261 271.6 285.928 272.04C286.594 272.48 287.114 273.013 287.488 273.64V267.4H289.248V280C289.248 280.213 289.288 280.373 289.368 280.48C289.461 280.573 289.608 280.627 289.808 280.64V282C289.474 282.053 289.214 282.08 289.028 282.08C288.681 282.08 288.374 281.96 288.108 281.72C287.854 281.48 287.728 281.213 287.728 280.92V280.04C287.314 280.707 286.761 281.233 286.068 281.62C285.374 282.007 284.654 282.2 283.908 282.2C283.188 282.2 282.521 282.06 281.908 281.78C281.308 281.487 280.781 281.087 280.328 280.58C279.888 280.073 279.541 279.5 279.288 278.86C279.048 278.207 278.928 277.52 278.928 276.8ZM287.488 278.34V275.34C287.328 274.887 287.068 274.48 286.708 274.12C286.348 273.747 285.941 273.453 285.488 273.24C285.048 273.013 284.608 272.9 284.168 272.9C283.648 272.9 283.174 273.013 282.748 273.24C282.334 273.453 281.974 273.747 281.668 274.12C281.374 274.48 281.148 274.893 280.988 275.36C280.828 275.827 280.748 276.313 280.748 276.82C280.748 277.34 280.834 277.833 281.008 278.3C281.194 278.767 281.448 279.18 281.768 279.54C282.101 279.9 282.481 280.18 282.908 280.38C283.348 280.58 283.821 280.68 284.328 280.68C284.648 280.68 284.974 280.62 285.308 280.5C285.654 280.38 285.981 280.213 286.288 280C286.594 279.787 286.854 279.54 287.068 279.26C287.281 278.967 287.421 278.66 287.488 278.34ZM292.186 282V271.56H293.946V282H292.186ZM292.186 269.6V267.4H293.946V269.6H292.186ZM305.855 282H304.095V276.16C304.095 275.053 303.922 274.247 303.575 273.74C303.242 273.22 302.728 272.96 302.035 272.96C301.555 272.96 301.075 273.08 300.595 273.32C300.128 273.56 299.708 273.887 299.335 274.3C298.975 274.7 298.715 275.167 298.555 275.7V282H296.795V271.56H298.395V273.8C298.675 273.307 299.035 272.88 299.475 272.52C299.915 272.16 300.415 271.88 300.975 271.68C301.535 271.48 302.122 271.38 302.735 271.38C303.335 271.38 303.835 271.493 304.235 271.72C304.648 271.933 304.968 272.24 305.195 272.64C305.435 273.027 305.602 273.487 305.695 274.02C305.802 274.553 305.855 275.133 305.855 275.76V282ZM312.752 282.12C312.045 282.12 311.392 281.98 310.792 281.7C310.205 281.407 309.699 281.013 309.272 280.52C308.845 280.013 308.512 279.44 308.272 278.8C308.045 278.16 307.932 277.493 307.932 276.8C307.932 276.067 308.045 275.373 308.272 274.72C308.512 274.067 308.845 273.493 309.272 273C309.712 272.493 310.225 272.1 310.812 271.82C311.399 271.527 312.052 271.38 312.772 271.38C313.639 271.38 314.392 271.593 315.032 272.02C315.685 272.447 316.232 272.987 316.672 273.64V271.56H318.232V281.88C318.232 282.867 317.992 283.7 317.512 284.38C317.045 285.06 316.405 285.573 315.592 285.92C314.792 286.28 313.899 286.46 312.912 286.46C311.739 286.46 310.779 286.253 310.032 285.84C309.285 285.427 308.665 284.867 308.172 284.16L309.192 283.26C309.605 283.873 310.139 284.333 310.792 284.64C311.459 284.947 312.165 285.1 312.912 285.1C313.552 285.1 314.139 284.98 314.672 284.74C315.219 284.513 315.652 284.16 315.972 283.68C316.305 283.2 316.472 282.6 316.472 281.88V280.04C316.085 280.68 315.552 281.187 314.872 281.56C314.205 281.933 313.499 282.12 312.752 282.12ZM313.292 280.68C313.665 280.68 314.025 280.613 314.372 280.48C314.719 280.347 315.039 280.173 315.332 279.96C315.625 279.733 315.872 279.48 316.072 279.2C316.272 278.92 316.405 278.633 316.472 278.34V275.34C316.285 274.86 316.019 274.44 315.672 274.08C315.325 273.707 314.932 273.42 314.492 273.22C314.052 273.007 313.599 272.9 313.132 272.9C312.599 272.9 312.119 273.013 311.692 273.24C311.279 273.467 310.925 273.773 310.632 274.16C310.339 274.533 310.112 274.953 309.952 275.42C309.792 275.887 309.712 276.36 309.712 276.84C309.712 277.36 309.805 277.853 309.992 278.32C310.179 278.773 310.432 279.18 310.752 279.54C311.072 279.9 311.452 280.18 311.892 280.38C312.332 280.58 312.799 280.68 313.292 280.68ZM94.1109 312V301.16L89.4309 309.5H88.3309L83.6309 301.16V312H81.8309V297.8H83.7309L88.8709 307.02L94.0309 297.8H95.9109V312H94.1109ZM98.1137 308.98C98.1137 308.313 98.3003 307.74 98.6737 307.26C99.0603 306.767 99.587 306.387 100.254 306.12C100.92 305.853 101.694 305.72 102.574 305.72C103.04 305.72 103.534 305.76 104.054 305.84C104.574 305.907 105.034 306.013 105.434 306.16V305.4C105.434 304.6 105.194 303.973 104.714 303.52C104.234 303.053 103.554 302.82 102.674 302.82C102.1 302.82 101.547 302.927 101.014 303.14C100.494 303.34 99.9403 303.633 99.3537 304.02L98.7137 302.78C99.3937 302.313 100.074 301.967 100.754 301.74C101.434 301.5 102.14 301.38 102.874 301.38C104.207 301.38 105.26 301.753 106.034 302.5C106.807 303.233 107.194 304.26 107.194 305.58V310C107.194 310.213 107.234 310.373 107.314 310.48C107.407 310.573 107.554 310.627 107.754 310.64V312C107.58 312.027 107.427 312.047 107.294 312.06C107.174 312.073 107.074 312.08 106.994 312.08C106.58 312.08 106.267 311.967 106.054 311.74C105.854 311.513 105.74 311.273 105.714 311.02L105.674 310.36C105.22 310.947 104.627 311.4 103.894 311.72C103.16 312.04 102.434 312.2 101.714 312.2C101.02 312.2 100.4 312.06 99.8537 311.78C99.307 311.487 98.8803 311.1 98.5737 310.62C98.267 310.127 98.1137 309.58 98.1137 308.98ZM104.914 309.72C105.074 309.533 105.2 309.347 105.294 309.16C105.387 308.96 105.434 308.793 105.434 308.66V307.36C105.02 307.2 104.587 307.08 104.134 307C103.68 306.907 103.234 306.86 102.794 306.86C101.9 306.86 101.174 307.04 100.614 307.4C100.067 307.747 99.7937 308.227 99.7937 308.84C99.7937 309.173 99.8803 309.5 100.054 309.82C100.24 310.127 100.507 310.38 100.854 310.58C101.214 310.78 101.654 310.88 102.174 310.88C102.72 310.88 103.24 310.773 103.734 310.56C104.227 310.333 104.62 310.053 104.914 309.72ZM115.33 311.48C115.183 311.547 114.983 311.633 114.73 311.74C114.476 311.847 114.183 311.94 113.85 312.02C113.516 312.1 113.163 312.14 112.79 312.14C112.363 312.14 111.97 312.067 111.61 311.92C111.25 311.76 110.963 311.52 110.75 311.2C110.536 310.867 110.43 310.453 110.43 309.96V302.94H109.01V301.56H110.43V298.08H112.19V301.56H114.53V302.94H112.19V309.42C112.216 309.793 112.343 310.073 112.57 310.26C112.796 310.433 113.063 310.52 113.37 310.52C113.716 310.52 114.036 310.46 114.33 310.34C114.623 310.22 114.816 310.133 114.91 310.08L115.33 311.48ZM122.481 303.1C121.601 303.113 120.821 303.34 120.141 303.78C119.474 304.207 119.001 304.8 118.721 305.56V312H116.961V301.56H118.601V303.98C118.961 303.26 119.434 302.68 120.021 302.24C120.621 301.787 121.248 301.533 121.901 301.48C122.034 301.48 122.148 301.48 122.241 301.48C122.334 301.48 122.414 301.487 122.481 301.5V303.1ZM124.227 312V301.56H125.987V312H124.227ZM124.227 299.6V297.4H125.987V299.6H124.227ZM144.576 312H142.816V306.16C142.816 305.067 142.636 304.26 142.276 303.74C141.929 303.22 141.409 302.96 140.716 302.96C140.009 302.96 139.369 303.22 138.796 303.74C138.223 304.247 137.816 304.907 137.576 305.72V312H135.816V306.16C135.816 305.053 135.643 304.247 135.296 303.74C134.949 303.22 134.429 302.96 133.736 302.96C133.043 302.96 132.403 303.213 131.816 303.72C131.243 304.213 130.836 304.873 130.596 305.7V312H128.836V301.56H130.436V303.8C130.863 303.027 131.416 302.433 132.096 302.02C132.776 301.593 133.543 301.38 134.396 301.38C135.263 301.38 135.956 301.62 136.476 302.1C136.996 302.567 137.316 303.173 137.436 303.92C137.903 303.093 138.469 302.467 139.136 302.04C139.803 301.6 140.563 301.38 141.416 301.38C142.016 301.38 142.516 301.493 142.916 301.72C143.329 301.933 143.656 302.24 143.896 302.64C144.136 303.027 144.309 303.487 144.416 304.02C144.523 304.553 144.576 305.133 144.576 305.76V312ZM151.873 312.2C151.086 312.2 150.373 312.06 149.733 311.78C149.093 311.487 148.539 311.093 148.073 310.6C147.606 310.093 147.246 309.513 146.993 308.86C146.739 308.207 146.613 307.52 146.613 306.8C146.613 306.067 146.739 305.373 146.993 304.72C147.246 304.067 147.606 303.493 148.073 303C148.539 302.493 149.093 302.1 149.733 301.82C150.386 301.527 151.099 301.38 151.873 301.38C152.659 301.38 153.373 301.527 154.013 301.82C154.653 302.1 155.206 302.493 155.673 303C156.153 303.493 156.519 304.067 156.773 304.72C157.026 305.373 157.153 306.067 157.153 306.8C157.153 307.52 157.026 308.207 156.773 308.86C156.519 309.513 156.159 310.093 155.693 310.6C155.226 311.093 154.666 311.487 154.013 311.78C153.373 312.06 152.659 312.2 151.873 312.2ZM148.413 306.82C148.413 307.54 148.566 308.193 148.873 308.78C149.193 309.367 149.613 309.833 150.133 310.18C150.653 310.513 151.233 310.68 151.873 310.68C152.513 310.68 153.093 310.507 153.613 310.16C154.146 309.813 154.566 309.347 154.873 308.76C155.193 308.16 155.353 307.5 155.353 306.78C155.353 306.06 155.193 305.407 154.873 304.82C154.566 304.233 154.146 303.767 153.613 303.42C153.093 303.073 152.513 302.9 151.873 302.9C151.233 302.9 150.653 303.08 150.133 303.44C149.613 303.787 149.193 304.253 148.873 304.84C148.566 305.427 148.413 306.087 148.413 306.82ZM168.345 312H166.585V306.16C166.585 305.053 166.412 304.247 166.065 303.74C165.732 303.22 165.219 302.96 164.525 302.96C164.045 302.96 163.565 303.08 163.085 303.32C162.619 303.56 162.199 303.887 161.825 304.3C161.465 304.7 161.205 305.167 161.045 305.7V312H159.285V301.56H160.885V303.8C161.165 303.307 161.525 302.88 161.965 302.52C162.405 302.16 162.905 301.88 163.465 301.68C164.025 301.48 164.612 301.38 165.225 301.38C165.825 301.38 166.325 301.493 166.725 301.72C167.139 301.933 167.459 302.24 167.685 302.64C167.925 303.027 168.092 303.487 168.185 304.02C168.292 304.553 168.345 305.133 168.345 305.76V312ZM171.367 314.84C171.54 314.853 171.713 314.867 171.887 314.88C172.06 314.907 172.193 314.92 172.287 314.92C172.5 314.92 172.687 314.847 172.847 314.7C173.007 314.553 173.18 314.267 173.367 313.84C173.567 313.427 173.82 312.813 174.127 312L169.707 301.56H171.567L175.087 310.22L178.267 301.56H180.007L174.927 314.74C174.807 315.047 174.627 315.333 174.387 315.6C174.16 315.88 173.867 316.1 173.507 316.26C173.147 316.42 172.713 316.5 172.207 316.5C172.087 316.5 171.96 316.493 171.827 316.48C171.707 316.467 171.553 316.44 171.367 316.4V314.84ZM197.477 308.34C197.477 309.073 197.29 309.713 196.917 310.26C196.544 310.807 196.037 311.233 195.397 311.54C194.77 311.847 194.077 312 193.317 312H186.577V297.8H193.637C194.304 297.8 194.877 297.98 195.357 298.34C195.85 298.687 196.224 299.14 196.477 299.7C196.744 300.247 196.877 300.82 196.877 301.42C196.877 302.113 196.697 302.767 196.337 303.38C195.99 303.98 195.49 304.427 194.837 304.72C195.65 304.96 196.29 305.407 196.757 306.06C197.237 306.7 197.477 307.46 197.477 308.34ZM195.657 308.02C195.657 307.58 195.557 307.173 195.357 306.8C195.17 306.427 194.91 306.127 194.577 305.9C194.257 305.673 193.884 305.56 193.457 305.56H188.377V310.44H193.317C193.757 310.44 194.15 310.327 194.497 310.1C194.857 309.873 195.137 309.58 195.337 309.22C195.55 308.847 195.657 308.447 195.657 308.02ZM188.377 299.36V304.1H192.897C193.324 304.1 193.697 303.993 194.017 303.78C194.35 303.567 194.61 303.28 194.797 302.92C194.997 302.56 195.097 302.167 195.097 301.74C195.097 301.287 195.004 300.887 194.817 300.54C194.644 300.18 194.397 299.893 194.077 299.68C193.77 299.467 193.417 299.36 193.017 299.36H188.377ZM205.235 303.1C204.355 303.113 203.575 303.34 202.895 303.78C202.228 304.207 201.755 304.8 201.475 305.56V312H199.715V301.56H201.355V303.98C201.715 303.26 202.188 302.68 202.775 302.24C203.375 301.787 204.002 301.533 204.655 301.48C204.788 301.48 204.902 301.48 204.995 301.48C205.088 301.48 205.168 301.487 205.235 301.5V303.1ZM206.161 308.98C206.161 308.313 206.347 307.74 206.721 307.26C207.107 306.767 207.634 306.387 208.301 306.12C208.967 305.853 209.741 305.72 210.621 305.72C211.087 305.72 211.581 305.76 212.101 305.84C212.621 305.907 213.081 306.013 213.481 306.16V305.4C213.481 304.6 213.241 303.973 212.761 303.52C212.281 303.053 211.601 302.82 210.721 302.82C210.147 302.82 209.594 302.927 209.061 303.14C208.541 303.34 207.987 303.633 207.401 304.02L206.761 302.78C207.441 302.313 208.121 301.967 208.801 301.74C209.481 301.5 210.187 301.38 210.921 301.38C212.254 301.38 213.307 301.753 214.081 302.5C214.854 303.233 215.241 304.26 215.241 305.58V310C215.241 310.213 215.281 310.373 215.361 310.48C215.454 310.573 215.601 310.627 215.801 310.64V312C215.627 312.027 215.474 312.047 215.341 312.06C215.221 312.073 215.121 312.08 215.041 312.08C214.627 312.08 214.314 311.967 214.101 311.74C213.901 311.513 213.787 311.273 213.761 311.02L213.721 310.36C213.267 310.947 212.674 311.4 211.941 311.72C211.207 312.04 210.481 312.2 209.761 312.2C209.067 312.2 208.447 312.06 207.901 311.78C207.354 311.487 206.927 311.1 206.621 310.62C206.314 310.127 206.161 309.58 206.161 308.98ZM212.961 309.72C213.121 309.533 213.247 309.347 213.341 309.16C213.434 308.96 213.481 308.793 213.481 308.66V307.36C213.067 307.2 212.634 307.08 212.181 307C211.727 306.907 211.281 306.86 210.841 306.86C209.947 306.86 209.221 307.04 208.661 307.4C208.114 307.747 207.841 308.227 207.841 308.84C207.841 309.173 207.927 309.5 208.101 309.82C208.287 310.127 208.554 310.38 208.901 310.58C209.261 310.78 209.701 310.88 210.221 310.88C210.767 310.88 211.287 310.773 211.781 310.56C212.274 310.333 212.667 310.053 212.961 309.72ZM227.115 312H225.355V306.16C225.355 305.053 225.181 304.247 224.835 303.74C224.501 303.22 223.988 302.96 223.295 302.96C222.815 302.96 222.335 303.08 221.855 303.32C221.388 303.56 220.968 303.887 220.595 304.3C220.235 304.7 219.975 305.167 219.815 305.7V312H218.055V301.56H219.655V303.8C219.935 303.307 220.295 302.88 220.735 302.52C221.175 302.16 221.675 301.88 222.235 301.68C222.795 301.48 223.381 301.38 223.995 301.38C224.595 301.38 225.095 301.493 225.495 301.72C225.908 301.933 226.228 302.24 226.455 302.64C226.695 303.027 226.861 303.487 226.955 304.02C227.061 304.553 227.115 305.133 227.115 305.76V312ZM229.172 306.8C229.172 305.813 229.372 304.913 229.772 304.1C230.185 303.273 230.745 302.613 231.452 302.12C232.172 301.627 232.992 301.38 233.912 301.38C234.752 301.38 235.505 301.6 236.172 302.04C236.838 302.48 237.358 303.013 237.732 303.64V297.4H239.492V310C239.492 310.213 239.532 310.373 239.612 310.48C239.705 310.573 239.852 310.627 240.052 310.64V312C239.718 312.053 239.458 312.08 239.272 312.08C238.925 312.08 238.618 311.96 238.352 311.72C238.098 311.48 237.972 311.213 237.972 310.92V310.04C237.558 310.707 237.005 311.233 236.312 311.62C235.618 312.007 234.898 312.2 234.152 312.2C233.432 312.2 232.765 312.06 232.152 311.78C231.552 311.487 231.025 311.087 230.572 310.58C230.132 310.073 229.785 309.5 229.532 308.86C229.292 308.207 229.172 307.52 229.172 306.8ZM237.732 308.34V305.34C237.572 304.887 237.312 304.48 236.952 304.12C236.592 303.747 236.185 303.453 235.732 303.24C235.292 303.013 234.852 302.9 234.412 302.9C233.892 302.9 233.418 303.013 232.992 303.24C232.578 303.453 232.218 303.747 231.912 304.12C231.618 304.48 231.392 304.893 231.232 305.36C231.072 305.827 230.992 306.313 230.992 306.82C230.992 307.34 231.078 307.833 231.252 308.3C231.438 308.767 231.692 309.18 232.012 309.54C232.345 309.9 232.725 310.18 233.152 310.38C233.592 310.58 234.065 310.68 234.572 310.68C234.892 310.68 235.218 310.62 235.552 310.5C235.898 310.38 236.225 310.213 236.532 310C236.838 309.787 237.098 309.54 237.312 309.26C237.525 308.967 237.665 308.66 237.732 308.34ZM247.768 312V297.8H249.568V310.4H257.488V312H247.768ZM263.572 312.2C262.785 312.2 262.072 312.06 261.432 311.78C260.792 311.487 260.238 311.093 259.772 310.6C259.305 310.093 258.945 309.513 258.692 308.86C258.438 308.207 258.312 307.52 258.312 306.8C258.312 306.067 258.438 305.373 258.692 304.72C258.945 304.067 259.305 303.493 259.772 303C260.238 302.493 260.792 302.1 261.432 301.82C262.085 301.527 262.798 301.38 263.572 301.38C264.358 301.38 265.072 301.527 265.712 301.82C266.352 302.1 266.905 302.493 267.372 303C267.852 303.493 268.218 304.067 268.472 304.72C268.725 305.373 268.852 306.067 268.852 306.8C268.852 307.52 268.725 308.207 268.472 308.86C268.218 309.513 267.858 310.093 267.392 310.6C266.925 311.093 266.365 311.487 265.712 311.78C265.072 312.06 264.358 312.2 263.572 312.2ZM260.112 306.82C260.112 307.54 260.265 308.193 260.572 308.78C260.892 309.367 261.312 309.833 261.832 310.18C262.352 310.513 262.932 310.68 263.572 310.68C264.212 310.68 264.792 310.507 265.312 310.16C265.845 309.813 266.265 309.347 266.572 308.76C266.892 308.16 267.052 307.5 267.052 306.78C267.052 306.06 266.892 305.407 266.572 304.82C266.265 304.233 265.845 303.767 265.312 303.42C264.792 303.073 264.212 302.9 263.572 302.9C262.932 302.9 262.352 303.08 261.832 303.44C261.312 303.787 260.892 304.253 260.572 304.84C260.265 305.427 260.112 306.087 260.112 306.82ZM276.504 303.1C275.624 303.113 274.844 303.34 274.164 303.78C273.498 304.207 273.024 304.8 272.744 305.56V312H270.984V301.56H272.624V303.98C272.984 303.26 273.458 302.68 274.044 302.24C274.644 301.787 275.271 301.533 275.924 301.48C276.058 301.48 276.171 301.48 276.264 301.48C276.358 301.48 276.438 301.487 276.504 301.5V303.1ZM282.616 312.2C281.83 312.2 281.11 312.06 280.456 311.78C279.816 311.487 279.256 311.093 278.776 310.6C278.31 310.093 277.943 309.513 277.676 308.86C277.423 308.207 277.296 307.513 277.296 306.78C277.296 305.793 277.523 304.893 277.976 304.08C278.43 303.267 279.056 302.613 279.856 302.12C280.67 301.627 281.596 301.38 282.636 301.38C283.69 301.38 284.603 301.633 285.376 302.14C286.163 302.633 286.77 303.287 287.196 304.1C287.636 304.9 287.856 305.767 287.856 306.7C287.856 306.833 287.85 306.967 287.836 307.1C287.836 307.22 287.83 307.313 287.816 307.38H279.156C279.21 308.06 279.396 308.667 279.716 309.2C280.05 309.72 280.476 310.133 280.996 310.44C281.516 310.733 282.076 310.88 282.676 310.88C283.316 310.88 283.916 310.72 284.476 310.4C285.05 310.08 285.443 309.66 285.656 309.14L287.176 309.56C286.95 310.067 286.61 310.52 286.156 310.92C285.716 311.32 285.19 311.633 284.576 311.86C283.976 312.087 283.323 312.2 282.616 312.2ZM279.096 306.16H286.216C286.163 305.48 285.97 304.88 285.636 304.36C285.303 303.84 284.876 303.433 284.356 303.14C283.836 302.847 283.263 302.7 282.636 302.7C282.023 302.7 281.456 302.847 280.936 303.14C280.416 303.433 279.99 303.84 279.656 304.36C279.336 304.88 279.15 305.48 279.096 306.16ZM305.553 312H303.793V306.16C303.793 305.067 303.613 304.26 303.253 303.74C302.906 303.22 302.386 302.96 301.693 302.96C300.986 302.96 300.346 303.22 299.773 303.74C299.199 304.247 298.793 304.907 298.553 305.72V312H296.793V306.16C296.793 305.053 296.619 304.247 296.273 303.74C295.926 303.22 295.406 302.96 294.713 302.96C294.019 302.96 293.379 303.213 292.793 303.72C292.219 304.213 291.813 304.873 291.573 305.7V312H289.813V301.56H291.413V303.8C291.839 303.027 292.393 302.433 293.073 302.02C293.753 301.593 294.519 301.38 295.373 301.38C296.239 301.38 296.933 301.62 297.453 302.1C297.973 302.567 298.293 303.173 298.413 303.92C298.879 303.093 299.446 302.467 300.113 302.04C300.779 301.6 301.539 301.38 302.393 301.38C302.993 301.38 303.493 301.493 303.893 301.72C304.306 301.933 304.633 302.24 304.873 302.64C305.113 303.027 305.286 303.487 305.393 304.02C305.499 304.553 305.553 305.133 305.553 305.76V312Z" fill="black"/>
<defs>
<linearGradient id="paint0_linear_990_1045" x1="138" y1="118" x2="218.391" y2="129.595" gradientUnits="userSpaceOnUse">
<stop stop-color="#F05A8E"/>
<stop offset="1" stop-color="#ED1C24"/>
</linearGradient>
<linearGradient id="paint1_linear_990_1045" x1="46" y1="226.5" x2="81.936" y2="306.974" gradientUnits="userSpaceOnUse">
<stop stop-color="#F05A8E"/>
<stop offset="1" stop-color="#ED1C24"/>
</linearGradient>
</defs>
</svg>
