<svg width="78" height="6" viewBox="0 0 78 6" fill="none" xmlns="http://www.w3.org/2000/svg">
<path d="M0.435747 5.04176V0.64615H1.40376L2.67617 4.18943L3.96076 0.64615H4.92877V5.04176H4.31387V1.22452L2.91969 5.04176H2.43265L1.05065 1.25496V5.04176H0.435747ZM13.8288 5.127C13.4189 5.127 13.084 5.058 12.8243 4.92C12.5645 4.782 12.3738 4.56283 12.252 4.26249C12.1343 3.96214 12.0754 3.56844 12.0754 3.08139V0.64615H12.6903V3.08139C12.6903 3.67803 12.804 4.09405 13.0313 4.32945C13.2017 4.50398 13.4676 4.59124 13.8288 4.59124C14.19 4.59124 14.4559 4.50601 14.6264 4.33554C14.8577 4.10419 14.9734 3.68614 14.9734 3.08139V0.64615H15.5883V3.08139C15.5883 3.56844 15.5274 3.96214 15.4056 4.26249C15.2839 4.56283 15.0931 4.782 14.8334 4.92C14.5777 5.058 14.2428 5.127 13.8288 5.127ZM22.7342 5.04176V0.64615H23.3491V2.52737H25.4616V0.64615H26.0765V5.04176H25.4616V3.05704H23.3491V5.04176H22.7342ZM32.7698 5.04176L34.6145 0.64615H35.2842L37.1532 5.04176H36.5079L36.033 3.86676H33.8778L33.3969 5.04176H32.7698ZM34.1153 3.34927H35.7773L34.9371 1.32193L34.1153 3.34927ZM43.8435 5.04176V0.64615H45.2376C45.7734 0.64615 46.1651 0.733413 46.4127 0.907938C46.6846 1.09464 46.8206 1.40716 46.8206 1.84551C46.8206 2.21485 46.5466 2.53143 45.9987 2.79525C46.0433 2.81149 46.0839 2.82772 46.1204 2.84396C46.161 2.86019 46.1975 2.87846 46.23 2.89875C46.4005 3.00428 46.5121 3.12604 46.5649 3.26404C46.5852 3.30868 46.6054 3.39392 46.6257 3.51974C46.646 3.6415 46.6704 3.80182 46.6988 4.0007C46.7272 4.21175 46.7597 4.40454 46.7962 4.57907C46.8368 4.74953 46.8814 4.90377 46.9301 5.04176H46.3092C46.2726 4.82259 46.2057 4.46948 46.1082 3.98243C46.019 3.54409 45.9114 3.27418 45.7856 3.17271C45.676 3.08748 45.4122 3.04486 44.9941 3.04486H44.4584V5.04176H43.8435ZM44.4584 2.5152H45.2194C45.8769 2.5152 46.2057 2.29197 46.2057 1.84551C46.2057 1.39905 45.8769 1.17581 45.2194 1.17581H44.4584V2.5152ZM53.3559 5.04176L55.2006 0.64615H55.8703L57.7393 5.04176H57.094L56.6191 3.86676H54.4639L53.983 5.04176H53.3559ZM54.7014 3.34927H56.3634L55.5233 1.32193L54.7014 3.34927ZM65.4463 5.04176V1.17581H64.0095V0.64615H67.498V1.17581H66.0612V5.04176H65.4463ZM74.2262 5.04176V0.64615H74.8411V2.52737H76.9537V0.64615H77.5686V5.04176H76.9537V3.05704H74.8411V5.04176H74.2262Z" fill="#830000"/>
</svg>
