<svg width="64" height="65" viewBox="0 0 64 65" fill="none" xmlns="http://www.w3.org/2000/svg">
<rect x="0.203246" y="0.703246" width="63.5935" height="63.5935" rx="31.7968" stroke="white" stroke-width="0.406493"/>
<rect x="0.203246" y="0.703246" width="63.5935" height="63.5935" rx="31.7968" stroke="url(#paint0_linear_990_1022)" stroke-width="0.406493"/>
<path d="M41.1666 43.5402V48H22.8333V43.5402C22.8333 41.0878 24.7481 39.099 27.1111 39.099H29.1249L29.3463 37.7323C25.5508 38.851 23.5164 36.5108 23.5164 36.5108C24.0381 35.333 24.6669 33.2269 24.6669 29.4204V25.613C24.6669 23.5101 25.4872 21.6073 26.8143 20.2294C28.1415 18.852 29.9742 18 31.9997 18H32.0002C36.0498 18 39.3334 21.4081 39.3334 25.613V29.4204C39.3334 33.2269 39.9618 35.333 40.4835 36.5108C40.4835 36.5108 38.4593 38.8393 34.6818 37.7402L34.9297 39.099H36.8892C39.2518 39.099 41.1666 41.0879 41.1666 43.5402Z" fill="#ED1F29"/>
<defs>
<linearGradient id="paint0_linear_990_1022" x1="1.74453e-07" y1="32.5" x2="45.9374" y2="39.1256" gradientUnits="userSpaceOnUse">
<stop stop-color="#F05A8E"/>
<stop offset="1" stop-color="#ED1C24"/>
</linearGradient>
</defs>
</svg>
