<svg width="64" height="65" viewBox="0 0 64 65" fill="none" xmlns="http://www.w3.org/2000/svg">
<rect x="0.203246" y="0.703246" width="63.5935" height="63.5935" rx="31.7968" stroke="white" stroke-width="0.406493"/>
<rect x="0.203246" y="0.703246" width="63.5935" height="63.5935" rx="31.7968" stroke="url(#paint0_linear_990_1005)" stroke-width="0.406493"/>
<mask id="path-2-inside-1_990_1005" fill="white">
<path d="M40.3334 44.9997C40.3334 42.1707 39.2096 39.4576 37.2092 37.4572C35.2088 35.4568 32.4957 34.333 29.6668 34.333C26.8378 34.333 24.1247 35.4568 22.1243 37.4572C20.1239 39.4576 19.0001 42.1707 19.0001 44.9997"/>
</mask>
<path d="M40.3334 44.9997C40.3334 42.1707 39.2096 39.4576 37.2092 37.4572C35.2088 35.4568 32.4957 34.333 29.6668 34.333C26.8378 34.333 24.1247 35.4568 22.1243 37.4572C20.1239 39.4576 19.0001 42.1707 19.0001 44.9997" fill="#ED1C24"/>
<path d="M38.3334 44.9997C38.3334 46.1043 39.2289 46.9997 40.3334 46.9997C41.438 46.9997 42.3334 46.1043 42.3334 44.9997H38.3334ZM29.6668 34.333V32.333V34.333ZM17.0001 44.9997C17.0001 46.1043 17.8955 46.9997 19.0001 46.9997C20.1047 46.9997 21.0001 46.1043 21.0001 44.9997H17.0001ZM42.3334 44.9997C42.3334 41.6403 40.9989 38.4185 38.6234 36.043L35.795 38.8714C37.4203 40.4967 38.3334 42.7011 38.3334 44.9997H42.3334ZM38.6234 36.043C36.248 33.6675 33.0262 32.333 29.6668 32.333V36.333C31.9653 36.333 34.1697 37.2461 35.795 38.8714L38.6234 36.043ZM29.6668 32.333C26.3073 32.333 23.0855 33.6675 20.7101 36.043L23.5385 38.8714C25.1638 37.2461 27.3682 36.333 29.6668 36.333V32.333ZM20.7101 36.043C18.3346 38.4185 17.0001 41.6403 17.0001 44.9997H21.0001C21.0001 42.7011 21.9132 40.4967 23.5385 38.8714L20.7101 36.043Z" fill="#ED1C24" mask="url(#path-2-inside-1_990_1005)"/>
<path d="M29.6668 34.3334C33.3487 34.3334 36.3334 31.3486 36.3334 27.6667C36.3334 23.9848 33.3487 21 29.6668 21C25.9849 21 23.0001 23.9848 23.0001 27.6667C23.0001 31.3486 25.9849 34.3334 29.6668 34.3334Z" fill="#ED1C24" stroke="#ED1C24" stroke-width="2" stroke-linecap="round" stroke-linejoin="round"/>
<path d="M45.6668 43.6665C45.6668 39.1731 43.0002 34.9998 40.3335 32.9998C41.21 32.3422 41.911 31.4786 42.3742 30.4855C42.8375 29.4924 43.0488 28.4004 42.9895 27.3062C42.9302 26.212 42.602 25.1492 42.0341 24.212C41.4662 23.2749 40.676 22.4921 39.7335 21.9331" stroke="#ED1C24" stroke-width="2" stroke-linecap="round" stroke-linejoin="round"/>
<defs>
<linearGradient id="paint0_linear_990_1005" x1="1.74453e-07" y1="32.5" x2="45.9374" y2="39.1256" gradientUnits="userSpaceOnUse">
<stop stop-color="#F05A8E"/>
<stop offset="1" stop-color="#ED1C24"/>
</linearGradient>
</defs>
</svg>
