<svg width="38" height="43" viewBox="0 0 38 43" fill="none" xmlns="http://www.w3.org/2000/svg">
<path d="M18.1036 20.5443L0.8591 39.2603C0.86072 39.2636 0.86072 39.2686 0.862339 39.2719C1.39197 41.3042 3.20599 42.7998 5.36013 42.7998C6.22179 42.7998 7.03 42.5613 7.72322 42.1439L7.77828 42.1108L27.1883 30.6576L18.1036 20.5443Z" fill="#EA4335"/>
<path d="M35.549 17.3579L35.5328 17.3463L27.1527 12.3791L17.7117 20.9703L27.1867 30.6562L35.5215 25.7387C36.9824 24.9305 37.9753 23.3553 37.9753 21.54C37.9753 19.7347 36.997 18.1678 35.549 17.3579Z" fill="#FBBC04"/>
<path d="M0.858739 3.73836C0.755081 4.12924 0.700012 4.54 0.700012 4.96401V38.0367C0.700012 38.4608 0.755081 38.8715 0.860358 39.2607L18.696 21.0234L0.858739 3.73836Z" fill="#4285F4"/>
<path d="M18.2311 21.5L27.1555 12.3755L7.76814 0.880886C7.06359 0.448595 6.2408 0.200153 5.36132 0.200153C3.20718 0.200153 1.38992 1.69909 0.860292 3.73301C0.860292 3.73467 0.858673 3.73632 0.858673 3.73798L18.2311 21.5Z" fill="#34A853"/>
</svg>
