<svg width="248" height="248" viewBox="0 0 248 248" fill="none" xmlns="http://www.w3.org/2000/svg">
<rect x="0.5" y="0.5" width="247" height="247" rx="19.5" stroke="#ED1C24" stroke-opacity="0.15"/>
<rect x="26.2032" y="38.7032" width="63.5935" height="63.5935" rx="31.7968" stroke="white" stroke-width="0.406493"/>
<rect x="26.2032" y="38.7032" width="63.5935" height="63.5935" rx="31.7968" stroke="url(#paint0_linear_990_1027)" stroke-width="0.406493"/>
<path d="M76 81.5402V86H58V81.5402C58 79.0878 59.8799 77.099 62.2 77.099H64.1772L64.3946 75.7323C60.6681 76.851 58.6706 74.5108 58.6706 74.5108C59.1829 73.333 59.8003 71.2269 59.8003 67.4204V63.613C59.8003 61.5101 60.6056 59.6073 61.9086 58.2294C63.2117 56.852 65.0111 56 66.9997 56C70.9757 56 74.2001 59.4081 74.2001 63.613V67.4204C74.2001 71.2269 74.8171 73.333 75.3293 74.5108C75.3293 74.5108 73.3419 76.8393 69.6331 75.7402L69.8764 77.099H71.8004C74.12 77.099 76 79.0879 76 81.5402Z" fill="#F05A8E"/>
<path d="M61.2727 84.4595V86H40V84.4595C40 80.2006 43.3618 76.7485 47.5084 76.7485L48.1341 74.669C46.4154 73.7902 45.1938 72.0358 45.0244 69.9767C45.0059 69.7006 44.7867 69.4955 44.5305 69.4239C43.7232 69.2118 43.1291 68.4604 43.1291 67.5607C43.1291 66.9482 43.4049 66.4037 43.8368 66.0508C43.4986 64.9311 43.1291 63.2855 43.1291 61.4562C43.1291 60.5699 43.8291 59.8501 44.693 59.8501C44.693 59.8501 45.0453 55.993 50.0109 56.6375C55.1123 57.3001 57.6655 56 57.6655 56C57.6655 56 58.7703 57.0988 58.7703 59.2075C58.7703 60.0557 58.5416 60.8485 58.1455 61.5245C58.1446 61.5231 58.1446 61.5218 58.1446 61.5208L58.1437 61.5278C58.1441 61.5264 58.1446 61.5259 58.1455 61.5245C58.3519 63.4678 57.9929 65.1562 57.6447 66.2484C57.9554 66.5925 58.1446 67.0538 58.1446 67.5606C58.1446 68.4603 57.5502 69.2118 56.7433 69.4238C56.487 69.4954 56.2678 69.7005 56.2488 69.9767C56.079 72.0347 54.8584 73.7896 53.1396 74.668L53.7654 76.7484C57.9118 76.7485 61.2727 80.2006 61.2727 84.4595Z" fill="#ED1F29"/>
<path d="M43.0493 181.036C39.8066 181.036 36.8839 180.268 34.2812 178.732C31.6786 177.196 29.7159 175.148 28.3932 172.588L31.9133 169.516C33.1079 171.479 34.6866 173.057 36.6493 174.252C38.6546 175.447 40.8093 176.044 43.1133 176.044C45.0759 176.044 46.8253 175.617 48.3613 174.764C49.8973 173.911 51.1133 172.737 52.0093 171.244C52.9053 169.708 53.3533 167.959 53.3533 165.996C53.3533 164.076 52.9053 162.391 52.0093 160.94C51.1559 159.489 49.9826 158.359 48.4893 157.548C47.0386 156.737 45.3959 156.332 43.5613 156.332C41.7266 156.332 39.9986 156.737 38.3773 157.548C36.7986 158.359 35.4973 159.511 34.4733 161.004H29.4173L34.5373 134.956H56.6173V140.14H38.6973L35.9453 154.604C36.8839 153.623 38.0573 152.855 39.4653 152.3C40.9159 151.703 42.5159 151.404 44.2653 151.404C47.0813 151.404 49.5986 152.023 51.8173 153.26C54.0786 154.497 55.8493 156.204 57.1293 158.38C58.4519 160.556 59.1133 163.073 59.1133 165.932C59.1133 168.919 58.3879 171.543 56.9373 173.804C55.5293 176.108 53.6093 177.879 51.1773 179.116C48.7453 180.396 46.0359 181.036 43.0493 181.036ZM83.4238 179.628V168.812H62.8798V163.82L85.2158 134.956H89.0558V163.692H94.6878V168.812H89.0558V179.628H83.4238ZM68.7038 163.692H83.9998V143.66L68.7038 163.692ZM122.119 139.372H98.7593V134.188H131.015L108.167 179.628H101.767L122.119 139.372ZM154.193 147.82V149.74H145.553V159.084H143.441V149.74H134.801V147.82H143.441V138.476H145.553V147.82H154.193Z" fill="url(#paint1_linear_990_1027)"/>
<path d="M26.8425 202.3C26.8425 201.433 26.9892 200.587 27.2825 199.76C27.5892 198.92 28.0292 198.16 28.6025 197.48C29.1892 196.787 29.9025 196.24 30.7425 195.84C31.5825 195.427 32.5358 195.22 33.6025 195.22C34.8692 195.22 35.9558 195.513 36.8625 196.1C37.7692 196.673 38.4425 197.413 38.8825 198.32L37.4625 199.24C37.1825 198.64 36.8225 198.167 36.3825 197.82C35.9558 197.46 35.4892 197.207 34.9825 197.06C34.4892 196.913 34.0025 196.84 33.5225 196.84C32.7358 196.84 32.0358 197 31.4225 197.32C30.8225 197.64 30.3158 198.067 29.9025 198.6C29.4892 199.133 29.1758 199.733 28.9625 200.4C28.7625 201.053 28.6625 201.713 28.6625 202.38C28.6625 203.113 28.7825 203.82 29.0225 204.5C29.2758 205.18 29.6225 205.78 30.0625 206.3C30.5025 206.82 31.0225 207.233 31.6225 207.54C32.2225 207.847 32.8758 208 33.5825 208C34.0758 208 34.5825 207.913 35.1025 207.74C35.6225 207.567 36.1092 207.3 36.5625 206.94C37.0158 206.567 37.3758 206.087 37.6425 205.5L39.1425 206.32C38.8492 207.027 38.3958 207.627 37.7825 208.12C37.1692 208.613 36.4825 208.987 35.7225 209.24C34.9758 209.493 34.2358 209.62 33.5025 209.62C32.5292 209.62 31.6358 209.413 30.8225 209C30.0092 208.573 29.3025 208.013 28.7025 207.32C28.1158 206.613 27.6558 205.827 27.3225 204.96C27.0025 204.08 26.8425 203.193 26.8425 202.3ZM45.6753 209.7C44.8886 209.7 44.1753 209.56 43.5353 209.28C42.8953 208.987 42.342 208.593 41.8753 208.1C41.4086 207.593 41.0486 207.013 40.7953 206.36C40.542 205.707 40.4153 205.02 40.4153 204.3C40.4153 203.567 40.542 202.873 40.7953 202.22C41.0486 201.567 41.4086 200.993 41.8753 200.5C42.342 199.993 42.8953 199.6 43.5353 199.32C44.1886 199.027 44.902 198.88 45.6753 198.88C46.462 198.88 47.1753 199.027 47.8153 199.32C48.4553 199.6 49.0086 199.993 49.4753 200.5C49.9553 200.993 50.322 201.567 50.5753 202.22C50.8286 202.873 50.9553 203.567 50.9553 204.3C50.9553 205.02 50.8286 205.707 50.5753 206.36C50.322 207.013 49.962 207.593 49.4953 208.1C49.0286 208.593 48.4686 208.987 47.8153 209.28C47.1753 209.56 46.462 209.7 45.6753 209.7ZM42.2153 204.32C42.2153 205.04 42.3686 205.693 42.6753 206.28C42.9953 206.867 43.4153 207.333 43.9353 207.68C44.4553 208.013 45.0353 208.18 45.6753 208.18C46.3153 208.18 46.8953 208.007 47.4153 207.66C47.9486 207.313 48.3686 206.847 48.6753 206.26C48.9953 205.66 49.1553 205 49.1553 204.28C49.1553 203.56 48.9953 202.907 48.6753 202.32C48.3686 201.733 47.9486 201.267 47.4153 200.92C46.8953 200.573 46.3153 200.4 45.6753 200.4C45.0353 200.4 44.4553 200.58 43.9353 200.94C43.4153 201.287 42.9953 201.753 42.6753 202.34C42.3686 202.927 42.2153 203.587 42.2153 204.32ZM52.988 205.32V199.06H54.748V204.98C54.748 206.047 54.9346 206.847 55.308 207.38C55.6813 207.913 56.2346 208.18 56.968 208.18C57.448 208.18 57.908 208.08 58.348 207.88C58.8013 207.667 59.208 207.367 59.568 206.98C59.928 206.593 60.208 206.133 60.408 205.6V199.06H62.168V207.5C62.168 207.713 62.208 207.873 62.288 207.98C62.3813 208.073 62.528 208.127 62.728 208.14V209.5C62.528 209.527 62.368 209.54 62.248 209.54C62.1413 209.553 62.0346 209.56 61.928 209.56C61.5946 209.56 61.308 209.46 61.068 209.26C60.828 209.047 60.7013 208.787 60.688 208.48L60.648 207.26C60.1946 208.033 59.5813 208.633 58.808 209.06C58.048 209.487 57.2146 209.7 56.308 209.7C55.2146 209.7 54.388 209.333 53.828 208.6C53.268 207.853 52.988 206.76 52.988 205.32ZM70.7197 209.7C69.8664 209.7 69.1064 209.487 68.4397 209.06C67.773 208.633 67.2464 208.093 66.8597 207.44V213.76H65.0997V199.06H66.6597V201.02C67.073 200.38 67.613 199.867 68.2797 199.48C68.9464 199.08 69.673 198.88 70.4597 198.88C71.1797 198.88 71.8397 199.027 72.4397 199.32C73.0397 199.613 73.5597 200.013 73.9997 200.52C74.4397 201.027 74.7797 201.607 75.0197 202.26C75.273 202.9 75.3997 203.573 75.3997 204.28C75.3997 205.267 75.1997 206.173 74.7997 207C74.413 207.827 73.8664 208.487 73.1597 208.98C72.453 209.46 71.6397 209.7 70.7197 209.7ZM70.1797 208.18C70.6997 208.18 71.1664 208.073 71.5797 207.86C72.0064 207.633 72.3664 207.34 72.6597 206.98C72.9664 206.607 73.1997 206.187 73.3597 205.72C73.5197 205.253 73.5997 204.773 73.5997 204.28C73.5997 203.76 73.5064 203.267 73.3197 202.8C73.1464 202.333 72.893 201.92 72.5597 201.56C72.2397 201.2 71.8597 200.92 71.4197 200.72C70.993 200.507 70.5264 200.4 70.0197 200.4C69.6997 200.4 69.3664 200.46 69.0197 200.58C68.6864 200.7 68.3664 200.873 68.0597 201.1C67.753 201.313 67.493 201.56 67.2797 201.84C67.0664 202.12 66.9264 202.42 66.8597 202.74V205.72C67.0597 206.173 67.3264 206.587 67.6597 206.96C67.993 207.333 68.3797 207.633 68.8197 207.86C69.2597 208.073 69.713 208.18 70.1797 208.18ZM77.6006 194.9H79.3606V206.8C79.3606 207.373 79.4406 207.727 79.6006 207.86C79.7606 207.993 79.954 208.06 80.1806 208.06C80.4606 208.06 80.7273 208.033 80.9806 207.98C81.234 207.913 81.4473 207.847 81.6206 207.78L81.9006 209.22C81.6073 209.34 81.2606 209.44 80.8606 209.52C80.4606 209.6 80.1073 209.64 79.8006 209.64C79.1206 209.64 78.5806 209.447 78.1806 209.06C77.794 208.673 77.6006 208.133 77.6006 207.44V194.9ZM87.9033 209.7C87.1166 209.7 86.3966 209.56 85.7433 209.28C85.1033 208.987 84.5433 208.593 84.0633 208.1C83.5966 207.593 83.2299 207.013 82.9633 206.36C82.7099 205.707 82.5833 205.013 82.5833 204.28C82.5833 203.293 82.8099 202.393 83.2633 201.58C83.7166 200.767 84.3433 200.113 85.1433 199.62C85.9566 199.127 86.8833 198.88 87.9233 198.88C88.9766 198.88 89.8899 199.133 90.6633 199.64C91.4499 200.133 92.0566 200.787 92.4833 201.6C92.9233 202.4 93.1433 203.267 93.1433 204.2C93.1433 204.333 93.1366 204.467 93.1233 204.6C93.1233 204.72 93.1166 204.813 93.1033 204.88H84.4433C84.4966 205.56 84.6833 206.167 85.0033 206.7C85.3366 207.22 85.7633 207.633 86.2833 207.94C86.8033 208.233 87.3633 208.38 87.9633 208.38C88.6033 208.38 89.2033 208.22 89.7633 207.9C90.3366 207.58 90.7299 207.16 90.9433 206.64L92.4633 207.06C92.2366 207.567 91.8966 208.02 91.4433 208.42C91.0033 208.82 90.4766 209.133 89.8633 209.36C89.2633 209.587 88.6099 209.7 87.9033 209.7ZM84.3833 203.66H91.5033C91.4499 202.98 91.2566 202.38 90.9233 201.86C90.5899 201.34 90.1633 200.933 89.6433 200.64C89.1233 200.347 88.5499 200.2 87.9233 200.2C87.3099 200.2 86.7433 200.347 86.2233 200.64C85.7033 200.933 85.2766 201.34 84.9433 201.86C84.6233 202.38 84.4366 202.98 84.3833 203.66ZM98.6797 209.7C97.813 209.7 96.9997 209.56 96.2397 209.28C95.4797 208.987 94.8264 208.553 94.2797 207.98L94.9597 206.74C95.5597 207.3 96.1597 207.7 96.7597 207.94C97.3597 208.18 97.973 208.3 98.5997 208.3C99.3197 208.3 99.9064 208.167 100.36 207.9C100.813 207.62 101.04 207.213 101.04 206.68C101.04 206.293 100.92 206.007 100.68 205.82C100.453 205.633 100.126 205.48 99.6997 205.36C99.273 205.227 98.7664 205.08 98.1797 204.92C97.4597 204.707 96.853 204.48 96.3597 204.24C95.8664 204 95.493 203.7 95.2397 203.34C94.9864 202.98 94.8597 202.527 94.8597 201.98C94.8597 201.313 95.033 200.753 95.3797 200.3C95.7264 199.833 96.1997 199.48 96.7997 199.24C97.413 199 98.1064 198.88 98.8797 198.88C99.653 198.88 100.353 199 100.98 199.24C101.606 199.48 102.146 199.833 102.6 200.3L101.8 201.52C101.386 201.093 100.933 200.78 100.44 200.58C99.9464 200.367 99.393 200.26 98.7797 200.26C98.4197 200.26 98.0664 200.307 97.7197 200.4C97.373 200.48 97.0864 200.633 96.8597 200.86C96.633 201.073 96.5197 201.38 96.5197 201.78C96.5197 202.113 96.6064 202.38 96.7797 202.58C96.9664 202.767 97.233 202.927 97.5797 203.06C97.9397 203.193 98.373 203.34 98.8797 203.5C99.6664 203.727 100.346 203.953 100.92 204.18C101.506 204.407 101.96 204.7 102.28 205.06C102.6 205.42 102.76 205.92 102.76 206.56C102.76 207.547 102.386 208.32 101.64 208.88C100.893 209.427 99.9064 209.7 98.6797 209.7ZM110.204 209.5V195.3H116.124C116.751 195.3 117.324 195.433 117.844 195.7C118.364 195.953 118.817 196.3 119.204 196.74C119.591 197.167 119.891 197.653 120.104 198.2C120.317 198.733 120.424 199.28 120.424 199.84C120.424 200.613 120.251 201.353 119.904 202.06C119.557 202.753 119.071 203.32 118.444 203.76C117.817 204.187 117.084 204.4 116.244 204.4H112.004V209.5H110.204ZM112.004 202.8H116.144C116.637 202.8 117.064 202.667 117.424 202.4C117.797 202.133 118.084 201.773 118.284 201.32C118.497 200.867 118.604 200.373 118.604 199.84C118.604 199.28 118.484 198.78 118.244 198.34C118.004 197.887 117.691 197.533 117.304 197.28C116.917 197.027 116.491 196.9 116.024 196.9H112.004V202.8ZM121.448 206.48C121.448 205.813 121.634 205.24 122.008 204.76C122.394 204.267 122.921 203.887 123.588 203.62C124.254 203.353 125.028 203.22 125.908 203.22C126.374 203.22 126.868 203.26 127.388 203.34C127.908 203.407 128.368 203.513 128.768 203.66V202.9C128.768 202.1 128.528 201.473 128.048 201.02C127.568 200.553 126.888 200.32 126.008 200.32C125.434 200.32 124.881 200.427 124.348 200.64C123.828 200.84 123.274 201.133 122.688 201.52L122.048 200.28C122.728 199.813 123.408 199.467 124.088 199.24C124.768 199 125.474 198.88 126.208 198.88C127.541 198.88 128.594 199.253 129.368 200C130.141 200.733 130.528 201.76 130.528 203.08V207.5C130.528 207.713 130.568 207.873 130.648 207.98C130.741 208.073 130.888 208.127 131.088 208.14V209.5C130.914 209.527 130.761 209.547 130.628 209.56C130.508 209.573 130.408 209.58 130.328 209.58C129.914 209.58 129.601 209.467 129.388 209.24C129.188 209.013 129.074 208.773 129.048 208.52L129.008 207.86C128.554 208.447 127.961 208.9 127.228 209.22C126.494 209.54 125.768 209.7 125.048 209.7C124.354 209.7 123.734 209.56 123.188 209.28C122.641 208.987 122.214 208.6 121.908 208.12C121.601 207.627 121.448 207.08 121.448 206.48ZM128.248 207.22C128.408 207.033 128.534 206.847 128.628 206.66C128.721 206.46 128.768 206.293 128.768 206.16V204.86C128.354 204.7 127.921 204.58 127.468 204.5C127.014 204.407 126.568 204.36 126.128 204.36C125.234 204.36 124.508 204.54 123.948 204.9C123.401 205.247 123.128 205.727 123.128 206.34C123.128 206.673 123.214 207 123.388 207.32C123.574 207.627 123.841 207.88 124.188 208.08C124.548 208.28 124.988 208.38 125.508 208.38C126.054 208.38 126.574 208.273 127.068 208.06C127.561 207.833 127.954 207.553 128.248 207.22ZM133.342 209.5V199.06H135.102V209.5H133.342ZM133.342 197.1V194.9H135.102V197.1H133.342ZM143.471 200.6C142.591 200.613 141.811 200.84 141.131 201.28C140.465 201.707 139.991 202.3 139.711 203.06V209.5H137.951V199.06H139.591V201.48C139.951 200.76 140.425 200.18 141.011 199.74C141.611 199.287 142.238 199.033 142.891 198.98C143.025 198.98 143.138 198.98 143.231 198.98C143.325 198.98 143.405 198.987 143.471 199V200.6ZM149.583 209.7C148.796 209.7 148.076 209.56 147.423 209.28C146.783 208.987 146.223 208.593 145.743 208.1C145.276 207.593 144.91 207.013 144.643 206.36C144.39 205.707 144.263 205.013 144.263 204.28C144.263 203.293 144.49 202.393 144.943 201.58C145.396 200.767 146.023 200.113 146.823 199.62C147.636 199.127 148.563 198.88 149.603 198.88C150.656 198.88 151.57 199.133 152.343 199.64C153.13 200.133 153.736 200.787 154.163 201.6C154.603 202.4 154.823 203.267 154.823 204.2C154.823 204.333 154.816 204.467 154.803 204.6C154.803 204.72 154.796 204.813 154.783 204.88H146.123C146.176 205.56 146.363 206.167 146.683 206.7C147.016 207.22 147.443 207.633 147.963 207.94C148.483 208.233 149.043 208.38 149.643 208.38C150.283 208.38 150.883 208.22 151.443 207.9C152.016 207.58 152.41 207.16 152.623 206.64L154.143 207.06C153.916 207.567 153.576 208.02 153.123 208.42C152.683 208.82 152.156 209.133 151.543 209.36C150.943 209.587 150.29 209.7 149.583 209.7ZM146.063 203.66H153.183C153.13 202.98 152.936 202.38 152.603 201.86C152.27 201.34 151.843 200.933 151.323 200.64C150.803 200.347 150.23 200.2 149.603 200.2C148.99 200.2 148.423 200.347 147.903 200.64C147.383 200.933 146.956 201.34 146.623 201.86C146.303 202.38 146.116 202.98 146.063 203.66ZM156.099 204.3C156.099 203.313 156.299 202.413 156.699 201.6C157.113 200.773 157.673 200.113 158.379 199.62C159.099 199.127 159.919 198.88 160.839 198.88C161.679 198.88 162.433 199.1 163.099 199.54C163.766 199.98 164.286 200.513 164.659 201.14V194.9H166.419V207.5C166.419 207.713 166.459 207.873 166.539 207.98C166.633 208.073 166.779 208.127 166.979 208.14V209.5C166.646 209.553 166.386 209.58 166.199 209.58C165.853 209.58 165.546 209.46 165.279 209.22C165.026 208.98 164.899 208.713 164.899 208.42V207.54C164.486 208.207 163.933 208.733 163.239 209.12C162.546 209.507 161.826 209.7 161.079 209.7C160.359 209.7 159.693 209.56 159.079 209.28C158.479 208.987 157.953 208.587 157.499 208.08C157.059 207.573 156.713 207 156.459 206.36C156.219 205.707 156.099 205.02 156.099 204.3ZM164.659 205.84V202.84C164.499 202.387 164.239 201.98 163.879 201.62C163.519 201.247 163.113 200.953 162.659 200.74C162.219 200.513 161.779 200.4 161.339 200.4C160.819 200.4 160.346 200.513 159.919 200.74C159.506 200.953 159.146 201.247 158.839 201.62C158.546 201.98 158.319 202.393 158.159 202.86C157.999 203.327 157.919 203.813 157.919 204.32C157.919 204.84 158.006 205.333 158.179 205.8C158.366 206.267 158.619 206.68 158.939 207.04C159.273 207.4 159.653 207.68 160.079 207.88C160.519 208.08 160.993 208.18 161.499 208.18C161.819 208.18 162.146 208.12 162.479 208C162.826 207.88 163.153 207.713 163.459 207.5C163.766 207.287 164.026 207.04 164.239 206.76C164.453 206.467 164.593 206.16 164.659 205.84Z" fill="black"/>
<defs>
<linearGradient id="paint0_linear_990_1027" x1="26" y1="70.5" x2="71.9374" y2="77.1256" gradientUnits="userSpaceOnUse">
<stop stop-color="#F05A8E"/>
<stop offset="1" stop-color="#ED1C24"/>
</linearGradient>
<linearGradient id="paint1_linear_990_1027" x1="26" y1="149" x2="108.033" y2="183.706" gradientUnits="userSpaceOnUse">
<stop stop-color="#F05A8E"/>
<stop offset="1" stop-color="#ED1C24"/>
</linearGradient>
</defs>
</svg>
