<svg width="344" height="67" viewBox="0 0 344 67" fill="none" xmlns="http://www.w3.org/2000/svg">
<path d="M32.9373 12.291C32.3853 11.647 31.6493 11.026 30.7293 10.428C29.8093 9.83 28.7743 9.301 27.6243 8.841C26.4743 8.335 25.2093 7.944 23.8293 7.668C22.4953 7.346 21.0923 7.185 19.6203 7.185C15.8483 7.185 13.0653 7.898 11.2713 9.324C9.47732 10.75 8.58032 12.705 8.58032 15.189C8.58032 16.937 9.04032 18.317 9.96032 19.329C10.8803 20.341 12.2833 21.169 14.1693 21.813C16.1013 22.457 18.5393 23.124 21.4833 23.814C24.8873 24.55 27.8313 25.447 30.3153 26.505C32.7993 27.563 34.7083 28.989 36.0423 30.783C37.3763 32.531 38.0433 34.877 38.0433 37.821C38.0433 40.167 37.5833 42.214 36.6633 43.962C35.7893 45.664 34.5473 47.09 32.9373 48.24C31.3273 49.344 29.4413 50.172 27.2793 50.724C25.1173 51.23 22.7713 51.483 20.2413 51.483C17.7573 51.483 15.3193 51.23 12.9273 50.724C10.5813 50.172 8.35032 49.39 6.23432 48.378C4.11832 47.366 2.14032 46.101 0.300316 44.583L3.26732 39.339C4.00332 40.121 4.94632 40.903 6.09632 41.685C7.29232 42.421 8.62632 43.111 10.0983 43.755C11.6163 44.399 13.2493 44.928 14.9973 45.342C16.7453 45.71 18.5393 45.894 20.3793 45.894C23.8753 45.894 26.5893 45.273 28.5213 44.031C30.4533 42.743 31.4193 40.88 31.4193 38.442C31.4193 36.602 30.8673 35.13 29.7633 34.026C28.7053 32.922 27.1183 32.002 25.0023 31.266C22.8863 30.53 20.3103 29.794 17.2743 29.058C13.9623 28.23 11.1793 27.333 8.92532 26.367C6.67132 25.355 4.96932 24.044 3.81932 22.434C2.71532 20.824 2.16332 18.731 2.16332 16.155C2.16332 13.027 2.92232 10.382 4.44032 8.22C5.95832 6.058 8.05132 4.425 10.7193 3.321C13.3873 2.217 16.4003 1.665 19.7583 1.665C21.9663 1.665 24.0133 1.895 25.8993 2.355C27.8313 2.815 29.6253 3.459 31.2813 4.287C32.9373 5.115 34.4553 6.104 35.8353 7.254L32.9373 12.291ZM42.4162 40.581C42.4162 38.281 43.0602 36.303 44.3482 34.647C45.6822 32.945 47.4992 31.634 49.7992 30.714C52.0992 29.794 54.7672 29.334 57.8032 29.334C59.4132 29.334 61.1152 29.472 62.9092 29.748C64.7032 29.978 66.2902 30.346 67.6702 30.852V28.23C67.6702 25.47 66.8422 23.308 65.1862 21.744C63.5302 20.134 61.1842 19.329 58.1482 19.329C56.1702 19.329 54.2612 19.697 52.4212 20.433C50.6272 21.123 48.7182 22.135 46.6942 23.469L44.4862 19.191C46.8322 17.581 49.1782 16.385 51.5242 15.603C53.8702 14.775 56.3082 14.361 58.8382 14.361C63.4382 14.361 67.0722 15.649 69.7402 18.225C72.4082 20.755 73.7422 24.297 73.7422 28.851V44.1C73.7422 44.836 73.8802 45.388 74.1562 45.756C74.4782 46.078 74.9842 46.262 75.6742 46.308V51C75.0762 51.092 74.5472 51.161 74.0872 51.207C73.6732 51.253 73.3282 51.276 73.0522 51.276C71.6262 51.276 70.5452 50.885 69.8092 50.103C69.1192 49.321 68.7282 48.493 68.6362 47.619L68.4982 45.342C66.9342 47.366 64.8872 48.93 62.3572 50.034C59.8272 51.138 57.3202 51.69 54.8362 51.69C52.4442 51.69 50.3052 51.207 48.4192 50.241C46.5332 49.229 45.0612 47.895 44.0032 46.239C42.9452 44.537 42.4162 42.651 42.4162 40.581ZM65.8762 43.134C66.4282 42.49 66.8652 41.846 67.1872 41.202C67.5092 40.512 67.6702 39.937 67.6702 39.477V34.992C66.2442 34.44 64.7492 34.026 63.1852 33.75C61.6212 33.428 60.0802 33.267 58.5622 33.267C55.4802 33.267 52.9732 33.888 51.0412 35.13C49.1552 36.326 48.2122 37.982 48.2122 40.098C48.2122 41.248 48.5112 42.375 49.1092 43.479C49.7532 44.537 50.6732 45.411 51.8692 46.101C53.1112 46.791 54.6292 47.136 56.4232 47.136C58.3092 47.136 60.1032 46.768 61.8052 46.032C63.5072 45.25 64.8642 44.284 65.8762 43.134ZM83.9617 60.798C84.5597 60.844 85.1577 60.89 85.7557 60.936C86.3537 61.028 86.8137 61.074 87.1357 61.074C87.8717 61.074 88.5157 60.821 89.0677 60.315C89.6197 59.809 90.2177 58.82 90.8617 57.348C91.5517 55.922 92.4257 53.806 93.4837 51L78.2347 14.982H84.6517L96.7957 44.859L107.767 14.982H113.77L96.2437 60.453C95.8297 61.511 95.2087 62.5 94.3807 63.42C93.5987 64.386 92.5867 65.145 91.3447 65.697C90.1027 66.249 88.6077 66.525 86.8597 66.525C86.4457 66.525 86.0087 66.502 85.5487 66.456C85.1347 66.41 84.6057 66.318 83.9617 66.18V60.798ZM115.193 56.589L116.573 50.448H114.503V43.272H120.23V50.448L118.16 56.589H115.193ZM187.358 2.01V51H181.148V28.713H154.169V51H147.959V2.01H154.169V23.193H181.148V2.01H187.358ZM213.469 51.69C210.755 51.69 208.271 51.207 206.017 50.241C203.809 49.229 201.877 47.872 200.221 46.17C198.611 44.422 197.346 42.421 196.426 40.167C195.552 37.913 195.115 35.521 195.115 32.991C195.115 29.587 195.897 26.482 197.461 23.676C199.025 20.87 201.187 18.616 203.947 16.914C206.753 15.212 209.95 14.361 213.538 14.361C217.172 14.361 220.323 15.235 222.991 16.983C225.705 18.685 227.798 20.939 229.27 23.745C230.788 26.505 231.547 29.495 231.547 32.715C231.547 33.175 231.524 33.635 231.478 34.095C231.478 34.509 231.455 34.831 231.409 35.061H201.532C201.716 37.407 202.36 39.5 203.464 41.34C204.614 43.134 206.086 44.56 207.88 45.618C209.674 46.63 211.606 47.136 213.676 47.136C215.884 47.136 217.954 46.584 219.886 45.48C221.864 44.376 223.221 42.927 223.957 41.133L229.201 42.582C228.419 44.33 227.246 45.894 225.682 47.274C224.164 48.654 222.347 49.735 220.231 50.517C218.161 51.299 215.907 51.69 213.469 51.69ZM201.325 30.852H225.889C225.705 28.506 225.038 26.436 223.888 24.642C222.738 22.848 221.266 21.445 219.472 20.433C217.678 19.421 215.7 18.915 213.538 18.915C211.422 18.915 209.467 19.421 207.673 20.433C205.879 21.445 204.407 22.848 203.257 24.642C202.153 26.436 201.509 28.506 201.325 30.852ZM238.435 0.629999H244.507V41.685C244.507 43.663 244.783 44.882 245.335 45.342C245.887 45.802 246.554 46.032 247.336 46.032C248.302 46.032 249.222 45.94 250.096 45.756C250.97 45.526 251.706 45.296 252.304 45.066L253.27 50.034C252.258 50.448 251.062 50.793 249.682 51.069C248.302 51.345 247.083 51.483 246.025 51.483C243.679 51.483 241.816 50.816 240.436 49.482C239.102 48.148 238.435 46.285 238.435 43.893V0.629999ZM258.178 0.629999H264.25V41.685C264.25 43.663 264.526 44.882 265.078 45.342C265.63 45.802 266.297 46.032 267.079 46.032C268.045 46.032 268.965 45.94 269.839 45.756C270.713 45.526 271.449 45.296 272.047 45.066L273.013 50.034C272.001 50.448 270.805 50.793 269.425 51.069C268.045 51.345 266.826 51.483 265.768 51.483C263.422 51.483 261.559 50.816 260.179 49.482C258.845 48.148 258.178 46.285 258.178 43.893V0.629999ZM293.515 51.69C290.801 51.69 288.34 51.207 286.132 50.241C283.924 49.229 282.015 47.872 280.405 46.17C278.795 44.422 277.553 42.421 276.679 40.167C275.805 37.913 275.368 35.544 275.368 33.06C275.368 30.53 275.805 28.138 276.679 25.884C277.553 23.63 278.795 21.652 280.405 19.95C282.015 18.202 283.924 16.845 286.132 15.879C288.386 14.867 290.847 14.361 293.515 14.361C296.229 14.361 298.69 14.867 300.898 15.879C303.106 16.845 305.015 18.202 306.625 19.95C308.281 21.652 309.546 23.63 310.42 25.884C311.294 28.138 311.731 30.53 311.731 33.06C311.731 35.544 311.294 37.913 310.42 40.167C309.546 42.421 308.304 44.422 306.694 46.17C305.084 47.872 303.152 49.229 300.898 50.241C298.69 51.207 296.229 51.69 293.515 51.69ZM281.578 33.129C281.578 35.613 282.107 37.867 283.165 39.891C284.269 41.915 285.718 43.525 287.512 44.721C289.306 45.871 291.307 46.446 293.515 46.446C295.723 46.446 297.724 45.848 299.518 44.652C301.358 43.456 302.807 41.846 303.865 39.822C304.969 37.752 305.521 35.475 305.521 32.991C305.521 30.507 304.969 28.253 303.865 26.229C302.807 24.205 301.358 22.595 299.518 21.399C297.724 20.203 295.723 19.605 293.515 19.605C291.307 19.605 289.306 20.226 287.512 21.468C285.718 22.664 284.269 24.274 283.165 26.298C282.107 28.322 281.578 30.599 281.578 33.129ZM337.645 34.44V1.527H343.717V34.44H337.645ZM337.645 51V42.444H343.717V51H337.645Z" fill="black"/>
</svg>
