<svg width="904" height="111" viewBox="0 0 904 111" fill="none" xmlns="http://www.w3.org/2000/svg">
<path d="M47.56 28.8C42.2 25.36 37.04 23.64 32.08 23.64C27.12 23.64 23.12 25 20.08 27.72C17.04 30.44 15.52 33.88 15.52 38.04C15.52 42.12 17.16 45.68 20.44 48.72C23.72 51.76 29 55.04 36.28 58.56C47.96 64.24 55.36 70.32 58.48 76.8C59.92 79.84 60.64 83.08 60.64 86.52C60.64 93.96 57.48 99.8 51.16 104.04C44.92 108.28 37.56 110.4 29.08 110.4C24.52 110.4 19.76 109.96 14.8 109.08C9.84 108.2 6.28 107.32 4.12 106.44C3.32 100.2 1.96 93.08 0.0400002 85.08C1.48 84.36 2.56 84 3.28 84C4.08 84 4.68 84.04 5.08 84.12C7.32 89.72 9.4 93.96 11.32 96.84C13 98.6 14.48 100.04 15.76 101.16C17.04 102.2 19.12 103.28 22 104.4C24.96 105.52 28.52 106.08 32.68 106.08C36.84 106.08 40.6 104.64 43.96 101.76C47.32 98.88 49 95.2 49 90.72C49 87.12 48.36 84.52 47.08 82.92C45.8 81.32 44.84 80.12 44.2 79.32C43.64 78.52 42.52 77.6 40.84 76.56C39.16 75.44 38 74.68 37.36 74.28C36.72 73.88 35.32 73.12 33.16 72C31.08 70.88 29.2 69.88 27.52 69C25.92 68.04 24.56 67.24 23.44 66.6C22.32 65.96 20.6 64.96 18.28 63.6C15.96 62.16 14.32 61.04 13.36 60.24C12.4 59.36 11.16 58.2 9.64 56.76C8.12 55.32 7.04 54 6.4 52.8C4.8 49.36 4 46.12 4 43.08C4 35.72 7.08 30 13.24 25.92C19.4 21.76 26.84 19.68 35.56 19.68C39.16 19.68 43.16 20.16 47.56 21.12C51.96 22.08 55.36 23.08 57.76 24.12C57.04 26.92 56.36 32.76 55.72 41.64C54.92 42.04 54.08 42.24 53.2 42.24C52.32 42.24 51.56 42.08 50.92 41.76C50.84 40.8 50.36 38.64 49.48 35.28C48.6 31.84 47.96 29.68 47.56 28.8ZM98.5206 108.36L88.4406 108C82.2006 108 76.5606 108.32 71.5206 108.96C71.1206 108.48 70.9206 107.8 70.9206 106.92L71.0406 105.96C74.3206 105.24 76.5206 104.16 77.6406 102.72C78.8406 101.2 79.7206 98.76 80.2806 95.4C80.9206 91.96 81.2406 79.4 81.2406 57.72V27C81.2406 19.72 80.4006 15.28 78.7206 13.68C77.8406 12.8 76.7206 12.28 75.3606 12.12L71.0406 11.64C70.8006 11.24 70.6806 10.76 70.6806 10.2C70.6806 9.56 70.8006 9.04 71.0406 8.63999C76.7206 7.6 81.1206 6.32 84.2406 4.8C86.3206 3.76 88.6806 2.36 91.3206 0.599995C92.1206 0.599995 92.7606 0.999995 93.2406 1.79999C91.6406 11.8 90.8406 30.56 90.8406 58.08C101.001 52.48 109.121 48.76 115.201 46.92C120.401 46.92 124.321 48.84 126.961 52.68C129.601 56.52 130.921 61.68 130.921 68.16L130.681 83.52C130.681 97.2 131.281 104.16 132.481 104.4C133.681 104.56 136.041 104.64 139.561 104.64C139.881 105.2 140.041 105.72 140.041 106.2C140.041 106.68 139.881 107.4 139.561 108.36L128.521 108C121.881 108 116.601 108.32 112.681 108.96C112.201 108.32 111.961 107.64 111.961 106.92L112.201 105.96C115.481 105.24 117.681 104.16 118.801 102.72C119.921 101.28 120.561 99.56 120.721 97.56C120.961 95.56 121.081 91.52 121.081 85.44C121.081 79.36 121.041 75.6 120.961 74.16C120.961 72.64 120.841 70.72 120.601 68.4C120.441 66 120.081 64.2 119.521 63C119.041 61.72 118.401 60.4 117.601 59.04C116.001 56.56 113.161 55.32 109.081 55.32C105.001 55.32 100.481 56.96 95.5206 60.24C94.8006 60.64 93.8806 61.24 92.7606 62.04C91.6406 62.76 91.0006 63.16 90.8406 63.24C90.7606 67.24 90.7206 71.48 90.7206 75.96C90.7206 94.44 91.2006 103.84 92.1606 104.16C93.2006 104.48 95.3206 104.64 98.5206 104.64C98.7606 105.2 98.8806 105.84 98.8806 106.56C98.8806 107.28 98.7606 107.88 98.5206 108.36ZM191.041 64.32L190.681 93.6C190.681 99.44 192.561 102.36 196.321 102.36L200.641 102.24C200.961 102.64 201.121 103.28 201.121 104.16L200.881 105.48C194.721 106.6 190.321 108.24 187.681 110.4C185.921 109.92 184.401 108.84 183.121 107.16C181.921 105.4 181.241 103.56 181.081 101.64C174.681 105.56 168.321 108.48 162.001 110.4C159.281 110.4 156.481 108.88 153.601 105.84C150.721 102.72 149.281 98.84 149.281 94.2C149.281 91.88 149.801 89.8 150.841 87.96C151.881 86.04 153.121 84.72 154.561 84C160.481 81.04 169.281 78.44 180.961 76.2V64.8C180.961 60.4 180.241 57.12 178.801 54.96C177.441 52.8 175.761 51.72 173.761 51.72C171.841 51.72 169.761 52.08 167.521 52.8C165.281 53.44 163.681 54.72 162.721 56.64C161.841 58.56 161.401 61.28 161.401 64.8C161.401 65.12 160.841 65.48 159.721 65.88C158.681 66.2 157.321 66.36 155.641 66.36C154.041 66.36 152.921 66 152.281 65.28C151.721 64.48 151.441 63.32 151.441 61.8C151.441 58.92 153.521 55.8 157.681 52.44C158.641 51.8 161.441 50.72 166.081 49.2C170.801 47.68 173.521 46.92 174.241 46.92C180.001 46.92 184.241 48.6 186.961 51.96C189.681 55.32 191.041 59.44 191.041 64.32ZM159.961 93.6C159.961 95.52 160.721 97.6 162.241 99.84C163.761 102.08 165.481 103.2 167.401 103.2C169.401 103.2 171.681 102.52 174.241 101.16C176.801 99.8 178.921 98.36 180.601 96.84C180.841 92.12 180.961 86.68 180.961 80.52C174.241 81.4 168.321 83.32 163.201 86.28C161.041 87.32 159.961 89.76 159.961 93.6ZM262.22 78.12C262.22 88.76 262.42 95.04 262.82 96.96C263.46 100.56 265.1 102.36 267.74 102.36C268.7 102.36 270.14 102.32 272.06 102.24C272.38 102.8 272.54 103.48 272.54 104.28L272.42 105.48C266.98 106.44 262.98 107.76 260.42 109.44L258.98 110.4C257.78 110.4 256.38 109.28 254.78 107.04C253.18 104.8 252.38 102.28 252.38 99.48C246.14 103.48 238.7 107.12 230.06 110.4C224.22 109.2 219.02 105.6 214.46 99.6C209.9 93.52 207.62 86.52 207.62 78.6C207.62 73.48 208.62 68.92 210.62 64.92C212.62 60.84 214.98 57.76 217.7 55.68C220.42 53.52 223.38 51.72 226.58 50.28C231.54 48.04 235.58 46.92 238.7 46.92C239.02 46.92 243.66 47.56 252.62 48.84V27C252.62 19.72 251.78 15.28 250.1 13.68C249.22 12.8 248.06 12.28 246.62 12.12L242.3 11.64C241.98 11 241.82 10.52 241.82 10.2L242.3 8.63999C245.74 8 249.06 7.16 252.26 6.12C255.46 4.92 258.94 3.08 262.7 0.599995C263.66 0.599995 264.3 0.999995 264.62 1.79999C263.02 7.88 262.22 33.32 262.22 78.12ZM217.7 74.04C217.7 81.32 219.54 87.8 223.22 93.48C226.98 99.08 231.14 101.88 235.7 101.88C240.34 101.88 245.98 99.4 252.62 94.44V60C252.62 57.76 249.9 55.88 244.46 54.36C239.02 52.76 235.22 51.96 233.06 51.96C229.7 51.96 226.3 54.28 222.86 58.92C219.42 63.48 217.7 68.52 217.7 74.04ZM307.522 108.36L296.722 108C291.122 108 285.842 108.32 280.882 108.96C280.402 108.32 280.162 107.64 280.162 106.92L280.402 105.96C283.842 105.16 286.162 103.92 287.362 102.24C288.242 100.96 288.922 99.44 289.402 97.68C289.882 95.84 290.122 90.64 290.122 82.08V70.56C290.122 65.6 289.882 62.16 289.402 60.24C289.002 58.32 288.362 57.04 287.482 56.4C286.602 55.76 285.442 55.36 284.002 55.2L279.562 54.84C279.322 54.52 279.202 54 279.202 53.28L279.562 51.72C283.722 50.84 287.082 49.96 289.642 49.08C292.282 48.12 295.362 46.76 298.882 45C299.762 45 300.362 45.48 300.682 46.44C299.722 51.88 299.242 64.84 299.242 85.32C299.242 89 299.362 93.08 299.602 97.56C299.922 101.96 300.322 104.2 300.802 104.28C302.002 104.52 304.242 104.64 307.522 104.64C307.762 105.2 307.882 105.84 307.882 106.56C307.882 107.28 307.762 107.88 307.522 108.36ZM296.242 31.32C293.362 29.32 291.322 26.68 290.122 23.4C291.082 22.28 292.362 21.12 293.962 19.92C295.642 18.64 297.082 17.76 298.282 17.28C301.322 19.52 303.282 22.2 304.162 25.32C301.922 28.2 299.282 30.2 296.242 31.32ZM467.245 108.36L454.765 108C446.125 108 439.125 108.32 433.765 108.96C433.365 108.48 433.165 107.8 433.165 106.92L433.285 105.96C438.085 104.84 441.125 103.64 442.405 102.36C443.685 101.08 444.445 98.36 444.685 94.2C444.925 90.04 445.045 85.72 445.045 81.24C445.045 76.68 444.805 69.76 444.325 60.48L443.365 40.8C439.685 47.6 433.925 59.16 426.085 75.48C418.325 91.8 413.285 103.44 410.965 110.4H407.605C392.005 75.12 382.005 53.64 377.605 45.96L372.565 37.32C372.245 47.24 372.085 59.36 372.085 73.68C372.085 87.92 372.565 98.12 373.525 104.28C375.285 104.52 378.405 104.64 382.885 104.64C383.125 105.28 383.245 106 383.245 106.8C383.245 107.52 383.125 108.04 382.885 108.36L369.325 108C363.805 108 359.165 108.32 355.405 108.96C355.005 108.48 354.805 107.8 354.805 106.92L354.925 105.96C358.845 105.08 361.445 103.8 362.725 102.12C364.085 100.44 364.965 98.24 365.365 95.52C367.285 81.84 368.405 60.28 368.725 30.84C366.565 28.12 364.205 26.2 361.645 25.08C361.325 25 359.085 24.68 354.925 24.12L354.565 22.44C354.565 21.64 354.685 21 354.925 20.52L374.125 20.04C375.325 20.04 377.365 22.16 380.245 26.4C383.205 30.64 386.125 35.36 389.005 40.56C391.885 45.68 395.205 52.36 398.965 60.6C402.805 68.84 406.005 75.96 408.565 81.96C411.125 87.96 412.565 91.24 412.885 91.8C413.925 89.48 418.845 79.04 427.645 60.48C436.445 41.84 442.245 28.88 445.045 21.6C453.125 21.6 459.565 21.24 464.365 20.52C464.765 21.24 464.965 22.24 464.965 23.52C460.965 24.4 458.285 25.72 456.925 27.48C455.565 29.24 454.805 31.12 454.645 33.12C454.485 35.12 454.405 38.88 454.405 44.4C454.405 49.92 454.645 59.28 455.125 72.48C455.685 85.68 456.525 96.28 457.645 104.28C459.165 104.52 462.365 104.64 467.245 104.64C467.485 105.2 467.605 105.84 467.605 106.56C467.605 107.28 467.485 107.88 467.245 108.36ZM530.563 46.08C531.283 46.24 531.883 46.72 532.363 47.52C531.643 52.96 531.283 61.92 531.283 74.4L531.403 91.56C531.403 98.76 533.203 102.36 536.803 102.36L541.123 102.24C541.443 102.8 541.603 103.44 541.603 104.16L541.483 105.48C537.563 106.12 534.763 106.88 533.083 107.76L529.963 109.2C529.563 109.44 528.963 109.84 528.163 110.4C526.403 109.76 524.923 108.36 523.723 106.2C522.523 103.96 521.843 101.72 521.683 99.48C514.883 103.72 507.083 107.36 498.283 110.4C493.163 110.4 489.323 108.52 486.763 104.76C484.283 100.92 483.043 95.72 483.043 89.16V66.24C483.043 60.8 482.803 57.36 482.323 55.92C481.843 54.4 480.443 53.4 478.123 52.92L474.163 52.44C473.923 51.96 473.803 51.44 473.803 50.88L474.163 49.44C475.523 49.2 478.603 48.68 483.403 47.88L491.923 46.08C492.563 46.24 493.123 46.72 493.603 47.52C492.963 51.92 492.643 63.48 492.643 82.2C492.643 95.32 496.163 101.88 503.203 101.88C505.683 101.88 508.163 101.44 510.643 100.56C513.203 99.68 515.123 98.84 516.403 98.04C517.683 97.16 519.323 95.96 521.323 94.44C521.563 89.16 521.683 85.36 521.683 83.04V68.52C521.683 63.64 521.443 60.24 520.963 58.32C520.563 56.4 519.923 55.12 519.043 54.48C518.243 53.76 517.123 53.24 515.683 52.92L511.723 52.44L511.363 50.88L511.723 49.44C512.523 49.28 513.963 49.08 516.043 48.84C518.203 48.6 521.043 48.12 524.563 47.4C528.083 46.68 530.083 46.24 530.563 46.08ZM574.419 108.36L564.339 108C558.099 108 552.459 108.32 547.419 108.96C547.019 108.48 546.819 107.8 546.819 106.92L546.939 105.96C550.219 105.24 552.419 104.16 553.539 102.72C554.739 101.2 555.619 98.76 556.179 95.4C556.819 91.96 557.139 79.4 557.139 57.72V27C557.139 19.72 556.299 15.28 554.619 13.68C553.739 12.8 552.619 12.28 551.259 12.12L546.939 11.64C546.699 11.24 546.579 10.76 546.579 10.2C546.579 9.56 546.699 9.04 546.939 8.63999C552.619 7.6 557.019 6.32 560.139 4.8C562.219 3.76 564.579 2.36 567.219 0.599995C568.019 0.599995 568.659 0.999995 569.139 1.79999C567.539 11.8 566.739 30.56 566.739 58.08C576.899 52.48 585.019 48.76 591.099 46.92C596.299 46.92 600.219 48.84 602.859 52.68C605.499 56.52 606.819 61.68 606.819 68.16L606.579 83.52C606.579 97.2 607.179 104.16 608.379 104.4C609.579 104.56 611.939 104.64 615.459 104.64C615.779 105.2 615.939 105.72 615.939 106.2C615.939 106.68 615.779 107.4 615.459 108.36L604.419 108C597.779 108 592.499 108.32 588.579 108.96C588.099 108.32 587.859 107.64 587.859 106.92L588.099 105.96C591.379 105.24 593.579 104.16 594.699 102.72C595.819 101.28 596.459 99.56 596.619 97.56C596.859 95.56 596.979 91.52 596.979 85.44C596.979 79.36 596.939 75.6 596.859 74.16C596.859 72.64 596.739 70.72 596.499 68.4C596.339 66 595.979 64.2 595.419 63C594.939 61.72 594.299 60.4 593.499 59.04C591.899 56.56 589.059 55.32 584.979 55.32C580.899 55.32 576.379 56.96 571.419 60.24C570.699 60.64 569.779 61.24 568.659 62.04C567.539 62.76 566.899 63.16 566.739 63.24C566.659 67.24 566.619 71.48 566.619 75.96C566.619 94.44 567.099 103.84 568.059 104.16C569.099 104.48 571.219 104.64 574.419 104.64C574.659 105.2 574.779 105.84 574.779 106.56C574.779 107.28 574.659 107.88 574.419 108.36ZM666.939 64.32L666.579 93.6C666.579 99.44 668.459 102.36 672.219 102.36L676.539 102.24C676.859 102.64 677.019 103.28 677.019 104.16L676.779 105.48C670.619 106.6 666.219 108.24 663.579 110.4C661.819 109.92 660.299 108.84 659.019 107.16C657.819 105.4 657.139 103.56 656.979 101.64C650.579 105.56 644.219 108.48 637.899 110.4C635.179 110.4 632.379 108.88 629.499 105.84C626.619 102.72 625.179 98.84 625.179 94.2C625.179 91.88 625.699 89.8 626.739 87.96C627.779 86.04 629.019 84.72 630.459 84C636.379 81.04 645.179 78.44 656.859 76.2V64.8C656.859 60.4 656.139 57.12 654.699 54.96C653.339 52.8 651.659 51.72 649.659 51.72C647.739 51.72 645.659 52.08 643.419 52.8C641.179 53.44 639.579 54.72 638.619 56.64C637.739 58.56 637.299 61.28 637.299 64.8C637.299 65.12 636.739 65.48 635.619 65.88C634.579 66.2 633.219 66.36 631.539 66.36C629.939 66.36 628.819 66 628.179 65.28C627.619 64.48 627.339 63.32 627.339 61.8C627.339 58.92 629.419 55.8 633.579 52.44C634.539 51.8 637.339 50.72 641.979 49.2C646.699 47.68 649.419 46.92 650.139 46.92C655.899 46.92 660.139 48.6 662.859 51.96C665.579 55.32 666.939 59.44 666.939 64.32ZM635.859 93.6C635.859 95.52 636.619 97.6 638.139 99.84C639.659 102.08 641.379 103.2 643.299 103.2C645.299 103.2 647.579 102.52 650.139 101.16C652.699 99.8 654.819 98.36 656.499 96.84C656.739 92.12 656.859 86.68 656.859 80.52C650.139 81.4 644.219 83.32 639.099 86.28C636.939 87.32 635.859 89.76 635.859 93.6ZM686.759 54.12L682.079 54.24C681.679 53.84 681.479 53.24 681.479 52.44L681.719 51C687.159 50.28 691.599 49.16 695.039 47.64C696.159 47.16 696.839 46.92 697.079 46.92C697.959 46.92 698.959 48.52 700.079 51.72C701.199 54.84 701.879 57.96 702.119 61.08C708.119 54.84 713.559 50.12 718.439 46.92C721.639 46.92 724.279 47.88 726.359 49.8C728.439 51.64 729.479 53.96 729.479 56.76C729.479 59.96 726.639 61.56 720.959 61.56C719.759 57.32 717.719 55.2 714.839 55.2C712.919 55.2 708.919 58.52 702.839 65.16C702.359 71.24 702.119 80.92 702.119 94.2C702.119 100.84 702.639 104.2 703.679 104.28C705.519 104.52 708.759 104.64 713.399 104.64C713.639 105.2 713.759 105.84 713.759 106.56C713.759 107.28 713.639 107.88 713.399 108.36L699.959 108C693.399 108 687.599 108.32 682.559 108.96C682.159 108.48 681.959 107.8 681.959 106.92L682.079 105.96C686.319 105.16 689.039 103.92 690.239 102.24C691.119 100.96 691.759 98.92 692.159 96.12C692.559 93.24 692.759 87.64 692.759 79.32C692.759 71 692.719 66.4 692.639 65.52C692.639 64.64 692.599 63.48 692.519 62.04C692.439 60.6 692.279 59.52 692.039 58.8C691.799 58.08 691.439 57.28 690.959 56.4C690.159 54.88 688.759 54.12 686.759 54.12ZM776.861 64.32L776.501 93.6C776.501 99.44 778.381 102.36 782.141 102.36L786.461 102.24C786.781 102.64 786.941 103.28 786.941 104.16L786.701 105.48C780.541 106.6 776.141 108.24 773.501 110.4C771.741 109.92 770.221 108.84 768.941 107.16C767.741 105.4 767.061 103.56 766.901 101.64C760.501 105.56 754.141 108.48 747.821 110.4C745.101 110.4 742.301 108.88 739.421 105.84C736.541 102.72 735.101 98.84 735.101 94.2C735.101 91.88 735.621 89.8 736.661 87.96C737.701 86.04 738.941 84.72 740.381 84C746.301 81.04 755.101 78.44 766.781 76.2V64.8C766.781 60.4 766.061 57.12 764.621 54.96C763.261 52.8 761.581 51.72 759.581 51.72C757.661 51.72 755.581 52.08 753.341 52.8C751.101 53.44 749.501 54.72 748.541 56.64C747.661 58.56 747.221 61.28 747.221 64.8C747.221 65.12 746.661 65.48 745.541 65.88C744.501 66.2 743.141 66.36 741.461 66.36C739.861 66.36 738.741 66 738.101 65.28C737.541 64.48 737.261 63.32 737.261 61.8C737.261 58.92 739.341 55.8 743.501 52.44C744.461 51.8 747.261 50.72 751.901 49.2C756.621 47.68 759.341 46.92 760.061 46.92C765.821 46.92 770.061 48.6 772.781 51.96C775.501 55.32 776.861 59.44 776.861 64.32ZM745.781 93.6C745.781 95.52 746.541 97.6 748.061 99.84C749.581 102.08 751.301 103.2 753.221 103.2C755.221 103.2 757.501 102.52 760.061 101.16C762.621 99.8 764.741 98.36 766.421 96.84C766.661 92.12 766.781 86.68 766.781 80.52C760.061 81.4 754.141 83.32 749.021 86.28C746.861 87.32 745.781 89.76 745.781 93.6ZM811.081 82.2C811.081 95.48 813.361 102.12 817.921 102.12C821.281 102.12 825.641 101 831.001 98.76C832.201 99.16 832.801 100.28 832.801 102.12C826.961 105.24 820.241 108 812.641 110.4C808.881 110.4 806.001 108.48 804.001 104.64C802.081 100.8 801.121 95.64 801.121 89.16V61.32C801.121 56.6 800.841 54.24 800.281 54.24L791.401 54.36C790.841 54.2 790.561 53.8 790.561 53.16C790.961 52.36 791.321 50.92 791.641 48.84H800.161C800.801 48.84 801.121 47.44 801.121 44.64L801.001 34.44C803.961 33.24 807.001 30.76 810.121 27C811.081 27 811.801 27.24 812.281 27.72C811.561 36.12 811.201 43.16 811.201 48.84C817.041 48.84 822.801 48.56 828.481 48C829.041 48.32 829.321 48.8 829.321 49.44C828.841 50.24 828.441 51.72 828.121 53.88L811.081 54.12V82.2ZM861.763 108.36L851.683 108C845.443 108 839.803 108.32 834.763 108.96C834.363 108.48 834.163 107.8 834.163 106.92L834.283 105.96C837.563 105.24 839.763 104.16 840.883 102.72C842.083 101.2 842.963 98.76 843.523 95.4C844.163 91.96 844.483 79.4 844.483 57.72V27C844.483 19.72 843.643 15.28 841.963 13.68C841.083 12.8 839.963 12.28 838.603 12.12L834.283 11.64C834.043 11.24 833.923 10.76 833.923 10.2C833.923 9.56 834.043 9.04 834.283 8.63999C839.963 7.6 844.363 6.32 847.483 4.8C849.563 3.76 851.923 2.36 854.563 0.599995C855.363 0.599995 856.003 0.999995 856.483 1.79999C854.883 11.8 854.083 30.56 854.083 58.08C864.243 52.48 872.363 48.76 878.443 46.92C883.643 46.92 887.563 48.84 890.203 52.68C892.843 56.52 894.163 61.68 894.163 68.16L893.923 83.52C893.923 97.2 894.523 104.16 895.723 104.4C896.923 104.56 899.283 104.64 902.803 104.64C903.123 105.2 903.283 105.72 903.283 106.2C903.283 106.68 903.123 107.4 902.803 108.36L891.763 108C885.123 108 879.843 108.32 875.923 108.96C875.443 108.32 875.203 107.64 875.203 106.92L875.443 105.96C878.723 105.24 880.923 104.16 882.043 102.72C883.163 101.28 883.803 99.56 883.963 97.56C884.203 95.56 884.323 91.52 884.323 85.44C884.323 79.36 884.283 75.6 884.203 74.16C884.203 72.64 884.083 70.72 883.843 68.4C883.683 66 883.323 64.2 882.763 63C882.283 61.72 881.643 60.4 880.843 59.04C879.243 56.56 876.403 55.32 872.323 55.32C868.243 55.32 863.723 56.96 858.763 60.24C858.043 60.64 857.123 61.24 856.003 62.04C854.883 62.76 854.243 63.16 854.083 63.24C854.003 67.24 853.963 71.48 853.963 75.96C853.963 94.44 854.443 103.84 855.403 104.16C856.443 104.48 858.563 104.64 861.763 104.64C862.003 105.2 862.123 105.84 862.123 106.56C862.123 107.28 862.003 107.88 861.763 108.36Z" fill="white"/>
</svg>
