<svg width="84" height="57" viewBox="0 0 84 57" fill="none" xmlns="http://www.w3.org/2000/svg">
<path d="M0.638072 25.4702C0.638072 19.6597 24.0776 0.370495 32.2597 0.370495C32.3388 0.370495 32.4573 0.370495 32.5364 0.370495C33.2083 0.410021 33.8013 0.686709 34.0779 1.20056C35.9357 5.03468 28.7418 20.055 22.0617 25.7864C21.706 26.1026 21.2317 26.2607 20.8364 26.2607C20.0458 26.2607 19.3344 25.7073 19.3344 24.6006C19.3344 24.2448 19.4134 23.9286 19.532 23.6124C21.1131 19.8573 22.8127 18.1972 25.7377 14.0468C25.8168 13.9283 25.9749 13.8097 26.3702 13.8097C27.556 13.8097 28.3465 15.1536 27.5165 15.8651C24.9867 18.1577 23.4056 20.806 21.7455 23.81C21.6665 23.9286 21.5479 24.0867 21.5479 24.2448L21.5874 24.5215C27.2002 19.1063 34.0384 5.3509 33.1293 1.71441C33.0502 1.43772 32.8921 1.31914 32.6154 1.31914C24.9472 1.31914 3.1678 20.4502 3.95834 25.0354C4.78841 29.7786 21.0735 33.8894 24.1567 36.1029C24.2357 36.1425 24.3543 36.2215 24.4333 36.261C28.1094 34.9962 31.3506 34.0475 32.9317 33.6918C32.9712 33.6918 33.0502 33.6918 33.0898 33.6918C33.7617 33.6918 33.8803 34.5614 33.2083 34.7985C29.809 35.8658 27.5165 36.3006 25.0263 36.933C25.2239 37.2492 25.3029 37.6445 25.3029 38.1979C25.3029 39.1465 24.8286 39.8975 24.3148 40.609C21.4293 44.4036 15.3817 50.5303 10.2827 50.5303C7.00192 50.5303 5.53942 48.0006 6.17186 45.8266C6.92287 43.2178 15.4212 39.5023 22.8523 36.8144C17.9114 33.4151 0.638072 30.6877 0.638072 25.4702ZM23.5242 37.3678C20.0063 38.356 10.006 42.783 8.66206 45.3523C8.10868 46.4195 8.97828 47.8425 10.6384 47.8425C15.1445 47.8425 21.6269 43.4945 23.7614 39.6999C23.959 39.3837 24.1567 39.0279 24.1567 38.5931C24.1567 38.1583 23.9195 37.7631 23.5242 37.3678ZM46.9347 34.9171C45.1165 35.7472 40.5709 38.356 39.5432 38.356C38.3178 38.356 37.5668 37.4469 37.5668 36.3006C37.5668 35.51 38.1202 34.1266 37.804 33.9289C37.7645 33.8894 37.7249 33.8894 37.6459 33.8894C36.6972 33.8894 33.5746 37.3283 32.9817 39.6604C32.7445 40.53 32.1516 43.6921 32.033 44.2455C31.8749 45.036 31.5982 45.1941 31.3611 45.3127C31.3215 45.3127 31.282 45.3523 31.282 45.3523C30.9658 45.3523 30.9263 44.6012 30.9263 44.3641C30.9263 41.2414 32.7445 33.8104 33.5746 30.0553C33.4165 29.8972 33.2584 29.66 33.2584 29.3833C33.2584 29.1066 33.4165 28.9881 33.5746 28.7509C34.3256 27.7232 35.1161 24.7982 35.3138 23.5333C35.9067 19.8178 36.5786 16.1418 37.9226 12.6239C39.1874 9.22455 41.1638 3.4536 42.6658 3.4536C42.7053 3.4536 42.7053 3.4536 42.7449 3.4536C44.1678 3.65124 44.1678 6.2205 42.7449 11.7543C41.2824 17.4857 38.3574 23.2566 35.3138 28.3161C34.207 32.585 33.8908 33.336 33.4165 36.6168C34.5232 35.4705 37.0925 31.5178 38.6736 31.5178C39.4246 31.5178 40.2547 32.2293 40.2547 33.4546C40.2547 34.5218 38.6736 37.2097 39.2665 37.5259C40.729 37.5259 45.2746 34.759 46.658 33.9289C46.7766 33.8499 46.8557 33.8499 46.9347 33.8499C47.4091 33.8499 47.6462 34.6009 46.9347 34.9171ZM36.6577 21.7941C37.8435 20.3712 43.2192 7.88063 42.3101 5.19279C41.48 6.3786 41.0847 7.80157 40.5313 9.1455C40.1361 10.1732 37.2901 19.1854 36.6577 21.7941ZM54.7438 36.7749C55.6924 36.7749 57.7478 35.7472 59.408 34.2452C59.6451 34.0475 59.8823 33.9289 60.0799 33.9289C60.3962 33.9289 60.5147 34.2847 60.159 34.6404C58.7755 35.9844 56.1668 38.0002 54.5461 38.0002C52.4512 38.0002 52.6093 36.1425 52.886 34.8381C52.4512 34.8381 48.6171 37.0911 46.8384 37.0911C46.0083 37.0911 45.7316 36.6563 45.7316 36.1425C45.7316 33.8499 49.5657 31.1621 51.8188 31.1621C52.8465 31.1621 53.7556 31.755 54.388 32.5455C54.5857 32.8222 54.7438 33.1384 54.7438 33.4941C54.7438 34.3242 54.1114 35.3914 54.1114 36.2215C54.1114 36.6563 54.3485 36.7749 54.7438 36.7749ZM49.8029 34.7195C49.9215 34.9171 52.4907 33.4941 52.2141 33.0198C52.1745 32.9803 52.135 32.9408 52.0559 32.9408C51.4235 32.9408 49.6053 34.3242 49.8029 34.7195ZM67.6778 33.1384C67.243 34.2056 67.1639 35.3914 66.8872 36.5377C65.1085 44.285 63.5274 48.7911 62.9345 55.6293C62.895 55.8664 62.5788 56.3803 62.2626 56.3803C61.7487 56.3803 61.2349 55.906 61.3139 55.3921C62.0649 50.7279 64.3575 39.6208 66.0967 32.8617C64.9899 33.2175 61.5116 38.5536 59.4561 38.5536C58.6656 38.5536 58.1518 37.3283 58.1518 36.6168C58.1518 34.8381 61.8278 32.1107 63.3693 31.4783C65.8595 30.4901 67.2034 27.486 67.9149 24.9958C68.6659 22.2685 74.3183 4.00698 77.1247 4.00698C78.1129 4.00698 78.3105 4.95563 78.3105 5.74617C78.3105 10.1732 71.9467 23.2171 69.2984 27.4465C68.8241 28.1975 68.1521 30.1739 68.1521 31.0435C68.1521 31.9131 69.0217 31.9921 69.0217 32.9803C69.0217 33.4151 69.0217 33.9289 68.5474 33.9289C68.2707 33.9289 67.994 33.336 67.6778 33.1384ZM70.6818 21.3593C71.0376 21.2803 71.1166 21.1617 71.2747 20.8455C72.6977 17.881 77.4014 8.11779 77.4014 5.42995C77.4014 5.23232 77.3619 5.11374 77.2433 5.03468C77.2038 5.03468 77.1643 4.99516 77.1247 4.99516C76.9271 4.99516 76.8085 5.15326 76.6899 5.3509C74.1997 9.26408 71.8281 16.7347 70.6818 21.3593ZM81.406 34.2056C81.5641 34.0871 81.8013 34.0475 81.9594 34.0475C82.6313 34.0475 83.1452 34.6009 82.2361 35.0752C79.8249 36.3796 74.0935 39.0675 72.9867 39.0675C71.5638 39.0675 71.4452 37.5654 71.4847 36.6168C71.5638 35.2729 73.5006 29.8181 75.3584 29.8181C75.9908 29.8181 76.2675 30.7273 76.2675 31.2016C76.2675 31.5968 76.1489 31.9921 75.9908 32.3479C75.2398 33.8894 73.0658 36.261 72.552 37.8816C72.631 37.9212 72.7891 37.9212 72.8682 37.9212C73.6982 37.9212 79.1925 35.7472 81.406 34.2056ZM72.9472 26.9722C72.9472 26.7746 73.0658 26.4979 73.2239 26.3398C74.6469 25.1539 76.7418 23.81 78.5996 23.81C79.0344 23.81 79.5878 24.1658 79.5878 24.9168C79.5878 25.5097 79.1925 26.0235 78.8367 26.0235C78.5996 26.0235 78.2834 25.984 78.0462 25.984C75.7141 25.984 73.5006 27.5256 73.303 27.5256C72.9867 27.5256 72.9472 27.1698 72.9472 26.9722Z" fill="white"/>
<path d="M0.638072 25.4702C0.638072 19.6597 24.0776 0.370495 32.2597 0.370495C32.3388 0.370495 32.4573 0.370495 32.5364 0.370495C33.2083 0.410021 33.8013 0.686709 34.0779 1.20056C35.9357 5.03468 28.7418 20.055 22.0617 25.7864C21.706 26.1026 21.2317 26.2607 20.8364 26.2607C20.0458 26.2607 19.3344 25.7073 19.3344 24.6006C19.3344 24.2448 19.4134 23.9286 19.532 23.6124C21.1131 19.8573 22.8127 18.1972 25.7377 14.0468C25.8168 13.9283 25.9749 13.8097 26.3702 13.8097C27.556 13.8097 28.3465 15.1536 27.5165 15.8651C24.9867 18.1577 23.4056 20.806 21.7455 23.81C21.6665 23.9286 21.5479 24.0867 21.5479 24.2448L21.5874 24.5215C27.2002 19.1063 34.0384 5.3509 33.1293 1.71441C33.0502 1.43772 32.8921 1.31914 32.6154 1.31914C24.9472 1.31914 3.1678 20.4502 3.95834 25.0354C4.78841 29.7786 21.0735 33.8894 24.1567 36.1029C24.2357 36.1425 24.3543 36.2215 24.4333 36.261C28.1094 34.9962 31.3506 34.0475 32.9317 33.6918C32.9712 33.6918 33.0502 33.6918 33.0898 33.6918C33.7617 33.6918 33.8803 34.5614 33.2083 34.7985C29.809 35.8658 27.5165 36.3006 25.0263 36.933C25.2239 37.2492 25.3029 37.6445 25.3029 38.1979C25.3029 39.1465 24.8286 39.8975 24.3148 40.609C21.4293 44.4036 15.3817 50.5303 10.2827 50.5303C7.00192 50.5303 5.53942 48.0006 6.17186 45.8266C6.92287 43.2178 15.4212 39.5023 22.8523 36.8144C17.9114 33.4151 0.638072 30.6877 0.638072 25.4702ZM23.5242 37.3678C20.0063 38.356 10.006 42.783 8.66206 45.3523C8.10868 46.4195 8.97828 47.8425 10.6384 47.8425C15.1445 47.8425 21.6269 43.4945 23.7614 39.6999C23.959 39.3837 24.1567 39.0279 24.1567 38.5931C24.1567 38.1583 23.9195 37.7631 23.5242 37.3678ZM46.9347 34.9171C45.1165 35.7472 40.5709 38.356 39.5432 38.356C38.3178 38.356 37.5668 37.4469 37.5668 36.3006C37.5668 35.51 38.1202 34.1266 37.804 33.9289C37.7645 33.8894 37.7249 33.8894 37.6459 33.8894C36.6972 33.8894 33.5746 37.3283 32.9817 39.6604C32.7445 40.53 32.1516 43.6921 32.033 44.2455C31.8749 45.036 31.5982 45.1941 31.3611 45.3127C31.3215 45.3127 31.282 45.3523 31.282 45.3523C30.9658 45.3523 30.9263 44.6012 30.9263 44.3641C30.9263 41.2414 32.7445 33.8104 33.5746 30.0553C33.4165 29.8972 33.2584 29.66 33.2584 29.3833C33.2584 29.1066 33.4165 28.9881 33.5746 28.7509C34.3256 27.7232 35.1161 24.7982 35.3138 23.5333C35.9067 19.8178 36.5786 16.1418 37.9226 12.6239C39.1874 9.22455 41.1638 3.4536 42.6658 3.4536C42.7053 3.4536 42.7053 3.4536 42.7449 3.4536C44.1678 3.65124 44.1678 6.2205 42.7449 11.7543C41.2824 17.4857 38.3574 23.2566 35.3138 28.3161C34.207 32.585 33.8908 33.336 33.4165 36.6168C34.5232 35.4705 37.0925 31.5178 38.6736 31.5178C39.4246 31.5178 40.2547 32.2293 40.2547 33.4546C40.2547 34.5218 38.6736 37.2097 39.2665 37.5259C40.729 37.5259 45.2746 34.759 46.658 33.9289C46.7766 33.8499 46.8557 33.8499 46.9347 33.8499C47.4091 33.8499 47.6462 34.6009 46.9347 34.9171ZM36.6577 21.7941C37.8435 20.3712 43.2192 7.88063 42.3101 5.19279C41.48 6.3786 41.0847 7.80157 40.5313 9.1455C40.1361 10.1732 37.2901 19.1854 36.6577 21.7941ZM54.7438 36.7749C55.6924 36.7749 57.7478 35.7472 59.408 34.2452C59.6451 34.0475 59.8823 33.9289 60.0799 33.9289C60.3962 33.9289 60.5147 34.2847 60.159 34.6404C58.7755 35.9844 56.1668 38.0002 54.5461 38.0002C52.4512 38.0002 52.6093 36.1425 52.886 34.8381C52.4512 34.8381 48.6171 37.0911 46.8384 37.0911C46.0083 37.0911 45.7316 36.6563 45.7316 36.1425C45.7316 33.8499 49.5657 31.1621 51.8188 31.1621C52.8465 31.1621 53.7556 31.755 54.388 32.5455C54.5857 32.8222 54.7438 33.1384 54.7438 33.4941C54.7438 34.3242 54.1114 35.3914 54.1114 36.2215C54.1114 36.6563 54.3485 36.7749 54.7438 36.7749ZM49.8029 34.7195C49.9215 34.9171 52.4907 33.4941 52.2141 33.0198C52.1745 32.9803 52.135 32.9408 52.0559 32.9408C51.4235 32.9408 49.6053 34.3242 49.8029 34.7195ZM67.6778 33.1384C67.243 34.2056 67.1639 35.3914 66.8872 36.5377C65.1085 44.285 63.5274 48.7911 62.9345 55.6293C62.895 55.8664 62.5788 56.3803 62.2626 56.3803C61.7487 56.3803 61.2349 55.906 61.3139 55.3921C62.0649 50.7279 64.3575 39.6208 66.0967 32.8617C64.9899 33.2175 61.5116 38.5536 59.4561 38.5536C58.6656 38.5536 58.1518 37.3283 58.1518 36.6168C58.1518 34.8381 61.8278 32.1107 63.3693 31.4783C65.8595 30.4901 67.2034 27.486 67.9149 24.9958C68.6659 22.2685 74.3183 4.00698 77.1247 4.00698C78.1129 4.00698 78.3105 4.95563 78.3105 5.74617C78.3105 10.1732 71.9467 23.2171 69.2984 27.4465C68.8241 28.1975 68.1521 30.1739 68.1521 31.0435C68.1521 31.9131 69.0217 31.9921 69.0217 32.9803C69.0217 33.4151 69.0217 33.9289 68.5474 33.9289C68.2707 33.9289 67.994 33.336 67.6778 33.1384ZM70.6818 21.3593C71.0376 21.2803 71.1166 21.1617 71.2747 20.8455C72.6977 17.881 77.4014 8.11779 77.4014 5.42995C77.4014 5.23232 77.3619 5.11374 77.2433 5.03468C77.2038 5.03468 77.1643 4.99516 77.1247 4.99516C76.9271 4.99516 76.8085 5.15326 76.6899 5.3509C74.1997 9.26408 71.8281 16.7347 70.6818 21.3593ZM81.406 34.2056C81.5641 34.0871 81.8013 34.0475 81.9594 34.0475C82.6313 34.0475 83.1452 34.6009 82.2361 35.0752C79.8249 36.3796 74.0935 39.0675 72.9867 39.0675C71.5638 39.0675 71.4452 37.5654 71.4847 36.6168C71.5638 35.2729 73.5006 29.8181 75.3584 29.8181C75.9908 29.8181 76.2675 30.7273 76.2675 31.2016C76.2675 31.5968 76.1489 31.9921 75.9908 32.3479C75.2398 33.8894 73.0658 36.261 72.552 37.8816C72.631 37.9212 72.7891 37.9212 72.8682 37.9212C73.6982 37.9212 79.1925 35.7472 81.406 34.2056ZM72.9472 26.9722C72.9472 26.7746 73.0658 26.4979 73.2239 26.3398C74.6469 25.1539 76.7418 23.81 78.5996 23.81C79.0344 23.81 79.5878 24.1658 79.5878 24.9168C79.5878 25.5097 79.1925 26.0235 78.8367 26.0235C78.5996 26.0235 78.2834 25.984 78.0462 25.984C75.7141 25.984 73.5006 27.5256 73.303 27.5256C72.9867 27.5256 72.9472 27.1698 72.9472 26.9722Z" fill="url(#paint0_linear_990_915)"/>
<defs>
<linearGradient id="paint0_linear_990_915" x1="0.0451662" y1="18.0002" x2="55.2967" y2="34.3366" gradientUnits="userSpaceOnUse">
<stop stop-color="#F05A8E"/>
<stop offset="1" stop-color="#ED1C24"/>
</linearGradient>
</defs>
</svg>
