<svg width="569" height="77" viewBox="0 0 569 77" fill="none" xmlns="http://www.w3.org/2000/svg">
<path d="M70.1422 10.145C69.7022 9.63166 69.1156 9.13666 68.3822 8.66C67.6489 8.18333 66.8239 7.76167 65.9072 7.395C64.9906 6.99167 63.9822 6.68 62.8822 6.46C61.8189 6.20333 60.7006 6.075 59.5272 6.075C56.5206 6.075 54.3022 6.64333 52.8722 7.78C51.4422 8.91667 50.7272 10.475 50.7272 12.455C50.7272 13.8483 51.0939 14.9483 51.8272 15.755C52.5606 16.5617 53.6789 17.2217 55.1822 17.735C56.7222 18.2483 58.6656 18.78 61.0122 19.33C63.7256 19.9167 66.0722 20.6317 68.0522 21.475C70.0322 22.3183 71.5539 23.455 72.6172 24.885C73.6806 26.2783 74.2122 28.1483 74.2122 30.495C74.2122 32.365 73.8456 33.9967 73.1122 35.39C72.4156 36.7467 71.4256 37.8833 70.1422 38.8C68.8589 39.68 67.3556 40.34 65.6322 40.78C63.9089 41.1833 62.0389 41.385 60.0222 41.385C58.0422 41.385 56.0989 41.1833 54.1922 40.78C52.3222 40.34 50.5439 39.7167 48.8572 38.91C47.1706 38.1033 45.5939 37.095 44.1272 35.885L46.4922 31.705C47.0789 32.3283 47.8306 32.9517 48.7472 33.575C49.7006 34.1617 50.7639 34.7117 51.9372 35.225C53.1472 35.7383 54.4489 36.16 55.8422 36.49C57.2356 36.7833 58.6656 36.93 60.1322 36.93C62.9189 36.93 65.0822 36.435 66.6222 35.445C68.1622 34.4183 68.9322 32.9333 68.9322 30.99C68.9322 29.5233 68.4922 28.35 67.6122 27.47C66.7689 26.59 65.5039 25.8567 63.8172 25.27C62.1306 24.6833 60.0772 24.0967 57.6572 23.51C55.0172 22.85 52.7989 22.135 51.0022 21.365C49.2056 20.5583 47.8489 19.5133 46.9322 18.23C46.0522 16.9467 45.6122 15.2783 45.6122 13.225C45.6122 10.7317 46.2172 8.62333 47.4272 6.9C48.6372 5.17666 50.3056 3.875 52.4322 2.995C54.5589 2.115 56.9606 1.675 59.6372 1.675C61.3972 1.675 63.0289 1.85833 64.5322 2.225C66.0722 2.59166 67.5022 3.105 68.8222 3.765C70.1422 4.425 71.3522 5.21333 72.4522 6.13L70.1422 10.145ZM79.9529 41V12.29H84.7929V41H79.9529ZM79.9529 6.9V0.849999H84.7929V6.9H79.9529ZM104.069 41.33C102.125 41.33 100.329 40.945 98.6786 40.175C97.0653 39.3683 95.672 38.2867 94.4986 36.93C93.3253 35.5367 92.4086 33.96 91.7486 32.2C91.1253 30.44 90.8136 28.6067 90.8136 26.7C90.8136 24.6833 91.1253 22.7767 91.7486 20.98C92.4086 19.1833 93.3253 17.6067 94.4986 16.25C95.7086 14.8567 97.1203 13.775 98.7336 13.005C100.347 12.1983 102.144 11.795 104.124 11.795C106.507 11.795 108.579 12.3817 110.339 13.555C112.135 14.7283 113.639 16.2133 114.849 18.01V12.29H119.139V40.67C119.139 43.3833 118.479 45.675 117.159 47.545C115.875 49.415 114.115 50.8267 111.879 51.78C109.679 52.77 107.222 53.265 104.509 53.265C101.282 53.265 98.642 52.6967 96.5886 51.56C94.5353 50.4233 92.8303 48.8833 91.4736 46.94L94.2786 44.465C95.4153 46.1517 96.882 47.4167 98.6786 48.26C100.512 49.1033 102.455 49.525 104.509 49.525C106.269 49.525 107.882 49.195 109.349 48.535C110.852 47.9117 112.044 46.94 112.924 45.62C113.84 44.3 114.299 42.65 114.299 40.67V35.61C113.235 37.37 111.769 38.7633 109.899 39.79C108.065 40.8167 106.122 41.33 104.069 41.33ZM105.554 37.37C106.58 37.37 107.57 37.1867 108.524 36.82C109.477 36.4533 110.357 35.9767 111.164 35.39C111.97 34.7667 112.649 34.07 113.199 33.3C113.749 32.53 114.115 31.7417 114.299 30.935V22.685C113.785 21.365 113.052 20.21 112.099 19.22C111.145 18.1933 110.064 17.405 108.854 16.855C107.644 16.2683 106.397 15.975 105.114 15.975C103.647 15.975 102.327 16.2867 101.154 16.91C100.017 17.5333 99.0453 18.3767 98.2386 19.44C97.432 20.4667 96.8086 21.6217 96.3686 22.905C95.9286 24.1883 95.7086 25.49 95.7086 26.81C95.7086 28.24 95.9653 29.5967 96.4786 30.88C96.992 32.1267 97.6886 33.245 98.5686 34.235C99.4486 35.225 100.494 35.995 101.704 36.545C102.914 37.095 104.197 37.37 105.554 37.37ZM151.865 41H147.025V24.94C147.025 21.8967 146.548 19.6783 145.595 18.285C144.678 16.855 143.267 16.14 141.36 16.14C140.04 16.14 138.72 16.47 137.4 17.13C136.117 17.79 134.962 18.6883 133.935 19.825C132.945 20.925 132.23 22.2083 131.79 23.675V41H126.95V12.29H131.35V18.45C132.12 17.0933 133.11 15.92 134.32 14.93C135.53 13.94 136.905 13.17 138.445 12.62C139.985 12.07 141.598 11.795 143.285 11.795C144.935 11.795 146.31 12.1067 147.41 12.73C148.547 13.3167 149.427 14.16 150.05 15.26C150.71 16.3233 151.168 17.5883 151.425 19.055C151.718 20.5217 151.865 22.1167 151.865 23.84V41ZM174.072 41V1.95H179.022V41H174.072ZM212.505 41H207.665V24.94C207.665 21.8967 207.188 19.6783 206.235 18.285C205.318 16.855 203.906 16.14 202 16.14C200.68 16.14 199.36 16.47 198.04 17.13C196.756 17.79 195.601 18.6883 194.575 19.825C193.585 20.925 192.87 22.2083 192.43 23.675V41H187.59V12.29H191.99V18.45C192.76 17.0933 193.75 15.92 194.96 14.93C196.17 13.94 197.545 13.17 199.085 12.62C200.625 12.07 202.238 11.795 203.925 11.795C205.575 11.795 206.95 12.1067 208.05 12.73C209.186 13.3167 210.066 14.16 210.69 15.26C211.35 16.3233 211.808 17.5883 212.065 19.055C212.358 20.5217 212.505 22.1167 212.505 23.84V41ZM261.207 6.35H247.732V41H242.782V6.35H229.307V1.95H261.207V6.35ZM272.478 41.55C270.315 41.55 268.353 41.165 266.593 40.395C264.833 39.5883 263.312 38.5067 262.028 37.15C260.745 35.7567 259.755 34.1617 259.058 32.365C258.362 30.5683 258.013 28.68 258.013 26.7C258.013 24.6833 258.362 22.7767 259.058 20.98C259.755 19.1833 260.745 17.6067 262.028 16.25C263.312 14.8567 264.833 13.775 266.593 13.005C268.39 12.1983 270.352 11.795 272.478 11.795C274.642 11.795 276.603 12.1983 278.363 13.005C280.123 13.775 281.645 14.8567 282.928 16.25C284.248 17.6067 285.257 19.1833 285.953 20.98C286.65 22.7767 286.998 24.6833 286.998 26.7C286.998 28.68 286.65 30.5683 285.953 32.365C285.257 34.1617 284.267 35.7567 282.983 37.15C281.7 38.5067 280.16 39.5883 278.363 40.395C276.603 41.165 274.642 41.55 272.478 41.55ZM262.963 26.755C262.963 28.735 263.385 30.5317 264.228 32.145C265.108 33.7583 266.263 35.0417 267.693 35.995C269.123 36.9117 270.718 37.37 272.478 37.37C274.238 37.37 275.833 36.8933 277.263 35.94C278.73 34.9867 279.885 33.7033 280.728 32.09C281.608 30.44 282.048 28.625 282.048 26.645C282.048 24.665 281.608 22.8683 280.728 21.255C279.885 19.6417 278.73 18.3583 277.263 17.405C275.833 16.4517 274.238 15.975 272.478 15.975C270.718 15.975 269.123 16.47 267.693 17.46C266.263 18.4133 265.108 19.6967 264.228 21.31C263.385 22.9233 262.963 24.7383 262.963 26.755ZM317.705 1.95H321.885L337.835 41H332.555L327.935 29.56H311.545L306.98 41H301.7L317.705 1.95ZM326.835 25.71L319.795 7.67L312.535 25.71H326.835ZM354.123 41.55C351.959 41.55 349.979 41.165 348.183 40.395C346.423 39.5883 344.883 38.4883 343.563 37.095C342.279 35.7017 341.271 34.1067 340.538 32.31C339.841 30.5133 339.493 28.6067 339.493 26.59C339.493 23.8767 340.098 21.4017 341.308 19.165C342.518 16.9283 344.223 15.15 346.423 13.83C348.623 12.4733 351.171 11.795 354.068 11.795C356.891 11.795 359.348 12.4367 361.438 13.72C363.564 14.9667 365.141 16.6533 366.168 18.78L361.438 20.265C360.704 18.9083 359.678 17.8633 358.358 17.13C357.038 16.36 355.571 15.975 353.958 15.975C352.198 15.975 350.584 16.4333 349.118 17.35C347.688 18.2667 346.551 19.5317 345.708 21.145C344.864 22.7217 344.443 24.5367 344.443 26.59C344.443 28.6067 344.864 30.44 345.708 32.09C346.588 33.7033 347.743 34.9867 349.173 35.94C350.639 36.8933 352.253 37.37 354.013 37.37C355.149 37.37 356.231 37.1683 357.258 36.765C358.321 36.3617 359.238 35.83 360.008 35.17C360.814 34.4733 361.364 33.7217 361.658 32.915L366.388 34.345C365.801 35.7383 364.903 36.985 363.693 38.085C362.519 39.1483 361.108 39.9917 359.458 40.615C357.844 41.2383 356.066 41.55 354.123 41.55ZM384.308 41.55C382.145 41.55 380.165 41.165 378.368 40.395C376.608 39.5883 375.068 38.4883 373.748 37.095C372.465 35.7017 371.457 34.1067 370.723 32.31C370.027 30.5133 369.678 28.6067 369.678 26.59C369.678 23.8767 370.283 21.4017 371.493 19.165C372.703 16.9283 374.408 15.15 376.608 13.83C378.808 12.4733 381.357 11.795 384.253 11.795C387.077 11.795 389.533 12.4367 391.623 13.72C393.75 14.9667 395.327 16.6533 396.353 18.78L391.623 20.265C390.89 18.9083 389.863 17.8633 388.543 17.13C387.223 16.36 385.757 15.975 384.143 15.975C382.383 15.975 380.77 16.4333 379.303 17.35C377.873 18.2667 376.737 19.5317 375.893 21.145C375.05 22.7217 374.628 24.5367 374.628 26.59C374.628 28.6067 375.05 30.44 375.893 32.09C376.773 33.7033 377.928 34.9867 379.358 35.94C380.825 36.8933 382.438 37.37 384.198 37.37C385.335 37.37 386.417 37.1683 387.443 36.765C388.507 36.3617 389.423 35.83 390.193 35.17C391 34.4733 391.55 33.7217 391.843 32.915L396.573 34.345C395.987 35.7383 395.088 36.985 393.878 38.085C392.705 39.1483 391.293 39.9917 389.643 40.615C388.03 41.2383 386.252 41.55 384.308 41.55ZM414.329 41.55C412.165 41.55 410.204 41.165 408.444 40.395C406.684 39.5883 405.162 38.5067 403.879 37.15C402.595 35.7567 401.605 34.1617 400.909 32.365C400.212 30.5683 399.864 28.68 399.864 26.7C399.864 24.6833 400.212 22.7767 400.909 20.98C401.605 19.1833 402.595 17.6067 403.879 16.25C405.162 14.8567 406.684 13.775 408.444 13.005C410.24 12.1983 412.202 11.795 414.329 11.795C416.492 11.795 418.454 12.1983 420.214 13.005C421.974 13.775 423.495 14.8567 424.779 16.25C426.099 17.6067 427.107 19.1833 427.804 20.98C428.5 22.7767 428.849 24.6833 428.849 26.7C428.849 28.68 428.5 30.5683 427.804 32.365C427.107 34.1617 426.117 35.7567 424.834 37.15C423.55 38.5067 422.01 39.5883 420.214 40.395C418.454 41.165 416.492 41.55 414.329 41.55ZM404.814 26.755C404.814 28.735 405.235 30.5317 406.079 32.145C406.959 33.7583 408.114 35.0417 409.544 35.995C410.974 36.9117 412.569 37.37 414.329 37.37C416.089 37.37 417.684 36.8933 419.114 35.94C420.58 34.9867 421.735 33.7033 422.579 32.09C423.459 30.44 423.899 28.625 423.899 26.645C423.899 24.665 423.459 22.8683 422.579 21.255C421.735 19.6417 420.58 18.3583 419.114 17.405C417.684 16.4517 416.089 15.975 414.329 15.975C412.569 15.975 410.974 16.47 409.544 17.46C408.114 18.4133 406.959 19.6967 406.079 21.31C405.235 22.9233 404.814 24.7383 404.814 26.755ZM434.439 29.505V12.29H439.279V28.57C439.279 31.5033 439.792 33.7033 440.819 35.17C441.845 36.6367 443.367 37.37 445.384 37.37C446.704 37.37 447.969 37.095 449.179 36.545C450.425 35.9583 451.544 35.1333 452.534 34.07C453.524 33.0067 454.294 31.7417 454.844 30.275V12.29H459.684V35.5C459.684 36.0867 459.794 36.5267 460.014 36.82C460.27 37.0767 460.674 37.2233 461.224 37.26V41C460.674 41.0733 460.234 41.11 459.904 41.11C459.61 41.1467 459.317 41.165 459.024 41.165C458.107 41.165 457.319 40.89 456.659 40.34C455.999 39.7533 455.65 39.0383 455.614 38.195L455.504 34.84C454.257 36.9667 452.57 38.6167 450.444 39.79C448.354 40.9633 446.062 41.55 443.569 41.55C440.562 41.55 438.289 40.5417 436.749 38.525C435.209 36.4717 434.439 33.465 434.439 29.505ZM492.661 41H487.821V24.94C487.821 21.8967 487.344 19.6783 486.391 18.285C485.474 16.855 484.062 16.14 482.156 16.14C480.836 16.14 479.516 16.47 478.196 17.13C476.912 17.79 475.757 18.6883 474.731 19.825C473.741 20.925 473.026 22.2083 472.586 23.675V41H467.746V12.29H472.146V18.45C472.916 17.0933 473.906 15.92 475.116 14.93C476.326 13.94 477.701 13.17 479.241 12.62C480.781 12.07 482.394 11.795 484.081 11.795C485.731 11.795 487.106 12.1067 488.206 12.73C489.342 13.3167 490.222 14.16 490.846 15.26C491.506 16.3233 491.964 17.5883 492.221 19.055C492.514 20.5217 492.661 22.1167 492.661 23.84V41ZM514.769 39.57C514.365 39.7533 513.815 39.9917 513.119 40.285C512.422 40.5783 511.615 40.835 510.699 41.055C509.782 41.275 508.81 41.385 507.784 41.385C506.61 41.385 505.529 41.1833 504.539 40.78C503.549 40.34 502.76 39.68 502.174 38.8C501.587 37.8833 501.294 36.7467 501.294 35.39V16.085H497.389V12.29H501.294V2.72H506.134V12.29H512.569V16.085H506.134V33.905C506.207 34.9317 506.555 35.7017 507.179 36.215C507.802 36.6917 508.535 36.93 509.379 36.93C510.332 36.93 511.212 36.765 512.019 36.435C512.825 36.105 513.357 35.8667 513.614 35.72L514.769 39.57ZM518.87 41V34.84H522.94V41H518.87Z" fill="black"/>
<path d="M55.2055 65.524V68.32H58.2535V69.22H55.2055V72.1H58.6135V73H54.1135V64.624H58.6135V65.524H55.2055ZM63.6978 73L62.1378 70.552L60.6378 73H59.4978L61.6218 69.736L59.4978 66.424H60.7338L62.2938 68.86L63.7818 66.424H64.9218L62.8098 69.676L64.9338 73H63.6978ZM67.1 67.636C67.316 67.26 67.636 66.948 68.06 66.7C68.492 66.444 68.992 66.316 69.56 66.316C70.144 66.316 70.672 66.456 71.144 66.736C71.624 67.016 72 67.412 72.272 67.924C72.544 68.428 72.68 69.016 72.68 69.688C72.68 70.352 72.544 70.944 72.272 71.464C72 71.984 71.624 72.388 71.144 72.676C70.672 72.964 70.144 73.108 69.56 73.108C69 73.108 68.504 72.984 68.072 72.736C67.648 72.48 67.324 72.164 67.1 71.788V76.12H66.008V66.424H67.1V67.636ZM71.564 69.688C71.564 69.192 71.464 68.76 71.264 68.392C71.064 68.024 70.792 67.744 70.448 67.552C70.112 67.36 69.74 67.264 69.332 67.264C68.932 67.264 68.56 67.364 68.216 67.564C67.88 67.756 67.608 68.04 67.4 68.416C67.2 68.784 67.1 69.212 67.1 69.7C67.1 70.196 67.2 70.632 67.4 71.008C67.608 71.376 67.88 71.66 68.216 71.86C68.56 72.052 68.932 72.148 69.332 72.148C69.74 72.148 70.112 72.052 70.448 71.86C70.792 71.66 71.064 71.376 71.264 71.008C71.464 70.632 71.564 70.192 71.564 69.688ZM80.1174 69.46C80.1174 69.668 80.1054 69.888 80.0814 70.12H74.8254C74.8654 70.768 75.0854 71.276 75.4854 71.644C75.8934 72.004 76.3854 72.184 76.9614 72.184C77.4334 72.184 77.8254 72.076 78.1374 71.86C78.4574 71.636 78.6814 71.34 78.8094 70.972H79.9854C79.8094 71.604 79.4574 72.12 78.9294 72.52C78.4014 72.912 77.7454 73.108 76.9614 73.108C76.3374 73.108 75.7774 72.968 75.2814 72.688C74.7934 72.408 74.4094 72.012 74.1294 71.5C73.8494 70.98 73.7094 70.38 73.7094 69.7C73.7094 69.02 73.8454 68.424 74.1174 67.912C74.3894 67.4 74.7694 67.008 75.2574 66.736C75.7534 66.456 76.3214 66.316 76.9614 66.316C77.5854 66.316 78.1374 66.452 78.6174 66.724C79.0974 66.996 79.4654 67.372 79.7214 67.852C79.9854 68.324 80.1174 68.86 80.1174 69.46ZM78.9894 69.232C78.9894 68.816 78.8974 68.46 78.7134 68.164C78.5294 67.86 78.2774 67.632 77.9574 67.48C77.6454 67.32 77.2974 67.24 76.9134 67.24C76.3614 67.24 75.8894 67.416 75.4974 67.768C75.1134 68.12 74.8934 68.608 74.8374 69.232H78.9894ZM82.6508 67.492C82.8428 67.116 83.1148 66.824 83.4668 66.616C83.8268 66.408 84.2628 66.304 84.7748 66.304V67.432H84.4868C83.2628 67.432 82.6508 68.096 82.6508 69.424V73H81.5588V66.424H82.6508V67.492ZM86.5993 65.356C86.3913 65.356 86.2153 65.284 86.0713 65.14C85.9273 64.996 85.8553 64.82 85.8553 64.612C85.8553 64.404 85.9273 64.228 86.0713 64.084C86.2153 63.94 86.3913 63.868 86.5993 63.868C86.7993 63.868 86.9673 63.94 87.1033 64.084C87.2473 64.228 87.3193 64.404 87.3193 64.612C87.3193 64.82 87.2473 64.996 87.1033 65.14C86.9673 65.284 86.7993 65.356 86.5993 65.356ZM87.1273 66.424V73H86.0353V66.424H87.1273ZM94.9885 69.46C94.9885 69.668 94.9765 69.888 94.9525 70.12H89.6965C89.7365 70.768 89.9565 71.276 90.3565 71.644C90.7645 72.004 91.2565 72.184 91.8325 72.184C92.3045 72.184 92.6965 72.076 93.0085 71.86C93.3285 71.636 93.5525 71.34 93.6805 70.972H94.8565C94.6805 71.604 94.3285 72.12 93.8005 72.52C93.2725 72.912 92.6165 73.108 91.8325 73.108C91.2085 73.108 90.6485 72.968 90.1525 72.688C89.6645 72.408 89.2805 72.012 89.0005 71.5C88.7205 70.98 88.5805 70.38 88.5805 69.7C88.5805 69.02 88.7165 68.424 88.9885 67.912C89.2605 67.4 89.6405 67.008 90.1285 66.736C90.6245 66.456 91.1925 66.316 91.8325 66.316C92.4565 66.316 93.0085 66.452 93.4885 66.724C93.9685 66.996 94.3365 67.372 94.5925 67.852C94.8565 68.324 94.9885 68.86 94.9885 69.46ZM93.8605 69.232C93.8605 68.816 93.7685 68.46 93.5845 68.164C93.4005 67.86 93.1485 67.632 92.8285 67.48C92.5165 67.32 92.1685 67.24 91.7845 67.24C91.2325 67.24 90.7605 67.416 90.3685 67.768C89.9845 68.12 89.7645 68.608 89.7085 69.232H93.8605ZM99.6339 66.304C100.434 66.304 101.082 66.548 101.578 67.036C102.074 67.516 102.322 68.212 102.322 69.124V73H101.242V69.28C101.242 68.624 101.078 68.124 100.75 67.78C100.422 67.428 99.9739 67.252 99.4059 67.252C98.8299 67.252 98.3699 67.432 98.0259 67.792C97.6899 68.152 97.5219 68.676 97.5219 69.364V73H96.4299V66.424H97.5219V67.36C97.7379 67.024 98.0299 66.764 98.3979 66.58C98.7739 66.396 99.1859 66.304 99.6339 66.304ZM103.698 69.7C103.698 69.02 103.834 68.428 104.106 67.924C104.378 67.412 104.754 67.016 105.234 66.736C105.722 66.456 106.278 66.316 106.902 66.316C107.71 66.316 108.374 66.512 108.894 66.904C109.422 67.296 109.77 67.84 109.938 68.536H108.762C108.65 68.136 108.43 67.82 108.102 67.588C107.782 67.356 107.382 67.24 106.902 67.24C106.278 67.24 105.774 67.456 105.39 67.888C105.006 68.312 104.814 68.916 104.814 69.7C104.814 70.492 105.006 71.104 105.39 71.536C105.774 71.968 106.278 72.184 106.902 72.184C107.382 72.184 107.782 72.072 108.102 71.848C108.422 71.624 108.642 71.304 108.762 70.888H109.938C109.762 71.56 109.41 72.1 108.882 72.508C108.354 72.908 107.694 73.108 106.902 73.108C106.278 73.108 105.722 72.968 105.234 72.688C104.754 72.408 104.378 72.012 104.106 71.5C103.834 70.988 103.698 70.388 103.698 69.7ZM117.395 69.46C117.395 69.668 117.383 69.888 117.359 70.12H112.103C112.143 70.768 112.363 71.276 112.763 71.644C113.171 72.004 113.663 72.184 114.239 72.184C114.711 72.184 115.103 72.076 115.415 71.86C115.735 71.636 115.959 71.34 116.087 70.972H117.263C117.087 71.604 116.735 72.12 116.207 72.52C115.679 72.912 115.023 73.108 114.239 73.108C113.615 73.108 113.055 72.968 112.559 72.688C112.071 72.408 111.687 72.012 111.407 71.5C111.127 70.98 110.987 70.38 110.987 69.7C110.987 69.02 111.123 68.424 111.395 67.912C111.667 67.4 112.047 67.008 112.535 66.736C113.031 66.456 113.599 66.316 114.239 66.316C114.863 66.316 115.415 66.452 115.895 66.724C116.375 66.996 116.743 67.372 116.999 67.852C117.263 68.324 117.395 68.86 117.395 69.46ZM116.267 69.232C116.267 68.816 116.175 68.46 115.991 68.164C115.807 67.86 115.555 67.632 115.235 67.48C114.923 67.32 114.575 67.24 114.191 67.24C113.639 67.24 113.167 67.416 112.775 67.768C112.391 68.12 112.171 68.608 112.115 69.232H116.267ZM123.367 67.324V71.2C123.367 71.52 123.435 71.748 123.571 71.884C123.707 72.012 123.943 72.076 124.279 72.076H125.083V73H124.099C123.491 73 123.035 72.86 122.731 72.58C122.427 72.3 122.275 71.84 122.275 71.2V67.324H121.423V66.424H122.275V64.768H123.367V66.424H125.083V67.324H123.367ZM129.67 66.304C130.166 66.304 130.614 66.412 131.014 66.628C131.414 66.836 131.726 67.152 131.95 67.576C132.182 68 132.298 68.516 132.298 69.124V73H131.218V69.28C131.218 68.624 131.054 68.124 130.726 67.78C130.398 67.428 129.95 67.252 129.382 67.252C128.806 67.252 128.346 67.432 128.002 67.792C127.666 68.152 127.498 68.676 127.498 69.364V73H126.406V64.12H127.498V67.36C127.714 67.024 128.01 66.764 128.386 66.58C128.77 66.396 129.198 66.304 129.67 66.304ZM140.082 69.46C140.082 69.668 140.07 69.888 140.046 70.12H134.79C134.83 70.768 135.05 71.276 135.45 71.644C135.858 72.004 136.35 72.184 136.926 72.184C137.398 72.184 137.79 72.076 138.102 71.86C138.422 71.636 138.646 71.34 138.774 70.972H139.95C139.774 71.604 139.422 72.12 138.894 72.52C138.366 72.912 137.71 73.108 136.926 73.108C136.302 73.108 135.742 72.968 135.246 72.688C134.758 72.408 134.374 72.012 134.094 71.5C133.814 70.98 133.674 70.38 133.674 69.7C133.674 69.02 133.81 68.424 134.082 67.912C134.354 67.4 134.734 67.008 135.222 66.736C135.718 66.456 136.286 66.316 136.926 66.316C137.55 66.316 138.102 66.452 138.582 66.724C139.062 66.996 139.43 67.372 139.686 67.852C139.95 68.324 140.082 68.86 140.082 69.46ZM138.954 69.232C138.954 68.816 138.862 68.46 138.678 68.164C138.494 67.86 138.242 67.632 137.922 67.48C137.61 67.32 137.262 67.24 136.878 67.24C136.326 67.24 135.854 67.416 135.462 67.768C135.078 68.12 134.858 68.608 134.802 69.232H138.954ZM145.311 65.356C145.103 65.356 144.927 65.284 144.783 65.14C144.647 64.996 144.579 64.82 144.579 64.612C144.579 64.404 144.647 64.228 144.783 64.084C144.927 63.94 145.103 63.868 145.311 63.868C145.519 63.868 145.691 63.94 145.827 64.084C145.971 64.228 146.043 64.404 146.043 64.612C146.043 64.82 145.971 64.996 145.827 65.14C145.691 65.284 145.519 65.356 145.311 65.356ZM145.851 74.428C145.851 75.012 145.703 75.44 145.407 75.712C145.111 75.984 144.679 76.12 144.111 76.12H143.475V75.196H143.931C144.235 75.196 144.447 75.136 144.567 75.016C144.695 74.896 144.759 74.692 144.759 74.404V66.424H145.851V74.428ZM150.567 73.108C149.951 73.108 149.391 72.968 148.887 72.688C148.391 72.408 147.999 72.012 147.711 71.5C147.431 70.98 147.291 70.38 147.291 69.7C147.291 69.028 147.435 68.436 147.723 67.924C148.019 67.404 148.419 67.008 148.923 66.736C149.427 66.456 149.991 66.316 150.615 66.316C151.239 66.316 151.803 66.456 152.307 66.736C152.811 67.008 153.207 67.4 153.495 67.912C153.791 68.424 153.939 69.02 153.939 69.7C153.939 70.38 153.787 70.98 153.483 71.5C153.187 72.012 152.783 72.408 152.271 72.688C151.759 72.968 151.191 73.108 150.567 73.108ZM150.567 72.148C150.959 72.148 151.327 72.056 151.671 71.872C152.015 71.688 152.291 71.412 152.499 71.044C152.715 70.676 152.823 70.228 152.823 69.7C152.823 69.172 152.719 68.724 152.511 68.356C152.303 67.988 152.031 67.716 151.695 67.54C151.359 67.356 150.995 67.264 150.603 67.264C150.203 67.264 149.835 67.356 149.499 67.54C149.171 67.716 148.907 67.988 148.707 68.356C148.507 68.724 148.407 69.172 148.407 69.7C148.407 70.236 148.503 70.688 148.695 71.056C148.895 71.424 149.159 71.7 149.487 71.884C149.815 72.06 150.175 72.148 150.567 72.148ZM161.039 66.424L157.079 76.096H155.951L157.247 72.928L154.595 66.424H155.807L157.871 71.752L159.911 66.424H161.039ZM168.204 73.108C167.588 73.108 167.028 72.968 166.524 72.688C166.028 72.408 165.636 72.012 165.348 71.5C165.068 70.98 164.928 70.38 164.928 69.7C164.928 69.028 165.072 68.436 165.36 67.924C165.656 67.404 166.056 67.008 166.56 66.736C167.064 66.456 167.628 66.316 168.252 66.316C168.876 66.316 169.44 66.456 169.944 66.736C170.448 67.008 170.844 67.4 171.132 67.912C171.428 68.424 171.576 69.02 171.576 69.7C171.576 70.38 171.424 70.98 171.12 71.5C170.824 72.012 170.42 72.408 169.908 72.688C169.396 72.968 168.828 73.108 168.204 73.108ZM168.204 72.148C168.596 72.148 168.964 72.056 169.308 71.872C169.652 71.688 169.928 71.412 170.136 71.044C170.352 70.676 170.46 70.228 170.46 69.7C170.46 69.172 170.356 68.724 170.148 68.356C169.94 67.988 169.668 67.716 169.332 67.54C168.996 67.356 168.632 67.264 168.24 67.264C167.84 67.264 167.472 67.356 167.136 67.54C166.808 67.716 166.544 67.988 166.344 68.356C166.144 68.724 166.044 69.172 166.044 69.7C166.044 70.236 166.14 70.688 166.332 71.056C166.532 71.424 166.796 71.7 167.124 71.884C167.452 72.06 167.812 72.148 168.204 72.148ZM175.688 67.324H174.308V73H173.216V67.324H172.364V66.424H173.216V65.956C173.216 65.22 173.404 64.684 173.78 64.348C174.164 64.004 174.776 63.832 175.616 63.832V64.744C175.136 64.744 174.796 64.84 174.596 65.032C174.404 65.216 174.308 65.524 174.308 65.956V66.424H175.688V67.324ZM181.252 64.12V73H180.16V64.12H181.252ZM183.677 65.356C183.469 65.356 183.293 65.284 183.149 65.14C183.005 64.996 182.933 64.82 182.933 64.612C182.933 64.404 183.005 64.228 183.149 64.084C183.293 63.94 183.469 63.868 183.677 63.868C183.877 63.868 184.045 63.94 184.181 64.084C184.325 64.228 184.397 64.404 184.397 64.612C184.397 64.82 184.325 64.996 184.181 65.14C184.045 65.284 183.877 65.356 183.677 65.356ZM184.205 66.424V73H183.113V66.424H184.205ZM188.743 67.324H187.363V73H186.271V67.324H185.419V66.424H186.271V65.956C186.271 65.22 186.459 64.684 186.835 64.348C187.219 64.004 187.831 63.832 188.671 63.832V64.744C188.191 64.744 187.851 64.84 187.651 65.032C187.459 65.216 187.363 65.524 187.363 65.956V66.424H188.743V67.324ZM196.016 69.46C196.016 69.668 196.004 69.888 195.98 70.12H190.724C190.764 70.768 190.984 71.276 191.384 71.644C191.792 72.004 192.284 72.184 192.86 72.184C193.332 72.184 193.724 72.076 194.036 71.86C194.356 71.636 194.58 71.34 194.708 70.972H195.884C195.708 71.604 195.356 72.12 194.828 72.52C194.3 72.912 193.644 73.108 192.86 73.108C192.236 73.108 191.676 72.968 191.18 72.688C190.692 72.408 190.308 72.012 190.028 71.5C189.748 70.98 189.608 70.38 189.608 69.7C189.608 69.02 189.744 68.424 190.016 67.912C190.288 67.4 190.668 67.008 191.156 66.736C191.652 66.456 192.22 66.316 192.86 66.316C193.484 66.316 194.036 66.452 194.516 66.724C194.996 66.996 195.364 67.372 195.62 67.852C195.884 68.324 196.016 68.86 196.016 69.46ZM194.888 69.232C194.888 68.816 194.796 68.46 194.612 68.164C194.428 67.86 194.176 67.632 193.856 67.48C193.544 67.32 193.196 67.24 192.812 67.24C192.26 67.24 191.788 67.416 191.396 67.768C191.012 68.12 190.792 68.608 190.736 69.232H194.888ZM200.248 69.688C200.248 69.016 200.384 68.428 200.656 67.924C200.928 67.412 201.3 67.016 201.772 66.736C202.252 66.456 202.784 66.316 203.368 66.316C203.944 66.316 204.444 66.44 204.868 66.688C205.292 66.936 205.608 67.248 205.816 67.624V66.424H206.92V73H205.816V71.776C205.6 72.16 205.276 72.48 204.844 72.736C204.42 72.984 203.924 73.108 203.356 73.108C202.772 73.108 202.244 72.964 201.772 72.676C201.3 72.388 200.928 71.984 200.656 71.464C200.384 70.944 200.248 70.352 200.248 69.688ZM205.816 69.7C205.816 69.204 205.716 68.772 205.516 68.404C205.316 68.036 205.044 67.756 204.7 67.564C204.364 67.364 203.992 67.264 203.584 67.264C203.176 67.264 202.804 67.36 202.468 67.552C202.132 67.744 201.864 68.024 201.664 68.392C201.464 68.76 201.364 69.192 201.364 69.688C201.364 70.192 201.464 70.632 201.664 71.008C201.864 71.376 202.132 71.66 202.468 71.86C202.804 72.052 203.176 72.148 203.584 72.148C203.992 72.148 204.364 72.052 204.7 71.86C205.044 71.66 205.316 71.376 205.516 71.008C205.716 70.632 205.816 70.196 205.816 69.7ZM211.97 66.304C212.77 66.304 213.418 66.548 213.914 67.036C214.41 67.516 214.658 68.212 214.658 69.124V73H213.578V69.28C213.578 68.624 213.414 68.124 213.086 67.78C212.758 67.428 212.31 67.252 211.742 67.252C211.166 67.252 210.706 67.432 210.362 67.792C210.026 68.152 209.858 68.676 209.858 69.364V73H208.766V66.424H209.858V67.36C210.074 67.024 210.366 66.764 210.734 66.58C211.11 66.396 211.522 66.304 211.97 66.304ZM216.034 69.688C216.034 69.016 216.17 68.428 216.442 67.924C216.714 67.412 217.086 67.016 217.558 66.736C218.038 66.456 218.574 66.316 219.166 66.316C219.678 66.316 220.154 66.436 220.594 66.676C221.034 66.908 221.37 67.216 221.602 67.6V64.12H222.706V73H221.602V71.764C221.386 72.156 221.066 72.48 220.642 72.736C220.218 72.984 219.722 73.108 219.154 73.108C218.57 73.108 218.038 72.964 217.558 72.676C217.086 72.388 216.714 71.984 216.442 71.464C216.17 70.944 216.034 70.352 216.034 69.688ZM221.602 69.7C221.602 69.204 221.502 68.772 221.302 68.404C221.102 68.036 220.83 67.756 220.486 67.564C220.15 67.364 219.778 67.264 219.37 67.264C218.962 67.264 218.59 67.36 218.254 67.552C217.918 67.744 217.65 68.024 217.45 68.392C217.25 68.76 217.15 69.192 217.15 69.688C217.15 70.192 217.25 70.632 217.45 71.008C217.65 71.376 217.918 71.66 218.254 71.86C218.59 72.052 218.962 72.148 219.37 72.148C219.778 72.148 220.15 72.052 220.486 71.86C220.83 71.66 221.102 71.376 221.302 71.008C221.502 70.632 221.602 70.196 221.602 69.7ZM227.342 69.7C227.342 69.02 227.478 68.428 227.75 67.924C228.022 67.412 228.398 67.016 228.878 66.736C229.366 66.456 229.922 66.316 230.546 66.316C231.354 66.316 232.018 66.512 232.538 66.904C233.066 67.296 233.414 67.84 233.582 68.536H232.406C232.294 68.136 232.074 67.82 231.746 67.588C231.426 67.356 231.026 67.24 230.546 67.24C229.922 67.24 229.418 67.456 229.034 67.888C228.65 68.312 228.458 68.916 228.458 69.7C228.458 70.492 228.65 71.104 229.034 71.536C229.418 71.968 229.922 72.184 230.546 72.184C231.026 72.184 231.426 72.072 231.746 71.848C232.066 71.624 232.286 71.304 232.406 70.888H233.582C233.406 71.56 233.054 72.1 232.526 72.508C231.998 72.908 231.338 73.108 230.546 73.108C229.922 73.108 229.366 72.968 228.878 72.688C228.398 72.408 228.022 72.012 227.75 71.5C227.478 70.988 227.342 70.388 227.342 69.7ZM236.131 67.492C236.323 67.116 236.595 66.824 236.947 66.616C237.307 66.408 237.743 66.304 238.255 66.304V67.432H237.967C236.743 67.432 236.131 68.096 236.131 69.424V73H235.039V66.424H236.131V67.492ZM245.516 69.46C245.516 69.668 245.504 69.888 245.48 70.12H240.224C240.264 70.768 240.484 71.276 240.884 71.644C241.292 72.004 241.784 72.184 242.36 72.184C242.832 72.184 243.224 72.076 243.536 71.86C243.856 71.636 244.08 71.34 244.208 70.972H245.384C245.208 71.604 244.856 72.12 244.328 72.52C243.8 72.912 243.144 73.108 242.36 73.108C241.736 73.108 241.176 72.968 240.68 72.688C240.192 72.408 239.808 72.012 239.528 71.5C239.248 70.98 239.108 70.38 239.108 69.7C239.108 69.02 239.244 68.424 239.516 67.912C239.788 67.4 240.168 67.008 240.656 66.736C241.152 66.456 241.72 66.316 242.36 66.316C242.984 66.316 243.536 66.452 244.016 66.724C244.496 66.996 244.864 67.372 245.12 67.852C245.384 68.324 245.516 68.86 245.516 69.46ZM244.388 69.232C244.388 68.816 244.296 68.46 244.112 68.164C243.928 67.86 243.676 67.632 243.356 67.48C243.044 67.32 242.696 67.24 242.312 67.24C241.76 67.24 241.288 67.416 240.896 67.768C240.512 68.12 240.292 68.608 240.236 69.232H244.388ZM246.549 69.688C246.549 69.016 246.685 68.428 246.957 67.924C247.229 67.412 247.601 67.016 248.073 66.736C248.553 66.456 249.085 66.316 249.669 66.316C250.245 66.316 250.745 66.44 251.169 66.688C251.593 66.936 251.909 67.248 252.117 67.624V66.424H253.221V73H252.117V71.776C251.901 72.16 251.577 72.48 251.145 72.736C250.721 72.984 250.225 73.108 249.657 73.108C249.073 73.108 248.545 72.964 248.073 72.676C247.601 72.388 247.229 71.984 246.957 71.464C246.685 70.944 246.549 70.352 246.549 69.688ZM252.117 69.7C252.117 69.204 252.017 68.772 251.817 68.404C251.617 68.036 251.345 67.756 251.001 67.564C250.665 67.364 250.293 67.264 249.885 67.264C249.477 67.264 249.105 67.36 248.769 67.552C248.433 67.744 248.165 68.024 247.965 68.392C247.765 68.76 247.665 69.192 247.665 69.688C247.665 70.192 247.765 70.632 247.965 71.008C248.165 71.376 248.433 71.66 248.769 71.86C249.105 72.052 249.477 72.148 249.885 72.148C250.293 72.148 250.665 72.052 251.001 71.86C251.345 71.66 251.617 71.376 251.817 71.008C252.017 70.632 252.117 70.196 252.117 69.7ZM256.399 67.324V71.2C256.399 71.52 256.467 71.748 256.603 71.884C256.739 72.012 256.975 72.076 257.311 72.076H258.115V73H257.131C256.523 73 256.067 72.86 255.763 72.58C255.459 72.3 255.307 71.84 255.307 71.2V67.324H254.455V66.424H255.307V64.768H256.399V66.424H258.115V67.324H256.399ZM265.438 69.46C265.438 69.668 265.426 69.888 265.402 70.12H260.146C260.186 70.768 260.406 71.276 260.806 71.644C261.214 72.004 261.706 72.184 262.282 72.184C262.754 72.184 263.146 72.076 263.458 71.86C263.778 71.636 264.002 71.34 264.13 70.972H265.306C265.13 71.604 264.778 72.12 264.25 72.52C263.722 72.912 263.066 73.108 262.282 73.108C261.658 73.108 261.098 72.968 260.602 72.688C260.114 72.408 259.73 72.012 259.45 71.5C259.17 70.98 259.03 70.38 259.03 69.7C259.03 69.02 259.166 68.424 259.438 67.912C259.71 67.4 260.09 67.008 260.578 66.736C261.074 66.456 261.642 66.316 262.282 66.316C262.906 66.316 263.458 66.452 263.938 66.724C264.418 66.996 264.786 67.372 265.042 67.852C265.306 68.324 265.438 68.86 265.438 69.46ZM264.31 69.232C264.31 68.816 264.218 68.46 264.034 68.164C263.85 67.86 263.598 67.632 263.278 67.48C262.966 67.32 262.618 67.24 262.234 67.24C261.682 67.24 261.21 67.416 260.818 67.768C260.434 68.12 260.214 68.608 260.158 69.232H264.31ZM273.342 66.304C273.838 66.304 274.286 66.412 274.686 66.628C275.086 66.836 275.398 67.152 275.622 67.576C275.854 68 275.97 68.516 275.97 69.124V73H274.89V69.28C274.89 68.624 274.726 68.124 274.398 67.78C274.07 67.428 273.622 67.252 273.054 67.252C272.478 67.252 272.018 67.432 271.674 67.792C271.338 68.152 271.17 68.676 271.17 69.364V73H270.078V64.12H271.17V67.36C271.386 67.024 271.682 66.764 272.058 66.58C272.442 66.396 272.87 66.304 273.342 66.304ZM277.346 69.688C277.346 69.016 277.482 68.428 277.754 67.924C278.026 67.412 278.398 67.016 278.87 66.736C279.35 66.456 279.882 66.316 280.466 66.316C281.042 66.316 281.542 66.44 281.966 66.688C282.39 66.936 282.706 67.248 282.914 67.624V66.424H284.018V73H282.914V71.776C282.698 72.16 282.374 72.48 281.942 72.736C281.518 72.984 281.022 73.108 280.454 73.108C279.87 73.108 279.342 72.964 278.87 72.676C278.398 72.388 278.026 71.984 277.754 71.464C277.482 70.944 277.346 70.352 277.346 69.688ZM282.914 69.7C282.914 69.204 282.814 68.772 282.614 68.404C282.414 68.036 282.142 67.756 281.798 67.564C281.462 67.364 281.09 67.264 280.682 67.264C280.274 67.264 279.902 67.36 279.566 67.552C279.23 67.744 278.962 68.024 278.762 68.392C278.562 68.76 278.462 69.192 278.462 69.688C278.462 70.192 278.562 70.632 278.762 71.008C278.962 71.376 279.23 71.66 279.566 71.86C279.902 72.052 280.274 72.148 280.682 72.148C281.09 72.148 281.462 72.052 281.798 71.86C282.142 71.66 282.414 71.376 282.614 71.008C282.814 70.632 282.914 70.196 282.914 69.7ZM286.955 67.636C287.171 67.26 287.491 66.948 287.915 66.7C288.347 66.444 288.847 66.316 289.415 66.316C289.999 66.316 290.527 66.456 290.999 66.736C291.479 67.016 291.855 67.412 292.127 67.924C292.399 68.428 292.535 69.016 292.535 69.688C292.535 70.352 292.399 70.944 292.127 71.464C291.855 71.984 291.479 72.388 290.999 72.676C290.527 72.964 289.999 73.108 289.415 73.108C288.855 73.108 288.359 72.984 287.927 72.736C287.503 72.48 287.179 72.164 286.955 71.788V76.12H285.863V66.424H286.955V67.636ZM291.419 69.688C291.419 69.192 291.319 68.76 291.119 68.392C290.919 68.024 290.647 67.744 290.303 67.552C289.967 67.36 289.595 67.264 289.187 67.264C288.787 67.264 288.415 67.364 288.071 67.564C287.735 67.756 287.463 68.04 287.255 68.416C287.055 68.784 286.955 69.212 286.955 69.7C286.955 70.196 287.055 70.632 287.255 71.008C287.463 71.376 287.735 71.66 288.071 71.86C288.415 72.052 288.787 72.148 289.187 72.148C289.595 72.148 289.967 72.052 290.303 71.86C290.647 71.66 290.919 71.376 291.119 71.008C291.319 70.632 291.419 70.192 291.419 69.688ZM295.065 67.636C295.281 67.26 295.601 66.948 296.025 66.7C296.457 66.444 296.957 66.316 297.525 66.316C298.109 66.316 298.637 66.456 299.109 66.736C299.589 67.016 299.965 67.412 300.237 67.924C300.509 68.428 300.645 69.016 300.645 69.688C300.645 70.352 300.509 70.944 300.237 71.464C299.965 71.984 299.589 72.388 299.109 72.676C298.637 72.964 298.109 73.108 297.525 73.108C296.965 73.108 296.469 72.984 296.037 72.736C295.613 72.48 295.289 72.164 295.065 71.788V76.12H293.973V66.424H295.065V67.636ZM299.529 69.688C299.529 69.192 299.429 68.76 299.229 68.392C299.029 68.024 298.757 67.744 298.413 67.552C298.077 67.36 297.705 67.264 297.297 67.264C296.897 67.264 296.525 67.364 296.181 67.564C295.845 67.756 295.573 68.04 295.365 68.416C295.165 68.784 295.065 69.212 295.065 69.7C295.065 70.196 295.165 70.632 295.365 71.008C295.573 71.376 295.845 71.66 296.181 71.86C296.525 72.052 296.897 72.148 297.297 72.148C297.705 72.148 298.077 72.052 298.413 71.86C298.757 71.66 299.029 71.376 299.229 71.008C299.429 70.632 299.529 70.192 299.529 69.688ZM302.646 65.356C302.438 65.356 302.262 65.284 302.118 65.14C301.974 64.996 301.902 64.82 301.902 64.612C301.902 64.404 301.974 64.228 302.118 64.084C302.262 63.94 302.438 63.868 302.646 63.868C302.846 63.868 303.014 63.94 303.15 64.084C303.294 64.228 303.366 64.404 303.366 64.612C303.366 64.82 303.294 64.996 303.15 65.14C303.014 65.284 302.846 65.356 302.646 65.356ZM303.174 66.424V73H302.082V66.424H303.174ZM308.239 66.304C309.039 66.304 309.687 66.548 310.183 67.036C310.679 67.516 310.927 68.212 310.927 69.124V73H309.847V69.28C309.847 68.624 309.683 68.124 309.355 67.78C309.027 67.428 308.579 67.252 308.011 67.252C307.435 67.252 306.975 67.432 306.631 67.792C306.295 68.152 306.127 68.676 306.127 69.364V73H305.035V66.424H306.127V67.36C306.343 67.024 306.635 66.764 307.003 66.58C307.379 66.396 307.791 66.304 308.239 66.304ZM318.711 69.46C318.711 69.668 318.699 69.888 318.675 70.12H313.419C313.459 70.768 313.679 71.276 314.079 71.644C314.487 72.004 314.979 72.184 315.555 72.184C316.027 72.184 316.419 72.076 316.731 71.86C317.051 71.636 317.275 71.34 317.403 70.972H318.579C318.403 71.604 318.051 72.12 317.523 72.52C316.995 72.912 316.339 73.108 315.555 73.108C314.931 73.108 314.371 72.968 313.875 72.688C313.387 72.408 313.003 72.012 312.723 71.5C312.443 70.98 312.303 70.38 312.303 69.7C312.303 69.02 312.439 68.424 312.711 67.912C312.983 67.4 313.363 67.008 313.851 66.736C314.347 66.456 314.915 66.316 315.555 66.316C316.179 66.316 316.731 66.452 317.211 66.724C317.691 66.996 318.059 67.372 318.315 67.852C318.579 68.324 318.711 68.86 318.711 69.46ZM317.583 69.232C317.583 68.816 317.491 68.46 317.307 68.164C317.123 67.86 316.871 67.632 316.551 67.48C316.239 67.32 315.891 67.24 315.507 67.24C314.955 67.24 314.483 67.416 314.091 67.768C313.707 68.12 313.487 68.608 313.431 69.232H317.583ZM322.481 73.108C321.977 73.108 321.525 73.024 321.125 72.856C320.725 72.68 320.409 72.44 320.177 72.136C319.945 71.824 319.817 71.468 319.793 71.068H320.921C320.953 71.396 321.105 71.664 321.377 71.872C321.657 72.08 322.021 72.184 322.469 72.184C322.885 72.184 323.213 72.092 323.453 71.908C323.693 71.724 323.813 71.492 323.813 71.212C323.813 70.924 323.685 70.712 323.429 70.576C323.173 70.432 322.777 70.292 322.241 70.156C321.753 70.028 321.353 69.9 321.041 69.772C320.737 69.636 320.473 69.44 320.249 69.184C320.033 68.92 319.925 68.576 319.925 68.152C319.925 67.816 320.025 67.508 320.225 67.228C320.425 66.948 320.709 66.728 321.077 66.568C321.445 66.4 321.865 66.316 322.337 66.316C323.065 66.316 323.653 66.5 324.101 66.868C324.549 67.236 324.789 67.74 324.821 68.38H323.729C323.705 68.036 323.565 67.76 323.309 67.552C323.061 67.344 322.725 67.24 322.301 67.24C321.909 67.24 321.597 67.324 321.365 67.492C321.133 67.66 321.017 67.88 321.017 68.152C321.017 68.368 321.085 68.548 321.221 68.692C321.365 68.828 321.541 68.94 321.749 69.028C321.965 69.108 322.261 69.2 322.637 69.304C323.109 69.432 323.493 69.56 323.789 69.688C324.085 69.808 324.337 69.992 324.545 70.24C324.761 70.488 324.873 70.812 324.881 71.212C324.881 71.572 324.781 71.896 324.581 72.184C324.381 72.472 324.097 72.7 323.729 72.868C323.369 73.028 322.953 73.108 322.481 73.108ZM328.75 73.108C328.246 73.108 327.794 73.024 327.394 72.856C326.994 72.68 326.678 72.44 326.446 72.136C326.214 71.824 326.086 71.468 326.062 71.068H327.19C327.222 71.396 327.374 71.664 327.646 71.872C327.926 72.08 328.29 72.184 328.738 72.184C329.154 72.184 329.482 72.092 329.722 71.908C329.962 71.724 330.082 71.492 330.082 71.212C330.082 70.924 329.954 70.712 329.698 70.576C329.442 70.432 329.046 70.292 328.51 70.156C328.022 70.028 327.622 69.9 327.31 69.772C327.006 69.636 326.742 69.44 326.518 69.184C326.302 68.92 326.194 68.576 326.194 68.152C326.194 67.816 326.294 67.508 326.494 67.228C326.694 66.948 326.978 66.728 327.346 66.568C327.714 66.4 328.134 66.316 328.606 66.316C329.334 66.316 329.922 66.5 330.37 66.868C330.818 67.236 331.058 67.74 331.09 68.38H329.998C329.974 68.036 329.834 67.76 329.578 67.552C329.33 67.344 328.994 67.24 328.57 67.24C328.178 67.24 327.866 67.324 327.634 67.492C327.402 67.66 327.286 67.88 327.286 68.152C327.286 68.368 327.354 68.548 327.49 68.692C327.634 68.828 327.81 68.94 328.018 69.028C328.234 69.108 328.53 69.2 328.906 69.304C329.378 69.432 329.762 69.56 330.058 69.688C330.354 69.808 330.606 69.992 330.814 70.24C331.03 70.488 331.142 70.812 331.15 71.212C331.15 71.572 331.05 71.896 330.85 72.184C330.65 72.472 330.366 72.7 329.998 72.868C329.638 73.028 329.222 73.108 328.75 73.108ZM337.223 67.324V71.2C337.223 71.52 337.291 71.748 337.427 71.884C337.563 72.012 337.799 72.076 338.135 72.076H338.939V73H337.955C337.347 73 336.891 72.86 336.587 72.58C336.283 72.3 336.131 71.84 336.131 71.2V67.324H335.279V66.424H336.131V64.768H337.223V66.424H338.939V67.324H337.223ZM343.13 73.108C342.514 73.108 341.954 72.968 341.45 72.688C340.954 72.408 340.562 72.012 340.274 71.5C339.994 70.98 339.854 70.38 339.854 69.7C339.854 69.028 339.998 68.436 340.286 67.924C340.582 67.404 340.982 67.008 341.486 66.736C341.99 66.456 342.554 66.316 343.178 66.316C343.802 66.316 344.366 66.456 344.87 66.736C345.374 67.008 345.77 67.4 346.058 67.912C346.354 68.424 346.502 69.02 346.502 69.7C346.502 70.38 346.35 70.98 346.046 71.5C345.75 72.012 345.346 72.408 344.834 72.688C344.322 72.968 343.754 73.108 343.13 73.108ZM343.13 72.148C343.522 72.148 343.89 72.056 344.234 71.872C344.578 71.688 344.854 71.412 345.062 71.044C345.278 70.676 345.386 70.228 345.386 69.7C345.386 69.172 345.282 68.724 345.074 68.356C344.866 67.988 344.594 67.716 344.258 67.54C343.922 67.356 343.558 67.264 343.166 67.264C342.766 67.264 342.398 67.356 342.062 67.54C341.734 67.716 341.47 67.988 341.27 68.356C341.07 68.724 340.97 69.172 340.97 69.7C340.97 70.236 341.066 70.688 341.258 71.056C341.458 71.424 341.722 71.7 342.05 71.884C342.378 72.06 342.738 72.148 343.13 72.148ZM350.65 66.316C351.218 66.316 351.714 66.44 352.138 66.688C352.57 66.936 352.89 67.248 353.098 67.624V66.424H354.202V73.144C354.202 73.744 354.074 74.276 353.818 74.74C353.562 75.212 353.194 75.58 352.714 75.844C352.242 76.108 351.69 76.24 351.058 76.24C350.194 76.24 349.474 76.036 348.898 75.628C348.322 75.22 347.982 74.664 347.878 73.96H348.958C349.078 74.36 349.326 74.68 349.702 74.92C350.078 75.168 350.53 75.292 351.058 75.292C351.658 75.292 352.146 75.104 352.522 74.728C352.906 74.352 353.098 73.824 353.098 73.144V71.764C352.882 72.148 352.562 72.468 352.138 72.724C351.714 72.98 351.218 73.108 350.65 73.108C350.066 73.108 349.534 72.964 349.054 72.676C348.582 72.388 348.21 71.984 347.938 71.464C347.666 70.944 347.53 70.352 347.53 69.688C347.53 69.016 347.666 68.428 347.938 67.924C348.21 67.412 348.582 67.016 349.054 66.736C349.534 66.456 350.066 66.316 350.65 66.316ZM353.098 69.7C353.098 69.204 352.998 68.772 352.798 68.404C352.598 68.036 352.326 67.756 351.982 67.564C351.646 67.364 351.274 67.264 350.866 67.264C350.458 67.264 350.086 67.36 349.75 67.552C349.414 67.744 349.146 68.024 348.946 68.392C348.746 68.76 348.646 69.192 348.646 69.688C348.646 70.192 348.746 70.632 348.946 71.008C349.146 71.376 349.414 71.66 349.75 71.86C350.086 72.052 350.458 72.148 350.866 72.148C351.274 72.148 351.646 72.052 351.982 71.86C352.326 71.66 352.598 71.376 352.798 71.008C352.998 70.632 353.098 70.196 353.098 69.7ZM362.047 69.46C362.047 69.668 362.035 69.888 362.011 70.12H356.755C356.795 70.768 357.015 71.276 357.415 71.644C357.823 72.004 358.315 72.184 358.891 72.184C359.363 72.184 359.755 72.076 360.067 71.86C360.387 71.636 360.611 71.34 360.739 70.972H361.915C361.739 71.604 361.387 72.12 360.859 72.52C360.331 72.912 359.675 73.108 358.891 73.108C358.267 73.108 357.707 72.968 357.211 72.688C356.723 72.408 356.339 72.012 356.059 71.5C355.779 70.98 355.639 70.38 355.639 69.7C355.639 69.02 355.775 68.424 356.047 67.912C356.319 67.4 356.699 67.008 357.187 66.736C357.683 66.456 358.251 66.316 358.891 66.316C359.515 66.316 360.067 66.452 360.547 66.724C361.027 66.996 361.395 67.372 361.651 67.852C361.915 68.324 362.047 68.86 362.047 69.46ZM360.919 69.232C360.919 68.816 360.827 68.46 360.643 68.164C360.459 67.86 360.207 67.632 359.887 67.48C359.575 67.32 359.227 67.24 358.843 67.24C358.291 67.24 357.819 67.416 357.427 67.768C357.043 68.12 356.823 68.608 356.767 69.232H360.919ZM364.82 67.324V71.2C364.82 71.52 364.888 71.748 365.024 71.884C365.16 72.012 365.396 72.076 365.732 72.076H366.536V73H365.552C364.944 73 364.488 72.86 364.184 72.58C363.88 72.3 363.728 71.84 363.728 71.2V67.324H362.876V66.424H363.728V64.768H364.82V66.424H366.536V67.324H364.82ZM371.124 66.304C371.62 66.304 372.068 66.412 372.468 66.628C372.868 66.836 373.18 67.152 373.404 67.576C373.636 68 373.752 68.516 373.752 69.124V73H372.672V69.28C372.672 68.624 372.508 68.124 372.18 67.78C371.852 67.428 371.404 67.252 370.836 67.252C370.26 67.252 369.8 67.432 369.456 67.792C369.12 68.152 368.952 68.676 368.952 69.364V73H367.86V64.12H368.952V67.36C369.168 67.024 369.464 66.764 369.84 66.58C370.224 66.396 370.652 66.304 371.124 66.304ZM381.535 69.46C381.535 69.668 381.523 69.888 381.499 70.12H376.243C376.283 70.768 376.503 71.276 376.903 71.644C377.311 72.004 377.803 72.184 378.379 72.184C378.851 72.184 379.243 72.076 379.555 71.86C379.875 71.636 380.099 71.34 380.227 70.972H381.403C381.227 71.604 380.875 72.12 380.347 72.52C379.819 72.912 379.163 73.108 378.379 73.108C377.755 73.108 377.195 72.968 376.699 72.688C376.211 72.408 375.827 72.012 375.547 71.5C375.267 70.98 375.127 70.38 375.127 69.7C375.127 69.02 375.263 68.424 375.535 67.912C375.807 67.4 376.187 67.008 376.675 66.736C377.171 66.456 377.739 66.316 378.379 66.316C379.003 66.316 379.555 66.452 380.035 66.724C380.515 66.996 380.883 67.372 381.139 67.852C381.403 68.324 381.535 68.86 381.535 69.46ZM380.407 69.232C380.407 68.816 380.315 68.46 380.131 68.164C379.947 67.86 379.695 67.632 379.375 67.48C379.063 67.32 378.715 67.24 378.331 67.24C377.779 67.24 377.307 67.416 376.915 67.768C376.531 68.12 376.311 68.608 376.255 69.232H380.407ZM384.069 67.492C384.261 67.116 384.533 66.824 384.885 66.616C385.245 66.408 385.681 66.304 386.193 66.304V67.432H385.905C384.681 67.432 384.069 68.096 384.069 69.424V73H382.977V66.424H384.069V67.492ZM399.413 66.424L397.361 73H396.233L394.649 67.78L393.065 73H391.937L389.873 66.424H390.989L392.501 71.944L394.133 66.424H395.249L396.845 71.956L398.333 66.424H399.413ZM401.06 65.356C400.852 65.356 400.676 65.284 400.532 65.14C400.388 64.996 400.316 64.82 400.316 64.612C400.316 64.404 400.388 64.228 400.532 64.084C400.676 63.94 400.852 63.868 401.06 63.868C401.26 63.868 401.428 63.94 401.564 64.084C401.708 64.228 401.78 64.404 401.78 64.612C401.78 64.82 401.708 64.996 401.564 65.14C401.428 65.284 401.26 65.356 401.06 65.356ZM401.588 66.424V73H400.496V66.424H401.588ZM404.781 67.324V71.2C404.781 71.52 404.849 71.748 404.985 71.884C405.121 72.012 405.357 72.076 405.693 72.076H406.497V73H405.513C404.905 73 404.449 72.86 404.145 72.58C403.841 72.3 403.689 71.84 403.689 71.2V67.324H402.837V66.424H403.689V64.768H404.781V66.424H406.497V67.324H404.781ZM411.084 66.304C411.58 66.304 412.028 66.412 412.428 66.628C412.828 66.836 413.14 67.152 413.364 67.576C413.596 68 413.712 68.516 413.712 69.124V73H412.632V69.28C412.632 68.624 412.468 68.124 412.14 67.78C411.812 67.428 411.364 67.252 410.796 67.252C410.22 67.252 409.76 67.432 409.416 67.792C409.08 68.152 408.912 68.676 408.912 69.364V73H407.82V64.12H408.912V67.36C409.128 67.024 409.424 66.764 409.8 66.58C410.184 66.396 410.612 66.304 411.084 66.304ZM421.347 73.084C420.795 73.084 420.299 72.988 419.859 72.796C419.427 72.596 419.087 72.324 418.839 71.98C418.591 71.628 418.463 71.224 418.455 70.768H419.619C419.659 71.16 419.819 71.492 420.099 71.764C420.387 72.028 420.803 72.16 421.347 72.16C421.867 72.16 422.275 72.032 422.571 71.776C422.875 71.512 423.027 71.176 423.027 70.768C423.027 70.448 422.939 70.188 422.763 69.988C422.587 69.788 422.367 69.636 422.103 69.532C421.839 69.428 421.483 69.316 421.035 69.196C420.483 69.052 420.039 68.908 419.703 68.764C419.375 68.62 419.091 68.396 418.851 68.092C418.619 67.78 418.503 67.364 418.503 66.844C418.503 66.388 418.619 65.984 418.851 65.632C419.083 65.28 419.407 65.008 419.823 64.816C420.247 64.624 420.731 64.528 421.275 64.528C422.059 64.528 422.699 64.724 423.195 65.116C423.699 65.508 423.983 66.028 424.047 66.676H422.847C422.807 66.356 422.639 66.076 422.343 65.836C422.047 65.588 421.655 65.464 421.167 65.464C420.711 65.464 420.339 65.584 420.051 65.824C419.763 66.056 419.619 66.384 419.619 66.808C419.619 67.112 419.703 67.36 419.871 67.552C420.047 67.744 420.259 67.892 420.507 67.996C420.763 68.092 421.119 68.204 421.575 68.332C422.127 68.484 422.571 68.636 422.907 68.788C423.243 68.932 423.531 69.16 423.771 69.472C424.011 69.776 424.131 70.192 424.131 70.72C424.131 71.128 424.023 71.512 423.807 71.872C423.591 72.232 423.271 72.524 422.847 72.748C422.423 72.972 421.923 73.084 421.347 73.084ZM429.002 66.304C429.498 66.304 429.946 66.412 430.346 66.628C430.746 66.836 431.058 67.152 431.282 67.576C431.514 68 431.63 68.516 431.63 69.124V73H430.55V69.28C430.55 68.624 430.386 68.124 430.058 67.78C429.73 67.428 429.282 67.252 428.714 67.252C428.138 67.252 427.678 67.432 427.334 67.792C426.998 68.152 426.83 68.676 426.83 69.364V73H425.738V64.12H426.83V67.36C427.046 67.024 427.342 66.764 427.718 66.58C428.102 66.396 428.53 66.304 429.002 66.304ZM433.006 69.688C433.006 69.016 433.142 68.428 433.414 67.924C433.686 67.412 434.058 67.016 434.53 66.736C435.01 66.456 435.542 66.316 436.126 66.316C436.702 66.316 437.202 66.44 437.626 66.688C438.05 66.936 438.366 67.248 438.574 67.624V66.424H439.678V73H438.574V71.776C438.358 72.16 438.034 72.48 437.602 72.736C437.178 72.984 436.682 73.108 436.114 73.108C435.53 73.108 435.002 72.964 434.53 72.676C434.058 72.388 433.686 71.984 433.414 71.464C433.142 70.944 433.006 70.352 433.006 69.688ZM438.574 69.7C438.574 69.204 438.474 68.772 438.274 68.404C438.074 68.036 437.802 67.756 437.458 67.564C437.122 67.364 436.75 67.264 436.342 67.264C435.934 67.264 435.562 67.36 435.226 67.552C434.89 67.744 434.622 68.024 434.422 68.392C434.222 68.76 434.122 69.192 434.122 69.688C434.122 70.192 434.222 70.632 434.422 71.008C434.622 71.376 434.89 71.66 435.226 71.86C435.562 72.052 435.934 72.148 436.342 72.148C436.75 72.148 437.122 72.052 437.458 71.86C437.802 71.66 438.074 71.376 438.274 71.008C438.474 70.632 438.574 70.196 438.574 69.7ZM441.116 69.688C441.116 69.016 441.252 68.428 441.524 67.924C441.796 67.412 442.168 67.016 442.64 66.736C443.12 66.456 443.656 66.316 444.248 66.316C444.76 66.316 445.236 66.436 445.676 66.676C446.116 66.908 446.452 67.216 446.684 67.6V64.12H447.788V73H446.684V71.764C446.468 72.156 446.148 72.48 445.724 72.736C445.3 72.984 444.804 73.108 444.236 73.108C443.652 73.108 443.12 72.964 442.64 72.676C442.168 72.388 441.796 71.984 441.524 71.464C441.252 70.944 441.116 70.352 441.116 69.688ZM446.684 69.7C446.684 69.204 446.584 68.772 446.384 68.404C446.184 68.036 445.912 67.756 445.568 67.564C445.232 67.364 444.86 67.264 444.452 67.264C444.044 67.264 443.672 67.36 443.336 67.552C443 67.744 442.732 68.024 442.532 68.392C442.332 68.76 442.232 69.192 442.232 69.688C442.232 70.192 442.332 70.632 442.532 71.008C442.732 71.376 443 71.66 443.336 71.86C443.672 72.052 444.044 72.148 444.452 72.148C444.86 72.148 445.232 72.052 445.568 71.86C445.912 71.66 446.184 71.376 446.384 71.008C446.584 70.632 446.684 70.196 446.684 69.7ZM450.197 65.356C449.989 65.356 449.813 65.284 449.669 65.14C449.525 64.996 449.453 64.82 449.453 64.612C449.453 64.404 449.525 64.228 449.669 64.084C449.813 63.94 449.989 63.868 450.197 63.868C450.397 63.868 450.565 63.94 450.701 64.084C450.845 64.228 450.917 64.404 450.917 64.612C450.917 64.82 450.845 64.996 450.701 65.14C450.565 65.284 450.397 65.356 450.197 65.356ZM450.725 66.424V73H449.633V66.424H450.725ZM464.269 64.696V73H463.177V66.808L460.417 73H459.649L456.877 66.796V73H455.785V64.696H456.961L460.033 71.56L463.105 64.696H464.269ZM471.953 66.424V73H470.861V72.028C470.653 72.364 470.361 72.628 469.985 72.82C469.617 73.004 469.209 73.096 468.761 73.096C468.249 73.096 467.789 72.992 467.381 72.784C466.973 72.568 466.649 72.248 466.409 71.824C466.177 71.4 466.061 70.884 466.061 70.276V66.424H467.141V70.132C467.141 70.78 467.305 71.28 467.633 71.632C467.961 71.976 468.409 72.148 468.977 72.148C469.561 72.148 470.021 71.968 470.357 71.608C470.693 71.248 470.861 70.724 470.861 70.036V66.424H471.953ZM477.061 66.304C477.557 66.304 478.005 66.412 478.405 66.628C478.805 66.836 479.117 67.152 479.341 67.576C479.573 68 479.689 68.516 479.689 69.124V73H478.609V69.28C478.609 68.624 478.445 68.124 478.117 67.78C477.789 67.428 477.341 67.252 476.773 67.252C476.197 67.252 475.737 67.432 475.393 67.792C475.057 68.152 474.889 68.676 474.889 69.364V73H473.797V64.12H474.889V67.36C475.105 67.024 475.401 66.764 475.777 66.58C476.161 66.396 476.589 66.304 477.061 66.304ZM481.065 69.688C481.065 69.016 481.201 68.428 481.473 67.924C481.745 67.412 482.117 67.016 482.589 66.736C483.069 66.456 483.601 66.316 484.185 66.316C484.761 66.316 485.261 66.44 485.685 66.688C486.109 66.936 486.425 67.248 486.633 67.624V66.424H487.737V73H486.633V71.776C486.417 72.16 486.093 72.48 485.661 72.736C485.237 72.984 484.741 73.108 484.173 73.108C483.589 73.108 483.061 72.964 482.589 72.676C482.117 72.388 481.745 71.984 481.473 71.464C481.201 70.944 481.065 70.352 481.065 69.688ZM486.633 69.7C486.633 69.204 486.533 68.772 486.333 68.404C486.133 68.036 485.861 67.756 485.517 67.564C485.181 67.364 484.809 67.264 484.401 67.264C483.993 67.264 483.621 67.36 483.285 67.552C482.949 67.744 482.681 68.024 482.481 68.392C482.281 68.76 482.181 69.192 482.181 69.688C482.181 70.192 482.281 70.632 482.481 71.008C482.681 71.376 482.949 71.66 483.285 71.86C483.621 72.052 483.993 72.148 484.401 72.148C484.809 72.148 485.181 72.052 485.517 71.86C485.861 71.66 486.133 71.376 486.333 71.008C486.533 70.632 486.633 70.196 486.633 69.7ZM490.674 67.492C490.866 67.116 491.138 66.824 491.49 66.616C491.85 66.408 492.286 66.304 492.798 66.304V67.432H492.51C491.286 67.432 490.674 68.096 490.674 69.424V73H489.582V66.424H490.674V67.492ZM493.651 69.688C493.651 69.016 493.787 68.428 494.059 67.924C494.331 67.412 494.703 67.016 495.175 66.736C495.655 66.456 496.187 66.316 496.771 66.316C497.347 66.316 497.847 66.44 498.271 66.688C498.695 66.936 499.011 67.248 499.219 67.624V66.424H500.323V73H499.219V71.776C499.003 72.16 498.679 72.48 498.247 72.736C497.823 72.984 497.327 73.108 496.759 73.108C496.175 73.108 495.647 72.964 495.175 72.676C494.703 72.388 494.331 71.984 494.059 71.464C493.787 70.944 493.651 70.352 493.651 69.688ZM499.219 69.7C499.219 69.204 499.119 68.772 498.919 68.404C498.719 68.036 498.447 67.756 498.103 67.564C497.767 67.364 497.395 67.264 496.987 67.264C496.579 67.264 496.207 67.36 495.871 67.552C495.535 67.744 495.267 68.024 495.067 68.392C494.867 68.76 494.767 69.192 494.767 69.688C494.767 70.192 494.867 70.632 495.067 71.008C495.267 71.376 495.535 71.66 495.871 71.86C496.207 72.052 496.579 72.148 496.987 72.148C497.395 72.148 497.767 72.052 498.103 71.86C498.447 71.66 498.719 71.376 498.919 71.008C499.119 70.632 499.219 70.196 499.219 69.7ZM503.5 67.324V71.2C503.5 71.52 503.568 71.748 503.704 71.884C503.84 72.012 504.076 72.076 504.412 72.076H505.216V73H504.232C503.624 73 503.168 72.86 502.864 72.58C502.56 72.3 502.408 71.84 502.408 71.2V67.324H501.556V66.424H502.408V64.768H503.5V66.424H505.216V67.324H503.5ZM509.803 66.304C510.299 66.304 510.747 66.412 511.147 66.628C511.547 66.836 511.859 67.152 512.083 67.576C512.315 68 512.431 68.516 512.431 69.124V73H511.351V69.28C511.351 68.624 511.187 68.124 510.859 67.78C510.531 67.428 510.083 67.252 509.515 67.252C508.939 67.252 508.479 67.432 508.135 67.792C507.799 68.152 507.631 68.676 507.631 69.364V73H506.539V64.12H507.631V67.36C507.847 67.024 508.143 66.764 508.519 66.58C508.903 66.396 509.331 66.304 509.803 66.304ZM514.563 73.072C514.355 73.072 514.179 73 514.035 72.856C513.891 72.712 513.819 72.536 513.819 72.328C513.819 72.12 513.891 71.944 514.035 71.8C514.179 71.656 514.355 71.584 514.563 71.584C514.763 71.584 514.931 71.656 515.067 71.8C515.211 71.944 515.283 72.12 515.283 72.328C515.283 72.536 515.211 72.712 515.067 72.856C514.931 73 514.763 73.072 514.563 73.072Z" fill="black" fill-opacity="0.7"/>
</svg>
