<svg width="214" height="71" viewBox="0 0 214 71" fill="none" xmlns="http://www.w3.org/2000/svg">
<rect x="1.3875" y="0.8875" width="211.225" height="69.225" rx="9.7625" fill="black"/>
<rect x="1.3875" y="0.8875" width="211.225" height="69.225" rx="9.7625" stroke="#A6A6A6" stroke-width="1.775"/>
<path d="M32.1036 34.5443L14.8591 53.2603C14.8607 53.2636 14.8607 53.2686 14.8623 53.2719C15.392 55.3042 17.206 56.7998 19.3601 56.7998C20.2218 56.7998 21.03 56.5613 21.7232 56.1439L21.7783 56.1108L41.1883 44.6576L32.1036 34.5443Z" fill="#EA4335"/>
<path d="M49.549 31.3579L49.5328 31.3463L41.1527 26.3791L31.7117 34.9703L41.1867 44.6562L49.5215 39.7387C50.9824 38.9305 51.9753 37.3553 51.9753 35.54C51.9753 33.7347 50.997 32.1678 49.549 31.3579Z" fill="#FBBC04"/>
<path d="M14.8587 17.7384C14.7551 18.1292 14.7 18.54 14.7 18.964V52.0367C14.7 52.4608 14.7551 52.8715 14.8604 53.2607L32.696 35.0234L14.8587 17.7384Z" fill="#4285F4"/>
<path d="M32.2311 35.5L41.1555 26.3755L21.7681 14.8809C21.0636 14.4486 20.2408 14.2002 19.3613 14.2002C17.2072 14.2002 15.3899 15.6991 14.8603 17.733C14.8603 17.7347 14.8587 17.7363 14.8587 17.738L32.2311 35.5Z" fill="#34A853"/>
<path d="M70.384 28.08C69.6267 28.08 68.9227 27.92 68.272 27.6C67.6214 27.2693 67.056 26.8267 66.576 26.272C66.096 25.7173 65.7227 25.0987 65.456 24.416C65.2 23.7333 65.072 23.0293 65.072 22.304C65.072 21.536 65.2 20.8107 65.456 20.128C65.7227 19.4347 66.0907 18.8213 66.56 18.288C67.0294 17.7547 67.584 17.3333 68.224 17.024C68.864 16.7147 69.5627 16.56 70.32 16.56C71.44 16.56 72.352 16.7893 73.056 17.248C73.76 17.7067 74.2934 18.304 74.656 19.04L73.792 19.616C73.4294 18.912 72.944 18.3947 72.336 18.064C71.728 17.7333 71.0507 17.568 70.304 17.568C69.6747 17.568 69.104 17.7013 68.592 17.968C68.0907 18.2347 67.6587 18.592 67.296 19.04C66.9334 19.488 66.656 19.9947 66.464 20.56C66.2827 21.1253 66.192 21.712 66.192 22.32C66.192 22.96 66.2987 23.568 66.512 24.144C66.7254 24.7093 67.0294 25.216 67.424 25.664C67.8187 26.1013 68.272 26.448 68.784 26.704C69.3067 26.9493 69.8667 27.072 70.464 27.072C71.1574 27.072 71.8134 26.9013 72.432 26.56C73.0507 26.208 73.6427 25.6693 74.208 24.944V26.128C73.1307 27.4293 71.856 28.08 70.384 28.08ZM74.032 23.28H71.504V22.416H74.976V28H74.032V23.28ZM84.9092 27.008V28H77.2771V16.64H84.7652V17.632H78.3971V21.728H83.9492V22.672H78.3971V27.008H84.9092ZM95.0912 17.632H91.0431V28H89.9231V17.632H85.8751V16.64H95.0912V17.632ZM100.402 28V16.64H101.522V28H100.402ZM112.435 17.632H108.387V28H107.267V17.632H103.219V16.64H112.435V17.632ZM122.322 28.08C121.522 28.08 120.797 27.92 120.146 27.6C119.495 27.28 118.935 26.848 118.466 26.304C117.997 25.7493 117.634 25.1307 117.378 24.448C117.122 23.7547 116.994 23.0453 116.994 22.32C116.994 21.5627 117.127 20.8427 117.394 20.16C117.661 19.4667 118.034 18.8533 118.514 18.32C119.005 17.776 119.575 17.3493 120.226 17.04C120.877 16.72 121.581 16.56 122.338 16.56C123.138 16.56 123.863 16.7253 124.514 17.056C125.165 17.3867 125.719 17.8293 126.178 18.384C126.647 18.9387 127.01 19.5573 127.266 20.24C127.522 20.9227 127.65 21.6213 127.65 22.336C127.65 23.0933 127.517 23.8187 127.25 24.512C126.983 25.1947 126.61 25.808 126.13 26.352C125.65 26.8853 125.085 27.3067 124.434 27.616C123.783 27.9253 123.079 28.08 122.322 28.08ZM118.114 22.32C118.114 22.9387 118.215 23.536 118.418 24.112C118.621 24.6773 118.909 25.184 119.282 25.632C119.655 26.0693 120.098 26.4213 120.61 26.688C121.133 26.944 121.703 27.072 122.322 27.072C122.973 27.072 123.554 26.9387 124.066 26.672C124.589 26.3947 125.031 26.032 125.394 25.584C125.767 25.1253 126.05 24.6133 126.242 24.048C126.434 23.4827 126.53 22.9067 126.53 22.32C126.53 21.7013 126.429 21.1093 126.226 20.544C126.023 19.9787 125.73 19.472 125.346 19.024C124.973 18.576 124.53 18.224 124.018 17.968C123.506 17.712 122.941 17.584 122.322 17.584C121.682 17.584 121.101 17.7173 120.578 17.984C120.066 18.2507 119.623 18.6133 119.25 19.072C118.887 19.52 118.605 20.0267 118.402 20.592C118.21 21.1573 118.114 21.7333 118.114 22.32ZM130.882 18.704V28H129.762V16.64H130.69L138.146 26.112V16.656H139.266V28H138.226L130.882 18.704Z" fill="white"/>
<path d="M73.256 54.12C72.152 54.12 71.104 53.896 70.112 53.448C69.136 53 68.272 52.384 67.52 51.6C66.784 50.8 66.208 49.872 65.792 48.816C65.376 47.76 65.168 46.616 65.168 45.384C65.168 44.216 65.376 43.12 65.792 42.096C66.208 41.056 66.792 40.144 67.544 39.36C68.296 38.576 69.176 37.96 70.184 37.512C71.192 37.064 72.288 36.84 73.472 36.84C75.072 36.84 76.44 37.184 77.576 37.872C78.728 38.544 79.592 39.44 80.168 40.56L77.696 42.384C77.264 41.536 76.656 40.888 75.872 40.44C75.104 39.992 74.264 39.768 73.352 39.768C72.632 39.768 71.976 39.92 71.384 40.224C70.792 40.528 70.28 40.944 69.848 41.472C69.416 42 69.08 42.608 68.84 43.296C68.616 43.984 68.504 44.712 68.504 45.48C68.504 46.296 68.624 47.048 68.864 47.736C69.12 48.424 69.472 49.024 69.92 49.536C70.384 50.048 70.92 50.456 71.528 50.76C72.136 51.048 72.808 51.192 73.544 51.192C74.408 51.192 75.232 50.968 76.016 50.52C76.816 50.072 77.56 49.416 78.248 48.552V51.816C76.824 53.352 75.16 54.12 73.256 54.12ZM78.008 47.664H74.576V45.24H80.744V54H78.008V47.664ZM88.2284 54.24C87.2044 54.24 86.2844 54.072 85.4684 53.736C84.6524 53.384 83.9564 52.904 83.3804 52.296C82.8204 51.688 82.3884 50.992 82.0844 50.208C81.7804 49.424 81.6284 48.6 81.6284 47.736C81.6284 46.856 81.7804 46.024 82.0844 45.24C82.3884 44.456 82.8204 43.76 83.3804 43.152C83.9564 42.544 84.6524 42.072 85.4684 41.736C86.2844 41.384 87.2044 41.208 88.2284 41.208C89.2524 41.208 90.1644 41.384 90.9644 41.736C91.7804 42.072 92.4764 42.544 93.0524 43.152C93.6284 43.76 94.0604 44.456 94.3484 45.24C94.6524 46.024 94.8044 46.856 94.8044 47.736C94.8044 48.6 94.6524 49.424 94.3484 50.208C94.0604 50.992 93.6284 51.688 93.0524 52.296C92.4924 52.904 91.8044 53.384 90.9884 53.736C90.1724 54.072 89.2524 54.24 88.2284 54.24ZM84.9404 47.736C84.9404 48.472 85.0844 49.128 85.3724 49.704C85.6604 50.264 86.0524 50.704 86.5484 51.024C87.0444 51.344 87.6044 51.504 88.2284 51.504C88.8364 51.504 89.3884 51.344 89.8844 51.024C90.3804 50.688 90.7724 50.24 91.0604 49.68C91.3644 49.104 91.5164 48.448 91.5164 47.712C91.5164 46.992 91.3644 46.344 91.0604 45.768C90.7724 45.192 90.3804 44.744 89.8844 44.424C89.3884 44.104 88.8364 43.944 88.2284 43.944C87.6044 43.944 87.0444 44.112 86.5484 44.448C86.0524 44.768 85.6604 45.216 85.3724 45.792C85.0844 46.352 84.9404 47 84.9404 47.736ZM101.949 54.24C100.925 54.24 100.005 54.072 99.1888 53.736C98.3728 53.384 97.6768 52.904 97.1008 52.296C96.5408 51.688 96.1088 50.992 95.8048 50.208C95.5008 49.424 95.3488 48.6 95.3488 47.736C95.3488 46.856 95.5008 46.024 95.8048 45.24C96.1088 44.456 96.5408 43.76 97.1008 43.152C97.6768 42.544 98.3728 42.072 99.1888 41.736C100.005 41.384 100.925 41.208 101.949 41.208C102.973 41.208 103.885 41.384 104.685 41.736C105.501 42.072 106.197 42.544 106.773 43.152C107.349 43.76 107.781 44.456 108.069 45.24C108.373 46.024 108.525 46.856 108.525 47.736C108.525 48.6 108.373 49.424 108.069 50.208C107.781 50.992 107.349 51.688 106.773 52.296C106.213 52.904 105.525 53.384 104.709 53.736C103.893 54.072 102.973 54.24 101.949 54.24ZM98.6608 47.736C98.6608 48.472 98.8048 49.128 99.0928 49.704C99.3808 50.264 99.7728 50.704 100.269 51.024C100.765 51.344 101.325 51.504 101.949 51.504C102.557 51.504 103.109 51.344 103.605 51.024C104.101 50.688 104.493 50.24 104.781 49.68C105.085 49.104 105.237 48.448 105.237 47.712C105.237 46.992 105.085 46.344 104.781 45.768C104.493 45.192 104.101 44.744 103.605 44.424C103.109 44.104 102.557 43.944 101.949 43.944C101.325 43.944 100.765 44.112 100.269 44.448C99.7728 44.768 99.3808 45.216 99.0928 45.792C98.8048 46.352 98.6608 47 98.6608 47.736ZM114.781 54.072C113.949 54.072 113.181 53.912 112.477 53.592C111.789 53.256 111.189 52.792 110.677 52.2C110.181 51.608 109.797 50.928 109.525 50.16C109.253 49.392 109.117 48.576 109.117 47.712C109.117 46.8 109.261 45.952 109.549 45.168C109.837 44.384 110.237 43.696 110.749 43.104C111.277 42.496 111.893 42.032 112.597 41.712C113.317 41.376 114.109 41.208 114.973 41.208C115.949 41.208 116.805 41.432 117.541 41.88C118.277 42.312 118.885 42.896 119.365 43.632V41.424H122.173V53.4C122.173 54.648 121.869 55.712 121.261 56.592C120.669 57.488 119.845 58.168 118.789 58.632C117.733 59.112 116.533 59.352 115.189 59.352C113.829 59.352 112.677 59.12 111.733 58.656C110.789 58.208 109.981 57.568 109.309 56.736L111.061 55.032C111.541 55.624 112.141 56.088 112.861 56.424C113.597 56.76 114.373 56.928 115.189 56.928C115.877 56.928 116.501 56.8 117.061 56.544C117.637 56.304 118.093 55.92 118.429 55.392C118.781 54.88 118.957 54.216 118.957 53.4V51.816C118.541 52.536 117.949 53.096 117.181 53.496C116.429 53.88 115.629 54.072 114.781 54.072ZM115.861 51.504C116.213 51.504 116.549 51.448 116.869 51.336C117.189 51.224 117.485 51.072 117.757 50.88C118.029 50.688 118.269 50.464 118.477 50.208C118.685 49.936 118.845 49.664 118.957 49.392V46.392C118.765 45.896 118.493 45.464 118.141 45.096C117.805 44.728 117.421 44.448 116.989 44.256C116.573 44.048 116.133 43.944 115.669 43.944C115.173 43.944 114.725 44.048 114.325 44.256C113.925 44.464 113.581 44.76 113.293 45.144C113.005 45.512 112.781 45.928 112.621 46.392C112.477 46.84 112.405 47.312 112.405 47.808C112.405 48.32 112.493 48.8 112.669 49.248C112.845 49.696 113.085 50.088 113.389 50.424C113.709 50.76 114.077 51.024 114.493 51.216C114.925 51.408 115.381 51.504 115.861 51.504ZM124.214 36.48H127.43V49.968C127.43 50.544 127.526 50.936 127.718 51.144C127.91 51.336 128.174 51.432 128.51 51.432C128.766 51.432 129.03 51.4 129.302 51.336C129.574 51.272 129.814 51.192 130.022 51.096L130.454 53.544C130.022 53.752 129.518 53.912 128.942 54.024C128.366 54.136 127.846 54.192 127.382 54.192C126.374 54.192 125.59 53.928 125.03 53.4C124.486 52.856 124.214 52.088 124.214 51.096V36.48ZM136.853 54.24C135.845 54.24 134.933 54.072 134.117 53.736C133.301 53.384 132.605 52.912 132.029 52.32C131.453 51.712 131.005 51.024 130.685 50.256C130.381 49.472 130.229 48.648 130.229 47.784C130.229 46.584 130.493 45.488 131.021 44.496C131.565 43.504 132.333 42.712 133.325 42.12C134.333 41.512 135.517 41.208 136.877 41.208C138.253 41.208 139.429 41.512 140.405 42.12C141.381 42.712 142.125 43.504 142.637 44.496C143.165 45.472 143.429 46.528 143.429 47.664C143.429 47.856 143.421 48.056 143.405 48.264C143.389 48.456 143.373 48.616 143.357 48.744H133.637C133.701 49.384 133.885 49.944 134.189 50.424C134.509 50.904 134.909 51.272 135.389 51.528C135.885 51.768 136.413 51.888 136.973 51.888C137.613 51.888 138.213 51.736 138.773 51.432C139.349 51.112 139.741 50.696 139.949 50.184L142.709 50.952C142.405 51.592 141.965 52.16 141.389 52.656C140.829 53.152 140.165 53.544 139.397 53.832C138.629 54.104 137.781 54.24 136.853 54.24ZM133.565 46.704H140.141C140.077 46.064 139.893 45.512 139.589 45.048C139.301 44.568 138.917 44.2 138.437 43.944C137.957 43.672 137.421 43.536 136.829 43.536C136.253 43.536 135.725 43.672 135.245 43.944C134.781 44.2 134.397 44.568 134.093 45.048C133.805 45.512 133.629 46.064 133.565 46.704ZM157.021 54.24C156.045 54.24 155.181 54.024 154.429 53.592C153.693 53.144 153.117 52.544 152.701 51.792V59.112H149.485V41.424H152.293V43.584C152.773 42.848 153.381 42.272 154.117 41.856C154.853 41.424 155.693 41.208 156.637 41.208C157.485 41.208 158.261 41.376 158.965 41.712C159.685 42.048 160.309 42.52 160.837 43.128C161.365 43.72 161.773 44.408 162.061 45.192C162.365 45.96 162.517 46.792 162.517 47.688C162.517 48.904 162.277 50.008 161.797 51C161.333 51.992 160.685 52.784 159.853 53.376C159.037 53.952 158.093 54.24 157.021 54.24ZM155.941 51.504C156.437 51.504 156.885 51.4 157.285 51.192C157.685 50.984 158.029 50.704 158.317 50.352C158.621 49.984 158.845 49.576 158.989 49.128C159.149 48.664 159.229 48.184 159.229 47.688C159.229 47.16 159.141 46.672 158.965 46.224C158.805 45.776 158.565 45.384 158.245 45.048C157.925 44.696 157.549 44.424 157.117 44.232C156.701 44.04 156.245 43.944 155.749 43.944C155.445 43.944 155.133 44 154.813 44.112C154.509 44.208 154.213 44.352 153.925 44.544C153.637 44.736 153.381 44.96 153.157 45.216C152.949 45.472 152.797 45.752 152.701 46.056V49.008C152.893 49.472 153.149 49.896 153.469 50.28C153.805 50.664 154.189 50.968 154.621 51.192C155.053 51.4 155.493 51.504 155.941 51.504ZM163.838 36.48H167.054V49.968C167.054 50.544 167.15 50.936 167.342 51.144C167.534 51.336 167.798 51.432 168.134 51.432C168.39 51.432 168.654 51.4 168.926 51.336C169.198 51.272 169.438 51.192 169.646 51.096L170.078 53.544C169.646 53.752 169.142 53.912 168.566 54.024C167.99 54.136 167.47 54.192 167.006 54.192C165.998 54.192 165.214 53.928 164.654 53.4C164.11 52.856 163.838 52.088 163.838 51.096V36.48ZM169.781 50.28C169.781 49.464 170.005 48.752 170.453 48.144C170.917 47.52 171.557 47.04 172.373 46.704C173.189 46.368 174.125 46.2 175.181 46.2C175.709 46.2 176.245 46.24 176.789 46.32C177.333 46.4 177.805 46.528 178.205 46.704V46.032C178.205 45.232 177.965 44.616 177.485 44.184C177.021 43.752 176.325 43.536 175.397 43.536C174.709 43.536 174.053 43.656 173.429 43.896C172.805 44.136 172.149 44.488 171.461 44.952L170.429 42.84C171.261 42.296 172.109 41.888 172.973 41.616C173.853 41.344 174.773 41.208 175.733 41.208C177.525 41.208 178.917 41.656 179.909 42.552C180.917 43.448 181.421 44.728 181.421 46.392V50.4C181.421 50.736 181.477 50.976 181.589 51.12C181.717 51.264 181.917 51.352 182.189 51.384V54C181.901 54.048 181.637 54.088 181.397 54.12C181.173 54.152 180.981 54.168 180.821 54.168C180.181 54.168 179.693 54.024 179.357 53.736C179.037 53.448 178.837 53.096 178.757 52.68L178.685 52.032C178.141 52.736 177.461 53.28 176.645 53.664C175.829 54.048 174.997 54.24 174.149 54.24C173.317 54.24 172.565 54.072 171.893 53.736C171.237 53.384 170.717 52.912 170.333 52.32C169.965 51.712 169.781 51.032 169.781 50.28ZM177.605 50.928C177.781 50.736 177.925 50.544 178.037 50.352C178.149 50.16 178.205 49.984 178.205 49.824V48.552C177.821 48.392 177.405 48.272 176.957 48.192C176.509 48.096 176.085 48.048 175.685 48.048C174.853 48.048 174.165 48.232 173.621 48.6C173.093 48.952 172.829 49.424 172.829 50.016C172.829 50.336 172.917 50.64 173.093 50.928C173.269 51.216 173.525 51.448 173.861 51.624C174.197 51.8 174.597 51.888 175.061 51.888C175.541 51.888 176.013 51.8 176.477 51.624C176.941 51.432 177.317 51.2 177.605 50.928ZM183.387 56.448C183.675 56.512 183.939 56.568 184.179 56.616C184.435 56.664 184.651 56.688 184.827 56.688C185.131 56.688 185.379 56.608 185.571 56.448C185.779 56.304 185.979 56.032 186.171 55.632C186.363 55.248 186.563 54.704 186.771 54L181.803 41.424H185.139L188.523 50.712L191.499 41.424H194.571L189.291 56.496C189.099 57.056 188.803 57.56 188.403 58.008C188.019 58.472 187.531 58.832 186.939 59.088C186.363 59.36 185.715 59.496 184.995 59.496C184.739 59.496 184.483 59.472 184.227 59.424C183.971 59.392 183.691 59.328 183.387 59.232V56.448Z" fill="white"/>
</svg>
