<svg width="16" height="15" viewBox="0 0 16 15" fill="none" xmlns="http://www.w3.org/2000/svg">
<path d="M7.99993 14.9999C12.142 14.9999 15.4999 11.642 15.4999 7.49993C15.4999 3.35783 12.142 0 7.99993 0C3.85783 0 0.5 3.35783 0.5 7.49993C0.5 11.642 3.85783 14.9999 7.99993 14.9999Z" fill="#60D355"/>
<path d="M12.4279 4.87699C12.4279 5.05603 12.3597 5.23494 12.2231 5.37169L6.97662 10.6181C6.84362 10.7511 6.66993 10.8195 6.49544 10.8227C6.48527 10.823 6.47524 10.823 6.46507 10.8227C6.29058 10.8194 6.11716 10.7511 5.98389 10.6181L3.77695 8.41106C3.50371 8.13782 3.50371 7.6949 3.77695 7.4218C3.91344 7.28531 4.09261 7.21693 4.27165 7.21693C4.45069 7.21693 4.62972 7.28531 4.76635 7.4218L6.48046 9.13591L11.2338 4.38256C11.507 4.10946 11.95 4.10946 12.2231 4.38256C12.3597 4.51918 12.4279 4.69822 12.4279 4.87726V4.87699Z" fill="white"/>
</svg>
