<svg width="135" height="12" viewBox="0 0 135 12" fill="none" xmlns="http://www.w3.org/2000/svg">
<path d="M4.56 11.105C3.86 11.105 3.23 10.985 2.67 10.745C2.11 10.495 1.67 10.145 1.35 9.695C1.03 9.245 0.87 8.72 0.87 8.12H2.7C2.74 8.57 2.915 8.94 3.225 9.23C3.545 9.52 3.99 9.665 4.56 9.665C5.15 9.665 5.61 9.525 5.94 9.245C6.27 8.955 6.435 8.585 6.435 8.135C6.435 7.785 6.33 7.5 6.12 7.28C5.92 7.06 5.665 6.89 5.355 6.77C5.055 6.65 4.635 6.52 4.095 6.38C3.415 6.2 2.86 6.02 2.43 5.84C2.01 5.65 1.65 5.36 1.35 4.97C1.05 4.58 0.9 4.06 0.9 3.41C0.9 2.81 1.05 2.285 1.35 1.835C1.65 1.385 2.07 1.04 2.61 0.8C3.15 0.559999 3.775 0.439999 4.485 0.439999C5.495 0.439999 6.32 0.694999 6.96 1.205C7.61 1.705 7.97 2.395 8.04 3.275H6.15C6.12 2.895 5.94 2.57 5.61 2.3C5.28 2.03 4.845 1.895 4.305 1.895C3.815 1.895 3.415 2.02 3.105 2.27C2.795 2.52 2.64 2.88 2.64 3.35C2.64 3.67 2.735 3.935 2.925 4.145C3.125 4.345 3.375 4.505 3.675 4.625C3.975 4.745 4.385 4.875 4.905 5.015C5.595 5.205 6.155 5.395 6.585 5.585C7.025 5.775 7.395 6.07 7.695 6.47C8.005 6.86 8.16 7.385 8.16 8.045C8.16 8.575 8.015 9.075 7.725 9.545C7.445 10.015 7.03 10.395 6.48 10.685C5.94 10.965 5.3 11.105 4.56 11.105ZM18.8027 0.574999V11H17.0927V6.44H12.1877V11H10.4777V0.574999H12.1877V5.045H17.0927V0.574999H18.8027ZM27.6389 8.87H23.2739L22.5239 11H20.7389L24.4739 0.559999H26.4539L30.1889 11H28.3889L27.6389 8.87ZM27.1589 7.475L25.4639 2.63L23.7539 7.475H27.1589ZM35.5179 0.574999C36.6279 0.574999 37.5979 0.789999 38.4279 1.22C39.2679 1.64 39.9129 2.25 40.3629 3.05C40.8229 3.84 41.0529 4.765 41.0529 5.825C41.0529 6.885 40.8229 7.805 40.3629 8.585C39.9129 9.365 39.2679 9.965 38.4279 10.385C37.5979 10.795 36.6279 11 35.5179 11H32.1129V0.574999H35.5179ZM35.5179 9.605C36.7379 9.605 37.6729 9.275 38.3229 8.615C38.9729 7.955 39.2979 7.025 39.2979 5.825C39.2979 4.615 38.9729 3.67 38.3229 2.99C37.6729 2.31 36.7379 1.97 35.5179 1.97H33.8229V9.605H35.5179ZM44.7577 0.574999V11H43.0477V0.574999H44.7577ZM62.4792 0.574999V11H60.7692V3.86L57.5892 11H56.4042L53.2092 3.86V11H51.4992V0.574999H53.3442L57.0042 8.75L60.6492 0.574999H62.4792ZM66.7218 0.574999V7.22C66.7218 8.01 66.9268 8.605 67.3368 9.005C67.7568 9.405 68.3368 9.605 69.0768 9.605C69.8268 9.605 70.4068 9.405 70.8168 9.005C71.2368 8.605 71.4468 8.01 71.4468 7.22V0.574999H73.1568V7.19C73.1568 8.04 72.9718 8.76 72.6018 9.35C72.2318 9.94 71.7368 10.38 71.1168 10.67C70.4968 10.96 69.8118 11.105 69.0618 11.105C68.3118 11.105 67.6268 10.96 67.0068 10.67C66.3968 10.38 65.9118 9.94 65.5518 9.35C65.1918 8.76 65.0118 8.04 65.0118 7.19V0.574999H66.7218ZM84.0082 0.574999V11H82.2982V6.44H77.3932V11H75.6832V0.574999H77.3932V5.045H82.2982V0.574999H84.0082ZM92.8444 8.87H88.4794L87.7294 11H85.9444L89.6794 0.559999H91.6594L95.3944 11H93.5944L92.8444 8.87ZM92.3644 7.475L90.6694 2.63L88.9594 7.475H92.3644ZM102.733 11L100.333 6.83H99.0284V11H97.3184V0.574999H100.918C101.718 0.574999 102.393 0.714999 102.943 0.994999C103.503 1.275 103.918 1.65 104.188 2.12C104.468 2.59 104.608 3.115 104.608 3.695C104.608 4.375 104.408 4.995 104.008 5.555C103.618 6.105 103.013 6.48 102.193 6.68L104.773 11H102.733ZM99.0284 5.465H100.918C101.558 5.465 102.038 5.305 102.358 4.985C102.688 4.665 102.853 4.235 102.853 3.695C102.853 3.155 102.693 2.735 102.373 2.435C102.053 2.125 101.568 1.97 100.918 1.97H99.0284V5.465ZM113.381 8.87H109.016L108.266 11H106.481L110.216 0.559999H112.196L115.931 11H114.131L113.381 8.87ZM112.901 7.475L111.206 2.63L109.496 7.475H112.901ZM124.59 0.574999V1.97H121.815V11H120.105V1.97H117.315V0.574999H124.59ZM134.947 0.574999V11H133.237V6.44H128.332V11H126.622V0.574999H128.332V5.045H133.237V0.574999H134.947Z" fill="#ED1C24"/>
</svg>
