<svg width="885" height="556" viewBox="0 0 885 556" fill="none" xmlns="http://www.w3.org/2000/svg">
<rect width="885" height="556" rx="20" fill="white"/>
<rect x="0.5" y="0.5" width="884" height="555" rx="19.5" stroke="#ED1C24" stroke-opacity="0.15"/>
<path d="M121.193 133.53H104.288V177H98.078V133.53H81.173V128.01H121.193V133.53ZM140.734 146.295C137.698 146.341 135.007 147.123 132.661 148.641C130.361 150.113 128.728 152.16 127.762 154.782V177H121.69V140.982H127.348V149.331C128.59 146.847 130.223 144.846 132.247 143.328C134.317 141.764 136.479 140.89 138.733 140.706C139.193 140.706 139.584 140.706 139.906 140.706C140.228 140.706 140.504 140.729 140.734 140.775V146.295ZM146.411 162.579V140.982H152.483V161.406C152.483 165.086 153.127 167.846 154.415 169.686C155.703 171.526 157.612 172.446 160.142 172.446C161.798 172.446 163.385 172.101 164.903 171.411C166.467 170.675 167.87 169.64 169.112 168.306C170.354 166.972 171.32 165.385 172.01 163.545V140.982H178.082V170.1C178.082 170.836 178.22 171.388 178.496 171.756C178.818 172.078 179.324 172.262 180.014 172.308V177C179.324 177.092 178.772 177.138 178.358 177.138C177.99 177.184 177.622 177.207 177.254 177.207C176.104 177.207 175.115 176.862 174.287 176.172C173.459 175.436 173.022 174.539 172.976 173.481L172.838 169.272C171.274 171.94 169.158 174.01 166.49 175.482C163.868 176.954 160.993 177.69 157.865 177.69C154.093 177.69 151.241 176.425 149.309 173.895C147.377 171.319 146.411 167.547 146.411 162.579ZM200.548 177.69C197.558 177.69 194.752 177.207 192.13 176.241C189.508 175.229 187.254 173.734 185.368 171.756L187.714 167.478C189.784 169.41 191.854 170.79 193.924 171.618C195.994 172.446 198.11 172.86 200.272 172.86C202.756 172.86 204.78 172.4 206.344 171.48C207.908 170.514 208.69 169.111 208.69 167.271C208.69 165.937 208.276 164.948 207.448 164.304C206.666 163.66 205.539 163.131 204.067 162.717C202.595 162.257 200.847 161.751 198.823 161.199C196.339 160.463 194.246 159.681 192.544 158.853C190.842 158.025 189.554 156.99 188.68 155.748C187.806 154.506 187.369 152.942 187.369 151.056C187.369 148.756 187.967 146.824 189.163 145.26C190.359 143.65 191.992 142.431 194.062 141.603C196.178 140.775 198.57 140.361 201.238 140.361C203.906 140.361 206.321 140.775 208.483 141.603C210.645 142.431 212.508 143.65 214.072 145.26L211.312 149.469C209.886 147.997 208.322 146.916 206.62 146.226C204.918 145.49 203.009 145.122 200.893 145.122C199.651 145.122 198.432 145.283 197.236 145.605C196.04 145.881 195.051 146.41 194.269 147.192C193.487 147.928 193.096 148.986 193.096 150.366C193.096 151.516 193.395 152.436 193.993 153.126C194.637 153.77 195.557 154.322 196.753 154.782C197.995 155.242 199.49 155.748 201.238 156.3C203.952 157.082 206.298 157.864 208.276 158.646C210.3 159.428 211.864 160.44 212.968 161.682C214.072 162.924 214.624 164.649 214.624 166.857C214.624 170.261 213.336 172.929 210.76 174.861C208.184 176.747 204.78 177.69 200.548 177.69ZM240.518 175.206C240.012 175.436 239.322 175.735 238.448 176.103C237.574 176.471 236.562 176.793 235.412 177.069C234.262 177.345 233.043 177.483 231.755 177.483C230.283 177.483 228.926 177.23 227.684 176.724C226.442 176.172 225.453 175.344 224.717 174.24C223.981 173.09 223.613 171.664 223.613 169.962V145.743H218.714V140.982H223.613V128.976H229.685V140.982H237.758V145.743H229.685V168.099C229.777 169.387 230.214 170.353 230.996 170.997C231.778 171.595 232.698 171.894 233.756 171.894C234.952 171.894 236.056 171.687 237.068 171.273C238.08 170.859 238.747 170.56 239.069 170.376L240.518 175.206ZM261.613 177.69C258.899 177.69 256.415 177.207 254.161 176.241C251.953 175.229 250.021 173.872 248.365 172.17C246.755 170.422 245.49 168.421 244.57 166.167C243.696 163.913 243.259 161.521 243.259 158.991C243.259 155.587 244.041 152.482 245.605 149.676C247.169 146.87 249.331 144.616 252.091 142.914C254.897 141.212 258.094 140.361 261.682 140.361C265.316 140.361 268.467 141.235 271.135 142.983C273.849 144.685 275.942 146.939 277.414 149.745C278.932 152.505 279.691 155.495 279.691 158.715C279.691 159.175 279.668 159.635 279.622 160.095C279.622 160.509 279.599 160.831 279.553 161.061H249.676C249.86 163.407 250.504 165.5 251.608 167.34C252.758 169.134 254.23 170.56 256.024 171.618C257.818 172.63 259.75 173.136 261.82 173.136C264.028 173.136 266.098 172.584 268.03 171.48C270.008 170.376 271.365 168.927 272.101 167.133L277.345 168.582C276.563 170.33 275.39 171.894 273.826 173.274C272.308 174.654 270.491 175.735 268.375 176.517C266.305 177.299 264.051 177.69 261.613 177.69ZM249.469 156.852H274.033C273.849 154.506 273.182 152.436 272.032 150.642C270.882 148.848 269.41 147.445 267.616 146.433C265.822 145.421 263.844 144.915 261.682 144.915C259.566 144.915 257.611 145.421 255.817 146.433C254.023 147.445 252.551 148.848 251.401 150.642C250.297 152.436 249.653 154.506 249.469 156.852ZM284.095 159.06C284.095 155.656 284.785 152.551 286.165 149.745C287.591 146.893 289.523 144.616 291.961 142.914C294.445 141.212 297.274 140.361 300.448 140.361C303.346 140.361 305.945 141.12 308.245 142.638C310.545 144.156 312.339 145.996 313.627 148.158V126.63H319.699V170.1C319.699 170.836 319.837 171.388 320.113 171.756C320.435 172.078 320.941 172.262 321.631 172.308V177C320.481 177.184 319.584 177.276 318.94 177.276C317.744 177.276 316.686 176.862 315.766 176.034C314.892 175.206 314.455 174.286 314.455 173.274V170.238C313.029 172.538 311.12 174.355 308.728 175.689C306.336 177.023 303.852 177.69 301.276 177.69C298.792 177.69 296.492 177.207 294.376 176.241C292.306 175.229 290.489 173.849 288.925 172.101C287.407 170.353 286.211 168.375 285.337 166.167C284.509 163.913 284.095 161.544 284.095 159.06ZM313.627 164.373V154.023C313.075 152.459 312.178 151.056 310.936 149.814C309.694 148.526 308.291 147.514 306.727 146.778C305.209 145.996 303.691 145.605 302.173 145.605C300.379 145.605 298.746 145.996 297.274 146.778C295.848 147.514 294.606 148.526 293.548 149.814C292.536 151.056 291.754 152.482 291.202 154.092C290.65 155.702 290.374 157.381 290.374 159.129C290.374 160.923 290.673 162.625 291.271 164.235C291.915 165.845 292.789 167.271 293.893 168.513C295.043 169.755 296.354 170.721 297.826 171.411C299.344 172.101 300.977 172.446 302.725 172.446C303.829 172.446 304.956 172.239 306.106 171.825C307.302 171.411 308.429 170.836 309.487 170.1C310.545 169.364 311.442 168.513 312.178 167.547C312.914 166.535 313.397 165.477 313.627 164.373ZM385.859 164.373C385.859 166.903 385.215 169.111 383.927 170.997C382.639 172.883 380.891 174.355 378.683 175.413C376.521 176.471 374.129 177 371.507 177H348.254V128.01H372.611C374.911 128.01 376.889 128.631 378.545 129.873C380.247 131.069 381.535 132.633 382.409 134.565C383.329 136.451 383.789 138.429 383.789 140.499C383.789 142.891 383.168 145.145 381.926 147.261C380.73 149.331 379.005 150.872 376.751 151.884C379.557 152.712 381.765 154.253 383.375 156.507C385.031 158.715 385.859 161.337 385.859 164.373ZM379.58 163.269C379.58 161.751 379.235 160.348 378.545 159.06C377.901 157.772 377.004 156.737 375.854 155.955C374.75 155.173 373.462 154.782 371.99 154.782H354.464V171.618H371.507C373.025 171.618 374.382 171.227 375.578 170.445C376.82 169.663 377.786 168.651 378.476 167.409C379.212 166.121 379.58 164.741 379.58 163.269ZM354.464 133.392V149.745H370.058C371.53 149.745 372.818 149.377 373.922 148.641C375.072 147.905 375.969 146.916 376.613 145.674C377.303 144.432 377.648 143.075 377.648 141.603C377.648 140.039 377.326 138.659 376.682 137.463C376.084 136.221 375.233 135.232 374.129 134.496C373.071 133.76 371.852 133.392 370.472 133.392H354.464ZM394.764 186.798C395.362 186.844 395.96 186.89 396.558 186.936C397.156 187.028 397.616 187.074 397.938 187.074C398.674 187.074 399.318 186.821 399.87 186.315C400.422 185.809 401.02 184.82 401.664 183.348C402.354 181.922 403.228 179.806 404.286 177L389.037 140.982H395.454L407.598 170.859L418.569 140.982H424.572L407.046 186.453C406.632 187.511 406.011 188.5 405.183 189.42C404.401 190.386 403.389 191.145 402.147 191.697C400.905 192.249 399.41 192.525 397.662 192.525C397.248 192.525 396.811 192.502 396.351 192.456C395.937 192.41 395.408 192.318 394.764 192.18V186.798ZM82.691 231.16C82.691 228.17 83.197 225.249 84.209 222.397C85.267 219.499 86.785 216.877 88.763 214.531C90.787 212.139 93.248 210.253 96.146 208.873C99.044 207.447 102.333 206.734 106.013 206.734C110.383 206.734 114.132 207.746 117.26 209.77C120.388 211.748 122.711 214.301 124.229 217.429L119.33 220.603C118.364 218.533 117.122 216.9 115.604 215.704C114.132 214.462 112.522 213.588 110.774 213.082C109.072 212.576 107.393 212.323 105.737 212.323C103.023 212.323 100.608 212.875 98.492 213.979C96.422 215.083 94.674 216.555 93.248 218.395C91.822 220.235 90.741 222.305 90.005 224.605C89.315 226.859 88.97 229.136 88.97 231.436C88.97 233.966 89.384 236.404 90.212 238.75C91.086 241.096 92.282 243.166 93.8 244.96C95.318 246.754 97.112 248.18 99.182 249.238C101.252 250.296 103.506 250.825 105.944 250.825C107.646 250.825 109.394 250.526 111.188 249.928C112.982 249.33 114.661 248.41 116.225 247.168C117.789 245.88 119.031 244.224 119.951 242.2L125.126 245.029C124.114 247.467 122.55 249.537 120.434 251.239C118.318 252.941 115.949 254.229 113.327 255.103C110.751 255.977 108.198 256.414 105.668 256.414C102.31 256.414 99.228 255.701 96.422 254.275C93.616 252.803 91.178 250.871 89.108 248.479C87.084 246.041 85.497 243.327 84.347 240.337C83.243 237.301 82.691 234.242 82.691 231.16ZM147.664 256.69C144.95 256.69 142.489 256.207 140.281 255.241C138.073 254.229 136.164 252.872 134.554 251.17C132.944 249.422 131.702 247.421 130.828 245.167C129.954 242.913 129.517 240.544 129.517 238.06C129.517 235.53 129.954 233.138 130.828 230.884C131.702 228.63 132.944 226.652 134.554 224.95C136.164 223.202 138.073 221.845 140.281 220.879C142.535 219.867 144.996 219.361 147.664 219.361C150.378 219.361 152.839 219.867 155.047 220.879C157.255 221.845 159.164 223.202 160.774 224.95C162.43 226.652 163.695 228.63 164.569 230.884C165.443 233.138 165.88 235.53 165.88 238.06C165.88 240.544 165.443 242.913 164.569 245.167C163.695 247.421 162.453 249.422 160.843 251.17C159.233 252.872 157.301 254.229 155.047 255.241C152.839 256.207 150.378 256.69 147.664 256.69ZM135.727 238.129C135.727 240.613 136.256 242.867 137.314 244.891C138.418 246.915 139.867 248.525 141.661 249.721C143.455 250.871 145.456 251.446 147.664 251.446C149.872 251.446 151.873 250.848 153.667 249.652C155.507 248.456 156.956 246.846 158.014 244.822C159.118 242.752 159.67 240.475 159.67 237.991C159.67 235.507 159.118 233.253 158.014 231.229C156.956 229.205 155.507 227.595 153.667 226.399C151.873 225.203 149.872 224.605 147.664 224.605C145.456 224.605 143.455 225.226 141.661 226.468C139.867 227.664 138.418 229.274 137.314 231.298C136.256 233.322 135.727 235.599 135.727 238.129ZM172.893 241.579V219.982H178.965V240.406C178.965 244.086 179.609 246.846 180.897 248.686C182.185 250.526 184.094 251.446 186.624 251.446C188.28 251.446 189.867 251.101 191.385 250.411C192.949 249.675 194.352 248.64 195.594 247.306C196.836 245.972 197.802 244.385 198.492 242.545V219.982H204.564V249.1C204.564 249.836 204.702 250.388 204.978 250.756C205.3 251.078 205.806 251.262 206.496 251.308V256C205.806 256.092 205.254 256.138 204.84 256.138C204.472 256.184 204.104 256.207 203.736 256.207C202.586 256.207 201.597 255.862 200.769 255.172C199.941 254.436 199.504 253.539 199.458 252.481L199.32 248.272C197.756 250.94 195.64 253.01 192.972 254.482C190.35 255.954 187.475 256.69 184.347 256.69C180.575 256.69 177.723 255.425 175.791 252.895C173.859 250.319 172.893 246.547 172.893 241.579ZM234.067 256.69C231.123 256.69 228.501 255.954 226.201 254.482C223.901 253.01 222.084 251.147 220.75 248.893V270.697H214.678V219.982H220.06V226.744C221.486 224.536 223.349 222.765 225.649 221.431C227.949 220.051 230.456 219.361 233.17 219.361C235.654 219.361 237.931 219.867 240.001 220.879C242.071 221.891 243.865 223.271 245.383 225.019C246.901 226.767 248.074 228.768 248.902 231.022C249.776 233.23 250.213 235.553 250.213 237.991C250.213 241.395 249.523 244.523 248.143 247.375C246.809 250.227 244.923 252.504 242.485 254.206C240.047 255.862 237.241 256.69 234.067 256.69ZM232.204 251.446C233.998 251.446 235.608 251.078 237.034 250.342C238.506 249.56 239.748 248.548 240.76 247.306C241.818 246.018 242.623 244.569 243.175 242.959C243.727 241.349 244.003 239.693 244.003 237.991C244.003 236.197 243.681 234.495 243.037 232.885C242.439 231.275 241.565 229.849 240.415 228.607C239.311 227.365 238 226.399 236.482 225.709C235.01 224.973 233.4 224.605 231.652 224.605C230.548 224.605 229.398 224.812 228.202 225.226C227.052 225.64 225.948 226.238 224.89 227.02C223.832 227.756 222.935 228.607 222.199 229.573C221.463 230.539 220.98 231.574 220.75 232.678V242.959C221.44 244.523 222.36 245.949 223.51 247.237C224.66 248.525 225.994 249.56 227.512 250.342C229.03 251.078 230.594 251.446 232.204 251.446ZM257.807 205.63H263.879V246.685C263.879 248.663 264.155 249.882 264.707 250.342C265.259 250.802 265.926 251.032 266.708 251.032C267.674 251.032 268.594 250.94 269.468 250.756C270.342 250.526 271.078 250.296 271.676 250.066L272.642 255.034C271.63 255.448 270.434 255.793 269.054 256.069C267.674 256.345 266.455 256.483 265.397 256.483C263.051 256.483 261.188 255.816 259.808 254.482C258.474 253.148 257.807 251.285 257.807 248.893V205.63ZM293.351 256.69C290.637 256.69 288.153 256.207 285.899 255.241C283.691 254.229 281.759 252.872 280.103 251.17C278.493 249.422 277.228 247.421 276.308 245.167C275.434 242.913 274.997 240.521 274.997 237.991C274.997 234.587 275.779 231.482 277.343 228.676C278.907 225.87 281.069 223.616 283.829 221.914C286.635 220.212 289.832 219.361 293.42 219.361C297.054 219.361 300.205 220.235 302.873 221.983C305.587 223.685 307.68 225.939 309.152 228.745C310.67 231.505 311.429 234.495 311.429 237.715C311.429 238.175 311.406 238.635 311.36 239.095C311.36 239.509 311.337 239.831 311.291 240.061H281.414C281.598 242.407 282.242 244.5 283.346 246.34C284.496 248.134 285.968 249.56 287.762 250.618C289.556 251.63 291.488 252.136 293.558 252.136C295.766 252.136 297.836 251.584 299.768 250.48C301.746 249.376 303.103 247.927 303.839 246.133L309.083 247.582C308.301 249.33 307.128 250.894 305.564 252.274C304.046 253.654 302.229 254.735 300.113 255.517C298.043 256.299 295.789 256.69 293.351 256.69ZM281.207 235.852H305.771C305.587 233.506 304.92 231.436 303.77 229.642C302.62 227.848 301.148 226.445 299.354 225.433C297.56 224.421 295.582 223.915 293.42 223.915C291.304 223.915 289.349 224.421 287.555 225.433C285.761 226.445 284.289 227.848 283.139 229.642C282.035 231.436 281.391 233.506 281.207 235.852ZM330.529 256.69C327.539 256.69 324.733 256.207 322.111 255.241C319.489 254.229 317.235 252.734 315.349 250.756L317.695 246.478C319.765 248.41 321.835 249.79 323.905 250.618C325.975 251.446 328.091 251.86 330.253 251.86C332.737 251.86 334.761 251.4 336.325 250.48C337.889 249.514 338.671 248.111 338.671 246.271C338.671 244.937 338.257 243.948 337.429 243.304C336.647 242.66 335.52 242.131 334.048 241.717C332.576 241.257 330.828 240.751 328.804 240.199C326.32 239.463 324.227 238.681 322.525 237.853C320.823 237.025 319.535 235.99 318.661 234.748C317.787 233.506 317.35 231.942 317.35 230.056C317.35 227.756 317.948 225.824 319.144 224.26C320.34 222.65 321.973 221.431 324.043 220.603C326.159 219.775 328.551 219.361 331.219 219.361C333.887 219.361 336.302 219.775 338.464 220.603C340.626 221.431 342.489 222.65 344.053 224.26L341.293 228.469C339.867 226.997 338.303 225.916 336.601 225.226C334.899 224.49 332.99 224.122 330.874 224.122C329.632 224.122 328.413 224.283 327.217 224.605C326.021 224.881 325.032 225.41 324.25 226.192C323.468 226.928 323.077 227.986 323.077 229.366C323.077 230.516 323.376 231.436 323.974 232.126C324.618 232.77 325.538 233.322 326.734 233.782C327.976 234.242 329.471 234.748 331.219 235.3C333.933 236.082 336.279 236.864 338.257 237.646C340.281 238.428 341.845 239.44 342.949 240.682C344.053 241.924 344.605 243.649 344.605 245.857C344.605 249.261 343.317 251.929 340.741 253.861C338.165 255.747 334.761 256.69 330.529 256.69Z" fill="black"/>
<path d="M474.519 178.694C466.858 178.694 460.648 176.718 455.89 172.766C451.213 168.734 448.874 163.532 448.874 157.161C448.874 151.839 450.608 146.879 454.076 142.282C457.543 137.605 462.584 133.452 469.197 129.823L472.221 132.484C467.866 135.71 464.64 139.177 462.543 142.887C460.447 146.516 459.398 150.629 459.398 155.226C459.398 160.871 460.89 165.427 463.874 168.895C466.858 172.282 470.85 173.976 475.85 173.976C480.447 173.976 484.156 172.565 486.979 169.742C489.801 166.919 491.213 163.29 491.213 158.855C491.213 155.226 490.285 152 488.43 149.177C486.656 146.355 484.318 143.774 481.414 141.435C478.511 139.016 475.447 136.718 472.221 134.54C468.995 132.363 465.93 130.065 463.027 127.645C460.124 125.226 457.745 122.565 455.89 119.661C454.116 116.677 453.229 113.25 453.229 109.379C453.229 103.573 455.366 98.8548 459.64 95.2258C463.995 91.5161 469.56 89.6613 476.334 89.6613C482.866 89.6613 488.108 91.3548 492.06 94.7419C496.092 98.0484 498.108 102.403 498.108 107.806C498.108 112 496.777 115.992 494.116 119.782C491.535 123.573 487.543 127.323 482.14 131.032L478.632 128.492C482.1 125.75 484.64 122.806 486.253 119.661C487.866 116.516 488.672 113.21 488.672 109.742C488.672 105.065 487.463 101.355 485.043 98.6129C482.624 95.7903 479.358 94.379 475.245 94.379C471.616 94.379 468.713 95.5081 466.535 97.7661C464.358 99.9436 463.269 102.847 463.269 106.476C463.269 109.944 464.197 113.008 466.051 115.669C467.987 118.331 470.406 120.79 473.31 123.048C476.293 125.226 479.439 127.403 482.745 129.581C486.132 131.677 489.277 133.935 492.18 136.355C495.164 138.774 497.584 141.516 499.439 144.581C501.293 147.645 502.221 151.274 502.221 155.468C502.221 159.984 501.011 163.976 498.592 167.444C496.253 170.911 492.987 173.653 488.793 175.669C484.68 177.685 479.922 178.694 474.519 178.694Z" fill="black"/>
<path d="M474.519 178.694C466.858 178.694 460.648 176.718 455.89 172.766C451.213 168.734 448.874 163.532 448.874 157.161C448.874 151.839 450.608 146.879 454.076 142.282C457.543 137.605 462.584 133.452 469.197 129.823L472.221 132.484C467.866 135.71 464.64 139.177 462.543 142.887C460.447 146.516 459.398 150.629 459.398 155.226C459.398 160.871 460.89 165.427 463.874 168.895C466.858 172.282 470.85 173.976 475.85 173.976C480.447 173.976 484.156 172.565 486.979 169.742C489.801 166.919 491.213 163.29 491.213 158.855C491.213 155.226 490.285 152 488.43 149.177C486.656 146.355 484.318 143.774 481.414 141.435C478.511 139.016 475.447 136.718 472.221 134.54C468.995 132.363 465.93 130.065 463.027 127.645C460.124 125.226 457.745 122.565 455.89 119.661C454.116 116.677 453.229 113.25 453.229 109.379C453.229 103.573 455.366 98.8548 459.64 95.2258C463.995 91.5161 469.56 89.6613 476.334 89.6613C482.866 89.6613 488.108 91.3548 492.06 94.7419C496.092 98.0484 498.108 102.403 498.108 107.806C498.108 112 496.777 115.992 494.116 119.782C491.535 123.573 487.543 127.323 482.14 131.032L478.632 128.492C482.1 125.75 484.64 122.806 486.253 119.661C487.866 116.516 488.672 113.21 488.672 109.742C488.672 105.065 487.463 101.355 485.043 98.6129C482.624 95.7903 479.358 94.379 475.245 94.379C471.616 94.379 468.713 95.5081 466.535 97.7661C464.358 99.9436 463.269 102.847 463.269 106.476C463.269 109.944 464.197 113.008 466.051 115.669C467.987 118.331 470.406 120.79 473.31 123.048C476.293 125.226 479.439 127.403 482.745 129.581C486.132 131.677 489.277 133.935 492.18 136.355C495.164 138.774 497.584 141.516 499.439 144.581C501.293 147.645 502.221 151.274 502.221 155.468C502.221 159.984 501.011 163.976 498.592 167.444C496.253 170.911 492.987 173.653 488.793 175.669C484.68 177.685 479.922 178.694 474.519 178.694Z" fill="url(#paint0_linear_990_953)"/>
<path d="M526.531 171.157V158.47H513.9V156.022H526.531V143.279H529.147V156.022H541.778V158.47H529.147V171.157H526.531Z" fill="black"/>
<path d="M526.531 171.157V158.47H513.9V156.022H526.531V143.279H529.147V156.022H541.778V158.47H529.147V171.157H526.531Z" fill="url(#paint1_linear_990_953)"/>
<path d="M86.288 306.112C85.2533 306.112 84.3093 305.872 83.456 305.392C82.6027 304.901 81.9253 304.224 81.424 303.36C80.9333 302.485 80.688 301.504 80.688 300.416C80.688 299.328 80.9333 298.352 81.424 297.488C81.9253 296.613 82.6027 295.936 83.456 295.456C84.3093 294.965 85.2533 294.72 86.288 294.72C87.3333 294.72 88.2827 294.965 89.136 295.456C89.9893 295.936 90.6613 296.608 91.152 297.472C91.6427 298.336 91.888 299.317 91.888 300.416C91.888 301.515 91.6427 302.496 91.152 303.36C90.6613 304.224 89.9893 304.901 89.136 305.392C88.2827 305.872 87.3333 306.112 86.288 306.112ZM86.288 304.848C87.0667 304.848 87.7653 304.667 88.384 304.304C89.0133 303.941 89.504 303.424 89.856 302.752C90.2187 302.08 90.4 301.301 90.4 300.416C90.4 299.52 90.2187 298.741 89.856 298.08C89.504 297.408 89.0187 296.891 88.4 296.528C87.7813 296.165 87.0773 295.984 86.288 295.984C85.4987 295.984 84.7947 296.165 84.176 296.528C83.5573 296.891 83.0667 297.408 82.704 298.08C82.352 298.741 82.176 299.52 82.176 300.416C82.176 301.301 82.352 302.08 82.704 302.752C83.0667 303.424 83.5573 303.941 84.176 304.304C84.8053 304.667 85.5093 304.848 86.288 304.848ZM101.586 297.232V306H100.13V304.704C99.8528 305.152 99.4635 305.504 98.9621 305.76C98.4715 306.005 97.9275 306.128 97.3301 306.128C96.6475 306.128 96.0341 305.989 95.4901 305.712C94.9461 305.424 94.5141 304.997 94.1941 304.432C93.8848 303.867 93.7301 303.179 93.7301 302.368V297.232H95.1701V302.176C95.1701 303.04 95.3888 303.707 95.8261 304.176C96.2635 304.635 96.8608 304.864 97.6181 304.864C98.3968 304.864 99.0101 304.624 99.4581 304.144C99.9061 303.664 100.13 302.965 100.13 302.048V297.232H101.586ZM105.501 298.656C105.757 298.155 106.119 297.765 106.589 297.488C107.069 297.211 107.65 297.072 108.333 297.072V298.576H107.949C106.317 298.576 105.501 299.461 105.501 301.232V306H104.045V297.232H105.501V298.656ZM115.735 298.848C116.023 298.347 116.45 297.931 117.015 297.6C117.591 297.259 118.258 297.088 119.015 297.088C119.794 297.088 120.498 297.275 121.127 297.648C121.767 298.021 122.268 298.549 122.631 299.232C122.994 299.904 123.175 300.688 123.175 301.584C123.175 302.469 122.994 303.259 122.631 303.952C122.268 304.645 121.767 305.184 121.127 305.568C120.498 305.952 119.794 306.144 119.015 306.144C118.268 306.144 117.607 305.979 117.031 305.648C116.466 305.307 116.034 304.885 115.735 304.384V310.16H114.279V297.232H115.735V298.848ZM121.687 301.584C121.687 300.923 121.554 300.347 121.287 299.856C121.02 299.365 120.658 298.992 120.199 298.736C119.751 298.48 119.255 298.352 118.711 298.352C118.178 298.352 117.682 298.485 117.223 298.752C116.775 299.008 116.412 299.387 116.135 299.888C115.868 300.379 115.735 300.949 115.735 301.6C115.735 302.261 115.868 302.843 116.135 303.344C116.412 303.835 116.775 304.213 117.223 304.48C117.682 304.736 118.178 304.864 118.711 304.864C119.255 304.864 119.751 304.736 120.199 304.48C120.658 304.213 121.02 303.835 121.287 303.344C121.554 302.843 121.687 302.256 121.687 301.584ZM126.547 294.16V306H125.091V294.16H126.547ZM128.485 301.584C128.485 300.688 128.666 299.904 129.029 299.232C129.392 298.549 129.888 298.021 130.517 297.648C131.157 297.275 131.866 297.088 132.645 297.088C133.413 297.088 134.08 297.253 134.645 297.584C135.21 297.915 135.632 298.331 135.909 298.832V297.232H137.381V306H135.909V304.368C135.621 304.88 135.189 305.307 134.613 305.648C134.048 305.979 133.386 306.144 132.629 306.144C131.85 306.144 131.146 305.952 130.517 305.568C129.888 305.184 129.392 304.645 129.029 303.952C128.666 303.259 128.485 302.469 128.485 301.584ZM135.909 301.6C135.909 300.939 135.776 300.363 135.509 299.872C135.242 299.381 134.88 299.008 134.421 298.752C133.973 298.485 133.477 298.352 132.933 298.352C132.389 298.352 131.893 298.48 131.445 298.736C130.997 298.992 130.64 299.365 130.373 299.856C130.106 300.347 129.973 300.923 129.973 301.584C129.973 302.256 130.106 302.843 130.373 303.344C130.64 303.835 130.997 304.213 131.445 304.48C131.893 304.736 132.389 304.864 132.933 304.864C133.477 304.864 133.973 304.736 134.421 304.48C134.88 304.213 135.242 303.835 135.509 303.344C135.776 302.843 135.909 302.261 135.909 301.6ZM141.617 298.432V303.6C141.617 304.027 141.708 304.331 141.889 304.512C142.071 304.683 142.385 304.768 142.833 304.768H143.905V306H142.593C141.783 306 141.175 305.813 140.769 305.44C140.364 305.067 140.161 304.453 140.161 303.6V298.432H139.025V297.232H140.161V295.024H141.617V297.232H143.905V298.432H141.617ZM149.238 298.432H147.398V306H145.942V298.432H144.806V297.232H145.942V296.608C145.942 295.627 146.192 294.912 146.694 294.464C147.206 294.005 148.022 293.776 149.141 293.776V294.992C148.502 294.992 148.048 295.12 147.782 295.376C147.526 295.621 147.398 296.032 147.398 296.608V297.232H149.238V298.432ZM154.759 306.144C153.938 306.144 153.191 305.957 152.519 305.584C151.858 305.211 151.335 304.683 150.951 304C150.578 303.307 150.391 302.507 150.391 301.6C150.391 300.704 150.583 299.915 150.967 299.232C151.362 298.539 151.895 298.011 152.567 297.648C153.239 297.275 153.991 297.088 154.823 297.088C155.655 297.088 156.407 297.275 157.079 297.648C157.751 298.011 158.279 298.533 158.663 299.216C159.058 299.899 159.255 300.693 159.255 301.6C159.255 302.507 159.052 303.307 158.647 304C158.252 304.683 157.714 305.211 157.031 305.584C156.348 305.957 155.591 306.144 154.759 306.144ZM154.759 304.864C155.282 304.864 155.772 304.741 156.231 304.496C156.69 304.251 157.058 303.883 157.335 303.392C157.623 302.901 157.767 302.304 157.767 301.6C157.767 300.896 157.628 300.299 157.351 299.808C157.074 299.317 156.711 298.955 156.263 298.72C155.815 298.475 155.33 298.352 154.807 298.352C154.274 298.352 153.783 298.475 153.335 298.72C152.898 298.955 152.546 299.317 152.279 299.808C152.012 300.299 151.879 300.896 151.879 301.6C151.879 302.315 152.007 302.917 152.263 303.408C152.53 303.899 152.882 304.267 153.319 304.512C153.756 304.747 154.236 304.864 154.759 304.864ZM162.626 298.656C162.882 298.155 163.244 297.765 163.714 297.488C164.194 297.211 164.775 297.072 165.458 297.072V298.576H165.074C163.442 298.576 162.626 299.461 162.626 301.232V306H161.17V297.232H162.626V298.656ZM177.682 297.072C178.365 297.072 178.973 297.216 179.506 297.504C180.04 297.781 180.461 298.203 180.77 298.768C181.08 299.333 181.234 300.021 181.234 300.832V306H179.794V301.04C179.794 300.165 179.576 299.499 179.138 299.04C178.712 298.571 178.13 298.336 177.394 298.336C176.637 298.336 176.034 298.581 175.586 299.072C175.138 299.552 174.914 300.251 174.914 301.168V306H173.474V301.04C173.474 300.165 173.256 299.499 172.818 299.04C172.392 298.571 171.81 298.336 171.074 298.336C170.317 298.336 169.714 298.581 169.266 299.072C168.818 299.552 168.594 300.251 168.594 301.168V306H167.138V297.232H168.594V298.496C168.882 298.037 169.266 297.685 169.746 297.44C170.237 297.195 170.776 297.072 171.362 297.072C172.098 297.072 172.749 297.237 173.314 297.568C173.88 297.899 174.301 298.384 174.578 299.024C174.824 298.405 175.229 297.925 175.794 297.584C176.36 297.243 176.989 297.072 177.682 297.072ZM192.24 297.072C192.902 297.072 193.499 297.216 194.032 297.504C194.566 297.781 194.982 298.203 195.28 298.768C195.59 299.333 195.744 300.021 195.744 300.832V306H194.304V301.04C194.304 300.165 194.086 299.499 193.648 299.04C193.211 298.571 192.614 298.336 191.856 298.336C191.088 298.336 190.475 298.576 190.016 299.056C189.568 299.536 189.344 300.235 189.344 301.152V306H187.888V294.16H189.344V298.48C189.632 298.032 190.027 297.685 190.528 297.44C191.04 297.195 191.611 297.072 192.24 297.072ZM206.123 301.28C206.123 301.557 206.107 301.851 206.075 302.16H199.067C199.12 303.024 199.413 303.701 199.947 304.192C200.491 304.672 201.147 304.912 201.915 304.912C202.544 304.912 203.067 304.768 203.483 304.48C203.909 304.181 204.208 303.787 204.379 303.296H205.947C205.712 304.139 205.243 304.827 204.539 305.36C203.835 305.883 202.96 306.144 201.915 306.144C201.083 306.144 200.336 305.957 199.675 305.584C199.024 305.211 198.512 304.683 198.139 304C197.765 303.307 197.579 302.507 197.579 301.6C197.579 300.693 197.76 299.899 198.123 299.216C198.485 298.533 198.992 298.011 199.643 297.648C200.304 297.275 201.061 297.088 201.915 297.088C202.747 297.088 203.483 297.269 204.123 297.632C204.763 297.995 205.253 298.496 205.595 299.136C205.947 299.765 206.123 300.48 206.123 301.28ZM204.619 300.976C204.619 300.421 204.496 299.947 204.251 299.552C204.005 299.147 203.669 298.843 203.243 298.64C202.827 298.427 202.363 298.32 201.851 298.32C201.115 298.32 200.485 298.555 199.963 299.024C199.451 299.493 199.157 300.144 199.083 300.976H204.619ZM209.501 294.16V306H208.045V294.16H209.501ZM213.438 298.848C213.726 298.347 214.153 297.931 214.718 297.6C215.294 297.259 215.961 297.088 216.718 297.088C217.497 297.088 218.201 297.275 218.83 297.648C219.47 298.021 219.971 298.549 220.334 299.232C220.697 299.904 220.878 300.688 220.878 301.584C220.878 302.469 220.697 303.259 220.334 303.952C219.971 304.645 219.47 305.184 218.83 305.568C218.201 305.952 217.497 306.144 216.718 306.144C215.971 306.144 215.31 305.979 214.734 305.648C214.169 305.307 213.737 304.885 213.438 304.384V310.16H211.982V297.232H213.438V298.848ZM219.39 301.584C219.39 300.923 219.257 300.347 218.99 299.856C218.723 299.365 218.361 298.992 217.902 298.736C217.454 298.48 216.958 298.352 216.414 298.352C215.881 298.352 215.385 298.485 214.926 298.752C214.478 299.008 214.115 299.387 213.838 299.888C213.571 300.379 213.438 300.949 213.438 301.6C213.438 302.261 213.571 302.843 213.838 303.344C214.115 303.835 214.478 304.213 214.926 304.48C215.385 304.736 215.881 304.864 216.414 304.864C216.958 304.864 217.454 304.736 217.902 304.48C218.361 304.213 218.723 303.835 218.99 303.344C219.257 302.843 219.39 302.256 219.39 301.584ZM225.899 306.144C225.227 306.144 224.624 306.032 224.091 305.808C223.557 305.573 223.136 305.253 222.827 304.848C222.517 304.432 222.347 303.957 222.315 303.424H223.819C223.861 303.861 224.064 304.219 224.427 304.496C224.8 304.773 225.285 304.912 225.883 304.912C226.437 304.912 226.875 304.789 227.195 304.544C227.515 304.299 227.675 303.989 227.675 303.616C227.675 303.232 227.504 302.949 227.163 302.768C226.821 302.576 226.293 302.389 225.579 302.208C224.928 302.037 224.395 301.867 223.979 301.696C223.573 301.515 223.221 301.253 222.923 300.912C222.635 300.56 222.491 300.101 222.491 299.536C222.491 299.088 222.624 298.677 222.891 298.304C223.157 297.931 223.536 297.637 224.027 297.424C224.517 297.2 225.077 297.088 225.707 297.088C226.677 297.088 227.461 297.333 228.059 297.824C228.656 298.315 228.976 298.987 229.019 299.84H227.563C227.531 299.381 227.344 299.013 227.003 298.736C226.672 298.459 226.224 298.32 225.659 298.32C225.136 298.32 224.72 298.432 224.411 298.656C224.101 298.88 223.947 299.173 223.947 299.536C223.947 299.824 224.037 300.064 224.219 300.256C224.411 300.437 224.645 300.587 224.923 300.704C225.211 300.811 225.605 300.933 226.107 301.072C226.736 301.243 227.248 301.413 227.643 301.584C228.037 301.744 228.373 301.989 228.651 302.32C228.939 302.651 229.088 303.083 229.099 303.616C229.099 304.096 228.965 304.528 228.699 304.912C228.432 305.296 228.053 305.6 227.563 305.824C227.083 306.037 226.528 306.144 225.899 306.144ZM236.876 298.848C237.164 298.347 237.59 297.931 238.156 297.6C238.732 297.259 239.398 297.088 240.156 297.088C240.934 297.088 241.638 297.275 242.267 297.648C242.907 298.021 243.409 298.549 243.772 299.232C244.134 299.904 244.316 300.688 244.316 301.584C244.316 302.469 244.134 303.259 243.772 303.952C243.409 304.645 242.907 305.184 242.267 305.568C241.638 305.952 240.934 306.144 240.156 306.144C239.409 306.144 238.748 305.979 238.172 305.648C237.606 305.307 237.174 304.885 236.876 304.384V310.16H235.42V297.232H236.876V298.848ZM242.828 301.584C242.828 300.923 242.694 300.347 242.428 299.856C242.161 299.365 241.798 298.992 241.34 298.736C240.892 298.48 240.396 298.352 239.852 298.352C239.318 298.352 238.822 298.485 238.364 298.752C237.916 299.008 237.553 299.387 237.276 299.888C237.009 300.379 236.876 300.949 236.876 301.6C236.876 302.261 237.009 302.843 237.276 303.344C237.553 303.835 237.916 304.213 238.364 304.48C238.822 304.736 239.318 304.864 239.852 304.864C240.396 304.864 240.892 304.736 241.34 304.48C241.798 304.213 242.161 303.835 242.428 303.344C242.694 302.843 242.828 302.256 242.828 301.584ZM245.688 301.584C245.688 300.688 245.869 299.904 246.232 299.232C246.595 298.549 247.091 298.021 247.72 297.648C248.36 297.275 249.069 297.088 249.848 297.088C250.616 297.088 251.283 297.253 251.848 297.584C252.413 297.915 252.835 298.331 253.112 298.832V297.232H254.584V306H253.112V304.368C252.824 304.88 252.392 305.307 251.816 305.648C251.251 305.979 250.589 306.144 249.832 306.144C249.053 306.144 248.349 305.952 247.72 305.568C247.091 305.184 246.595 304.645 246.232 303.952C245.869 303.259 245.688 302.469 245.688 301.584ZM253.112 301.6C253.112 300.939 252.979 300.363 252.712 299.872C252.445 299.381 252.083 299.008 251.624 298.752C251.176 298.485 250.68 298.352 250.136 298.352C249.592 298.352 249.096 298.48 248.648 298.736C248.2 298.992 247.843 299.365 247.576 299.856C247.309 300.347 247.176 300.923 247.176 301.584C247.176 302.256 247.309 302.843 247.576 303.344C247.843 303.835 248.2 304.213 248.648 304.48C249.096 304.736 249.592 304.864 250.136 304.864C250.68 304.864 251.176 304.736 251.624 304.48C252.083 304.213 252.445 303.835 252.712 303.344C252.979 302.843 253.112 302.261 253.112 301.6ZM258.501 298.656C258.757 298.155 259.119 297.765 259.589 297.488C260.069 297.211 260.65 297.072 261.333 297.072V298.576H260.949C259.317 298.576 258.501 299.461 258.501 301.232V306H257.045V297.232H258.501V298.656ZM264.789 298.432V303.6C264.789 304.027 264.88 304.331 265.061 304.512C265.243 304.683 265.557 304.768 266.005 304.768H267.077V306H265.765C264.955 306 264.347 305.813 263.941 305.44C263.536 305.067 263.333 304.453 263.333 303.6V298.432H262.197V297.232H263.333V295.024H264.789V297.232H267.077V298.432H264.789ZM273.113 297.072C274.18 297.072 275.044 297.397 275.705 298.048C276.367 298.688 276.697 299.616 276.697 300.832V306H275.257V301.04C275.257 300.165 275.039 299.499 274.601 299.04C274.164 298.571 273.567 298.336 272.809 298.336C272.041 298.336 271.428 298.576 270.969 299.056C270.521 299.536 270.297 300.235 270.297 301.152V306H268.841V297.232H270.297V298.48C270.585 298.032 270.975 297.685 271.465 297.44C271.967 297.195 272.516 297.072 273.113 297.072ZM287.076 301.28C287.076 301.557 287.06 301.851 287.028 302.16H280.02C280.073 303.024 280.366 303.701 280.9 304.192C281.444 304.672 282.1 304.912 282.868 304.912C283.497 304.912 284.02 304.768 284.436 304.48C284.862 304.181 285.161 303.787 285.332 303.296H286.9C286.665 304.139 286.196 304.827 285.492 305.36C284.788 305.883 283.913 306.144 282.868 306.144C282.036 306.144 281.289 305.957 280.628 305.584C279.977 305.211 279.465 304.683 279.092 304C278.718 303.307 278.532 302.507 278.532 301.6C278.532 300.693 278.713 299.899 279.076 299.216C279.438 298.533 279.945 298.011 280.596 297.648C281.257 297.275 282.014 297.088 282.868 297.088C283.7 297.088 284.436 297.269 285.076 297.632C285.716 297.995 286.206 298.496 286.548 299.136C286.9 299.765 287.076 300.48 287.076 301.28ZM285.572 300.976C285.572 300.421 285.449 299.947 285.204 299.552C284.958 299.147 284.622 298.843 284.196 298.64C283.78 298.427 283.316 298.32 282.804 298.32C282.068 298.32 281.438 298.555 280.916 299.024C280.404 299.493 280.11 300.144 280.036 300.976H285.572ZM290.454 298.656C290.71 298.155 291.072 297.765 291.542 297.488C292.022 297.211 292.603 297.072 293.286 297.072V298.576H292.902C291.27 298.576 290.454 299.461 290.454 301.232V306H288.998V297.232H290.454V298.656ZM298.07 306.144C297.398 306.144 296.796 306.032 296.262 305.808C295.729 305.573 295.308 305.253 294.998 304.848C294.689 304.432 294.518 303.957 294.486 303.424H295.99C296.033 303.861 296.236 304.219 296.598 304.496C296.972 304.773 297.457 304.912 298.054 304.912C298.609 304.912 299.046 304.789 299.366 304.544C299.686 304.299 299.846 303.989 299.846 303.616C299.846 303.232 299.676 302.949 299.334 302.768C298.993 302.576 298.465 302.389 297.75 302.208C297.1 302.037 296.566 301.867 296.15 301.696C295.745 301.515 295.393 301.253 295.094 300.912C294.806 300.56 294.662 300.101 294.662 299.536C294.662 299.088 294.796 298.677 295.062 298.304C295.329 297.931 295.708 297.637 296.198 297.424C296.689 297.2 297.249 297.088 297.878 297.088C298.849 297.088 299.633 297.333 300.23 297.824C300.828 298.315 301.148 298.987 301.19 299.84H299.734C299.702 299.381 299.516 299.013 299.174 298.736C298.844 298.459 298.396 298.32 297.83 298.32C297.308 298.32 296.892 298.432 296.582 298.656C296.273 298.88 296.118 299.173 296.118 299.536C296.118 299.824 296.209 300.064 296.39 300.256C296.582 300.437 296.817 300.587 297.094 300.704C297.382 300.811 297.777 300.933 298.278 301.072C298.908 301.243 299.42 301.413 299.814 301.584C300.209 301.744 300.545 301.989 300.822 302.32C301.11 302.651 301.26 303.083 301.27 303.616C301.27 304.096 301.137 304.528 300.87 304.912C300.604 305.296 300.225 305.6 299.734 305.824C299.254 306.037 298.7 306.144 298.07 306.144ZM309.047 298.864C309.346 298.341 309.783 297.915 310.359 297.584C310.935 297.253 311.591 297.088 312.327 297.088C313.117 297.088 313.826 297.275 314.455 297.648C315.085 298.021 315.581 298.549 315.943 299.232C316.306 299.904 316.487 300.688 316.487 301.584C316.487 302.469 316.306 303.259 315.943 303.952C315.581 304.645 315.079 305.184 314.439 305.568C313.81 305.952 313.106 306.144 312.327 306.144C311.57 306.144 310.903 305.979 310.327 305.648C309.762 305.317 309.335 304.896 309.047 304.384V306H307.591V294.16H309.047V298.864ZM314.999 301.584C314.999 300.923 314.866 300.347 314.599 299.856C314.333 299.365 313.97 298.992 313.511 298.736C313.063 298.48 312.567 298.352 312.023 298.352C311.49 298.352 310.994 298.485 310.535 298.752C310.087 299.008 309.725 299.387 309.447 299.888C309.181 300.379 309.047 300.949 309.047 301.6C309.047 302.261 309.181 302.843 309.447 303.344C309.725 303.835 310.087 304.213 310.535 304.48C310.994 304.736 311.49 304.864 312.023 304.864C312.567 304.864 313.063 304.736 313.511 304.48C313.97 304.213 314.333 303.835 314.599 303.344C314.866 302.843 314.999 302.256 314.999 301.584ZM326.18 297.232V306H324.724V304.704C324.447 305.152 324.057 305.504 323.556 305.76C323.065 306.005 322.521 306.128 321.924 306.128C321.241 306.128 320.628 305.989 320.084 305.712C319.54 305.424 319.108 304.997 318.788 304.432C318.479 303.867 318.324 303.179 318.324 302.368V297.232H319.764V302.176C319.764 303.04 319.983 303.707 320.42 304.176C320.857 304.635 321.455 304.864 322.212 304.864C322.991 304.864 323.604 304.624 324.052 304.144C324.5 303.664 324.724 302.965 324.724 302.048V297.232H326.18ZM329.39 295.808C329.113 295.808 328.878 295.712 328.686 295.52C328.494 295.328 328.398 295.093 328.398 294.816C328.398 294.539 328.494 294.304 328.686 294.112C328.878 293.92 329.113 293.824 329.39 293.824C329.657 293.824 329.881 293.92 330.062 294.112C330.254 294.304 330.35 294.539 330.35 294.816C330.35 295.093 330.254 295.328 330.062 295.52C329.881 295.712 329.657 295.808 329.39 295.808ZM330.094 297.232V306H328.638V297.232H330.094ZM334.032 294.16V306H332.576V294.16H334.032ZM335.969 301.584C335.969 300.688 336.151 299.904 336.513 299.232C336.876 298.549 337.372 298.021 338.001 297.648C338.641 297.275 339.356 297.088 340.145 297.088C340.828 297.088 341.463 297.248 342.049 297.568C342.636 297.877 343.084 298.288 343.393 298.8V294.16H344.865V306H343.393V304.352C343.105 304.875 342.679 305.307 342.113 305.648C341.548 305.979 340.887 306.144 340.129 306.144C339.351 306.144 338.641 305.952 338.001 305.568C337.372 305.184 336.876 304.645 336.513 303.952C336.151 303.259 335.969 302.469 335.969 301.584ZM343.393 301.6C343.393 300.939 343.26 300.363 342.993 299.872C342.727 299.381 342.364 299.008 341.905 298.752C341.457 298.485 340.961 298.352 340.417 298.352C339.873 298.352 339.377 298.48 338.929 298.736C338.481 298.992 338.124 299.365 337.857 299.856C337.591 300.347 337.457 300.923 337.457 301.584C337.457 302.256 337.591 302.843 337.857 303.344C338.124 303.835 338.481 304.213 338.929 304.48C339.377 304.736 339.873 304.864 340.417 304.864C340.961 304.864 341.457 304.736 341.905 304.48C342.364 304.213 342.727 303.835 342.993 303.344C343.26 302.843 343.393 302.261 343.393 301.6ZM362.135 297.072C362.818 297.072 363.426 297.216 363.959 297.504C364.493 297.781 364.914 298.203 365.223 298.768C365.533 299.333 365.687 300.021 365.687 300.832V306H364.247V301.04C364.247 300.165 364.029 299.499 363.591 299.04C363.165 298.571 362.583 298.336 361.847 298.336C361.09 298.336 360.487 298.581 360.039 299.072C359.591 299.552 359.367 300.251 359.367 301.168V306H357.927V301.04C357.927 300.165 357.709 299.499 357.271 299.04C356.845 298.571 356.263 298.336 355.527 298.336C354.77 298.336 354.167 298.581 353.719 299.072C353.271 299.552 353.047 300.251 353.047 301.168V306H351.591V297.232H353.047V298.496C353.335 298.037 353.719 297.685 354.199 297.44C354.69 297.195 355.229 297.072 355.815 297.072C356.551 297.072 357.202 297.237 357.767 297.568C358.333 297.899 358.754 298.384 359.031 299.024C359.277 298.405 359.682 297.925 360.247 297.584C360.813 297.243 361.442 297.072 362.135 297.072ZM376.076 301.28C376.076 301.557 376.06 301.851 376.028 302.16H369.02C369.073 303.024 369.366 303.701 369.9 304.192C370.444 304.672 371.1 304.912 371.868 304.912C372.497 304.912 373.02 304.768 373.436 304.48C373.862 304.181 374.161 303.787 374.332 303.296H375.9C375.665 304.139 375.196 304.827 374.492 305.36C373.788 305.883 372.913 306.144 371.868 306.144C371.036 306.144 370.289 305.957 369.628 305.584C368.977 305.211 368.465 304.683 368.092 304C367.718 303.307 367.532 302.507 367.532 301.6C367.532 300.693 367.713 299.899 368.076 299.216C368.438 298.533 368.945 298.011 369.596 297.648C370.257 297.275 371.014 297.088 371.868 297.088C372.7 297.088 373.436 297.269 374.076 297.632C374.716 297.995 375.206 298.496 375.548 299.136C375.9 299.765 376.076 300.48 376.076 301.28ZM374.572 300.976C374.572 300.421 374.449 299.947 374.204 299.552C373.958 299.147 373.622 298.843 373.196 298.64C372.78 298.427 372.316 298.32 371.804 298.32C371.068 298.32 370.438 298.555 369.916 299.024C369.404 299.493 369.11 300.144 369.036 300.976H374.572ZM377.454 301.584C377.454 300.688 377.635 299.904 377.998 299.232C378.36 298.549 378.856 298.021 379.486 297.648C380.126 297.275 380.835 297.088 381.614 297.088C382.382 297.088 383.048 297.253 383.614 297.584C384.179 297.915 384.6 298.331 384.878 298.832V297.232H386.35V306H384.878V304.368C384.59 304.88 384.158 305.307 383.582 305.648C383.016 305.979 382.355 306.144 381.598 306.144C380.819 306.144 380.115 305.952 379.486 305.568C378.856 305.184 378.36 304.645 377.998 303.952C377.635 303.259 377.454 302.469 377.454 301.584ZM384.878 301.6C384.878 300.939 384.744 300.363 384.478 299.872C384.211 299.381 383.848 299.008 383.39 298.752C382.942 298.485 382.446 298.352 381.902 298.352C381.358 298.352 380.862 298.48 380.414 298.736C379.966 298.992 379.608 299.365 379.342 299.856C379.075 300.347 378.942 300.923 378.942 301.584C378.942 302.256 379.075 302.843 379.342 303.344C379.608 303.835 379.966 304.213 380.414 304.48C380.862 304.736 381.358 304.864 381.902 304.864C382.446 304.864 382.942 304.736 383.39 304.48C383.848 304.213 384.211 303.835 384.478 303.344C384.744 302.843 384.878 302.261 384.878 301.6ZM393.082 297.072C394.149 297.072 395.013 297.397 395.674 298.048C396.335 298.688 396.666 299.616 396.666 300.832V306H395.226V301.04C395.226 300.165 395.007 299.499 394.57 299.04C394.133 298.571 393.535 298.336 392.778 298.336C392.01 298.336 391.397 298.576 390.938 299.056C390.49 299.536 390.266 300.235 390.266 301.152V306H388.81V297.232H390.266V298.48C390.554 298.032 390.943 297.685 391.434 297.44C391.935 297.195 392.485 297.072 393.082 297.072ZM399.797 295.808C399.519 295.808 399.285 295.712 399.093 295.52C398.901 295.328 398.805 295.093 398.805 294.816C398.805 294.539 398.901 294.304 399.093 294.112C399.285 293.92 399.519 293.824 399.797 293.824C400.063 293.824 400.287 293.92 400.469 294.112C400.661 294.304 400.757 294.539 400.757 294.816C400.757 295.093 400.661 295.328 400.469 295.52C400.287 295.712 400.063 295.808 399.797 295.808ZM400.501 297.232V306H399.045V297.232H400.501ZM407.254 297.072C408.321 297.072 409.185 297.397 409.846 298.048C410.507 298.688 410.838 299.616 410.838 300.832V306H409.398V301.04C409.398 300.165 409.179 299.499 408.742 299.04C408.305 298.571 407.707 298.336 406.95 298.336C406.182 298.336 405.569 298.576 405.11 299.056C404.662 299.536 404.438 300.235 404.438 301.152V306H402.982V297.232H404.438V298.48C404.726 298.032 405.115 297.685 405.606 297.44C406.107 297.195 406.657 297.072 407.254 297.072ZM416.832 297.088C417.59 297.088 418.251 297.253 418.816 297.584C419.392 297.915 419.819 298.331 420.096 298.832V297.232H421.568V306.192C421.568 306.992 421.398 307.701 421.056 308.32C420.715 308.949 420.224 309.44 419.584 309.792C418.955 310.144 418.219 310.32 417.376 310.32C416.224 310.32 415.264 310.048 414.496 309.504C413.728 308.96 413.275 308.219 413.136 307.28H414.576C414.736 307.813 415.067 308.24 415.568 308.56C416.07 308.891 416.672 309.056 417.376 309.056C418.176 309.056 418.827 308.805 419.328 308.304C419.84 307.803 420.096 307.099 420.096 306.192V304.352C419.808 304.864 419.382 305.291 418.816 305.632C418.251 305.973 417.59 306.144 416.832 306.144C416.054 306.144 415.344 305.952 414.704 305.568C414.075 305.184 413.579 304.645 413.216 303.952C412.854 303.259 412.672 302.469 412.672 301.584C412.672 300.688 412.854 299.904 413.216 299.232C413.579 298.549 414.075 298.021 414.704 297.648C415.344 297.275 416.054 297.088 416.832 297.088ZM420.096 301.6C420.096 300.939 419.963 300.363 419.696 299.872C419.43 299.381 419.067 299.008 418.608 298.752C418.16 298.485 417.664 298.352 417.12 298.352C416.576 298.352 416.08 298.48 415.632 298.736C415.184 298.992 414.827 299.365 414.56 299.856C414.294 300.347 414.16 300.923 414.16 301.584C414.16 302.256 414.294 302.843 414.56 303.344C414.827 303.835 415.184 304.213 415.632 304.48C416.08 304.736 416.576 304.864 417.12 304.864C417.664 304.864 418.16 304.736 418.608 304.48C419.067 304.213 419.43 303.835 419.696 303.344C419.963 302.843 420.096 302.261 420.096 301.6ZM427.597 298.432H425.757V306H424.301V298.432H423.165V297.232H424.301V296.608C424.301 295.627 424.552 294.912 425.053 294.464C425.565 294.005 426.381 293.776 427.501 293.776V294.992C426.861 294.992 426.408 295.12 426.141 295.376C425.885 295.621 425.757 296.032 425.757 296.608V297.232H427.597V298.432ZM437.071 297.232V306H435.615V304.704C435.337 305.152 434.948 305.504 434.447 305.76C433.956 306.005 433.412 306.128 432.815 306.128C432.132 306.128 431.519 305.989 430.975 305.712C430.431 305.424 429.999 304.997 429.679 304.432C429.369 303.867 429.215 303.179 429.215 302.368V297.232H430.655V302.176C430.655 303.04 430.873 303.707 431.311 304.176C431.748 304.635 432.345 304.864 433.103 304.864C433.881 304.864 434.495 304.624 434.943 304.144C435.391 303.664 435.615 302.965 435.615 302.048V297.232H437.071ZM440.985 294.16V306H439.529V294.16H440.985ZM447.188 301.6C447.188 300.693 447.369 299.904 447.732 299.232C448.095 298.549 448.596 298.021 449.236 297.648C449.887 297.275 450.628 297.088 451.46 297.088C452.537 297.088 453.423 297.349 454.116 297.872C454.82 298.395 455.284 299.12 455.508 300.048H453.94C453.791 299.515 453.497 299.093 453.06 298.784C452.633 298.475 452.1 298.32 451.46 298.32C450.628 298.32 449.956 298.608 449.444 299.184C448.932 299.749 448.676 300.555 448.676 301.6C448.676 302.656 448.932 303.472 449.444 304.048C449.956 304.624 450.628 304.912 451.46 304.912C452.1 304.912 452.633 304.763 453.06 304.464C453.487 304.165 453.78 303.739 453.94 303.184H455.508C455.273 304.08 454.804 304.8 454.1 305.344C453.396 305.877 452.516 306.144 451.46 306.144C450.628 306.144 449.887 305.957 449.236 305.584C448.596 305.211 448.095 304.683 447.732 304C447.369 303.317 447.188 302.517 447.188 301.6ZM461.275 306.144C460.453 306.144 459.707 305.957 459.035 305.584C458.373 305.211 457.851 304.683 457.467 304C457.093 303.307 456.907 302.507 456.907 301.6C456.907 300.704 457.099 299.915 457.483 299.232C457.877 298.539 458.411 298.011 459.083 297.648C459.755 297.275 460.507 297.088 461.339 297.088C462.171 297.088 462.923 297.275 463.595 297.648C464.267 298.011 464.795 298.533 465.179 299.216C465.573 299.899 465.771 300.693 465.771 301.6C465.771 302.507 465.568 303.307 465.163 304C464.768 304.683 464.229 305.211 463.547 305.584C462.864 305.957 462.107 306.144 461.275 306.144ZM461.275 304.864C461.797 304.864 462.288 304.741 462.747 304.496C463.205 304.251 463.573 303.883 463.851 303.392C464.139 302.901 464.283 302.304 464.283 301.6C464.283 300.896 464.144 300.299 463.867 299.808C463.589 299.317 463.227 298.955 462.779 298.72C462.331 298.475 461.845 298.352 461.323 298.352C460.789 298.352 460.299 298.475 459.851 298.72C459.413 298.955 459.061 299.317 458.795 299.808C458.528 300.299 458.395 300.896 458.395 301.6C458.395 302.315 458.523 302.917 458.779 303.408C459.045 303.899 459.397 304.267 459.835 304.512C460.272 304.747 460.752 304.864 461.275 304.864ZM471.957 297.072C473.024 297.072 473.888 297.397 474.549 298.048C475.21 298.688 475.541 299.616 475.541 300.832V306H474.101V301.04C474.101 300.165 473.882 299.499 473.445 299.04C473.008 298.571 472.41 298.336 471.653 298.336C470.885 298.336 470.272 298.576 469.813 299.056C469.365 299.536 469.141 300.235 469.141 301.152V306H467.685V297.232H469.141V298.48C469.429 298.032 469.818 297.685 470.309 297.44C470.81 297.195 471.36 297.072 471.957 297.072ZM482.192 297.072C483.258 297.072 484.122 297.397 484.784 298.048C485.445 298.688 485.776 299.616 485.776 300.832V306H484.336V301.04C484.336 300.165 484.117 299.499 483.68 299.04C483.242 298.571 482.645 298.336 481.888 298.336C481.12 298.336 480.506 298.576 480.048 299.056C479.6 299.536 479.376 300.235 479.376 301.152V306H477.92V297.232H479.376V298.48C479.664 298.032 480.053 297.685 480.544 297.44C481.045 297.195 481.594 297.072 482.192 297.072ZM496.154 301.28C496.154 301.557 496.138 301.851 496.106 302.16H489.098C489.151 303.024 489.445 303.701 489.978 304.192C490.522 304.672 491.178 304.912 491.946 304.912C492.575 304.912 493.098 304.768 493.514 304.48C493.941 304.181 494.239 303.787 494.41 303.296H495.978C495.743 304.139 495.274 304.827 494.57 305.36C493.866 305.883 492.991 306.144 491.946 306.144C491.114 306.144 490.367 305.957 489.706 305.584C489.055 305.211 488.543 304.683 488.17 304C487.797 303.307 487.61 302.507 487.61 301.6C487.61 300.693 487.791 299.899 488.154 299.216C488.517 298.533 489.023 298.011 489.674 297.648C490.335 297.275 491.093 297.088 491.946 297.088C492.778 297.088 493.514 297.269 494.154 297.632C494.794 297.995 495.285 298.496 495.626 299.136C495.978 299.765 496.154 300.48 496.154 301.28ZM494.65 300.976C494.65 300.421 494.527 299.947 494.282 299.552C494.037 299.147 493.701 298.843 493.274 298.64C492.858 298.427 492.394 298.32 491.882 298.32C491.146 298.32 490.517 298.555 489.994 299.024C489.482 299.493 489.189 300.144 489.114 300.976H494.65ZM497.532 301.6C497.532 300.693 497.713 299.904 498.076 299.232C498.438 298.549 498.94 298.021 499.58 297.648C500.23 297.275 500.972 297.088 501.804 297.088C502.881 297.088 503.766 297.349 504.46 297.872C505.164 298.395 505.628 299.12 505.852 300.048H504.284C504.134 299.515 503.841 299.093 503.404 298.784C502.977 298.475 502.444 298.32 501.804 298.32C500.972 298.32 500.3 298.608 499.788 299.184C499.276 299.749 499.02 300.555 499.02 301.6C499.02 302.656 499.276 303.472 499.788 304.048C500.3 304.624 500.972 304.912 501.804 304.912C502.444 304.912 502.977 304.763 503.404 304.464C503.83 304.165 504.124 303.739 504.284 303.184H505.852C505.617 304.08 505.148 304.8 504.444 305.344C503.74 305.877 502.86 306.144 501.804 306.144C500.972 306.144 500.23 305.957 499.58 305.584C498.94 305.211 498.438 304.683 498.076 304C497.713 303.317 497.532 302.517 497.532 301.6ZM509.571 298.432V303.6C509.571 304.027 509.661 304.331 509.843 304.512C510.024 304.683 510.339 304.768 510.786 304.768H511.859V306H510.547C509.736 306 509.128 305.813 508.723 305.44C508.317 305.067 508.115 304.453 508.115 303.6V298.432H506.979V297.232H508.115V295.024H509.571V297.232H511.859V298.432H509.571ZM514.375 295.808C514.097 295.808 513.863 295.712 513.671 295.52C513.479 295.328 513.383 295.093 513.383 294.816C513.383 294.539 513.479 294.304 513.671 294.112C513.863 293.92 514.097 293.824 514.375 293.824C514.641 293.824 514.865 293.92 515.047 294.112C515.239 294.304 515.335 294.539 515.335 294.816C515.335 295.093 515.239 295.328 515.047 295.52C514.865 295.712 514.641 295.808 514.375 295.808ZM515.079 297.232V306H513.623V297.232H515.079ZM521.384 306.144C520.563 306.144 519.816 305.957 519.144 305.584C518.483 305.211 517.96 304.683 517.576 304C517.203 303.307 517.016 302.507 517.016 301.6C517.016 300.704 517.208 299.915 517.592 299.232C517.987 298.539 518.52 298.011 519.192 297.648C519.864 297.275 520.616 297.088 521.448 297.088C522.28 297.088 523.032 297.275 523.704 297.648C524.376 298.011 524.904 298.533 525.288 299.216C525.683 299.899 525.88 300.693 525.88 301.6C525.88 302.507 525.677 303.307 525.272 304C524.877 304.683 524.339 305.211 523.656 305.584C522.973 305.957 522.216 306.144 521.384 306.144ZM521.384 304.864C521.907 304.864 522.397 304.741 522.856 304.496C523.315 304.251 523.683 303.883 523.96 303.392C524.248 302.901 524.392 302.304 524.392 301.6C524.392 300.896 524.253 300.299 523.976 299.808C523.699 299.317 523.336 298.955 522.888 298.72C522.44 298.475 521.955 298.352 521.432 298.352C520.899 298.352 520.408 298.475 519.96 298.72C519.523 298.955 519.171 299.317 518.904 299.808C518.637 300.299 518.504 300.896 518.504 301.6C518.504 302.315 518.632 302.917 518.888 303.408C519.155 303.899 519.507 304.267 519.944 304.512C520.381 304.747 520.861 304.864 521.384 304.864ZM532.067 297.072C533.133 297.072 533.997 297.397 534.659 298.048C535.32 298.688 535.651 299.616 535.651 300.832V306H534.211V301.04C534.211 300.165 533.992 299.499 533.555 299.04C533.117 298.571 532.52 298.336 531.763 298.336C530.995 298.336 530.381 298.576 529.923 299.056C529.475 299.536 529.251 300.235 529.251 301.152V306H527.795V297.232H529.251V298.48C529.539 298.032 529.928 297.685 530.419 297.44C530.92 297.195 531.469 297.072 532.067 297.072ZM541.133 306.144C540.461 306.144 539.858 306.032 539.325 305.808C538.792 305.573 538.37 305.253 538.061 304.848C537.752 304.432 537.581 303.957 537.549 303.424H539.053C539.096 303.861 539.298 304.219 539.661 304.496C540.034 304.773 540.52 304.912 541.117 304.912C541.672 304.912 542.109 304.789 542.429 304.544C542.749 304.299 542.909 303.989 542.909 303.616C542.909 303.232 542.738 302.949 542.397 302.768C542.056 302.576 541.528 302.389 540.813 302.208C540.162 302.037 539.629 301.867 539.213 301.696C538.808 301.515 538.456 301.253 538.157 300.912C537.869 300.56 537.725 300.101 537.725 299.536C537.725 299.088 537.858 298.677 538.125 298.304C538.392 297.931 538.77 297.637 539.261 297.424C539.752 297.2 540.312 297.088 540.941 297.088C541.912 297.088 542.696 297.333 543.293 297.824C543.89 298.315 544.21 298.987 544.253 299.84H542.797C542.765 299.381 542.578 299.013 542.237 298.736C541.906 298.459 541.458 298.32 540.893 298.32C540.37 298.32 539.954 298.432 539.645 298.656C539.336 298.88 539.181 299.173 539.181 299.536C539.181 299.824 539.272 300.064 539.453 300.256C539.645 300.437 539.88 300.587 540.157 300.704C540.445 300.811 540.84 300.933 541.341 301.072C541.97 301.243 542.482 301.413 542.877 301.584C543.272 301.744 543.608 301.989 543.885 302.32C544.173 302.651 544.322 303.083 544.333 303.616C544.333 304.096 544.2 304.528 543.933 304.912C543.666 305.296 543.288 305.6 542.797 305.824C542.317 306.037 541.762 306.144 541.133 306.144ZM550.11 301.584C550.11 300.688 550.291 299.904 550.654 299.232C551.017 298.549 551.513 298.021 552.142 297.648C552.782 297.275 553.491 297.088 554.27 297.088C555.038 297.088 555.705 297.253 556.27 297.584C556.835 297.915 557.257 298.331 557.534 298.832V297.232H559.006V306H557.534V304.368C557.246 304.88 556.814 305.307 556.238 305.648C555.673 305.979 555.011 306.144 554.254 306.144C553.475 306.144 552.771 305.952 552.142 305.568C551.513 305.184 551.017 304.645 550.654 303.952C550.291 303.259 550.11 302.469 550.11 301.584ZM557.534 301.6C557.534 300.939 557.401 300.363 557.134 299.872C556.867 299.381 556.505 299.008 556.046 298.752C555.598 298.485 555.102 298.352 554.558 298.352C554.014 298.352 553.518 298.48 553.07 298.736C552.622 298.992 552.265 299.365 551.998 299.856C551.731 300.347 551.598 300.923 551.598 301.584C551.598 302.256 551.731 302.843 551.998 303.344C552.265 303.835 552.622 304.213 553.07 304.48C553.518 304.736 554.014 304.864 554.558 304.864C555.102 304.864 555.598 304.736 556.046 304.48C556.505 304.213 556.867 303.835 557.134 303.344C557.401 302.843 557.534 302.261 557.534 301.6ZM565.738 297.072C566.805 297.072 567.669 297.397 568.33 298.048C568.992 298.688 569.322 299.616 569.322 300.832V306H567.882V301.04C567.882 300.165 567.664 299.499 567.226 299.04C566.789 298.571 566.192 298.336 565.434 298.336C564.666 298.336 564.053 298.576 563.594 299.056C563.146 299.536 562.922 300.235 562.922 301.152V306H561.466V297.232H562.922V298.48C563.21 298.032 563.6 297.685 564.09 297.44C564.592 297.195 565.141 297.072 565.738 297.072ZM571.157 301.584C571.157 300.688 571.338 299.904 571.701 299.232C572.063 298.549 572.559 298.021 573.189 297.648C573.829 297.275 574.543 297.088 575.333 297.088C576.015 297.088 576.65 297.248 577.237 297.568C577.823 297.877 578.271 298.288 578.581 298.8V294.16H580.053V306H578.581V304.352C578.293 304.875 577.866 305.307 577.301 305.648C576.735 305.979 576.074 306.144 575.317 306.144C574.538 306.144 573.829 305.952 573.189 305.568C572.559 305.184 572.063 304.645 571.701 303.952C571.338 303.259 571.157 302.469 571.157 301.584ZM578.581 301.6C578.581 300.939 578.447 300.363 578.181 299.872C577.914 299.381 577.551 299.008 577.093 298.752C576.645 298.485 576.149 298.352 575.605 298.352C575.061 298.352 574.565 298.48 574.117 298.736C573.669 298.992 573.311 299.365 573.045 299.856C572.778 300.347 572.645 300.923 572.645 301.584C572.645 302.256 572.778 302.843 573.045 303.344C573.311 303.835 573.669 304.213 574.117 304.48C574.565 304.736 575.061 304.864 575.605 304.864C576.149 304.864 576.645 304.736 577.093 304.48C577.551 304.213 577.914 303.835 578.181 303.344C578.447 302.843 578.581 302.261 578.581 301.6ZM588.235 294.16V306H586.779V294.16H588.235ZM590.172 301.584C590.172 300.688 590.354 299.904 590.716 299.232C591.079 298.549 591.575 298.021 592.204 297.648C592.844 297.275 593.554 297.088 594.332 297.088C595.1 297.088 595.767 297.253 596.332 297.584C596.898 297.915 597.319 298.331 597.596 298.832V297.232H599.068V306H597.596V304.368C597.308 304.88 596.876 305.307 596.3 305.648C595.735 305.979 595.074 306.144 594.316 306.144C593.538 306.144 592.834 305.952 592.204 305.568C591.575 305.184 591.079 304.645 590.716 303.952C590.354 303.259 590.172 302.469 590.172 301.584ZM597.596 301.6C597.596 300.939 597.463 300.363 597.196 299.872C596.93 299.381 596.567 299.008 596.108 298.752C595.66 298.485 595.164 298.352 594.62 298.352C594.076 298.352 593.58 298.48 593.132 298.736C592.684 298.992 592.327 299.365 592.06 299.856C591.794 300.347 591.66 300.923 591.66 301.584C591.66 302.256 591.794 302.843 592.06 303.344C592.327 303.835 592.684 304.213 593.132 304.48C593.58 304.736 594.076 304.864 594.62 304.864C595.164 304.864 595.66 304.736 596.108 304.48C596.567 304.213 596.93 303.835 597.196 303.344C597.463 302.843 597.596 302.261 597.596 301.6ZM604.633 306.144C603.961 306.144 603.358 306.032 602.825 305.808C602.292 305.573 601.87 305.253 601.561 304.848C601.252 304.432 601.081 303.957 601.049 303.424H602.553C602.596 303.861 602.798 304.219 603.161 304.496C603.534 304.773 604.02 304.912 604.617 304.912C605.172 304.912 605.609 304.789 605.929 304.544C606.249 304.299 606.409 303.989 606.409 303.616C606.409 303.232 606.238 302.949 605.897 302.768C605.556 302.576 605.028 302.389 604.313 302.208C603.662 302.037 603.129 301.867 602.713 301.696C602.308 301.515 601.956 301.253 601.657 300.912C601.369 300.56 601.225 300.101 601.225 299.536C601.225 299.088 601.358 298.677 601.625 298.304C601.892 297.931 602.27 297.637 602.761 297.424C603.252 297.2 603.812 297.088 604.441 297.088C605.412 297.088 606.196 297.333 606.793 297.824C607.39 298.315 607.71 298.987 607.753 299.84H606.297C606.265 299.381 606.078 299.013 605.737 298.736C605.406 298.459 604.958 298.32 604.393 298.32C603.87 298.32 603.454 298.432 603.145 298.656C602.836 298.88 602.681 299.173 602.681 299.536C602.681 299.824 602.772 300.064 602.953 300.256C603.145 300.437 603.38 300.587 603.657 300.704C603.945 300.811 604.34 300.933 604.841 301.072C605.47 301.243 605.982 301.413 606.377 301.584C606.772 301.744 607.108 301.989 607.385 302.32C607.673 302.651 607.822 303.083 607.833 303.616C607.833 304.096 607.7 304.528 607.433 304.912C607.166 305.296 606.788 305.6 606.297 305.824C605.817 306.037 605.262 306.144 604.633 306.144ZM611.664 298.432V303.6C611.664 304.027 611.755 304.331 611.936 304.512C612.118 304.683 612.432 304.768 612.88 304.768H613.952V306H612.64C611.83 306 611.222 305.813 610.816 305.44C610.411 305.067 610.208 304.453 610.208 303.6V298.432H609.072V297.232H610.208V295.024H611.664V297.232H613.952V298.432H611.664ZM616.468 295.808C616.191 295.808 615.956 295.712 615.764 295.52C615.572 295.328 615.476 295.093 615.476 294.816C615.476 294.539 615.572 294.304 615.764 294.112C615.956 293.92 616.191 293.824 616.468 293.824C616.735 293.824 616.959 293.92 617.14 294.112C617.332 294.304 617.428 294.539 617.428 294.816C617.428 295.093 617.332 295.328 617.14 295.52C616.959 295.712 616.735 295.808 616.468 295.808ZM617.172 297.232V306H615.716V297.232H617.172ZM623.926 297.072C624.993 297.072 625.857 297.397 626.518 298.048C627.179 298.688 627.51 299.616 627.51 300.832V306H626.07V301.04C626.07 300.165 625.851 299.499 625.414 299.04C624.977 298.571 624.379 298.336 623.622 298.336C622.854 298.336 622.241 298.576 621.782 299.056C621.334 299.536 621.11 300.235 621.11 301.152V306H619.654V297.232H621.11V298.48C621.398 298.032 621.787 297.685 622.278 297.44C622.779 297.195 623.329 297.072 623.926 297.072ZM633.504 297.088C634.262 297.088 634.923 297.253 635.488 297.584C636.064 297.915 636.491 298.331 636.768 298.832V297.232H638.24V306.192C638.24 306.992 638.07 307.701 637.728 308.32C637.387 308.949 636.896 309.44 636.256 309.792C635.627 310.144 634.891 310.32 634.048 310.32C632.896 310.32 631.936 310.048 631.168 309.504C630.4 308.96 629.947 308.219 629.808 307.28H631.248C631.408 307.813 631.739 308.24 632.24 308.56C632.742 308.891 633.344 309.056 634.048 309.056C634.848 309.056 635.499 308.805 636 308.304C636.512 307.803 636.768 307.099 636.768 306.192V304.352C636.48 304.864 636.054 305.291 635.488 305.632C634.923 305.973 634.262 306.144 633.504 306.144C632.726 306.144 632.016 305.952 631.376 305.568C630.747 305.184 630.251 304.645 629.888 303.952C629.526 303.259 629.344 302.469 629.344 301.584C629.344 300.688 629.526 299.904 629.888 299.232C630.251 298.549 630.747 298.021 631.376 297.648C632.016 297.275 632.726 297.088 633.504 297.088ZM636.768 301.6C636.768 300.939 636.635 300.363 636.368 299.872C636.102 299.381 635.739 299.008 635.28 298.752C634.832 298.485 634.336 298.352 633.792 298.352C633.248 298.352 632.752 298.48 632.304 298.736C631.856 298.992 631.499 299.365 631.232 299.856C630.966 300.347 630.832 300.923 630.832 301.584C630.832 302.256 630.966 302.843 631.232 303.344C631.499 303.835 631.856 304.213 632.304 304.48C632.752 304.736 633.248 304.864 633.792 304.864C634.336 304.864 634.832 304.736 635.28 304.48C635.739 304.213 636.102 303.835 636.368 303.344C636.635 302.843 636.768 302.261 636.768 301.6ZM82.688 322.656C82.944 322.155 83.3067 321.765 83.776 321.488C84.256 321.211 84.8373 321.072 85.52 321.072V322.576H85.136C83.504 322.576 82.688 323.461 82.688 325.232V330H81.232V321.232H82.688V322.656ZM95.2008 325.28C95.2008 325.557 95.1848 325.851 95.1528 326.16H88.1448C88.1981 327.024 88.4914 327.701 89.0248 328.192C89.5688 328.672 90.2248 328.912 90.9928 328.912C91.6221 328.912 92.1448 328.768 92.5608 328.48C92.9874 328.181 93.2861 327.787 93.4568 327.296H95.0248C94.7901 328.139 94.3208 328.827 93.6168 329.36C92.9128 329.883 92.0381 330.144 90.9928 330.144C90.1608 330.144 89.4141 329.957 88.7528 329.584C88.1021 329.211 87.5901 328.683 87.2168 328C86.8434 327.307 86.6568 326.507 86.6568 325.6C86.6568 324.693 86.8381 323.899 87.2008 323.216C87.5634 322.533 88.0701 322.011 88.7208 321.648C89.3821 321.275 90.1394 321.088 90.9928 321.088C91.8248 321.088 92.5608 321.269 93.2008 321.632C93.8408 321.995 94.3314 322.496 94.6728 323.136C95.0248 323.765 95.2008 324.48 95.2008 325.28ZM93.6968 324.976C93.6968 324.421 93.5741 323.947 93.3288 323.552C93.0834 323.147 92.7474 322.843 92.3208 322.64C91.9048 322.427 91.4408 322.32 90.9288 322.32C90.1928 322.32 89.5634 322.555 89.0408 323.024C88.5288 323.493 88.2354 324.144 88.1608 324.976H93.6968ZM98.5786 318.16V330H97.1226V318.16H98.5786ZM100.516 325.584C100.516 324.688 100.697 323.904 101.06 323.232C101.423 322.549 101.919 322.021 102.548 321.648C103.188 321.275 103.897 321.088 104.676 321.088C105.444 321.088 106.111 321.253 106.676 321.584C107.241 321.915 107.663 322.331 107.94 322.832V321.232H109.412V330H107.94V328.368C107.652 328.88 107.22 329.307 106.644 329.648C106.079 329.979 105.417 330.144 104.66 330.144C103.881 330.144 103.177 329.952 102.548 329.568C101.919 329.184 101.423 328.645 101.06 327.952C100.697 327.259 100.516 326.469 100.516 325.584ZM107.94 325.6C107.94 324.939 107.807 324.363 107.54 323.872C107.273 323.381 106.911 323.008 106.452 322.752C106.004 322.485 105.508 322.352 104.964 322.352C104.42 322.352 103.924 322.48 103.476 322.736C103.028 322.992 102.671 323.365 102.404 323.856C102.137 324.347 102.004 324.923 102.004 325.584C102.004 326.256 102.137 326.843 102.404 327.344C102.671 327.835 103.028 328.213 103.476 328.48C103.924 328.736 104.42 328.864 104.964 328.864C105.508 328.864 106.004 328.736 106.452 328.48C106.911 328.213 107.273 327.835 107.54 327.344C107.807 326.843 107.94 326.261 107.94 325.6ZM113.649 322.432V327.6C113.649 328.027 113.739 328.331 113.921 328.512C114.102 328.683 114.417 328.768 114.865 328.768H115.937V330H114.625C113.814 330 113.206 329.813 112.801 329.44C112.395 329.067 112.193 328.453 112.193 327.6V322.432H111.057V321.232H112.193V319.024H113.649V321.232H115.937V322.432H113.649ZM118.453 319.808C118.175 319.808 117.941 319.712 117.749 319.52C117.557 319.328 117.461 319.093 117.461 318.816C117.461 318.539 117.557 318.304 117.749 318.112C117.941 317.92 118.175 317.824 118.453 317.824C118.719 317.824 118.943 317.92 119.125 318.112C119.317 318.304 119.413 318.539 119.413 318.816C119.413 319.093 119.317 319.328 119.125 319.52C118.943 319.712 118.719 319.808 118.453 319.808ZM119.157 321.232V330H117.701V321.232H119.157ZM125.462 330.144C124.641 330.144 123.894 329.957 123.222 329.584C122.561 329.211 122.038 328.683 121.654 328C121.281 327.307 121.094 326.507 121.094 325.6C121.094 324.704 121.286 323.915 121.67 323.232C122.065 322.539 122.598 322.011 123.27 321.648C123.942 321.275 124.694 321.088 125.526 321.088C126.358 321.088 127.11 321.275 127.782 321.648C128.454 322.011 128.982 322.533 129.366 323.216C129.761 323.899 129.958 324.693 129.958 325.6C129.958 326.507 129.756 327.307 129.35 328C128.956 328.683 128.417 329.211 127.734 329.584C127.052 329.957 126.294 330.144 125.462 330.144ZM125.462 328.864C125.985 328.864 126.476 328.741 126.934 328.496C127.393 328.251 127.761 327.883 128.038 327.392C128.326 326.901 128.47 326.304 128.47 325.6C128.47 324.896 128.332 324.299 128.054 323.808C127.777 323.317 127.414 322.955 126.966 322.72C126.518 322.475 126.033 322.352 125.51 322.352C124.977 322.352 124.486 322.475 124.038 322.72C123.601 322.955 123.249 323.317 122.982 323.808C122.716 324.299 122.582 324.896 122.582 325.6C122.582 326.315 122.71 326.917 122.966 327.408C123.233 327.899 123.585 328.267 124.022 328.512C124.46 328.747 124.94 328.864 125.462 328.864ZM136.145 321.072C137.211 321.072 138.075 321.397 138.737 322.048C139.398 322.688 139.729 323.616 139.729 324.832V330H138.289V325.04C138.289 324.165 138.07 323.499 137.633 323.04C137.195 322.571 136.598 322.336 135.841 322.336C135.073 322.336 134.459 322.576 134.001 323.056C133.553 323.536 133.329 324.235 133.329 325.152V330H131.873V321.232H133.329V322.48C133.617 322.032 134.006 321.685 134.497 321.44C134.998 321.195 135.547 321.072 136.145 321.072ZM145.211 330.144C144.539 330.144 143.936 330.032 143.403 329.808C142.87 329.573 142.448 329.253 142.139 328.848C141.83 328.432 141.659 327.957 141.627 327.424H143.131C143.174 327.861 143.376 328.219 143.739 328.496C144.112 328.773 144.598 328.912 145.195 328.912C145.75 328.912 146.187 328.789 146.507 328.544C146.827 328.299 146.987 327.989 146.987 327.616C146.987 327.232 146.816 326.949 146.475 326.768C146.134 326.576 145.606 326.389 144.891 326.208C144.24 326.037 143.707 325.867 143.291 325.696C142.886 325.515 142.534 325.253 142.235 324.912C141.947 324.56 141.803 324.101 141.803 323.536C141.803 323.088 141.936 322.677 142.203 322.304C142.47 321.931 142.848 321.637 143.339 321.424C143.83 321.2 144.39 321.088 145.019 321.088C145.99 321.088 146.774 321.333 147.371 321.824C147.968 322.315 148.288 322.987 148.331 323.84H146.875C146.843 323.381 146.656 323.013 146.315 322.736C145.984 322.459 145.536 322.32 144.971 322.32C144.448 322.32 144.032 322.432 143.723 322.656C143.414 322.88 143.259 323.173 143.259 323.536C143.259 323.824 143.35 324.064 143.531 324.256C143.723 324.437 143.958 324.587 144.235 324.704C144.523 324.811 144.918 324.933 145.419 325.072C146.048 325.243 146.56 325.413 146.955 325.584C147.35 325.744 147.686 325.989 147.963 326.32C148.251 326.651 148.4 327.083 148.411 327.616C148.411 328.096 148.278 328.528 148.011 328.912C147.744 329.296 147.366 329.6 146.875 329.824C146.395 330.037 145.84 330.144 145.211 330.144ZM154.818 321.072C155.48 321.072 156.077 321.216 156.61 321.504C157.144 321.781 157.56 322.203 157.858 322.768C158.168 323.333 158.322 324.021 158.322 324.832V330H156.882V325.04C156.882 324.165 156.664 323.499 156.226 323.04C155.789 322.571 155.192 322.336 154.434 322.336C153.666 322.336 153.053 322.576 152.594 323.056C152.146 323.536 151.922 324.235 151.922 325.152V330H150.466V318.16H151.922V322.48C152.21 322.032 152.605 321.685 153.106 321.44C153.618 321.195 154.189 321.072 154.818 321.072ZM161.453 319.808C161.175 319.808 160.941 319.712 160.749 319.52C160.557 319.328 160.461 319.093 160.461 318.816C160.461 318.539 160.557 318.304 160.749 318.112C160.941 317.92 161.175 317.824 161.453 317.824C161.719 317.824 161.943 317.92 162.125 318.112C162.317 318.304 162.413 318.539 162.413 318.816C162.413 319.093 162.317 319.328 162.125 319.52C161.943 319.712 161.719 319.808 161.453 319.808ZM162.157 321.232V330H160.701V321.232H162.157ZM166.094 322.848C166.382 322.347 166.809 321.931 167.374 321.6C167.95 321.259 168.617 321.088 169.374 321.088C170.153 321.088 170.857 321.275 171.486 321.648C172.126 322.021 172.628 322.549 172.99 323.232C173.353 323.904 173.534 324.688 173.534 325.584C173.534 326.469 173.353 327.259 172.99 327.952C172.628 328.645 172.126 329.184 171.486 329.568C170.857 329.952 170.153 330.144 169.374 330.144C168.628 330.144 167.966 329.979 167.39 329.648C166.825 329.307 166.393 328.885 166.094 328.384V334.16H164.638V321.232H166.094V322.848ZM172.046 325.584C172.046 324.923 171.913 324.347 171.646 323.856C171.38 323.365 171.017 322.992 170.558 322.736C170.11 322.48 169.614 322.352 169.07 322.352C168.537 322.352 168.041 322.485 167.582 322.752C167.134 323.008 166.772 323.387 166.494 323.888C166.228 324.379 166.094 324.949 166.094 325.6C166.094 326.261 166.228 326.843 166.494 327.344C166.772 327.835 167.134 328.213 167.582 328.48C168.041 328.736 168.537 328.864 169.07 328.864C169.614 328.864 170.11 328.736 170.558 328.48C171.017 328.213 171.38 327.835 171.646 327.344C171.913 326.843 172.046 326.256 172.046 325.584ZM178.555 330.144C177.883 330.144 177.28 330.032 176.747 329.808C176.213 329.573 175.792 329.253 175.483 328.848C175.173 328.432 175.003 327.957 174.971 327.424H176.475C176.517 327.861 176.72 328.219 177.083 328.496C177.456 328.773 177.941 328.912 178.539 328.912C179.093 328.912 179.531 328.789 179.851 328.544C180.171 328.299 180.331 327.989 180.331 327.616C180.331 327.232 180.16 326.949 179.819 326.768C179.477 326.576 178.949 326.389 178.235 326.208C177.584 326.037 177.051 325.867 176.635 325.696C176.229 325.515 175.877 325.253 175.579 324.912C175.291 324.56 175.147 324.101 175.147 323.536C175.147 323.088 175.28 322.677 175.547 322.304C175.813 321.931 176.192 321.637 176.683 321.424C177.173 321.2 177.733 321.088 178.363 321.088C179.333 321.088 180.117 321.333 180.715 321.824C181.312 322.315 181.632 322.987 181.675 323.84H180.219C180.187 323.381 180 323.013 179.659 322.736C179.328 322.459 178.88 322.32 178.315 322.32C177.792 322.32 177.376 322.432 177.067 322.656C176.757 322.88 176.603 323.173 176.603 323.536C176.603 323.824 176.693 324.064 176.875 324.256C177.067 324.437 177.301 324.587 177.579 324.704C177.867 324.811 178.261 324.933 178.763 325.072C179.392 325.243 179.904 325.413 180.299 325.584C180.693 325.744 181.029 325.989 181.307 326.32C181.595 326.651 181.744 327.083 181.755 327.616C181.755 328.096 181.621 328.528 181.355 328.912C181.088 329.296 180.709 329.6 180.219 329.824C179.739 330.037 179.184 330.144 178.555 330.144ZM184.274 330.096C183.997 330.096 183.762 330 183.57 329.808C183.378 329.616 183.282 329.381 183.282 329.104C183.282 328.827 183.378 328.592 183.57 328.4C183.762 328.208 183.997 328.112 184.274 328.112C184.541 328.112 184.765 328.208 184.946 328.4C185.138 328.592 185.234 328.827 185.234 329.104C185.234 329.381 185.138 329.616 184.946 329.808C184.765 330 184.541 330.096 184.274 330.096Z" fill="black" fill-opacity="0.7"/>
<rect x="80" y="414" width="159" height="52" rx="26" fill="url(#paint2_linear_990_953)"/>
<path d="M116.54 445L114.14 440.83H112.835V445H111.125V434.575H114.725C115.525 434.575 116.2 434.715 116.75 434.995C117.31 435.275 117.725 435.65 117.995 436.12C118.275 436.59 118.415 437.115 118.415 437.695C118.415 438.375 118.215 438.995 117.815 439.555C117.425 440.105 116.82 440.48 116 440.68L118.58 445H116.54ZM112.835 439.465H114.725C115.365 439.465 115.845 439.305 116.165 438.985C116.495 438.665 116.66 438.235 116.66 437.695C116.66 437.155 116.5 436.735 116.18 436.435C115.86 436.125 115.375 435.97 114.725 435.97H112.835V439.465ZM128.178 440.665C128.178 440.975 128.158 441.255 128.118 441.505H121.803C121.853 442.165 122.098 442.695 122.538 443.095C122.978 443.495 123.518 443.695 124.158 443.695C125.078 443.695 125.728 443.31 126.108 442.54H127.953C127.703 443.3 127.248 443.925 126.588 444.415C125.938 444.895 125.128 445.135 124.158 445.135C123.368 445.135 122.658 444.96 122.028 444.61C121.408 444.25 120.918 443.75 120.558 443.11C120.208 442.46 120.033 441.71 120.033 440.86C120.033 440.01 120.203 439.265 120.543 438.625C120.893 437.975 121.378 437.475 121.998 437.125C122.628 436.775 123.348 436.6 124.158 436.6C124.938 436.6 125.633 436.77 126.243 437.11C126.853 437.45 127.328 437.93 127.668 438.55C128.008 439.16 128.178 439.865 128.178 440.665ZM126.393 440.125C126.383 439.495 126.158 438.99 125.718 438.61C125.278 438.23 124.733 438.04 124.083 438.04C123.493 438.04 122.988 438.23 122.568 438.61C122.148 438.98 121.898 439.485 121.818 440.125H126.393ZM133.19 436.6C133.83 436.6 134.395 436.73 134.885 436.99C135.385 437.24 135.775 437.555 136.055 437.935V436.735H137.78V445.135C137.78 445.895 137.62 446.57 137.3 447.16C136.98 447.76 136.515 448.23 135.905 448.57C135.305 448.91 134.585 449.08 133.745 449.08C132.625 449.08 131.695 448.815 130.955 448.285C130.215 447.765 129.795 447.055 129.695 446.155H131.39C131.52 446.585 131.795 446.93 132.215 447.19C132.645 447.46 133.155 447.595 133.745 447.595C134.435 447.595 134.99 447.385 135.41 446.965C135.84 446.545 136.055 445.935 136.055 445.135V443.755C135.765 444.145 135.37 444.475 134.87 444.745C134.38 445.005 133.82 445.135 133.19 445.135C132.47 445.135 131.81 444.955 131.21 444.595C130.62 444.225 130.15 443.715 129.8 443.065C129.46 442.405 129.29 441.66 129.29 440.83C129.29 440 129.46 439.265 129.8 438.625C130.15 437.985 130.62 437.49 131.21 437.14C131.81 436.78 132.47 436.6 133.19 436.6ZM136.055 440.86C136.055 440.29 135.935 439.795 135.695 439.375C135.465 438.955 135.16 438.635 134.78 438.415C134.4 438.195 133.99 438.085 133.55 438.085C133.11 438.085 132.7 438.195 132.32 438.415C131.94 438.625 131.63 438.94 131.39 439.36C131.16 439.77 131.045 440.26 131.045 440.83C131.045 441.4 131.16 441.9 131.39 442.33C131.63 442.76 131.94 443.09 132.32 443.32C132.71 443.54 133.12 443.65 133.55 443.65C133.99 443.65 134.4 443.54 134.78 443.32C135.16 443.1 135.465 442.78 135.695 442.36C135.935 441.93 136.055 441.43 136.055 440.86ZM140.896 435.64C140.586 435.64 140.326 435.535 140.116 435.325C139.906 435.115 139.801 434.855 139.801 434.545C139.801 434.235 139.906 433.975 140.116 433.765C140.326 433.555 140.586 433.45 140.896 433.45C141.196 433.45 141.451 433.555 141.661 433.765C141.871 433.975 141.976 434.235 141.976 434.545C141.976 434.855 141.871 435.115 141.661 435.325C141.451 435.535 141.196 435.64 140.896 435.64ZM141.736 436.735V445H140.026V436.735H141.736ZM146.981 445.135C146.331 445.135 145.746 445.02 145.226 444.79C144.716 444.55 144.311 444.23 144.011 443.83C143.711 443.42 143.551 442.965 143.531 442.465H145.301C145.331 442.815 145.496 443.11 145.796 443.35C146.106 443.58 146.491 443.695 146.951 443.695C147.431 443.695 147.801 443.605 148.061 443.425C148.331 443.235 148.466 442.995 148.466 442.705C148.466 442.395 148.316 442.165 148.016 442.015C147.726 441.865 147.261 441.7 146.621 441.52C146.001 441.35 145.496 441.185 145.106 441.025C144.716 440.865 144.376 440.62 144.086 440.29C143.806 439.96 143.666 439.525 143.666 438.985C143.666 438.545 143.796 438.145 144.056 437.785C144.316 437.415 144.686 437.125 145.166 436.915C145.656 436.705 146.216 436.6 146.846 436.6C147.786 436.6 148.541 436.84 149.111 437.32C149.691 437.79 150.001 438.435 150.041 439.255H148.331C148.301 438.885 148.151 438.59 147.881 438.37C147.611 438.15 147.246 438.04 146.786 438.04C146.336 438.04 145.991 438.125 145.751 438.295C145.511 438.465 145.391 438.69 145.391 438.97C145.391 439.19 145.471 439.375 145.631 439.525C145.791 439.675 145.986 439.795 146.216 439.885C146.446 439.965 146.786 440.07 147.236 440.2C147.836 440.36 148.326 440.525 148.706 440.695C149.096 440.855 149.431 441.095 149.711 441.415C149.991 441.735 150.136 442.16 150.146 442.69C150.146 443.16 150.016 443.58 149.756 443.95C149.496 444.32 149.126 444.61 148.646 444.82C148.176 445.03 147.621 445.135 146.981 445.135ZM153.989 438.13V442.705C153.989 443.015 154.059 443.24 154.199 443.38C154.349 443.51 154.599 443.575 154.949 443.575H155.999V445H154.649C153.879 445 153.289 444.82 152.879 444.46C152.469 444.1 152.264 443.515 152.264 442.705V438.13H151.289V436.735H152.264V434.68H153.989V436.735H155.999V438.13H153.989ZM165.15 440.665C165.15 440.975 165.13 441.255 165.09 441.505H158.775C158.825 442.165 159.07 442.695 159.51 443.095C159.95 443.495 160.49 443.695 161.13 443.695C162.05 443.695 162.7 443.31 163.08 442.54H164.925C164.675 443.3 164.22 443.925 163.56 444.415C162.91 444.895 162.1 445.135 161.13 445.135C160.34 445.135 159.63 444.96 159 444.61C158.38 444.25 157.89 443.75 157.53 443.11C157.18 442.46 157.005 441.71 157.005 440.86C157.005 440.01 157.175 439.265 157.515 438.625C157.865 437.975 158.35 437.475 158.97 437.125C159.6 436.775 160.32 436.6 161.13 436.6C161.91 436.6 162.605 436.77 163.215 437.11C163.825 437.45 164.3 437.93 164.64 438.55C164.98 439.16 165.15 439.865 165.15 440.665ZM163.365 440.125C163.355 439.495 163.13 438.99 162.69 438.61C162.25 438.23 161.705 438.04 161.055 438.04C160.465 438.04 159.96 438.23 159.54 438.61C159.12 438.98 158.87 439.485 158.79 440.125H163.365ZM168.543 437.935C168.793 437.515 169.123 437.19 169.533 436.96C169.953 436.72 170.448 436.6 171.018 436.6V438.37H170.583C169.913 438.37 169.403 438.54 169.053 438.88C168.713 439.22 168.543 439.81 168.543 440.65V445H166.833V436.735H168.543V437.935ZM185.051 445H183.341L178.196 437.215V445H176.486V434.56H178.196L183.341 442.33V434.56H185.051V445ZM190.882 445.135C190.102 445.135 189.397 444.96 188.767 444.61C188.137 444.25 187.642 443.75 187.282 443.11C186.922 442.46 186.742 441.71 186.742 440.86C186.742 440.02 186.927 439.275 187.297 438.625C187.667 437.975 188.172 437.475 188.812 437.125C189.452 436.775 190.167 436.6 190.957 436.6C191.747 436.6 192.462 436.775 193.102 437.125C193.742 437.475 194.247 437.975 194.617 438.625C194.987 439.275 195.172 440.02 195.172 440.86C195.172 441.7 194.982 442.445 194.602 443.095C194.222 443.745 193.702 444.25 193.042 444.61C192.392 444.96 191.672 445.135 190.882 445.135ZM190.882 443.65C191.322 443.65 191.732 443.545 192.112 443.335C192.502 443.125 192.817 442.81 193.057 442.39C193.297 441.97 193.417 441.46 193.417 440.86C193.417 440.26 193.302 439.755 193.072 439.345C192.842 438.925 192.537 438.61 192.157 438.4C191.777 438.19 191.367 438.085 190.927 438.085C190.487 438.085 190.077 438.19 189.697 438.4C189.327 438.61 189.032 438.925 188.812 439.345C188.592 439.755 188.482 440.26 188.482 440.86C188.482 441.75 188.707 442.44 189.157 442.93C189.617 443.41 190.192 443.65 190.882 443.65ZM207.962 436.735L205.397 445H203.597L201.932 438.895L200.267 445H198.467L195.887 436.735H197.627L199.352 443.38L201.107 436.735H202.892L204.572 443.35L206.282 436.735H207.962Z" fill="white"/>
<defs>
<linearGradient id="paint0_linear_990_953" x1="453" y1="111.5" x2="492.698" y2="176.631" gradientUnits="userSpaceOnUse">
<stop stop-color="#F05A8E"/>
<stop offset="1" stop-color="#ED1C24"/>
</linearGradient>
<linearGradient id="paint1_linear_990_953" x1="80" y1="173.5" x2="436.859" y2="372.83" gradientUnits="userSpaceOnUse">
<stop stop-color="#F05A8E"/>
<stop offset="1" stop-color="#ED1C24"/>
</linearGradient>
<linearGradient id="paint2_linear_990_953" x1="80" y1="440" x2="177.531" y2="483.012" gradientUnits="userSpaceOnUse">
<stop stop-color="#F05A8E"/>
<stop offset="1" stop-color="#ED1C24"/>
</linearGradient>
</defs>
</svg>
