<svg width="248" height="248" viewBox="0 0 248 248" fill="none" xmlns="http://www.w3.org/2000/svg">
<rect x="0.5" y="0.5" width="247" height="247" rx="19.5" stroke="#ED1C24" stroke-opacity="0.15"/>
<rect x="26.2032" y="38.7032" width="63.5935" height="63.5935" rx="31.7968" stroke="white" stroke-width="0.406493"/>
<rect x="26.2032" y="38.7032" width="63.5935" height="63.5935" rx="31.7968" stroke="url(#paint0_linear_990_1003)" stroke-width="0.406493"/>
<mask id="path-4-inside-1_990_1003" fill="white">
<path d="M66.3334 82.9997C66.3334 80.1707 65.2096 77.4576 63.2092 75.4572C61.2088 73.4568 58.4957 72.333 55.6668 72.333C52.8378 72.333 50.1247 73.4568 48.1243 75.4572C46.1239 77.4576 45.0001 80.1707 45.0001 82.9997"/>
</mask>
<path d="M66.3334 82.9997C66.3334 80.1707 65.2096 77.4576 63.2092 75.4572C61.2088 73.4568 58.4957 72.333 55.6668 72.333C52.8378 72.333 50.1247 73.4568 48.1243 75.4572C46.1239 77.4576 45.0001 80.1707 45.0001 82.9997" fill="#ED1C24"/>
<path d="M64.3334 82.9997C64.3334 84.1043 65.2289 84.9997 66.3334 84.9997C67.438 84.9997 68.3334 84.1043 68.3334 82.9997H64.3334ZM55.6668 72.333V70.333V72.333ZM43.0001 82.9997C43.0001 84.1043 43.8955 84.9997 45.0001 84.9997C46.1047 84.9997 47.0001 84.1043 47.0001 82.9997H43.0001ZM68.3334 82.9997C68.3334 79.6403 66.9989 76.4185 64.6234 74.043L61.795 76.8714C63.4203 78.4967 64.3334 80.7011 64.3334 82.9997H68.3334ZM64.6234 74.043C62.248 71.6675 59.0262 70.333 55.6668 70.333V74.333C57.9653 74.333 60.1697 75.2461 61.795 76.8714L64.6234 74.043ZM55.6668 70.333C52.3073 70.333 49.0855 71.6675 46.7101 74.043L49.5385 76.8714C51.1638 75.2461 53.3682 74.333 55.6668 74.333V70.333ZM46.7101 74.043C44.3346 76.4185 43.0001 79.6403 43.0001 82.9997H47.0001C47.0001 80.7011 47.9132 78.4967 49.5385 76.8714L46.7101 74.043Z" fill="#ED1C24" mask="url(#path-4-inside-1_990_1003)"/>
<path d="M55.6668 72.3334C59.3487 72.3334 62.3334 69.3486 62.3334 65.6667C62.3334 61.9848 59.3487 59 55.6668 59C51.9849 59 49.0001 61.9848 49.0001 65.6667C49.0001 69.3486 51.9849 72.3334 55.6668 72.3334Z" fill="#ED1C24" stroke="#ED1C24" stroke-width="2" stroke-linecap="round" stroke-linejoin="round"/>
<path d="M71.6668 81.6665C71.6668 77.1731 69.0002 72.9998 66.3335 70.9998C67.21 70.3422 67.911 69.4786 68.3742 68.4855C68.8375 67.4924 69.0488 66.4004 68.9895 65.3062C68.9302 64.212 68.602 63.1492 68.0341 62.212C67.4662 61.2749 66.676 60.4921 65.7335 59.9331" stroke="#ED1C24" stroke-width="2" stroke-linecap="round" stroke-linejoin="round"/>
<path d="M48.3613 179.628V168.812H27.8173V163.82L50.1533 134.956H53.9933V163.692H59.6253V168.812H53.9933V179.628H48.3613ZM33.6413 163.692H48.9373V143.66L33.6413 163.692ZM97.9368 156.46C97.9368 159.361 97.2114 162.007 95.7607 164.396C94.3528 166.743 92.4114 168.62 89.9368 170.028C87.5048 171.436 84.7528 172.14 81.6808 172.14C78.4381 172.14 75.5794 171.372 73.1048 169.836C70.6301 168.257 68.6888 165.996 67.2808 163.052C65.9154 160.108 65.2328 156.609 65.2328 152.556C65.2328 146.583 65.9368 141.612 67.3448 137.644C68.7528 133.676 70.7368 130.711 73.2968 128.748C75.8568 126.743 78.8434 125.74 82.2568 125.74C85.2008 125.74 87.8674 126.465 90.2568 127.916C92.6888 129.324 94.5874 131.287 95.9528 133.804L92.4968 137.196C91.5581 135.191 90.1714 133.612 88.3368 132.46C86.5021 131.265 84.4541 130.668 82.1928 130.668C79.8888 130.668 77.8621 131.372 76.1128 132.78C74.3634 134.188 72.9981 136.215 72.0168 138.86C71.0781 141.505 70.5874 144.705 70.5448 148.46C71.1848 146.967 72.0808 145.687 73.2328 144.62C74.3848 143.511 75.7288 142.657 77.2648 142.06C78.8434 141.463 80.5074 141.164 82.2568 141.164C85.2008 141.164 87.8461 141.847 90.1928 143.212C92.5821 144.577 94.4594 146.412 95.8248 148.716C97.2328 151.02 97.9368 153.601 97.9368 156.46ZM81.7448 167.276C83.7074 167.276 85.4994 166.785 87.1208 165.804C88.7848 164.823 90.1074 163.521 91.0888 161.9C92.0701 160.236 92.5608 158.423 92.5608 156.46C92.5608 154.497 92.0701 152.705 91.0888 151.084C90.1074 149.463 88.7848 148.161 87.1208 147.18C85.4994 146.199 83.7074 145.708 81.7448 145.708C79.7821 145.708 77.9688 146.199 76.3048 147.18C74.6834 148.161 73.3821 149.463 72.4008 151.084C71.4194 152.705 70.9288 154.497 70.9288 156.46C70.9288 158.423 71.4194 160.236 72.4008 161.9C73.3821 163.521 74.6834 164.823 76.3048 165.804C77.9688 166.785 79.7821 167.276 81.7448 167.276ZM125.869 139.372H102.509V134.188H134.765L111.917 179.628H105.517L125.869 139.372ZM160.119 139.372H136.759V134.188H169.015L146.167 179.628H139.767L160.119 139.372ZM192.193 147.82V149.74H183.553V159.084H181.441V149.74H172.801V147.82H181.441V138.476H183.553V147.82H192.193Z" fill="url(#paint1_linear_990_1003)"/>
<path d="M48.3613 179.628V168.812H27.8173V163.82L50.1533 134.956H53.9933V163.692H59.6253V168.812H53.9933V179.628H48.3613ZM33.6413 163.692H48.9373V143.66L33.6413 163.692ZM97.9368 156.46C97.9368 159.361 97.2114 162.007 95.7607 164.396C94.3528 166.743 92.4114 168.62 89.9368 170.028C87.5048 171.436 84.7528 172.14 81.6808 172.14C78.4381 172.14 75.5794 171.372 73.1048 169.836C70.6301 168.257 68.6888 165.996 67.2808 163.052C65.9154 160.108 65.2328 156.609 65.2328 152.556C65.2328 146.583 65.9368 141.612 67.3448 137.644C68.7528 133.676 70.7368 130.711 73.2968 128.748C75.8568 126.743 78.8434 125.74 82.2568 125.74C85.2008 125.74 87.8674 126.465 90.2568 127.916C92.6888 129.324 94.5874 131.287 95.9528 133.804L92.4968 137.196C91.5581 135.191 90.1714 133.612 88.3368 132.46C86.5021 131.265 84.4541 130.668 82.1928 130.668C79.8888 130.668 77.8621 131.372 76.1128 132.78C74.3634 134.188 72.9981 136.215 72.0168 138.86C71.0781 141.505 70.5874 144.705 70.5448 148.46C71.1848 146.967 72.0808 145.687 73.2328 144.62C74.3848 143.511 75.7288 142.657 77.2648 142.06C78.8434 141.463 80.5074 141.164 82.2568 141.164C85.2008 141.164 87.8461 141.847 90.1928 143.212C92.5821 144.577 94.4594 146.412 95.8248 148.716C97.2328 151.02 97.9368 153.601 97.9368 156.46ZM81.7448 167.276C83.7074 167.276 85.4994 166.785 87.1208 165.804C88.7848 164.823 90.1074 163.521 91.0888 161.9C92.0701 160.236 92.5608 158.423 92.5608 156.46C92.5608 154.497 92.0701 152.705 91.0888 151.084C90.1074 149.463 88.7848 148.161 87.1208 147.18C85.4994 146.199 83.7074 145.708 81.7448 145.708C79.7821 145.708 77.9688 146.199 76.3048 147.18C74.6834 148.161 73.3821 149.463 72.4008 151.084C71.4194 152.705 70.9288 154.497 70.9288 156.46C70.9288 158.423 71.4194 160.236 72.4008 161.9C73.3821 163.521 74.6834 164.823 76.3048 165.804C77.9688 166.785 79.7821 167.276 81.7448 167.276ZM125.869 139.372H102.509V134.188H134.765L111.917 179.628H105.517L125.869 139.372ZM160.119 139.372H136.759V134.188H169.015L146.167 179.628H139.767L160.119 139.372ZM192.193 147.82V149.74H183.553V159.084H181.441V149.74H172.801V147.82H181.441V138.476H183.553V147.82H192.193Z" fill="#C1645C" fill-opacity="0.2"/>
<path d="M28.1414 209.5V195.3H34.2214C34.8481 195.3 35.4214 195.433 35.9414 195.7C36.4614 195.953 36.9147 196.3 37.3014 196.74C37.6881 197.167 37.9881 197.653 38.2014 198.2C38.4147 198.733 38.5214 199.28 38.5214 199.84C38.5214 200.493 38.3947 201.113 38.1414 201.7C37.9014 202.287 37.5547 202.787 37.1014 203.2C36.6614 203.613 36.1414 203.9 35.5414 204.06L38.9814 209.5H36.9414L33.7014 204.4H29.9414V209.5H28.1414ZM29.9414 202.8H34.2414C34.7347 202.8 35.1614 202.667 35.5214 202.4C35.8947 202.12 36.1814 201.753 36.3814 201.3C36.5947 200.847 36.7014 200.36 36.7014 199.84C36.7014 199.307 36.5814 198.82 36.3414 198.38C36.1014 197.927 35.7881 197.567 35.4014 197.3C35.0147 197.033 34.5881 196.9 34.1214 196.9H29.9414V202.8ZM45.2939 209.7C44.5072 209.7 43.7872 209.56 43.1339 209.28C42.4939 208.987 41.9339 208.593 41.4539 208.1C40.9872 207.593 40.6206 207.013 40.3539 206.36C40.1006 205.707 39.9739 205.013 39.9739 204.28C39.9739 203.293 40.2006 202.393 40.6539 201.58C41.1072 200.767 41.7339 200.113 42.5339 199.62C43.3472 199.127 44.2739 198.88 45.3139 198.88C46.3672 198.88 47.2806 199.133 48.0539 199.64C48.8406 200.133 49.4472 200.787 49.8739 201.6C50.3139 202.4 50.5339 203.267 50.5339 204.2C50.5339 204.333 50.5272 204.467 50.5139 204.6C50.5139 204.72 50.5072 204.813 50.4939 204.88H41.8339C41.8872 205.56 42.0739 206.167 42.3939 206.7C42.7272 207.22 43.1539 207.633 43.6739 207.94C44.1939 208.233 44.7539 208.38 45.3539 208.38C45.9939 208.38 46.5939 208.22 47.1539 207.9C47.7272 207.58 48.1206 207.16 48.3339 206.64L49.8539 207.06C49.6272 207.567 49.2872 208.02 48.8339 208.42C48.3939 208.82 47.8672 209.133 47.2539 209.36C46.6539 209.587 46.0006 209.7 45.2939 209.7ZM41.7739 203.66H48.8939C48.8406 202.98 48.6472 202.38 48.3139 201.86C47.9806 201.34 47.5539 200.933 47.0339 200.64C46.5139 200.347 45.9406 200.2 45.3139 200.2C44.7006 200.2 44.1339 200.347 43.6139 200.64C43.0939 200.933 42.6672 201.34 42.3339 201.86C42.0139 202.38 41.8272 202.98 41.7739 203.66ZM56.6503 209.62C55.9436 209.62 55.2903 209.48 54.6903 209.2C54.1036 208.907 53.597 208.513 53.1703 208.02C52.7436 207.513 52.4103 206.94 52.1703 206.3C51.9436 205.66 51.8303 204.993 51.8303 204.3C51.8303 203.567 51.9436 202.873 52.1703 202.22C52.4103 201.567 52.7436 200.993 53.1703 200.5C53.6103 199.993 54.1236 199.6 54.7103 199.32C55.297 199.027 55.9503 198.88 56.6703 198.88C57.537 198.88 58.2903 199.093 58.9303 199.52C59.5836 199.947 60.1303 200.487 60.5703 201.14V199.06H62.1303V209.38C62.1303 210.367 61.8903 211.2 61.4103 211.88C60.9436 212.56 60.3036 213.073 59.4903 213.42C58.6903 213.78 57.797 213.96 56.8103 213.96C55.637 213.96 54.677 213.753 53.9303 213.34C53.1836 212.927 52.5636 212.367 52.0703 211.66L53.0903 210.76C53.5036 211.373 54.037 211.833 54.6903 212.14C55.357 212.447 56.0636 212.6 56.8103 212.6C57.4503 212.6 58.037 212.48 58.5703 212.24C59.117 212.013 59.5503 211.66 59.8703 211.18C60.2036 210.7 60.3703 210.1 60.3703 209.38V207.54C59.9836 208.18 59.4503 208.687 58.7703 209.06C58.1036 209.433 57.397 209.62 56.6503 209.62ZM57.1903 208.18C57.5636 208.18 57.9236 208.113 58.2703 207.98C58.617 207.847 58.937 207.673 59.2303 207.46C59.5236 207.233 59.7703 206.98 59.9703 206.7C60.1703 206.42 60.3036 206.133 60.3703 205.84V202.84C60.1836 202.36 59.917 201.94 59.5703 201.58C59.2236 201.207 58.8303 200.92 58.3903 200.72C57.9503 200.507 57.497 200.4 57.0303 200.4C56.497 200.4 56.017 200.513 55.5903 200.74C55.177 200.967 54.8236 201.273 54.5303 201.66C54.237 202.033 54.0103 202.453 53.8503 202.92C53.6903 203.387 53.6103 203.86 53.6103 204.34C53.6103 204.86 53.7036 205.353 53.8903 205.82C54.077 206.273 54.3303 206.68 54.6503 207.04C54.9703 207.4 55.3503 207.68 55.7903 207.88C56.2303 208.08 56.697 208.18 57.1903 208.18ZM64.9708 209.5V199.06H66.7308V209.5H64.9708ZM64.9708 197.1V194.9H66.7308V197.1H64.9708ZM73.1602 209.7C72.2935 209.7 71.4802 209.56 70.7202 209.28C69.9602 208.987 69.3068 208.553 68.7602 207.98L69.4402 206.74C70.0402 207.3 70.6402 207.7 71.2402 207.94C71.8402 208.18 72.4535 208.3 73.0802 208.3C73.8002 208.3 74.3868 208.167 74.8402 207.9C75.2935 207.62 75.5202 207.213 75.5202 206.68C75.5202 206.293 75.4002 206.007 75.1602 205.82C74.9335 205.633 74.6068 205.48 74.1802 205.36C73.7535 205.227 73.2468 205.08 72.6602 204.92C71.9402 204.707 71.3335 204.48 70.8402 204.24C70.3468 204 69.9735 203.7 69.7202 203.34C69.4668 202.98 69.3402 202.527 69.3402 201.98C69.3402 201.313 69.5135 200.753 69.8602 200.3C70.2068 199.833 70.6802 199.48 71.2802 199.24C71.8935 199 72.5868 198.88 73.3602 198.88C74.1335 198.88 74.8335 199 75.4602 199.24C76.0868 199.48 76.6268 199.833 77.0802 200.3L76.2802 201.52C75.8668 201.093 75.4135 200.78 74.9202 200.58C74.4268 200.367 73.8735 200.26 73.2602 200.26C72.9002 200.26 72.5468 200.307 72.2002 200.4C71.8535 200.48 71.5668 200.633 71.3402 200.86C71.1135 201.073 71.0002 201.38 71.0002 201.78C71.0002 202.113 71.0868 202.38 71.2602 202.58C71.4468 202.767 71.7135 202.927 72.0602 203.06C72.4202 203.193 72.8535 203.34 73.3602 203.5C74.1468 203.727 74.8268 203.953 75.4002 204.18C75.9868 204.407 76.4402 204.7 76.7602 205.06C77.0802 205.42 77.2402 205.92 77.2402 206.56C77.2402 207.547 76.8668 208.32 76.1202 208.88C75.3735 209.427 74.3868 209.7 73.1602 209.7ZM84.7458 208.98C84.5991 209.047 84.3991 209.133 84.1458 209.24C83.8924 209.347 83.5991 209.44 83.2658 209.52C82.9324 209.6 82.5791 209.64 82.2058 209.64C81.7791 209.64 81.3858 209.567 81.0258 209.42C80.6658 209.26 80.3791 209.02 80.1658 208.7C79.9524 208.367 79.8458 207.953 79.8458 207.46V200.44H78.4258V199.06H79.8458V195.58H81.6058V199.06H83.9458V200.44H81.6058V206.92C81.6324 207.293 81.7591 207.573 81.9858 207.76C82.2124 207.933 82.4791 208.02 82.7858 208.02C83.1324 208.02 83.4524 207.96 83.7458 207.84C84.0391 207.72 84.2324 207.633 84.3258 207.58L84.7458 208.98ZM90.8603 209.7C90.0736 209.7 89.3536 209.56 88.7003 209.28C88.0603 208.987 87.5003 208.593 87.0203 208.1C86.5536 207.593 86.187 207.013 85.9203 206.36C85.667 205.707 85.5403 205.013 85.5403 204.28C85.5403 203.293 85.767 202.393 86.2203 201.58C86.6736 200.767 87.3003 200.113 88.1003 199.62C88.9136 199.127 89.8403 198.88 90.8803 198.88C91.9336 198.88 92.847 199.133 93.6203 199.64C94.407 200.133 95.0136 200.787 95.4403 201.6C95.8803 202.4 96.1003 203.267 96.1003 204.2C96.1003 204.333 96.0936 204.467 96.0803 204.6C96.0803 204.72 96.0736 204.813 96.0603 204.88H87.4003C87.4536 205.56 87.6403 206.167 87.9603 206.7C88.2936 207.22 88.7203 207.633 89.2403 207.94C89.7603 208.233 90.3203 208.38 90.9203 208.38C91.5603 208.38 92.1603 208.22 92.7203 207.9C93.2936 207.58 93.687 207.16 93.9003 206.64L95.4203 207.06C95.1936 207.567 94.8536 208.02 94.4003 208.42C93.9603 208.82 93.4336 209.133 92.8203 209.36C92.2203 209.587 91.567 209.7 90.8603 209.7ZM87.3403 203.66H94.4603C94.407 202.98 94.2136 202.38 93.8803 201.86C93.547 201.34 93.1203 200.933 92.6003 200.64C92.0803 200.347 91.507 200.2 90.8803 200.2C90.267 200.2 89.7003 200.347 89.1803 200.64C88.6603 200.933 88.2336 201.34 87.9003 201.86C87.5803 202.38 87.3936 202.98 87.3403 203.66ZM103.577 200.6C102.697 200.613 101.917 200.84 101.237 201.28C100.57 201.707 100.097 202.3 99.8167 203.06V209.5H98.0567V199.06H99.6967V201.48C100.057 200.76 100.53 200.18 101.117 199.74C101.717 199.287 102.343 199.033 102.997 198.98C103.13 198.98 103.243 198.98 103.337 198.98C103.43 198.98 103.51 198.987 103.577 199V200.6ZM109.688 209.7C108.902 209.7 108.182 209.56 107.528 209.28C106.888 208.987 106.328 208.593 105.848 208.1C105.382 207.593 105.015 207.013 104.748 206.36C104.495 205.707 104.368 205.013 104.368 204.28C104.368 203.293 104.595 202.393 105.048 201.58C105.502 200.767 106.128 200.113 106.928 199.62C107.742 199.127 108.668 198.88 109.708 198.88C110.762 198.88 111.675 199.133 112.448 199.64C113.235 200.133 113.842 200.787 114.268 201.6C114.708 202.4 114.928 203.267 114.928 204.2C114.928 204.333 114.922 204.467 114.908 204.6C114.908 204.72 114.902 204.813 114.888 204.88H106.228C106.282 205.56 106.468 206.167 106.788 206.7C107.122 207.22 107.548 207.633 108.068 207.94C108.588 208.233 109.148 208.38 109.748 208.38C110.388 208.38 110.988 208.22 111.548 207.9C112.122 207.58 112.515 207.16 112.728 206.64L114.248 207.06C114.022 207.567 113.682 208.02 113.228 208.42C112.788 208.82 112.262 209.133 111.648 209.36C111.048 209.587 110.395 209.7 109.688 209.7ZM106.168 203.66H113.288C113.235 202.98 113.042 202.38 112.708 201.86C112.375 201.34 111.948 200.933 111.428 200.64C110.908 200.347 110.335 200.2 109.708 200.2C109.095 200.2 108.528 200.347 108.008 200.64C107.488 200.933 107.062 201.34 106.728 201.86C106.408 202.38 106.222 202.98 106.168 203.66ZM116.205 204.3C116.205 203.313 116.405 202.413 116.805 201.6C117.218 200.773 117.778 200.113 118.485 199.62C119.205 199.127 120.025 198.88 120.945 198.88C121.785 198.88 122.538 199.1 123.205 199.54C123.872 199.98 124.392 200.513 124.765 201.14V194.9H126.525V207.5C126.525 207.713 126.565 207.873 126.645 207.98C126.738 208.073 126.885 208.127 127.085 208.14V209.5C126.752 209.553 126.492 209.58 126.305 209.58C125.958 209.58 125.652 209.46 125.385 209.22C125.132 208.98 125.005 208.713 125.005 208.42V207.54C124.592 208.207 124.038 208.733 123.345 209.12C122.652 209.507 121.932 209.7 121.185 209.7C120.465 209.7 119.798 209.56 119.185 209.28C118.585 208.987 118.058 208.587 117.605 208.08C117.165 207.573 116.818 207 116.565 206.36C116.325 205.707 116.205 205.02 116.205 204.3ZM124.765 205.84V202.84C124.605 202.387 124.345 201.98 123.985 201.62C123.625 201.247 123.218 200.953 122.765 200.74C122.325 200.513 121.885 200.4 121.445 200.4C120.925 200.4 120.452 200.513 120.025 200.74C119.612 200.953 119.252 201.247 118.945 201.62C118.652 201.98 118.425 202.393 118.265 202.86C118.105 203.327 118.025 203.813 118.025 204.32C118.025 204.84 118.112 205.333 118.285 205.8C118.472 206.267 118.725 206.68 119.045 207.04C119.378 207.4 119.758 207.68 120.185 207.88C120.625 208.08 121.098 208.18 121.605 208.18C121.925 208.18 122.252 208.12 122.585 208C122.932 207.88 123.258 207.713 123.565 207.5C123.872 207.287 124.132 207.04 124.345 206.76C124.558 206.467 124.698 206.16 124.765 205.84ZM140.662 209.6C139.528 209.6 138.575 209.407 137.802 209.02C137.028 208.62 136.408 208.087 135.942 207.42C135.475 206.74 135.135 205.973 134.922 205.12C134.708 204.267 134.602 203.387 134.602 202.48V195.3H136.402V202.48C136.402 203.173 136.468 203.853 136.602 204.52C136.748 205.173 136.982 205.76 137.302 206.28C137.622 206.8 138.055 207.213 138.602 207.52C139.148 207.827 139.828 207.98 140.642 207.98C141.468 207.98 142.155 207.827 142.702 207.52C143.248 207.2 143.682 206.78 144.002 206.26C144.322 205.727 144.548 205.133 144.682 204.48C144.828 203.827 144.902 203.16 144.902 202.48V195.3H146.702V202.48C146.702 203.44 146.588 204.353 146.362 205.22C146.148 206.073 145.802 206.827 145.322 207.48C144.842 208.133 144.215 208.653 143.442 209.04C142.682 209.413 141.755 209.6 140.662 209.6ZM152.945 209.7C152.079 209.7 151.265 209.56 150.505 209.28C149.745 208.987 149.092 208.553 148.545 207.98L149.225 206.74C149.825 207.3 150.425 207.7 151.025 207.94C151.625 208.18 152.239 208.3 152.865 208.3C153.585 208.3 154.172 208.167 154.625 207.9C155.079 207.62 155.305 207.213 155.305 206.68C155.305 206.293 155.185 206.007 154.945 205.82C154.719 205.633 154.392 205.48 153.965 205.36C153.539 205.227 153.032 205.08 152.445 204.92C151.725 204.707 151.119 204.48 150.625 204.24C150.132 204 149.759 203.7 149.505 203.34C149.252 202.98 149.125 202.527 149.125 201.98C149.125 201.313 149.299 200.753 149.645 200.3C149.992 199.833 150.465 199.48 151.065 199.24C151.679 199 152.372 198.88 153.145 198.88C153.919 198.88 154.619 199 155.245 199.24C155.872 199.48 156.412 199.833 156.865 200.3L156.065 201.52C155.652 201.093 155.199 200.78 154.705 200.58C154.212 200.367 153.659 200.26 153.045 200.26C152.685 200.26 152.332 200.307 151.985 200.4C151.639 200.48 151.352 200.633 151.125 200.86C150.899 201.073 150.785 201.38 150.785 201.78C150.785 202.113 150.872 202.38 151.045 202.58C151.232 202.767 151.499 202.927 151.845 203.06C152.205 203.193 152.639 203.34 153.145 203.5C153.932 203.727 154.612 203.953 155.185 204.18C155.772 204.407 156.225 204.7 156.545 205.06C156.865 205.42 157.025 205.92 157.025 206.56C157.025 207.547 156.652 208.32 155.905 208.88C155.159 209.427 154.172 209.7 152.945 209.7ZM163.751 209.7C162.964 209.7 162.244 209.56 161.591 209.28C160.951 208.987 160.391 208.593 159.911 208.1C159.444 207.593 159.078 207.013 158.811 206.36C158.558 205.707 158.431 205.013 158.431 204.28C158.431 203.293 158.658 202.393 159.111 201.58C159.564 200.767 160.191 200.113 160.991 199.62C161.804 199.127 162.731 198.88 163.771 198.88C164.824 198.88 165.738 199.133 166.511 199.64C167.298 200.133 167.904 200.787 168.331 201.6C168.771 202.4 168.991 203.267 168.991 204.2C168.991 204.333 168.984 204.467 168.971 204.6C168.971 204.72 168.964 204.813 168.951 204.88H160.291C160.344 205.56 160.531 206.167 160.851 206.7C161.184 207.22 161.611 207.633 162.131 207.94C162.651 208.233 163.211 208.38 163.811 208.38C164.451 208.38 165.051 208.22 165.611 207.9C166.184 207.58 166.578 207.16 166.791 206.64L168.311 207.06C168.084 207.567 167.744 208.02 167.291 208.42C166.851 208.82 166.324 209.133 165.711 209.36C165.111 209.587 164.458 209.7 163.751 209.7ZM160.231 203.66H167.351C167.298 202.98 167.104 202.38 166.771 201.86C166.438 201.34 166.011 200.933 165.491 200.64C164.971 200.347 164.398 200.2 163.771 200.2C163.158 200.2 162.591 200.347 162.071 200.64C161.551 200.933 161.124 201.34 160.791 201.86C160.471 202.38 160.284 202.98 160.231 203.66ZM176.467 200.6C175.587 200.613 174.807 200.84 174.127 201.28C173.461 201.707 172.987 202.3 172.707 203.06V209.5H170.947V199.06H172.587V201.48C172.947 200.76 173.421 200.18 174.007 199.74C174.607 199.287 175.234 199.033 175.887 198.98C176.021 198.98 176.134 198.98 176.227 198.98C176.321 198.98 176.401 198.987 176.467 199V200.6ZM181.793 209.7C180.926 209.7 180.113 209.56 179.353 209.28C178.593 208.987 177.94 208.553 177.393 207.98L178.073 206.74C178.673 207.3 179.273 207.7 179.873 207.94C180.473 208.18 181.086 208.3 181.713 208.3C182.433 208.3 183.02 208.167 183.473 207.9C183.926 207.62 184.153 207.213 184.153 206.68C184.153 206.293 184.033 206.007 183.793 205.82C183.566 205.633 183.24 205.48 182.813 205.36C182.386 205.227 181.88 205.08 181.293 204.92C180.573 204.707 179.966 204.48 179.473 204.24C178.98 204 178.606 203.7 178.353 203.34C178.1 202.98 177.973 202.527 177.973 201.98C177.973 201.313 178.146 200.753 178.493 200.3C178.84 199.833 179.313 199.48 179.913 199.24C180.526 199 181.22 198.88 181.993 198.88C182.766 198.88 183.466 199 184.093 199.24C184.72 199.48 185.26 199.833 185.713 200.3L184.913 201.52C184.5 201.093 184.046 200.78 183.553 200.58C183.06 200.367 182.506 200.26 181.893 200.26C181.533 200.26 181.18 200.307 180.833 200.4C180.486 200.48 180.2 200.633 179.973 200.86C179.746 201.073 179.633 201.38 179.633 201.78C179.633 202.113 179.72 202.38 179.893 202.58C180.08 202.767 180.346 202.927 180.693 203.06C181.053 203.193 181.486 203.34 181.993 203.5C182.78 203.727 183.46 203.953 184.033 204.18C184.62 204.407 185.073 204.7 185.393 205.06C185.713 205.42 185.873 205.92 185.873 206.56C185.873 207.547 185.5 208.32 184.753 208.88C184.006 209.427 183.02 209.7 181.793 209.7Z" fill="black"/>
<defs>
<linearGradient id="paint0_linear_990_1003" x1="26" y1="70.5" x2="71.9374" y2="77.1256" gradientUnits="userSpaceOnUse">
<stop stop-color="#F05A8E"/>
<stop offset="1" stop-color="#ED1C24"/>
</linearGradient>
<linearGradient id="paint1_linear_990_1003" x1="26" y1="149" x2="122.045" y2="201.332" gradientUnits="userSpaceOnUse">
<stop stop-color="#F05A8E"/>
<stop offset="1" stop-color="#ED1C24"/>
</linearGradient>
</defs>
</svg>
