<svg width="248" height="248" viewBox="0 0 248 248" fill="none" xmlns="http://www.w3.org/2000/svg">
<rect x="0.5" y="0.5" width="247" height="247" rx="19.5" stroke="#ED1C24" stroke-opacity="0.15"/>
<rect x="26.2032" y="38.7032" width="63.5935" height="63.5935" rx="31.7968" stroke="white" stroke-width="0.406493"/>
<rect x="26.2032" y="38.7032" width="63.5935" height="63.5935" rx="31.7968" stroke="url(#paint0_linear_990_1020)" stroke-width="0.406493"/>
<path d="M67.1666 81.5402V86H48.8333V81.5402C48.8333 79.0878 50.7481 77.099 53.1111 77.099H55.1249L55.3463 75.7323C51.5508 76.851 49.5164 74.5108 49.5164 74.5108C50.0381 73.333 50.6669 71.2269 50.6669 67.4204V63.613C50.6669 61.5101 51.4872 59.6073 52.8143 58.2294C54.1415 56.852 55.9742 56 57.9997 56H58.0002C62.0498 56 65.3334 59.4081 65.3334 63.613V67.4204C65.3334 71.2269 65.9618 73.333 66.4835 74.5108C66.4835 74.5108 64.4593 76.8393 60.6818 75.7402L60.9297 77.099H62.8892C65.2518 77.099 67.1666 79.0879 67.1666 81.5402Z" fill="#ED1F29"/>
<path d="M53.5453 166.38V171.5H30.5693V166.38H39.6573V141.42C39.2733 141.932 38.6759 142.487 37.8653 143.084C37.0546 143.639 36.1373 144.172 35.1133 144.684C34.0893 145.196 33.0653 145.623 32.0413 145.964C31.0173 146.263 30.0786 146.412 29.2253 146.412V141.036C30.1639 141.036 31.1879 140.78 32.2973 140.268C33.4493 139.713 34.5586 139.073 35.6253 138.348C36.6919 137.623 37.5879 136.94 38.3133 136.3C39.0813 135.66 39.5293 135.212 39.6573 134.956H45.4173V166.38H53.5453ZM80.1818 139.372H56.8218V134.188H89.0778L66.2298 179.628H59.8298L80.1818 139.372ZM108.424 179.628V168.812H87.8798V163.82L110.216 134.956H114.056V163.692H119.688V168.812H114.056V179.628H108.424ZM93.7038 163.692H109V143.66L93.7038 163.692ZM124.783 171.5C124.783 169.793 124.911 168.193 125.167 166.7C125.466 165.207 125.978 163.777 126.703 162.412C127.471 161.047 128.538 159.745 129.903 158.508C131.269 157.228 133.039 155.991 135.215 154.796C136.495 154.071 137.775 153.388 139.055 152.748C140.378 152.108 141.594 151.425 142.703 150.7C143.855 149.975 144.773 149.185 145.455 148.332C146.138 147.436 146.479 146.412 146.479 145.26C146.479 144.279 146.181 143.34 145.583 142.444C145.029 141.505 144.175 140.759 143.023 140.204C141.914 139.607 140.527 139.308 138.863 139.308C137.583 139.308 136.41 139.479 135.343 139.82C134.319 140.161 133.381 140.609 132.527 141.164C131.717 141.676 130.991 142.231 130.351 142.828C129.754 143.383 129.242 143.895 128.815 144.364L125.295 140.396C125.637 140.012 126.213 139.5 127.023 138.86C127.834 138.177 128.858 137.495 130.095 136.812C131.333 136.129 132.762 135.553 134.383 135.084C136.047 134.572 137.861 134.316 139.823 134.316C142.469 134.316 144.73 134.785 146.607 135.724C148.527 136.62 149.999 137.857 151.023 139.436C152.047 140.972 152.559 142.7 152.559 144.62C152.559 146.284 152.197 147.735 151.471 148.972C150.789 150.209 149.893 151.297 148.783 152.236C147.717 153.175 146.586 153.985 145.391 154.668C144.239 155.308 143.194 155.863 142.255 156.332C140.335 157.271 138.693 158.124 137.327 158.892C135.962 159.66 134.831 160.428 133.935 161.196C133.082 161.921 132.378 162.689 131.823 163.5C131.311 164.311 130.927 165.271 130.671 166.38H153.263V171.5H124.783ZM179.193 147.82V149.74H170.553V159.084H168.441V149.74H159.801V147.82H168.441V138.476H170.553V147.82H179.193Z" fill="url(#paint1_linear_990_1020)"/>
<path d="M33.1813 195.38H34.8813L36.7613 200.32L38.6613 195.38H40.3613L37.9013 201.56L40.3413 207.42L45.1413 195.3H47.1013L41.1613 209.5H39.6013L36.7813 202.8L33.9413 209.5H32.3813L26.4613 195.3H28.4013L33.2213 207.42L35.6413 201.56L33.1813 195.38ZM51.8706 209.7C51.084 209.7 50.3706 209.56 49.7306 209.28C49.0906 208.987 48.5373 208.593 48.0706 208.1C47.604 207.593 47.244 207.013 46.9906 206.36C46.7373 205.707 46.6106 205.02 46.6106 204.3C46.6106 203.567 46.7373 202.873 46.9906 202.22C47.244 201.567 47.604 200.993 48.0706 200.5C48.5373 199.993 49.0906 199.6 49.7306 199.32C50.384 199.027 51.0973 198.88 51.8706 198.88C52.6573 198.88 53.3706 199.027 54.0106 199.32C54.6506 199.6 55.204 199.993 55.6706 200.5C56.1506 200.993 56.5173 201.567 56.7706 202.22C57.024 202.873 57.1506 203.567 57.1506 204.3C57.1506 205.02 57.024 205.707 56.7706 206.36C56.5173 207.013 56.1573 207.593 55.6906 208.1C55.224 208.593 54.664 208.987 54.0106 209.28C53.3706 209.56 52.6573 209.7 51.8706 209.7ZM48.4106 204.32C48.4106 205.04 48.564 205.693 48.8706 206.28C49.1906 206.867 49.6106 207.333 50.1306 207.68C50.6506 208.013 51.2306 208.18 51.8706 208.18C52.5106 208.18 53.0906 208.007 53.6106 207.66C54.144 207.313 54.564 206.847 54.8706 206.26C55.1906 205.66 55.3506 205 55.3506 204.28C55.3506 203.56 55.1906 202.907 54.8706 202.32C54.564 201.733 54.144 201.267 53.6106 200.92C53.0906 200.573 52.5106 200.4 51.8706 200.4C51.2306 200.4 50.6506 200.58 50.1306 200.94C49.6106 201.287 49.1906 201.753 48.8706 202.34C48.564 202.927 48.4106 203.587 48.4106 204.32ZM75.0233 209.5H73.2633V203.66C73.2633 202.567 73.0833 201.76 72.7233 201.24C72.3766 200.72 71.8566 200.46 71.1633 200.46C70.4566 200.46 69.8166 200.72 69.2433 201.24C68.6699 201.747 68.2633 202.407 68.0233 203.22V209.5H66.2633V203.66C66.2633 202.553 66.0899 201.747 65.7433 201.24C65.3966 200.72 64.8766 200.46 64.1833 200.46C63.4899 200.46 62.8499 200.713 62.2633 201.22C61.6899 201.713 61.2833 202.373 61.0433 203.2V209.5H59.2833V199.06H60.8833V201.3C61.3099 200.527 61.8633 199.933 62.5433 199.52C63.2233 199.093 63.9899 198.88 64.8433 198.88C65.7099 198.88 66.4033 199.12 66.9233 199.6C67.4433 200.067 67.7633 200.673 67.8833 201.42C68.3499 200.593 68.9166 199.967 69.5833 199.54C70.2499 199.1 71.0099 198.88 71.8633 198.88C72.4633 198.88 72.9633 198.993 73.3633 199.22C73.7766 199.433 74.1033 199.74 74.3433 200.14C74.5833 200.527 74.7566 200.987 74.8633 201.52C74.9699 202.053 75.0233 202.633 75.0233 203.26V209.5ZM82.3798 209.7C81.5932 209.7 80.8732 209.56 80.2198 209.28C79.5798 208.987 79.0198 208.593 78.5398 208.1C78.0732 207.593 77.7065 207.013 77.4398 206.36C77.1865 205.707 77.0598 205.013 77.0598 204.28C77.0598 203.293 77.2865 202.393 77.7398 201.58C78.1932 200.767 78.8198 200.113 79.6198 199.62C80.4332 199.127 81.3598 198.88 82.3998 198.88C83.4532 198.88 84.3665 199.133 85.1398 199.64C85.9265 200.133 86.5332 200.787 86.9598 201.6C87.3998 202.4 87.6198 203.267 87.6198 204.2C87.6198 204.333 87.6132 204.467 87.5998 204.6C87.5998 204.72 87.5932 204.813 87.5798 204.88H78.9198C78.9732 205.56 79.1598 206.167 79.4798 206.7C79.8132 207.22 80.2398 207.633 80.7598 207.94C81.2798 208.233 81.8398 208.38 82.4398 208.38C83.0798 208.38 83.6798 208.22 84.2398 207.9C84.8132 207.58 85.2065 207.16 85.4198 206.64L86.9398 207.06C86.7132 207.567 86.3732 208.02 85.9198 208.42C85.4798 208.82 84.9532 209.133 84.3398 209.36C83.7398 209.587 83.0865 209.7 82.3798 209.7ZM78.8598 203.66H85.9798C85.9265 202.98 85.7332 202.38 85.3998 201.86C85.0665 201.34 84.6398 200.933 84.1198 200.64C83.5998 200.347 83.0265 200.2 82.3998 200.2C81.7865 200.2 81.2198 200.347 80.6998 200.64C80.1798 200.933 79.7532 201.34 79.4198 201.86C79.0998 202.38 78.9132 202.98 78.8598 203.66ZM98.6363 209.5H96.8763V203.66C96.8763 202.553 96.7029 201.747 96.3563 201.24C96.0229 200.72 95.5096 200.46 94.8163 200.46C94.3363 200.46 93.8563 200.58 93.3763 200.82C92.9096 201.06 92.4896 201.387 92.1163 201.8C91.7563 202.2 91.4963 202.667 91.3363 203.2V209.5H89.5763V199.06H91.1763V201.3C91.4563 200.807 91.8163 200.38 92.2563 200.02C92.6963 199.66 93.1963 199.38 93.7563 199.18C94.3163 198.98 94.9029 198.88 95.5163 198.88C96.1163 198.88 96.6163 198.993 97.0163 199.22C97.4296 199.433 97.7496 199.74 97.9763 200.14C98.2163 200.527 98.3829 200.987 98.4763 201.52C98.5829 202.053 98.6363 202.633 98.6363 203.26V209.5ZM104.953 209.7C104.086 209.7 103.273 209.56 102.513 209.28C101.753 208.987 101.1 208.553 100.553 207.98L101.233 206.74C101.833 207.3 102.433 207.7 103.033 207.94C103.633 208.18 104.246 208.3 104.873 208.3C105.593 208.3 106.18 208.167 106.633 207.9C107.086 207.62 107.313 207.213 107.313 206.68C107.313 206.293 107.193 206.007 106.953 205.82C106.726 205.633 106.4 205.48 105.973 205.36C105.546 205.227 105.04 205.08 104.453 204.92C103.733 204.707 103.126 204.48 102.633 204.24C102.14 204 101.766 203.7 101.513 203.34C101.26 202.98 101.133 202.527 101.133 201.98C101.133 201.313 101.306 200.753 101.653 200.3C102 199.833 102.473 199.48 103.073 199.24C103.686 199 104.38 198.88 105.153 198.88C105.926 198.88 106.626 199 107.253 199.24C107.88 199.48 108.42 199.833 108.873 200.3L108.073 201.52C107.66 201.093 107.206 200.78 106.713 200.58C106.22 200.367 105.666 200.26 105.053 200.26C104.693 200.26 104.34 200.307 103.993 200.4C103.646 200.48 103.36 200.633 103.133 200.86C102.906 201.073 102.793 201.38 102.793 201.78C102.793 202.113 102.88 202.38 103.053 202.58C103.24 202.767 103.506 202.927 103.853 203.06C104.213 203.193 104.646 203.34 105.153 203.5C105.94 203.727 106.62 203.953 107.193 204.18C107.78 204.407 108.233 204.7 108.553 205.06C108.873 205.42 109.033 205.92 109.033 206.56C109.033 207.547 108.66 208.32 107.913 208.88C107.166 209.427 106.18 209.7 104.953 209.7Z" fill="black"/>
<defs>
<linearGradient id="paint0_linear_990_1020" x1="26" y1="70.5" x2="71.9374" y2="77.1256" gradientUnits="userSpaceOnUse">
<stop stop-color="#F05A8E"/>
<stop offset="1" stop-color="#ED1C24"/>
</linearGradient>
<linearGradient id="paint1_linear_990_1020" x1="26" y1="149" x2="117.792" y2="195.19" gradientUnits="userSpaceOnUse">
<stop stop-color="#F05A8E"/>
<stop offset="1" stop-color="#ED1C24"/>
</linearGradient>
</defs>
</svg>
